<svg xmlns="http://www.w3.org/2000/svg" xmlns:xlink="http://www.w3.org/1999/xlink" width="326" zoomAndPan="magnify" viewBox="0 0 244.5 70.499998" height="94" preserveAspectRatio="xMidYMid meet" version="1.0"><defs><g/><clipPath id="f08b5c212f"><rect x="0" width="33" y="0" height="25"/></clipPath><clipPath id="508b5601ac"><rect x="0" width="174" y="0" height="60"/></clipPath></defs><g transform="matrix(1, 0, 0, 1, 7, 14)"><g clip-path="url(#f08b5c212f)"><g fill="#ffffff" fill-opacity="1"><g transform="translate(0.720814, 19.09324)"><g><path d="M 0.671875 0 L 0.671875 -0.171875 L 0.890625 -0.171875 C 1.847656 -0.171875 2.328125 -0.59375 2.328125 -1.4375 L 2.328125 -11.125 C 2.328125 -11.914062 1.847656 -12.3125 0.890625 -12.3125 L 0.671875 -12.3125 L 0.671875 -12.484375 L 6.015625 -12.484375 C 7.804688 -12.484375 9.203125 -11.941406 10.203125 -10.859375 C 11.210938 -9.773438 11.71875 -8.242188 11.71875 -6.265625 C 11.71875 -4.984375 11.503906 -3.875 11.078125 -2.9375 C 10.648438 -2 10.015625 -1.273438 9.171875 -0.765625 C 8.328125 -0.253906 7.273438 0 6.015625 0 Z M 4.09375 -0.171875 L 5.609375 -0.171875 C 7.066406 -0.171875 8.125 -0.648438 8.78125 -1.609375 C 9.445312 -2.578125 9.78125 -4.128906 9.78125 -6.265625 C 9.78125 -8.378906 9.445312 -9.914062 8.78125 -10.875 C 8.125 -11.832031 7.070312 -12.3125 5.625 -12.3125 L 4.09375 -12.3125 Z M 4.09375 -0.171875 "/></g></g></g><g fill="#ffffff" fill-opacity="1"><g transform="translate(13.428165, 19.09324)"><g><path d="M 5.109375 0.171875 C 3.796875 0.171875 2.773438 -0.242188 2.046875 -1.078125 C 1.328125 -1.921875 0.96875 -3.097656 0.96875 -4.609375 C 0.96875 -6.242188 1.300781 -7.472656 1.96875 -8.296875 C 2.632812 -9.128906 3.59375 -9.546875 4.84375 -9.546875 C 5.976562 -9.546875 6.867188 -9.195312 7.515625 -8.5 C 8.160156 -7.800781 8.484375 -6.757812 8.484375 -5.375 L 8.484375 -4.953125 L 2.65625 -4.953125 C 2.664062 -3.160156 2.859375 -1.882812 3.234375 -1.125 C 3.617188 -0.375 4.257812 0 5.15625 0 C 5.8125 0 6.363281 -0.175781 6.8125 -0.53125 C 7.257812 -0.894531 7.546875 -1.4375 7.671875 -2.15625 C 7.816406 -2.125 7.921875 -2.050781 7.984375 -1.9375 C 8.054688 -1.820312 8.09375 -1.703125 8.09375 -1.578125 C 8.09375 -1.335938 7.984375 -1.082031 7.765625 -0.8125 C 7.546875 -0.539062 7.21875 -0.304688 6.78125 -0.109375 C 6.34375 0.078125 5.785156 0.171875 5.109375 0.171875 Z M 2.65625 -5.125 L 6.71875 -5.125 C 6.71875 -6.644531 6.570312 -7.734375 6.28125 -8.390625 C 5.988281 -9.046875 5.5 -9.375 4.8125 -9.375 C 4.09375 -9.375 3.566406 -9.046875 3.234375 -8.390625 C 2.910156 -7.734375 2.71875 -6.644531 2.65625 -5.125 Z M 2.65625 -5.125 "/></g></g></g><g fill="#ffffff" fill-opacity="1"><g transform="translate(22.779515, 19.09324)"><g><path d="M 0.40625 0 L 0.40625 -0.171875 L 0.625 -0.171875 C 1.144531 -0.171875 1.515625 -0.273438 1.734375 -0.484375 C 1.953125 -0.691406 2.0625 -1.035156 2.0625 -1.515625 L 2.0625 -7.828125 C 2.0625 -8.316406 1.953125 -8.664062 1.734375 -8.875 C 1.515625 -9.09375 1.144531 -9.203125 0.625 -9.203125 L 0.578125 -9.203125 L 0.578125 -9.375 L 3.6875 -9.375 L 3.6875 -7.625 L 3.71875 -7.625 C 3.800781 -7.925781 3.925781 -8.222656 4.09375 -8.515625 C 4.257812 -8.804688 4.503906 -9.050781 4.828125 -9.25 C 5.148438 -9.445312 5.597656 -9.546875 6.171875 -9.546875 C 6.742188 -9.546875 7.1875 -9.429688 7.5 -9.203125 C 7.8125 -8.972656 7.96875 -8.65625 7.96875 -8.25 C 7.96875 -7.90625 7.84375 -7.613281 7.59375 -7.375 C 7.34375 -7.144531 6.925781 -7.03125 6.34375 -7.03125 C 6.34375 -7.75 6.21875 -8.242188 5.96875 -8.515625 C 5.726562 -8.796875 5.457031 -8.9375 5.15625 -8.9375 C 4.820312 -8.9375 4.554688 -8.816406 4.359375 -8.578125 C 4.160156 -8.335938 4.015625 -8.023438 3.921875 -7.640625 C 3.828125 -7.265625 3.765625 -6.875 3.734375 -6.46875 C 3.710938 -6.070312 3.703125 -5.707031 3.703125 -5.375 L 3.703125 -1.609375 C 3.703125 -1.097656 3.8125 -0.726562 4.03125 -0.5 C 4.257812 -0.28125 4.628906 -0.171875 5.140625 -0.171875 L 5.375 -0.171875 L 5.375 0 Z M 0.40625 0 "/></g></g></g></g></g><g transform="matrix(1, 0, 0, 1, 50, 5)"><g clip-path="url(#508b5601ac)"><g fill="#ffffff" fill-opacity="1"><g transform="translate(1.431838, 42.322709)"><g><path d="M 12.171875 1.96875 C 11.273438 1.96875 10.382812 1.890625 9.5 1.734375 C 8.613281 1.585938 7.75 1.347656 6.90625 1.015625 C 5.414062 0.421875 4.210938 -0.304688 3.296875 -1.171875 C 2.378906 -2.046875 1.707031 -3.007812 1.28125 -4.0625 C 0.863281 -5.113281 0.65625 -6.222656 0.65625 -7.390625 C 0.65625 -8.304688 0.769531 -9.238281 1 -10.1875 C 1.238281 -11.144531 1.566406 -12.101562 1.984375 -13.0625 C 2.410156 -14.03125 2.914062 -14.972656 3.5 -15.890625 C 4.082031 -16.804688 4.726562 -17.691406 5.4375 -18.546875 C 6.144531 -19.398438 6.894531 -20.203125 7.6875 -20.953125 C 8.988281 -22.179688 10.421875 -23.347656 11.984375 -24.453125 C 13.554688 -25.566406 15.210938 -26.597656 16.953125 -27.546875 C 18.691406 -28.492188 20.484375 -29.332031 22.328125 -30.0625 C 20.984375 -30.726562 19.660156 -31.320312 18.359375 -31.84375 C 17.066406 -32.375 15.804688 -32.789062 14.578125 -33.09375 C 13.359375 -33.394531 12.164062 -33.546875 11 -33.546875 C 9.664062 -33.546875 8.457031 -33.34375 7.375 -32.9375 C 6.289062 -32.53125 5.363281 -31.96875 4.59375 -31.25 C 3.832031 -30.53125 3.269531 -29.691406 2.90625 -28.734375 C 2.90625 -28.734375 2.882812 -28.703125 2.84375 -28.640625 C 2.8125 -28.578125 2.773438 -28.515625 2.734375 -28.453125 C 2.703125 -28.390625 2.675781 -28.359375 2.65625 -28.359375 C 2.644531 -28.359375 2.640625 -28.367188 2.640625 -28.390625 C 2.640625 -28.410156 2.644531 -28.453125 2.65625 -28.515625 C 2.675781 -28.585938 2.710938 -28.6875 2.765625 -28.8125 C 3.023438 -29.582031 3.382812 -30.265625 3.84375 -30.859375 C 4.300781 -31.453125 4.835938 -31.960938 5.453125 -32.390625 C 6.066406 -32.816406 6.726562 -33.164062 7.4375 -33.4375 C 8.15625 -33.707031 8.898438 -33.90625 9.671875 -34.03125 C 10.441406 -34.164062 11.21875 -34.234375 12 -34.234375 C 12.9375 -34.234375 13.875 -34.128906 14.8125 -33.921875 C 15.75 -33.722656 16.6875 -33.445312 17.625 -33.09375 C 18.5625 -32.738281 19.5 -32.328125 20.4375 -31.859375 C 21.375 -31.398438 22.304688 -30.914062 23.234375 -30.40625 C 25.492188 -31.238281 27.691406 -31.859375 29.828125 -32.265625 C 31.972656 -32.679688 34.128906 -32.890625 36.296875 -32.890625 C 36.867188 -32.878906 37.484375 -32.835938 38.140625 -32.765625 C 38.796875 -32.703125 39.460938 -32.597656 40.140625 -32.453125 C 40.828125 -32.304688 41.5 -32.109375 42.15625 -31.859375 C 42.8125 -31.617188 43.425781 -31.320312 44 -30.96875 C 44.570312 -30.613281 45.070312 -30.191406 45.5 -29.703125 C 45.9375 -29.222656 46.273438 -28.664062 46.515625 -28.03125 C 46.671875 -27.601562 46.75 -27.203125 46.75 -26.828125 C 46.75 -26.316406 46.613281 -25.863281 46.34375 -25.46875 C 46.070312 -25.070312 45.703125 -24.734375 45.234375 -24.453125 C 44.773438 -24.179688 44.25 -23.957031 43.65625 -23.78125 C 43.070312 -23.613281 42.460938 -23.488281 41.828125 -23.40625 C 41.191406 -23.332031 40.5625 -23.296875 39.9375 -23.296875 C 39.5625 -23.296875 39.195312 -23.304688 38.84375 -23.328125 C 38.5 -23.359375 38.171875 -23.398438 37.859375 -23.453125 C 36.703125 -23.648438 35.550781 -23.941406 34.40625 -24.328125 C 33.257812 -24.710938 32.117188 -25.164062 30.984375 -25.6875 C 29.847656 -26.207031 28.710938 -26.757812 27.578125 -27.34375 C 26.453125 -27.925781 25.332031 -28.503906 24.21875 -29.078125 C 22.101562 -28.242188 20.054688 -27.253906 18.078125 -26.109375 C 16.097656 -24.960938 14.234375 -23.671875 12.484375 -22.234375 C 10.734375 -20.796875 9.144531 -19.234375 7.71875 -17.546875 C 6.863281 -16.535156 6.097656 -15.453125 5.421875 -14.296875 C 4.742188 -13.140625 4.207031 -11.929688 3.8125 -10.671875 C 3.425781 -9.410156 3.234375 -8.109375 3.234375 -6.765625 C 3.234375 -6.566406 3.238281 -6.367188 3.25 -6.171875 C 3.257812 -5.984375 3.269531 -5.796875 3.28125 -5.609375 C 3.375 -4.617188 3.601562 -3.75 3.96875 -3 C 4.34375 -2.257812 4.816406 -1.628906 5.390625 -1.109375 C 5.972656 -0.585938 6.628906 -0.164062 7.359375 0.15625 C 8.097656 0.476562 8.878906 0.710938 9.703125 0.859375 C 10.535156 1.003906 11.378906 1.078125 12.234375 1.078125 C 12.742188 1.078125 13.25 1.050781 13.75 1 C 14.257812 0.957031 14.753906 0.894531 15.234375 0.8125 C 16.421875 0.601562 17.578125 0.304688 18.703125 -0.078125 C 19.835938 -0.472656 20.953125 -0.921875 22.046875 -1.421875 C 23.148438 -1.921875 24.242188 -2.441406 25.328125 -2.984375 C 26.410156 -3.523438 27.492188 -4.050781 28.578125 -4.5625 C 29.660156 -5.070312 30.75 -5.53125 31.84375 -5.9375 C 32.945312 -6.34375 34.066406 -6.664062 35.203125 -6.90625 C 36.347656 -7.15625 37.519531 -7.28125 38.71875 -7.28125 C 39.394531 -7.28125 40.082031 -7.234375 40.78125 -7.140625 C 41.488281 -7.054688 42.203125 -6.914062 42.921875 -6.71875 C 42.992188 -6.695312 43.097656 -6.644531 43.234375 -6.5625 C 43.367188 -6.476562 43.492188 -6.390625 43.609375 -6.296875 C 43.734375 -6.210938 43.796875 -6.160156 43.796875 -6.140625 C 43.796875 -6.117188 43.78125 -6.109375 43.75 -6.109375 C 43.738281 -6.109375 43.71875 -6.113281 43.6875 -6.125 C 43.664062 -6.132812 43.628906 -6.148438 43.578125 -6.171875 C 42.828125 -6.453125 42.078125 -6.65625 41.328125 -6.78125 C 40.585938 -6.90625 39.84375 -6.96875 39.09375 -6.96875 C 38.0625 -6.96875 37.03125 -6.859375 36 -6.640625 C 34.976562 -6.429688 33.957031 -6.140625 32.9375 -5.765625 C 31.914062 -5.390625 30.90625 -4.960938 29.90625 -4.484375 C 28.914062 -4.003906 27.925781 -3.503906 26.9375 -2.984375 C 25.957031 -2.460938 24.988281 -1.945312 24.03125 -1.4375 C 22.800781 -0.78125 21.523438 -0.195312 20.203125 0.3125 C 18.890625 0.832031 17.554688 1.238281 16.203125 1.53125 C 14.847656 1.820312 13.503906 1.96875 12.171875 1.96875 Z M 38.78125 -24.109375 C 39.25 -24.109375 39.722656 -24.144531 40.203125 -24.21875 C 40.679688 -24.289062 41.179688 -24.398438 41.703125 -24.546875 C 42.085938 -24.660156 42.492188 -24.820312 42.921875 -25.03125 C 43.347656 -25.238281 43.75 -25.488281 44.125 -25.78125 C 44.5 -26.082031 44.800781 -26.421875 45.03125 -26.796875 C 45.269531 -27.171875 45.390625 -27.585938 45.390625 -28.046875 C 45.390625 -28.109375 45.390625 -28.164062 45.390625 -28.21875 C 45.390625 -28.28125 45.382812 -28.34375 45.375 -28.40625 C 45.300781 -28.882812 45.128906 -29.300781 44.859375 -29.65625 C 44.585938 -30.007812 44.253906 -30.304688 43.859375 -30.546875 C 43.460938 -30.785156 43.03125 -30.984375 42.5625 -31.140625 C 42.101562 -31.296875 41.640625 -31.421875 41.171875 -31.515625 C 40.703125 -31.609375 40.269531 -31.679688 39.875 -31.734375 C 39.4375 -31.796875 38.992188 -31.835938 38.546875 -31.859375 C 38.097656 -31.890625 37.648438 -31.90625 37.203125 -31.90625 C 35.867188 -31.90625 34.5 -31.789062 33.09375 -31.5625 C 31.695312 -31.34375 30.3125 -31.039062 28.9375 -30.65625 C 27.570312 -30.28125 26.265625 -29.859375 25.015625 -29.390625 C 26.035156 -28.816406 27.039062 -28.253906 28.03125 -27.703125 C 29.03125 -27.148438 30.019531 -26.644531 31 -26.1875 C 31.976562 -25.726562 32.953125 -25.347656 33.921875 -25.046875 C 34.773438 -24.773438 35.59375 -24.550781 36.375 -24.375 C 37.164062 -24.195312 37.96875 -24.109375 38.78125 -24.109375 Z M 38.78125 -24.109375 "/></g></g></g><g fill="#ffffff" fill-opacity="1"><g transform="translate(44.391898, 42.322709)"><g><path d="M 0.171875 -1.40625 C -0.285156 -1.40625 -0.613281 -1.535156 -0.8125 -1.796875 C -1.019531 -2.066406 -1.125 -2.378906 -1.125 -2.734375 C -1.125 -3.054688 -1.054688 -3.390625 -0.921875 -3.734375 C -0.785156 -4.085938 -0.632812 -4.414062 -0.46875 -4.71875 C -0.507812 -4.925781 -0.53125 -5.144531 -0.53125 -5.375 C -0.53125 -5.851562 -0.441406 -6.34375 -0.265625 -6.84375 C -0.0859375 -7.34375 0.164062 -7.835938 0.5 -8.328125 C 0.832031 -8.816406 1.226562 -9.269531 1.6875 -9.6875 C 2.15625 -10.101562 2.671875 -10.460938 3.234375 -10.765625 C 3.796875 -11.078125 4.398438 -11.304688 5.046875 -11.453125 C 5.265625 -11.503906 5.472656 -11.539062 5.671875 -11.5625 C 5.867188 -11.582031 6.054688 -11.59375 6.234375 -11.59375 C 6.785156 -11.59375 7.253906 -11.503906 7.640625 -11.328125 C 8.023438 -11.148438 8.320312 -10.910156 8.53125 -10.609375 C 8.75 -10.304688 8.859375 -9.960938 8.859375 -9.578125 C 8.859375 -9.253906 8.773438 -8.867188 8.609375 -8.421875 C 8.441406 -7.984375 8.195312 -7.507812 7.875 -7 C 7.550781 -6.488281 7.15625 -5.96875 6.6875 -5.4375 C 6.226562 -4.90625 5.691406 -4.390625 5.078125 -3.890625 C 4.472656 -3.390625 3.804688 -2.925781 3.078125 -2.5 C 3.253906 -2.476562 3.394531 -2.460938 3.5 -2.453125 C 3.613281 -2.453125 3.75 -2.453125 3.90625 -2.453125 C 4.582031 -2.453125 5.265625 -2.539062 5.953125 -2.71875 C 6.640625 -2.90625 7.328125 -3.148438 8.015625 -3.453125 C 8.703125 -3.753906 9.367188 -4.085938 10.015625 -4.453125 C 10.671875 -4.816406 11.296875 -5.1875 11.890625 -5.5625 C 12.484375 -5.9375 13.035156 -6.285156 13.546875 -6.609375 C 13.648438 -6.671875 13.71875 -6.703125 13.75 -6.703125 C 13.769531 -6.703125 13.78125 -6.695312 13.78125 -6.6875 C 13.78125 -6.65625 13.710938 -6.585938 13.578125 -6.484375 C 12.742188 -5.859375 11.878906 -5.28125 10.984375 -4.75 C 10.097656 -4.226562 9.210938 -3.769531 8.328125 -3.375 C 7.441406 -2.988281 6.582031 -2.6875 5.75 -2.46875 C 4.925781 -2.257812 4.148438 -2.15625 3.421875 -2.15625 C 3.117188 -2.15625 2.832031 -2.175781 2.5625 -2.21875 C 2.113281 -1.976562 1.679688 -1.78125 1.265625 -1.625 C 0.847656 -1.476562 0.484375 -1.40625 0.171875 -1.40625 Z M 2.484375 -2.625 C 3.085938 -2.96875 3.65625 -3.351562 4.1875 -3.78125 C 4.726562 -4.207031 5.222656 -4.648438 5.671875 -5.109375 C 6.117188 -5.578125 6.515625 -6.035156 6.859375 -6.484375 C 7.203125 -6.941406 7.484375 -7.359375 7.703125 -7.734375 C 7.910156 -8.109375 8.0625 -8.4375 8.15625 -8.71875 C 8.25 -9.007812 8.296875 -9.257812 8.296875 -9.46875 C 8.296875 -9.875 8.15625 -10.160156 7.875 -10.328125 C 7.59375 -10.503906 7.242188 -10.59375 6.828125 -10.59375 C 6.367188 -10.59375 5.890625 -10.515625 5.390625 -10.359375 C 4.898438 -10.210938 4.414062 -10.003906 3.9375 -9.734375 C 3.46875 -9.460938 3.019531 -9.15625 2.59375 -8.8125 C 2.164062 -8.46875 1.78125 -8.097656 1.4375 -7.703125 C 1.09375 -7.304688 0.816406 -6.90625 0.609375 -6.5 C 0.503906 -6.320312 0.421875 -6.144531 0.359375 -5.96875 C 0.765625 -6.476562 1.207031 -6.925781 1.6875 -7.3125 C 2.175781 -7.695312 2.648438 -8 3.109375 -8.21875 C 3.179688 -8.25 3.273438 -8.265625 3.390625 -8.265625 C 3.554688 -8.265625 3.734375 -8.234375 3.921875 -8.171875 C 4.117188 -8.109375 4.289062 -8.023438 4.4375 -7.921875 C 4.582031 -7.816406 4.65625 -7.707031 4.65625 -7.59375 C 4.65625 -7.476562 4.5625 -7.375 4.375 -7.28125 C 3.53125 -6.863281 2.769531 -6.363281 2.09375 -5.78125 C 1.414062 -5.195312 0.867188 -4.609375 0.453125 -4.015625 C 0.648438 -3.671875 0.925781 -3.382812 1.28125 -3.15625 C 1.644531 -2.925781 2.046875 -2.75 2.484375 -2.625 Z M 0.171875 -1.75 C 0.328125 -1.75 0.503906 -1.773438 0.703125 -1.828125 C 0.910156 -1.890625 1.125 -1.96875 1.34375 -2.0625 C 1.5625 -2.15625 1.765625 -2.25 1.953125 -2.34375 C 1.585938 -2.4375 1.25 -2.582031 0.9375 -2.78125 C 0.632812 -2.976562 0.363281 -3.21875 0.125 -3.5 C 0.0078125 -3.28125 -0.09375 -3.054688 -0.1875 -2.828125 C -0.28125 -2.597656 -0.328125 -2.390625 -0.328125 -2.203125 C -0.328125 -2.046875 -0.28125 -1.929688 -0.1875 -1.859375 C -0.101562 -1.785156 0.015625 -1.75 0.171875 -1.75 Z M 0.171875 -1.75 "/></g></g></g><g fill="#ffffff" fill-opacity="1"><g transform="translate(57.698302, 42.322709)"><g><path d="M 7.265625 -0.765625 C 6.722656 -0.765625 6.3125 -0.890625 6.03125 -1.140625 C 5.75 -1.390625 5.609375 -1.722656 5.609375 -2.140625 C 5.609375 -2.484375 5.6875 -2.875 5.84375 -3.3125 C 6.007812 -3.757812 6.222656 -4.222656 6.484375 -4.703125 C 6.753906 -5.191406 7.050781 -5.691406 7.375 -6.203125 C 7.707031 -6.710938 8.046875 -7.207031 8.390625 -7.6875 C 7.890625 -7.1875 7.351562 -6.675781 6.78125 -6.15625 C 6.21875 -5.632812 5.640625 -5.128906 5.046875 -4.640625 C 4.460938 -4.148438 3.878906 -3.710938 3.296875 -3.328125 C 2.710938 -2.953125 2.144531 -2.648438 1.59375 -2.421875 C 1.050781 -2.203125 0.539062 -2.09375 0.0625 -2.09375 C -0.101562 -2.09375 -0.257812 -2.101562 -0.40625 -2.125 C -0.5625 -2.15625 -0.710938 -2.207031 -0.859375 -2.28125 C -1.171875 -2.425781 -1.390625 -2.613281 -1.515625 -2.84375 C -1.648438 -3.082031 -1.71875 -3.347656 -1.71875 -3.640625 C -1.71875 -3.972656 -1.644531 -4.332031 -1.5 -4.71875 C -1.351562 -5.113281 -1.15625 -5.523438 -0.90625 -5.953125 C -0.65625 -6.390625 -0.378906 -6.828125 -0.078125 -7.265625 C 0.0976562 -7.503906 0.304688 -7.78125 0.546875 -8.09375 C 0.796875 -8.414062 1.046875 -8.738281 1.296875 -9.0625 C 1.554688 -9.382812 1.78125 -9.664062 1.96875 -9.90625 C 2.144531 -10.125 2.28125 -10.3125 2.375 -10.46875 C 2.46875 -10.625 2.546875 -10.769531 2.609375 -10.90625 C 2.671875 -11.050781 2.726562 -11.203125 2.78125 -11.359375 C 2.84375 -11.398438 2.90625 -11.421875 2.96875 -11.421875 C 3.113281 -11.421875 3.25 -11.347656 3.375 -11.203125 C 3.5 -11.066406 3.601562 -10.894531 3.6875 -10.6875 C 3.78125 -10.476562 3.828125 -10.273438 3.828125 -10.078125 C 3.828125 -9.929688 3.796875 -9.800781 3.734375 -9.6875 C 3.609375 -9.351562 3.398438 -8.992188 3.109375 -8.609375 C 2.828125 -8.222656 2.503906 -7.816406 2.140625 -7.390625 C 1.773438 -6.972656 1.414062 -6.535156 1.0625 -6.078125 C 0.707031 -5.617188 0.40625 -5.148438 0.15625 -4.671875 C 0 -4.367188 -0.113281 -4.109375 -0.1875 -3.890625 C -0.257812 -3.671875 -0.296875 -3.488281 -0.296875 -3.34375 C -0.296875 -3.144531 -0.242188 -3.003906 -0.140625 -2.921875 C -0.0351562 -2.835938 0.109375 -2.796875 0.296875 -2.796875 C 0.535156 -2.796875 0.828125 -2.859375 1.171875 -2.984375 C 1.523438 -3.117188 1.898438 -3.285156 2.296875 -3.484375 C 2.703125 -3.691406 3.097656 -3.914062 3.484375 -4.15625 C 3.878906 -4.40625 4.242188 -4.660156 4.578125 -4.921875 C 5.003906 -5.242188 5.460938 -5.628906 5.953125 -6.078125 C 6.441406 -6.535156 6.9375 -7.015625 7.4375 -7.515625 C 7.9375 -8.023438 8.40625 -8.507812 8.84375 -8.96875 C 8.90625 -9.03125 9.019531 -9.144531 9.1875 -9.3125 C 9.351562 -9.488281 9.535156 -9.675781 9.734375 -9.875 C 9.929688 -10.070312 10.113281 -10.253906 10.28125 -10.421875 C 10.445312 -10.597656 10.566406 -10.71875 10.640625 -10.78125 C 10.691406 -10.832031 10.753906 -10.859375 10.828125 -10.859375 C 10.953125 -10.859375 11.078125 -10.796875 11.203125 -10.671875 C 11.335938 -10.554688 11.453125 -10.40625 11.546875 -10.21875 C 11.640625 -10.039062 11.6875 -9.847656 11.6875 -9.640625 C 11.6875 -9.410156 11.625 -9.210938 11.5 -9.046875 C 11.351562 -8.828125 11.15625 -8.5625 10.90625 -8.25 C 10.65625 -7.945312 10.382812 -7.613281 10.09375 -7.25 C 9.8125 -6.894531 9.523438 -6.53125 9.234375 -6.15625 C 8.953125 -5.789062 8.6875 -5.4375 8.4375 -5.09375 C 8.195312 -4.75 8.003906 -4.4375 7.859375 -4.15625 C 7.691406 -3.84375 7.53125 -3.507812 7.375 -3.15625 C 7.21875 -2.800781 7.140625 -2.476562 7.140625 -2.1875 C 7.140625 -1.96875 7.203125 -1.765625 7.328125 -1.578125 C 7.460938 -1.390625 7.703125 -1.296875 8.046875 -1.296875 C 8.359375 -1.296875 8.738281 -1.378906 9.1875 -1.546875 C 9.632812 -1.710938 10.125 -1.9375 10.65625 -2.21875 C 11.195312 -2.507812 11.75 -2.832031 12.3125 -3.1875 C 12.875 -3.550781 13.425781 -3.929688 13.96875 -4.328125 C 14.519531 -4.722656 15.03125 -5.113281 15.5 -5.5 C 15.96875 -5.894531 16.367188 -6.257812 16.703125 -6.59375 C 16.773438 -6.65625 16.851562 -6.6875 16.9375 -6.6875 C 17 -6.6875 17.03125 -6.664062 17.03125 -6.625 C 17.03125 -6.601562 17.015625 -6.570312 16.984375 -6.53125 C 16.703125 -6.257812 16.335938 -5.925781 15.890625 -5.53125 C 15.441406 -5.144531 14.929688 -4.734375 14.359375 -4.296875 C 13.796875 -3.867188 13.203125 -3.445312 12.578125 -3.03125 C 11.953125 -2.613281 11.320312 -2.234375 10.6875 -1.890625 C 10.0625 -1.546875 9.453125 -1.269531 8.859375 -1.0625 C 8.273438 -0.863281 7.742188 -0.765625 7.265625 -0.765625 Z M 7.265625 -0.765625 "/></g></g></g><g fill="#ffffff" fill-opacity="1"><g transform="translate(74.282783, 42.322709)"><g><path d="M -1.625 -1.984375 C -1.757812 -1.984375 -1.90625 -2.03125 -2.0625 -2.125 C -2.21875 -2.21875 -2.351562 -2.328125 -2.46875 -2.453125 C -2.59375 -2.585938 -2.65625 -2.707031 -2.65625 -2.8125 L -2.640625 -2.875 C -2.347656 -3.5625 -2.007812 -4.226562 -1.625 -4.875 C -1.238281 -5.53125 -0.828125 -6.175781 -0.390625 -6.8125 C 0.0351562 -7.445312 0.457031 -8.082031 0.875 -8.71875 C 1.300781 -9.351562 1.691406 -10 2.046875 -10.65625 C 2.398438 -11.320312 2.691406 -12.003906 2.921875 -12.703125 C 2.953125 -12.816406 3.023438 -12.875 3.140625 -12.875 C 3.253906 -12.875 3.382812 -12.828125 3.53125 -12.734375 C 3.6875 -12.640625 3.832031 -12.507812 3.96875 -12.34375 C 4.113281 -12.1875 4.234375 -12.015625 4.328125 -11.828125 C 4.421875 -11.648438 4.46875 -11.46875 4.46875 -11.28125 C 4.46875 -11.164062 4.453125 -11.070312 4.421875 -11 C 4.234375 -10.457031 4.003906 -9.929688 3.734375 -9.421875 C 3.460938 -8.910156 3.160156 -8.40625 2.828125 -7.90625 C 3.546875 -8.519531 4.300781 -9.117188 5.09375 -9.703125 C 5.894531 -10.296875 6.789062 -10.882812 7.78125 -11.46875 C 8.25 -11.738281 8.742188 -11.992188 9.265625 -12.234375 C 9.785156 -12.484375 10.296875 -12.679688 10.796875 -12.828125 C 11.296875 -12.972656 11.75 -13.046875 12.15625 -13.046875 C 12.363281 -13.046875 12.550781 -13.023438 12.71875 -12.984375 C 12.96875 -12.910156 13.160156 -12.742188 13.296875 -12.484375 C 13.429688 -12.222656 13.5 -11.957031 13.5 -11.6875 C 13.5 -11.53125 13.476562 -11.382812 13.4375 -11.25 C 13.363281 -11.050781 13.257812 -10.835938 13.125 -10.609375 C 13 -10.378906 12.816406 -10.101562 12.578125 -9.78125 C 12.335938 -9.46875 12.023438 -9.078125 11.640625 -8.609375 C 11.253906 -8.148438 10.773438 -7.582031 10.203125 -6.90625 C 9.835938 -6.476562 9.507812 -6.050781 9.21875 -5.625 C 8.925781 -5.195312 8.695312 -4.785156 8.53125 -4.390625 C 8.363281 -4.003906 8.28125 -3.65625 8.28125 -3.34375 C 8.28125 -3.019531 8.382812 -2.785156 8.59375 -2.640625 C 8.8125 -2.503906 9.109375 -2.4375 9.484375 -2.4375 C 9.867188 -2.4375 10.316406 -2.5 10.828125 -2.625 C 11.335938 -2.757812 11.875 -2.9375 12.4375 -3.15625 C 13 -3.375 13.5625 -3.617188 14.125 -3.890625 C 14.6875 -4.160156 15.21875 -4.445312 15.71875 -4.75 C 16.226562 -5.050781 16.675781 -5.347656 17.0625 -5.640625 C 17.445312 -5.929688 17.734375 -6.203125 17.921875 -6.453125 C 17.972656 -6.503906 18.035156 -6.550781 18.109375 -6.59375 C 18.191406 -6.632812 18.253906 -6.65625 18.296875 -6.65625 C 18.316406 -6.65625 18.328125 -6.644531 18.328125 -6.625 C 18.328125 -6.613281 18.3125 -6.59375 18.28125 -6.5625 C 17.59375 -5.832031 16.835938 -5.179688 16.015625 -4.609375 C 15.203125 -4.046875 14.375 -3.570312 13.53125 -3.1875 C 12.6875 -2.800781 11.867188 -2.507812 11.078125 -2.3125 C 10.296875 -2.113281 9.585938 -2.015625 8.953125 -2.015625 C 8.460938 -2.015625 8.046875 -2.070312 7.703125 -2.1875 C 7.347656 -2.3125 7.078125 -2.515625 6.890625 -2.796875 C 6.710938 -3.085938 6.625 -3.4375 6.625 -3.84375 C 6.625 -4.375 6.773438 -4.96875 7.078125 -5.625 C 7.378906 -6.289062 7.835938 -6.972656 8.453125 -7.671875 C 8.992188 -8.273438 9.484375 -8.828125 9.921875 -9.328125 C 10.367188 -9.828125 10.722656 -10.265625 10.984375 -10.640625 C 11.253906 -11.023438 11.390625 -11.34375 11.390625 -11.59375 L 11.359375 -11.734375 C 11.359375 -11.828125 11.328125 -11.90625 11.265625 -11.96875 C 11.210938 -12.039062 11.125 -12.09375 11 -12.125 L 10.796875 -12.15625 C 10.554688 -12.15625 10.253906 -12.097656 9.890625 -11.984375 C 9.535156 -11.878906 9.1875 -11.734375 8.84375 -11.546875 C 7.90625 -11.046875 7.054688 -10.53125 6.296875 -10 C 5.535156 -9.476562 4.832031 -8.925781 4.1875 -8.34375 C 3.550781 -7.769531 2.929688 -7.160156 2.328125 -6.515625 C 1.734375 -5.867188 1.128906 -5.175781 0.515625 -4.4375 C -0.0859375 -3.707031 -0.734375 -2.914062 -1.421875 -2.0625 C -1.484375 -2.007812 -1.550781 -1.984375 -1.625 -1.984375 Z M -1.625 -1.984375 "/></g></g></g><g fill="#ffffff" fill-opacity="1"><g transform="translate(92.215164, 42.322709)"><g><path d="M 1.375 -1.34375 C 0.582031 -1.34375 -0.0351562 -1.554688 -0.484375 -1.984375 C -0.941406 -2.410156 -1.171875 -3.039062 -1.171875 -3.875 C -1.171875 -4.601562 -0.976562 -5.484375 -0.59375 -6.515625 C -0.207031 -7.546875 0.394531 -8.726562 1.21875 -10.0625 C 2.550781 -12.195312 4.019531 -14.210938 5.625 -16.109375 C 7.238281 -18.003906 8.90625 -19.75 10.625 -21.34375 C 10.257812 -21.382812 9.894531 -21.410156 9.53125 -21.421875 C 9.164062 -21.441406 8.804688 -21.453125 8.453125 -21.453125 C 8.234375 -21.453125 8.007812 -21.445312 7.78125 -21.4375 C 7.550781 -21.425781 7.320312 -21.414062 7.09375 -21.40625 C 6.820312 -21.375 6.550781 -21.335938 6.28125 -21.296875 C 6.019531 -21.253906 5.757812 -21.195312 5.5 -21.125 C 4.976562 -20.988281 4.484375 -20.789062 4.015625 -20.53125 C 3.796875 -20.394531 3.59375 -20.234375 3.40625 -20.046875 C 3.21875 -19.867188 3.085938 -19.664062 3.015625 -19.4375 C 2.984375 -19.351562 2.96875 -19.257812 2.96875 -19.15625 C 2.96875 -18.976562 3.015625 -18.800781 3.109375 -18.625 C 3.203125 -18.445312 3.320312 -18.289062 3.46875 -18.15625 C 3.519531 -18.101562 3.546875 -18.050781 3.546875 -18 C 3.546875 -17.945312 3.523438 -17.898438 3.484375 -17.859375 C 3.429688 -17.804688 3.378906 -17.78125 3.328125 -17.78125 C 3.285156 -17.78125 3.238281 -17.800781 3.1875 -17.84375 C 3.082031 -17.945312 2.984375 -18.054688 2.890625 -18.171875 C 2.804688 -18.285156 2.726562 -18.429688 2.65625 -18.609375 C 2.59375 -18.773438 2.5625 -18.953125 2.5625 -19.140625 C 2.5625 -19.273438 2.582031 -19.414062 2.625 -19.5625 C 2.71875 -19.875 2.875 -20.132812 3.09375 -20.34375 C 3.320312 -20.5625 3.5625 -20.738281 3.8125 -20.875 C 4.0625 -21.03125 4.316406 -21.160156 4.578125 -21.265625 C 4.847656 -21.367188 5.117188 -21.457031 5.390625 -21.53125 C 5.660156 -21.601562 5.929688 -21.664062 6.203125 -21.71875 C 6.484375 -21.769531 6.765625 -21.816406 7.046875 -21.859375 C 7.335938 -21.878906 7.625 -21.894531 7.90625 -21.90625 C 8.195312 -21.925781 8.488281 -21.9375 8.78125 -21.9375 C 9.175781 -21.9375 9.566406 -21.925781 9.953125 -21.90625 C 10.347656 -21.882812 10.742188 -21.851562 11.140625 -21.8125 C 12.460938 -23.007812 13.789062 -24.101562 15.125 -25.09375 C 16.457031 -26.09375 17.765625 -26.976562 19.046875 -27.75 C 20.335938 -28.519531 21.578125 -29.164062 22.765625 -29.6875 C 23.960938 -30.207031 25.082031 -30.597656 26.125 -30.859375 C 26.28125 -30.859375 26.390625 -30.820312 26.453125 -30.75 C 26.515625 -30.6875 26.546875 -30.601562 26.546875 -30.5 C 26.546875 -30.351562 26.492188 -30.195312 26.390625 -30.03125 C 26.285156 -29.863281 26.175781 -29.75 26.0625 -29.6875 C 25.539062 -29.550781 24.851562 -29.273438 24 -28.859375 C 23.144531 -28.453125 22.164062 -27.910156 21.0625 -27.234375 C 19.957031 -26.554688 18.765625 -25.742188 17.484375 -24.796875 C 16.203125 -23.847656 14.882812 -22.773438 13.53125 -21.578125 L 13.71875 -21.578125 C 14.5625 -21.484375 15.40625 -21.394531 16.25 -21.3125 C 17.09375 -21.238281 17.929688 -21.203125 18.765625 -21.203125 C 19.015625 -21.203125 19.265625 -21.203125 19.515625 -21.203125 C 19.773438 -21.210938 20.03125 -21.234375 20.28125 -21.265625 C 20.820312 -21.296875 21.359375 -21.359375 21.890625 -21.453125 C 22.429688 -21.546875 22.953125 -21.679688 23.453125 -21.859375 C 23.585938 -21.898438 23.71875 -21.941406 23.84375 -21.984375 C 23.96875 -22.035156 24.09375 -22.085938 24.21875 -22.140625 C 24.332031 -22.203125 24.453125 -22.257812 24.578125 -22.3125 C 24.703125 -22.375 24.820312 -22.429688 24.9375 -22.484375 C 25.175781 -22.609375 25.40625 -22.742188 25.625 -22.890625 C 25.84375 -23.035156 26.085938 -23.15625 26.359375 -23.25 C 26.390625 -23.257812 26.40625 -23.257812 26.40625 -23.25 C 26.40625 -23.25 26.414062 -23.253906 26.4375 -23.265625 C 26.488281 -23.265625 26.535156 -23.25 26.578125 -23.21875 C 26.617188 -23.195312 26.644531 -23.160156 26.65625 -23.109375 C 26.65625 -23.097656 26.65625 -23.070312 26.65625 -23.03125 C 26.65625 -22.976562 26.640625 -22.9375 26.609375 -22.90625 C 26.515625 -22.789062 26.414062 -22.679688 26.3125 -22.578125 C 26.21875 -22.484375 26.109375 -22.394531 25.984375 -22.3125 C 25.867188 -22.238281 25.75 -22.160156 25.625 -22.078125 C 25.5 -22.003906 25.375 -21.941406 25.25 -21.890625 C 25.125 -21.816406 24.992188 -21.75 24.859375 -21.6875 C 24.734375 -21.632812 24.601562 -21.578125 24.46875 -21.515625 C 24.34375 -21.460938 24.210938 -21.410156 24.078125 -21.359375 C 23.941406 -21.316406 23.804688 -21.269531 23.671875 -21.21875 C 23.128906 -21.039062 22.578125 -20.90625 22.015625 -20.8125 C 21.453125 -20.71875 20.890625 -20.65625 20.328125 -20.625 C 20.109375 -20.601562 19.882812 -20.585938 19.65625 -20.578125 C 19.4375 -20.578125 19.210938 -20.578125 18.984375 -20.578125 C 18.085938 -20.578125 17.191406 -20.617188 16.296875 -20.703125 C 15.410156 -20.796875 14.53125 -20.898438 13.65625 -21.015625 L 12.984375 -21.09375 C 11.804688 -20.03125 10.625 -18.875 9.4375 -17.625 C 8.257812 -16.382812 7.101562 -15.050781 5.96875 -13.625 C 4.832031 -12.195312 3.738281 -10.679688 2.6875 -9.078125 C 1.78125 -7.671875 1.125 -6.484375 0.71875 -5.515625 C 0.3125 -4.546875 0.109375 -3.769531 0.109375 -3.1875 C 0.109375 -2.675781 0.242188 -2.300781 0.515625 -2.0625 C 0.796875 -1.832031 1.175781 -1.71875 1.65625 -1.71875 C 2.164062 -1.71875 2.765625 -1.835938 3.453125 -2.078125 C 4.148438 -2.328125 4.898438 -2.671875 5.703125 -3.109375 C 6.503906 -3.554688 7.320312 -4.078125 8.15625 -4.671875 C 9 -5.273438 9.820312 -5.9375 10.625 -6.65625 C 10.664062 -6.707031 10.707031 -6.734375 10.75 -6.734375 C 10.78125 -6.734375 10.796875 -6.71875 10.796875 -6.6875 L 10.796875 -6.65625 C 9.554688 -5.457031 8.351562 -4.46875 7.1875 -3.6875 C 6.03125 -2.90625 4.957031 -2.316406 3.96875 -1.921875 C 2.976562 -1.535156 2.113281 -1.34375 1.375 -1.34375 Z M 1.375 -1.34375 "/></g></g></g><g fill="#ffffff" fill-opacity="1"><g transform="translate(102.502286, 42.322709)"><g><path d="M 8.578125 -1.296875 C 7.941406 -1.296875 7.46875 -1.4375 7.15625 -1.71875 C 6.84375 -2.007812 6.6875 -2.410156 6.6875 -2.921875 C 6.6875 -3.273438 6.75 -3.660156 6.875 -4.078125 C 7.007812 -4.503906 7.179688 -4.945312 7.390625 -5.40625 C 7.597656 -5.875 7.832031 -6.34375 8.09375 -6.8125 C 8.363281 -7.289062 8.640625 -7.757812 8.921875 -8.21875 C 8.472656 -7.726562 7.988281 -7.21875 7.46875 -6.6875 C 6.957031 -6.164062 6.425781 -5.660156 5.875 -5.171875 C 5.332031 -4.691406 4.785156 -4.257812 4.234375 -3.875 C 3.691406 -3.5 3.160156 -3.195312 2.640625 -2.96875 C 2.117188 -2.738281 1.625 -2.625 1.15625 -2.625 C 0.988281 -2.625 0.828125 -2.640625 0.671875 -2.671875 C 0.515625 -2.703125 0.359375 -2.753906 0.203125 -2.828125 C -0.179688 -3.003906 -0.457031 -3.226562 -0.625 -3.5 C -0.800781 -3.78125 -0.890625 -4.097656 -0.890625 -4.453125 C -0.890625 -4.878906 -0.78125 -5.351562 -0.5625 -5.875 C -0.34375 -6.394531 -0.0546875 -6.941406 0.296875 -7.515625 C 0.796875 -8.304688 1.332031 -8.976562 1.90625 -9.53125 C 2.476562 -10.082031 3.066406 -10.535156 3.671875 -10.890625 C 4.273438 -11.242188 4.867188 -11.5 5.453125 -11.65625 C 6.035156 -11.820312 6.585938 -11.90625 7.109375 -11.90625 C 7.628906 -11.90625 8.09375 -11.828125 8.5 -11.671875 C 8.914062 -11.523438 9.242188 -11.3125 9.484375 -11.03125 C 9.734375 -10.75 9.867188 -10.414062 9.890625 -10.03125 C 9.910156 -10.082031 10.023438 -10.273438 10.234375 -10.609375 C 10.453125 -10.941406 10.75 -11.382812 11.125 -11.9375 C 11.507812 -12.488281 11.957031 -13.113281 12.46875 -13.8125 C 12.976562 -14.519531 13.546875 -15.269531 14.171875 -16.0625 C 14.796875 -16.863281 15.460938 -17.6875 16.171875 -18.53125 C 16.890625 -19.375 17.632812 -20.195312 18.40625 -21 C 17.539062 -20.945312 16.65625 -20.851562 15.75 -20.71875 C 14.851562 -20.582031 13.960938 -20.390625 13.078125 -20.140625 C 12.203125 -19.898438 11.359375 -19.597656 10.546875 -19.234375 C 9.734375 -18.867188 8.972656 -18.429688 8.265625 -17.921875 C 7.554688 -17.410156 6.925781 -16.820312 6.375 -16.15625 C 6.34375 -16.101562 6.285156 -16.078125 6.203125 -16.078125 C 6.160156 -16.078125 6.113281 -16.097656 6.0625 -16.140625 C 6.019531 -16.179688 6 -16.234375 6 -16.296875 C 6 -16.335938 6.015625 -16.378906 6.046875 -16.421875 C 6.640625 -17.140625 7.3125 -17.765625 8.0625 -18.296875 C 8.820312 -18.835938 9.640625 -19.300781 10.515625 -19.6875 C 11.398438 -20.070312 12.3125 -20.390625 13.25 -20.640625 C 14.1875 -20.890625 15.132812 -21.082031 16.09375 -21.21875 C 17.0625 -21.363281 18.003906 -21.457031 18.921875 -21.5 C 20.765625 -23.375 22.546875 -24.945312 24.265625 -26.21875 C 25.992188 -27.5 27.628906 -28.523438 29.171875 -29.296875 C 30.722656 -30.078125 32.164062 -30.640625 33.5 -30.984375 C 34.84375 -31.328125 36.054688 -31.5 37.140625 -31.5 C 38.015625 -31.5 38.796875 -31.398438 39.484375 -31.203125 C 40.171875 -31.015625 40.753906 -30.753906 41.234375 -30.421875 C 41.710938 -30.085938 42.078125 -29.695312 42.328125 -29.25 C 42.585938 -28.8125 42.71875 -28.335938 42.71875 -27.828125 C 42.71875 -27.242188 42.535156 -26.632812 42.171875 -26 C 41.804688 -25.375 41.238281 -24.765625 40.46875 -24.171875 C 39.738281 -23.609375 38.925781 -23.132812 38.03125 -22.75 C 37.132812 -22.363281 36.1875 -22.046875 35.1875 -21.796875 C 34.195312 -21.546875 33.1875 -21.351562 32.15625 -21.21875 C 31.125 -21.082031 30.101562 -20.988281 29.09375 -20.9375 C 28.09375 -20.882812 27.140625 -20.859375 26.234375 -20.859375 C 25.359375 -20.859375 24.550781 -20.875 23.8125 -20.90625 C 23.082031 -20.9375 22.445312 -20.96875 21.90625 -21 C 21.363281 -21.03125 20.957031 -21.046875 20.6875 -21.046875 C 19.90625 -20.222656 19.125 -19.351562 18.34375 -18.4375 C 17.5625 -17.53125 16.800781 -16.601562 16.0625 -15.65625 C 15.320312 -14.707031 14.613281 -13.769531 13.9375 -12.84375 C 13.269531 -11.914062 12.644531 -11.023438 12.0625 -10.171875 C 11.488281 -9.316406 10.972656 -8.53125 10.515625 -7.8125 C 10.054688 -7.09375 9.675781 -6.460938 9.375 -5.921875 C 9.070312 -5.390625 8.859375 -4.984375 8.734375 -4.703125 C 8.566406 -4.316406 8.441406 -3.972656 8.359375 -3.671875 C 8.285156 -3.367188 8.25 -3.109375 8.25 -2.890625 C 8.25 -2.515625 8.347656 -2.242188 8.546875 -2.078125 C 8.753906 -1.910156 9.03125 -1.828125 9.375 -1.828125 C 9.75 -1.828125 10.179688 -1.90625 10.671875 -2.0625 C 11.171875 -2.21875 11.695312 -2.429688 12.25 -2.703125 C 12.8125 -2.972656 13.375 -3.273438 13.9375 -3.609375 C 14.507812 -3.941406 15.050781 -4.285156 15.5625 -4.640625 C 16.070312 -5.003906 16.535156 -5.351562 16.953125 -5.6875 C 17.367188 -6.03125 17.695312 -6.332031 17.9375 -6.59375 C 18 -6.664062 18.070312 -6.703125 18.15625 -6.703125 C 18.21875 -6.703125 18.25 -6.675781 18.25 -6.625 C 18.25 -6.601562 18.234375 -6.578125 18.203125 -6.546875 C 17.960938 -6.273438 17.625 -5.957031 17.1875 -5.59375 C 16.757812 -5.226562 16.269531 -4.847656 15.71875 -4.453125 C 15.164062 -4.066406 14.578125 -3.679688 13.953125 -3.296875 C 13.328125 -2.921875 12.695312 -2.582031 12.0625 -2.28125 C 11.425781 -1.976562 10.8125 -1.738281 10.21875 -1.5625 C 9.625 -1.382812 9.078125 -1.296875 8.578125 -1.296875 Z M 25.5 -21.453125 C 26.425781 -21.453125 27.40625 -21.472656 28.4375 -21.515625 C 29.476562 -21.566406 30.523438 -21.65625 31.578125 -21.78125 C 32.640625 -21.914062 33.675781 -22.101562 34.6875 -22.34375 C 35.707031 -22.59375 36.671875 -22.910156 37.578125 -23.296875 C 38.492188 -23.679688 39.3125 -24.160156 40.03125 -24.734375 C 40.664062 -25.234375 41.132812 -25.738281 41.4375 -26.25 C 41.738281 -26.769531 41.890625 -27.269531 41.890625 -27.75 C 41.890625 -28.28125 41.710938 -28.753906 41.359375 -29.171875 C 41.003906 -29.597656 40.5 -29.9375 39.84375 -30.1875 C 39.1875 -30.4375 38.394531 -30.5625 37.46875 -30.5625 C 36.519531 -30.5625 35.453125 -30.40625 34.265625 -30.09375 C 33.078125 -29.789062 31.789062 -29.289062 30.40625 -28.59375 C 29.019531 -27.894531 27.550781 -26.96875 26 -25.8125 C 24.445312 -24.65625 22.835938 -23.234375 21.171875 -21.546875 C 21.703125 -21.535156 22.335938 -21.515625 23.078125 -21.484375 C 23.816406 -21.460938 24.625 -21.453125 25.5 -21.453125 Z M 1.4375 -3.3125 C 1.675781 -3.3125 1.953125 -3.375 2.265625 -3.5 C 2.578125 -3.625 2.914062 -3.789062 3.28125 -4 C 3.644531 -4.207031 4.007812 -4.4375 4.375 -4.6875 C 4.738281 -4.945312 5.070312 -5.203125 5.375 -5.453125 C 5.769531 -5.773438 6.191406 -6.164062 6.640625 -6.625 C 7.085938 -7.082031 7.53125 -7.5625 7.96875 -8.0625 C 8.414062 -8.5625 8.835938 -9.046875 9.234375 -9.515625 C 9.234375 -10.046875 9.101562 -10.425781 8.84375 -10.65625 C 8.59375 -10.882812 8.265625 -11 7.859375 -11 C 7.472656 -11 7.050781 -10.90625 6.59375 -10.71875 C 6.144531 -10.539062 5.722656 -10.316406 5.328125 -10.046875 C 5.046875 -9.847656 4.722656 -9.582031 4.359375 -9.25 C 3.992188 -8.925781 3.613281 -8.546875 3.21875 -8.109375 C 2.832031 -7.679688 2.460938 -7.21875 2.109375 -6.71875 C 1.765625 -6.21875 1.472656 -5.695312 1.234375 -5.15625 C 0.992188 -4.601562 0.875 -4.179688 0.875 -3.890625 C 0.875 -3.691406 0.921875 -3.546875 1.015625 -3.453125 C 1.117188 -3.359375 1.257812 -3.3125 1.4375 -3.3125 Z M 1.4375 -3.3125 "/></g></g></g><g fill="#ffffff" fill-opacity="1"><g transform="translate(120.132739, 42.322709)"><g><path d="M 0.171875 -1.40625 C -0.285156 -1.40625 -0.613281 -1.535156 -0.8125 -1.796875 C -1.019531 -2.066406 -1.125 -2.378906 -1.125 -2.734375 C -1.125 -3.054688 -1.054688 -3.390625 -0.921875 -3.734375 C -0.785156 -4.085938 -0.632812 -4.414062 -0.46875 -4.71875 C -0.507812 -4.925781 -0.53125 -5.144531 -0.53125 -5.375 C -0.53125 -5.851562 -0.441406 -6.34375 -0.265625 -6.84375 C -0.0859375 -7.34375 0.164062 -7.835938 0.5 -8.328125 C 0.832031 -8.816406 1.226562 -9.269531 1.6875 -9.6875 C 2.15625 -10.101562 2.671875 -10.460938 3.234375 -10.765625 C 3.796875 -11.078125 4.398438 -11.304688 5.046875 -11.453125 C 5.265625 -11.503906 5.472656 -11.539062 5.671875 -11.5625 C 5.867188 -11.582031 6.054688 -11.59375 6.234375 -11.59375 C 6.785156 -11.59375 7.253906 -11.503906 7.640625 -11.328125 C 8.023438 -11.148438 8.320312 -10.910156 8.53125 -10.609375 C 8.75 -10.304688 8.859375 -9.960938 8.859375 -9.578125 C 8.859375 -9.253906 8.773438 -8.867188 8.609375 -8.421875 C 8.441406 -7.984375 8.195312 -7.507812 7.875 -7 C 7.550781 -6.488281 7.15625 -5.96875 6.6875 -5.4375 C 6.226562 -4.90625 5.691406 -4.390625 5.078125 -3.890625 C 4.472656 -3.390625 3.804688 -2.925781 3.078125 -2.5 C 3.253906 -2.476562 3.394531 -2.460938 3.5 -2.453125 C 3.613281 -2.453125 3.75 -2.453125 3.90625 -2.453125 C 4.582031 -2.453125 5.265625 -2.539062 5.953125 -2.71875 C 6.640625 -2.90625 7.328125 -3.148438 8.015625 -3.453125 C 8.703125 -3.753906 9.367188 -4.085938 10.015625 -4.453125 C 10.671875 -4.816406 11.296875 -5.1875 11.890625 -5.5625 C 12.484375 -5.9375 13.035156 -6.285156 13.546875 -6.609375 C 13.648438 -6.671875 13.71875 -6.703125 13.75 -6.703125 C 13.769531 -6.703125 13.78125 -6.695312 13.78125 -6.6875 C 13.78125 -6.65625 13.710938 -6.585938 13.578125 -6.484375 C 12.742188 -5.859375 11.878906 -5.28125 10.984375 -4.75 C 10.097656 -4.226562 9.210938 -3.769531 8.328125 -3.375 C 7.441406 -2.988281 6.582031 -2.6875 5.75 -2.46875 C 4.925781 -2.257812 4.148438 -2.15625 3.421875 -2.15625 C 3.117188 -2.15625 2.832031 -2.175781 2.5625 -2.21875 C 2.113281 -1.976562 1.679688 -1.78125 1.265625 -1.625 C 0.847656 -1.476562 0.484375 -1.40625 0.171875 -1.40625 Z M 2.484375 -2.625 C 3.085938 -2.96875 3.65625 -3.351562 4.1875 -3.78125 C 4.726562 -4.207031 5.222656 -4.648438 5.671875 -5.109375 C 6.117188 -5.578125 6.515625 -6.035156 6.859375 -6.484375 C 7.203125 -6.941406 7.484375 -7.359375 7.703125 -7.734375 C 7.910156 -8.109375 8.0625 -8.4375 8.15625 -8.71875 C 8.25 -9.007812 8.296875 -9.257812 8.296875 -9.46875 C 8.296875 -9.875 8.15625 -10.160156 7.875 -10.328125 C 7.59375 -10.503906 7.242188 -10.59375 6.828125 -10.59375 C 6.367188 -10.59375 5.890625 -10.515625 5.390625 -10.359375 C 4.898438 -10.210938 4.414062 -10.003906 3.9375 -9.734375 C 3.46875 -9.460938 3.019531 -9.15625 2.59375 -8.8125 C 2.164062 -8.46875 1.78125 -8.097656 1.4375 -7.703125 C 1.09375 -7.304688 0.816406 -6.90625 0.609375 -6.5 C 0.503906 -6.320312 0.421875 -6.144531 0.359375 -5.96875 C 0.765625 -6.476562 1.207031 -6.925781 1.6875 -7.3125 C 2.175781 -7.695312 2.648438 -8 3.109375 -8.21875 C 3.179688 -8.25 3.273438 -8.265625 3.390625 -8.265625 C 3.554688 -8.265625 3.734375 -8.234375 3.921875 -8.171875 C 4.117188 -8.109375 4.289062 -8.023438 4.4375 -7.921875 C 4.582031 -7.816406 4.65625 -7.707031 4.65625 -7.59375 C 4.65625 -7.476562 4.5625 -7.375 4.375 -7.28125 C 3.53125 -6.863281 2.769531 -6.363281 2.09375 -5.78125 C 1.414062 -5.195312 0.867188 -4.609375 0.453125 -4.015625 C 0.648438 -3.671875 0.925781 -3.382812 1.28125 -3.15625 C 1.644531 -2.925781 2.046875 -2.75 2.484375 -2.625 Z M 0.171875 -1.75 C 0.328125 -1.75 0.503906 -1.773438 0.703125 -1.828125 C 0.910156 -1.890625 1.125 -1.96875 1.34375 -2.0625 C 1.5625 -2.15625 1.765625 -2.25 1.953125 -2.34375 C 1.585938 -2.4375 1.25 -2.582031 0.9375 -2.78125 C 0.632812 -2.976562 0.363281 -3.21875 0.125 -3.5 C 0.0078125 -3.28125 -0.09375 -3.054688 -0.1875 -2.828125 C -0.28125 -2.597656 -0.328125 -2.390625 -0.328125 -2.203125 C -0.328125 -2.046875 -0.28125 -1.929688 -0.1875 -1.859375 C -0.101562 -1.785156 0.015625 -1.75 0.171875 -1.75 Z M 0.171875 -1.75 "/></g></g></g><g fill="#ffffff" fill-opacity="1"><g transform="translate(133.439144, 42.322709)"><g><path d="M 0.515625 -1.21875 C 0.335938 -1.21875 0.164062 -1.234375 0 -1.265625 C -0.164062 -1.304688 -0.320312 -1.363281 -0.46875 -1.4375 C -0.570312 -1.5 -0.703125 -1.59375 -0.859375 -1.71875 C -1.015625 -1.851562 -1.15625 -2.054688 -1.28125 -2.328125 C -1.40625 -2.597656 -1.46875 -2.960938 -1.46875 -3.421875 C -1.46875 -3.523438 -1.460938 -3.632812 -1.453125 -3.75 C -1.441406 -3.863281 -1.425781 -3.988281 -1.40625 -4.125 C -1.3125 -4.789062 -1.132812 -5.441406 -0.875 -6.078125 C -0.625 -6.722656 -0.316406 -7.328125 0.046875 -7.890625 C 0.421875 -8.460938 0.820312 -8.988281 1.25 -9.46875 C 1.675781 -9.945312 2.101562 -10.359375 2.53125 -10.703125 C 2.96875 -11.054688 3.375 -11.332031 3.75 -11.53125 L 3.84375 -11.53125 C 3.957031 -11.53125 4.085938 -11.503906 4.234375 -11.453125 C 4.390625 -11.398438 4.539062 -11.328125 4.6875 -11.234375 C 4.84375 -11.148438 4.972656 -11.0625 5.078125 -10.96875 C 5.179688 -10.882812 5.234375 -10.800781 5.234375 -10.71875 C 5.234375 -10.664062 5.207031 -10.625 5.15625 -10.59375 C 4.644531 -10.269531 4.125 -9.851562 3.59375 -9.34375 C 3.0625 -8.832031 2.550781 -8.257812 2.0625 -7.625 C 1.570312 -7 1.128906 -6.332031 0.734375 -5.625 C 0.347656 -4.925781 0.0507812 -4.210938 -0.15625 -3.484375 C -0.257812 -3.140625 -0.3125 -2.832031 -0.3125 -2.5625 C -0.3125 -2.25 -0.242188 -1.988281 -0.109375 -1.78125 C 0.0234375 -1.582031 0.25 -1.484375 0.5625 -1.484375 C 0.882812 -1.484375 1.296875 -1.609375 1.796875 -1.859375 C 2.421875 -2.179688 2.976562 -2.535156 3.46875 -2.921875 C 3.96875 -3.316406 4.429688 -3.726562 4.859375 -4.15625 C 4.921875 -4.539062 5.023438 -4.929688 5.171875 -5.328125 C 5.328125 -5.722656 5.503906 -6.113281 5.703125 -6.5 C 5.898438 -6.882812 6.109375 -7.238281 6.328125 -7.5625 C 6.546875 -7.882812 6.769531 -8.160156 7 -8.390625 C 7.414062 -8.835938 7.769531 -9.160156 8.0625 -9.359375 C 8.363281 -9.554688 8.648438 -9.671875 8.921875 -9.703125 L 8.984375 -9.703125 C 9.128906 -9.703125 9.269531 -9.65625 9.40625 -9.5625 C 9.550781 -9.46875 9.671875 -9.363281 9.765625 -9.25 C 9.859375 -9.132812 9.90625 -9.039062 9.90625 -8.96875 C 9.875 -8.757812 9.785156 -8.53125 9.640625 -8.28125 C 9.503906 -8.03125 9.347656 -7.796875 9.171875 -7.578125 C 8.992188 -7.359375 8.835938 -7.179688 8.703125 -7.046875 C 8.597656 -6.921875 8.429688 -6.734375 8.203125 -6.484375 C 7.972656 -6.234375 7.695312 -5.941406 7.375 -5.609375 C 7.050781 -5.285156 6.695312 -4.941406 6.3125 -4.578125 C 6.175781 -4.273438 6.0625 -3.972656 5.96875 -3.671875 C 5.882812 -3.367188 5.84375 -3.085938 5.84375 -2.828125 L 5.859375 -2.609375 C 5.878906 -2.359375 5.960938 -2.175781 6.109375 -2.0625 C 6.265625 -1.945312 6.445312 -1.890625 6.65625 -1.890625 C 6.820312 -1.890625 6.992188 -1.914062 7.171875 -1.96875 C 7.359375 -2.019531 7.550781 -2.085938 7.75 -2.171875 C 8.382812 -2.453125 8.960938 -2.773438 9.484375 -3.140625 C 10.015625 -3.515625 10.484375 -3.898438 10.890625 -4.296875 C 11.304688 -4.691406 11.671875 -5.0625 11.984375 -5.40625 C 11.953125 -5.5625 11.9375 -5.722656 11.9375 -5.890625 C 11.9375 -6.304688 11.992188 -6.742188 12.109375 -7.203125 C 12.234375 -7.660156 12.390625 -8.085938 12.578125 -8.484375 C 12.773438 -8.890625 12.992188 -9.234375 13.234375 -9.515625 C 13.484375 -9.804688 13.722656 -9.988281 13.953125 -10.0625 C 13.984375 -10.070312 14.015625 -10.078125 14.046875 -10.078125 C 14.078125 -10.078125 14.113281 -10.078125 14.15625 -10.078125 C 14.300781 -10.078125 14.460938 -10.050781 14.640625 -10 C 14.816406 -9.945312 14.972656 -9.867188 15.109375 -9.765625 C 15.242188 -9.671875 15.3125 -9.5625 15.3125 -9.4375 C 15.257812 -9.132812 15.148438 -8.804688 14.984375 -8.453125 C 14.828125 -8.109375 14.632812 -7.757812 14.40625 -7.40625 C 14.175781 -7.0625 13.925781 -6.722656 13.65625 -6.390625 C 13.382812 -6.054688 13.113281 -5.742188 12.84375 -5.453125 L 12.703125 -5.296875 C 12.734375 -4.878906 12.90625 -4.5625 13.21875 -4.34375 C 13.539062 -4.132812 13.941406 -4.03125 14.421875 -4.03125 C 14.804688 -4.03125 15.222656 -4.085938 15.671875 -4.203125 C 16.117188 -4.316406 16.5625 -4.46875 17 -4.65625 C 17.445312 -4.851562 17.863281 -5.0625 18.25 -5.28125 C 18.632812 -5.5 18.972656 -5.710938 19.265625 -5.921875 C 19.554688 -6.128906 19.769531 -6.3125 19.90625 -6.46875 C 20.019531 -6.582031 20.097656 -6.640625 20.140625 -6.640625 C 20.179688 -6.640625 20.203125 -6.609375 20.203125 -6.546875 C 20.203125 -6.460938 20.171875 -6.390625 20.109375 -6.328125 C 19.765625 -6.003906 19.351562 -5.679688 18.875 -5.359375 C 18.40625 -5.046875 17.894531 -4.757812 17.34375 -4.5 C 16.800781 -4.25 16.253906 -4.046875 15.703125 -3.890625 C 15.148438 -3.742188 14.640625 -3.671875 14.171875 -3.671875 C 13.703125 -3.671875 13.289062 -3.753906 12.9375 -3.921875 C 12.59375 -4.085938 12.332031 -4.363281 12.15625 -4.75 C 11.65625 -4.25 11.132812 -3.78125 10.59375 -3.34375 C 10.0625 -2.914062 9.488281 -2.515625 8.875 -2.140625 C 8.550781 -1.929688 8.203125 -1.769531 7.828125 -1.65625 C 7.453125 -1.550781 7.085938 -1.5 6.734375 -1.5 C 6.398438 -1.5 6.09375 -1.550781 5.8125 -1.65625 C 5.539062 -1.769531 5.3125 -1.945312 5.125 -2.1875 C 4.945312 -2.425781 4.84375 -2.734375 4.8125 -3.109375 C 4.800781 -3.140625 4.796875 -3.164062 4.796875 -3.1875 C 4.796875 -3.21875 4.796875 -3.25 4.796875 -3.28125 C 4.316406 -2.90625 3.832031 -2.5625 3.34375 -2.25 C 2.851562 -1.9375 2.367188 -1.6875 1.890625 -1.5 C 1.410156 -1.3125 0.953125 -1.21875 0.515625 -1.21875 Z M 12.953125 -6.59375 L 12.984375 -6.625 C 13.535156 -7.25 13.941406 -7.75 14.203125 -8.125 C 14.472656 -8.507812 14.648438 -8.789062 14.734375 -8.96875 C 14.816406 -9.144531 14.859375 -9.257812 14.859375 -9.3125 L 14.859375 -9.328125 C 14.828125 -9.328125 14.738281 -9.242188 14.59375 -9.078125 C 14.445312 -8.921875 14.269531 -8.710938 14.0625 -8.453125 C 13.863281 -8.191406 13.660156 -7.898438 13.453125 -7.578125 C 13.253906 -7.253906 13.085938 -6.925781 12.953125 -6.59375 Z M 8.171875 -7.578125 C 8.410156 -7.816406 8.625 -8.039062 8.8125 -8.25 C 9.007812 -8.457031 9.148438 -8.628906 9.234375 -8.765625 C 9.140625 -8.703125 9 -8.566406 8.8125 -8.359375 C 8.625 -8.148438 8.410156 -7.890625 8.171875 -7.578125 Z M 8.171875 -7.578125 "/></g></g></g><g fill="#ffffff" fill-opacity="1"><g transform="translate(153.312491, 42.322709)"><g><path d="M -1.625 -1.984375 C -1.757812 -1.984375 -1.90625 -2.03125 -2.0625 -2.125 C -2.21875 -2.21875 -2.351562 -2.328125 -2.46875 -2.453125 C -2.59375 -2.585938 -2.65625 -2.707031 -2.65625 -2.8125 L -2.640625 -2.875 C -2.347656 -3.5625 -2.007812 -4.226562 -1.625 -4.875 C -1.238281 -5.53125 -0.828125 -6.175781 -0.390625 -6.8125 C 0.0351562 -7.445312 0.457031 -8.082031 0.875 -8.71875 C 1.300781 -9.351562 1.691406 -10 2.046875 -10.65625 C 2.398438 -11.320312 2.691406 -12.003906 2.921875 -12.703125 C 2.953125 -12.816406 3.023438 -12.875 3.140625 -12.875 C 3.253906 -12.875 3.382812 -12.828125 3.53125 -12.734375 C 3.6875 -12.640625 3.832031 -12.507812 3.96875 -12.34375 C 4.113281 -12.1875 4.234375 -12.015625 4.328125 -11.828125 C 4.421875 -11.648438 4.46875 -11.46875 4.46875 -11.28125 C 4.46875 -11.164062 4.453125 -11.070312 4.421875 -11 C 4.234375 -10.457031 4.003906 -9.929688 3.734375 -9.421875 C 3.460938 -8.910156 3.160156 -8.40625 2.828125 -7.90625 C 3.546875 -8.519531 4.300781 -9.117188 5.09375 -9.703125 C 5.894531 -10.296875 6.789062 -10.882812 7.78125 -11.46875 C 8.25 -11.738281 8.742188 -11.992188 9.265625 -12.234375 C 9.785156 -12.484375 10.296875 -12.679688 10.796875 -12.828125 C 11.296875 -12.972656 11.75 -13.046875 12.15625 -13.046875 C 12.363281 -13.046875 12.550781 -13.023438 12.71875 -12.984375 C 12.96875 -12.910156 13.160156 -12.742188 13.296875 -12.484375 C 13.429688 -12.222656 13.5 -11.957031 13.5 -11.6875 C 13.5 -11.53125 13.476562 -11.382812 13.4375 -11.25 C 13.363281 -11.050781 13.257812 -10.835938 13.125 -10.609375 C 13 -10.378906 12.816406 -10.101562 12.578125 -9.78125 C 12.335938 -9.46875 12.023438 -9.078125 11.640625 -8.609375 C 11.253906 -8.148438 10.773438 -7.582031 10.203125 -6.90625 C 9.835938 -6.476562 9.507812 -6.050781 9.21875 -5.625 C 8.925781 -5.195312 8.695312 -4.785156 8.53125 -4.390625 C 8.363281 -4.003906 8.28125 -3.65625 8.28125 -3.34375 C 8.28125 -3.019531 8.382812 -2.785156 8.59375 -2.640625 C 8.8125 -2.503906 9.109375 -2.4375 9.484375 -2.4375 C 9.867188 -2.4375 10.316406 -2.5 10.828125 -2.625 C 11.335938 -2.757812 11.875 -2.9375 12.4375 -3.15625 C 13 -3.375 13.5625 -3.617188 14.125 -3.890625 C 14.6875 -4.160156 15.21875 -4.445312 15.71875 -4.75 C 16.226562 -5.050781 16.675781 -5.347656 17.0625 -5.640625 C 17.445312 -5.929688 17.734375 -6.203125 17.921875 -6.453125 C 17.972656 -6.503906 18.035156 -6.550781 18.109375 -6.59375 C 18.191406 -6.632812 18.253906 -6.65625 18.296875 -6.65625 C 18.316406 -6.65625 18.328125 -6.644531 18.328125 -6.625 C 18.328125 -6.613281 18.3125 -6.59375 18.28125 -6.5625 C 17.59375 -5.832031 16.835938 -5.179688 16.015625 -4.609375 C 15.203125 -4.046875 14.375 -3.570312 13.53125 -3.1875 C 12.6875 -2.800781 11.867188 -2.507812 11.078125 -2.3125 C 10.296875 -2.113281 9.585938 -2.015625 8.953125 -2.015625 C 8.460938 -2.015625 8.046875 -2.070312 7.703125 -2.1875 C 7.347656 -2.3125 7.078125 -2.515625 6.890625 -2.796875 C 6.710938 -3.085938 6.625 -3.4375 6.625 -3.84375 C 6.625 -4.375 6.773438 -4.96875 7.078125 -5.625 C 7.378906 -6.289062 7.835938 -6.972656 8.453125 -7.671875 C 8.992188 -8.273438 9.484375 -8.828125 9.921875 -9.328125 C 10.367188 -9.828125 10.722656 -10.265625 10.984375 -10.640625 C 11.253906 -11.023438 11.390625 -11.34375 11.390625 -11.59375 L 11.359375 -11.734375 C 11.359375 -11.828125 11.328125 -11.90625 11.265625 -11.96875 C 11.210938 -12.039062 11.125 -12.09375 11 -12.125 L 10.796875 -12.15625 C 10.554688 -12.15625 10.253906 -12.097656 9.890625 -11.984375 C 9.535156 -11.878906 9.1875 -11.734375 8.84375 -11.546875 C 7.90625 -11.046875 7.054688 -10.53125 6.296875 -10 C 5.535156 -9.476562 4.832031 -8.925781 4.1875 -8.34375 C 3.550781 -7.769531 2.929688 -7.160156 2.328125 -6.515625 C 1.734375 -5.867188 1.128906 -5.175781 0.515625 -4.4375 C -0.0859375 -3.707031 -0.734375 -2.914062 -1.421875 -2.0625 C -1.484375 -2.007812 -1.550781 -1.984375 -1.625 -1.984375 Z M -1.625 -1.984375 "/></g></g></g></g></g></svg>