<svg xmlns="http://www.w3.org/2000/svg" xmlns:xlink="http://www.w3.org/1999/xlink" width="459" zoomAndPan="magnify" viewBox="0 0 344.25 44.999999" height="60" preserveAspectRatio="xMidYMid meet" version="1.0"><defs><g/><clipPath id="5a5bba83d8"><path d="M 0 0.0507812 L 44.152344 0.0507812 L 44.152344 44.203125 L 0 44.203125 Z M 0 0.0507812 " clip-rule="nonzero"/></clipPath></defs><g clip-path="url(#5a5bba83d8)"><path fill="#000000" d="M 37.371094 6.226562 C 37.359375 6.210938 37.355469 6.195312 37.34375 6.1875 C 37.332031 6.171875 37.3125 6.167969 37.296875 6.15625 C 33.332031 2.375 27.972656 0.0507812 22.078125 0.0507812 C 9.902344 0.0507812 0 9.953125 0 22.125 C 0 28.023438 2.328125 33.382812 6.105469 37.34375 C 6.121094 37.355469 6.125 37.375 6.140625 37.390625 C 6.148438 37.398438 6.167969 37.402344 6.175781 37.414062 C 10.199219 41.597656 15.839844 44.203125 22.078125 44.203125 C 34.25 44.203125 44.152344 34.300781 44.152344 22.125 C 44.152344 15.886719 41.546875 10.246094 37.371094 6.226562 Z M 22.078125 1.472656 C 27.347656 1.472656 32.15625 3.457031 35.808594 6.714844 L 6.664062 35.855469 C 3.410156 32.207031 1.425781 27.394531 1.425781 22.125 C 1.425781 10.734375 10.6875 1.472656 22.078125 1.472656 Z M 22.078125 42.777344 C 16.46875 42.777344 11.375 40.527344 7.652344 36.886719 L 36.835938 7.703125 C 40.480469 11.425781 42.730469 16.519531 42.730469 22.125 C 42.730469 33.515625 33.464844 42.777344 22.078125 42.777344 Z M 22.078125 42.777344 " fill-opacity="1" fill-rule="nonzero"/></g><g fill="#2b2b2b" fill-opacity="1"><g transform="translate(69.492081, 25.730273)"><g><path d="M 0.59375 0 L 0.59375 -0.15625 L 0.796875 -0.15625 C 1.648438 -0.15625 2.078125 -0.53125 2.078125 -1.28125 L 2.078125 -9.90625 C 2.078125 -10.613281 1.648438 -10.96875 0.796875 -10.96875 L 0.59375 -10.96875 L 0.59375 -11.125 L 5.359375 -11.125 C 6.960938 -11.125 8.207031 -10.640625 9.09375 -9.671875 C 9.988281 -8.703125 10.4375 -7.335938 10.4375 -5.578125 C 10.4375 -4.429688 10.242188 -3.441406 9.859375 -2.609375 C 9.484375 -1.785156 8.921875 -1.144531 8.171875 -0.6875 C 7.421875 -0.226562 6.484375 0 5.359375 0 Z M 3.640625 -0.15625 L 5 -0.15625 C 6.300781 -0.15625 7.242188 -0.582031 7.828125 -1.4375 C 8.410156 -2.289062 8.703125 -3.671875 8.703125 -5.578125 C 8.703125 -7.460938 8.410156 -8.832031 7.828125 -9.6875 C 7.242188 -10.539062 6.304688 -10.96875 5.015625 -10.96875 L 3.640625 -10.96875 Z M 3.640625 -0.15625 "/></g></g></g><g fill="#2b2b2b" fill-opacity="1"><g transform="translate(80.806877, 25.730273)"><g><path d="M 4.46875 0.15625 C 3.34375 0.15625 2.457031 -0.203125 1.8125 -0.921875 C 1.175781 -1.640625 0.859375 -2.726562 0.859375 -4.1875 C 0.859375 -5.644531 1.164062 -6.726562 1.78125 -7.4375 C 2.394531 -8.144531 3.304688 -8.5 4.515625 -8.5 C 5.640625 -8.5 6.519531 -8.144531 7.15625 -7.4375 C 7.800781 -6.726562 8.125 -5.644531 8.125 -4.1875 C 8.125 -2.726562 7.8125 -1.640625 7.1875 -0.921875 C 6.570312 -0.203125 5.664062 0.15625 4.46875 0.15625 Z M 4.5 0 C 5.257812 0 5.800781 -0.320312 6.125 -0.96875 C 6.457031 -1.613281 6.625 -2.6875 6.625 -4.1875 C 6.625 -5.6875 6.457031 -6.753906 6.125 -7.390625 C 5.800781 -8.023438 5.253906 -8.34375 4.484375 -8.34375 C 3.710938 -8.34375 3.164062 -8.023438 2.84375 -7.390625 C 2.53125 -6.753906 2.375 -5.6875 2.375 -4.1875 C 2.375 -2.6875 2.535156 -1.613281 2.859375 -0.96875 C 3.179688 -0.320312 3.726562 0 4.5 0 Z M 4.5 0 "/></g></g></g><g fill="#2b2b2b" fill-opacity="1"><g transform="translate(89.787117, 25.730273)"><g><path d="M 0.4375 0 L 0.4375 -0.15625 L 0.5625 -0.15625 C 1.039062 -0.15625 1.375 -0.257812 1.5625 -0.46875 C 1.75 -0.675781 1.84375 -1.050781 1.84375 -1.59375 L 1.84375 -6.796875 C 1.84375 -7.328125 1.753906 -7.691406 1.578125 -7.890625 C 1.398438 -8.085938 1.070312 -8.1875 0.59375 -8.1875 L 0.515625 -8.1875 L 0.515625 -8.34375 L 3.28125 -8.34375 L 3.28125 -6.890625 L 3.3125 -6.890625 C 3.445312 -7.367188 3.644531 -7.722656 3.90625 -7.953125 C 4.175781 -8.179688 4.460938 -8.328125 4.765625 -8.390625 C 5.078125 -8.460938 5.363281 -8.5 5.625 -8.5 C 6.550781 -8.5 7.238281 -8.257812 7.6875 -7.78125 C 8.132812 -7.300781 8.359375 -6.523438 8.359375 -5.453125 L 8.359375 -1.59375 C 8.359375 -1.050781 8.441406 -0.675781 8.609375 -0.46875 C 8.773438 -0.257812 9.082031 -0.15625 9.53125 -0.15625 L 9.609375 -0.15625 L 9.609375 0 L 6.90625 0 L 6.90625 -5.984375 C 6.90625 -6.660156 6.773438 -7.207031 6.515625 -7.625 C 6.265625 -8.050781 5.835938 -8.265625 5.234375 -8.265625 C 4.742188 -8.265625 4.359375 -8.132812 4.078125 -7.875 C 3.796875 -7.625 3.59375 -7.289062 3.46875 -6.875 C 3.351562 -6.46875 3.296875 -6.039062 3.296875 -5.59375 L 3.296875 -1.59375 C 3.296875 -1.050781 3.382812 -0.675781 3.5625 -0.46875 C 3.738281 -0.257812 4.066406 -0.15625 4.546875 -0.15625 L 4.625 -0.15625 L 4.625 0 Z M 0.4375 0 "/></g></g></g><g fill="#2b2b2b" fill-opacity="1"><g transform="translate(99.82569, 25.730273)"><g><path d="M 3.734375 0.15625 C 2.953125 0.15625 2.378906 -0.0195312 2.015625 -0.375 C 1.660156 -0.738281 1.484375 -1.367188 1.484375 -2.265625 L 1.484375 -8.1875 L 0.296875 -8.1875 L 0.296875 -8.34375 C 1.035156 -8.34375 1.597656 -8.484375 1.984375 -8.765625 C 2.390625 -9.046875 2.65625 -9.546875 2.78125 -10.265625 L 2.9375 -10.265625 L 2.9375 -8.34375 L 5.125 -8.34375 L 5.125 -8.1875 L 2.9375 -8.1875 L 2.9375 -1.6875 C 2.9375 -0.601562 3.347656 -0.0625 4.171875 -0.0625 C 4.441406 -0.0625 4.757812 -0.125 5.125 -0.25 L 5.125 -0.09375 C 4.988281 -0.03125 4.785156 0.0234375 4.515625 0.078125 C 4.242188 0.128906 3.984375 0.15625 3.734375 0.15625 Z M 3.734375 0.15625 "/></g></g></g><g fill="#2b2b2b" fill-opacity="1"><g transform="translate(105.304103, 25.730273)"><g><path d="M 0.46875 -6.71875 L 0.46875 -6.875 C 0.945312 -7.03125 1.335938 -7.226562 1.640625 -7.46875 C 1.953125 -7.71875 2.109375 -8.039062 2.109375 -8.4375 C 2.109375 -8.71875 2.039062 -8.914062 1.90625 -9.03125 C 1.78125 -9.15625 1.628906 -9.25 1.453125 -9.3125 C 1.285156 -9.382812 1.132812 -9.476562 1 -9.59375 C 0.875 -9.71875 0.8125 -9.910156 0.8125 -10.171875 C 0.8125 -10.484375 0.90625 -10.71875 1.09375 -10.875 C 1.289062 -11.039062 1.535156 -11.125 1.828125 -11.125 C 2.148438 -11.125 2.425781 -11.007812 2.65625 -10.78125 C 2.894531 -10.550781 3.015625 -10.179688 3.015625 -9.671875 C 3.015625 -9.066406 2.816406 -8.488281 2.421875 -7.9375 C 2.023438 -7.382812 1.375 -6.976562 0.46875 -6.71875 Z M 0.46875 -6.71875 "/></g></g></g><g fill="#2b2b2b" fill-opacity="1"><g transform="translate(109.195017, 25.730273)"><g><path d="M 3.328125 0.15625 C 2.554688 0.15625 1.925781 0.015625 1.4375 -0.265625 C 0.945312 -0.546875 0.703125 -0.957031 0.703125 -1.5 C 0.703125 -1.78125 0.753906 -2 0.859375 -2.15625 C 0.972656 -2.3125 1.109375 -2.421875 1.265625 -2.484375 C 1.421875 -2.546875 1.5625 -2.578125 1.6875 -2.578125 C 1.6875 -1.734375 1.804688 -1.09375 2.046875 -0.65625 C 2.296875 -0.21875 2.734375 0 3.359375 0 C 3.910156 0 4.347656 -0.140625 4.671875 -0.421875 C 4.992188 -0.710938 5.15625 -1.140625 5.15625 -1.703125 C 5.15625 -2.066406 5.09375 -2.351562 4.96875 -2.5625 C 4.84375 -2.769531 4.632812 -2.957031 4.34375 -3.125 C 4.0625 -3.289062 3.664062 -3.484375 3.15625 -3.703125 C 2.570312 -3.960938 2.109375 -4.210938 1.765625 -4.453125 C 1.421875 -4.703125 1.175781 -4.972656 1.03125 -5.265625 C 0.882812 -5.554688 0.8125 -5.898438 0.8125 -6.296875 C 0.8125 -7.003906 1.0625 -7.546875 1.5625 -7.921875 C 2.0625 -8.296875 2.75 -8.484375 3.625 -8.484375 C 4.375 -8.484375 4.957031 -8.34375 5.375 -8.0625 C 5.800781 -7.78125 6.015625 -7.445312 6.015625 -7.0625 C 6.015625 -6.78125 5.914062 -6.550781 5.71875 -6.375 C 5.519531 -6.207031 5.242188 -6.125 4.890625 -6.125 C 4.890625 -6.925781 4.78125 -7.492188 4.5625 -7.828125 C 4.34375 -8.160156 4.003906 -8.328125 3.546875 -8.328125 C 2.492188 -8.328125 1.96875 -7.832031 1.96875 -6.84375 C 1.96875 -6.476562 2.039062 -6.1875 2.1875 -5.96875 C 2.332031 -5.75 2.550781 -5.5625 2.84375 -5.40625 C 3.144531 -5.25 3.53125 -5.070312 4 -4.875 C 4.59375 -4.632812 5.0625 -4.390625 5.40625 -4.140625 C 5.75 -3.898438 5.988281 -3.628906 6.125 -3.328125 C 6.269531 -3.035156 6.34375 -2.691406 6.34375 -2.296875 C 6.34375 -1.484375 6.066406 -0.867188 5.515625 -0.453125 C 4.972656 -0.046875 4.242188 0.15625 3.328125 0.15625 Z M 3.328125 0.15625 "/></g></g></g></svg>