<svg xmlns="http://www.w3.org/2000/svg" xmlns:xlink="http://www.w3.org/1999/xlink" width="476" zoomAndPan="magnify" viewBox="0 0 357 44.999999" height="60" preserveAspectRatio="xMidYMid meet" version="1.0"><defs><g/><clipPath id="cc5b8d0e90"><path d="M 0 0 L 44.25 0 L 44.25 44.25 L 0 44.25 Z M 0 0 " clip-rule="nonzero"/></clipPath></defs><g clip-path="url(#cc5b8d0e90)"><path fill="#000000" d="M 37.449219 6.191406 C 37.441406 6.175781 37.4375 6.160156 37.425781 6.152344 C 37.414062 6.136719 37.394531 6.132812 37.378906 6.117188 C 33.40625 2.332031 28.035156 0 22.125 0 C 9.925781 0 0 9.925781 0 22.125 C 0 28.035156 2.332031 33.40625 6.117188 37.375 C 6.132812 37.390625 6.136719 37.40625 6.152344 37.421875 C 6.160156 37.433594 6.179688 37.4375 6.191406 37.445312 C 10.21875 41.636719 15.871094 44.25 22.125 44.25 C 34.324219 44.25 44.25 34.324219 44.25 22.125 C 44.25 15.871094 41.636719 10.21875 37.449219 6.191406 Z M 22.125 1.425781 C 27.40625 1.425781 32.226562 3.417969 35.886719 6.679688 L 6.679688 35.886719 C 3.417969 32.226562 1.425781 27.40625 1.425781 22.125 C 1.425781 10.710938 10.710938 1.425781 22.125 1.425781 Z M 22.125 42.824219 C 16.503906 42.824219 11.398438 40.566406 7.671875 36.917969 L 36.917969 7.671875 C 40.566406 11.398438 42.824219 16.503906 42.824219 22.125 C 42.824219 33.539062 33.539062 42.824219 22.125 42.824219 Z M 22.125 42.824219 " fill-opacity="1" fill-rule="nonzero"/></g><g fill="#2b2b2b" fill-opacity="1"><g transform="translate(69.643483, 25.73731)"><g><path d="M 0.59375 0 L 0.59375 -0.15625 L 0.796875 -0.15625 C 1.648438 -0.15625 2.078125 -0.53125 2.078125 -1.28125 L 2.078125 -9.921875 C 2.078125 -10.628906 1.648438 -10.984375 0.796875 -10.984375 L 0.59375 -10.984375 L 0.59375 -11.140625 L 5.375 -11.140625 C 6.96875 -11.140625 8.210938 -10.65625 9.109375 -9.6875 C 10.003906 -8.71875 10.453125 -7.351562 10.453125 -5.59375 C 10.453125 -4.445312 10.257812 -3.457031 9.875 -2.625 C 9.5 -1.789062 8.9375 -1.144531 8.1875 -0.6875 C 7.4375 -0.226562 6.5 0 5.375 0 Z M 3.65625 -0.15625 L 5.015625 -0.15625 C 6.316406 -0.15625 7.257812 -0.582031 7.84375 -1.4375 C 8.425781 -2.300781 8.71875 -3.6875 8.71875 -5.59375 C 8.71875 -7.476562 8.425781 -8.847656 7.84375 -9.703125 C 7.257812 -10.554688 6.320312 -10.984375 5.03125 -10.984375 L 3.65625 -10.984375 Z M 3.65625 -0.15625 "/></g></g></g><g fill="#2b2b2b" fill-opacity="1"><g transform="translate(80.982929, 25.73731)"><g><path d="M 4.484375 0.15625 C 3.359375 0.15625 2.472656 -0.203125 1.828125 -0.921875 C 1.179688 -1.640625 0.859375 -2.734375 0.859375 -4.203125 C 0.859375 -5.660156 1.164062 -6.742188 1.78125 -7.453125 C 2.40625 -8.160156 3.320312 -8.515625 4.53125 -8.515625 C 5.65625 -8.515625 6.535156 -8.160156 7.171875 -7.453125 C 7.816406 -6.742188 8.140625 -5.660156 8.140625 -4.203125 C 8.140625 -2.734375 7.828125 -1.640625 7.203125 -0.921875 C 6.585938 -0.203125 5.679688 0.15625 4.484375 0.15625 Z M 4.515625 0 C 5.273438 0 5.816406 -0.320312 6.140625 -0.96875 C 6.472656 -1.613281 6.640625 -2.691406 6.640625 -4.203125 C 6.640625 -5.703125 6.472656 -6.769531 6.140625 -7.40625 C 5.816406 -8.039062 5.269531 -8.359375 4.5 -8.359375 C 3.726562 -8.359375 3.179688 -8.039062 2.859375 -7.40625 C 2.535156 -6.769531 2.375 -5.703125 2.375 -4.203125 C 2.375 -2.691406 2.535156 -1.613281 2.859375 -0.96875 C 3.191406 -0.320312 3.742188 0 4.515625 0 Z M 4.515625 0 "/></g></g></g><g fill="#2b2b2b" fill-opacity="1"><g transform="translate(89.982734, 25.73731)"><g><path d="M 0.4375 0 L 0.4375 -0.15625 L 0.5625 -0.15625 C 1.039062 -0.15625 1.375 -0.257812 1.5625 -0.46875 C 1.75 -0.675781 1.84375 -1.050781 1.84375 -1.59375 L 1.84375 -6.8125 C 1.84375 -7.34375 1.753906 -7.707031 1.578125 -7.90625 C 1.398438 -8.101562 1.070312 -8.203125 0.59375 -8.203125 L 0.515625 -8.203125 L 0.515625 -8.359375 L 3.296875 -8.359375 L 3.296875 -6.90625 L 3.328125 -6.90625 C 3.460938 -7.382812 3.660156 -7.738281 3.921875 -7.96875 C 4.191406 -8.195312 4.476562 -8.34375 4.78125 -8.40625 C 5.09375 -8.476562 5.378906 -8.515625 5.640625 -8.515625 C 6.566406 -8.515625 7.253906 -8.273438 7.703125 -7.796875 C 8.148438 -7.316406 8.375 -6.539062 8.375 -5.46875 L 8.375 -1.59375 C 8.375 -1.050781 8.457031 -0.675781 8.625 -0.46875 C 8.789062 -0.257812 9.097656 -0.15625 9.546875 -0.15625 L 9.625 -0.15625 L 9.625 0 L 6.921875 0 L 6.921875 -6 C 6.921875 -6.675781 6.789062 -7.222656 6.53125 -7.640625 C 6.28125 -8.066406 5.851562 -8.28125 5.25 -8.28125 C 4.757812 -8.28125 4.375 -8.148438 4.09375 -7.890625 C 3.8125 -7.640625 3.609375 -7.304688 3.484375 -6.890625 C 3.367188 -6.484375 3.3125 -6.054688 3.3125 -5.609375 L 3.3125 -1.59375 C 3.3125 -1.050781 3.398438 -0.675781 3.578125 -0.46875 C 3.753906 -0.257812 4.082031 -0.15625 4.5625 -0.15625 L 4.640625 -0.15625 L 4.640625 0 Z M 0.4375 0 "/></g></g></g><g fill="#2b2b2b" fill-opacity="1"><g transform="translate(100.043177, 25.73731)"><g><path d="M 3.75 0.15625 C 2.957031 0.15625 2.378906 -0.0195312 2.015625 -0.375 C 1.660156 -0.738281 1.484375 -1.367188 1.484375 -2.265625 L 1.484375 -8.203125 L 0.296875 -8.203125 L 0.296875 -8.359375 C 1.035156 -8.359375 1.597656 -8.5 1.984375 -8.78125 C 2.390625 -9.0625 2.660156 -9.5625 2.796875 -10.28125 L 2.953125 -10.28125 L 2.953125 -8.359375 L 5.140625 -8.359375 L 5.140625 -8.203125 L 2.953125 -8.203125 L 2.953125 -1.6875 C 2.953125 -0.601562 3.363281 -0.0625 4.1875 -0.0625 C 4.457031 -0.0625 4.773438 -0.125 5.140625 -0.25 L 5.140625 -0.09375 C 5.003906 -0.03125 4.800781 0.0234375 4.53125 0.078125 C 4.257812 0.128906 4 0.15625 3.75 0.15625 Z M 3.75 0.15625 "/></g></g></g><g fill="#2b2b2b" fill-opacity="1"><g transform="translate(105.533526, 25.73731)"><g><path d="M 0.46875 -6.734375 L 0.46875 -6.890625 C 0.945312 -7.046875 1.335938 -7.242188 1.640625 -7.484375 C 1.953125 -7.734375 2.109375 -8.054688 2.109375 -8.453125 C 2.109375 -8.734375 2.039062 -8.929688 1.90625 -9.046875 C 1.78125 -9.171875 1.628906 -9.265625 1.453125 -9.328125 C 1.285156 -9.398438 1.132812 -9.492188 1 -9.609375 C 0.875 -9.734375 0.8125 -9.925781 0.8125 -10.1875 C 0.8125 -10.5 0.90625 -10.734375 1.09375 -10.890625 C 1.289062 -11.054688 1.535156 -11.140625 1.828125 -11.140625 C 2.148438 -11.140625 2.429688 -11.023438 2.671875 -10.796875 C 2.910156 -10.566406 3.03125 -10.195312 3.03125 -9.6875 C 3.03125 -9.082031 2.828125 -8.503906 2.421875 -7.953125 C 2.023438 -7.398438 1.375 -6.992188 0.46875 -6.734375 Z M 0.46875 -6.734375 "/></g></g></g><g fill="#2b2b2b" fill-opacity="1"><g transform="translate(109.432917, 25.73731)"><g><path d="M 3.34375 0.15625 C 2.5625 0.15625 1.925781 0.015625 1.4375 -0.265625 C 0.945312 -0.546875 0.703125 -0.957031 0.703125 -1.5 C 0.703125 -1.78125 0.753906 -2 0.859375 -2.15625 C 0.972656 -2.3125 1.109375 -2.421875 1.265625 -2.484375 C 1.421875 -2.546875 1.5625 -2.578125 1.6875 -2.578125 C 1.6875 -1.734375 1.804688 -1.09375 2.046875 -0.65625 C 2.296875 -0.21875 2.738281 0 3.375 0 C 3.925781 0 4.363281 -0.140625 4.6875 -0.421875 C 5.007812 -0.710938 5.171875 -1.140625 5.171875 -1.703125 C 5.171875 -2.066406 5.109375 -2.351562 4.984375 -2.5625 C 4.859375 -2.78125 4.648438 -2.972656 4.359375 -3.140625 C 4.078125 -3.304688 3.679688 -3.5 3.171875 -3.71875 C 2.578125 -3.976562 2.109375 -4.226562 1.765625 -4.46875 C 1.421875 -4.71875 1.175781 -4.988281 1.03125 -5.28125 C 0.882812 -5.570312 0.8125 -5.914062 0.8125 -6.3125 C 0.8125 -7.019531 1.0625 -7.5625 1.5625 -7.9375 C 2.0625 -8.3125 2.753906 -8.5 3.640625 -8.5 C 4.390625 -8.5 4.972656 -8.359375 5.390625 -8.078125 C 5.816406 -7.796875 6.03125 -7.460938 6.03125 -7.078125 C 6.03125 -6.796875 5.929688 -6.566406 5.734375 -6.390625 C 5.535156 -6.222656 5.257812 -6.140625 4.90625 -6.140625 C 4.90625 -6.941406 4.796875 -7.507812 4.578125 -7.84375 C 4.359375 -8.175781 4.019531 -8.34375 3.5625 -8.34375 C 2.5 -8.34375 1.96875 -7.847656 1.96875 -6.859375 C 1.96875 -6.492188 2.039062 -6.203125 2.1875 -5.984375 C 2.332031 -5.765625 2.554688 -5.578125 2.859375 -5.421875 C 3.160156 -5.265625 3.546875 -5.085938 4.015625 -4.890625 C 4.609375 -4.648438 5.078125 -4.40625 5.421875 -4.15625 C 5.765625 -3.914062 6.003906 -3.644531 6.140625 -3.34375 C 6.285156 -3.050781 6.359375 -2.703125 6.359375 -2.296875 C 6.359375 -1.484375 6.082031 -0.867188 5.53125 -0.453125 C 4.988281 -0.046875 4.257812 0.15625 3.34375 0.15625 Z M 3.34375 0.15625 "/></g></g></g><g fill="#2b2b2b" fill-opacity="1"><g transform="translate(116.467428, 25.73731)"><g/></g></g><g fill="#2b2b2b" fill-opacity="1"><g transform="translate(119.976884, 25.73731)"><g><path d="M 0.390625 -4.109375 L 0.390625 -4.421875 L 4.453125 -4.421875 L 4.453125 -4.109375 Z M 0.390625 -4.109375 "/></g></g></g><g fill="#2b2b2b" fill-opacity="1"><g transform="translate(124.812138, 25.73731)"><g/></g></g><g fill="#2b2b2b" fill-opacity="1"><g transform="translate(128.321595, 25.73731)"><g><path d="M 5.59375 0.15625 C 4.914062 0.15625 4.375 -0.0351562 3.96875 -0.421875 C 3.570312 -0.804688 3.304688 -1.398438 3.171875 -2.203125 L 3.140625 -2.203125 L 3.140625 0 L 0.28125 0 L 0.28125 -0.15625 L 0.40625 -0.15625 C 0.863281 -0.15625 1.191406 -0.25 1.390625 -0.4375 C 1.585938 -0.625 1.6875 -0.929688 1.6875 -1.359375 L 1.6875 -10.484375 C 1.6875 -10.921875 1.585938 -11.234375 1.390625 -11.421875 C 1.191406 -11.609375 0.863281 -11.703125 0.40625 -11.703125 L 0.359375 -11.703125 L 0.359375 -11.859375 L 3.15625 -11.859375 L 3.15625 -8.984375 C 3.15625 -8.710938 3.15625 -8.320312 3.15625 -7.8125 C 3.15625 -7.300781 3.144531 -6.765625 3.125 -6.203125 L 3.15625 -6.203125 C 3.300781 -6.992188 3.570312 -7.578125 3.96875 -7.953125 C 4.363281 -8.328125 4.914062 -8.515625 5.625 -8.515625 C 7.6875 -8.515625 8.71875 -7.078125 8.71875 -4.203125 C 8.71875 -2.773438 8.453125 -1.691406 7.921875 -0.953125 C 7.390625 -0.210938 6.613281 0.15625 5.59375 0.15625 Z M 5.328125 -0.078125 C 6.003906 -0.078125 6.488281 -0.394531 6.78125 -1.03125 C 7.070312 -1.664062 7.21875 -2.726562 7.21875 -4.21875 C 7.21875 -5.6875 7.070312 -6.726562 6.78125 -7.34375 C 6.488281 -7.96875 6 -8.28125 5.3125 -8.28125 C 4.550781 -8.28125 4 -7.9375 3.65625 -7.25 C 3.320312 -6.570312 3.15625 -5.554688 3.15625 -4.203125 C 3.15625 -2.804688 3.332031 -1.769531 3.6875 -1.09375 C 4.039062 -0.414062 4.585938 -0.078125 5.328125 -0.078125 Z M 5.328125 -0.078125 "/></g></g></g><g fill="#2b2b2b" fill-opacity="1"><g transform="translate(137.898514, 25.73731)"><g><path d="M 2.5 -9.859375 C 2.300781 -9.859375 2.132812 -9.921875 2 -10.046875 C 1.875 -10.179688 1.8125 -10.410156 1.8125 -10.734375 C 1.8125 -11.066406 1.875 -11.296875 2 -11.421875 C 2.132812 -11.546875 2.300781 -11.609375 2.5 -11.609375 C 2.6875 -11.609375 2.847656 -11.546875 2.984375 -11.421875 C 3.117188 -11.296875 3.1875 -11.066406 3.1875 -10.734375 C 3.1875 -10.410156 3.117188 -10.179688 2.984375 -10.046875 C 2.847656 -9.921875 2.6875 -9.859375 2.5 -9.859375 Z M 0.359375 0 L 0.359375 -0.15625 L 0.5625 -0.15625 C 1.019531 -0.15625 1.347656 -0.25 1.546875 -0.4375 C 1.742188 -0.625 1.84375 -0.929688 1.84375 -1.359375 L 1.84375 -7 C 1.84375 -7.4375 1.742188 -7.742188 1.546875 -7.921875 C 1.347656 -8.109375 1.019531 -8.203125 0.5625 -8.203125 L 0.515625 -8.203125 L 0.515625 -8.359375 L 3.3125 -8.359375 L 3.3125 -1.4375 C 3.3125 -0.976562 3.410156 -0.648438 3.609375 -0.453125 C 3.804688 -0.253906 4.132812 -0.15625 4.59375 -0.15625 L 4.796875 -0.15625 L 4.796875 0 Z M 0.359375 0 "/></g></g></g><g fill="#2b2b2b" fill-opacity="1"><g transform="translate(142.88974, 25.73731)"><g><path d="M 3.75 0.15625 C 2.957031 0.15625 2.378906 -0.0195312 2.015625 -0.375 C 1.660156 -0.738281 1.484375 -1.367188 1.484375 -2.265625 L 1.484375 -8.203125 L 0.296875 -8.203125 L 0.296875 -8.359375 C 1.035156 -8.359375 1.597656 -8.5 1.984375 -8.78125 C 2.390625 -9.0625 2.660156 -9.5625 2.796875 -10.28125 L 2.953125 -10.28125 L 2.953125 -8.359375 L 5.140625 -8.359375 L 5.140625 -8.203125 L 2.953125 -8.203125 L 2.953125 -1.6875 C 2.953125 -0.601562 3.363281 -0.0625 4.1875 -0.0625 C 4.457031 -0.0625 4.773438 -0.125 5.140625 -0.25 L 5.140625 -0.09375 C 5.003906 -0.03125 4.800781 0.0234375 4.53125 0.078125 C 4.257812 0.128906 4 0.15625 3.75 0.15625 Z M 3.75 0.15625 "/></g></g></g><g fill="#2b2b2b" fill-opacity="1"><g transform="translate(148.380088, 25.73731)"><g><path d="M 3.75 0.15625 C 2.957031 0.15625 2.378906 -0.0195312 2.015625 -0.375 C 1.660156 -0.738281 1.484375 -1.367188 1.484375 -2.265625 L 1.484375 -8.203125 L 0.296875 -8.203125 L 0.296875 -8.359375 C 1.035156 -8.359375 1.597656 -8.5 1.984375 -8.78125 C 2.390625 -9.0625 2.660156 -9.5625 2.796875 -10.28125 L 2.953125 -10.28125 L 2.953125 -8.359375 L 5.140625 -8.359375 L 5.140625 -8.203125 L 2.953125 -8.203125 L 2.953125 -1.6875 C 2.953125 -0.601562 3.363281 -0.0625 4.1875 -0.0625 C 4.457031 -0.0625 4.773438 -0.125 5.140625 -0.25 L 5.140625 -0.09375 C 5.003906 -0.03125 4.800781 0.0234375 4.53125 0.078125 C 4.257812 0.128906 4 0.15625 3.75 0.15625 Z M 3.75 0.15625 "/></g></g></g><g fill="#2b2b2b" fill-opacity="1"><g transform="translate(153.870437, 25.73731)"><g><path d="M 4.5625 0.15625 C 3.394531 0.15625 2.484375 -0.21875 1.828125 -0.96875 C 1.179688 -1.71875 0.859375 -2.769531 0.859375 -4.125 C 0.859375 -5.582031 1.15625 -6.675781 1.75 -7.40625 C 2.351562 -8.144531 3.210938 -8.515625 4.328125 -8.515625 C 5.335938 -8.515625 6.128906 -8.203125 6.703125 -7.578125 C 7.285156 -6.960938 7.578125 -6.035156 7.578125 -4.796875 L 7.578125 -4.421875 L 2.375 -4.421875 C 2.382812 -2.828125 2.554688 -1.691406 2.890625 -1.015625 C 3.234375 -0.335938 3.804688 0 4.609375 0 C 5.191406 0 5.679688 -0.160156 6.078125 -0.484375 C 6.484375 -0.804688 6.742188 -1.285156 6.859375 -1.921875 C 6.984375 -1.898438 7.078125 -1.835938 7.140625 -1.734375 C 7.203125 -1.628906 7.234375 -1.519531 7.234375 -1.40625 C 7.234375 -1.195312 7.132812 -0.96875 6.9375 -0.71875 C 6.738281 -0.476562 6.441406 -0.269531 6.046875 -0.09375 C 5.660156 0.0703125 5.164062 0.15625 4.5625 0.15625 Z M 2.375 -4.578125 L 6 -4.578125 C 6 -5.941406 5.867188 -6.910156 5.609375 -7.484375 C 5.347656 -8.066406 4.910156 -8.359375 4.296875 -8.359375 C 3.660156 -8.359375 3.191406 -8.066406 2.890625 -7.484375 C 2.597656 -6.910156 2.425781 -5.941406 2.375 -4.578125 Z M 2.375 -4.578125 "/></g></g></g><g fill="#2b2b2b" fill-opacity="1"><g transform="translate(162.215147, 25.73731)"><g/></g></g><g fill="#2b2b2b" fill-opacity="1"><g transform="translate(165.724604, 25.73731)"><g><path d="M 3.734375 0 L 1.046875 -7.390625 C 0.929688 -7.691406 0.800781 -7.898438 0.65625 -8.015625 C 0.519531 -8.140625 0.320312 -8.203125 0.0625 -8.203125 L 0.0625 -8.359375 L 3.96875 -8.359375 L 3.96875 -8.203125 L 3.59375 -8.203125 C 3.257812 -8.203125 3.007812 -8.15625 2.84375 -8.0625 C 2.6875 -7.976562 2.609375 -7.832031 2.609375 -7.625 C 2.609375 -7.457031 2.664062 -7.210938 2.78125 -6.890625 L 4.015625 -3.4375 C 4.148438 -3.0625 4.265625 -2.726562 4.359375 -2.4375 C 4.460938 -2.15625 4.5625 -1.867188 4.65625 -1.578125 C 4.757812 -1.296875 4.875 -0.957031 5 -0.5625 C 5.09375 -0.851562 5.175781 -1.113281 5.25 -1.34375 C 5.332031 -1.582031 5.4375 -1.878906 5.5625 -2.234375 L 7.140625 -6.796875 C 7.191406 -6.960938 7.234375 -7.109375 7.265625 -7.234375 C 7.296875 -7.359375 7.3125 -7.472656 7.3125 -7.578125 C 7.3125 -7.804688 7.21875 -7.96875 7.03125 -8.0625 C 6.851562 -8.15625 6.566406 -8.203125 6.171875 -8.203125 L 5.65625 -8.203125 L 5.65625 -8.359375 L 8.984375 -8.359375 L 8.984375 -8.203125 L 8.546875 -8.203125 C 8.253906 -8.203125 8.023438 -8.113281 7.859375 -7.9375 C 7.691406 -7.769531 7.53125 -7.457031 7.375 -7 L 4.96875 0 Z M 3.734375 0 "/></g></g></g><g fill="#2b2b2b" fill-opacity="1"><g transform="translate(174.755605, 25.73731)"><g><path d="M 4.5625 0.15625 C 3.394531 0.15625 2.484375 -0.21875 1.828125 -0.96875 C 1.179688 -1.71875 0.859375 -2.769531 0.859375 -4.125 C 0.859375 -5.582031 1.15625 -6.675781 1.75 -7.40625 C 2.351562 -8.144531 3.210938 -8.515625 4.328125 -8.515625 C 5.335938 -8.515625 6.128906 -8.203125 6.703125 -7.578125 C 7.285156 -6.960938 7.578125 -6.035156 7.578125 -4.796875 L 7.578125 -4.421875 L 2.375 -4.421875 C 2.382812 -2.828125 2.554688 -1.691406 2.890625 -1.015625 C 3.234375 -0.335938 3.804688 0 4.609375 0 C 5.191406 0 5.679688 -0.160156 6.078125 -0.484375 C 6.484375 -0.804688 6.742188 -1.285156 6.859375 -1.921875 C 6.984375 -1.898438 7.078125 -1.835938 7.140625 -1.734375 C 7.203125 -1.628906 7.234375 -1.519531 7.234375 -1.40625 C 7.234375 -1.195312 7.132812 -0.96875 6.9375 -0.71875 C 6.738281 -0.476562 6.441406 -0.269531 6.046875 -0.09375 C 5.660156 0.0703125 5.164062 0.15625 4.5625 0.15625 Z M 2.375 -4.578125 L 6 -4.578125 C 6 -5.941406 5.867188 -6.910156 5.609375 -7.484375 C 5.347656 -8.066406 4.910156 -8.359375 4.296875 -8.359375 C 3.660156 -8.359375 3.191406 -8.066406 2.890625 -7.484375 C 2.597656 -6.910156 2.425781 -5.941406 2.375 -4.578125 Z M 2.375 -4.578125 "/></g></g></g><g fill="#2b2b2b" fill-opacity="1"><g transform="translate(183.100316, 25.73731)"><g><path d="M 0.359375 0 L 0.359375 -0.15625 L 0.5625 -0.15625 C 1.019531 -0.15625 1.347656 -0.25 1.546875 -0.4375 C 1.742188 -0.625 1.84375 -0.929688 1.84375 -1.359375 L 1.84375 -7 C 1.84375 -7.4375 1.742188 -7.742188 1.546875 -7.921875 C 1.347656 -8.109375 1.019531 -8.203125 0.5625 -8.203125 L 0.515625 -8.203125 L 0.515625 -8.359375 L 3.296875 -8.359375 L 3.296875 -6.8125 L 3.328125 -6.8125 C 3.398438 -7.082031 3.507812 -7.34375 3.65625 -7.59375 C 3.800781 -7.851562 4.019531 -8.070312 4.3125 -8.25 C 4.601562 -8.425781 5.003906 -8.515625 5.515625 -8.515625 C 6.023438 -8.515625 6.421875 -8.410156 6.703125 -8.203125 C 6.984375 -8.003906 7.125 -7.726562 7.125 -7.375 C 7.125 -7.0625 7.007812 -6.800781 6.78125 -6.59375 C 6.5625 -6.382812 6.191406 -6.28125 5.671875 -6.28125 C 5.671875 -6.925781 5.5625 -7.367188 5.34375 -7.609375 C 5.125 -7.847656 4.878906 -7.96875 4.609375 -7.96875 C 4.304688 -7.96875 4.066406 -7.863281 3.890625 -7.65625 C 3.710938 -7.445312 3.582031 -7.171875 3.5 -6.828125 C 3.414062 -6.492188 3.363281 -6.144531 3.34375 -5.78125 C 3.320312 -5.425781 3.3125 -5.097656 3.3125 -4.796875 L 3.3125 -1.4375 C 3.3125 -0.976562 3.410156 -0.648438 3.609375 -0.453125 C 3.804688 -0.253906 4.132812 -0.15625 4.59375 -0.15625 L 4.796875 -0.15625 L 4.796875 0 Z M 0.359375 0 "/></g></g></g><g fill="#2b2b2b" fill-opacity="1"><g transform="translate(190.446782, 25.73731)"><g><path d="M 0.4375 0 L 0.4375 -0.15625 L 0.5625 -0.15625 C 1.019531 -0.15625 1.347656 -0.25 1.546875 -0.4375 C 1.742188 -0.625 1.84375 -0.929688 1.84375 -1.359375 L 1.84375 -7 C 1.84375 -7.4375 1.742188 -7.742188 1.546875 -7.921875 C 1.347656 -8.109375 1.019531 -8.203125 0.5625 -8.203125 L 0.515625 -8.203125 L 0.515625 -8.359375 L 3.296875 -8.359375 L 3.296875 -6.890625 L 3.328125 -6.890625 C 3.472656 -7.347656 3.664062 -7.691406 3.90625 -7.921875 C 4.15625 -8.148438 4.429688 -8.304688 4.734375 -8.390625 C 5.035156 -8.472656 5.34375 -8.515625 5.65625 -8.515625 C 6.207031 -8.515625 6.703125 -8.378906 7.140625 -8.109375 C 7.578125 -7.847656 7.898438 -7.351562 8.109375 -6.625 L 8.140625 -6.625 C 8.265625 -7.1875 8.453125 -7.597656 8.703125 -7.859375 C 8.953125 -8.128906 9.226562 -8.304688 9.53125 -8.390625 C 9.832031 -8.472656 10.128906 -8.515625 10.421875 -8.515625 C 12.179688 -8.515625 13.0625 -7.484375 13.0625 -5.421875 L 13.0625 -1.4375 C 13.0625 -0.976562 13.160156 -0.648438 13.359375 -0.453125 C 13.554688 -0.253906 13.882812 -0.15625 14.34375 -0.15625 L 14.390625 -0.15625 L 14.390625 0 L 11.59375 0 L 11.59375 -5.734375 C 11.59375 -6.597656 11.472656 -7.222656 11.234375 -7.609375 C 10.992188 -8.003906 10.609375 -8.203125 10.078125 -8.203125 C 9.472656 -8.203125 9.007812 -7.976562 8.6875 -7.53125 C 8.375 -7.09375 8.21875 -6.457031 8.21875 -5.625 L 8.21875 -1.4375 C 8.21875 -0.976562 8.316406 -0.648438 8.515625 -0.453125 C 8.710938 -0.253906 9.039062 -0.15625 9.5 -0.15625 L 9.546875 -0.15625 L 9.546875 0 L 6.765625 0 L 6.765625 -5.734375 C 6.765625 -6.597656 6.640625 -7.222656 6.390625 -7.609375 C 6.148438 -8.003906 5.753906 -8.203125 5.203125 -8.203125 C 3.941406 -8.203125 3.3125 -7.269531 3.3125 -5.40625 L 3.3125 -1.4375 C 3.3125 -0.976562 3.410156 -0.648438 3.609375 -0.453125 C 3.804688 -0.253906 4.132812 -0.15625 4.59375 -0.15625 L 4.640625 -0.15625 L 4.640625 0 Z M 0.4375 0 "/></g></g></g><g fill="#2b2b2b" fill-opacity="1"><g transform="translate(205.186496, 25.73731)"><g><path d="M 4.5625 0.15625 C 3.394531 0.15625 2.484375 -0.21875 1.828125 -0.96875 C 1.179688 -1.71875 0.859375 -2.769531 0.859375 -4.125 C 0.859375 -5.582031 1.15625 -6.675781 1.75 -7.40625 C 2.351562 -8.144531 3.210938 -8.515625 4.328125 -8.515625 C 5.335938 -8.515625 6.128906 -8.203125 6.703125 -7.578125 C 7.285156 -6.960938 7.578125 -6.035156 7.578125 -4.796875 L 7.578125 -4.421875 L 2.375 -4.421875 C 2.382812 -2.828125 2.554688 -1.691406 2.890625 -1.015625 C 3.234375 -0.335938 3.804688 0 4.609375 0 C 5.191406 0 5.679688 -0.160156 6.078125 -0.484375 C 6.484375 -0.804688 6.742188 -1.285156 6.859375 -1.921875 C 6.984375 -1.898438 7.078125 -1.835938 7.140625 -1.734375 C 7.203125 -1.628906 7.234375 -1.519531 7.234375 -1.40625 C 7.234375 -1.195312 7.132812 -0.96875 6.9375 -0.71875 C 6.738281 -0.476562 6.441406 -0.269531 6.046875 -0.09375 C 5.660156 0.0703125 5.164062 0.15625 4.5625 0.15625 Z M 2.375 -4.578125 L 6 -4.578125 C 6 -5.941406 5.867188 -6.910156 5.609375 -7.484375 C 5.347656 -8.066406 4.910156 -8.359375 4.296875 -8.359375 C 3.660156 -8.359375 3.191406 -8.066406 2.890625 -7.484375 C 2.597656 -6.910156 2.425781 -5.941406 2.375 -4.578125 Z M 2.375 -4.578125 "/></g></g></g><g fill="#2b2b2b" fill-opacity="1"><g transform="translate(213.531207, 25.73731)"><g><path d="M 2.5 -9.859375 C 2.300781 -9.859375 2.132812 -9.921875 2 -10.046875 C 1.875 -10.179688 1.8125 -10.410156 1.8125 -10.734375 C 1.8125 -11.066406 1.875 -11.296875 2 -11.421875 C 2.132812 -11.546875 2.300781 -11.609375 2.5 -11.609375 C 2.6875 -11.609375 2.847656 -11.546875 2.984375 -11.421875 C 3.117188 -11.296875 3.1875 -11.066406 3.1875 -10.734375 C 3.1875 -10.410156 3.117188 -10.179688 2.984375 -10.046875 C 2.847656 -9.921875 2.6875 -9.859375 2.5 -9.859375 Z M 0.359375 0 L 0.359375 -0.15625 L 0.5625 -0.15625 C 1.019531 -0.15625 1.347656 -0.25 1.546875 -0.4375 C 1.742188 -0.625 1.84375 -0.929688 1.84375 -1.359375 L 1.84375 -7 C 1.84375 -7.4375 1.742188 -7.742188 1.546875 -7.921875 C 1.347656 -8.109375 1.019531 -8.203125 0.5625 -8.203125 L 0.515625 -8.203125 L 0.515625 -8.359375 L 3.3125 -8.359375 L 3.3125 -1.4375 C 3.3125 -0.976562 3.410156 -0.648438 3.609375 -0.453125 C 3.804688 -0.253906 4.132812 -0.15625 4.59375 -0.15625 L 4.796875 -0.15625 L 4.796875 0 Z M 0.359375 0 "/></g></g></g><g fill="#2b2b2b" fill-opacity="1"><g transform="translate(218.522433, 25.73731)"><g><path d="M 4 0.15625 C 2.976562 0.15625 2.195312 -0.210938 1.65625 -0.953125 C 1.125 -1.691406 0.859375 -2.773438 0.859375 -4.203125 C 0.859375 -7.078125 1.894531 -8.515625 3.96875 -8.515625 C 4.675781 -8.515625 5.226562 -8.328125 5.625 -7.953125 C 6.019531 -7.578125 6.289062 -6.992188 6.4375 -6.203125 L 6.46875 -6.203125 C 6.445312 -6.765625 6.4375 -7.300781 6.4375 -7.8125 C 6.4375 -8.320312 6.4375 -8.710938 6.4375 -8.984375 L 6.4375 -10.484375 C 6.4375 -10.921875 6.335938 -11.234375 6.140625 -11.421875 C 5.941406 -11.609375 5.613281 -11.703125 5.15625 -11.703125 L 5.109375 -11.703125 L 5.109375 -11.859375 L 7.890625 -11.859375 L 7.890625 -1.359375 C 7.890625 -0.929688 7.988281 -0.625 8.1875 -0.4375 C 8.382812 -0.25 8.710938 -0.15625 9.171875 -0.15625 L 9.296875 -0.15625 L 9.296875 0 L 6.453125 0 L 6.453125 -2.203125 L 6.421875 -2.203125 C 6.285156 -1.398438 6.015625 -0.804688 5.609375 -0.421875 C 5.210938 -0.0351562 4.675781 0.15625 4 0.15625 Z M 4.265625 -0.078125 C 5.003906 -0.078125 5.550781 -0.414062 5.90625 -1.09375 C 6.257812 -1.769531 6.4375 -2.804688 6.4375 -4.203125 C 6.4375 -5.554688 6.265625 -6.570312 5.921875 -7.25 C 5.585938 -7.9375 5.039062 -8.28125 4.28125 -8.28125 C 3.59375 -8.28125 3.101562 -7.96875 2.8125 -7.34375 C 2.519531 -6.726562 2.375 -5.6875 2.375 -4.21875 C 2.375 -2.726562 2.519531 -1.664062 2.8125 -1.03125 C 3.101562 -0.394531 3.585938 -0.078125 4.265625 -0.078125 Z M 4.265625 -0.078125 "/></g></g></g><g fill="#2b2b2b" fill-opacity="1"><g transform="translate(228.099352, 25.73731)"><g><path d="M 4.5625 0.15625 C 3.394531 0.15625 2.484375 -0.21875 1.828125 -0.96875 C 1.179688 -1.71875 0.859375 -2.769531 0.859375 -4.125 C 0.859375 -5.582031 1.15625 -6.675781 1.75 -7.40625 C 2.351562 -8.144531 3.210938 -8.515625 4.328125 -8.515625 C 5.335938 -8.515625 6.128906 -8.203125 6.703125 -7.578125 C 7.285156 -6.960938 7.578125 -6.035156 7.578125 -4.796875 L 7.578125 -4.421875 L 2.375 -4.421875 C 2.382812 -2.828125 2.554688 -1.691406 2.890625 -1.015625 C 3.234375 -0.335938 3.804688 0 4.609375 0 C 5.191406 0 5.679688 -0.160156 6.078125 -0.484375 C 6.484375 -0.804688 6.742188 -1.285156 6.859375 -1.921875 C 6.984375 -1.898438 7.078125 -1.835938 7.140625 -1.734375 C 7.203125 -1.628906 7.234375 -1.519531 7.234375 -1.40625 C 7.234375 -1.195312 7.132812 -0.96875 6.9375 -0.71875 C 6.738281 -0.476562 6.441406 -0.269531 6.046875 -0.09375 C 5.660156 0.0703125 5.164062 0.15625 4.5625 0.15625 Z M 2.375 -4.578125 L 6 -4.578125 C 6 -5.941406 5.867188 -6.910156 5.609375 -7.484375 C 5.347656 -8.066406 4.910156 -8.359375 4.296875 -8.359375 C 3.660156 -8.359375 3.191406 -8.066406 2.890625 -7.484375 C 2.597656 -6.910156 2.425781 -5.941406 2.375 -4.578125 Z M 2.375 -4.578125 "/></g></g></g><g fill="#2b2b2b" fill-opacity="1"><g transform="translate(236.444063, 25.73731)"><g><path d="M 3.75 0.15625 C 2.957031 0.15625 2.378906 -0.0195312 2.015625 -0.375 C 1.660156 -0.738281 1.484375 -1.367188 1.484375 -2.265625 L 1.484375 -8.203125 L 0.296875 -8.203125 L 0.296875 -8.359375 C 1.035156 -8.359375 1.597656 -8.5 1.984375 -8.78125 C 2.390625 -9.0625 2.660156 -9.5625 2.796875 -10.28125 L 2.953125 -10.28125 L 2.953125 -8.359375 L 5.140625 -8.359375 L 5.140625 -8.203125 L 2.953125 -8.203125 L 2.953125 -1.6875 C 2.953125 -0.601562 3.363281 -0.0625 4.1875 -0.0625 C 4.457031 -0.0625 4.773438 -0.125 5.140625 -0.25 L 5.140625 -0.09375 C 5.003906 -0.03125 4.800781 0.0234375 4.53125 0.078125 C 4.257812 0.128906 4 0.15625 3.75 0.15625 Z M 3.75 0.15625 "/></g></g></g><g fill="#2b2b2b" fill-opacity="1"><g transform="translate(241.934411, 25.73731)"><g/></g></g><g fill="#2b2b2b" fill-opacity="1"><g transform="translate(245.443867, 25.73731)"><g><path d="M 0.421875 0 L 0.421875 -0.15625 L 0.625 -0.15625 C 1.082031 -0.15625 1.410156 -0.25 1.609375 -0.4375 C 1.804688 -0.625 1.90625 -0.929688 1.90625 -1.359375 L 1.90625 -8.203125 L 0.484375 -8.203125 L 0.484375 -8.359375 L 1.90625 -8.359375 L 1.90625 -9.140625 C 1.90625 -10.066406 2.148438 -10.773438 2.640625 -11.265625 C 3.128906 -11.765625 3.867188 -12.015625 4.859375 -12.015625 C 5.523438 -12.015625 6.023438 -11.910156 6.359375 -11.703125 C 6.691406 -11.503906 6.859375 -11.242188 6.859375 -10.921875 C 6.859375 -10.640625 6.738281 -10.421875 6.5 -10.265625 C 6.257812 -10.117188 5.953125 -10.046875 5.578125 -10.046875 C 5.578125 -10.710938 5.5 -11.179688 5.34375 -11.453125 C 5.195312 -11.722656 4.9375 -11.859375 4.5625 -11.859375 C 4.125 -11.859375 3.816406 -11.664062 3.640625 -11.28125 C 3.460938 -10.90625 3.375 -10.238281 3.375 -9.28125 L 3.375 -8.359375 L 5.578125 -8.359375 L 5.578125 -8.203125 L 3.375 -8.203125 L 3.375 -1.4375 C 3.375 -0.976562 3.472656 -0.648438 3.671875 -0.453125 C 3.867188 -0.253906 4.195312 -0.15625 4.65625 -0.15625 L 5.25 -0.15625 L 5.25 0 Z M 0.421875 0 "/></g></g></g><g fill="#2b2b2b" fill-opacity="1"><g transform="translate(251.199375, 25.73731)"><g><path d="M 4.484375 0.15625 C 3.359375 0.15625 2.472656 -0.203125 1.828125 -0.921875 C 1.179688 -1.640625 0.859375 -2.734375 0.859375 -4.203125 C 0.859375 -5.660156 1.164062 -6.742188 1.78125 -7.453125 C 2.40625 -8.160156 3.320312 -8.515625 4.53125 -8.515625 C 5.65625 -8.515625 6.535156 -8.160156 7.171875 -7.453125 C 7.816406 -6.742188 8.140625 -5.660156 8.140625 -4.203125 C 8.140625 -2.734375 7.828125 -1.640625 7.203125 -0.921875 C 6.585938 -0.203125 5.679688 0.15625 4.484375 0.15625 Z M 4.515625 0 C 5.273438 0 5.816406 -0.320312 6.140625 -0.96875 C 6.472656 -1.613281 6.640625 -2.691406 6.640625 -4.203125 C 6.640625 -5.703125 6.472656 -6.769531 6.140625 -7.40625 C 5.816406 -8.039062 5.269531 -8.359375 4.5 -8.359375 C 3.726562 -8.359375 3.179688 -8.039062 2.859375 -7.40625 C 2.535156 -6.769531 2.375 -5.703125 2.375 -4.203125 C 2.375 -2.691406 2.535156 -1.613281 2.859375 -0.96875 C 3.191406 -0.320312 3.742188 0 4.515625 0 Z M 4.515625 0 "/></g></g></g><g fill="#2b2b2b" fill-opacity="1"><g transform="translate(260.19918, 25.73731)"><g><path d="M 0.203125 0 L 0.203125 -0.15625 L 0.40625 -0.15625 C 0.863281 -0.15625 1.191406 -0.25 1.390625 -0.4375 C 1.585938 -0.625 1.6875 -0.929688 1.6875 -1.359375 L 1.6875 -10.484375 C 1.6875 -10.921875 1.585938 -11.234375 1.390625 -11.421875 C 1.191406 -11.609375 0.863281 -11.703125 0.40625 -11.703125 L 0.203125 -11.703125 L 0.203125 -11.859375 L 3.15625 -11.859375 L 3.15625 -1.4375 C 3.15625 -0.976562 3.253906 -0.648438 3.453125 -0.453125 C 3.648438 -0.253906 3.976562 -0.15625 4.4375 -0.15625 L 4.640625 -0.15625 L 4.640625 0 Z M 0.203125 0 "/></g></g></g><g fill="#2b2b2b" fill-opacity="1"><g transform="translate(265.034446, 25.73731)"><g><path d="M 3.609375 3.75 C 2.523438 3.75 1.710938 3.550781 1.171875 3.15625 C 0.628906 2.769531 0.359375 2.253906 0.359375 1.609375 C 0.359375 1.066406 0.546875 0.628906 0.921875 0.296875 C 1.304688 -0.0234375 1.890625 -0.191406 2.671875 -0.203125 C 2.265625 -0.328125 1.957031 -0.53125 1.75 -0.8125 C 1.550781 -1.09375 1.453125 -1.390625 1.453125 -1.703125 C 1.453125 -2.003906 1.550781 -2.289062 1.75 -2.5625 C 1.957031 -2.84375 2.273438 -3.054688 2.703125 -3.203125 C 2.203125 -3.378906 1.800781 -3.671875 1.5 -4.078125 C 1.207031 -4.492188 1.0625 -5.015625 1.0625 -5.640625 C 1.0625 -6.535156 1.304688 -7.238281 1.796875 -7.75 C 2.285156 -8.257812 3.019531 -8.515625 4 -8.515625 C 4.351562 -8.515625 4.675781 -8.46875 4.96875 -8.375 C 5.269531 -8.289062 5.535156 -8.164062 5.765625 -8 C 5.921875 -8.164062 6.128906 -8.347656 6.390625 -8.546875 C 6.648438 -8.742188 6.957031 -8.84375 7.3125 -8.84375 C 7.601562 -8.84375 7.820312 -8.757812 7.96875 -8.59375 C 8.125 -8.4375 8.203125 -8.242188 8.203125 -8.015625 C 8.203125 -7.816406 8.132812 -7.648438 8 -7.515625 C 7.875 -7.378906 7.671875 -7.3125 7.390625 -7.3125 C 7.390625 -7.945312 7.160156 -8.265625 6.703125 -8.265625 C 6.566406 -8.265625 6.441406 -8.238281 6.328125 -8.1875 C 6.210938 -8.132812 6.066406 -8.039062 5.890625 -7.90625 C 6.191406 -7.664062 6.421875 -7.351562 6.578125 -6.96875 C 6.734375 -6.582031 6.8125 -6.15625 6.8125 -5.6875 C 6.8125 -4.914062 6.578125 -4.273438 6.109375 -3.765625 C 5.648438 -3.253906 4.945312 -3 4 -3 C 3.601562 -3 3.238281 -3.046875 2.90625 -3.140625 C 2.65625 -3.035156 2.484375 -2.910156 2.390625 -2.765625 C 2.296875 -2.617188 2.25 -2.457031 2.25 -2.28125 C 2.25 -1.757812 2.632812 -1.5 3.40625 -1.5 L 5.171875 -1.5 C 6.097656 -1.5 6.757812 -1.28125 7.15625 -0.84375 C 7.550781 -0.40625 7.75 0.148438 7.75 0.828125 C 7.75 1.722656 7.410156 2.429688 6.734375 2.953125 C 6.066406 3.484375 5.023438 3.75 3.609375 3.75 Z M 3.953125 -3.15625 C 4.460938 -3.15625 4.820312 -3.351562 5.03125 -3.75 C 5.238281 -4.15625 5.34375 -4.800781 5.34375 -5.6875 C 5.34375 -6.601562 5.234375 -7.273438 5.015625 -7.703125 C 4.804688 -8.140625 4.445312 -8.359375 3.9375 -8.359375 C 3.4375 -8.359375 3.078125 -8.132812 2.859375 -7.6875 C 2.640625 -7.238281 2.53125 -6.566406 2.53125 -5.671875 C 2.53125 -4.804688 2.640625 -4.171875 2.859375 -3.765625 C 3.085938 -3.359375 3.453125 -3.15625 3.953125 -3.15625 Z M 3.734375 3.59375 C 4.722656 3.59375 5.453125 3.414062 5.921875 3.0625 C 6.390625 2.707031 6.625 2.175781 6.625 1.46875 C 6.625 0.414062 6.039062 -0.109375 4.875 -0.109375 L 3.1875 -0.109375 C 2.894531 -0.109375 2.625 -0.0546875 2.375 0.046875 C 2.125 0.148438 1.914062 0.332031 1.75 0.59375 C 1.59375 0.851562 1.515625 1.210938 1.515625 1.671875 C 1.515625 2.304688 1.707031 2.785156 2.09375 3.109375 C 2.488281 3.429688 3.035156 3.59375 3.734375 3.59375 Z M 3.734375 3.59375 "/></g></g></g><g fill="#2b2b2b" fill-opacity="1"><g transform="translate(273.42594, 25.73731)"><g><path d="M 4.5625 0.15625 C 3.394531 0.15625 2.484375 -0.21875 1.828125 -0.96875 C 1.179688 -1.71875 0.859375 -2.769531 0.859375 -4.125 C 0.859375 -5.582031 1.15625 -6.675781 1.75 -7.40625 C 2.351562 -8.144531 3.210938 -8.515625 4.328125 -8.515625 C 5.335938 -8.515625 6.128906 -8.203125 6.703125 -7.578125 C 7.285156 -6.960938 7.578125 -6.035156 7.578125 -4.796875 L 7.578125 -4.421875 L 2.375 -4.421875 C 2.382812 -2.828125 2.554688 -1.691406 2.890625 -1.015625 C 3.234375 -0.335938 3.804688 0 4.609375 0 C 5.191406 0 5.679688 -0.160156 6.078125 -0.484375 C 6.484375 -0.804688 6.742188 -1.285156 6.859375 -1.921875 C 6.984375 -1.898438 7.078125 -1.835938 7.140625 -1.734375 C 7.203125 -1.628906 7.234375 -1.519531 7.234375 -1.40625 C 7.234375 -1.195312 7.132812 -0.96875 6.9375 -0.71875 C 6.738281 -0.476562 6.441406 -0.269531 6.046875 -0.09375 C 5.660156 0.0703125 5.164062 0.15625 4.5625 0.15625 Z M 2.375 -4.578125 L 6 -4.578125 C 6 -5.941406 5.867188 -6.910156 5.609375 -7.484375 C 5.347656 -8.066406 4.910156 -8.359375 4.296875 -8.359375 C 3.660156 -8.359375 3.191406 -8.066406 2.890625 -7.484375 C 2.597656 -6.910156 2.425781 -5.941406 2.375 -4.578125 Z M 2.375 -4.578125 "/></g></g></g><g fill="#2b2b2b" fill-opacity="1"><g transform="translate(281.770651, 25.73731)"><g><path d="M 0.4375 0 L 0.4375 -0.15625 L 0.5625 -0.15625 C 1.039062 -0.15625 1.375 -0.257812 1.5625 -0.46875 C 1.75 -0.675781 1.84375 -1.050781 1.84375 -1.59375 L 1.84375 -6.8125 C 1.84375 -7.34375 1.753906 -7.707031 1.578125 -7.90625 C 1.398438 -8.101562 1.070312 -8.203125 0.59375 -8.203125 L 0.515625 -8.203125 L 0.515625 -8.359375 L 3.296875 -8.359375 L 3.296875 -6.90625 L 3.328125 -6.90625 C 3.460938 -7.382812 3.660156 -7.738281 3.921875 -7.96875 C 4.191406 -8.195312 4.476562 -8.34375 4.78125 -8.40625 C 5.09375 -8.476562 5.378906 -8.515625 5.640625 -8.515625 C 6.566406 -8.515625 7.253906 -8.273438 7.703125 -7.796875 C 8.148438 -7.316406 8.375 -6.539062 8.375 -5.46875 L 8.375 -1.59375 C 8.375 -1.050781 8.457031 -0.675781 8.625 -0.46875 C 8.789062 -0.257812 9.097656 -0.15625 9.546875 -0.15625 L 9.625 -0.15625 L 9.625 0 L 6.921875 0 L 6.921875 -6 C 6.921875 -6.675781 6.789062 -7.222656 6.53125 -7.640625 C 6.28125 -8.066406 5.851562 -8.28125 5.25 -8.28125 C 4.757812 -8.28125 4.375 -8.148438 4.09375 -7.890625 C 3.8125 -7.640625 3.609375 -7.304688 3.484375 -6.890625 C 3.367188 -6.484375 3.3125 -6.054688 3.3125 -5.609375 L 3.3125 -1.59375 C 3.3125 -1.050781 3.398438 -0.675781 3.578125 -0.46875 C 3.753906 -0.257812 4.082031 -0.15625 4.5625 -0.15625 L 4.640625 -0.15625 L 4.640625 0 Z M 0.4375 0 "/></g></g></g><g fill="#2b2b2b" fill-opacity="1"><g transform="translate(291.831083, 25.73731)"><g><path d="M 4 0.15625 C 2.976562 0.15625 2.195312 -0.210938 1.65625 -0.953125 C 1.125 -1.691406 0.859375 -2.773438 0.859375 -4.203125 C 0.859375 -7.078125 1.894531 -8.515625 3.96875 -8.515625 C 4.675781 -8.515625 5.226562 -8.328125 5.625 -7.953125 C 6.019531 -7.578125 6.289062 -6.992188 6.4375 -6.203125 L 6.46875 -6.203125 C 6.445312 -6.765625 6.4375 -7.300781 6.4375 -7.8125 C 6.4375 -8.320312 6.4375 -8.710938 6.4375 -8.984375 L 6.4375 -10.484375 C 6.4375 -10.921875 6.335938 -11.234375 6.140625 -11.421875 C 5.941406 -11.609375 5.613281 -11.703125 5.15625 -11.703125 L 5.109375 -11.703125 L 5.109375 -11.859375 L 7.890625 -11.859375 L 7.890625 -1.359375 C 7.890625 -0.929688 7.988281 -0.625 8.1875 -0.4375 C 8.382812 -0.25 8.710938 -0.15625 9.171875 -0.15625 L 9.296875 -0.15625 L 9.296875 0 L 6.453125 0 L 6.453125 -2.203125 L 6.421875 -2.203125 C 6.285156 -1.398438 6.015625 -0.804688 5.609375 -0.421875 C 5.210938 -0.0351562 4.675781 0.15625 4 0.15625 Z M 4.265625 -0.078125 C 5.003906 -0.078125 5.550781 -0.414062 5.90625 -1.09375 C 6.257812 -1.769531 6.4375 -2.804688 6.4375 -4.203125 C 6.4375 -5.554688 6.265625 -6.570312 5.921875 -7.25 C 5.585938 -7.9375 5.039062 -8.28125 4.28125 -8.28125 C 3.59375 -8.28125 3.101562 -7.96875 2.8125 -7.34375 C 2.519531 -6.726562 2.375 -5.6875 2.375 -4.21875 C 2.375 -2.726562 2.519531 -1.664062 2.8125 -1.03125 C 3.101562 -0.394531 3.585938 -0.078125 4.265625 -0.078125 Z M 4.265625 -0.078125 "/></g></g></g><g fill="#2b2b2b" fill-opacity="1"><g transform="translate(301.408002, 25.73731)"><g><path d="M 4.5625 0.15625 C 3.394531 0.15625 2.484375 -0.21875 1.828125 -0.96875 C 1.179688 -1.71875 0.859375 -2.769531 0.859375 -4.125 C 0.859375 -5.582031 1.15625 -6.675781 1.75 -7.40625 C 2.351562 -8.144531 3.210938 -8.515625 4.328125 -8.515625 C 5.335938 -8.515625 6.128906 -8.203125 6.703125 -7.578125 C 7.285156 -6.960938 7.578125 -6.035156 7.578125 -4.796875 L 7.578125 -4.421875 L 2.375 -4.421875 C 2.382812 -2.828125 2.554688 -1.691406 2.890625 -1.015625 C 3.234375 -0.335938 3.804688 0 4.609375 0 C 5.191406 0 5.679688 -0.160156 6.078125 -0.484375 C 6.484375 -0.804688 6.742188 -1.285156 6.859375 -1.921875 C 6.984375 -1.898438 7.078125 -1.835938 7.140625 -1.734375 C 7.203125 -1.628906 7.234375 -1.519531 7.234375 -1.40625 C 7.234375 -1.195312 7.132812 -0.96875 6.9375 -0.71875 C 6.738281 -0.476562 6.441406 -0.269531 6.046875 -0.09375 C 5.660156 0.0703125 5.164062 0.15625 4.5625 0.15625 Z M 2.375 -4.578125 L 6 -4.578125 C 6 -5.941406 5.867188 -6.910156 5.609375 -7.484375 C 5.347656 -8.066406 4.910156 -8.359375 4.296875 -8.359375 C 3.660156 -8.359375 3.191406 -8.066406 2.890625 -7.484375 C 2.597656 -6.910156 2.425781 -5.941406 2.375 -4.578125 Z M 2.375 -4.578125 "/></g></g></g><g fill="#2b2b2b" fill-opacity="1"><g transform="translate(309.752713, 25.73731)"><g><path d="M 3.34375 0.15625 C 2.5625 0.15625 1.925781 0.015625 1.4375 -0.265625 C 0.945312 -0.546875 0.703125 -0.957031 0.703125 -1.5 C 0.703125 -1.78125 0.753906 -2 0.859375 -2.15625 C 0.972656 -2.3125 1.109375 -2.421875 1.265625 -2.484375 C 1.421875 -2.546875 1.5625 -2.578125 1.6875 -2.578125 C 1.6875 -1.734375 1.804688 -1.09375 2.046875 -0.65625 C 2.296875 -0.21875 2.738281 0 3.375 0 C 3.925781 0 4.363281 -0.140625 4.6875 -0.421875 C 5.007812 -0.710938 5.171875 -1.140625 5.171875 -1.703125 C 5.171875 -2.066406 5.109375 -2.351562 4.984375 -2.5625 C 4.859375 -2.78125 4.648438 -2.972656 4.359375 -3.140625 C 4.078125 -3.304688 3.679688 -3.5 3.171875 -3.71875 C 2.578125 -3.976562 2.109375 -4.226562 1.765625 -4.46875 C 1.421875 -4.71875 1.175781 -4.988281 1.03125 -5.28125 C 0.882812 -5.570312 0.8125 -5.914062 0.8125 -6.3125 C 0.8125 -7.019531 1.0625 -7.5625 1.5625 -7.9375 C 2.0625 -8.3125 2.753906 -8.5 3.640625 -8.5 C 4.390625 -8.5 4.972656 -8.359375 5.390625 -8.078125 C 5.816406 -7.796875 6.03125 -7.460938 6.03125 -7.078125 C 6.03125 -6.796875 5.929688 -6.566406 5.734375 -6.390625 C 5.535156 -6.222656 5.257812 -6.140625 4.90625 -6.140625 C 4.90625 -6.941406 4.796875 -7.507812 4.578125 -7.84375 C 4.359375 -8.175781 4.019531 -8.34375 3.5625 -8.34375 C 2.5 -8.34375 1.96875 -7.847656 1.96875 -6.859375 C 1.96875 -6.492188 2.039062 -6.203125 2.1875 -5.984375 C 2.332031 -5.765625 2.554688 -5.578125 2.859375 -5.421875 C 3.160156 -5.265625 3.546875 -5.085938 4.015625 -4.890625 C 4.609375 -4.648438 5.078125 -4.40625 5.421875 -4.15625 C 5.765625 -3.914062 6.003906 -3.644531 6.140625 -3.34375 C 6.285156 -3.050781 6.359375 -2.703125 6.359375 -2.296875 C 6.359375 -1.484375 6.082031 -0.867188 5.53125 -0.453125 C 4.988281 -0.046875 4.257812 0.15625 3.34375 0.15625 Z M 3.34375 0.15625 "/></g></g></g></svg>