<svg xmlns="http://www.w3.org/2000/svg" xmlns:xlink="http://www.w3.org/1999/xlink" width="459" zoomAndPan="magnify" viewBox="0 0 344.25 44.999999" height="60" preserveAspectRatio="xMidYMid meet" version="1.0"><defs><g/><clipPath id="5edc0ac473"><path d="M 0 0.0507812 L 44.152344 0.0507812 L 44.152344 44.203125 L 0 44.203125 Z M 0 0.0507812 " clip-rule="nonzero"/></clipPath></defs><g clip-path="url(#5edc0ac473)"><path fill="#000000" d="M 37.371094 6.226562 C 37.359375 6.210938 37.355469 6.195312 37.34375 6.1875 C 37.332031 6.171875 37.3125 6.167969 37.296875 6.15625 C 33.332031 2.375 27.972656 0.0507812 22.078125 0.0507812 C 9.902344 0.0507812 0 9.953125 0 22.125 C 0 28.023438 2.328125 33.382812 6.105469 37.34375 C 6.121094 37.355469 6.125 37.375 6.140625 37.390625 C 6.148438 37.398438 6.167969 37.402344 6.175781 37.414062 C 10.199219 41.597656 15.839844 44.203125 22.078125 44.203125 C 34.25 44.203125 44.152344 34.300781 44.152344 22.125 C 44.152344 15.886719 41.546875 10.246094 37.371094 6.226562 Z M 22.078125 1.472656 C 27.347656 1.472656 32.15625 3.457031 35.808594 6.714844 L 6.664062 35.855469 C 3.410156 32.207031 1.425781 27.394531 1.425781 22.125 C 1.425781 10.734375 10.6875 1.472656 22.078125 1.472656 Z M 22.078125 42.777344 C 16.46875 42.777344 11.375 40.527344 7.652344 36.886719 L 36.835938 7.703125 C 40.480469 11.425781 42.730469 16.519531 42.730469 22.125 C 42.730469 33.515625 33.464844 42.777344 22.078125 42.777344 Z M 22.078125 42.777344 " fill-opacity="1" fill-rule="nonzero"/></g><g fill="#2b2b2b" fill-opacity="1"><g transform="translate(69.492081, 25.730273)"><g><path d="M 0.59375 0 L 0.59375 -0.15625 L 0.796875 -0.15625 C 1.648438 -0.15625 2.078125 -0.53125 2.078125 -1.28125 L 2.078125 -9.90625 C 2.078125 -10.613281 1.648438 -10.96875 0.796875 -10.96875 L 0.59375 -10.96875 L 0.59375 -11.125 L 5.359375 -11.125 C 6.960938 -11.125 8.207031 -10.640625 9.09375 -9.671875 C 9.988281 -8.703125 10.4375 -7.335938 10.4375 -5.578125 C 10.4375 -4.429688 10.242188 -3.441406 9.859375 -2.609375 C 9.484375 -1.785156 8.921875 -1.144531 8.171875 -0.6875 C 7.421875 -0.226562 6.484375 0 5.359375 0 Z M 3.640625 -0.15625 L 5 -0.15625 C 6.300781 -0.15625 7.242188 -0.582031 7.828125 -1.4375 C 8.410156 -2.289062 8.703125 -3.671875 8.703125 -5.578125 C 8.703125 -7.460938 8.410156 -8.832031 7.828125 -9.6875 C 7.242188 -10.539062 6.304688 -10.96875 5.015625 -10.96875 L 3.640625 -10.96875 Z M 3.640625 -0.15625 "/></g></g></g><g fill="#2b2b2b" fill-opacity="1"><g transform="translate(80.806877, 25.730273)"><g><path d="M 4.46875 0.15625 C 3.34375 0.15625 2.457031 -0.203125 1.8125 -0.921875 C 1.175781 -1.640625 0.859375 -2.726562 0.859375 -4.1875 C 0.859375 -5.644531 1.164062 -6.726562 1.78125 -7.4375 C 2.394531 -8.144531 3.304688 -8.5 4.515625 -8.5 C 5.640625 -8.5 6.519531 -8.144531 7.15625 -7.4375 C 7.800781 -6.726562 8.125 -5.644531 8.125 -4.1875 C 8.125 -2.726562 7.8125 -1.640625 7.1875 -0.921875 C 6.570312 -0.203125 5.664062 0.15625 4.46875 0.15625 Z M 4.5 0 C 5.257812 0 5.800781 -0.320312 6.125 -0.96875 C 6.457031 -1.613281 6.625 -2.6875 6.625 -4.1875 C 6.625 -5.6875 6.457031 -6.753906 6.125 -7.390625 C 5.800781 -8.023438 5.253906 -8.34375 4.484375 -8.34375 C 3.710938 -8.34375 3.164062 -8.023438 2.84375 -7.390625 C 2.53125 -6.753906 2.375 -5.6875 2.375 -4.1875 C 2.375 -2.6875 2.535156 -1.613281 2.859375 -0.96875 C 3.179688 -0.320312 3.726562 0 4.5 0 Z M 4.5 0 "/></g></g></g><g fill="#2b2b2b" fill-opacity="1"><g transform="translate(89.787117, 25.730273)"><g><path d="M 0.4375 0 L 0.4375 -0.15625 L 0.5625 -0.15625 C 1.039062 -0.15625 1.375 -0.257812 1.5625 -0.46875 C 1.75 -0.675781 1.84375 -1.050781 1.84375 -1.59375 L 1.84375 -6.796875 C 1.84375 -7.328125 1.753906 -7.691406 1.578125 -7.890625 C 1.398438 -8.085938 1.070312 -8.1875 0.59375 -8.1875 L 0.515625 -8.1875 L 0.515625 -8.34375 L 3.28125 -8.34375 L 3.28125 -6.890625 L 3.3125 -6.890625 C 3.445312 -7.367188 3.644531 -7.722656 3.90625 -7.953125 C 4.175781 -8.179688 4.460938 -8.328125 4.765625 -8.390625 C 5.078125 -8.460938 5.363281 -8.5 5.625 -8.5 C 6.550781 -8.5 7.238281 -8.257812 7.6875 -7.78125 C 8.132812 -7.300781 8.359375 -6.523438 8.359375 -5.453125 L 8.359375 -1.59375 C 8.359375 -1.050781 8.441406 -0.675781 8.609375 -0.46875 C 8.773438 -0.257812 9.082031 -0.15625 9.53125 -0.15625 L 9.609375 -0.15625 L 9.609375 0 L 6.90625 0 L 6.90625 -5.984375 C 6.90625 -6.660156 6.773438 -7.207031 6.515625 -7.625 C 6.265625 -8.050781 5.835938 -8.265625 5.234375 -8.265625 C 4.742188 -8.265625 4.359375 -8.132812 4.078125 -7.875 C 3.796875 -7.625 3.59375 -7.289062 3.46875 -6.875 C 3.351562 -6.46875 3.296875 -6.039062 3.296875 -5.59375 L 3.296875 -1.59375 C 3.296875 -1.050781 3.382812 -0.675781 3.5625 -0.46875 C 3.738281 -0.257812 4.066406 -0.15625 4.546875 -0.15625 L 4.625 -0.15625 L 4.625 0 Z M 0.4375 0 "/></g></g></g><g fill="#2b2b2b" fill-opacity="1"><g transform="translate(99.82569, 25.730273)"><g><path d="M 3.734375 0.15625 C 2.953125 0.15625 2.378906 -0.0195312 2.015625 -0.375 C 1.660156 -0.738281 1.484375 -1.367188 1.484375 -2.265625 L 1.484375 -8.1875 L 0.296875 -8.1875 L 0.296875 -8.34375 C 1.035156 -8.34375 1.597656 -8.484375 1.984375 -8.765625 C 2.390625 -9.046875 2.65625 -9.546875 2.78125 -10.265625 L 2.9375 -10.265625 L 2.9375 -8.34375 L 5.125 -8.34375 L 5.125 -8.1875 L 2.9375 -8.1875 L 2.9375 -1.6875 C 2.9375 -0.601562 3.347656 -0.0625 4.171875 -0.0625 C 4.441406 -0.0625 4.757812 -0.125 5.125 -0.25 L 5.125 -0.09375 C 4.988281 -0.03125 4.785156 0.0234375 4.515625 0.078125 C 4.242188 0.128906 3.984375 0.15625 3.734375 0.15625 Z M 3.734375 0.15625 "/></g></g></g><g fill="#2b2b2b" fill-opacity="1"><g transform="translate(105.304103, 25.730273)"><g><path d="M 0.46875 -6.71875 L 0.46875 -6.875 C 0.945312 -7.03125 1.335938 -7.226562 1.640625 -7.46875 C 1.953125 -7.71875 2.109375 -8.039062 2.109375 -8.4375 C 2.109375 -8.71875 2.039062 -8.914062 1.90625 -9.03125 C 1.78125 -9.15625 1.628906 -9.25 1.453125 -9.3125 C 1.285156 -9.382812 1.132812 -9.476562 1 -9.59375 C 0.875 -9.71875 0.8125 -9.910156 0.8125 -10.171875 C 0.8125 -10.484375 0.90625 -10.71875 1.09375 -10.875 C 1.289062 -11.039062 1.535156 -11.125 1.828125 -11.125 C 2.148438 -11.125 2.425781 -11.007812 2.65625 -10.78125 C 2.894531 -10.550781 3.015625 -10.179688 3.015625 -9.671875 C 3.015625 -9.066406 2.816406 -8.488281 2.421875 -7.9375 C 2.023438 -7.382812 1.375 -6.976562 0.46875 -6.71875 Z M 0.46875 -6.71875 "/></g></g></g><g fill="#2b2b2b" fill-opacity="1"><g transform="translate(109.195017, 25.730273)"><g><path d="M 3.328125 0.15625 C 2.554688 0.15625 1.925781 0.015625 1.4375 -0.265625 C 0.945312 -0.546875 0.703125 -0.957031 0.703125 -1.5 C 0.703125 -1.78125 0.753906 -2 0.859375 -2.15625 C 0.972656 -2.3125 1.109375 -2.421875 1.265625 -2.484375 C 1.421875 -2.546875 1.5625 -2.578125 1.6875 -2.578125 C 1.6875 -1.734375 1.804688 -1.09375 2.046875 -0.65625 C 2.296875 -0.21875 2.734375 0 3.359375 0 C 3.910156 0 4.347656 -0.140625 4.671875 -0.421875 C 4.992188 -0.710938 5.15625 -1.140625 5.15625 -1.703125 C 5.15625 -2.066406 5.09375 -2.351562 4.96875 -2.5625 C 4.84375 -2.769531 4.632812 -2.957031 4.34375 -3.125 C 4.0625 -3.289062 3.664062 -3.484375 3.15625 -3.703125 C 2.570312 -3.960938 2.109375 -4.210938 1.765625 -4.453125 C 1.421875 -4.703125 1.175781 -4.972656 1.03125 -5.265625 C 0.882812 -5.554688 0.8125 -5.898438 0.8125 -6.296875 C 0.8125 -7.003906 1.0625 -7.546875 1.5625 -7.921875 C 2.0625 -8.296875 2.75 -8.484375 3.625 -8.484375 C 4.375 -8.484375 4.957031 -8.34375 5.375 -8.0625 C 5.800781 -7.78125 6.015625 -7.445312 6.015625 -7.0625 C 6.015625 -6.78125 5.914062 -6.550781 5.71875 -6.375 C 5.519531 -6.207031 5.242188 -6.125 4.890625 -6.125 C 4.890625 -6.925781 4.78125 -7.492188 4.5625 -7.828125 C 4.34375 -8.160156 4.003906 -8.328125 3.546875 -8.328125 C 2.492188 -8.328125 1.96875 -7.832031 1.96875 -6.84375 C 1.96875 -6.476562 2.039062 -6.1875 2.1875 -5.96875 C 2.332031 -5.75 2.550781 -5.5625 2.84375 -5.40625 C 3.144531 -5.25 3.53125 -5.070312 4 -4.875 C 4.59375 -4.632812 5.0625 -4.390625 5.40625 -4.140625 C 5.75 -3.898438 5.988281 -3.628906 6.125 -3.328125 C 6.269531 -3.035156 6.34375 -2.691406 6.34375 -2.296875 C 6.34375 -1.484375 6.066406 -0.867188 5.515625 -0.453125 C 4.972656 -0.046875 4.242188 0.15625 3.328125 0.15625 Z M 3.328125 0.15625 "/></g></g></g><g fill="#2b2b2b" fill-opacity="1"><g transform="translate(116.214236, 25.730273)"><g/></g></g><g fill="#2b2b2b" fill-opacity="1"><g transform="translate(119.716063, 25.730273)"><g><path d="M 0.390625 -4.09375 L 0.390625 -4.40625 L 4.4375 -4.40625 L 4.4375 -4.09375 Z M 0.390625 -4.09375 "/></g></g></g><g fill="#2b2b2b" fill-opacity="1"><g transform="translate(124.540806, 25.730273)"><g/></g></g><g fill="#2b2b2b" fill-opacity="1"><g transform="translate(128.042634, 25.730273)"><g><path d="M 5.578125 0.15625 C 4.898438 0.15625 4.359375 -0.0351562 3.953125 -0.421875 C 3.554688 -0.804688 3.289062 -1.398438 3.15625 -2.203125 L 3.125 -2.203125 L 3.125 0 L 0.28125 0 L 0.28125 -0.15625 L 0.40625 -0.15625 C 0.863281 -0.15625 1.191406 -0.25 1.390625 -0.4375 C 1.585938 -0.625 1.6875 -0.929688 1.6875 -1.359375 L 1.6875 -10.46875 C 1.6875 -10.90625 1.585938 -11.21875 1.390625 -11.40625 C 1.191406 -11.59375 0.863281 -11.6875 0.40625 -11.6875 L 0.359375 -11.6875 L 0.359375 -11.84375 L 3.140625 -11.84375 L 3.140625 -8.96875 C 3.140625 -8.695312 3.140625 -8.304688 3.140625 -7.796875 C 3.140625 -7.285156 3.128906 -6.75 3.109375 -6.1875 L 3.140625 -6.1875 C 3.285156 -6.976562 3.554688 -7.5625 3.953125 -7.9375 C 4.347656 -8.3125 4.898438 -8.5 5.609375 -8.5 C 7.671875 -8.5 8.703125 -7.0625 8.703125 -4.1875 C 8.703125 -2.769531 8.4375 -1.691406 7.90625 -0.953125 C 7.375 -0.210938 6.597656 0.15625 5.578125 0.15625 Z M 5.3125 -0.078125 C 5.988281 -0.078125 6.472656 -0.394531 6.765625 -1.03125 C 7.054688 -1.664062 7.203125 -2.722656 7.203125 -4.203125 C 7.203125 -5.671875 7.054688 -6.710938 6.765625 -7.328125 C 6.472656 -7.953125 5.984375 -8.265625 5.296875 -8.265625 C 4.535156 -8.265625 3.984375 -7.921875 3.640625 -7.234375 C 3.304688 -6.554688 3.140625 -5.539062 3.140625 -4.1875 C 3.140625 -2.800781 3.316406 -1.769531 3.671875 -1.09375 C 4.023438 -0.414062 4.570312 -0.078125 5.3125 -0.078125 Z M 5.3125 -0.078125 "/></g></g></g><g fill="#2b2b2b" fill-opacity="1"><g transform="translate(137.598734, 25.730273)"><g><path d="M 2.5 -9.84375 C 2.300781 -9.84375 2.132812 -9.90625 2 -10.03125 C 1.875 -10.164062 1.8125 -10.394531 1.8125 -10.71875 C 1.8125 -11.050781 1.875 -11.28125 2 -11.40625 C 2.132812 -11.53125 2.300781 -11.59375 2.5 -11.59375 C 2.675781 -11.59375 2.832031 -11.53125 2.96875 -11.40625 C 3.101562 -11.28125 3.171875 -11.050781 3.171875 -10.71875 C 3.171875 -10.394531 3.101562 -10.164062 2.96875 -10.03125 C 2.832031 -9.90625 2.675781 -9.84375 2.5 -9.84375 Z M 0.359375 0 L 0.359375 -0.15625 L 0.5625 -0.15625 C 1.019531 -0.15625 1.347656 -0.25 1.546875 -0.4375 C 1.742188 -0.625 1.84375 -0.929688 1.84375 -1.359375 L 1.84375 -6.984375 C 1.84375 -7.421875 1.742188 -7.726562 1.546875 -7.90625 C 1.347656 -8.09375 1.019531 -8.1875 0.5625 -8.1875 L 0.515625 -8.1875 L 0.515625 -8.34375 L 3.296875 -8.34375 L 3.296875 -1.4375 C 3.296875 -0.976562 3.394531 -0.648438 3.59375 -0.453125 C 3.789062 -0.253906 4.117188 -0.15625 4.578125 -0.15625 L 4.78125 -0.15625 L 4.78125 0 Z M 0.359375 0 "/></g></g></g><g fill="#2b2b2b" fill-opacity="1"><g transform="translate(142.579109, 25.730273)"><g><path d="M 3.734375 0.15625 C 2.953125 0.15625 2.378906 -0.0195312 2.015625 -0.375 C 1.660156 -0.738281 1.484375 -1.367188 1.484375 -2.265625 L 1.484375 -8.1875 L 0.296875 -8.1875 L 0.296875 -8.34375 C 1.035156 -8.34375 1.597656 -8.484375 1.984375 -8.765625 C 2.390625 -9.046875 2.65625 -9.546875 2.78125 -10.265625 L 2.9375 -10.265625 L 2.9375 -8.34375 L 5.125 -8.34375 L 5.125 -8.1875 L 2.9375 -8.1875 L 2.9375 -1.6875 C 2.9375 -0.601562 3.347656 -0.0625 4.171875 -0.0625 C 4.441406 -0.0625 4.757812 -0.125 5.125 -0.25 L 5.125 -0.09375 C 4.988281 -0.03125 4.785156 0.0234375 4.515625 0.078125 C 4.242188 0.128906 3.984375 0.15625 3.734375 0.15625 Z M 3.734375 0.15625 "/></g></g></g><g fill="#2b2b2b" fill-opacity="1"><g transform="translate(148.057522, 25.730273)"><g><path d="M 3.734375 0.15625 C 2.953125 0.15625 2.378906 -0.0195312 2.015625 -0.375 C 1.660156 -0.738281 1.484375 -1.367188 1.484375 -2.265625 L 1.484375 -8.1875 L 0.296875 -8.1875 L 0.296875 -8.34375 C 1.035156 -8.34375 1.597656 -8.484375 1.984375 -8.765625 C 2.390625 -9.046875 2.65625 -9.546875 2.78125 -10.265625 L 2.9375 -10.265625 L 2.9375 -8.34375 L 5.125 -8.34375 L 5.125 -8.1875 L 2.9375 -8.1875 L 2.9375 -1.6875 C 2.9375 -0.601562 3.347656 -0.0625 4.171875 -0.0625 C 4.441406 -0.0625 4.757812 -0.125 5.125 -0.25 L 5.125 -0.09375 C 4.988281 -0.03125 4.785156 0.0234375 4.515625 0.078125 C 4.242188 0.128906 3.984375 0.15625 3.734375 0.15625 Z M 3.734375 0.15625 "/></g></g></g><g fill="#2b2b2b" fill-opacity="1"><g transform="translate(153.535935, 25.730273)"><g><path d="M 4.546875 0.15625 C 3.378906 0.15625 2.472656 -0.21875 1.828125 -0.96875 C 1.179688 -1.71875 0.859375 -2.765625 0.859375 -4.109375 C 0.859375 -5.566406 1.15625 -6.660156 1.75 -7.390625 C 2.34375 -8.128906 3.195312 -8.5 4.3125 -8.5 C 5.320312 -8.5 6.113281 -8.1875 6.6875 -7.5625 C 7.269531 -6.945312 7.5625 -6.019531 7.5625 -4.78125 L 7.5625 -4.40625 L 2.375 -4.40625 C 2.382812 -2.820312 2.554688 -1.691406 2.890625 -1.015625 C 3.222656 -0.335938 3.789062 0 4.59375 0 C 5.175781 0 5.664062 -0.160156 6.0625 -0.484375 C 6.46875 -0.804688 6.726562 -1.285156 6.84375 -1.921875 C 6.96875 -1.898438 7.0625 -1.835938 7.125 -1.734375 C 7.1875 -1.628906 7.21875 -1.519531 7.21875 -1.40625 C 7.21875 -1.195312 7.117188 -0.96875 6.921875 -0.71875 C 6.722656 -0.476562 6.425781 -0.269531 6.03125 -0.09375 C 5.644531 0.0703125 5.148438 0.15625 4.546875 0.15625 Z M 2.375 -4.5625 L 5.984375 -4.5625 C 5.984375 -5.925781 5.851562 -6.894531 5.59375 -7.46875 C 5.332031 -8.050781 4.894531 -8.34375 4.28125 -8.34375 C 3.644531 -8.34375 3.179688 -8.050781 2.890625 -7.46875 C 2.597656 -6.894531 2.425781 -5.925781 2.375 -4.5625 Z M 2.375 -4.5625 "/></g></g></g><g fill="#2b2b2b" fill-opacity="1"><g transform="translate(161.862505, 25.730273)"><g/></g></g><g fill="#2b2b2b" fill-opacity="1"><g transform="translate(165.364333, 25.730273)"><g><path d="M 3.71875 0 L 1.046875 -7.375 C 0.929688 -7.675781 0.800781 -7.882812 0.65625 -8 C 0.519531 -8.125 0.320312 -8.1875 0.0625 -8.1875 L 0.0625 -8.34375 L 3.953125 -8.34375 L 3.953125 -8.1875 L 3.578125 -8.1875 C 3.242188 -8.1875 2.992188 -8.140625 2.828125 -8.046875 C 2.671875 -7.960938 2.59375 -7.816406 2.59375 -7.609375 C 2.59375 -7.441406 2.648438 -7.195312 2.765625 -6.875 L 4 -3.421875 C 4.132812 -3.046875 4.25 -2.71875 4.34375 -2.4375 C 4.445312 -2.15625 4.546875 -1.867188 4.640625 -1.578125 C 4.742188 -1.296875 4.859375 -0.957031 4.984375 -0.5625 C 5.078125 -0.851562 5.160156 -1.113281 5.234375 -1.34375 C 5.316406 -1.582031 5.421875 -1.878906 5.546875 -2.234375 L 7.125 -6.78125 C 7.175781 -6.945312 7.21875 -7.09375 7.25 -7.21875 C 7.28125 -7.34375 7.296875 -7.457031 7.296875 -7.5625 C 7.296875 -7.789062 7.203125 -7.953125 7.015625 -8.046875 C 6.835938 -8.140625 6.550781 -8.1875 6.15625 -8.1875 L 5.640625 -8.1875 L 5.640625 -8.34375 L 8.96875 -8.34375 L 8.96875 -8.1875 L 8.53125 -8.1875 C 8.238281 -8.1875 8.007812 -8.097656 7.84375 -7.921875 C 7.675781 -7.753906 7.515625 -7.441406 7.359375 -6.984375 L 4.953125 0 Z M 3.71875 0 "/></g></g></g><g fill="#2b2b2b" fill-opacity="1"><g transform="translate(174.375702, 25.730273)"><g><path d="M 4.546875 0.15625 C 3.378906 0.15625 2.472656 -0.21875 1.828125 -0.96875 C 1.179688 -1.71875 0.859375 -2.765625 0.859375 -4.109375 C 0.859375 -5.566406 1.15625 -6.660156 1.75 -7.390625 C 2.34375 -8.128906 3.195312 -8.5 4.3125 -8.5 C 5.320312 -8.5 6.113281 -8.1875 6.6875 -7.5625 C 7.269531 -6.945312 7.5625 -6.019531 7.5625 -4.78125 L 7.5625 -4.40625 L 2.375 -4.40625 C 2.382812 -2.820312 2.554688 -1.691406 2.890625 -1.015625 C 3.222656 -0.335938 3.789062 0 4.59375 0 C 5.175781 0 5.664062 -0.160156 6.0625 -0.484375 C 6.46875 -0.804688 6.726562 -1.285156 6.84375 -1.921875 C 6.96875 -1.898438 7.0625 -1.835938 7.125 -1.734375 C 7.1875 -1.628906 7.21875 -1.519531 7.21875 -1.40625 C 7.21875 -1.195312 7.117188 -0.96875 6.921875 -0.71875 C 6.722656 -0.476562 6.425781 -0.269531 6.03125 -0.09375 C 5.644531 0.0703125 5.148438 0.15625 4.546875 0.15625 Z M 2.375 -4.5625 L 5.984375 -4.5625 C 5.984375 -5.925781 5.851562 -6.894531 5.59375 -7.46875 C 5.332031 -8.050781 4.894531 -8.34375 4.28125 -8.34375 C 3.644531 -8.34375 3.179688 -8.050781 2.890625 -7.46875 C 2.597656 -6.894531 2.425781 -5.925781 2.375 -4.5625 Z M 2.375 -4.5625 "/></g></g></g><g fill="#2b2b2b" fill-opacity="1"><g transform="translate(182.702272, 25.730273)"><g><path d="M 0.359375 0 L 0.359375 -0.15625 L 0.5625 -0.15625 C 1.019531 -0.15625 1.347656 -0.25 1.546875 -0.4375 C 1.742188 -0.625 1.84375 -0.929688 1.84375 -1.359375 L 1.84375 -6.984375 C 1.84375 -7.421875 1.742188 -7.726562 1.546875 -7.90625 C 1.347656 -8.09375 1.019531 -8.1875 0.5625 -8.1875 L 0.515625 -8.1875 L 0.515625 -8.34375 L 3.28125 -8.34375 L 3.28125 -6.796875 L 3.3125 -6.796875 C 3.382812 -7.066406 3.492188 -7.328125 3.640625 -7.578125 C 3.785156 -7.835938 4.003906 -8.054688 4.296875 -8.234375 C 4.585938 -8.410156 4.988281 -8.5 5.5 -8.5 C 6.007812 -8.5 6.40625 -8.394531 6.6875 -8.1875 C 6.96875 -7.988281 7.109375 -7.710938 7.109375 -7.359375 C 7.109375 -7.046875 6.992188 -6.785156 6.765625 -6.578125 C 6.546875 -6.367188 6.175781 -6.265625 5.65625 -6.265625 C 5.65625 -6.910156 5.546875 -7.351562 5.328125 -7.59375 C 5.109375 -7.832031 4.863281 -7.953125 4.59375 -7.953125 C 4.289062 -7.953125 4.050781 -7.847656 3.875 -7.640625 C 3.695312 -7.429688 3.566406 -7.15625 3.484375 -6.8125 C 3.398438 -6.476562 3.347656 -6.128906 3.328125 -5.765625 C 3.304688 -5.410156 3.296875 -5.082031 3.296875 -4.78125 L 3.296875 -1.4375 C 3.296875 -0.976562 3.394531 -0.648438 3.59375 -0.453125 C 3.789062 -0.253906 4.117188 -0.15625 4.578125 -0.15625 L 4.78125 -0.15625 L 4.78125 0 Z M 0.359375 0 "/></g></g></g><g fill="#2b2b2b" fill-opacity="1"><g transform="translate(190.032767, 25.730273)"><g><path d="M 0.4375 0 L 0.4375 -0.15625 L 0.5625 -0.15625 C 1.019531 -0.15625 1.347656 -0.25 1.546875 -0.4375 C 1.742188 -0.625 1.84375 -0.929688 1.84375 -1.359375 L 1.84375 -6.984375 C 1.84375 -7.421875 1.742188 -7.726562 1.546875 -7.90625 C 1.347656 -8.09375 1.019531 -8.1875 0.5625 -8.1875 L 0.515625 -8.1875 L 0.515625 -8.34375 L 3.28125 -8.34375 L 3.28125 -6.875 L 3.3125 -6.875 C 3.457031 -7.332031 3.648438 -7.675781 3.890625 -7.90625 C 4.140625 -8.132812 4.414062 -8.289062 4.71875 -8.375 C 5.019531 -8.457031 5.328125 -8.5 5.640625 -8.5 C 6.191406 -8.5 6.6875 -8.363281 7.125 -8.09375 C 7.5625 -7.832031 7.882812 -7.335938 8.09375 -6.609375 L 8.125 -6.609375 C 8.25 -7.171875 8.4375 -7.582031 8.6875 -7.84375 C 8.9375 -8.113281 9.210938 -8.289062 9.515625 -8.375 C 9.816406 -8.457031 10.113281 -8.5 10.40625 -8.5 C 12.15625 -8.5 13.03125 -7.46875 13.03125 -5.40625 L 13.03125 -1.4375 C 13.03125 -0.976562 13.128906 -0.648438 13.328125 -0.453125 C 13.523438 -0.253906 13.851562 -0.15625 14.3125 -0.15625 L 14.359375 -0.15625 L 14.359375 0 L 11.578125 0 L 11.578125 -5.71875 C 11.578125 -6.582031 11.457031 -7.207031 11.21875 -7.59375 C 10.976562 -7.988281 10.59375 -8.1875 10.0625 -8.1875 C 9.457031 -8.1875 8.992188 -7.960938 8.671875 -7.515625 C 8.359375 -7.078125 8.203125 -6.441406 8.203125 -5.609375 L 8.203125 -1.4375 C 8.203125 -0.976562 8.300781 -0.648438 8.5 -0.453125 C 8.695312 -0.253906 9.023438 -0.15625 9.484375 -0.15625 L 9.53125 -0.15625 L 9.53125 0 L 6.75 0 L 6.75 -5.71875 C 6.75 -6.582031 6.625 -7.207031 6.375 -7.59375 C 6.132812 -7.988281 5.738281 -8.1875 5.1875 -8.1875 C 3.925781 -8.1875 3.296875 -7.253906 3.296875 -5.390625 L 3.296875 -1.4375 C 3.296875 -0.976562 3.394531 -0.648438 3.59375 -0.453125 C 3.789062 -0.253906 4.117188 -0.15625 4.578125 -0.15625 L 4.625 -0.15625 L 4.625 0 Z M 0.4375 0 "/></g></g></g><g fill="#2b2b2b" fill-opacity="1"><g transform="translate(204.740439, 25.730273)"><g><path d="M 4.546875 0.15625 C 3.378906 0.15625 2.472656 -0.21875 1.828125 -0.96875 C 1.179688 -1.71875 0.859375 -2.765625 0.859375 -4.109375 C 0.859375 -5.566406 1.15625 -6.660156 1.75 -7.390625 C 2.34375 -8.128906 3.195312 -8.5 4.3125 -8.5 C 5.320312 -8.5 6.113281 -8.1875 6.6875 -7.5625 C 7.269531 -6.945312 7.5625 -6.019531 7.5625 -4.78125 L 7.5625 -4.40625 L 2.375 -4.40625 C 2.382812 -2.820312 2.554688 -1.691406 2.890625 -1.015625 C 3.222656 -0.335938 3.789062 0 4.59375 0 C 5.175781 0 5.664062 -0.160156 6.0625 -0.484375 C 6.46875 -0.804688 6.726562 -1.285156 6.84375 -1.921875 C 6.96875 -1.898438 7.0625 -1.835938 7.125 -1.734375 C 7.1875 -1.628906 7.21875 -1.519531 7.21875 -1.40625 C 7.21875 -1.195312 7.117188 -0.96875 6.921875 -0.71875 C 6.722656 -0.476562 6.425781 -0.269531 6.03125 -0.09375 C 5.644531 0.0703125 5.148438 0.15625 4.546875 0.15625 Z M 2.375 -4.5625 L 5.984375 -4.5625 C 5.984375 -5.925781 5.851562 -6.894531 5.59375 -7.46875 C 5.332031 -8.050781 4.894531 -8.34375 4.28125 -8.34375 C 3.644531 -8.34375 3.179688 -8.050781 2.890625 -7.46875 C 2.597656 -6.894531 2.425781 -5.925781 2.375 -4.5625 Z M 2.375 -4.5625 "/></g></g></g><g fill="#2b2b2b" fill-opacity="1"><g transform="translate(213.067009, 25.730273)"><g><path d="M 2.5 -9.84375 C 2.300781 -9.84375 2.132812 -9.90625 2 -10.03125 C 1.875 -10.164062 1.8125 -10.394531 1.8125 -10.71875 C 1.8125 -11.050781 1.875 -11.28125 2 -11.40625 C 2.132812 -11.53125 2.300781 -11.59375 2.5 -11.59375 C 2.675781 -11.59375 2.832031 -11.53125 2.96875 -11.40625 C 3.101562 -11.28125 3.171875 -11.050781 3.171875 -10.71875 C 3.171875 -10.394531 3.101562 -10.164062 2.96875 -10.03125 C 2.832031 -9.90625 2.675781 -9.84375 2.5 -9.84375 Z M 0.359375 0 L 0.359375 -0.15625 L 0.5625 -0.15625 C 1.019531 -0.15625 1.347656 -0.25 1.546875 -0.4375 C 1.742188 -0.625 1.84375 -0.929688 1.84375 -1.359375 L 1.84375 -6.984375 C 1.84375 -7.421875 1.742188 -7.726562 1.546875 -7.90625 C 1.347656 -8.09375 1.019531 -8.1875 0.5625 -8.1875 L 0.515625 -8.1875 L 0.515625 -8.34375 L 3.296875 -8.34375 L 3.296875 -1.4375 C 3.296875 -0.976562 3.394531 -0.648438 3.59375 -0.453125 C 3.789062 -0.253906 4.117188 -0.15625 4.578125 -0.15625 L 4.78125 -0.15625 L 4.78125 0 Z M 0.359375 0 "/></g></g></g><g fill="#2b2b2b" fill-opacity="1"><g transform="translate(218.047385, 25.730273)"><g><path d="M 3.984375 0.15625 C 2.972656 0.15625 2.195312 -0.210938 1.65625 -0.953125 C 1.125 -1.691406 0.859375 -2.769531 0.859375 -4.1875 C 0.859375 -7.0625 1.890625 -8.5 3.953125 -8.5 C 4.660156 -8.5 5.210938 -8.3125 5.609375 -7.9375 C 6.003906 -7.5625 6.273438 -6.976562 6.421875 -6.1875 L 6.453125 -6.1875 C 6.429688 -6.75 6.421875 -7.285156 6.421875 -7.796875 C 6.421875 -8.304688 6.421875 -8.695312 6.421875 -8.96875 L 6.421875 -10.46875 C 6.421875 -10.90625 6.320312 -11.21875 6.125 -11.40625 C 5.925781 -11.59375 5.597656 -11.6875 5.140625 -11.6875 L 5.09375 -11.6875 L 5.09375 -11.84375 L 7.875 -11.84375 L 7.875 -1.359375 C 7.875 -0.929688 7.972656 -0.625 8.171875 -0.4375 C 8.367188 -0.25 8.695312 -0.15625 9.15625 -0.15625 L 9.28125 -0.15625 L 9.28125 0 L 6.4375 0 L 6.4375 -2.203125 L 6.40625 -2.203125 C 6.269531 -1.398438 6 -0.804688 5.59375 -0.421875 C 5.195312 -0.0351562 4.660156 0.15625 3.984375 0.15625 Z M 4.25 -0.078125 C 4.988281 -0.078125 5.535156 -0.414062 5.890625 -1.09375 C 6.242188 -1.769531 6.421875 -2.800781 6.421875 -4.1875 C 6.421875 -5.539062 6.25 -6.554688 5.90625 -7.234375 C 5.570312 -7.921875 5.023438 -8.265625 4.265625 -8.265625 C 3.578125 -8.265625 3.085938 -7.953125 2.796875 -7.328125 C 2.515625 -6.710938 2.375 -5.671875 2.375 -4.203125 C 2.375 -2.722656 2.515625 -1.664062 2.796875 -1.03125 C 3.085938 -0.394531 3.570312 -0.078125 4.25 -0.078125 Z M 4.25 -0.078125 "/></g></g></g><g fill="#2b2b2b" fill-opacity="1"><g transform="translate(227.603485, 25.730273)"><g><path d="M 4.546875 0.15625 C 3.378906 0.15625 2.472656 -0.21875 1.828125 -0.96875 C 1.179688 -1.71875 0.859375 -2.765625 0.859375 -4.109375 C 0.859375 -5.566406 1.15625 -6.660156 1.75 -7.390625 C 2.34375 -8.128906 3.195312 -8.5 4.3125 -8.5 C 5.320312 -8.5 6.113281 -8.1875 6.6875 -7.5625 C 7.269531 -6.945312 7.5625 -6.019531 7.5625 -4.78125 L 7.5625 -4.40625 L 2.375 -4.40625 C 2.382812 -2.820312 2.554688 -1.691406 2.890625 -1.015625 C 3.222656 -0.335938 3.789062 0 4.59375 0 C 5.175781 0 5.664062 -0.160156 6.0625 -0.484375 C 6.46875 -0.804688 6.726562 -1.285156 6.84375 -1.921875 C 6.96875 -1.898438 7.0625 -1.835938 7.125 -1.734375 C 7.1875 -1.628906 7.21875 -1.519531 7.21875 -1.40625 C 7.21875 -1.195312 7.117188 -0.96875 6.921875 -0.71875 C 6.722656 -0.476562 6.425781 -0.269531 6.03125 -0.09375 C 5.644531 0.0703125 5.148438 0.15625 4.546875 0.15625 Z M 2.375 -4.5625 L 5.984375 -4.5625 C 5.984375 -5.925781 5.851562 -6.894531 5.59375 -7.46875 C 5.332031 -8.050781 4.894531 -8.34375 4.28125 -8.34375 C 3.644531 -8.34375 3.179688 -8.050781 2.890625 -7.46875 C 2.597656 -6.894531 2.425781 -5.925781 2.375 -4.5625 Z M 2.375 -4.5625 "/></g></g></g><g fill="#2b2b2b" fill-opacity="1"><g transform="translate(235.930055, 25.730273)"><g><path d="M 3.734375 0.15625 C 2.953125 0.15625 2.378906 -0.0195312 2.015625 -0.375 C 1.660156 -0.738281 1.484375 -1.367188 1.484375 -2.265625 L 1.484375 -8.1875 L 0.296875 -8.1875 L 0.296875 -8.34375 C 1.035156 -8.34375 1.597656 -8.484375 1.984375 -8.765625 C 2.390625 -9.046875 2.65625 -9.546875 2.78125 -10.265625 L 2.9375 -10.265625 L 2.9375 -8.34375 L 5.125 -8.34375 L 5.125 -8.1875 L 2.9375 -8.1875 L 2.9375 -1.6875 C 2.9375 -0.601562 3.347656 -0.0625 4.171875 -0.0625 C 4.441406 -0.0625 4.757812 -0.125 5.125 -0.25 L 5.125 -0.09375 C 4.988281 -0.03125 4.785156 0.0234375 4.515625 0.078125 C 4.242188 0.128906 3.984375 0.15625 3.734375 0.15625 Z M 3.734375 0.15625 "/></g></g></g><g fill="#2b2b2b" fill-opacity="1"><g transform="translate(241.408468, 25.730273)"><g/></g></g><g fill="#2b2b2b" fill-opacity="1"><g transform="translate(244.910295, 25.730273)"><g><path d="M 0.421875 0 L 0.421875 -0.15625 L 0.625 -0.15625 C 1.082031 -0.15625 1.410156 -0.25 1.609375 -0.4375 C 1.804688 -0.625 1.90625 -0.929688 1.90625 -1.359375 L 1.90625 -8.1875 L 0.484375 -8.1875 L 0.484375 -8.34375 L 1.90625 -8.34375 L 1.90625 -9.125 C 1.90625 -10.050781 2.144531 -10.757812 2.625 -11.25 C 3.113281 -11.75 3.851562 -12 4.84375 -12 C 5.507812 -12 6.007812 -11.894531 6.34375 -11.6875 C 6.675781 -11.488281 6.84375 -11.226562 6.84375 -10.90625 C 6.84375 -10.625 6.722656 -10.40625 6.484375 -10.25 C 6.242188 -10.101562 5.9375 -10.03125 5.5625 -10.03125 C 5.5625 -10.695312 5.484375 -11.164062 5.328125 -11.4375 C 5.179688 -11.707031 4.921875 -11.84375 4.546875 -11.84375 C 4.109375 -11.84375 3.800781 -11.648438 3.625 -11.265625 C 3.445312 -10.890625 3.359375 -10.222656 3.359375 -9.265625 L 3.359375 -8.34375 L 5.5625 -8.34375 L 5.5625 -8.1875 L 3.359375 -8.1875 L 3.359375 -1.4375 C 3.359375 -0.976562 3.457031 -0.648438 3.65625 -0.453125 C 3.851562 -0.253906 4.179688 -0.15625 4.640625 -0.15625 L 5.234375 -0.15625 L 5.234375 0 Z M 0.421875 0 "/></g></g></g><g fill="#2b2b2b" fill-opacity="1"><g transform="translate(250.653291, 25.730273)"><g><path d="M 4.46875 0.15625 C 3.34375 0.15625 2.457031 -0.203125 1.8125 -0.921875 C 1.175781 -1.640625 0.859375 -2.726562 0.859375 -4.1875 C 0.859375 -5.644531 1.164062 -6.726562 1.78125 -7.4375 C 2.394531 -8.144531 3.304688 -8.5 4.515625 -8.5 C 5.640625 -8.5 6.519531 -8.144531 7.15625 -7.4375 C 7.800781 -6.726562 8.125 -5.644531 8.125 -4.1875 C 8.125 -2.726562 7.8125 -1.640625 7.1875 -0.921875 C 6.570312 -0.203125 5.664062 0.15625 4.46875 0.15625 Z M 4.5 0 C 5.257812 0 5.800781 -0.320312 6.125 -0.96875 C 6.457031 -1.613281 6.625 -2.6875 6.625 -4.1875 C 6.625 -5.6875 6.457031 -6.753906 6.125 -7.390625 C 5.800781 -8.023438 5.253906 -8.34375 4.484375 -8.34375 C 3.710938 -8.34375 3.164062 -8.023438 2.84375 -7.390625 C 2.53125 -6.753906 2.375 -5.6875 2.375 -4.1875 C 2.375 -2.6875 2.535156 -1.613281 2.859375 -0.96875 C 3.179688 -0.320312 3.726562 0 4.5 0 Z M 4.5 0 "/></g></g></g><g fill="#2b2b2b" fill-opacity="1"><g transform="translate(259.633532, 25.730273)"><g><path d="M 0.203125 0 L 0.203125 -0.15625 L 0.40625 -0.15625 C 0.863281 -0.15625 1.191406 -0.25 1.390625 -0.4375 C 1.585938 -0.625 1.6875 -0.929688 1.6875 -1.359375 L 1.6875 -10.46875 C 1.6875 -10.90625 1.585938 -11.21875 1.390625 -11.40625 C 1.191406 -11.59375 0.863281 -11.6875 0.40625 -11.6875 L 0.203125 -11.6875 L 0.203125 -11.84375 L 3.140625 -11.84375 L 3.140625 -1.4375 C 3.140625 -0.976562 3.238281 -0.648438 3.4375 -0.453125 C 3.632812 -0.253906 3.960938 -0.15625 4.421875 -0.15625 L 4.625 -0.15625 L 4.625 0 Z M 0.203125 0 "/></g></g></g><g fill="#2b2b2b" fill-opacity="1"><g transform="translate(264.458286, 25.730273)"><g><path d="M 3.59375 3.734375 C 2.519531 3.734375 1.710938 3.539062 1.171875 3.15625 C 0.628906 2.769531 0.359375 2.253906 0.359375 1.609375 C 0.359375 1.066406 0.546875 0.628906 0.921875 0.296875 C 1.304688 -0.0234375 1.882812 -0.191406 2.65625 -0.203125 C 2.257812 -0.328125 1.957031 -0.53125 1.75 -0.8125 C 1.550781 -1.09375 1.453125 -1.390625 1.453125 -1.703125 C 1.453125 -2.003906 1.550781 -2.289062 1.75 -2.5625 C 1.957031 -2.832031 2.269531 -3.039062 2.6875 -3.1875 C 2.195312 -3.363281 1.800781 -3.65625 1.5 -4.0625 C 1.207031 -4.476562 1.0625 -5 1.0625 -5.625 C 1.0625 -6.519531 1.304688 -7.222656 1.796875 -7.734375 C 2.285156 -8.242188 3.015625 -8.5 3.984375 -8.5 C 4.335938 -8.5 4.660156 -8.453125 4.953125 -8.359375 C 5.253906 -8.273438 5.519531 -8.148438 5.75 -7.984375 C 5.90625 -8.148438 6.113281 -8.332031 6.375 -8.53125 C 6.632812 -8.726562 6.941406 -8.828125 7.296875 -8.828125 C 7.597656 -8.828125 7.820312 -8.742188 7.96875 -8.578125 C 8.113281 -8.421875 8.1875 -8.226562 8.1875 -8 C 8.1875 -7.800781 8.117188 -7.632812 7.984375 -7.5 C 7.859375 -7.363281 7.65625 -7.296875 7.375 -7.296875 C 7.375 -7.929688 7.144531 -8.25 6.6875 -8.25 C 6.550781 -8.25 6.425781 -8.222656 6.3125 -8.171875 C 6.195312 -8.117188 6.050781 -8.023438 5.875 -7.890625 C 6.175781 -7.648438 6.40625 -7.335938 6.5625 -6.953125 C 6.71875 -6.566406 6.796875 -6.140625 6.796875 -5.671875 C 6.796875 -4.898438 6.5625 -4.257812 6.09375 -3.75 C 5.632812 -3.238281 4.929688 -2.984375 3.984375 -2.984375 C 3.585938 -2.984375 3.222656 -3.03125 2.890625 -3.125 C 2.648438 -3.019531 2.484375 -2.894531 2.390625 -2.75 C 2.296875 -2.613281 2.25 -2.457031 2.25 -2.28125 C 2.25 -1.757812 2.628906 -1.5 3.390625 -1.5 L 5.15625 -1.5 C 6.082031 -1.5 6.742188 -1.28125 7.140625 -0.84375 C 7.535156 -0.40625 7.734375 0.148438 7.734375 0.828125 C 7.734375 1.722656 7.394531 2.429688 6.71875 2.953125 C 6.050781 3.472656 5.007812 3.734375 3.59375 3.734375 Z M 3.9375 -3.140625 C 4.445312 -3.140625 4.804688 -3.335938 5.015625 -3.734375 C 5.222656 -4.140625 5.328125 -4.785156 5.328125 -5.671875 C 5.328125 -6.585938 5.21875 -7.257812 5 -7.6875 C 4.789062 -8.125 4.429688 -8.34375 3.921875 -8.34375 C 3.421875 -8.34375 3.0625 -8.117188 2.84375 -7.671875 C 2.632812 -7.222656 2.53125 -6.550781 2.53125 -5.65625 C 2.53125 -4.789062 2.640625 -4.15625 2.859375 -3.75 C 3.078125 -3.34375 3.4375 -3.140625 3.9375 -3.140625 Z M 3.71875 3.578125 C 4.707031 3.578125 5.4375 3.398438 5.90625 3.046875 C 6.375 2.703125 6.609375 2.175781 6.609375 1.46875 C 6.609375 0.414062 6.023438 -0.109375 4.859375 -0.109375 L 3.171875 -0.109375 C 2.878906 -0.109375 2.609375 -0.0546875 2.359375 0.046875 C 2.117188 0.148438 1.914062 0.332031 1.75 0.59375 C 1.59375 0.851562 1.515625 1.210938 1.515625 1.671875 C 1.515625 2.296875 1.707031 2.769531 2.09375 3.09375 C 2.476562 3.414062 3.019531 3.578125 3.71875 3.578125 Z M 3.71875 3.578125 "/></g></g></g><g fill="#2b2b2b" fill-opacity="1"><g transform="translate(272.831538, 25.730273)"><g><path d="M 4.546875 0.15625 C 3.378906 0.15625 2.472656 -0.21875 1.828125 -0.96875 C 1.179688 -1.71875 0.859375 -2.765625 0.859375 -4.109375 C 0.859375 -5.566406 1.15625 -6.660156 1.75 -7.390625 C 2.34375 -8.128906 3.195312 -8.5 4.3125 -8.5 C 5.320312 -8.5 6.113281 -8.1875 6.6875 -7.5625 C 7.269531 -6.945312 7.5625 -6.019531 7.5625 -4.78125 L 7.5625 -4.40625 L 2.375 -4.40625 C 2.382812 -2.820312 2.554688 -1.691406 2.890625 -1.015625 C 3.222656 -0.335938 3.789062 0 4.59375 0 C 5.175781 0 5.664062 -0.160156 6.0625 -0.484375 C 6.46875 -0.804688 6.726562 -1.285156 6.84375 -1.921875 C 6.96875 -1.898438 7.0625 -1.835938 7.125 -1.734375 C 7.1875 -1.628906 7.21875 -1.519531 7.21875 -1.40625 C 7.21875 -1.195312 7.117188 -0.96875 6.921875 -0.71875 C 6.722656 -0.476562 6.425781 -0.269531 6.03125 -0.09375 C 5.644531 0.0703125 5.148438 0.15625 4.546875 0.15625 Z M 2.375 -4.5625 L 5.984375 -4.5625 C 5.984375 -5.925781 5.851562 -6.894531 5.59375 -7.46875 C 5.332031 -8.050781 4.894531 -8.34375 4.28125 -8.34375 C 3.644531 -8.34375 3.179688 -8.050781 2.890625 -7.46875 C 2.597656 -6.894531 2.425781 -5.925781 2.375 -4.5625 Z M 2.375 -4.5625 "/></g></g></g><g fill="#2b2b2b" fill-opacity="1"><g transform="translate(281.158109, 25.730273)"><g><path d="M 0.4375 0 L 0.4375 -0.15625 L 0.5625 -0.15625 C 1.039062 -0.15625 1.375 -0.257812 1.5625 -0.46875 C 1.75 -0.675781 1.84375 -1.050781 1.84375 -1.59375 L 1.84375 -6.796875 C 1.84375 -7.328125 1.753906 -7.691406 1.578125 -7.890625 C 1.398438 -8.085938 1.070312 -8.1875 0.59375 -8.1875 L 0.515625 -8.1875 L 0.515625 -8.34375 L 3.28125 -8.34375 L 3.28125 -6.890625 L 3.3125 -6.890625 C 3.445312 -7.367188 3.644531 -7.722656 3.90625 -7.953125 C 4.175781 -8.179688 4.460938 -8.328125 4.765625 -8.390625 C 5.078125 -8.460938 5.363281 -8.5 5.625 -8.5 C 6.550781 -8.5 7.238281 -8.257812 7.6875 -7.78125 C 8.132812 -7.300781 8.359375 -6.523438 8.359375 -5.453125 L 8.359375 -1.59375 C 8.359375 -1.050781 8.441406 -0.675781 8.609375 -0.46875 C 8.773438 -0.257812 9.082031 -0.15625 9.53125 -0.15625 L 9.609375 -0.15625 L 9.609375 0 L 6.90625 0 L 6.90625 -5.984375 C 6.90625 -6.660156 6.773438 -7.207031 6.515625 -7.625 C 6.265625 -8.050781 5.835938 -8.265625 5.234375 -8.265625 C 4.742188 -8.265625 4.359375 -8.132812 4.078125 -7.875 C 3.796875 -7.625 3.59375 -7.289062 3.46875 -6.875 C 3.351562 -6.46875 3.296875 -6.039062 3.296875 -5.59375 L 3.296875 -1.59375 C 3.296875 -1.050781 3.382812 -0.675781 3.5625 -0.46875 C 3.738281 -0.257812 4.066406 -0.15625 4.546875 -0.15625 L 4.625 -0.15625 L 4.625 0 Z M 0.4375 0 "/></g></g></g><g fill="#2b2b2b" fill-opacity="1"><g transform="translate(291.19667, 25.730273)"><g><path d="M 3.984375 0.15625 C 2.972656 0.15625 2.195312 -0.210938 1.65625 -0.953125 C 1.125 -1.691406 0.859375 -2.769531 0.859375 -4.1875 C 0.859375 -7.0625 1.890625 -8.5 3.953125 -8.5 C 4.660156 -8.5 5.210938 -8.3125 5.609375 -7.9375 C 6.003906 -7.5625 6.273438 -6.976562 6.421875 -6.1875 L 6.453125 -6.1875 C 6.429688 -6.75 6.421875 -7.285156 6.421875 -7.796875 C 6.421875 -8.304688 6.421875 -8.695312 6.421875 -8.96875 L 6.421875 -10.46875 C 6.421875 -10.90625 6.320312 -11.21875 6.125 -11.40625 C 5.925781 -11.59375 5.597656 -11.6875 5.140625 -11.6875 L 5.09375 -11.6875 L 5.09375 -11.84375 L 7.875 -11.84375 L 7.875 -1.359375 C 7.875 -0.929688 7.972656 -0.625 8.171875 -0.4375 C 8.367188 -0.25 8.695312 -0.15625 9.15625 -0.15625 L 9.28125 -0.15625 L 9.28125 0 L 6.4375 0 L 6.4375 -2.203125 L 6.40625 -2.203125 C 6.269531 -1.398438 6 -0.804688 5.59375 -0.421875 C 5.195312 -0.0351562 4.660156 0.15625 3.984375 0.15625 Z M 4.25 -0.078125 C 4.988281 -0.078125 5.535156 -0.414062 5.890625 -1.09375 C 6.242188 -1.769531 6.421875 -2.800781 6.421875 -4.1875 C 6.421875 -5.539062 6.25 -6.554688 5.90625 -7.234375 C 5.570312 -7.921875 5.023438 -8.265625 4.265625 -8.265625 C 3.578125 -8.265625 3.085938 -7.953125 2.796875 -7.328125 C 2.515625 -6.710938 2.375 -5.671875 2.375 -4.203125 C 2.375 -2.722656 2.515625 -1.664062 2.796875 -1.03125 C 3.085938 -0.394531 3.570312 -0.078125 4.25 -0.078125 Z M 4.25 -0.078125 "/></g></g></g><g fill="#2b2b2b" fill-opacity="1"><g transform="translate(300.75277, 25.730273)"><g><path d="M 4.546875 0.15625 C 3.378906 0.15625 2.472656 -0.21875 1.828125 -0.96875 C 1.179688 -1.71875 0.859375 -2.765625 0.859375 -4.109375 C 0.859375 -5.566406 1.15625 -6.660156 1.75 -7.390625 C 2.34375 -8.128906 3.195312 -8.5 4.3125 -8.5 C 5.320312 -8.5 6.113281 -8.1875 6.6875 -7.5625 C 7.269531 -6.945312 7.5625 -6.019531 7.5625 -4.78125 L 7.5625 -4.40625 L 2.375 -4.40625 C 2.382812 -2.820312 2.554688 -1.691406 2.890625 -1.015625 C 3.222656 -0.335938 3.789062 0 4.59375 0 C 5.175781 0 5.664062 -0.160156 6.0625 -0.484375 C 6.46875 -0.804688 6.726562 -1.285156 6.84375 -1.921875 C 6.96875 -1.898438 7.0625 -1.835938 7.125 -1.734375 C 7.1875 -1.628906 7.21875 -1.519531 7.21875 -1.40625 C 7.21875 -1.195312 7.117188 -0.96875 6.921875 -0.71875 C 6.722656 -0.476562 6.425781 -0.269531 6.03125 -0.09375 C 5.644531 0.0703125 5.148438 0.15625 4.546875 0.15625 Z M 2.375 -4.5625 L 5.984375 -4.5625 C 5.984375 -5.925781 5.851562 -6.894531 5.59375 -7.46875 C 5.332031 -8.050781 4.894531 -8.34375 4.28125 -8.34375 C 3.644531 -8.34375 3.179688 -8.050781 2.890625 -7.46875 C 2.597656 -6.894531 2.425781 -5.925781 2.375 -4.5625 Z M 2.375 -4.5625 "/></g></g></g><g fill="#2b2b2b" fill-opacity="1"><g transform="translate(309.07934, 25.730273)"><g><path d="M 3.328125 0.15625 C 2.554688 0.15625 1.925781 0.015625 1.4375 -0.265625 C 0.945312 -0.546875 0.703125 -0.957031 0.703125 -1.5 C 0.703125 -1.78125 0.753906 -2 0.859375 -2.15625 C 0.972656 -2.3125 1.109375 -2.421875 1.265625 -2.484375 C 1.421875 -2.546875 1.5625 -2.578125 1.6875 -2.578125 C 1.6875 -1.734375 1.804688 -1.09375 2.046875 -0.65625 C 2.296875 -0.21875 2.734375 0 3.359375 0 C 3.910156 0 4.347656 -0.140625 4.671875 -0.421875 C 4.992188 -0.710938 5.15625 -1.140625 5.15625 -1.703125 C 5.15625 -2.066406 5.09375 -2.351562 4.96875 -2.5625 C 4.84375 -2.769531 4.632812 -2.957031 4.34375 -3.125 C 4.0625 -3.289062 3.664062 -3.484375 3.15625 -3.703125 C 2.570312 -3.960938 2.109375 -4.210938 1.765625 -4.453125 C 1.421875 -4.703125 1.175781 -4.972656 1.03125 -5.265625 C 0.882812 -5.554688 0.8125 -5.898438 0.8125 -6.296875 C 0.8125 -7.003906 1.0625 -7.546875 1.5625 -7.921875 C 2.0625 -8.296875 2.75 -8.484375 3.625 -8.484375 C 4.375 -8.484375 4.957031 -8.34375 5.375 -8.0625 C 5.800781 -7.78125 6.015625 -7.445312 6.015625 -7.0625 C 6.015625 -6.78125 5.914062 -6.550781 5.71875 -6.375 C 5.519531 -6.207031 5.242188 -6.125 4.890625 -6.125 C 4.890625 -6.925781 4.78125 -7.492188 4.5625 -7.828125 C 4.34375 -8.160156 4.003906 -8.328125 3.546875 -8.328125 C 2.492188 -8.328125 1.96875 -7.832031 1.96875 -6.84375 C 1.96875 -6.476562 2.039062 -6.1875 2.1875 -5.96875 C 2.332031 -5.75 2.550781 -5.5625 2.84375 -5.40625 C 3.144531 -5.25 3.53125 -5.070312 4 -4.875 C 4.59375 -4.632812 5.0625 -4.390625 5.40625 -4.140625 C 5.75 -3.898438 5.988281 -3.628906 6.125 -3.328125 C 6.269531 -3.035156 6.34375 -2.691406 6.34375 -2.296875 C 6.34375 -1.484375 6.066406 -0.867188 5.515625 -0.453125 C 4.972656 -0.046875 4.242188 0.15625 3.328125 0.15625 Z M 3.328125 0.15625 "/></g></g></g></svg>