<svg xmlns="http://www.w3.org/2000/svg" xmlns:xlink="http://www.w3.org/1999/xlink" width="456" zoomAndPan="magnify" viewBox="0 0 342 45.749998" height="61" preserveAspectRatio="xMidYMid meet" version="1.0"><defs><g/><clipPath id="b56fb8c43d"><path d="M 0.929688 0 L 40.464844 0 L 40.464844 45.5 L 0.929688 45.5 Z M 0.929688 0 " clip-rule="nonzero"/></clipPath></defs><g clip-path="url(#b56fb8c43d)"><path fill="#100f0d" d="M 34.671875 37.382812 C 31.96875 33.457031 27.304688 26.5 26.050781 23.464844 C 25.277344 21.59375 24.625 19.148438 24.339844 18.011719 L 25.324219 18.011719 C 25.75 18.859375 27.09375 21.46875 28.464844 23.402344 C 30.878906 26.800781 37.164062 33.644531 38.972656 35.59375 C 38.195312 35.980469 36.710938 36.675781 34.671875 37.382812 Z M 29.726562 41.066406 C 27.796875 36.484375 24.238281 27.765625 23.582031 24.242188 C 23.167969 22.035156 23.042969 19.171875 23.007812 18.011719 L 23.222656 18.011719 C 23.46875 19.019531 24.171875 21.753906 25.046875 23.875 C 26.324219 26.972656 30.851562 33.746094 33.601562 37.742188 C 33.828125 38.074219 34.046875 38.386719 34.246094 38.675781 C 34.671875 39.289062 35.027344 39.800781 35.292969 40.171875 C 34.289062 40.371094 32.367188 40.722656 29.726562 41.066406 Z M 29.699219 43.769531 C 28.191406 43.972656 24.441406 44.417969 20.539062 44.417969 C 17.226562 44.417969 13.035156 43.957031 11.386719 43.757812 C 11.511719 43.464844 11.671875 43.089844 11.863281 42.640625 C 11.996094 42.328125 12.148438 41.976562 12.308594 41.597656 C 14.242188 37.015625 17.875 28.136719 18.566406 24.441406 C 19 22.113281 19.121094 19.175781 19.15625 18.011719 L 21.921875 18.011719 C 21.957031 19.175781 22.082031 22.113281 22.515625 24.441406 C 23.183594 28.035156 26.636719 36.527344 28.609375 41.207031 C 28.765625 41.578125 28.910156 41.921875 29.046875 42.242188 C 29.3125 42.871094 29.539062 43.394531 29.699219 43.769531 Z M 5.738281 40.242188 C 6.035156 39.824219 6.464844 39.207031 6.988281 38.449219 C 7.191406 38.15625 7.410156 37.84375 7.636719 37.515625 C 10.398438 33.492188 14.777344 26.914062 16.03125 23.875 C 16.90625 21.753906 17.609375 19.019531 17.855469 18.011719 L 18.070312 18.011719 C 18.035156 19.171875 17.910156 22.035156 17.5 24.242188 C 16.824219 27.867188 13.082031 36.980469 11.191406 41.445312 C 8.617188 41.054688 6.695312 40.535156 5.738281 40.242188 Z M 2.441406 35.5625 C 4.28125 33.578125 10.519531 26.785156 12.917969 23.402344 C 14.289062 21.46875 15.636719 18.859375 16.0625 18.011719 L 16.738281 18.011719 C 16.453125 19.148438 15.800781 21.589844 15.027344 23.464844 C 13.800781 26.445312 9.285156 33.199219 6.558594 37.160156 C 4.660156 36.519531 3.222656 35.914062 2.441406 35.5625 Z M 14.894531 5.539062 C 14.9375 5.464844 14.960938 5.386719 14.96875 5.300781 L 15.238281 1.082031 L 16.109375 1.082031 L 16.558594 3.59375 C 16.574219 4.1875 16.894531 4.726562 17.402344 5.003906 L 20.511719 6.71875 C 20.675781 6.8125 20.875 6.8125 21.039062 6.71875 L 24.144531 5.003906 C 24.652344 4.726562 24.972656 4.1875 24.992188 3.59375 L 25.441406 1.082031 L 26.3125 1.082031 L 26.582031 5.300781 C 26.585938 5.382812 26.613281 5.464844 26.652344 5.535156 C 26.671875 5.566406 28.390625 8.621094 26.695312 10.769531 C 26.144531 11.46875 25.613281 12.5625 25.363281 13.109375 L 16.1875 13.109375 C 15.9375 12.5625 15.402344 11.46875 14.851562 10.769531 C 13.160156 8.621094 14.878906 5.566406 14.894531 5.539062 Z M 16.320312 16.929688 L 16.320312 14.277344 L 25.132812 14.277344 L 25.132812 16.929688 Z M 40.246094 35.371094 C 40.164062 35.285156 32.078125 26.621094 29.351562 22.777344 C 27.941406 20.789062 26.507812 17.960938 26.214844 17.375 L 26.214844 13.855469 C 26.242188 13.796875 26.90625 12.253906 27.550781 11.4375 C 29.511719 8.949219 28.003906 5.769531 27.65625 5.113281 L 27.359375 0.507812 C 27.34375 0.222656 27.105469 0 26.820312 0 L 24.984375 0 C 24.722656 0 24.496094 0.1875 24.453125 0.445312 L 23.917969 3.445312 C 23.910156 3.476562 23.910156 3.507812 23.910156 3.539062 C 23.910156 3.757812 23.796875 3.964844 23.621094 4.058594 L 20.773438 5.628906 L 17.929688 4.058594 C 17.753906 3.964844 17.640625 3.757812 17.640625 3.539062 C 17.640625 3.507812 17.640625 3.476562 17.632812 3.445312 L 17.097656 0.445312 C 17.050781 0.1875 16.828125 0 16.5625 0 L 14.730469 0 C 14.445312 0 14.207031 0.222656 14.1875 0.507812 L 13.894531 5.113281 C 13.546875 5.769531 12.039062 8.949219 14 11.4375 C 14.507812 12.082031 15.027344 13.171875 15.234375 13.640625 L 15.234375 17.269531 L 15.222656 17.265625 C 15.207031 17.296875 13.605469 20.5625 12.035156 22.777344 C 9.308594 26.621094 1.222656 35.285156 1.140625 35.371094 C 1.023438 35.496094 0.972656 35.667969 1.003906 35.839844 C 1.03125 36.003906 1.140625 36.148438 1.292969 36.226562 C 1.375 36.265625 3.105469 37.121094 5.917969 38.09375 C 5.03125 39.371094 4.449219 40.1875 4.429688 40.21875 C 4.332031 40.359375 4.304688 40.53125 4.351562 40.695312 C 4.402344 40.855469 4.527344 40.984375 4.6875 41.042969 C 4.84375 41.097656 7.125 41.910156 10.753906 42.480469 C 10.359375 43.402344 10.117188 43.960938 10.101562 43.988281 C 10.035156 44.144531 10.042969 44.320312 10.128906 44.46875 C 10.210938 44.617188 10.359375 44.71875 10.527344 44.738281 C 10.585938 44.746094 16.265625 45.496094 20.539062 45.496094 C 25.65625 45.496094 30.515625 44.746094 30.5625 44.738281 C 30.730469 44.710938 30.875 44.609375 30.953125 44.464844 C 31.035156 44.316406 31.042969 44.140625 30.976562 43.988281 C 30.960938 43.957031 30.652344 43.246094 30.164062 42.097656 C 34.023438 41.585938 36.292969 41.070312 36.332031 41.058594 C 36.507812 41.019531 36.652344 40.894531 36.714844 40.726562 C 36.78125 40.558594 36.757812 40.367188 36.652344 40.21875 C 36.628906 40.191406 36.113281 39.460938 35.316406 38.3125 C 38.300781 37.25 40.042969 36.253906 40.121094 36.210938 C 40.265625 36.128906 40.359375 35.984375 40.386719 35.820312 C 40.410156 35.660156 40.359375 35.492188 40.246094 35.371094 " fill-opacity="1" fill-rule="nonzero"/></g><g fill="#2b2b2b" fill-opacity="1"><g transform="translate(67.765647, 26.197452)"><g><path d="M 6.21875 0.15625 C 5.019531 0.15625 4.023438 -0.078125 3.234375 -0.546875 C 2.441406 -1.023438 1.851562 -1.691406 1.46875 -2.546875 C 1.082031 -3.398438 0.890625 -4.398438 0.890625 -5.546875 C 0.890625 -6.671875 1.078125 -7.660156 1.453125 -8.515625 C 1.835938 -9.367188 2.421875 -10.035156 3.203125 -10.515625 C 3.984375 -10.992188 4.96875 -11.234375 6.15625 -11.234375 C 7.300781 -11.234375 8.1875 -11.070312 8.8125 -10.75 C 9.4375 -10.4375 9.75 -10.035156 9.75 -9.546875 C 9.75 -9.191406 9.632812 -8.921875 9.40625 -8.734375 C 9.1875 -8.554688 8.816406 -8.445312 8.296875 -8.40625 C 8.296875 -9.375 8.128906 -10.0625 7.796875 -10.46875 C 7.460938 -10.875 6.894531 -11.078125 6.09375 -11.078125 C 5.257812 -11.078125 4.585938 -10.890625 4.078125 -10.515625 C 3.566406 -10.148438 3.191406 -9.5625 2.953125 -8.75 C 2.722656 -7.945312 2.609375 -6.878906 2.609375 -5.546875 C 2.609375 -4.210938 2.734375 -3.140625 2.984375 -2.328125 C 3.242188 -1.515625 3.660156 -0.921875 4.234375 -0.546875 C 4.804688 -0.179688 5.550781 0 6.46875 0 C 6.769531 0 7.054688 -0.0195312 7.328125 -0.0625 C 7.609375 -0.113281 7.859375 -0.171875 8.078125 -0.234375 L 8.078125 -3.90625 C 8.078125 -4.613281 7.65625 -4.96875 6.8125 -4.96875 L 6.75 -4.96875 L 6.75 -5.125 L 10.78125 -5.125 L 10.78125 -4.96875 L 10.71875 -4.96875 C 10.3125 -4.96875 10.03125 -4.875 9.875 -4.6875 C 9.726562 -4.5 9.65625 -4.21875 9.65625 -3.84375 L 9.65625 -0.5625 C 9.132812 -0.320312 8.597656 -0.140625 8.046875 -0.015625 C 7.503906 0.0976562 6.894531 0.15625 6.21875 0.15625 Z M 6.21875 0.15625 "/></g></g></g><g fill="#2b2b2b" fill-opacity="1"><g transform="translate(78.84179, 26.197452)"><g><path d="M 2.484375 -9.8125 C 2.285156 -9.8125 2.117188 -9.875 1.984375 -10 C 1.859375 -10.125 1.796875 -10.347656 1.796875 -10.671875 C 1.796875 -11.003906 1.859375 -11.234375 1.984375 -11.359375 C 2.117188 -11.484375 2.285156 -11.546875 2.484375 -11.546875 C 2.671875 -11.546875 2.832031 -11.484375 2.96875 -11.359375 C 3.101562 -11.234375 3.171875 -11.003906 3.171875 -10.671875 C 3.171875 -10.347656 3.101562 -10.125 2.96875 -10 C 2.832031 -9.875 2.671875 -9.8125 2.484375 -9.8125 Z M 0.359375 0 L 0.359375 -0.15625 L 0.5625 -0.15625 C 1.007812 -0.15625 1.332031 -0.25 1.53125 -0.4375 C 1.726562 -0.625 1.828125 -0.925781 1.828125 -1.34375 L 1.828125 -6.953125 C 1.828125 -7.390625 1.726562 -7.695312 1.53125 -7.875 C 1.332031 -8.0625 1.007812 -8.15625 0.5625 -8.15625 L 0.515625 -8.15625 L 0.515625 -8.3125 L 3.296875 -8.3125 L 3.296875 -1.421875 C 3.296875 -0.972656 3.390625 -0.648438 3.578125 -0.453125 C 3.773438 -0.253906 4.101562 -0.15625 4.5625 -0.15625 L 4.765625 -0.15625 L 4.765625 0 Z M 0.359375 0 "/></g></g></g><g fill="#2b2b2b" fill-opacity="1"><g transform="translate(83.805889, 26.197452)"><g><path d="M 5.546875 0.15625 C 4.878906 0.15625 4.34375 -0.0351562 3.9375 -0.421875 C 3.539062 -0.804688 3.28125 -1.394531 3.15625 -2.1875 L 3.125 -2.1875 L 3.125 0 L 0.28125 0 L 0.28125 -0.15625 L 0.40625 -0.15625 C 0.863281 -0.15625 1.1875 -0.25 1.375 -0.4375 C 1.570312 -0.625 1.671875 -0.925781 1.671875 -1.34375 L 1.671875 -10.421875 C 1.671875 -10.859375 1.570312 -11.171875 1.375 -11.359375 C 1.1875 -11.546875 0.863281 -11.640625 0.40625 -11.640625 L 0.359375 -11.640625 L 0.359375 -11.796875 L 3.140625 -11.796875 L 3.140625 -8.9375 C 3.140625 -8.664062 3.140625 -8.273438 3.140625 -7.765625 C 3.140625 -7.253906 3.128906 -6.71875 3.109375 -6.15625 L 3.140625 -6.15625 C 3.273438 -6.945312 3.539062 -7.53125 3.9375 -7.90625 C 4.332031 -8.28125 4.878906 -8.46875 5.578125 -8.46875 C 7.640625 -8.46875 8.671875 -7.035156 8.671875 -4.171875 C 8.671875 -2.753906 8.40625 -1.675781 7.875 -0.9375 C 7.34375 -0.207031 6.566406 0.15625 5.546875 0.15625 Z M 5.296875 -0.078125 C 5.960938 -0.078125 6.441406 -0.390625 6.734375 -1.015625 C 7.023438 -1.648438 7.171875 -2.707031 7.171875 -4.1875 C 7.171875 -5.644531 7.023438 -6.679688 6.734375 -7.296875 C 6.441406 -7.921875 5.957031 -8.234375 5.28125 -8.234375 C 4.519531 -8.234375 3.972656 -7.890625 3.640625 -7.203125 C 3.304688 -6.523438 3.140625 -5.515625 3.140625 -4.171875 C 3.140625 -2.785156 3.3125 -1.753906 3.65625 -1.078125 C 4.007812 -0.410156 4.554688 -0.078125 5.296875 -0.078125 Z M 5.296875 -0.078125 "/></g></g></g><g fill="#2b2b2b" fill-opacity="1"><g transform="translate(93.33076, 26.197452)"><g><path d="M 3.71875 0.15625 C 2.9375 0.15625 2.363281 -0.0195312 2 -0.375 C 1.644531 -0.738281 1.46875 -1.363281 1.46875 -2.25 L 1.46875 -8.15625 L 0.296875 -8.15625 L 0.296875 -8.3125 C 1.023438 -8.3125 1.582031 -8.453125 1.96875 -8.734375 C 2.375 -9.015625 2.644531 -9.507812 2.78125 -10.21875 L 2.9375 -10.21875 L 2.9375 -8.3125 L 5.109375 -8.3125 L 5.109375 -8.15625 L 2.9375 -8.15625 L 2.9375 -1.671875 C 2.9375 -0.597656 3.34375 -0.0625 4.15625 -0.0625 C 4.425781 -0.0625 4.742188 -0.125 5.109375 -0.25 L 5.109375 -0.09375 C 4.972656 -0.03125 4.769531 0.0234375 4.5 0.078125 C 4.226562 0.128906 3.96875 0.15625 3.71875 0.15625 Z M 3.71875 0.15625 "/></g></g></g><g fill="#2b2b2b" fill-opacity="1"><g transform="translate(98.791269, 26.197452)"><g/></g></g><g fill="#2b2b2b" fill-opacity="1"><g transform="translate(102.281653, 26.197452)"><g><path d="M 4.53125 0.15625 C 3.375 0.15625 2.472656 -0.210938 1.828125 -0.953125 C 1.179688 -1.703125 0.859375 -2.75 0.859375 -4.09375 C 0.859375 -5.539062 1.15625 -6.628906 1.75 -7.359375 C 2.34375 -8.097656 3.191406 -8.46875 4.296875 -8.46875 C 5.296875 -8.46875 6.082031 -8.15625 6.65625 -7.53125 C 7.238281 -6.914062 7.53125 -5.992188 7.53125 -4.765625 L 7.53125 -4.390625 L 2.359375 -4.390625 C 2.367188 -2.804688 2.539062 -1.675781 2.875 -1 C 3.207031 -0.332031 3.773438 0 4.578125 0 C 5.160156 0 5.648438 -0.160156 6.046875 -0.484375 C 6.441406 -0.804688 6.695312 -1.28125 6.8125 -1.90625 C 6.9375 -1.882812 7.03125 -1.820312 7.09375 -1.71875 C 7.15625 -1.613281 7.1875 -1.503906 7.1875 -1.390625 C 7.1875 -1.191406 7.085938 -0.96875 6.890625 -0.71875 C 6.691406 -0.476562 6.398438 -0.269531 6.015625 -0.09375 C 5.628906 0.0703125 5.132812 0.15625 4.53125 0.15625 Z M 2.359375 -4.546875 L 5.953125 -4.546875 C 5.953125 -5.898438 5.820312 -6.863281 5.5625 -7.4375 C 5.3125 -8.019531 4.878906 -8.3125 4.265625 -8.3125 C 3.640625 -8.3125 3.175781 -8.019531 2.875 -7.4375 C 2.582031 -6.863281 2.410156 -5.898438 2.359375 -4.546875 Z M 2.359375 -4.546875 "/></g></g></g><g fill="#2b2b2b" fill-opacity="1"><g transform="translate(110.581011, 26.197452)"><g><path d="M 3.328125 0.15625 C 2.546875 0.15625 1.910156 0.015625 1.421875 -0.265625 C 0.941406 -0.546875 0.703125 -0.953125 0.703125 -1.484375 C 0.703125 -1.765625 0.753906 -1.984375 0.859375 -2.140625 C 0.972656 -2.296875 1.101562 -2.40625 1.25 -2.46875 C 1.40625 -2.53125 1.546875 -2.5625 1.671875 -2.5625 C 1.671875 -1.71875 1.789062 -1.078125 2.03125 -0.640625 C 2.28125 -0.210938 2.71875 0 3.34375 0 C 3.894531 0 4.332031 -0.140625 4.65625 -0.421875 C 4.976562 -0.710938 5.140625 -1.132812 5.140625 -1.6875 C 5.140625 -2.050781 5.078125 -2.335938 4.953125 -2.546875 C 4.828125 -2.765625 4.617188 -2.953125 4.328125 -3.109375 C 4.046875 -3.273438 3.65625 -3.46875 3.15625 -3.6875 C 2.5625 -3.945312 2.09375 -4.195312 1.75 -4.4375 C 1.40625 -4.6875 1.160156 -4.953125 1.015625 -5.234375 C 0.878906 -5.523438 0.8125 -5.867188 0.8125 -6.265625 C 0.8125 -6.972656 1.054688 -7.515625 1.546875 -7.890625 C 2.046875 -8.265625 2.734375 -8.453125 3.609375 -8.453125 C 4.359375 -8.453125 4.941406 -8.3125 5.359375 -8.03125 C 5.773438 -7.75 5.984375 -7.414062 5.984375 -7.03125 C 5.984375 -6.75 5.882812 -6.519531 5.6875 -6.34375 C 5.5 -6.175781 5.226562 -6.09375 4.875 -6.09375 C 4.875 -6.894531 4.765625 -7.460938 4.546875 -7.796875 C 4.328125 -8.128906 3.988281 -8.296875 3.53125 -8.296875 C 2.476562 -8.296875 1.953125 -7.800781 1.953125 -6.8125 C 1.953125 -6.445312 2.023438 -6.15625 2.171875 -5.9375 C 2.316406 -5.71875 2.539062 -5.53125 2.84375 -5.375 C 3.144531 -5.226562 3.523438 -5.054688 3.984375 -4.859375 C 4.578125 -4.617188 5.039062 -4.375 5.375 -4.125 C 5.71875 -3.882812 5.957031 -3.617188 6.09375 -3.328125 C 6.238281 -3.035156 6.3125 -2.6875 6.3125 -2.28125 C 6.3125 -1.476562 6.039062 -0.867188 5.5 -0.453125 C 4.957031 -0.046875 4.234375 0.15625 3.328125 0.15625 Z M 3.328125 0.15625 "/></g></g></g><g fill="#2b2b2b" fill-opacity="1"><g transform="translate(117.577292, 26.197452)"><g/></g></g><g fill="#2b2b2b" fill-opacity="1"><g transform="translate(121.067675, 26.197452)"><g><path d="M 4.53125 0.15625 C 3.375 0.15625 2.472656 -0.210938 1.828125 -0.953125 C 1.179688 -1.703125 0.859375 -2.75 0.859375 -4.09375 C 0.859375 -5.539062 1.15625 -6.628906 1.75 -7.359375 C 2.34375 -8.097656 3.191406 -8.46875 4.296875 -8.46875 C 5.296875 -8.46875 6.082031 -8.15625 6.65625 -7.53125 C 7.238281 -6.914062 7.53125 -5.992188 7.53125 -4.765625 L 7.53125 -4.390625 L 2.359375 -4.390625 C 2.367188 -2.804688 2.539062 -1.675781 2.875 -1 C 3.207031 -0.332031 3.773438 0 4.578125 0 C 5.160156 0 5.648438 -0.160156 6.046875 -0.484375 C 6.441406 -0.804688 6.695312 -1.28125 6.8125 -1.90625 C 6.9375 -1.882812 7.03125 -1.820312 7.09375 -1.71875 C 7.15625 -1.613281 7.1875 -1.503906 7.1875 -1.390625 C 7.1875 -1.191406 7.085938 -0.96875 6.890625 -0.71875 C 6.691406 -0.476562 6.398438 -0.269531 6.015625 -0.09375 C 5.628906 0.0703125 5.132812 0.15625 4.53125 0.15625 Z M 2.359375 -4.546875 L 5.953125 -4.546875 C 5.953125 -5.898438 5.820312 -6.863281 5.5625 -7.4375 C 5.3125 -8.019531 4.878906 -8.3125 4.265625 -8.3125 C 3.640625 -8.3125 3.175781 -8.019531 2.875 -7.4375 C 2.582031 -6.863281 2.410156 -5.898438 2.359375 -4.546875 Z M 2.359375 -4.546875 "/></g></g></g><g fill="#2b2b2b" fill-opacity="1"><g transform="translate(129.367034, 26.197452)"><g><path d="M 2.484375 -9.8125 C 2.285156 -9.8125 2.117188 -9.875 1.984375 -10 C 1.859375 -10.125 1.796875 -10.347656 1.796875 -10.671875 C 1.796875 -11.003906 1.859375 -11.234375 1.984375 -11.359375 C 2.117188 -11.484375 2.285156 -11.546875 2.484375 -11.546875 C 2.671875 -11.546875 2.832031 -11.484375 2.96875 -11.359375 C 3.101562 -11.234375 3.171875 -11.003906 3.171875 -10.671875 C 3.171875 -10.347656 3.101562 -10.125 2.96875 -10 C 2.832031 -9.875 2.671875 -9.8125 2.484375 -9.8125 Z M 0.359375 0 L 0.359375 -0.15625 L 0.5625 -0.15625 C 1.007812 -0.15625 1.332031 -0.25 1.53125 -0.4375 C 1.726562 -0.625 1.828125 -0.925781 1.828125 -1.34375 L 1.828125 -6.953125 C 1.828125 -7.390625 1.726562 -7.695312 1.53125 -7.875 C 1.332031 -8.0625 1.007812 -8.15625 0.5625 -8.15625 L 0.515625 -8.15625 L 0.515625 -8.3125 L 3.296875 -8.3125 L 3.296875 -1.421875 C 3.296875 -0.972656 3.390625 -0.648438 3.578125 -0.453125 C 3.773438 -0.253906 4.101562 -0.15625 4.5625 -0.15625 L 4.765625 -0.15625 L 4.765625 0 Z M 0.359375 0 "/></g></g></g><g fill="#2b2b2b" fill-opacity="1"><g transform="translate(134.331133, 26.197452)"><g><path d="M 0.4375 0 L 0.4375 -0.15625 L 0.5625 -0.15625 C 1.03125 -0.15625 1.359375 -0.257812 1.546875 -0.46875 C 1.734375 -0.675781 1.828125 -1.046875 1.828125 -1.578125 L 1.828125 -6.765625 C 1.828125 -7.296875 1.738281 -7.660156 1.5625 -7.859375 C 1.382812 -8.054688 1.0625 -8.15625 0.59375 -8.15625 L 0.515625 -8.15625 L 0.515625 -8.3125 L 3.28125 -8.3125 L 3.28125 -6.859375 L 3.3125 -6.859375 C 3.4375 -7.335938 3.628906 -7.691406 3.890625 -7.921875 C 4.160156 -8.148438 4.445312 -8.296875 4.75 -8.359375 C 5.0625 -8.429688 5.34375 -8.46875 5.59375 -8.46875 C 6.519531 -8.46875 7.207031 -8.226562 7.65625 -7.75 C 8.101562 -7.269531 8.328125 -6.5 8.328125 -5.4375 L 8.328125 -1.578125 C 8.328125 -1.046875 8.410156 -0.675781 8.578125 -0.46875 C 8.742188 -0.257812 9.050781 -0.15625 9.5 -0.15625 L 9.578125 -0.15625 L 9.578125 0 L 6.875 0 L 6.875 -5.953125 C 6.875 -6.628906 6.742188 -7.175781 6.484375 -7.59375 C 6.234375 -8.019531 5.8125 -8.234375 5.21875 -8.234375 C 4.726562 -8.234375 4.34375 -8.101562 4.0625 -7.84375 C 3.78125 -7.59375 3.582031 -7.257812 3.46875 -6.84375 C 3.351562 -6.4375 3.296875 -6.007812 3.296875 -5.5625 L 3.296875 -1.578125 C 3.296875 -1.046875 3.378906 -0.675781 3.546875 -0.46875 C 3.722656 -0.257812 4.050781 -0.15625 4.53125 -0.15625 L 4.609375 -0.15625 L 4.609375 0 Z M 0.4375 0 "/></g></g></g><g fill="#2b2b2b" fill-opacity="1"><g transform="translate(144.3369, 26.197452)"><g><path d="M 4.53125 0.15625 C 3.375 0.15625 2.472656 -0.210938 1.828125 -0.953125 C 1.179688 -1.703125 0.859375 -2.75 0.859375 -4.09375 C 0.859375 -5.539062 1.15625 -6.628906 1.75 -7.359375 C 2.34375 -8.097656 3.191406 -8.46875 4.296875 -8.46875 C 5.296875 -8.46875 6.082031 -8.15625 6.65625 -7.53125 C 7.238281 -6.914062 7.53125 -5.992188 7.53125 -4.765625 L 7.53125 -4.390625 L 2.359375 -4.390625 C 2.367188 -2.804688 2.539062 -1.675781 2.875 -1 C 3.207031 -0.332031 3.773438 0 4.578125 0 C 5.160156 0 5.648438 -0.160156 6.046875 -0.484375 C 6.441406 -0.804688 6.695312 -1.28125 6.8125 -1.90625 C 6.9375 -1.882812 7.03125 -1.820312 7.09375 -1.71875 C 7.15625 -1.613281 7.1875 -1.503906 7.1875 -1.390625 C 7.1875 -1.191406 7.085938 -0.96875 6.890625 -0.71875 C 6.691406 -0.476562 6.398438 -0.269531 6.015625 -0.09375 C 5.628906 0.0703125 5.132812 0.15625 4.53125 0.15625 Z M 2.359375 -4.546875 L 5.953125 -4.546875 C 5.953125 -5.898438 5.820312 -6.863281 5.5625 -7.4375 C 5.3125 -8.019531 4.878906 -8.3125 4.265625 -8.3125 C 3.640625 -8.3125 3.175781 -8.019531 2.875 -7.4375 C 2.582031 -6.863281 2.410156 -5.898438 2.359375 -4.546875 Z M 2.359375 -4.546875 "/></g></g></g><g fill="#2b2b2b" fill-opacity="1"><g transform="translate(152.636259, 26.197452)"><g><path d="M 0.4375 0 L 0.4375 -0.15625 L 0.5625 -0.15625 C 1.03125 -0.15625 1.359375 -0.257812 1.546875 -0.46875 C 1.734375 -0.675781 1.828125 -1.046875 1.828125 -1.578125 L 1.828125 -6.765625 C 1.828125 -7.296875 1.738281 -7.660156 1.5625 -7.859375 C 1.382812 -8.054688 1.0625 -8.15625 0.59375 -8.15625 L 0.515625 -8.15625 L 0.515625 -8.3125 L 3.28125 -8.3125 L 3.28125 -6.859375 L 3.3125 -6.859375 C 3.4375 -7.335938 3.628906 -7.691406 3.890625 -7.921875 C 4.160156 -8.148438 4.445312 -8.296875 4.75 -8.359375 C 5.0625 -8.429688 5.34375 -8.46875 5.59375 -8.46875 C 6.519531 -8.46875 7.207031 -8.226562 7.65625 -7.75 C 8.101562 -7.269531 8.328125 -6.5 8.328125 -5.4375 L 8.328125 -1.578125 C 8.328125 -1.046875 8.410156 -0.675781 8.578125 -0.46875 C 8.742188 -0.257812 9.050781 -0.15625 9.5 -0.15625 L 9.578125 -0.15625 L 9.578125 0 L 6.875 0 L 6.875 -5.953125 C 6.875 -6.628906 6.742188 -7.175781 6.484375 -7.59375 C 6.234375 -8.019531 5.8125 -8.234375 5.21875 -8.234375 C 4.726562 -8.234375 4.34375 -8.101562 4.0625 -7.84375 C 3.78125 -7.59375 3.582031 -7.257812 3.46875 -6.84375 C 3.351562 -6.4375 3.296875 -6.007812 3.296875 -5.5625 L 3.296875 -1.578125 C 3.296875 -1.046875 3.378906 -0.675781 3.546875 -0.46875 C 3.722656 -0.257812 4.050781 -0.15625 4.53125 -0.15625 L 4.609375 -0.15625 L 4.609375 0 Z M 0.4375 0 "/></g></g></g><g fill="#2b2b2b" fill-opacity="1"><g transform="translate(162.642026, 26.197452)"><g/></g></g><g fill="#2b2b2b" fill-opacity="1"><g transform="translate(166.132409, 26.197452)"><g><path d="M 0.59375 0 L 0.59375 -0.15625 L 0.796875 -0.15625 C 1.640625 -0.15625 2.0625 -0.523438 2.0625 -1.265625 L 2.0625 -9.875 C 2.0625 -10.570312 1.640625 -10.921875 0.796875 -10.921875 L 0.59375 -10.921875 L 0.59375 -11.078125 L 5.34375 -11.078125 C 6.9375 -11.078125 8.175781 -10.59375 9.0625 -9.625 C 9.945312 -8.664062 10.390625 -7.304688 10.390625 -5.546875 C 10.390625 -4.410156 10.203125 -3.425781 9.828125 -2.59375 C 9.453125 -1.769531 8.890625 -1.128906 8.140625 -0.671875 C 7.390625 -0.222656 6.457031 0 5.34375 0 Z M 3.625 -0.15625 L 4.984375 -0.15625 C 6.273438 -0.15625 7.210938 -0.582031 7.796875 -1.4375 C 8.378906 -2.289062 8.671875 -3.660156 8.671875 -5.546875 C 8.671875 -7.429688 8.378906 -8.796875 7.796875 -9.640625 C 7.210938 -10.492188 6.28125 -10.921875 5 -10.921875 L 3.625 -10.921875 Z M 3.625 -0.15625 "/></g></g></g><g fill="#2b2b2b" fill-opacity="1"><g transform="translate(177.410228, 26.197452)"><g><path d="M 0.359375 0 L 0.359375 -0.15625 L 0.5625 -0.15625 C 1.007812 -0.15625 1.332031 -0.25 1.53125 -0.4375 C 1.726562 -0.625 1.828125 -0.925781 1.828125 -1.34375 L 1.828125 -6.953125 C 1.828125 -7.390625 1.726562 -7.695312 1.53125 -7.875 C 1.332031 -8.0625 1.007812 -8.15625 0.5625 -8.15625 L 0.515625 -8.15625 L 0.515625 -8.3125 L 3.28125 -8.3125 L 3.28125 -6.765625 L 3.3125 -6.765625 C 3.375 -7.035156 3.476562 -7.296875 3.625 -7.546875 C 3.769531 -7.804688 3.988281 -8.023438 4.28125 -8.203125 C 4.570312 -8.378906 4.972656 -8.46875 5.484375 -8.46875 C 5.984375 -8.46875 6.375 -8.363281 6.65625 -8.15625 C 6.9375 -7.957031 7.078125 -7.679688 7.078125 -7.328125 C 7.078125 -7.015625 6.960938 -6.753906 6.734375 -6.546875 C 6.515625 -6.335938 6.144531 -6.234375 5.625 -6.234375 C 5.625 -6.878906 5.515625 -7.320312 5.296875 -7.5625 C 5.085938 -7.800781 4.847656 -7.921875 4.578125 -7.921875 C 4.273438 -7.921875 4.035156 -7.816406 3.859375 -7.609375 C 3.679688 -7.398438 3.550781 -7.125 3.46875 -6.78125 C 3.382812 -6.445312 3.332031 -6.101562 3.3125 -5.75 C 3.300781 -5.394531 3.296875 -5.066406 3.296875 -4.765625 L 3.296875 -1.421875 C 3.296875 -0.972656 3.390625 -0.648438 3.578125 -0.453125 C 3.773438 -0.253906 4.101562 -0.15625 4.5625 -0.15625 L 4.765625 -0.15625 L 4.765625 0 Z M 0.359375 0 "/></g></g></g><g fill="#2b2b2b" fill-opacity="1"><g transform="translate(184.716767, 26.197452)"><g><path d="M 4.53125 0.15625 C 3.375 0.15625 2.472656 -0.210938 1.828125 -0.953125 C 1.179688 -1.703125 0.859375 -2.75 0.859375 -4.09375 C 0.859375 -5.539062 1.15625 -6.628906 1.75 -7.359375 C 2.34375 -8.097656 3.191406 -8.46875 4.296875 -8.46875 C 5.296875 -8.46875 6.082031 -8.15625 6.65625 -7.53125 C 7.238281 -6.914062 7.53125 -5.992188 7.53125 -4.765625 L 7.53125 -4.390625 L 2.359375 -4.390625 C 2.367188 -2.804688 2.539062 -1.675781 2.875 -1 C 3.207031 -0.332031 3.773438 0 4.578125 0 C 5.160156 0 5.648438 -0.160156 6.046875 -0.484375 C 6.441406 -0.804688 6.695312 -1.28125 6.8125 -1.90625 C 6.9375 -1.882812 7.03125 -1.820312 7.09375 -1.71875 C 7.15625 -1.613281 7.1875 -1.503906 7.1875 -1.390625 C 7.1875 -1.191406 7.085938 -0.96875 6.890625 -0.71875 C 6.691406 -0.476562 6.398438 -0.269531 6.015625 -0.09375 C 5.628906 0.0703125 5.132812 0.15625 4.53125 0.15625 Z M 2.359375 -4.546875 L 5.953125 -4.546875 C 5.953125 -5.898438 5.820312 -6.863281 5.5625 -7.4375 C 5.3125 -8.019531 4.878906 -8.3125 4.265625 -8.3125 C 3.640625 -8.3125 3.175781 -8.019531 2.875 -7.4375 C 2.582031 -6.863281 2.410156 -5.898438 2.359375 -4.546875 Z M 2.359375 -4.546875 "/></g></g></g><g fill="#2b2b2b" fill-opacity="1"><g transform="translate(193.016126, 26.197452)"><g><path d="M 3.328125 0.15625 C 2.546875 0.15625 1.910156 0.015625 1.421875 -0.265625 C 0.941406 -0.546875 0.703125 -0.953125 0.703125 -1.484375 C 0.703125 -1.765625 0.753906 -1.984375 0.859375 -2.140625 C 0.972656 -2.296875 1.101562 -2.40625 1.25 -2.46875 C 1.40625 -2.53125 1.546875 -2.5625 1.671875 -2.5625 C 1.671875 -1.71875 1.789062 -1.078125 2.03125 -0.640625 C 2.28125 -0.210938 2.71875 0 3.34375 0 C 3.894531 0 4.332031 -0.140625 4.65625 -0.421875 C 4.976562 -0.710938 5.140625 -1.132812 5.140625 -1.6875 C 5.140625 -2.050781 5.078125 -2.335938 4.953125 -2.546875 C 4.828125 -2.765625 4.617188 -2.953125 4.328125 -3.109375 C 4.046875 -3.273438 3.65625 -3.46875 3.15625 -3.6875 C 2.5625 -3.945312 2.09375 -4.195312 1.75 -4.4375 C 1.40625 -4.6875 1.160156 -4.953125 1.015625 -5.234375 C 0.878906 -5.523438 0.8125 -5.867188 0.8125 -6.265625 C 0.8125 -6.972656 1.054688 -7.515625 1.546875 -7.890625 C 2.046875 -8.265625 2.734375 -8.453125 3.609375 -8.453125 C 4.359375 -8.453125 4.941406 -8.3125 5.359375 -8.03125 C 5.773438 -7.75 5.984375 -7.414062 5.984375 -7.03125 C 5.984375 -6.75 5.882812 -6.519531 5.6875 -6.34375 C 5.5 -6.175781 5.226562 -6.09375 4.875 -6.09375 C 4.875 -6.894531 4.765625 -7.460938 4.546875 -7.796875 C 4.328125 -8.128906 3.988281 -8.296875 3.53125 -8.296875 C 2.476562 -8.296875 1.953125 -7.800781 1.953125 -6.8125 C 1.953125 -6.445312 2.023438 -6.15625 2.171875 -5.9375 C 2.316406 -5.71875 2.539062 -5.53125 2.84375 -5.375 C 3.144531 -5.226562 3.523438 -5.054688 3.984375 -4.859375 C 4.578125 -4.617188 5.039062 -4.375 5.375 -4.125 C 5.71875 -3.882812 5.957031 -3.617188 6.09375 -3.328125 C 6.238281 -3.035156 6.3125 -2.6875 6.3125 -2.28125 C 6.3125 -1.476562 6.039062 -0.867188 5.5 -0.453125 C 4.957031 -0.046875 4.234375 0.15625 3.328125 0.15625 Z M 3.328125 0.15625 "/></g></g></g><g fill="#2b2b2b" fill-opacity="1"><g transform="translate(200.012406, 26.197452)"><g><path d="M 3.328125 0.15625 C 2.546875 0.15625 1.910156 0.015625 1.421875 -0.265625 C 0.941406 -0.546875 0.703125 -0.953125 0.703125 -1.484375 C 0.703125 -1.765625 0.753906 -1.984375 0.859375 -2.140625 C 0.972656 -2.296875 1.101562 -2.40625 1.25 -2.46875 C 1.40625 -2.53125 1.546875 -2.5625 1.671875 -2.5625 C 1.671875 -1.71875 1.789062 -1.078125 2.03125 -0.640625 C 2.28125 -0.210938 2.71875 0 3.34375 0 C 3.894531 0 4.332031 -0.140625 4.65625 -0.421875 C 4.976562 -0.710938 5.140625 -1.132812 5.140625 -1.6875 C 5.140625 -2.050781 5.078125 -2.335938 4.953125 -2.546875 C 4.828125 -2.765625 4.617188 -2.953125 4.328125 -3.109375 C 4.046875 -3.273438 3.65625 -3.46875 3.15625 -3.6875 C 2.5625 -3.945312 2.09375 -4.195312 1.75 -4.4375 C 1.40625 -4.6875 1.160156 -4.953125 1.015625 -5.234375 C 0.878906 -5.523438 0.8125 -5.867188 0.8125 -6.265625 C 0.8125 -6.972656 1.054688 -7.515625 1.546875 -7.890625 C 2.046875 -8.265625 2.734375 -8.453125 3.609375 -8.453125 C 4.359375 -8.453125 4.941406 -8.3125 5.359375 -8.03125 C 5.773438 -7.75 5.984375 -7.414062 5.984375 -7.03125 C 5.984375 -6.75 5.882812 -6.519531 5.6875 -6.34375 C 5.5 -6.175781 5.226562 -6.09375 4.875 -6.09375 C 4.875 -6.894531 4.765625 -7.460938 4.546875 -7.796875 C 4.328125 -8.128906 3.988281 -8.296875 3.53125 -8.296875 C 2.476562 -8.296875 1.953125 -7.800781 1.953125 -6.8125 C 1.953125 -6.445312 2.023438 -6.15625 2.171875 -5.9375 C 2.316406 -5.71875 2.539062 -5.53125 2.84375 -5.375 C 3.144531 -5.226562 3.523438 -5.054688 3.984375 -4.859375 C 4.578125 -4.617188 5.039062 -4.375 5.375 -4.125 C 5.71875 -3.882812 5.957031 -3.617188 6.09375 -3.328125 C 6.238281 -3.035156 6.3125 -2.6875 6.3125 -2.28125 C 6.3125 -1.476562 6.039062 -0.867188 5.5 -0.453125 C 4.957031 -0.046875 4.234375 0.15625 3.328125 0.15625 Z M 3.328125 0.15625 "/></g></g></g><g fill="#2b2b2b" fill-opacity="1"><g transform="translate(207.008686, 26.197452)"><g><path d="M 4.421875 0.15625 C 3.710938 0.15625 3.085938 0.015625 2.546875 -0.265625 C 2.015625 -0.554688 1.597656 -1.019531 1.296875 -1.65625 C 1.003906 -2.289062 0.859375 -3.132812 0.859375 -4.1875 C 0.859375 -5.25 1.007812 -6.09375 1.3125 -6.71875 C 1.613281 -7.351562 2.023438 -7.800781 2.546875 -8.0625 C 3.066406 -8.332031 3.648438 -8.46875 4.296875 -8.46875 C 4.734375 -8.46875 5.160156 -8.410156 5.578125 -8.296875 C 5.992188 -8.179688 6.335938 -8.003906 6.609375 -7.765625 C 6.878906 -7.535156 7.015625 -7.234375 7.015625 -6.859375 C 7.015625 -6.515625 6.894531 -6.269531 6.65625 -6.125 C 6.414062 -5.976562 6.070312 -5.90625 5.625 -5.90625 C 5.625 -6.726562 5.535156 -7.332031 5.359375 -7.71875 C 5.179688 -8.113281 4.816406 -8.3125 4.265625 -8.3125 C 3.878906 -8.3125 3.546875 -8.195312 3.265625 -7.96875 C 2.984375 -7.738281 2.757812 -7.320312 2.59375 -6.71875 C 2.4375 -6.125 2.359375 -5.273438 2.359375 -4.171875 C 2.359375 -3.148438 2.4375 -2.332031 2.59375 -1.71875 C 2.75 -1.113281 2.992188 -0.675781 3.328125 -0.40625 C 3.671875 -0.132812 4.113281 0 4.65625 0 C 5.175781 0 5.613281 -0.132812 5.96875 -0.40625 C 6.320312 -0.6875 6.585938 -1.195312 6.765625 -1.9375 C 6.984375 -1.882812 7.09375 -1.71875 7.09375 -1.4375 C 7.09375 -1.195312 6.992188 -0.953125 6.796875 -0.703125 C 6.597656 -0.460938 6.300781 -0.257812 5.90625 -0.09375 C 5.507812 0.0703125 5.015625 0.15625 4.421875 0.15625 Z M 4.421875 0.15625 "/></g></g></g><g fill="#2b2b2b" fill-opacity="1"><g transform="translate(214.640986, 26.197452)"><g><path d="M 4.453125 0.15625 C 3.335938 0.15625 2.457031 -0.195312 1.8125 -0.90625 C 1.175781 -1.625 0.859375 -2.710938 0.859375 -4.171875 C 0.859375 -5.617188 1.164062 -6.695312 1.78125 -7.40625 C 2.394531 -8.113281 3.300781 -8.46875 4.5 -8.46875 C 5.613281 -8.46875 6.488281 -8.113281 7.125 -7.40625 C 7.769531 -6.695312 8.09375 -5.617188 8.09375 -4.171875 C 8.09375 -2.710938 7.78125 -1.625 7.15625 -0.90625 C 6.539062 -0.195312 5.640625 0.15625 4.453125 0.15625 Z M 4.484375 0 C 5.234375 0 5.769531 -0.316406 6.09375 -0.953125 C 6.425781 -1.597656 6.59375 -2.671875 6.59375 -4.171875 C 6.59375 -5.660156 6.425781 -6.722656 6.09375 -7.359375 C 5.769531 -7.992188 5.226562 -8.3125 4.46875 -8.3125 C 3.707031 -8.3125 3.164062 -7.992188 2.84375 -7.359375 C 2.519531 -6.722656 2.359375 -5.660156 2.359375 -4.171875 C 2.359375 -2.671875 2.519531 -1.597656 2.84375 -0.953125 C 3.164062 -0.316406 3.710938 0 4.484375 0 Z M 4.484375 0 "/></g></g></g><g fill="#2b2b2b" fill-opacity="1"><g transform="translate(223.591879, 26.197452)"><g><path d="M 3.96875 0.15625 C 2.957031 0.15625 2.1875 -0.207031 1.65625 -0.9375 C 1.125 -1.675781 0.859375 -2.753906 0.859375 -4.171875 C 0.859375 -7.035156 1.882812 -8.46875 3.9375 -8.46875 C 4.644531 -8.46875 5.191406 -8.28125 5.578125 -7.90625 C 5.972656 -7.53125 6.242188 -6.945312 6.390625 -6.15625 L 6.421875 -6.15625 C 6.398438 -6.71875 6.390625 -7.253906 6.390625 -7.765625 C 6.390625 -8.273438 6.390625 -8.664062 6.390625 -8.9375 L 6.390625 -10.421875 C 6.390625 -10.859375 6.289062 -11.171875 6.09375 -11.359375 C 5.894531 -11.546875 5.570312 -11.640625 5.125 -11.640625 L 5.078125 -11.640625 L 5.078125 -11.796875 L 7.84375 -11.796875 L 7.84375 -1.34375 C 7.84375 -0.925781 7.941406 -0.625 8.140625 -0.4375 C 8.335938 -0.25 8.664062 -0.15625 9.125 -0.15625 L 9.25 -0.15625 L 9.25 0 L 6.40625 0 L 6.40625 -2.1875 L 6.375 -2.1875 C 6.238281 -1.394531 5.972656 -0.804688 5.578125 -0.421875 C 5.179688 -0.0351562 4.644531 0.15625 3.96875 0.15625 Z M 4.234375 -0.078125 C 4.972656 -0.078125 5.515625 -0.410156 5.859375 -1.078125 C 6.210938 -1.753906 6.390625 -2.785156 6.390625 -4.171875 C 6.390625 -5.515625 6.222656 -6.523438 5.890625 -7.203125 C 5.554688 -7.890625 5.007812 -8.234375 4.25 -8.234375 C 3.570312 -8.234375 3.085938 -7.921875 2.796875 -7.296875 C 2.503906 -6.679688 2.359375 -5.644531 2.359375 -4.1875 C 2.359375 -2.707031 2.503906 -1.648438 2.796875 -1.015625 C 3.085938 -0.390625 3.566406 -0.078125 4.234375 -0.078125 Z M 4.234375 -0.078125 "/></g></g></g><g fill="#2b2b2b" fill-opacity="1"><g transform="translate(233.11675, 26.197452)"><g><path d="M 4.53125 0.15625 C 3.375 0.15625 2.472656 -0.210938 1.828125 -0.953125 C 1.179688 -1.703125 0.859375 -2.75 0.859375 -4.09375 C 0.859375 -5.539062 1.15625 -6.628906 1.75 -7.359375 C 2.34375 -8.097656 3.191406 -8.46875 4.296875 -8.46875 C 5.296875 -8.46875 6.082031 -8.15625 6.65625 -7.53125 C 7.238281 -6.914062 7.53125 -5.992188 7.53125 -4.765625 L 7.53125 -4.390625 L 2.359375 -4.390625 C 2.367188 -2.804688 2.539062 -1.675781 2.875 -1 C 3.207031 -0.332031 3.773438 0 4.578125 0 C 5.160156 0 5.648438 -0.160156 6.046875 -0.484375 C 6.441406 -0.804688 6.695312 -1.28125 6.8125 -1.90625 C 6.9375 -1.882812 7.03125 -1.820312 7.09375 -1.71875 C 7.15625 -1.613281 7.1875 -1.503906 7.1875 -1.390625 C 7.1875 -1.191406 7.085938 -0.96875 6.890625 -0.71875 C 6.691406 -0.476562 6.398438 -0.269531 6.015625 -0.09375 C 5.628906 0.0703125 5.132812 0.15625 4.53125 0.15625 Z M 2.359375 -4.546875 L 5.953125 -4.546875 C 5.953125 -5.898438 5.820312 -6.863281 5.5625 -7.4375 C 5.3125 -8.019531 4.878906 -8.3125 4.265625 -8.3125 C 3.640625 -8.3125 3.175781 -8.019531 2.875 -7.4375 C 2.582031 -6.863281 2.410156 -5.898438 2.359375 -4.546875 Z M 2.359375 -4.546875 "/></g></g></g><g fill="#2b2b2b" fill-opacity="1"><g transform="translate(241.416109, 26.197452)"><g><path d="M 3.359375 -3.125 L 3.140625 -5.21875 C 3.921875 -5.289062 4.488281 -5.554688 4.84375 -6.015625 C 5.207031 -6.472656 5.390625 -7.222656 5.390625 -8.265625 C 5.390625 -9.210938 5.253906 -9.914062 4.984375 -10.375 C 4.710938 -10.84375 4.265625 -11.078125 3.640625 -11.078125 C 3.078125 -11.078125 2.65625 -10.875 2.375 -10.46875 C 2.09375 -10.0625 1.953125 -9.398438 1.953125 -8.484375 C 1.578125 -8.484375 1.269531 -8.570312 1.03125 -8.75 C 0.789062 -8.9375 0.671875 -9.207031 0.671875 -9.5625 C 0.671875 -10.03125 0.921875 -10.425781 1.421875 -10.75 C 1.929688 -11.070312 2.640625 -11.234375 3.546875 -11.234375 C 4.617188 -11.234375 5.457031 -10.988281 6.0625 -10.5 C 6.664062 -10.019531 6.96875 -9.316406 6.96875 -8.390625 C 6.96875 -7.585938 6.710938 -6.914062 6.203125 -6.375 C 5.691406 -5.84375 4.898438 -5.445312 3.828125 -5.1875 L 3.59375 -3.125 Z M 3.453125 0.109375 C 2.898438 0.109375 2.625 -0.242188 2.625 -0.953125 C 2.625 -1.648438 2.898438 -2 3.453125 -2 C 4.015625 -2 4.296875 -1.648438 4.296875 -0.953125 C 4.296875 -0.242188 4.015625 0.109375 3.453125 0.109375 Z M 3.453125 0.109375 "/></g></g></g></svg>