<svg xmlns="http://www.w3.org/2000/svg" xmlns:xlink="http://www.w3.org/1999/xlink" width="538" zoomAndPan="magnify" viewBox="0 0 403.5 70.499998" height="94" preserveAspectRatio="xMidYMid meet" version="1.0"><defs><g/><clipPath id="fc49272149"><path d="M 0.394531 6 L 61 6 L 61 45 L 0.394531 45 Z M 0.394531 6 " clip-rule="nonzero"/></clipPath><clipPath id="40628de58b"><rect x="0" width="346" y="0" height="60"/></clipPath></defs><g transform="matrix(1, 0, 0, 1, 37, 5)"><g clip-path="url(#40628de58b)"><g clip-path="url(#fc49272149)"><g fill="#2b2b2b" fill-opacity="1"><g transform="translate(0.655622, 42.322709)"><g><path d="M 5.78125 2.203125 C 4.675781 2.203125 3.726562 1.992188 2.9375 1.578125 C 2.144531 1.160156 1.53125 0.570312 1.09375 -0.1875 C 0.65625 -0.945312 0.398438 -1.828125 0.328125 -2.828125 C 0.328125 -2.828125 0.367188 -2.847656 0.453125 -2.890625 C 0.535156 -2.941406 0.613281 -2.96875 0.6875 -2.96875 C 0.769531 -2.96875 0.816406 -2.925781 0.828125 -2.84375 C 1.003906 -1.8125 1.300781 -0.972656 1.71875 -0.328125 C 2.132812 0.316406 2.644531 0.789062 3.25 1.09375 C 3.851562 1.394531 4.515625 1.546875 5.234375 1.546875 C 5.296875 1.546875 5.359375 1.546875 5.421875 1.546875 C 5.492188 1.546875 5.566406 1.546875 5.640625 1.546875 C 6.503906 1.472656 7.347656 1.25 8.171875 0.875 C 8.992188 0.507812 9.789062 0.0234375 10.5625 -0.578125 C 11.34375 -1.191406 12.09375 -1.882812 12.8125 -2.65625 C 13.53125 -3.4375 14.210938 -4.257812 14.859375 -5.125 C 15.515625 -6 16.132812 -6.878906 16.71875 -7.765625 C 17.300781 -8.660156 17.84375 -9.535156 18.34375 -10.390625 C 18.851562 -11.242188 19.316406 -12.035156 19.734375 -12.765625 C 20.148438 -13.492188 20.519531 -14.132812 20.84375 -14.6875 L 22.703125 -17.828125 C 22.328125 -17.929688 21.945312 -18.015625 21.5625 -18.078125 C 21.175781 -18.148438 20.789062 -18.1875 20.40625 -18.1875 C 19.863281 -18.1875 19.367188 -18.128906 18.921875 -18.015625 C 18.472656 -17.910156 18.085938 -17.785156 17.765625 -17.640625 C 17.453125 -17.503906 17.210938 -17.378906 17.046875 -17.265625 C 16.878906 -17.148438 16.796875 -17.09375 16.796875 -17.09375 C 16.734375 -17.039062 16.671875 -17.003906 16.609375 -16.984375 C 16.546875 -16.972656 16.488281 -16.96875 16.4375 -16.96875 C 16.320312 -16.96875 16.265625 -17.003906 16.265625 -17.078125 C 16.265625 -17.109375 16.285156 -17.144531 16.328125 -17.1875 C 17.015625 -17.78125 17.734375 -18.191406 18.484375 -18.421875 C 19.234375 -18.648438 19.96875 -18.765625 20.6875 -18.765625 C 21.113281 -18.765625 21.523438 -18.734375 21.921875 -18.671875 C 22.328125 -18.617188 22.707031 -18.539062 23.0625 -18.4375 C 23.832031 -19.71875 24.597656 -20.972656 25.359375 -22.203125 C 26.117188 -23.429688 26.875 -24.609375 27.625 -25.734375 C 28.375 -26.859375 29.117188 -27.898438 29.859375 -28.859375 C 30.597656 -29.828125 31.320312 -30.679688 32.03125 -31.421875 C 32.75 -32.160156 33.445312 -32.757812 34.125 -33.21875 C 33.09375 -33.425781 32.0625 -33.613281 31.03125 -33.78125 C 30.007812 -33.945312 28.988281 -34.03125 27.96875 -34.03125 C 27.113281 -34.03125 26.253906 -33.953125 25.390625 -33.796875 C 24.535156 -33.640625 23.679688 -33.375 22.828125 -33 C 21.503906 -32.40625 20.34375 -31.648438 19.34375 -30.734375 C 18.34375 -29.816406 17.53125 -28.769531 16.90625 -27.59375 C 16.28125 -26.425781 15.867188 -25.160156 15.671875 -23.796875 C 15.628906 -23.609375 15.59375 -23.515625 15.5625 -23.515625 C 15.539062 -23.515625 15.519531 -23.550781 15.5 -23.625 C 15.476562 -23.707031 15.46875 -23.800781 15.46875 -23.90625 L 15.484375 -24.09375 C 15.566406 -25 15.75 -25.894531 16.03125 -26.78125 C 16.320312 -27.664062 16.695312 -28.507812 17.15625 -29.3125 C 17.625 -30.113281 18.160156 -30.84375 18.765625 -31.5 C 19.378906 -32.15625 20.050781 -32.707031 20.78125 -33.15625 C 21.894531 -33.832031 23.097656 -34.328125 24.390625 -34.640625 C 25.679688 -34.953125 26.984375 -35.109375 28.296875 -35.109375 C 29.535156 -35.109375 30.753906 -34.984375 31.953125 -34.734375 C 33.117188 -34.492188 34.3125 -34.25 35.53125 -34 C 36.75 -33.75 37.984375 -33.515625 39.234375 -33.296875 C 40.484375 -33.085938 41.738281 -32.914062 43 -32.78125 C 44.257812 -32.65625 45.515625 -32.59375 46.765625 -32.59375 C 48.117188 -32.59375 49.453125 -32.6875 50.765625 -32.875 C 52.085938 -33.070312 53.378906 -33.390625 54.640625 -33.828125 C 55.898438 -34.273438 57.117188 -34.875 58.296875 -35.625 C 58.421875 -35.695312 58.554688 -35.753906 58.703125 -35.796875 C 58.847656 -35.835938 58.976562 -35.859375 59.09375 -35.859375 C 59.300781 -35.859375 59.40625 -35.800781 59.40625 -35.6875 C 59.40625 -35.644531 59.375 -35.585938 59.3125 -35.515625 C 59.25 -35.441406 59.140625 -35.359375 58.984375 -35.265625 C 57.640625 -34.429688 56.21875 -33.757812 54.71875 -33.25 C 53.21875 -32.738281 51.675781 -32.375 50.09375 -32.15625 C 48.507812 -31.9375 46.910156 -31.828125 45.296875 -31.828125 C 43.890625 -31.828125 42.484375 -31.898438 41.078125 -32.046875 C 39.679688 -32.203125 38.304688 -32.398438 36.953125 -32.640625 L 36.90625 -32.65625 C 36.144531 -32.3125 35.375 -31.800781 34.59375 -31.125 C 33.8125 -30.445312 33.019531 -29.640625 32.21875 -28.703125 C 31.414062 -27.765625 30.601562 -26.722656 29.78125 -25.578125 C 28.96875 -24.429688 28.144531 -23.207031 27.3125 -21.90625 C 26.488281 -20.601562 25.65625 -19.257812 24.8125 -17.875 C 25.3125 -17.695312 25.8125 -17.519531 26.3125 -17.34375 C 26.820312 -17.175781 27.359375 -17.054688 27.921875 -16.984375 C 28.429688 -16.910156 28.882812 -16.875 29.28125 -16.875 C 29.726562 -16.875 30.125 -16.910156 30.46875 -16.984375 C 30.820312 -17.054688 31.15625 -17.148438 31.46875 -17.265625 C 31.78125 -17.378906 32.09375 -17.507812 32.40625 -17.65625 C 32.71875 -17.8125 33.054688 -17.976562 33.421875 -18.15625 C 33.503906 -18.1875 33.582031 -18.203125 33.65625 -18.203125 C 33.757812 -18.203125 33.8125 -18.164062 33.8125 -18.09375 C 33.8125 -18.019531 33.75 -17.914062 33.625 -17.78125 C 33.300781 -17.414062 32.898438 -17.097656 32.421875 -16.828125 C 31.941406 -16.554688 31.410156 -16.34375 30.828125 -16.1875 C 30.253906 -16.039062 29.648438 -15.96875 29.015625 -15.96875 C 28.691406 -15.96875 28.359375 -15.988281 28.015625 -16.03125 C 27.679688 -16.082031 27.34375 -16.15625 27 -16.25 C 26.539062 -16.375 26.101562 -16.523438 25.6875 -16.703125 C 25.28125 -16.878906 24.859375 -17.054688 24.421875 -17.234375 C 24.085938 -16.691406 23.757812 -16.148438 23.4375 -15.609375 C 23.113281 -15.066406 22.78125 -14.519531 22.4375 -13.96875 C 21.632812 -12.625 20.828125 -11.289062 20.015625 -9.96875 C 19.203125 -8.65625 18.378906 -7.394531 17.546875 -6.1875 C 16.710938 -4.976562 15.851562 -3.863281 14.96875 -2.84375 C 14.082031 -1.820312 13.15625 -0.929688 12.1875 -0.171875 C 11.226562 0.578125 10.21875 1.160156 9.15625 1.578125 C 8.09375 1.992188 6.96875 2.203125 5.78125 2.203125 Z M 5.78125 2.203125 "/></g></g></g></g><g fill="#2b2b2b" fill-opacity="1"><g transform="translate(31.51699, 42.322709)"><g><path d="M 2.359375 -1.328125 C 1.867188 -1.328125 1.488281 -1.421875 1.21875 -1.609375 C 0.945312 -1.796875 0.8125 -2.078125 0.8125 -2.453125 C 0.8125 -2.796875 0.914062 -3.195312 1.125 -3.65625 C 1.34375 -4.113281 1.625 -4.597656 1.96875 -5.109375 C 2.320312 -5.628906 2.707031 -6.15625 3.125 -6.6875 C 3.550781 -7.226562 3.972656 -7.742188 4.390625 -8.234375 C 4.859375 -8.773438 5.296875 -9.289062 5.703125 -9.78125 C 6.117188 -10.269531 6.457031 -10.65625 6.71875 -10.9375 C 6.488281 -10.851562 6.207031 -10.710938 5.875 -10.515625 C 5.550781 -10.328125 5.195312 -10.125 4.8125 -9.90625 C 4.4375 -9.6875 4.050781 -9.484375 3.65625 -9.296875 C 3.269531 -9.109375 2.894531 -8.972656 2.53125 -8.890625 C 2.289062 -8.628906 2.0625 -8.378906 1.84375 -8.140625 C 1.625 -7.898438 1.375 -7.644531 1.09375 -7.375 C 0.820312 -7.113281 0.488281 -6.804688 0.09375 -6.453125 C 0.0703125 -6.429688 0.046875 -6.421875 0.015625 -6.421875 C -0.00390625 -6.421875 -0.0234375 -6.429688 -0.046875 -6.453125 C -0.078125 -6.484375 -0.09375 -6.515625 -0.09375 -6.546875 C -0.09375 -6.578125 -0.078125 -6.601562 -0.046875 -6.625 C 0.179688 -6.832031 0.378906 -7.015625 0.546875 -7.171875 C 0.722656 -7.335938 0.890625 -7.492188 1.046875 -7.640625 C 1.203125 -7.796875 1.367188 -7.96875 1.546875 -8.15625 C 1.722656 -8.34375 1.925781 -8.5625 2.15625 -8.8125 L 1.859375 -8.8125 L 1.859375 -8.828125 C 1.492188 -8.859375 1.226562 -8.957031 1.0625 -9.125 C 0.90625 -9.300781 0.828125 -9.519531 0.828125 -9.78125 C 0.828125 -10.039062 0.894531 -10.328125 1.03125 -10.640625 C 1.175781 -10.953125 1.375 -11.265625 1.625 -11.578125 C 1.875 -11.890625 2.160156 -12.171875 2.484375 -12.421875 C 2.804688 -12.679688 3.144531 -12.878906 3.5 -13.015625 C 3.726562 -13.097656 3.957031 -13.140625 4.1875 -13.140625 C 4.4375 -13.140625 4.644531 -13.078125 4.8125 -12.953125 C 4.976562 -12.835938 5.0625 -12.648438 5.0625 -12.390625 C 5.0625 -12.097656 4.914062 -11.710938 4.625 -11.234375 C 4.34375 -10.765625 3.835938 -10.191406 3.109375 -9.515625 C 3.484375 -9.648438 3.875 -9.820312 4.28125 -10.03125 C 4.6875 -10.238281 5.082031 -10.445312 5.46875 -10.65625 C 5.851562 -10.863281 6.207031 -11.039062 6.53125 -11.1875 C 6.851562 -11.332031 7.125 -11.40625 7.34375 -11.40625 C 7.425781 -11.40625 7.5 -11.390625 7.5625 -11.359375 C 7.632812 -11.328125 7.6875 -11.273438 7.71875 -11.203125 C 7.78125 -11.109375 7.832031 -10.984375 7.875 -10.828125 C 7.925781 -10.679688 7.953125 -10.519531 7.953125 -10.34375 C 7.953125 -10.21875 7.929688 -10.085938 7.890625 -9.953125 C 7.859375 -9.828125 7.789062 -9.703125 7.6875 -9.578125 C 7.5 -9.359375 7.238281 -9.070312 6.90625 -8.71875 C 6.570312 -8.375 6.203125 -7.988281 5.796875 -7.5625 C 5.390625 -7.132812 4.984375 -6.691406 4.578125 -6.234375 C 4.171875 -5.773438 3.796875 -5.316406 3.453125 -4.859375 C 3.109375 -4.410156 2.832031 -3.988281 2.625 -3.59375 C 2.414062 -3.207031 2.3125 -2.875 2.3125 -2.59375 C 2.3125 -2.375 2.378906 -2.195312 2.515625 -2.0625 C 2.660156 -1.925781 2.890625 -1.859375 3.203125 -1.859375 C 3.535156 -1.859375 3.953125 -1.925781 4.453125 -2.0625 C 4.960938 -2.207031 5.519531 -2.398438 6.125 -2.640625 C 6.738281 -2.890625 7.363281 -3.171875 8 -3.484375 C 8.632812 -3.804688 9.265625 -4.144531 9.890625 -4.5 C 10.515625 -4.851562 11.09375 -5.207031 11.625 -5.5625 C 12.15625 -5.925781 12.609375 -6.273438 12.984375 -6.609375 C 13.066406 -6.679688 13.148438 -6.71875 13.234375 -6.71875 C 13.285156 -6.71875 13.3125 -6.695312 13.3125 -6.65625 C 13.3125 -6.632812 13.289062 -6.597656 13.25 -6.546875 C 12.976562 -6.316406 12.632812 -6.050781 12.21875 -5.75 C 11.800781 -5.445312 11.328125 -5.128906 10.796875 -4.796875 C 10.265625 -4.460938 9.703125 -4.128906 9.109375 -3.796875 C 8.515625 -3.472656 7.910156 -3.160156 7.296875 -2.859375 C 6.679688 -2.566406 6.078125 -2.300781 5.484375 -2.0625 C 4.890625 -1.832031 4.328125 -1.648438 3.796875 -1.515625 C 3.265625 -1.390625 2.785156 -1.328125 2.359375 -1.328125 Z M 2.203125 -9.296875 C 2.335938 -9.296875 2.472656 -9.3125 2.609375 -9.34375 C 3.410156 -10.09375 3.972656 -10.703125 4.296875 -11.171875 C 4.628906 -11.640625 4.796875 -11.984375 4.796875 -12.203125 C 4.796875 -12.328125 4.757812 -12.414062 4.6875 -12.46875 C 4.613281 -12.519531 4.515625 -12.546875 4.390625 -12.546875 C 4.171875 -12.546875 3.894531 -12.460938 3.5625 -12.296875 C 3.238281 -12.140625 2.90625 -11.910156 2.5625 -11.609375 C 2.226562 -11.316406 1.9375 -10.960938 1.6875 -10.546875 C 1.53125 -10.296875 1.453125 -10.078125 1.453125 -9.890625 C 1.453125 -9.703125 1.519531 -9.554688 1.65625 -9.453125 C 1.789062 -9.347656 1.972656 -9.296875 2.203125 -9.296875 Z M 2.203125 -9.296875 "/></g></g></g><g fill="#2b2b2b" fill-opacity="1"><g transform="translate(44.338159, 42.322709)"><g><path d="M 8.28125 -1.34375 C 7.65625 -1.34375 7.179688 -1.484375 6.859375 -1.765625 C 6.546875 -2.046875 6.390625 -2.445312 6.390625 -2.96875 C 6.390625 -3.320312 6.453125 -3.707031 6.578125 -4.125 C 6.703125 -4.539062 6.867188 -4.976562 7.078125 -5.4375 C 7.296875 -5.90625 7.535156 -6.378906 7.796875 -6.859375 C 8.066406 -7.335938 8.34375 -7.800781 8.625 -8.25 C 8.164062 -7.757812 7.679688 -7.25 7.171875 -6.71875 C 6.660156 -6.195312 6.132812 -5.695312 5.59375 -5.21875 C 5.050781 -4.738281 4.503906 -4.304688 3.953125 -3.921875 C 3.398438 -3.535156 2.863281 -3.226562 2.34375 -3 C 1.820312 -2.769531 1.328125 -2.65625 0.859375 -2.65625 C 0.515625 -2.65625 0.195312 -2.726562 -0.09375 -2.875 C -0.476562 -3.050781 -0.757812 -3.273438 -0.9375 -3.546875 C -1.113281 -3.816406 -1.203125 -4.128906 -1.203125 -4.484375 C -1.203125 -4.910156 -1.085938 -5.382812 -0.859375 -5.90625 C -0.640625 -6.425781 -0.351562 -6.972656 0 -7.546875 C 0.28125 -7.992188 0.625 -8.453125 1.03125 -8.921875 C 1.445312 -9.398438 1.929688 -9.859375 2.484375 -10.296875 C 3.046875 -10.734375 3.679688 -11.113281 4.390625 -11.4375 C 4.785156 -11.625 5.179688 -11.757812 5.578125 -11.84375 C 5.984375 -11.9375 6.367188 -11.984375 6.734375 -11.984375 C 7.210938 -11.984375 7.648438 -11.910156 8.046875 -11.765625 C 8.441406 -11.617188 8.765625 -11.410156 9.015625 -11.140625 C 9.273438 -10.867188 9.429688 -10.546875 9.484375 -10.171875 C 9.703125 -10.421875 9.898438 -10.644531 10.078125 -10.84375 C 10.253906 -11.039062 10.410156 -11.210938 10.546875 -11.359375 C 10.597656 -11.398438 10.660156 -11.421875 10.734375 -11.421875 C 10.867188 -11.421875 11.007812 -11.351562 11.15625 -11.21875 C 11.3125 -11.09375 11.441406 -10.925781 11.546875 -10.71875 C 11.660156 -10.519531 11.71875 -10.3125 11.71875 -10.09375 C 11.71875 -9.925781 11.675781 -9.765625 11.59375 -9.609375 C 11.394531 -9.304688 11.140625 -8.9375 10.828125 -8.5 C 10.523438 -8.070312 10.207031 -7.613281 9.875 -7.125 C 9.539062 -6.632812 9.222656 -6.140625 8.921875 -5.640625 C 8.617188 -5.140625 8.375 -4.65625 8.1875 -4.1875 C 8 -3.726562 7.90625 -3.304688 7.90625 -2.921875 C 7.90625 -2.648438 7.984375 -2.40625 8.140625 -2.1875 C 8.304688 -1.96875 8.59375 -1.859375 9 -1.859375 C 9.34375 -1.859375 9.75 -1.925781 10.21875 -2.0625 C 10.6875 -2.207031 11.191406 -2.40625 11.734375 -2.65625 C 12.273438 -2.90625 12.828125 -3.1875 13.390625 -3.5 C 13.960938 -3.820312 14.515625 -4.160156 15.046875 -4.515625 C 15.578125 -4.878906 16.066406 -5.238281 16.515625 -5.59375 C 16.960938 -5.957031 17.335938 -6.300781 17.640625 -6.625 C 17.710938 -6.695312 17.785156 -6.734375 17.859375 -6.734375 C 17.921875 -6.734375 17.953125 -6.707031 17.953125 -6.65625 C 17.953125 -6.632812 17.9375 -6.609375 17.90625 -6.578125 C 17.664062 -6.304688 17.328125 -5.988281 16.890625 -5.625 C 16.460938 -5.257812 15.96875 -4.878906 15.40625 -4.484375 C 14.851562 -4.097656 14.265625 -3.71875 13.640625 -3.34375 C 13.023438 -2.96875 12.398438 -2.628906 11.765625 -2.328125 C 11.128906 -2.023438 10.507812 -1.785156 9.90625 -1.609375 C 9.3125 -1.429688 8.769531 -1.34375 8.28125 -1.34375 Z M 1.140625 -3.34375 C 1.367188 -3.34375 1.640625 -3.40625 1.953125 -3.53125 C 2.273438 -3.65625 2.617188 -3.820312 2.984375 -4.03125 C 3.347656 -4.238281 3.707031 -4.46875 4.0625 -4.71875 C 4.425781 -4.976562 4.765625 -5.234375 5.078125 -5.484375 C 5.472656 -5.804688 5.890625 -6.195312 6.328125 -6.65625 C 6.773438 -7.113281 7.222656 -7.59375 7.671875 -8.09375 C 8.117188 -8.59375 8.539062 -9.078125 8.9375 -9.546875 C 8.9375 -10.078125 8.804688 -10.457031 8.546875 -10.6875 C 8.285156 -10.914062 7.957031 -11.03125 7.5625 -11.03125 C 7.164062 -11.03125 6.742188 -10.941406 6.296875 -10.765625 C 5.847656 -10.585938 5.425781 -10.363281 5.03125 -10.09375 C 4.75 -9.894531 4.421875 -9.628906 4.046875 -9.296875 C 3.679688 -8.972656 3.304688 -8.59375 2.921875 -8.15625 C 2.535156 -7.71875 2.164062 -7.25 1.8125 -6.75 C 1.46875 -6.25 1.175781 -5.734375 0.9375 -5.203125 C 0.695312 -4.640625 0.578125 -4.210938 0.578125 -3.921875 C 0.578125 -3.722656 0.625 -3.578125 0.71875 -3.484375 C 0.820312 -3.390625 0.960938 -3.34375 1.140625 -3.34375 Z M 1.140625 -3.34375 "/></g></g></g><g fill="#2b2b2b" fill-opacity="1"><g transform="translate(61.763726, 42.322709)"><g><path d="M -22.296875 15.8125 C -23.253906 15.8125 -24.140625 15.703125 -24.953125 15.484375 C -25.773438 15.273438 -26.503906 14.941406 -27.140625 14.484375 C -27.273438 14.390625 -27.429688 14.242188 -27.609375 14.046875 C -27.785156 13.859375 -27.957031 13.625 -28.125 13.34375 C -28.300781 13.070312 -28.445312 12.757812 -28.5625 12.40625 C -28.675781 12.0625 -28.734375 11.691406 -28.734375 11.296875 C -28.734375 10.910156 -28.660156 10.503906 -28.515625 10.078125 C -28.378906 9.648438 -28.140625 9.207031 -27.796875 8.75 C -27.453125 8.300781 -26.984375 7.84375 -26.390625 7.375 C -25.804688 6.90625 -25.078125 6.4375 -24.203125 5.96875 C -23.328125 5.507812 -22.28125 5.054688 -21.0625 4.609375 C -20.09375 4.242188 -19.019531 3.921875 -17.84375 3.640625 C -16.664062 3.359375 -15.410156 3.097656 -14.078125 2.859375 C -12.753906 2.617188 -11.378906 2.382812 -9.953125 2.15625 C -8.523438 1.9375 -7.070312 1.710938 -5.59375 1.484375 C -4.125 1.253906 -2.648438 1.003906 -1.171875 0.734375 C 0.296875 0.472656 1.734375 0.175781 3.140625 -0.15625 C 4.128906 -1.289062 5.015625 -2.378906 5.796875 -3.421875 C 6.585938 -4.460938 7.273438 -5.425781 7.859375 -6.3125 C 8.453125 -7.195312 8.941406 -7.960938 9.328125 -8.609375 C 8.941406 -8.234375 8.515625 -7.828125 8.046875 -7.390625 C 7.585938 -6.953125 7.101562 -6.5 6.59375 -6.03125 C 6.082031 -5.570312 5.5625 -5.132812 5.03125 -4.71875 C 4.5 -4.300781 3.972656 -3.925781 3.453125 -3.59375 C 2.929688 -3.257812 2.429688 -2.992188 1.953125 -2.796875 C 1.472656 -2.609375 1.023438 -2.515625 0.609375 -2.515625 C 0.515625 -2.515625 0.421875 -2.519531 0.328125 -2.53125 C 0.234375 -2.539062 0.140625 -2.5625 0.046875 -2.59375 C -0.835938 -2.84375 -1.28125 -3.445312 -1.28125 -4.40625 C -1.28125 -4.84375 -1.179688 -5.304688 -0.984375 -5.796875 C -0.796875 -6.285156 -0.535156 -6.78125 -0.203125 -7.28125 C 0.117188 -7.78125 0.476562 -8.257812 0.875 -8.71875 C 1.28125 -9.175781 1.695312 -9.585938 2.125 -9.953125 C 2.550781 -10.328125 2.960938 -10.628906 3.359375 -10.859375 C 3.890625 -11.160156 4.453125 -11.398438 5.046875 -11.578125 C 5.648438 -11.753906 6.21875 -11.84375 6.75 -11.84375 C 7.195312 -11.84375 7.601562 -11.773438 7.96875 -11.640625 C 8.34375 -11.503906 8.648438 -11.289062 8.890625 -11 C 9.140625 -10.71875 9.285156 -10.347656 9.328125 -9.890625 L 9.359375 -9.703125 C 9.554688 -9.910156 9.742188 -10.113281 9.921875 -10.3125 C 10.109375 -10.519531 10.269531 -10.695312 10.40625 -10.84375 C 10.476562 -10.925781 10.570312 -10.96875 10.6875 -10.96875 C 10.757812 -10.96875 10.832031 -10.945312 10.90625 -10.90625 C 11.0625 -10.78125 11.203125 -10.617188 11.328125 -10.421875 C 11.460938 -10.234375 11.539062 -10.066406 11.5625 -9.921875 C 11.5625 -9.742188 11.492188 -9.535156 11.359375 -9.296875 C 11.234375 -9.066406 11.101562 -8.828125 10.96875 -8.578125 C 10.894531 -8.453125 10.710938 -8.160156 10.421875 -7.703125 C 10.128906 -7.242188 9.738281 -6.660156 9.25 -5.953125 C 8.757812 -5.242188 8.171875 -4.4375 7.484375 -3.53125 C 6.804688 -2.632812 6.039062 -1.679688 5.1875 -0.671875 C 6.726562 -1.085938 8.179688 -1.566406 9.546875 -2.109375 C 10.910156 -2.660156 12.148438 -3.296875 13.265625 -4.015625 C 14.378906 -4.742188 15.320312 -5.578125 16.09375 -6.515625 C 16.132812 -6.566406 16.179688 -6.601562 16.234375 -6.625 C 16.285156 -6.644531 16.328125 -6.65625 16.359375 -6.65625 C 16.429688 -6.65625 16.46875 -6.632812 16.46875 -6.59375 C 16.46875 -6.5625 16.457031 -6.535156 16.4375 -6.515625 C 15.5 -5.421875 14.421875 -4.472656 13.203125 -3.671875 C 11.992188 -2.878906 10.675781 -2.195312 9.25 -1.625 C 7.820312 -1.0625 6.320312 -0.570312 4.75 -0.15625 C 3.90625 0.820312 2.984375 1.828125 1.984375 2.859375 C 0.992188 3.890625 -0.0664062 4.910156 -1.203125 5.921875 C -2.335938 6.941406 -3.53125 7.921875 -4.78125 8.859375 C -6.039062 9.804688 -7.359375 10.6875 -8.734375 11.5 C -10.117188 12.320312 -11.554688 13.046875 -13.046875 13.671875 C -14.535156 14.304688 -16.066406 14.8125 -17.640625 15.1875 C -18.472656 15.382812 -19.273438 15.535156 -20.046875 15.640625 C -20.828125 15.753906 -21.578125 15.8125 -22.296875 15.8125 Z M 1.1875 -3.125 C 1.3125 -3.125 1.453125 -3.144531 1.609375 -3.1875 C 1.773438 -3.238281 1.953125 -3.320312 2.140625 -3.4375 C 2.847656 -3.851562 3.46875 -4.273438 4 -4.703125 C 4.539062 -5.128906 5.03125 -5.554688 5.46875 -5.984375 C 5.914062 -6.410156 6.351562 -6.835938 6.78125 -7.265625 C 7.207031 -7.691406 7.660156 -8.101562 8.140625 -8.5 C 8.222656 -8.582031 8.320312 -8.675781 8.4375 -8.78125 C 8.550781 -8.882812 8.664062 -8.992188 8.78125 -9.109375 C 8.71875 -9.609375 8.550781 -10.015625 8.28125 -10.328125 C 8.007812 -10.640625 7.644531 -10.84375 7.1875 -10.9375 C 7.101562 -10.957031 7.007812 -10.96875 6.90625 -10.96875 C 6.550781 -10.96875 6.148438 -10.851562 5.703125 -10.625 C 5.253906 -10.394531 4.789062 -10.078125 4.3125 -9.671875 C 3.84375 -9.273438 3.382812 -8.828125 2.9375 -8.328125 C 2.5 -7.828125 2.097656 -7.304688 1.734375 -6.765625 C 1.378906 -6.234375 1.085938 -5.710938 0.859375 -5.203125 C 0.640625 -4.691406 0.515625 -4.226562 0.484375 -3.8125 C 0.484375 -3.625 0.535156 -3.460938 0.640625 -3.328125 C 0.753906 -3.191406 0.9375 -3.125 1.1875 -3.125 Z M -22.890625 15.21875 C -21.921875 15.21875 -20.957031 15.128906 -20 14.953125 C -19.050781 14.773438 -18.109375 14.523438 -17.171875 14.203125 C -16.242188 13.890625 -15.332031 13.53125 -14.4375 13.125 C -13.539062 12.726562 -12.660156 12.304688 -11.796875 11.859375 C -10.285156 11.078125 -8.847656 10.226562 -7.484375 9.3125 C -6.128906 8.394531 -4.847656 7.4375 -3.640625 6.4375 C -2.429688 5.445312 -1.296875 4.4375 -0.234375 3.40625 C 0.816406 2.375 1.796875 1.347656 2.703125 0.328125 C 1.171875 0.671875 -0.394531 0.96875 -2 1.21875 C -3.601562 1.476562 -5.21875 1.726562 -6.84375 1.96875 C -8.476562 2.21875 -10.097656 2.476562 -11.703125 2.75 C -13.304688 3.019531 -14.875 3.332031 -16.40625 3.6875 C -17.945312 4.050781 -19.425781 4.484375 -20.84375 4.984375 C -22.207031 5.460938 -23.367188 5.96875 -24.328125 6.5 C -25.285156 7.039062 -26.054688 7.582031 -26.640625 8.125 C -27.222656 8.675781 -27.644531 9.222656 -27.90625 9.765625 C -28.175781 10.316406 -28.3125 10.835938 -28.3125 11.328125 C -28.3125 11.859375 -28.179688 12.351562 -27.921875 12.8125 C -27.671875 13.28125 -27.316406 13.6875 -26.859375 14.03125 C -26.398438 14.382812 -25.875 14.660156 -25.28125 14.859375 C -24.695312 15.066406 -24.070312 15.1875 -23.40625 15.21875 Z M -22.890625 15.21875 "/></g></g></g><g fill="#2b2b2b" fill-opacity="1"><g transform="translate(77.733574, 42.322709)"><g><path d="M 2.25 -1.4375 C 2.101562 -1.4375 1.960938 -1.4375 1.828125 -1.4375 C 1.703125 -1.445312 1.570312 -1.460938 1.4375 -1.484375 C 0.769531 -1.554688 0.226562 -1.710938 -0.1875 -1.953125 C -0.601562 -2.191406 -0.90625 -2.488281 -1.09375 -2.84375 C -1.289062 -3.207031 -1.390625 -3.609375 -1.390625 -4.046875 C -1.390625 -4.566406 -1.273438 -5.117188 -1.046875 -5.703125 C -0.816406 -6.296875 -0.5 -6.882812 -0.09375 -7.46875 C 0.300781 -8.0625 0.757812 -8.625 1.28125 -9.15625 C 1.8125 -9.6875 2.375 -10.160156 2.96875 -10.578125 C 3.5625 -10.992188 4.160156 -11.320312 4.765625 -11.5625 C 5.378906 -11.800781 5.972656 -11.921875 6.546875 -11.921875 C 6.921875 -11.921875 7.269531 -11.867188 7.59375 -11.765625 C 8.03125 -11.617188 8.335938 -11.425781 8.515625 -11.1875 C 8.703125 -10.945312 8.796875 -10.675781 8.796875 -10.375 C 8.796875 -10.050781 8.707031 -9.707031 8.53125 -9.34375 C 8.351562 -8.988281 8.128906 -8.640625 7.859375 -8.296875 C 7.597656 -7.953125 7.320312 -7.640625 7.03125 -7.359375 C 6.738281 -7.078125 6.472656 -6.851562 6.234375 -6.6875 C 5.835938 -6.394531 5.390625 -6.125 4.890625 -5.875 C 4.390625 -5.625 3.882812 -5.421875 3.375 -5.265625 C 2.875 -5.117188 2.421875 -5.046875 2.015625 -5.046875 C 1.722656 -5.046875 1.460938 -5.09375 1.234375 -5.1875 C 1.015625 -5.28125 0.851562 -5.4375 0.75 -5.65625 C 0.539062 -5.300781 0.367188 -4.945312 0.234375 -4.59375 C 0.109375 -4.238281 0.046875 -3.894531 0.046875 -3.5625 C 0.046875 -2.945312 0.242188 -2.515625 0.640625 -2.265625 C 1.046875 -2.015625 1.570312 -1.890625 2.21875 -1.890625 C 2.59375 -1.890625 2.972656 -1.914062 3.359375 -1.96875 C 3.753906 -2.03125 4.117188 -2.109375 4.453125 -2.203125 C 4.796875 -2.296875 5.085938 -2.382812 5.328125 -2.46875 C 6.316406 -2.8125 7.253906 -3.21875 8.140625 -3.6875 C 9.023438 -4.15625 9.894531 -4.648438 10.75 -5.171875 C 11.613281 -5.691406 12.5 -6.195312 13.40625 -6.6875 C 13.488281 -6.726562 13.554688 -6.75 13.609375 -6.75 C 13.609375 -6.738281 13.585938 -6.71875 13.546875 -6.6875 C 12.023438 -5.59375 10.597656 -4.648438 9.265625 -3.859375 C 7.941406 -3.078125 6.695312 -2.476562 5.53125 -2.0625 C 4.363281 -1.644531 3.269531 -1.4375 2.25 -1.4375 Z M 2.03125 -5.296875 C 2.332031 -5.296875 2.679688 -5.359375 3.078125 -5.484375 C 3.484375 -5.617188 3.90625 -5.796875 4.34375 -6.015625 C 4.78125 -6.242188 5.210938 -6.503906 5.640625 -6.796875 C 6.253906 -7.234375 6.734375 -7.660156 7.078125 -8.078125 C 7.421875 -8.492188 7.664062 -8.878906 7.8125 -9.234375 C 7.957031 -9.585938 8.03125 -9.875 8.03125 -10.09375 C 8.03125 -10.3125 7.976562 -10.453125 7.875 -10.515625 C 7.769531 -10.585938 7.632812 -10.625 7.46875 -10.625 C 7.207031 -10.625 6.867188 -10.539062 6.453125 -10.375 C 6.035156 -10.21875 5.582031 -9.992188 5.09375 -9.703125 C 4.601562 -9.410156 4.109375 -9.066406 3.609375 -8.671875 C 3.109375 -8.285156 2.632812 -7.863281 2.1875 -7.40625 C 1.738281 -6.957031 1.34375 -6.492188 1 -6.015625 C 1.039062 -5.765625 1.148438 -5.582031 1.328125 -5.46875 C 1.515625 -5.351562 1.75 -5.296875 2.03125 -5.296875 Z M 2.03125 -5.296875 "/></g></g></g><g fill="#2b2b2b" fill-opacity="1"><g transform="translate(90.608652, 42.322709)"><g><path d="M -1.625 -1.984375 C -1.757812 -1.984375 -1.90625 -2.03125 -2.0625 -2.125 C -2.21875 -2.21875 -2.351562 -2.328125 -2.46875 -2.453125 C -2.59375 -2.585938 -2.65625 -2.707031 -2.65625 -2.8125 L -2.640625 -2.875 C -2.347656 -3.5625 -2.007812 -4.226562 -1.625 -4.875 C -1.238281 -5.53125 -0.828125 -6.175781 -0.390625 -6.8125 C 0.0351562 -7.445312 0.457031 -8.082031 0.875 -8.71875 C 1.300781 -9.351562 1.691406 -10 2.046875 -10.65625 C 2.398438 -11.320312 2.691406 -12.003906 2.921875 -12.703125 C 2.953125 -12.816406 3.023438 -12.875 3.140625 -12.875 C 3.253906 -12.875 3.382812 -12.828125 3.53125 -12.734375 C 3.6875 -12.640625 3.832031 -12.507812 3.96875 -12.34375 C 4.113281 -12.1875 4.234375 -12.015625 4.328125 -11.828125 C 4.421875 -11.648438 4.46875 -11.46875 4.46875 -11.28125 C 4.46875 -11.164062 4.453125 -11.070312 4.421875 -11 C 4.234375 -10.457031 4.003906 -9.929688 3.734375 -9.421875 C 3.460938 -8.910156 3.160156 -8.40625 2.828125 -7.90625 C 3.546875 -8.519531 4.300781 -9.117188 5.09375 -9.703125 C 5.894531 -10.296875 6.789062 -10.882812 7.78125 -11.46875 C 8.25 -11.738281 8.742188 -11.992188 9.265625 -12.234375 C 9.785156 -12.484375 10.296875 -12.679688 10.796875 -12.828125 C 11.296875 -12.972656 11.75 -13.046875 12.15625 -13.046875 C 12.363281 -13.046875 12.550781 -13.023438 12.71875 -12.984375 C 12.96875 -12.910156 13.160156 -12.742188 13.296875 -12.484375 C 13.429688 -12.222656 13.5 -11.957031 13.5 -11.6875 C 13.5 -11.53125 13.476562 -11.382812 13.4375 -11.25 C 13.363281 -11.050781 13.257812 -10.835938 13.125 -10.609375 C 13 -10.378906 12.816406 -10.101562 12.578125 -9.78125 C 12.335938 -9.46875 12.023438 -9.078125 11.640625 -8.609375 C 11.253906 -8.148438 10.773438 -7.582031 10.203125 -6.90625 C 9.835938 -6.476562 9.507812 -6.050781 9.21875 -5.625 C 8.925781 -5.195312 8.695312 -4.785156 8.53125 -4.390625 C 8.363281 -4.003906 8.28125 -3.65625 8.28125 -3.34375 C 8.28125 -3.019531 8.382812 -2.785156 8.59375 -2.640625 C 8.8125 -2.503906 9.109375 -2.4375 9.484375 -2.4375 C 9.867188 -2.4375 10.316406 -2.5 10.828125 -2.625 C 11.335938 -2.757812 11.875 -2.9375 12.4375 -3.15625 C 13 -3.375 13.5625 -3.617188 14.125 -3.890625 C 14.6875 -4.160156 15.21875 -4.445312 15.71875 -4.75 C 16.226562 -5.050781 16.675781 -5.347656 17.0625 -5.640625 C 17.445312 -5.929688 17.734375 -6.203125 17.921875 -6.453125 C 17.972656 -6.503906 18.035156 -6.550781 18.109375 -6.59375 C 18.191406 -6.632812 18.253906 -6.65625 18.296875 -6.65625 C 18.316406 -6.65625 18.328125 -6.644531 18.328125 -6.625 C 18.328125 -6.613281 18.3125 -6.59375 18.28125 -6.5625 C 17.59375 -5.832031 16.835938 -5.179688 16.015625 -4.609375 C 15.203125 -4.046875 14.375 -3.570312 13.53125 -3.1875 C 12.6875 -2.800781 11.867188 -2.507812 11.078125 -2.3125 C 10.296875 -2.113281 9.585938 -2.015625 8.953125 -2.015625 C 8.460938 -2.015625 8.046875 -2.070312 7.703125 -2.1875 C 7.347656 -2.3125 7.078125 -2.515625 6.890625 -2.796875 C 6.710938 -3.085938 6.625 -3.4375 6.625 -3.84375 C 6.625 -4.375 6.773438 -4.96875 7.078125 -5.625 C 7.378906 -6.289062 7.835938 -6.972656 8.453125 -7.671875 C 8.992188 -8.273438 9.484375 -8.828125 9.921875 -9.328125 C 10.367188 -9.828125 10.722656 -10.265625 10.984375 -10.640625 C 11.253906 -11.023438 11.390625 -11.34375 11.390625 -11.59375 L 11.359375 -11.734375 C 11.359375 -11.828125 11.328125 -11.90625 11.265625 -11.96875 C 11.210938 -12.039062 11.125 -12.09375 11 -12.125 L 10.796875 -12.15625 C 10.554688 -12.15625 10.253906 -12.097656 9.890625 -11.984375 C 9.535156 -11.878906 9.1875 -11.734375 8.84375 -11.546875 C 7.90625 -11.046875 7.054688 -10.53125 6.296875 -10 C 5.535156 -9.476562 4.832031 -8.925781 4.1875 -8.34375 C 3.550781 -7.769531 2.929688 -7.160156 2.328125 -6.515625 C 1.734375 -5.867188 1.128906 -5.175781 0.515625 -4.4375 C -0.0859375 -3.707031 -0.734375 -2.914062 -1.421875 -2.0625 C -1.484375 -2.007812 -1.550781 -1.984375 -1.625 -1.984375 Z M -1.625 -1.984375 "/></g></g></g><g fill="#2b2b2b" fill-opacity="1"><g transform="translate(108.54106, 42.322709)"><g/></g></g><g fill="#2b2b2b" fill-opacity="1"><g transform="translate(116.035354, 42.322709)"><g/></g></g><g fill="#2b2b2b" fill-opacity="1"><g transform="translate(123.529648, 42.322709)"><g/></g></g><g fill="#2b2b2b" fill-opacity="1"><g transform="translate(131.023942, 42.322709)"><g/></g></g><g fill="#2b2b2b" fill-opacity="1"><g transform="translate(138.518237, 42.322709)"><g/></g></g><g fill="#2b2b2b" fill-opacity="1"><g transform="translate(146.012531, 42.322709)"><g/></g></g><g fill="#2b2b2b" fill-opacity="1"><g transform="translate(153.506825, 42.322709)"><g/></g></g><g fill="#2b2b2b" fill-opacity="1"><g transform="translate(168.495414, 42.322709)"><g/></g></g><g fill="#2b2b2b" fill-opacity="1"><g transform="translate(175.991601, 42.322709)"><g><path d="M 37.9375 1.734375 C 37.601562 1.734375 37.273438 1.707031 36.953125 1.65625 C 36.640625 1.613281 36.335938 1.546875 36.046875 1.453125 C 35.265625 1.191406 34.632812 0.832031 34.15625 0.375 C 33.6875 -0.0703125 33.34375 -0.601562 33.125 -1.21875 C 32.90625 -1.832031 32.796875 -2.5 32.796875 -3.21875 C 32.796875 -4 32.898438 -4.820312 33.109375 -5.6875 C 33.316406 -6.5625 33.59375 -7.46875 33.9375 -8.40625 C 34.289062 -9.34375 34.691406 -10.285156 35.140625 -11.234375 C 35.597656 -12.179688 36.070312 -13.113281 36.5625 -14.03125 C 35.375 -14.40625 34.203125 -14.8125 33.046875 -15.25 C 31.890625 -15.6875 30.71875 -16.082031 29.53125 -16.4375 C 28.644531 -15.476562 27.765625 -14.476562 26.890625 -13.4375 C 26.015625 -12.394531 25.132812 -11.347656 24.25 -10.296875 C 23.375 -9.242188 22.484375 -8.210938 21.578125 -7.203125 C 20.679688 -6.191406 19.757812 -5.226562 18.8125 -4.3125 C 17.875 -3.40625 16.90625 -2.570312 15.90625 -1.8125 C 14.90625 -1.050781 13.863281 -0.398438 12.78125 0.140625 C 11.707031 0.679688 10.582031 1.09375 9.40625 1.375 C 9.03125 1.46875 8.648438 1.535156 8.265625 1.578125 C 7.890625 1.628906 7.515625 1.65625 7.140625 1.65625 C 6.296875 1.65625 5.488281 1.53125 4.71875 1.28125 C 3.957031 1.03125 3.273438 0.640625 2.671875 0.109375 C 2.078125 -0.410156 1.609375 -1.082031 1.265625 -1.90625 C 1.085938 -2.3125 0.957031 -2.734375 0.875 -3.171875 C 0.800781 -3.609375 0.765625 -4.050781 0.765625 -4.5 C 0.765625 -5.320312 0.890625 -6.148438 1.140625 -6.984375 C 1.390625 -7.828125 1.734375 -8.65625 2.171875 -9.46875 C 2.609375 -10.28125 3.125 -11.050781 3.71875 -11.78125 C 4.3125 -12.519531 4.953125 -13.195312 5.640625 -13.8125 C 6.335938 -14.4375 7.054688 -14.972656 7.796875 -15.421875 C 8.546875 -15.878906 9.296875 -16.234375 10.046875 -16.484375 C 10.796875 -16.742188 11.519531 -16.875 12.21875 -16.875 C 12.738281 -16.875 13.234375 -16.796875 13.703125 -16.640625 C 14.179688 -16.492188 14.625 -16.25 15.03125 -15.90625 C 16.34375 -16.582031 17.796875 -17.113281 19.390625 -17.5 C 20.992188 -17.894531 22.664062 -18.09375 24.40625 -18.09375 C 25.207031 -18.09375 26.019531 -18.046875 26.84375 -17.953125 C 27.664062 -17.859375 28.488281 -17.71875 29.3125 -17.53125 C 30.175781 -18.445312 31.097656 -19.398438 32.078125 -20.390625 C 33.066406 -21.378906 34.101562 -22.375 35.1875 -23.375 C 36.269531 -24.382812 37.390625 -25.375 38.546875 -26.34375 C 39.703125 -27.320312 40.878906 -28.257812 42.078125 -29.15625 C 43.285156 -30.050781 44.5 -30.878906 45.71875 -31.640625 C 46.945312 -32.410156 48.171875 -33.09375 49.390625 -33.6875 C 50.609375 -34.289062 51.8125 -34.78125 53 -35.15625 C 53.144531 -35.195312 53.285156 -35.21875 53.421875 -35.21875 C 53.742188 -35.21875 54.023438 -35.113281 54.265625 -34.90625 C 54.515625 -34.707031 54.640625 -34.441406 54.640625 -34.109375 C 54.640625 -33.960938 54.609375 -33.804688 54.546875 -33.640625 C 54.492188 -33.484375 54.410156 -33.320312 54.296875 -33.15625 C 53.929688 -32.644531 53.457031 -32.078125 52.875 -31.453125 C 52.300781 -30.828125 51.640625 -30.117188 50.890625 -29.328125 C 50.140625 -28.535156 49.320312 -27.648438 48.4375 -26.671875 C 47.5625 -25.691406 46.632812 -24.59375 45.65625 -23.375 C 44.6875 -22.15625 43.695312 -20.796875 42.6875 -19.296875 C 41.675781 -17.804688 40.664062 -16.15625 39.65625 -14.34375 C 40.019531 -14.21875 40.472656 -14.097656 41.015625 -13.984375 C 41.554688 -13.867188 42.148438 -13.773438 42.796875 -13.703125 C 43.453125 -13.628906 44.125 -13.59375 44.8125 -13.59375 C 45.5 -13.59375 46.175781 -13.632812 46.84375 -13.71875 C 47.507812 -13.8125 48.140625 -13.960938 48.734375 -14.171875 C 49.328125 -14.378906 49.851562 -14.660156 50.3125 -15.015625 C 50.9375 -15.515625 51.46875 -16.046875 51.90625 -16.609375 C 52.34375 -17.171875 52.675781 -17.738281 52.90625 -18.3125 C 53.132812 -18.882812 53.25 -19.425781 53.25 -19.9375 C 53.25 -20.289062 53.191406 -20.625 53.078125 -20.9375 C 52.960938 -21.25 52.773438 -21.519531 52.515625 -21.75 C 52.492188 -21.769531 52.484375 -21.789062 52.484375 -21.8125 C 52.484375 -21.851562 52.503906 -21.875 52.546875 -21.875 L 52.625 -21.859375 C 52.945312 -21.703125 53.191406 -21.441406 53.359375 -21.078125 C 53.535156 -20.710938 53.625 -20.28125 53.625 -19.78125 C 53.625 -19.332031 53.546875 -18.847656 53.390625 -18.328125 C 53.242188 -17.816406 53.015625 -17.300781 52.703125 -16.78125 C 52.398438 -16.257812 52.007812 -15.757812 51.53125 -15.28125 C 51.050781 -14.8125 50.488281 -14.390625 49.84375 -14.015625 C 49 -13.535156 48.09375 -13.195312 47.125 -13 C 46.15625 -12.800781 45.160156 -12.703125 44.140625 -12.703125 C 43.304688 -12.703125 42.46875 -12.753906 41.625 -12.859375 C 40.789062 -12.972656 39.972656 -13.117188 39.171875 -13.296875 C 38.867188 -12.691406 38.539062 -12.035156 38.1875 -11.328125 C 37.832031 -10.617188 37.484375 -9.878906 37.140625 -9.109375 C 36.796875 -8.347656 36.484375 -7.582031 36.203125 -6.8125 C 35.921875 -6.039062 35.691406 -5.285156 35.515625 -4.546875 C 35.347656 -3.816406 35.265625 -3.132812 35.265625 -2.5 C 35.265625 -1.789062 35.390625 -1.164062 35.640625 -0.625 C 35.898438 -0.0820312 36.335938 0.332031 36.953125 0.625 C 37.242188 0.757812 37.550781 0.859375 37.875 0.921875 C 38.207031 0.992188 38.550781 1.03125 38.90625 1.03125 C 39.539062 1.03125 40.203125 0.941406 40.890625 0.765625 C 41.585938 0.585938 42.296875 0.335938 43.015625 0.015625 C 43.734375 -0.296875 44.445312 -0.65625 45.15625 -1.0625 C 45.863281 -1.46875 46.539062 -1.898438 47.1875 -2.359375 C 47.84375 -2.816406 48.453125 -3.273438 49.015625 -3.734375 C 49.585938 -4.191406 50.09375 -4.628906 50.53125 -5.046875 C 50.976562 -5.472656 51.335938 -5.851562 51.609375 -6.1875 C 51.703125 -6.3125 51.789062 -6.410156 51.875 -6.484375 C 51.957031 -6.566406 52.007812 -6.609375 52.03125 -6.609375 C 52.050781 -6.609375 52.0625 -6.597656 52.0625 -6.578125 C 52.0625 -6.546875 52.039062 -6.488281 52 -6.40625 C 51.957031 -6.320312 51.882812 -6.195312 51.78125 -6.03125 C 51.59375 -5.71875 51.289062 -5.34375 50.875 -4.90625 C 50.457031 -4.476562 49.953125 -4.019531 49.359375 -3.53125 C 48.773438 -3.039062 48.128906 -2.546875 47.421875 -2.046875 C 46.710938 -1.546875 45.960938 -1.070312 45.171875 -0.625 C 44.378906 -0.175781 43.566406 0.222656 42.734375 0.578125 C 41.910156 0.941406 41.09375 1.222656 40.28125 1.421875 C 39.46875 1.628906 38.6875 1.734375 37.9375 1.734375 Z M 37.0625 -15.015625 C 37.707031 -16.148438 38.421875 -17.3125 39.203125 -18.5 C 39.984375 -19.695312 40.804688 -20.890625 41.671875 -22.078125 C 42.546875 -23.273438 43.445312 -24.445312 44.375 -25.59375 C 45.3125 -26.738281 46.253906 -27.835938 47.203125 -28.890625 C 48.160156 -29.941406 49.101562 -30.925781 50.03125 -31.84375 C 50.96875 -32.757812 51.867188 -33.582031 52.734375 -34.3125 C 51.960938 -34.101562 51.15625 -33.804688 50.3125 -33.421875 C 49.476562 -33.035156 48.625 -32.59375 47.75 -32.09375 C 46.882812 -31.59375 46.03125 -31.0625 45.1875 -30.5 C 44.34375 -29.9375 43.53125 -29.375 42.75 -28.8125 C 41.976562 -28.25 41.265625 -27.707031 40.609375 -27.1875 C 39.953125 -26.675781 39.375 -26.222656 38.875 -25.828125 C 37.84375 -25.003906 36.84375 -24.113281 35.875 -23.15625 C 34.914062 -22.195312 33.972656 -21.21875 33.046875 -20.21875 C 32.128906 -19.21875 31.21875 -18.234375 30.3125 -17.265625 C 31.09375 -17.066406 31.847656 -16.828125 32.578125 -16.546875 C 33.316406 -16.265625 34.054688 -15.988281 34.796875 -15.71875 C 35.535156 -15.445312 36.289062 -15.210938 37.0625 -15.015625 Z M 12.4375 -7.609375 C 12.757812 -7.609375 13.082031 -7.703125 13.40625 -7.890625 C 13.738281 -8.078125 14.054688 -8.332031 14.359375 -8.65625 C 14.671875 -8.976562 14.941406 -9.34375 15.171875 -9.75 C 15.410156 -10.164062 15.59375 -10.597656 15.71875 -11.046875 C 15.800781 -11.316406 15.859375 -11.578125 15.890625 -11.828125 C 15.921875 -12.085938 15.9375 -12.332031 15.9375 -12.5625 C 15.9375 -13.019531 15.875 -13.429688 15.75 -13.796875 C 15.625 -14.171875 15.457031 -14.503906 15.25 -14.796875 C 14.875 -14.597656 14.507812 -14.351562 14.15625 -14.0625 C 13.8125 -13.769531 13.488281 -13.457031 13.1875 -13.125 C 12.894531 -12.800781 12.628906 -12.488281 12.390625 -12.1875 C 12.148438 -11.882812 11.953125 -11.617188 11.796875 -11.390625 C 11.753906 -11.328125 11.6875 -11.210938 11.59375 -11.046875 C 11.5 -10.878906 11.40625 -10.675781 11.3125 -10.4375 C 11.21875 -10.207031 11.132812 -9.957031 11.0625 -9.6875 C 10.988281 -9.425781 10.953125 -9.171875 10.953125 -8.921875 C 10.953125 -8.691406 10.992188 -8.476562 11.078125 -8.28125 C 11.171875 -8.082031 11.320312 -7.921875 11.53125 -7.796875 C 11.75 -7.679688 12.039062 -7.617188 12.40625 -7.609375 Z M 7.65625 0.75 C 8.320312 0.75 9.035156 0.628906 9.796875 0.390625 C 10.554688 0.148438 11.335938 -0.21875 12.140625 -0.71875 C 13.472656 -1.53125 14.773438 -2.488281 16.046875 -3.59375 C 17.328125 -4.707031 18.617188 -5.945312 19.921875 -7.3125 C 21.234375 -8.6875 22.59375 -10.160156 24 -11.734375 C 25.414062 -13.304688 26.9375 -14.96875 28.5625 -16.71875 C 27.695312 -16.957031 26.847656 -17.140625 26.015625 -17.265625 C 25.179688 -17.398438 24.363281 -17.46875 23.5625 -17.46875 C 22.25 -17.46875 20.953125 -17.285156 19.671875 -16.921875 C 18.390625 -16.554688 17.085938 -15.96875 15.765625 -15.15625 C 16.023438 -14.800781 16.222656 -14.410156 16.359375 -13.984375 C 16.503906 -13.554688 16.578125 -13.109375 16.578125 -12.640625 C 16.578125 -12.210938 16.515625 -11.769531 16.390625 -11.3125 C 16.210938 -10.726562 15.960938 -10.179688 15.640625 -9.671875 C 15.328125 -9.171875 14.96875 -8.734375 14.5625 -8.359375 C 14.15625 -7.992188 13.734375 -7.707031 13.296875 -7.5 C 12.859375 -7.289062 12.429688 -7.1875 12.015625 -7.1875 C 11.941406 -7.1875 11.863281 -7.1875 11.78125 -7.1875 C 11.707031 -7.195312 11.632812 -7.207031 11.5625 -7.21875 C 11.039062 -7.332031 10.632812 -7.503906 10.34375 -7.734375 C 10.0625 -7.960938 9.863281 -8.222656 9.75 -8.515625 C 9.632812 -8.816406 9.578125 -9.117188 9.578125 -9.421875 C 9.578125 -9.796875 9.628906 -10.148438 9.734375 -10.484375 C 9.835938 -10.816406 9.9375 -11.070312 10.03125 -11.25 C 10.457031 -12.15625 11.054688 -12.96875 11.828125 -13.6875 C 12.597656 -14.40625 13.460938 -15.039062 14.421875 -15.59375 C 14.085938 -15.820312 13.734375 -15.988281 13.359375 -16.09375 C 12.984375 -16.195312 12.601562 -16.25 12.21875 -16.25 C 11.570312 -16.25 10.914062 -16.113281 10.25 -15.84375 C 9.582031 -15.582031 8.925781 -15.21875 8.28125 -14.75 C 7.632812 -14.289062 7.023438 -13.75 6.453125 -13.125 C 5.890625 -12.507812 5.378906 -11.84375 4.921875 -11.125 C 4.460938 -10.414062 4.082031 -9.679688 3.78125 -8.921875 C 3.476562 -8.160156 3.28125 -7.40625 3.1875 -6.65625 C 3.144531 -6.351562 3.113281 -6.0625 3.09375 -5.78125 C 3.070312 -5.5 3.0625 -5.222656 3.0625 -4.953125 C 3.0625 -3.710938 3.253906 -2.664062 3.640625 -1.8125 C 4.023438 -0.96875 4.566406 -0.332031 5.265625 0.09375 C 5.960938 0.53125 6.757812 0.75 7.65625 0.75 Z M 7.65625 0.75 "/></g></g></g><g fill="#2b2b2b" fill-opacity="1"><g transform="translate(227.772275, 42.322709)"><g><path d="M -1.625 -1.984375 C -1.757812 -1.984375 -1.90625 -2.03125 -2.0625 -2.125 C -2.21875 -2.21875 -2.351562 -2.328125 -2.46875 -2.453125 C -2.59375 -2.585938 -2.65625 -2.707031 -2.65625 -2.8125 L -2.640625 -2.875 C -2.347656 -3.5625 -2.007812 -4.226562 -1.625 -4.875 C -1.238281 -5.53125 -0.828125 -6.175781 -0.390625 -6.8125 C 0.0351562 -7.445312 0.457031 -8.082031 0.875 -8.71875 C 1.300781 -9.351562 1.691406 -10 2.046875 -10.65625 C 2.398438 -11.320312 2.691406 -12.003906 2.921875 -12.703125 C 2.953125 -12.816406 3.023438 -12.875 3.140625 -12.875 C 3.253906 -12.875 3.382812 -12.828125 3.53125 -12.734375 C 3.6875 -12.640625 3.832031 -12.507812 3.96875 -12.34375 C 4.113281 -12.1875 4.234375 -12.015625 4.328125 -11.828125 C 4.421875 -11.648438 4.46875 -11.46875 4.46875 -11.28125 C 4.46875 -11.164062 4.453125 -11.070312 4.421875 -11 C 4.234375 -10.457031 4.003906 -9.929688 3.734375 -9.421875 C 3.460938 -8.910156 3.160156 -8.40625 2.828125 -7.90625 C 3.546875 -8.519531 4.300781 -9.117188 5.09375 -9.703125 C 5.894531 -10.296875 6.789062 -10.882812 7.78125 -11.46875 C 8.25 -11.738281 8.742188 -11.992188 9.265625 -12.234375 C 9.785156 -12.484375 10.296875 -12.679688 10.796875 -12.828125 C 11.296875 -12.972656 11.75 -13.046875 12.15625 -13.046875 C 12.363281 -13.046875 12.550781 -13.023438 12.71875 -12.984375 C 12.96875 -12.910156 13.160156 -12.742188 13.296875 -12.484375 C 13.429688 -12.222656 13.5 -11.957031 13.5 -11.6875 C 13.5 -11.53125 13.476562 -11.382812 13.4375 -11.25 C 13.363281 -11.050781 13.257812 -10.835938 13.125 -10.609375 C 13 -10.378906 12.816406 -10.101562 12.578125 -9.78125 C 12.335938 -9.46875 12.023438 -9.078125 11.640625 -8.609375 C 11.253906 -8.148438 10.773438 -7.582031 10.203125 -6.90625 C 9.835938 -6.476562 9.507812 -6.050781 9.21875 -5.625 C 8.925781 -5.195312 8.695312 -4.785156 8.53125 -4.390625 C 8.363281 -4.003906 8.28125 -3.65625 8.28125 -3.34375 C 8.28125 -3.019531 8.382812 -2.785156 8.59375 -2.640625 C 8.8125 -2.503906 9.109375 -2.4375 9.484375 -2.4375 C 9.867188 -2.4375 10.316406 -2.5 10.828125 -2.625 C 11.335938 -2.757812 11.875 -2.9375 12.4375 -3.15625 C 13 -3.375 13.5625 -3.617188 14.125 -3.890625 C 14.6875 -4.160156 15.21875 -4.445312 15.71875 -4.75 C 16.226562 -5.050781 16.675781 -5.347656 17.0625 -5.640625 C 17.445312 -5.929688 17.734375 -6.203125 17.921875 -6.453125 C 17.972656 -6.503906 18.035156 -6.550781 18.109375 -6.59375 C 18.191406 -6.632812 18.253906 -6.65625 18.296875 -6.65625 C 18.316406 -6.65625 18.328125 -6.644531 18.328125 -6.625 C 18.328125 -6.613281 18.3125 -6.59375 18.28125 -6.5625 C 17.59375 -5.832031 16.835938 -5.179688 16.015625 -4.609375 C 15.203125 -4.046875 14.375 -3.570312 13.53125 -3.1875 C 12.6875 -2.800781 11.867188 -2.507812 11.078125 -2.3125 C 10.296875 -2.113281 9.585938 -2.015625 8.953125 -2.015625 C 8.460938 -2.015625 8.046875 -2.070312 7.703125 -2.1875 C 7.347656 -2.3125 7.078125 -2.515625 6.890625 -2.796875 C 6.710938 -3.085938 6.625 -3.4375 6.625 -3.84375 C 6.625 -4.375 6.773438 -4.96875 7.078125 -5.625 C 7.378906 -6.289062 7.835938 -6.972656 8.453125 -7.671875 C 8.992188 -8.273438 9.484375 -8.828125 9.921875 -9.328125 C 10.367188 -9.828125 10.722656 -10.265625 10.984375 -10.640625 C 11.253906 -11.023438 11.390625 -11.34375 11.390625 -11.59375 L 11.359375 -11.734375 C 11.359375 -11.828125 11.328125 -11.90625 11.265625 -11.96875 C 11.210938 -12.039062 11.125 -12.09375 11 -12.125 L 10.796875 -12.15625 C 10.554688 -12.15625 10.253906 -12.097656 9.890625 -11.984375 C 9.535156 -11.878906 9.1875 -11.734375 8.84375 -11.546875 C 7.90625 -11.046875 7.054688 -10.53125 6.296875 -10 C 5.535156 -9.476562 4.832031 -8.925781 4.1875 -8.34375 C 3.550781 -7.769531 2.929688 -7.160156 2.328125 -6.515625 C 1.734375 -5.867188 1.128906 -5.175781 0.515625 -4.4375 C -0.0859375 -3.707031 -0.734375 -2.914062 -1.421875 -2.0625 C -1.484375 -2.007812 -1.550781 -1.984375 -1.625 -1.984375 Z M -1.625 -1.984375 "/></g></g></g><g fill="#2b2b2b" fill-opacity="1"><g transform="translate(245.704656, 42.322709)"><g><path d="M 1.375 -1.34375 C 0.582031 -1.34375 -0.0351562 -1.554688 -0.484375 -1.984375 C -0.941406 -2.410156 -1.171875 -3.039062 -1.171875 -3.875 C -1.171875 -4.601562 -0.976562 -5.484375 -0.59375 -6.515625 C -0.207031 -7.546875 0.394531 -8.726562 1.21875 -10.0625 C 2.550781 -12.195312 4.019531 -14.210938 5.625 -16.109375 C 7.238281 -18.003906 8.90625 -19.75 10.625 -21.34375 C 10.257812 -21.382812 9.894531 -21.410156 9.53125 -21.421875 C 9.164062 -21.441406 8.804688 -21.453125 8.453125 -21.453125 C 8.234375 -21.453125 8.007812 -21.445312 7.78125 -21.4375 C 7.550781 -21.425781 7.320312 -21.414062 7.09375 -21.40625 C 6.820312 -21.375 6.550781 -21.335938 6.28125 -21.296875 C 6.019531 -21.253906 5.757812 -21.195312 5.5 -21.125 C 4.976562 -20.988281 4.484375 -20.789062 4.015625 -20.53125 C 3.796875 -20.394531 3.59375 -20.234375 3.40625 -20.046875 C 3.21875 -19.867188 3.085938 -19.664062 3.015625 -19.4375 C 2.984375 -19.351562 2.96875 -19.257812 2.96875 -19.15625 C 2.96875 -18.976562 3.015625 -18.800781 3.109375 -18.625 C 3.203125 -18.445312 3.320312 -18.289062 3.46875 -18.15625 C 3.519531 -18.101562 3.546875 -18.050781 3.546875 -18 C 3.546875 -17.945312 3.523438 -17.898438 3.484375 -17.859375 C 3.429688 -17.804688 3.378906 -17.78125 3.328125 -17.78125 C 3.285156 -17.78125 3.238281 -17.800781 3.1875 -17.84375 C 3.082031 -17.945312 2.984375 -18.054688 2.890625 -18.171875 C 2.804688 -18.285156 2.726562 -18.429688 2.65625 -18.609375 C 2.59375 -18.773438 2.5625 -18.953125 2.5625 -19.140625 C 2.5625 -19.273438 2.582031 -19.414062 2.625 -19.5625 C 2.71875 -19.875 2.875 -20.132812 3.09375 -20.34375 C 3.320312 -20.5625 3.5625 -20.738281 3.8125 -20.875 C 4.0625 -21.03125 4.316406 -21.160156 4.578125 -21.265625 C 4.847656 -21.367188 5.117188 -21.457031 5.390625 -21.53125 C 5.660156 -21.601562 5.929688 -21.664062 6.203125 -21.71875 C 6.484375 -21.769531 6.765625 -21.816406 7.046875 -21.859375 C 7.335938 -21.878906 7.625 -21.894531 7.90625 -21.90625 C 8.195312 -21.925781 8.488281 -21.9375 8.78125 -21.9375 C 9.175781 -21.9375 9.566406 -21.925781 9.953125 -21.90625 C 10.347656 -21.882812 10.742188 -21.851562 11.140625 -21.8125 C 12.460938 -23.007812 13.789062 -24.101562 15.125 -25.09375 C 16.457031 -26.09375 17.765625 -26.976562 19.046875 -27.75 C 20.335938 -28.519531 21.578125 -29.164062 22.765625 -29.6875 C 23.960938 -30.207031 25.082031 -30.597656 26.125 -30.859375 C 26.28125 -30.859375 26.390625 -30.820312 26.453125 -30.75 C 26.515625 -30.6875 26.546875 -30.601562 26.546875 -30.5 C 26.546875 -30.351562 26.492188 -30.195312 26.390625 -30.03125 C 26.285156 -29.863281 26.175781 -29.75 26.0625 -29.6875 C 25.539062 -29.550781 24.851562 -29.273438 24 -28.859375 C 23.144531 -28.453125 22.164062 -27.910156 21.0625 -27.234375 C 19.957031 -26.554688 18.765625 -25.742188 17.484375 -24.796875 C 16.203125 -23.847656 14.882812 -22.773438 13.53125 -21.578125 L 13.71875 -21.578125 C 14.5625 -21.484375 15.40625 -21.394531 16.25 -21.3125 C 17.09375 -21.238281 17.929688 -21.203125 18.765625 -21.203125 C 19.015625 -21.203125 19.265625 -21.203125 19.515625 -21.203125 C 19.773438 -21.210938 20.03125 -21.234375 20.28125 -21.265625 C 20.820312 -21.296875 21.359375 -21.359375 21.890625 -21.453125 C 22.429688 -21.546875 22.953125 -21.679688 23.453125 -21.859375 C 23.585938 -21.898438 23.71875 -21.941406 23.84375 -21.984375 C 23.96875 -22.035156 24.09375 -22.085938 24.21875 -22.140625 C 24.332031 -22.203125 24.453125 -22.257812 24.578125 -22.3125 C 24.703125 -22.375 24.820312 -22.429688 24.9375 -22.484375 C 25.175781 -22.609375 25.40625 -22.742188 25.625 -22.890625 C 25.84375 -23.035156 26.085938 -23.15625 26.359375 -23.25 C 26.390625 -23.257812 26.40625 -23.257812 26.40625 -23.25 C 26.40625 -23.25 26.414062 -23.253906 26.4375 -23.265625 C 26.488281 -23.265625 26.535156 -23.25 26.578125 -23.21875 C 26.617188 -23.195312 26.644531 -23.160156 26.65625 -23.109375 C 26.65625 -23.097656 26.65625 -23.070312 26.65625 -23.03125 C 26.65625 -22.976562 26.640625 -22.9375 26.609375 -22.90625 C 26.515625 -22.789062 26.414062 -22.679688 26.3125 -22.578125 C 26.21875 -22.484375 26.109375 -22.394531 25.984375 -22.3125 C 25.867188 -22.238281 25.75 -22.160156 25.625 -22.078125 C 25.5 -22.003906 25.375 -21.941406 25.25 -21.890625 C 25.125 -21.816406 24.992188 -21.75 24.859375 -21.6875 C 24.734375 -21.632812 24.601562 -21.578125 24.46875 -21.515625 C 24.34375 -21.460938 24.210938 -21.410156 24.078125 -21.359375 C 23.941406 -21.316406 23.804688 -21.269531 23.671875 -21.21875 C 23.128906 -21.039062 22.578125 -20.90625 22.015625 -20.8125 C 21.453125 -20.71875 20.890625 -20.65625 20.328125 -20.625 C 20.109375 -20.601562 19.882812 -20.585938 19.65625 -20.578125 C 19.4375 -20.578125 19.210938 -20.578125 18.984375 -20.578125 C 18.085938 -20.578125 17.191406 -20.617188 16.296875 -20.703125 C 15.410156 -20.796875 14.53125 -20.898438 13.65625 -21.015625 L 12.984375 -21.09375 C 11.804688 -20.03125 10.625 -18.875 9.4375 -17.625 C 8.257812 -16.382812 7.101562 -15.050781 5.96875 -13.625 C 4.832031 -12.195312 3.738281 -10.679688 2.6875 -9.078125 C 1.78125 -7.671875 1.125 -6.484375 0.71875 -5.515625 C 0.3125 -4.546875 0.109375 -3.769531 0.109375 -3.1875 C 0.109375 -2.675781 0.242188 -2.300781 0.515625 -2.0625 C 0.796875 -1.832031 1.175781 -1.71875 1.65625 -1.71875 C 2.164062 -1.71875 2.765625 -1.835938 3.453125 -2.078125 C 4.148438 -2.328125 4.898438 -2.671875 5.703125 -3.109375 C 6.503906 -3.554688 7.320312 -4.078125 8.15625 -4.671875 C 9 -5.273438 9.820312 -5.9375 10.625 -6.65625 C 10.664062 -6.707031 10.707031 -6.734375 10.75 -6.734375 C 10.78125 -6.734375 10.796875 -6.71875 10.796875 -6.6875 L 10.796875 -6.65625 C 9.554688 -5.457031 8.351562 -4.46875 7.1875 -3.6875 C 6.03125 -2.90625 4.957031 -2.316406 3.96875 -1.921875 C 2.976562 -1.535156 2.113281 -1.34375 1.375 -1.34375 Z M 1.375 -1.34375 "/></g></g></g><g fill="#2b2b2b" fill-opacity="1"><g transform="translate(255.991779, 42.322709)"><g><path d="M 0.515625 -1.21875 C 0.335938 -1.21875 0.164062 -1.234375 0 -1.265625 C -0.164062 -1.304688 -0.320312 -1.363281 -0.46875 -1.4375 C -0.570312 -1.5 -0.703125 -1.59375 -0.859375 -1.71875 C -1.015625 -1.851562 -1.15625 -2.054688 -1.28125 -2.328125 C -1.40625 -2.597656 -1.46875 -2.960938 -1.46875 -3.421875 C -1.46875 -3.523438 -1.460938 -3.632812 -1.453125 -3.75 C -1.441406 -3.863281 -1.425781 -3.988281 -1.40625 -4.125 C -1.3125 -4.789062 -1.132812 -5.441406 -0.875 -6.078125 C -0.625 -6.722656 -0.316406 -7.328125 0.046875 -7.890625 C 0.421875 -8.460938 0.820312 -8.988281 1.25 -9.46875 C 1.675781 -9.945312 2.101562 -10.359375 2.53125 -10.703125 C 2.96875 -11.054688 3.375 -11.332031 3.75 -11.53125 L 3.84375 -11.53125 C 3.957031 -11.53125 4.085938 -11.503906 4.234375 -11.453125 C 4.390625 -11.398438 4.539062 -11.328125 4.6875 -11.234375 C 4.84375 -11.148438 4.972656 -11.0625 5.078125 -10.96875 C 5.179688 -10.882812 5.234375 -10.800781 5.234375 -10.71875 C 5.234375 -10.664062 5.207031 -10.625 5.15625 -10.59375 C 4.644531 -10.269531 4.125 -9.851562 3.59375 -9.34375 C 3.0625 -8.832031 2.550781 -8.257812 2.0625 -7.625 C 1.570312 -7 1.128906 -6.332031 0.734375 -5.625 C 0.347656 -4.925781 0.0507812 -4.210938 -0.15625 -3.484375 C -0.257812 -3.140625 -0.3125 -2.832031 -0.3125 -2.5625 C -0.3125 -2.25 -0.242188 -1.988281 -0.109375 -1.78125 C 0.0234375 -1.582031 0.25 -1.484375 0.5625 -1.484375 C 0.882812 -1.484375 1.296875 -1.609375 1.796875 -1.859375 C 2.421875 -2.179688 2.976562 -2.535156 3.46875 -2.921875 C 3.96875 -3.316406 4.429688 -3.726562 4.859375 -4.15625 C 4.921875 -4.539062 5.023438 -4.929688 5.171875 -5.328125 C 5.328125 -5.722656 5.503906 -6.113281 5.703125 -6.5 C 5.898438 -6.882812 6.109375 -7.238281 6.328125 -7.5625 C 6.546875 -7.882812 6.769531 -8.160156 7 -8.390625 C 7.414062 -8.835938 7.769531 -9.160156 8.0625 -9.359375 C 8.363281 -9.554688 8.648438 -9.671875 8.921875 -9.703125 L 8.984375 -9.703125 C 9.128906 -9.703125 9.269531 -9.65625 9.40625 -9.5625 C 9.550781 -9.46875 9.671875 -9.363281 9.765625 -9.25 C 9.859375 -9.132812 9.90625 -9.039062 9.90625 -8.96875 C 9.875 -8.757812 9.785156 -8.53125 9.640625 -8.28125 C 9.503906 -8.03125 9.347656 -7.796875 9.171875 -7.578125 C 8.992188 -7.359375 8.835938 -7.179688 8.703125 -7.046875 C 8.597656 -6.921875 8.429688 -6.734375 8.203125 -6.484375 C 7.972656 -6.234375 7.695312 -5.941406 7.375 -5.609375 C 7.050781 -5.285156 6.695312 -4.941406 6.3125 -4.578125 C 6.175781 -4.273438 6.0625 -3.972656 5.96875 -3.671875 C 5.882812 -3.367188 5.84375 -3.085938 5.84375 -2.828125 L 5.859375 -2.609375 C 5.878906 -2.359375 5.960938 -2.175781 6.109375 -2.0625 C 6.265625 -1.945312 6.445312 -1.890625 6.65625 -1.890625 C 6.820312 -1.890625 6.992188 -1.914062 7.171875 -1.96875 C 7.359375 -2.019531 7.550781 -2.085938 7.75 -2.171875 C 8.382812 -2.453125 8.960938 -2.773438 9.484375 -3.140625 C 10.015625 -3.515625 10.484375 -3.898438 10.890625 -4.296875 C 11.304688 -4.691406 11.671875 -5.0625 11.984375 -5.40625 C 11.953125 -5.5625 11.9375 -5.722656 11.9375 -5.890625 C 11.9375 -6.304688 11.992188 -6.742188 12.109375 -7.203125 C 12.234375 -7.660156 12.390625 -8.085938 12.578125 -8.484375 C 12.773438 -8.890625 12.992188 -9.234375 13.234375 -9.515625 C 13.484375 -9.804688 13.722656 -9.988281 13.953125 -10.0625 C 13.984375 -10.070312 14.015625 -10.078125 14.046875 -10.078125 C 14.078125 -10.078125 14.113281 -10.078125 14.15625 -10.078125 C 14.300781 -10.078125 14.460938 -10.050781 14.640625 -10 C 14.816406 -9.945312 14.972656 -9.867188 15.109375 -9.765625 C 15.242188 -9.671875 15.3125 -9.5625 15.3125 -9.4375 C 15.257812 -9.132812 15.148438 -8.804688 14.984375 -8.453125 C 14.828125 -8.109375 14.632812 -7.757812 14.40625 -7.40625 C 14.175781 -7.0625 13.925781 -6.722656 13.65625 -6.390625 C 13.382812 -6.054688 13.113281 -5.742188 12.84375 -5.453125 L 12.703125 -5.296875 C 12.734375 -4.878906 12.90625 -4.5625 13.21875 -4.34375 C 13.539062 -4.132812 13.941406 -4.03125 14.421875 -4.03125 C 14.804688 -4.03125 15.222656 -4.085938 15.671875 -4.203125 C 16.117188 -4.316406 16.5625 -4.46875 17 -4.65625 C 17.445312 -4.851562 17.863281 -5.0625 18.25 -5.28125 C 18.632812 -5.5 18.972656 -5.710938 19.265625 -5.921875 C 19.554688 -6.128906 19.769531 -6.3125 19.90625 -6.46875 C 20.019531 -6.582031 20.097656 -6.640625 20.140625 -6.640625 C 20.179688 -6.640625 20.203125 -6.609375 20.203125 -6.546875 C 20.203125 -6.460938 20.171875 -6.390625 20.109375 -6.328125 C 19.765625 -6.003906 19.351562 -5.679688 18.875 -5.359375 C 18.40625 -5.046875 17.894531 -4.757812 17.34375 -4.5 C 16.800781 -4.25 16.253906 -4.046875 15.703125 -3.890625 C 15.148438 -3.742188 14.640625 -3.671875 14.171875 -3.671875 C 13.703125 -3.671875 13.289062 -3.753906 12.9375 -3.921875 C 12.59375 -4.085938 12.332031 -4.363281 12.15625 -4.75 C 11.65625 -4.25 11.132812 -3.78125 10.59375 -3.34375 C 10.0625 -2.914062 9.488281 -2.515625 8.875 -2.140625 C 8.550781 -1.929688 8.203125 -1.769531 7.828125 -1.65625 C 7.453125 -1.550781 7.085938 -1.5 6.734375 -1.5 C 6.398438 -1.5 6.09375 -1.550781 5.8125 -1.65625 C 5.539062 -1.769531 5.3125 -1.945312 5.125 -2.1875 C 4.945312 -2.425781 4.84375 -2.734375 4.8125 -3.109375 C 4.800781 -3.140625 4.796875 -3.164062 4.796875 -3.1875 C 4.796875 -3.21875 4.796875 -3.25 4.796875 -3.28125 C 4.316406 -2.90625 3.832031 -2.5625 3.34375 -2.25 C 2.851562 -1.9375 2.367188 -1.6875 1.890625 -1.5 C 1.410156 -1.3125 0.953125 -1.21875 0.515625 -1.21875 Z M 12.953125 -6.59375 L 12.984375 -6.625 C 13.535156 -7.25 13.941406 -7.75 14.203125 -8.125 C 14.472656 -8.507812 14.648438 -8.789062 14.734375 -8.96875 C 14.816406 -9.144531 14.859375 -9.257812 14.859375 -9.3125 L 14.859375 -9.328125 C 14.828125 -9.328125 14.738281 -9.242188 14.59375 -9.078125 C 14.445312 -8.921875 14.269531 -8.710938 14.0625 -8.453125 C 13.863281 -8.191406 13.660156 -7.898438 13.453125 -7.578125 C 13.253906 -7.253906 13.085938 -6.925781 12.953125 -6.59375 Z M 8.171875 -7.578125 C 8.410156 -7.816406 8.625 -8.039062 8.8125 -8.25 C 9.007812 -8.457031 9.148438 -8.628906 9.234375 -8.765625 C 9.140625 -8.703125 9 -8.566406 8.8125 -8.359375 C 8.625 -8.148438 8.410156 -7.890625 8.171875 -7.578125 Z M 8.171875 -7.578125 "/></g></g></g><g fill="#2b2b2b" fill-opacity="1"><g transform="translate(275.865127, 42.322709)"><g><path d="M 0.171875 -1.40625 C -0.285156 -1.40625 -0.613281 -1.535156 -0.8125 -1.796875 C -1.019531 -2.066406 -1.125 -2.378906 -1.125 -2.734375 C -1.125 -3.054688 -1.054688 -3.390625 -0.921875 -3.734375 C -0.785156 -4.085938 -0.632812 -4.414062 -0.46875 -4.71875 C -0.507812 -4.925781 -0.53125 -5.144531 -0.53125 -5.375 C -0.53125 -5.851562 -0.441406 -6.34375 -0.265625 -6.84375 C -0.0859375 -7.34375 0.164062 -7.835938 0.5 -8.328125 C 0.832031 -8.816406 1.226562 -9.269531 1.6875 -9.6875 C 2.15625 -10.101562 2.671875 -10.460938 3.234375 -10.765625 C 3.796875 -11.078125 4.398438 -11.304688 5.046875 -11.453125 C 5.265625 -11.503906 5.472656 -11.539062 5.671875 -11.5625 C 5.867188 -11.582031 6.054688 -11.59375 6.234375 -11.59375 C 6.785156 -11.59375 7.253906 -11.503906 7.640625 -11.328125 C 8.023438 -11.148438 8.320312 -10.910156 8.53125 -10.609375 C 8.75 -10.304688 8.859375 -9.960938 8.859375 -9.578125 C 8.859375 -9.253906 8.773438 -8.867188 8.609375 -8.421875 C 8.441406 -7.984375 8.195312 -7.507812 7.875 -7 C 7.550781 -6.488281 7.15625 -5.96875 6.6875 -5.4375 C 6.226562 -4.90625 5.691406 -4.390625 5.078125 -3.890625 C 4.472656 -3.390625 3.804688 -2.925781 3.078125 -2.5 C 3.253906 -2.476562 3.394531 -2.460938 3.5 -2.453125 C 3.613281 -2.453125 3.75 -2.453125 3.90625 -2.453125 C 4.582031 -2.453125 5.265625 -2.539062 5.953125 -2.71875 C 6.640625 -2.90625 7.328125 -3.148438 8.015625 -3.453125 C 8.703125 -3.753906 9.367188 -4.085938 10.015625 -4.453125 C 10.671875 -4.816406 11.296875 -5.1875 11.890625 -5.5625 C 12.484375 -5.9375 13.035156 -6.285156 13.546875 -6.609375 C 13.648438 -6.671875 13.71875 -6.703125 13.75 -6.703125 C 13.769531 -6.703125 13.78125 -6.695312 13.78125 -6.6875 C 13.78125 -6.65625 13.710938 -6.585938 13.578125 -6.484375 C 12.742188 -5.859375 11.878906 -5.28125 10.984375 -4.75 C 10.097656 -4.226562 9.210938 -3.769531 8.328125 -3.375 C 7.441406 -2.988281 6.582031 -2.6875 5.75 -2.46875 C 4.925781 -2.257812 4.148438 -2.15625 3.421875 -2.15625 C 3.117188 -2.15625 2.832031 -2.175781 2.5625 -2.21875 C 2.113281 -1.976562 1.679688 -1.78125 1.265625 -1.625 C 0.847656 -1.476562 0.484375 -1.40625 0.171875 -1.40625 Z M 2.484375 -2.625 C 3.085938 -2.96875 3.65625 -3.351562 4.1875 -3.78125 C 4.726562 -4.207031 5.222656 -4.648438 5.671875 -5.109375 C 6.117188 -5.578125 6.515625 -6.035156 6.859375 -6.484375 C 7.203125 -6.941406 7.484375 -7.359375 7.703125 -7.734375 C 7.910156 -8.109375 8.0625 -8.4375 8.15625 -8.71875 C 8.25 -9.007812 8.296875 -9.257812 8.296875 -9.46875 C 8.296875 -9.875 8.15625 -10.160156 7.875 -10.328125 C 7.59375 -10.503906 7.242188 -10.59375 6.828125 -10.59375 C 6.367188 -10.59375 5.890625 -10.515625 5.390625 -10.359375 C 4.898438 -10.210938 4.414062 -10.003906 3.9375 -9.734375 C 3.46875 -9.460938 3.019531 -9.15625 2.59375 -8.8125 C 2.164062 -8.46875 1.78125 -8.097656 1.4375 -7.703125 C 1.09375 -7.304688 0.816406 -6.90625 0.609375 -6.5 C 0.503906 -6.320312 0.421875 -6.144531 0.359375 -5.96875 C 0.765625 -6.476562 1.207031 -6.925781 1.6875 -7.3125 C 2.175781 -7.695312 2.648438 -8 3.109375 -8.21875 C 3.179688 -8.25 3.273438 -8.265625 3.390625 -8.265625 C 3.554688 -8.265625 3.734375 -8.234375 3.921875 -8.171875 C 4.117188 -8.109375 4.289062 -8.023438 4.4375 -7.921875 C 4.582031 -7.816406 4.65625 -7.707031 4.65625 -7.59375 C 4.65625 -7.476562 4.5625 -7.375 4.375 -7.28125 C 3.53125 -6.863281 2.769531 -6.363281 2.09375 -5.78125 C 1.414062 -5.195312 0.867188 -4.609375 0.453125 -4.015625 C 0.648438 -3.671875 0.925781 -3.382812 1.28125 -3.15625 C 1.644531 -2.925781 2.046875 -2.75 2.484375 -2.625 Z M 0.171875 -1.75 C 0.328125 -1.75 0.503906 -1.773438 0.703125 -1.828125 C 0.910156 -1.890625 1.125 -1.96875 1.34375 -2.0625 C 1.5625 -2.15625 1.765625 -2.25 1.953125 -2.34375 C 1.585938 -2.4375 1.25 -2.582031 0.9375 -2.78125 C 0.632812 -2.976562 0.363281 -3.21875 0.125 -3.5 C 0.0078125 -3.28125 -0.09375 -3.054688 -0.1875 -2.828125 C -0.28125 -2.597656 -0.328125 -2.390625 -0.328125 -2.203125 C -0.328125 -2.046875 -0.28125 -1.929688 -0.1875 -1.859375 C -0.101562 -1.785156 0.015625 -1.75 0.171875 -1.75 Z M 0.171875 -1.75 "/></g></g></g><g fill="#2b2b2b" fill-opacity="1"><g transform="translate(289.171531, 42.322709)"><g><path d="M 2.359375 -1.328125 C 1.867188 -1.328125 1.488281 -1.421875 1.21875 -1.609375 C 0.945312 -1.796875 0.8125 -2.078125 0.8125 -2.453125 C 0.8125 -2.796875 0.914062 -3.195312 1.125 -3.65625 C 1.34375 -4.113281 1.625 -4.597656 1.96875 -5.109375 C 2.320312 -5.628906 2.707031 -6.15625 3.125 -6.6875 C 3.550781 -7.226562 3.972656 -7.742188 4.390625 -8.234375 C 4.859375 -8.773438 5.296875 -9.289062 5.703125 -9.78125 C 6.117188 -10.269531 6.457031 -10.65625 6.71875 -10.9375 C 6.488281 -10.851562 6.207031 -10.710938 5.875 -10.515625 C 5.550781 -10.328125 5.195312 -10.125 4.8125 -9.90625 C 4.4375 -9.6875 4.050781 -9.484375 3.65625 -9.296875 C 3.269531 -9.109375 2.894531 -8.972656 2.53125 -8.890625 C 2.289062 -8.628906 2.0625 -8.378906 1.84375 -8.140625 C 1.625 -7.898438 1.375 -7.644531 1.09375 -7.375 C 0.820312 -7.113281 0.488281 -6.804688 0.09375 -6.453125 C 0.0703125 -6.429688 0.046875 -6.421875 0.015625 -6.421875 C -0.00390625 -6.421875 -0.0234375 -6.429688 -0.046875 -6.453125 C -0.078125 -6.484375 -0.09375 -6.515625 -0.09375 -6.546875 C -0.09375 -6.578125 -0.078125 -6.601562 -0.046875 -6.625 C 0.179688 -6.832031 0.378906 -7.015625 0.546875 -7.171875 C 0.722656 -7.335938 0.890625 -7.492188 1.046875 -7.640625 C 1.203125 -7.796875 1.367188 -7.96875 1.546875 -8.15625 C 1.722656 -8.34375 1.925781 -8.5625 2.15625 -8.8125 L 1.859375 -8.8125 L 1.859375 -8.828125 C 1.492188 -8.859375 1.226562 -8.957031 1.0625 -9.125 C 0.90625 -9.300781 0.828125 -9.519531 0.828125 -9.78125 C 0.828125 -10.039062 0.894531 -10.328125 1.03125 -10.640625 C 1.175781 -10.953125 1.375 -11.265625 1.625 -11.578125 C 1.875 -11.890625 2.160156 -12.171875 2.484375 -12.421875 C 2.804688 -12.679688 3.144531 -12.878906 3.5 -13.015625 C 3.726562 -13.097656 3.957031 -13.140625 4.1875 -13.140625 C 4.4375 -13.140625 4.644531 -13.078125 4.8125 -12.953125 C 4.976562 -12.835938 5.0625 -12.648438 5.0625 -12.390625 C 5.0625 -12.097656 4.914062 -11.710938 4.625 -11.234375 C 4.34375 -10.765625 3.835938 -10.191406 3.109375 -9.515625 C 3.484375 -9.648438 3.875 -9.820312 4.28125 -10.03125 C 4.6875 -10.238281 5.082031 -10.445312 5.46875 -10.65625 C 5.851562 -10.863281 6.207031 -11.039062 6.53125 -11.1875 C 6.851562 -11.332031 7.125 -11.40625 7.34375 -11.40625 C 7.425781 -11.40625 7.5 -11.390625 7.5625 -11.359375 C 7.632812 -11.328125 7.6875 -11.273438 7.71875 -11.203125 C 7.78125 -11.109375 7.832031 -10.984375 7.875 -10.828125 C 7.925781 -10.679688 7.953125 -10.519531 7.953125 -10.34375 C 7.953125 -10.21875 7.929688 -10.085938 7.890625 -9.953125 C 7.859375 -9.828125 7.789062 -9.703125 7.6875 -9.578125 C 7.5 -9.359375 7.238281 -9.070312 6.90625 -8.71875 C 6.570312 -8.375 6.203125 -7.988281 5.796875 -7.5625 C 5.390625 -7.132812 4.984375 -6.691406 4.578125 -6.234375 C 4.171875 -5.773438 3.796875 -5.316406 3.453125 -4.859375 C 3.109375 -4.410156 2.832031 -3.988281 2.625 -3.59375 C 2.414062 -3.207031 2.3125 -2.875 2.3125 -2.59375 C 2.3125 -2.375 2.378906 -2.195312 2.515625 -2.0625 C 2.660156 -1.925781 2.890625 -1.859375 3.203125 -1.859375 C 3.535156 -1.859375 3.953125 -1.925781 4.453125 -2.0625 C 4.960938 -2.207031 5.519531 -2.398438 6.125 -2.640625 C 6.738281 -2.890625 7.363281 -3.171875 8 -3.484375 C 8.632812 -3.804688 9.265625 -4.144531 9.890625 -4.5 C 10.515625 -4.851562 11.09375 -5.207031 11.625 -5.5625 C 12.15625 -5.925781 12.609375 -6.273438 12.984375 -6.609375 C 13.066406 -6.679688 13.148438 -6.71875 13.234375 -6.71875 C 13.285156 -6.71875 13.3125 -6.695312 13.3125 -6.65625 C 13.3125 -6.632812 13.289062 -6.597656 13.25 -6.546875 C 12.976562 -6.316406 12.632812 -6.050781 12.21875 -5.75 C 11.800781 -5.445312 11.328125 -5.128906 10.796875 -4.796875 C 10.265625 -4.460938 9.703125 -4.128906 9.109375 -3.796875 C 8.515625 -3.472656 7.910156 -3.160156 7.296875 -2.859375 C 6.679688 -2.566406 6.078125 -2.300781 5.484375 -2.0625 C 4.890625 -1.832031 4.328125 -1.648438 3.796875 -1.515625 C 3.265625 -1.390625 2.785156 -1.328125 2.359375 -1.328125 Z M 2.203125 -9.296875 C 2.335938 -9.296875 2.472656 -9.3125 2.609375 -9.34375 C 3.410156 -10.09375 3.972656 -10.703125 4.296875 -11.171875 C 4.628906 -11.640625 4.796875 -11.984375 4.796875 -12.203125 C 4.796875 -12.328125 4.757812 -12.414062 4.6875 -12.46875 C 4.613281 -12.519531 4.515625 -12.546875 4.390625 -12.546875 C 4.171875 -12.546875 3.894531 -12.460938 3.5625 -12.296875 C 3.238281 -12.140625 2.90625 -11.910156 2.5625 -11.609375 C 2.226562 -11.316406 1.9375 -10.960938 1.6875 -10.546875 C 1.53125 -10.296875 1.453125 -10.078125 1.453125 -9.890625 C 1.453125 -9.703125 1.519531 -9.554688 1.65625 -9.453125 C 1.789062 -9.347656 1.972656 -9.296875 2.203125 -9.296875 Z M 2.203125 -9.296875 "/></g></g></g><g fill="#2b2b2b" fill-opacity="1"><g transform="translate(301.9927, 42.322709)"><g><path d="M 1.375 -1.34375 C 0.582031 -1.34375 -0.0351562 -1.554688 -0.484375 -1.984375 C -0.941406 -2.410156 -1.171875 -3.039062 -1.171875 -3.875 C -1.171875 -4.601562 -0.976562 -5.484375 -0.59375 -6.515625 C -0.207031 -7.546875 0.394531 -8.726562 1.21875 -10.0625 C 2.550781 -12.195312 4.019531 -14.210938 5.625 -16.109375 C 7.238281 -18.003906 8.90625 -19.75 10.625 -21.34375 C 10.257812 -21.382812 9.894531 -21.410156 9.53125 -21.421875 C 9.164062 -21.441406 8.804688 -21.453125 8.453125 -21.453125 C 8.234375 -21.453125 8.007812 -21.445312 7.78125 -21.4375 C 7.550781 -21.425781 7.320312 -21.414062 7.09375 -21.40625 C 6.820312 -21.375 6.550781 -21.335938 6.28125 -21.296875 C 6.019531 -21.253906 5.757812 -21.195312 5.5 -21.125 C 4.976562 -20.988281 4.484375 -20.789062 4.015625 -20.53125 C 3.796875 -20.394531 3.59375 -20.234375 3.40625 -20.046875 C 3.21875 -19.867188 3.085938 -19.664062 3.015625 -19.4375 C 2.984375 -19.351562 2.96875 -19.257812 2.96875 -19.15625 C 2.96875 -18.976562 3.015625 -18.800781 3.109375 -18.625 C 3.203125 -18.445312 3.320312 -18.289062 3.46875 -18.15625 C 3.519531 -18.101562 3.546875 -18.050781 3.546875 -18 C 3.546875 -17.945312 3.523438 -17.898438 3.484375 -17.859375 C 3.429688 -17.804688 3.378906 -17.78125 3.328125 -17.78125 C 3.285156 -17.78125 3.238281 -17.800781 3.1875 -17.84375 C 3.082031 -17.945312 2.984375 -18.054688 2.890625 -18.171875 C 2.804688 -18.285156 2.726562 -18.429688 2.65625 -18.609375 C 2.59375 -18.773438 2.5625 -18.953125 2.5625 -19.140625 C 2.5625 -19.273438 2.582031 -19.414062 2.625 -19.5625 C 2.71875 -19.875 2.875 -20.132812 3.09375 -20.34375 C 3.320312 -20.5625 3.5625 -20.738281 3.8125 -20.875 C 4.0625 -21.03125 4.316406 -21.160156 4.578125 -21.265625 C 4.847656 -21.367188 5.117188 -21.457031 5.390625 -21.53125 C 5.660156 -21.601562 5.929688 -21.664062 6.203125 -21.71875 C 6.484375 -21.769531 6.765625 -21.816406 7.046875 -21.859375 C 7.335938 -21.878906 7.625 -21.894531 7.90625 -21.90625 C 8.195312 -21.925781 8.488281 -21.9375 8.78125 -21.9375 C 9.175781 -21.9375 9.566406 -21.925781 9.953125 -21.90625 C 10.347656 -21.882812 10.742188 -21.851562 11.140625 -21.8125 C 12.460938 -23.007812 13.789062 -24.101562 15.125 -25.09375 C 16.457031 -26.09375 17.765625 -26.976562 19.046875 -27.75 C 20.335938 -28.519531 21.578125 -29.164062 22.765625 -29.6875 C 23.960938 -30.207031 25.082031 -30.597656 26.125 -30.859375 C 26.28125 -30.859375 26.390625 -30.820312 26.453125 -30.75 C 26.515625 -30.6875 26.546875 -30.601562 26.546875 -30.5 C 26.546875 -30.351562 26.492188 -30.195312 26.390625 -30.03125 C 26.285156 -29.863281 26.175781 -29.75 26.0625 -29.6875 C 25.539062 -29.550781 24.851562 -29.273438 24 -28.859375 C 23.144531 -28.453125 22.164062 -27.910156 21.0625 -27.234375 C 19.957031 -26.554688 18.765625 -25.742188 17.484375 -24.796875 C 16.203125 -23.847656 14.882812 -22.773438 13.53125 -21.578125 L 13.71875 -21.578125 C 14.5625 -21.484375 15.40625 -21.394531 16.25 -21.3125 C 17.09375 -21.238281 17.929688 -21.203125 18.765625 -21.203125 C 19.015625 -21.203125 19.265625 -21.203125 19.515625 -21.203125 C 19.773438 -21.210938 20.03125 -21.234375 20.28125 -21.265625 C 20.820312 -21.296875 21.359375 -21.359375 21.890625 -21.453125 C 22.429688 -21.546875 22.953125 -21.679688 23.453125 -21.859375 C 23.585938 -21.898438 23.71875 -21.941406 23.84375 -21.984375 C 23.96875 -22.035156 24.09375 -22.085938 24.21875 -22.140625 C 24.332031 -22.203125 24.453125 -22.257812 24.578125 -22.3125 C 24.703125 -22.375 24.820312 -22.429688 24.9375 -22.484375 C 25.175781 -22.609375 25.40625 -22.742188 25.625 -22.890625 C 25.84375 -23.035156 26.085938 -23.15625 26.359375 -23.25 C 26.390625 -23.257812 26.40625 -23.257812 26.40625 -23.25 C 26.40625 -23.25 26.414062 -23.253906 26.4375 -23.265625 C 26.488281 -23.265625 26.535156 -23.25 26.578125 -23.21875 C 26.617188 -23.195312 26.644531 -23.160156 26.65625 -23.109375 C 26.65625 -23.097656 26.65625 -23.070312 26.65625 -23.03125 C 26.65625 -22.976562 26.640625 -22.9375 26.609375 -22.90625 C 26.515625 -22.789062 26.414062 -22.679688 26.3125 -22.578125 C 26.21875 -22.484375 26.109375 -22.394531 25.984375 -22.3125 C 25.867188 -22.238281 25.75 -22.160156 25.625 -22.078125 C 25.5 -22.003906 25.375 -21.941406 25.25 -21.890625 C 25.125 -21.816406 24.992188 -21.75 24.859375 -21.6875 C 24.734375 -21.632812 24.601562 -21.578125 24.46875 -21.515625 C 24.34375 -21.460938 24.210938 -21.410156 24.078125 -21.359375 C 23.941406 -21.316406 23.804688 -21.269531 23.671875 -21.21875 C 23.128906 -21.039062 22.578125 -20.90625 22.015625 -20.8125 C 21.453125 -20.71875 20.890625 -20.65625 20.328125 -20.625 C 20.109375 -20.601562 19.882812 -20.585938 19.65625 -20.578125 C 19.4375 -20.578125 19.210938 -20.578125 18.984375 -20.578125 C 18.085938 -20.578125 17.191406 -20.617188 16.296875 -20.703125 C 15.410156 -20.796875 14.53125 -20.898438 13.65625 -21.015625 L 12.984375 -21.09375 C 11.804688 -20.03125 10.625 -18.875 9.4375 -17.625 C 8.257812 -16.382812 7.101562 -15.050781 5.96875 -13.625 C 4.832031 -12.195312 3.738281 -10.679688 2.6875 -9.078125 C 1.78125 -7.671875 1.125 -6.484375 0.71875 -5.515625 C 0.3125 -4.546875 0.109375 -3.769531 0.109375 -3.1875 C 0.109375 -2.675781 0.242188 -2.300781 0.515625 -2.0625 C 0.796875 -1.832031 1.175781 -1.71875 1.65625 -1.71875 C 2.164062 -1.71875 2.765625 -1.835938 3.453125 -2.078125 C 4.148438 -2.328125 4.898438 -2.671875 5.703125 -3.109375 C 6.503906 -3.554688 7.320312 -4.078125 8.15625 -4.671875 C 9 -5.273438 9.820312 -5.9375 10.625 -6.65625 C 10.664062 -6.707031 10.707031 -6.734375 10.75 -6.734375 C 10.78125 -6.734375 10.796875 -6.71875 10.796875 -6.6875 L 10.796875 -6.65625 C 9.554688 -5.457031 8.351562 -4.46875 7.1875 -3.6875 C 6.03125 -2.90625 4.957031 -2.316406 3.96875 -1.921875 C 2.976562 -1.535156 2.113281 -1.34375 1.375 -1.34375 Z M 1.375 -1.34375 "/></g></g></g><g fill="#2b2b2b" fill-opacity="1"><g transform="translate(312.279823, 42.322709)"><g><path d="M 2.25 -1.4375 C 2.101562 -1.4375 1.960938 -1.4375 1.828125 -1.4375 C 1.703125 -1.445312 1.570312 -1.460938 1.4375 -1.484375 C 0.769531 -1.554688 0.226562 -1.710938 -0.1875 -1.953125 C -0.601562 -2.191406 -0.90625 -2.488281 -1.09375 -2.84375 C -1.289062 -3.207031 -1.390625 -3.609375 -1.390625 -4.046875 C -1.390625 -4.566406 -1.273438 -5.117188 -1.046875 -5.703125 C -0.816406 -6.296875 -0.5 -6.882812 -0.09375 -7.46875 C 0.300781 -8.0625 0.757812 -8.625 1.28125 -9.15625 C 1.8125 -9.6875 2.375 -10.160156 2.96875 -10.578125 C 3.5625 -10.992188 4.160156 -11.320312 4.765625 -11.5625 C 5.378906 -11.800781 5.972656 -11.921875 6.546875 -11.921875 C 6.921875 -11.921875 7.269531 -11.867188 7.59375 -11.765625 C 8.03125 -11.617188 8.335938 -11.425781 8.515625 -11.1875 C 8.703125 -10.945312 8.796875 -10.675781 8.796875 -10.375 C 8.796875 -10.050781 8.707031 -9.707031 8.53125 -9.34375 C 8.351562 -8.988281 8.128906 -8.640625 7.859375 -8.296875 C 7.597656 -7.953125 7.320312 -7.640625 7.03125 -7.359375 C 6.738281 -7.078125 6.472656 -6.851562 6.234375 -6.6875 C 5.835938 -6.394531 5.390625 -6.125 4.890625 -5.875 C 4.390625 -5.625 3.882812 -5.421875 3.375 -5.265625 C 2.875 -5.117188 2.421875 -5.046875 2.015625 -5.046875 C 1.722656 -5.046875 1.460938 -5.09375 1.234375 -5.1875 C 1.015625 -5.28125 0.851562 -5.4375 0.75 -5.65625 C 0.539062 -5.300781 0.367188 -4.945312 0.234375 -4.59375 C 0.109375 -4.238281 0.046875 -3.894531 0.046875 -3.5625 C 0.046875 -2.945312 0.242188 -2.515625 0.640625 -2.265625 C 1.046875 -2.015625 1.570312 -1.890625 2.21875 -1.890625 C 2.59375 -1.890625 2.972656 -1.914062 3.359375 -1.96875 C 3.753906 -2.03125 4.117188 -2.109375 4.453125 -2.203125 C 4.796875 -2.296875 5.085938 -2.382812 5.328125 -2.46875 C 6.316406 -2.8125 7.253906 -3.21875 8.140625 -3.6875 C 9.023438 -4.15625 9.894531 -4.648438 10.75 -5.171875 C 11.613281 -5.691406 12.5 -6.195312 13.40625 -6.6875 C 13.488281 -6.726562 13.554688 -6.75 13.609375 -6.75 C 13.609375 -6.738281 13.585938 -6.71875 13.546875 -6.6875 C 12.023438 -5.59375 10.597656 -4.648438 9.265625 -3.859375 C 7.941406 -3.078125 6.695312 -2.476562 5.53125 -2.0625 C 4.363281 -1.644531 3.269531 -1.4375 2.25 -1.4375 Z M 2.03125 -5.296875 C 2.332031 -5.296875 2.679688 -5.359375 3.078125 -5.484375 C 3.484375 -5.617188 3.90625 -5.796875 4.34375 -6.015625 C 4.78125 -6.242188 5.210938 -6.503906 5.640625 -6.796875 C 6.253906 -7.234375 6.734375 -7.660156 7.078125 -8.078125 C 7.421875 -8.492188 7.664062 -8.878906 7.8125 -9.234375 C 7.957031 -9.585938 8.03125 -9.875 8.03125 -10.09375 C 8.03125 -10.3125 7.976562 -10.453125 7.875 -10.515625 C 7.769531 -10.585938 7.632812 -10.625 7.46875 -10.625 C 7.207031 -10.625 6.867188 -10.539062 6.453125 -10.375 C 6.035156 -10.21875 5.582031 -9.992188 5.09375 -9.703125 C 4.601562 -9.410156 4.109375 -9.066406 3.609375 -8.671875 C 3.109375 -8.285156 2.632812 -7.863281 2.1875 -7.40625 C 1.738281 -6.957031 1.34375 -6.492188 1 -6.015625 C 1.039062 -5.765625 1.148438 -5.582031 1.328125 -5.46875 C 1.515625 -5.351562 1.75 -5.296875 2.03125 -5.296875 Z M 2.03125 -5.296875 "/></g></g></g><g fill="#2b2b2b" fill-opacity="1"><g transform="translate(325.154901, 42.322709)"><g><path d="M -1.625 -1.984375 C -1.757812 -1.984375 -1.90625 -2.03125 -2.0625 -2.125 C -2.21875 -2.21875 -2.351562 -2.328125 -2.46875 -2.453125 C -2.59375 -2.585938 -2.65625 -2.707031 -2.65625 -2.8125 L -2.640625 -2.875 C -2.347656 -3.5625 -2.007812 -4.226562 -1.625 -4.875 C -1.238281 -5.53125 -0.828125 -6.175781 -0.390625 -6.8125 C 0.0351562 -7.445312 0.457031 -8.082031 0.875 -8.71875 C 1.300781 -9.351562 1.691406 -10 2.046875 -10.65625 C 2.398438 -11.320312 2.691406 -12.003906 2.921875 -12.703125 C 2.953125 -12.816406 3.023438 -12.875 3.140625 -12.875 C 3.253906 -12.875 3.382812 -12.828125 3.53125 -12.734375 C 3.6875 -12.640625 3.832031 -12.507812 3.96875 -12.34375 C 4.113281 -12.1875 4.234375 -12.015625 4.328125 -11.828125 C 4.421875 -11.648438 4.46875 -11.46875 4.46875 -11.28125 C 4.46875 -11.164062 4.453125 -11.070312 4.421875 -11 C 4.234375 -10.457031 4.003906 -9.929688 3.734375 -9.421875 C 3.460938 -8.910156 3.160156 -8.40625 2.828125 -7.90625 C 3.546875 -8.519531 4.300781 -9.117188 5.09375 -9.703125 C 5.894531 -10.296875 6.789062 -10.882812 7.78125 -11.46875 C 8.25 -11.738281 8.742188 -11.992188 9.265625 -12.234375 C 9.785156 -12.484375 10.296875 -12.679688 10.796875 -12.828125 C 11.296875 -12.972656 11.75 -13.046875 12.15625 -13.046875 C 12.363281 -13.046875 12.550781 -13.023438 12.71875 -12.984375 C 12.96875 -12.910156 13.160156 -12.742188 13.296875 -12.484375 C 13.429688 -12.222656 13.5 -11.957031 13.5 -11.6875 C 13.5 -11.53125 13.476562 -11.382812 13.4375 -11.25 C 13.363281 -11.050781 13.257812 -10.835938 13.125 -10.609375 C 13 -10.378906 12.816406 -10.101562 12.578125 -9.78125 C 12.335938 -9.46875 12.023438 -9.078125 11.640625 -8.609375 C 11.253906 -8.148438 10.773438 -7.582031 10.203125 -6.90625 C 9.835938 -6.476562 9.507812 -6.050781 9.21875 -5.625 C 8.925781 -5.195312 8.695312 -4.785156 8.53125 -4.390625 C 8.363281 -4.003906 8.28125 -3.65625 8.28125 -3.34375 C 8.28125 -3.019531 8.382812 -2.785156 8.59375 -2.640625 C 8.8125 -2.503906 9.109375 -2.4375 9.484375 -2.4375 C 9.867188 -2.4375 10.316406 -2.5 10.828125 -2.625 C 11.335938 -2.757812 11.875 -2.9375 12.4375 -3.15625 C 13 -3.375 13.5625 -3.617188 14.125 -3.890625 C 14.6875 -4.160156 15.21875 -4.445312 15.71875 -4.75 C 16.226562 -5.050781 16.675781 -5.347656 17.0625 -5.640625 C 17.445312 -5.929688 17.734375 -6.203125 17.921875 -6.453125 C 17.972656 -6.503906 18.035156 -6.550781 18.109375 -6.59375 C 18.191406 -6.632812 18.253906 -6.65625 18.296875 -6.65625 C 18.316406 -6.65625 18.328125 -6.644531 18.328125 -6.625 C 18.328125 -6.613281 18.3125 -6.59375 18.28125 -6.5625 C 17.59375 -5.832031 16.835938 -5.179688 16.015625 -4.609375 C 15.203125 -4.046875 14.375 -3.570312 13.53125 -3.1875 C 12.6875 -2.800781 11.867188 -2.507812 11.078125 -2.3125 C 10.296875 -2.113281 9.585938 -2.015625 8.953125 -2.015625 C 8.460938 -2.015625 8.046875 -2.070312 7.703125 -2.1875 C 7.347656 -2.3125 7.078125 -2.515625 6.890625 -2.796875 C 6.710938 -3.085938 6.625 -3.4375 6.625 -3.84375 C 6.625 -4.375 6.773438 -4.96875 7.078125 -5.625 C 7.378906 -6.289062 7.835938 -6.972656 8.453125 -7.671875 C 8.992188 -8.273438 9.484375 -8.828125 9.921875 -9.328125 C 10.367188 -9.828125 10.722656 -10.265625 10.984375 -10.640625 C 11.253906 -11.023438 11.390625 -11.34375 11.390625 -11.59375 L 11.359375 -11.734375 C 11.359375 -11.828125 11.328125 -11.90625 11.265625 -11.96875 C 11.210938 -12.039062 11.125 -12.09375 11 -12.125 L 10.796875 -12.15625 C 10.554688 -12.15625 10.253906 -12.097656 9.890625 -11.984375 C 9.535156 -11.878906 9.1875 -11.734375 8.84375 -11.546875 C 7.90625 -11.046875 7.054688 -10.53125 6.296875 -10 C 5.535156 -9.476562 4.832031 -8.925781 4.1875 -8.34375 C 3.550781 -7.769531 2.929688 -7.160156 2.328125 -6.515625 C 1.734375 -5.867188 1.128906 -5.175781 0.515625 -4.4375 C -0.0859375 -3.707031 -0.734375 -2.914062 -1.421875 -2.0625 C -1.484375 -2.007812 -1.550781 -1.984375 -1.625 -1.984375 Z M -1.625 -1.984375 "/></g></g></g></g></g><g fill="#2b2b2b" fill-opacity="1"><g transform="translate(158.271077, 45.140563)"><g><path d="M 6.078125 0.21875 C 4.796875 0.21875 3.847656 -0.113281 3.234375 -0.78125 C 2.617188 -1.445312 2.3125 -2.515625 2.3125 -3.984375 L 2.3125 -9.359375 C 2.3125 -10.085938 2.179688 -10.585938 1.921875 -10.859375 C 1.671875 -11.140625 1.21875 -11.28125 0.5625 -11.28125 L 0.5 -11.28125 L 0.5 -11.5 L 4.328125 -11.5 L 4.328125 -3.890625 C 4.328125 -2.523438 4.476562 -1.546875 4.78125 -0.953125 C 5.082031 -0.367188 5.628906 -0.078125 6.421875 -0.078125 C 7.378906 -0.078125 8.097656 -0.453125 8.578125 -1.203125 C 9.054688 -1.960938 9.296875 -3.035156 9.296875 -4.421875 L 9.296875 -9.359375 C 9.296875 -10.085938 9.164062 -10.585938 8.90625 -10.859375 C 8.65625 -11.140625 8.195312 -11.28125 7.53125 -11.28125 L 7.46875 -11.28125 L 7.46875 -11.5 L 11.3125 -11.5 L 11.3125 -2.125 C 11.3125 -1.394531 11.4375 -0.894531 11.6875 -0.625 C 11.9375 -0.351562 12.394531 -0.21875 13.0625 -0.21875 L 13.125 -0.21875 L 13.125 0 L 9.4375 0 L 9.4375 -2.9375 L 9.390625 -2.9375 C 9.273438 -2.207031 9.09375 -1.628906 8.84375 -1.203125 C 8.59375 -0.785156 8.304688 -0.476562 7.984375 -0.28125 C 7.671875 -0.0820312 7.34375 0.046875 7 0.109375 C 6.664062 0.179688 6.359375 0.21875 6.078125 0.21875 Z M 6.078125 0.21875 "/></g></g></g><g fill="#2b2b2b" fill-opacity="1"><g transform="translate(171.889025, 45.140563)"><g><path d="M 0.59375 0 L 0.59375 -0.21875 L 0.765625 -0.21875 C 1.429688 -0.21875 1.890625 -0.359375 2.140625 -0.640625 C 2.398438 -0.929688 2.53125 -1.445312 2.53125 -2.1875 L 2.53125 -9.359375 C 2.53125 -10.085938 2.40625 -10.585938 2.15625 -10.859375 C 1.914062 -11.140625 1.46875 -11.28125 0.8125 -11.28125 L 0.703125 -11.28125 L 0.703125 -11.5 L 4.53125 -11.5 L 4.53125 -9.484375 L 4.5625 -9.484375 C 4.75 -10.140625 5.023438 -10.628906 5.390625 -10.953125 C 5.753906 -11.273438 6.144531 -11.484375 6.5625 -11.578125 C 6.988281 -11.671875 7.382812 -11.71875 7.75 -11.71875 C 9.019531 -11.71875 9.960938 -11.382812 10.578125 -10.71875 C 11.203125 -10.050781 11.515625 -8.984375 11.515625 -7.515625 L 11.515625 -2.1875 C 11.515625 -1.445312 11.628906 -0.929688 11.859375 -0.640625 C 12.085938 -0.359375 12.507812 -0.21875 13.125 -0.21875 L 13.234375 -0.21875 L 13.234375 0 L 9.5 0 L 9.5 -8.234375 C 9.5 -9.160156 9.320312 -9.914062 8.96875 -10.5 C 8.625 -11.09375 8.035156 -11.390625 7.203125 -11.390625 C 6.535156 -11.390625 6.007812 -11.207031 5.625 -10.84375 C 5.238281 -10.488281 4.960938 -10.03125 4.796875 -9.46875 C 4.628906 -8.90625 4.546875 -8.316406 4.546875 -7.703125 L 4.546875 -2.1875 C 4.546875 -1.445312 4.664062 -0.929688 4.90625 -0.640625 C 5.15625 -0.359375 5.609375 -0.21875 6.265625 -0.21875 L 6.375 -0.21875 L 6.375 0 Z M 0.59375 0 "/></g></g></g><g fill="#2b2b2b" fill-opacity="1"><g transform="translate(185.721426, 45.140563)"><g><path d="M 5.484375 0.21875 C 4.085938 0.21875 3.019531 -0.285156 2.28125 -1.296875 C 1.550781 -2.316406 1.1875 -3.804688 1.1875 -5.765625 C 1.1875 -9.734375 2.609375 -11.71875 5.453125 -11.71875 C 6.421875 -11.71875 7.175781 -11.453125 7.71875 -10.921875 C 8.257812 -10.398438 8.632812 -9.597656 8.84375 -8.515625 L 8.875 -8.515625 C 8.851562 -9.285156 8.84375 -10.023438 8.84375 -10.734375 C 8.84375 -11.441406 8.84375 -11.984375 8.84375 -12.359375 L 8.84375 -14.421875 C 8.84375 -15.015625 8.707031 -15.441406 8.4375 -15.703125 C 8.164062 -15.960938 7.710938 -16.09375 7.078125 -16.09375 L 7.015625 -16.09375 L 7.015625 -16.296875 L 10.859375 -16.296875 L 10.859375 -1.859375 C 10.859375 -1.273438 10.992188 -0.851562 11.265625 -0.59375 C 11.535156 -0.34375 11.984375 -0.21875 12.609375 -0.21875 L 12.78125 -0.21875 L 12.78125 0 L 8.859375 0 L 8.859375 -3.03125 L 8.8125 -3.03125 C 8.625 -1.925781 8.253906 -1.109375 7.703125 -0.578125 C 7.160156 -0.046875 6.421875 0.21875 5.484375 0.21875 Z M 5.859375 -0.109375 C 6.867188 -0.109375 7.617188 -0.570312 8.109375 -1.5 C 8.597656 -2.425781 8.84375 -3.847656 8.84375 -5.765625 C 8.84375 -7.628906 8.609375 -9.03125 8.140625 -9.96875 C 7.671875 -10.914062 6.914062 -11.390625 5.875 -11.390625 C 4.9375 -11.390625 4.265625 -10.957031 3.859375 -10.09375 C 3.460938 -9.238281 3.265625 -7.804688 3.265625 -5.796875 C 3.265625 -3.742188 3.460938 -2.28125 3.859375 -1.40625 C 4.265625 -0.539062 4.929688 -0.109375 5.859375 -0.109375 Z M 5.859375 -0.109375 "/></g></g></g></svg>