<svg xmlns="http://www.w3.org/2000/svg" xmlns:xlink="http://www.w3.org/1999/xlink" width="473" zoomAndPan="magnify" viewBox="0 0 354.75 45.749998" height="61" preserveAspectRatio="xMidYMid meet" version="1.0"><defs><g/><clipPath id="ffb9c09948"><path d="M 0.839844 3 L 41.121094 3 L 41.121094 45.5 L 0.839844 45.5 Z M 0.839844 3 " clip-rule="nonzero"/></clipPath></defs><g clip-path="url(#ffb9c09948)"><path fill="#000000" d="M 38.828125 12.640625 L 35.015625 12.640625 C 35.710938 11.40625 35.242188 8.007812 34.609375 6.117188 C 32.539062 0.0351562 24.386719 6.648438 22.976562 7.902344 C 22.367188 7.410156 20.859375 7.644531 20.136719 7.589844 C 19.75 7.59375 19.390625 7.695312 19.058594 7.898438 C 17.660156 6.65625 9.496094 0.0351562 7.429688 6.109375 C 6.796875 8 6.324219 11.40625 7.019531 12.640625 L 3.207031 12.640625 C 2.90625 12.640625 2.621094 12.699219 2.34375 12.8125 C 2.070312 12.925781 1.824219 13.089844 1.613281 13.300781 C 1.40625 13.511719 1.242188 13.753906 1.128906 14.03125 C 1.011719 14.304688 0.957031 14.589844 0.957031 14.890625 L 0.957031 22.816406 C 0.957031 23.023438 1.027344 23.199219 1.175781 23.347656 C 1.320312 23.492188 1.5 23.566406 1.707031 23.566406 L 3.175781 23.566406 L 3.175781 43.253906 C 3.175781 43.550781 3.234375 43.835938 3.347656 44.113281 C 3.460938 44.386719 3.625 44.632812 3.835938 44.84375 C 4.046875 45.054688 4.289062 45.214844 4.5625 45.328125 C 4.839844 45.445312 5.125 45.5 5.425781 45.5 C 9.417969 45.5 36.609375 45.5 36.609375 45.5 C 36.90625 45.5 37.195312 45.445312 37.46875 45.328125 C 37.746094 45.214844 37.988281 45.054688 38.199219 44.84375 C 38.410156 44.632812 38.574219 44.386719 38.6875 44.113281 C 38.800781 43.835938 38.859375 43.550781 38.859375 43.253906 L 38.859375 23.566406 L 40.328125 23.566406 C 40.535156 23.566406 40.710938 23.492188 40.859375 23.347656 C 41.003906 23.199219 41.078125 23.023438 41.078125 22.816406 L 41.078125 14.890625 C 41.078125 14.589844 41.019531 14.304688 40.90625 14.03125 C 40.792969 13.753906 40.628906 13.511719 40.417969 13.300781 C 40.207031 13.089844 39.964844 12.925781 39.691406 12.8125 C 39.414062 12.699219 39.128906 12.640625 38.828125 12.640625 Z M 24.949219 12.640625 C 26.882812 10.863281 31.546875 9.832031 33.808594 9.511719 C 33.960938 10.792969 33.941406 12.378906 32.976562 12.640625 Z M 24.199219 22.066406 C 24.144531 22.058594 17.886719 22.070312 17.832031 22.066406 L 17.832031 14.140625 C 17.832031 14.140625 23.59375 14.140625 24.199219 14.140625 Z M 30.617188 5.105469 C 32.625 4.605469 33.292969 6.421875 33.546875 8.039062 C 31.609375 8.320312 26.734375 9.222656 23.984375 11.449219 C 24.027344 10.660156 23.996094 9.875 23.890625 9.09375 C 25.867188 7.316406 28.109375 5.988281 30.617188 5.105469 Z M 20.136719 9.089844 L 21.898438 9.089844 C 22.058594 9.089844 22.199219 9.148438 22.3125 9.261719 C 22.425781 9.378906 22.484375 9.515625 22.484375 9.675781 L 22.484375 12.640625 L 19.550781 12.640625 L 19.550781 9.675781 C 19.550781 9.515625 19.609375 9.378906 19.722656 9.261719 C 19.835938 9.148438 19.972656 9.089844 20.136719 9.089844 Z M 8.867188 6.527344 C 8.945312 6.261719 9.066406 6.023438 9.238281 5.808594 C 9.40625 5.597656 9.613281 5.421875 9.851562 5.289062 C 10.089844 5.15625 10.34375 5.074219 10.617188 5.042969 C 10.890625 5.011719 11.15625 5.03125 11.417969 5.105469 C 13.925781 5.988281 16.167969 7.316406 18.144531 9.09375 C 18.042969 9.875 18.011719 10.660156 18.050781 11.449219 C 15.296875 9.222656 10.425781 8.320312 8.488281 8.039062 C 8.597656 7.542969 8.71875 7.035156 8.867188 6.527344 Z M 8.226562 9.511719 C 10.574219 9.84375 14.914062 10.808594 17.140625 12.640625 L 9.058594 12.640625 C 8.09375 12.378906 8.074219 10.792969 8.226562 9.511719 Z M 2.457031 14.890625 C 2.457031 14.683594 2.527344 14.507812 2.675781 14.359375 C 2.820312 14.214844 3 14.140625 3.207031 14.140625 L 16.335938 14.140625 L 16.335938 22.066406 C 15.433594 22.0625 2.992188 22.066406 2.457031 22.066406 Z M 4.675781 43.253906 L 4.675781 23.566406 L 17.335938 23.566406 L 17.335938 44.003906 L 5.425781 44.003906 C 5.21875 44 5.042969 43.929688 4.894531 43.78125 C 4.75 43.636719 4.675781 43.460938 4.675781 43.253906 Z M 18.835938 44.003906 L 18.835938 23.566406 L 23.199219 23.566406 L 23.199219 44.003906 Z M 37.359375 43.253906 C 37.359375 43.460938 37.285156 43.636719 37.140625 43.78125 C 36.992188 43.929688 36.816406 44 36.609375 44.003906 L 24.699219 44.003906 L 24.699219 23.566406 L 37.359375 23.566406 Z M 39.578125 22.066406 C 39.101562 22.070312 26.539062 22.0625 25.699219 22.066406 L 25.699219 14.140625 L 38.828125 14.140625 C 39.035156 14.140625 39.210938 14.214844 39.359375 14.359375 C 39.503906 14.507812 39.578125 14.683594 39.578125 14.890625 Z M 39.578125 22.066406 " fill-opacity="1" fill-rule="nonzero"/></g><g fill="#2b2b2b" fill-opacity="1"><g transform="translate(67.675973, 27.493012)"><g><path d="M 4.515625 0 L 1.4375 -10.09375 C 1.34375 -10.40625 1.21875 -10.617188 1.0625 -10.734375 C 0.914062 -10.859375 0.675781 -10.921875 0.34375 -10.921875 L 0.140625 -10.921875 L 0.140625 -11.078125 L 4.40625 -11.078125 L 4.40625 -10.921875 L 4.046875 -10.921875 C 3.722656 -10.921875 3.488281 -10.875 3.34375 -10.78125 C 3.195312 -10.6875 3.125 -10.523438 3.125 -10.296875 C 3.125 -10.128906 3.164062 -9.898438 3.25 -9.609375 L 4.90625 -4.140625 C 5.050781 -3.671875 5.175781 -3.195312 5.28125 -2.71875 C 5.394531 -2.238281 5.5 -1.742188 5.59375 -1.234375 C 5.65625 -1.535156 5.738281 -1.898438 5.84375 -2.328125 C 5.957031 -2.765625 6.078125 -3.226562 6.203125 -3.71875 L 8.046875 -10.96875 L 8.703125 -10.96875 L 10.96875 -4.25 C 11.1875 -3.613281 11.375 -3.007812 11.53125 -2.4375 C 11.695312 -1.863281 11.820312 -1.40625 11.90625 -1.0625 C 11.957031 -1.28125 12.003906 -1.460938 12.046875 -1.609375 C 12.085938 -1.753906 12.125 -1.914062 12.15625 -2.09375 C 12.195312 -2.269531 12.265625 -2.519531 12.359375 -2.84375 L 14.09375 -9.359375 C 14.1875 -9.703125 14.234375 -9.972656 14.234375 -10.171875 C 14.234375 -10.453125 14.144531 -10.644531 13.96875 -10.75 C 13.800781 -10.863281 13.535156 -10.921875 13.171875 -10.921875 L 12.8125 -10.921875 L 12.8125 -11.078125 L 15.828125 -11.078125 L 15.828125 -10.921875 L 15.53125 -10.921875 C 15.207031 -10.921875 14.957031 -10.832031 14.78125 -10.65625 C 14.613281 -10.476562 14.472656 -10.164062 14.359375 -9.71875 L 11.78125 0 L 10.84375 0 L 7.765625 -9.265625 L 5.484375 0 Z M 4.515625 0 "/></g></g></g><g fill="#2b2b2b" fill-opacity="1"><g transform="translate(83.917891, 27.493012)"><g><path d="M 3.328125 0.15625 C 2.535156 0.15625 1.910156 -0.046875 1.453125 -0.453125 C 1.003906 -0.867188 0.78125 -1.429688 0.78125 -2.140625 C 0.78125 -2.929688 1.070312 -3.523438 1.65625 -3.921875 C 2.238281 -4.316406 3.125 -4.535156 4.3125 -4.578125 L 5.59375 -4.625 L 5.59375 -5.78125 C 5.59375 -6.363281 5.5625 -6.835938 5.5 -7.203125 C 5.445312 -7.578125 5.316406 -7.851562 5.109375 -8.03125 C 4.898438 -8.21875 4.582031 -8.3125 4.15625 -8.3125 C 3.5625 -8.3125 3.175781 -8.125 3 -7.75 C 2.832031 -7.382812 2.75 -6.800781 2.75 -6 C 2.3125 -6 1.976562 -6.070312 1.75 -6.21875 C 1.53125 -6.363281 1.421875 -6.601562 1.421875 -6.9375 C 1.421875 -7.3125 1.546875 -7.609375 1.796875 -7.828125 C 2.054688 -8.046875 2.394531 -8.207031 2.8125 -8.3125 C 3.226562 -8.414062 3.695312 -8.46875 4.21875 -8.46875 C 5.164062 -8.46875 5.875 -8.265625 6.34375 -7.859375 C 6.820312 -7.460938 7.0625 -6.769531 7.0625 -5.78125 L 7.0625 -1.140625 C 7.0625 -0.773438 7.132812 -0.519531 7.28125 -0.375 C 7.425781 -0.226562 7.671875 -0.15625 8.015625 -0.15625 L 8.0625 -0.15625 L 8.0625 0 L 5.71875 0 L 5.71875 -1.625 L 5.6875 -1.625 C 5.53125 -1.007812 5.238281 -0.554688 4.8125 -0.265625 C 4.394531 0.015625 3.898438 0.15625 3.328125 0.15625 Z M 3.640625 -0.0625 C 4.023438 -0.0625 4.363281 -0.160156 4.65625 -0.359375 C 4.957031 -0.554688 5.1875 -0.816406 5.34375 -1.140625 C 5.507812 -1.472656 5.59375 -1.832031 5.59375 -2.21875 L 5.59375 -4.453125 L 4.609375 -4.40625 C 3.734375 -4.363281 3.125 -4.160156 2.78125 -3.796875 C 2.445312 -3.441406 2.28125 -2.832031 2.28125 -1.96875 C 2.28125 -0.695312 2.734375 -0.0625 3.640625 -0.0625 Z M 3.640625 -0.0625 "/></g></g></g><g fill="#2b2b2b" fill-opacity="1"><g transform="translate(92.651606, 27.493012)"><g><path d="M 3.328125 0.15625 C 2.546875 0.15625 1.910156 0.015625 1.421875 -0.265625 C 0.941406 -0.546875 0.703125 -0.953125 0.703125 -1.484375 C 0.703125 -1.765625 0.753906 -1.984375 0.859375 -2.140625 C 0.972656 -2.296875 1.101562 -2.40625 1.25 -2.46875 C 1.40625 -2.53125 1.546875 -2.5625 1.671875 -2.5625 C 1.671875 -1.71875 1.789062 -1.078125 2.03125 -0.640625 C 2.28125 -0.210938 2.71875 0 3.34375 0 C 3.894531 0 4.332031 -0.140625 4.65625 -0.421875 C 4.976562 -0.710938 5.140625 -1.132812 5.140625 -1.6875 C 5.140625 -2.050781 5.078125 -2.335938 4.953125 -2.546875 C 4.828125 -2.765625 4.617188 -2.953125 4.328125 -3.109375 C 4.046875 -3.273438 3.65625 -3.46875 3.15625 -3.6875 C 2.5625 -3.945312 2.09375 -4.195312 1.75 -4.4375 C 1.40625 -4.6875 1.160156 -4.953125 1.015625 -5.234375 C 0.878906 -5.523438 0.8125 -5.867188 0.8125 -6.265625 C 0.8125 -6.972656 1.054688 -7.515625 1.546875 -7.890625 C 2.046875 -8.265625 2.734375 -8.453125 3.609375 -8.453125 C 4.359375 -8.453125 4.941406 -8.3125 5.359375 -8.03125 C 5.773438 -7.75 5.984375 -7.414062 5.984375 -7.03125 C 5.984375 -6.75 5.882812 -6.519531 5.6875 -6.34375 C 5.5 -6.175781 5.226562 -6.09375 4.875 -6.09375 C 4.875 -6.894531 4.765625 -7.460938 4.546875 -7.796875 C 4.328125 -8.128906 3.988281 -8.296875 3.53125 -8.296875 C 2.476562 -8.296875 1.953125 -7.800781 1.953125 -6.8125 C 1.953125 -6.445312 2.023438 -6.15625 2.171875 -5.9375 C 2.316406 -5.71875 2.539062 -5.53125 2.84375 -5.375 C 3.144531 -5.226562 3.523438 -5.054688 3.984375 -4.859375 C 4.578125 -4.617188 5.039062 -4.375 5.375 -4.125 C 5.71875 -3.882812 5.957031 -3.617188 6.09375 -3.328125 C 6.238281 -3.035156 6.3125 -2.6875 6.3125 -2.28125 C 6.3125 -1.476562 6.039062 -0.867188 5.5 -0.453125 C 4.957031 -0.046875 4.234375 0.15625 3.328125 0.15625 Z M 3.328125 0.15625 "/></g></g></g><g fill="#2b2b2b" fill-opacity="1"><g transform="translate(99.647886, 27.493012)"><g/></g></g><g fill="#2b2b2b" fill-opacity="1"><g transform="translate(103.13827, 27.493012)"><g><path d="M 0.28125 0 L 0.28125 -0.15625 L 0.40625 -0.15625 C 0.863281 -0.15625 1.1875 -0.25 1.375 -0.4375 C 1.570312 -0.625 1.671875 -0.925781 1.671875 -1.34375 L 1.671875 -10.421875 C 1.671875 -10.859375 1.570312 -11.171875 1.375 -11.359375 C 1.1875 -11.546875 0.863281 -11.640625 0.40625 -11.640625 L 0.359375 -11.640625 L 0.359375 -11.796875 L 3.140625 -11.796875 L 3.140625 -5.375 C 3.140625 -5.0625 3.140625 -4.75 3.140625 -4.4375 C 3.140625 -4.132812 3.128906 -3.828125 3.109375 -3.515625 L 5.734375 -6.46875 C 6.242188 -7.039062 6.5 -7.445312 6.5 -7.6875 C 6.5 -7.851562 6.382812 -7.972656 6.15625 -8.046875 C 5.925781 -8.117188 5.578125 -8.15625 5.109375 -8.15625 L 5.109375 -8.3125 L 8.53125 -8.3125 L 8.53125 -8.15625 C 8.257812 -8.15625 8.023438 -8.128906 7.828125 -8.078125 C 7.640625 -8.023438 7.421875 -7.898438 7.171875 -7.703125 C 6.921875 -7.515625 6.597656 -7.195312 6.203125 -6.75 L 5 -5.390625 L 7.390625 -1.703125 C 7.691406 -1.222656 7.941406 -0.875 8.140625 -0.65625 C 8.335938 -0.4375 8.503906 -0.296875 8.640625 -0.234375 C 8.773438 -0.179688 8.910156 -0.15625 9.046875 -0.15625 L 9.09375 -0.15625 L 9.09375 0 L 8.40625 0 C 7.800781 0 7.328125 -0.0820312 6.984375 -0.25 C 6.640625 -0.414062 6.320312 -0.722656 6.03125 -1.171875 L 4.046875 -4.3125 L 3.140625 -3.296875 L 3.140625 -1.421875 C 3.140625 -0.972656 3.234375 -0.648438 3.421875 -0.453125 C 3.617188 -0.253906 3.945312 -0.15625 4.40625 -0.15625 L 4.453125 -0.15625 L 4.453125 0 Z M 0.28125 0 "/></g></g></g><g fill="#2b2b2b" fill-opacity="1"><g transform="translate(112.213259, 27.493012)"><g><path d="M 4.453125 0.15625 C 3.335938 0.15625 2.457031 -0.195312 1.8125 -0.90625 C 1.175781 -1.625 0.859375 -2.710938 0.859375 -4.171875 C 0.859375 -5.617188 1.164062 -6.695312 1.78125 -7.40625 C 2.394531 -8.113281 3.300781 -8.46875 4.5 -8.46875 C 5.613281 -8.46875 6.488281 -8.113281 7.125 -7.40625 C 7.769531 -6.695312 8.09375 -5.617188 8.09375 -4.171875 C 8.09375 -2.710938 7.78125 -1.625 7.15625 -0.90625 C 6.539062 -0.195312 5.640625 0.15625 4.453125 0.15625 Z M 4.484375 0 C 5.234375 0 5.769531 -0.316406 6.09375 -0.953125 C 6.425781 -1.597656 6.59375 -2.671875 6.59375 -4.171875 C 6.59375 -5.660156 6.425781 -6.722656 6.09375 -7.359375 C 5.769531 -7.992188 5.226562 -8.3125 4.46875 -8.3125 C 3.707031 -8.3125 3.164062 -7.992188 2.84375 -7.359375 C 2.519531 -6.722656 2.359375 -5.660156 2.359375 -4.171875 C 2.359375 -2.671875 2.519531 -1.597656 2.84375 -0.953125 C 3.164062 -0.316406 3.710938 0 4.484375 0 Z M 5.875 -9.8125 C 5.675781 -9.8125 5.515625 -9.875 5.390625 -10 C 5.265625 -10.125 5.203125 -10.347656 5.203125 -10.671875 C 5.203125 -11.003906 5.265625 -11.234375 5.390625 -11.359375 C 5.515625 -11.484375 5.675781 -11.546875 5.875 -11.546875 C 6.0625 -11.546875 6.222656 -11.484375 6.359375 -11.359375 C 6.492188 -11.234375 6.5625 -11.003906 6.5625 -10.671875 C 6.5625 -10.347656 6.492188 -10.125 6.359375 -10 C 6.222656 -9.875 6.0625 -9.8125 5.875 -9.8125 Z M 2.9375 -9.8125 C 2.738281 -9.8125 2.570312 -9.875 2.4375 -10 C 2.3125 -10.125 2.25 -10.347656 2.25 -10.671875 C 2.25 -11.003906 2.3125 -11.234375 2.4375 -11.359375 C 2.570312 -11.484375 2.738281 -11.546875 2.9375 -11.546875 C 3.125 -11.546875 3.28125 -11.484375 3.40625 -11.359375 C 3.539062 -11.234375 3.609375 -11.003906 3.609375 -10.671875 C 3.609375 -10.347656 3.539062 -10.125 3.40625 -10 C 3.28125 -9.875 3.125 -9.8125 2.9375 -9.8125 Z M 2.9375 -9.8125 "/></g></g></g><g fill="#2b2b2b" fill-opacity="1"><g transform="translate(121.164152, 27.493012)"><g><path d="M 0.4375 0 L 0.4375 -0.15625 L 0.5625 -0.15625 C 1.03125 -0.15625 1.359375 -0.257812 1.546875 -0.46875 C 1.734375 -0.675781 1.828125 -1.046875 1.828125 -1.578125 L 1.828125 -6.765625 C 1.828125 -7.296875 1.738281 -7.660156 1.5625 -7.859375 C 1.382812 -8.054688 1.0625 -8.15625 0.59375 -8.15625 L 0.515625 -8.15625 L 0.515625 -8.3125 L 3.28125 -8.3125 L 3.28125 -6.859375 L 3.3125 -6.859375 C 3.4375 -7.335938 3.628906 -7.691406 3.890625 -7.921875 C 4.160156 -8.148438 4.445312 -8.296875 4.75 -8.359375 C 5.0625 -8.429688 5.34375 -8.46875 5.59375 -8.46875 C 6.519531 -8.46875 7.207031 -8.226562 7.65625 -7.75 C 8.101562 -7.269531 8.328125 -6.5 8.328125 -5.4375 L 8.328125 -1.578125 C 8.328125 -1.046875 8.410156 -0.675781 8.578125 -0.46875 C 8.742188 -0.257812 9.050781 -0.15625 9.5 -0.15625 L 9.578125 -0.15625 L 9.578125 0 L 6.875 0 L 6.875 -5.953125 C 6.875 -6.628906 6.742188 -7.175781 6.484375 -7.59375 C 6.234375 -8.019531 5.8125 -8.234375 5.21875 -8.234375 C 4.726562 -8.234375 4.34375 -8.101562 4.0625 -7.84375 C 3.78125 -7.59375 3.582031 -7.257812 3.46875 -6.84375 C 3.351562 -6.4375 3.296875 -6.007812 3.296875 -5.5625 L 3.296875 -1.578125 C 3.296875 -1.046875 3.378906 -0.675781 3.546875 -0.46875 C 3.722656 -0.257812 4.050781 -0.15625 4.53125 -0.15625 L 4.609375 -0.15625 L 4.609375 0 Z M 0.4375 0 "/></g></g></g><g fill="#2b2b2b" fill-opacity="1"><g transform="translate(131.169919, 27.493012)"><g><path d="M 0.4375 0 L 0.4375 -0.15625 L 0.5625 -0.15625 C 1.03125 -0.15625 1.359375 -0.257812 1.546875 -0.46875 C 1.734375 -0.675781 1.828125 -1.046875 1.828125 -1.578125 L 1.828125 -6.765625 C 1.828125 -7.296875 1.738281 -7.660156 1.5625 -7.859375 C 1.382812 -8.054688 1.0625 -8.15625 0.59375 -8.15625 L 0.515625 -8.15625 L 0.515625 -8.3125 L 3.28125 -8.3125 L 3.28125 -6.859375 L 3.3125 -6.859375 C 3.4375 -7.335938 3.628906 -7.691406 3.890625 -7.921875 C 4.160156 -8.148438 4.445312 -8.296875 4.75 -8.359375 C 5.0625 -8.429688 5.34375 -8.46875 5.59375 -8.46875 C 6.519531 -8.46875 7.207031 -8.226562 7.65625 -7.75 C 8.101562 -7.269531 8.328125 -6.5 8.328125 -5.4375 L 8.328125 -1.578125 C 8.328125 -1.046875 8.410156 -0.675781 8.578125 -0.46875 C 8.742188 -0.257812 9.050781 -0.15625 9.5 -0.15625 L 9.578125 -0.15625 L 9.578125 0 L 6.875 0 L 6.875 -5.953125 C 6.875 -6.628906 6.742188 -7.175781 6.484375 -7.59375 C 6.234375 -8.019531 5.8125 -8.234375 5.21875 -8.234375 C 4.726562 -8.234375 4.34375 -8.101562 4.0625 -7.84375 C 3.78125 -7.59375 3.582031 -7.257812 3.46875 -6.84375 C 3.351562 -6.4375 3.296875 -6.007812 3.296875 -5.5625 L 3.296875 -1.578125 C 3.296875 -1.046875 3.378906 -0.675781 3.546875 -0.46875 C 3.722656 -0.257812 4.050781 -0.15625 4.53125 -0.15625 L 4.609375 -0.15625 L 4.609375 0 Z M 0.4375 0 "/></g></g></g><g fill="#2b2b2b" fill-opacity="1"><g transform="translate(141.175686, 27.493012)"><g><path d="M 4.53125 0.15625 C 3.375 0.15625 2.472656 -0.210938 1.828125 -0.953125 C 1.179688 -1.703125 0.859375 -2.75 0.859375 -4.09375 C 0.859375 -5.539062 1.15625 -6.628906 1.75 -7.359375 C 2.34375 -8.097656 3.191406 -8.46875 4.296875 -8.46875 C 5.296875 -8.46875 6.082031 -8.15625 6.65625 -7.53125 C 7.238281 -6.914062 7.53125 -5.992188 7.53125 -4.765625 L 7.53125 -4.390625 L 2.359375 -4.390625 C 2.367188 -2.804688 2.539062 -1.675781 2.875 -1 C 3.207031 -0.332031 3.773438 0 4.578125 0 C 5.160156 0 5.648438 -0.160156 6.046875 -0.484375 C 6.441406 -0.804688 6.695312 -1.28125 6.8125 -1.90625 C 6.9375 -1.882812 7.03125 -1.820312 7.09375 -1.71875 C 7.15625 -1.613281 7.1875 -1.503906 7.1875 -1.390625 C 7.1875 -1.191406 7.085938 -0.96875 6.890625 -0.71875 C 6.691406 -0.476562 6.398438 -0.269531 6.015625 -0.09375 C 5.628906 0.0703125 5.132812 0.15625 4.53125 0.15625 Z M 2.359375 -4.546875 L 5.953125 -4.546875 C 5.953125 -5.898438 5.820312 -6.863281 5.5625 -7.4375 C 5.3125 -8.019531 4.878906 -8.3125 4.265625 -8.3125 C 3.640625 -8.3125 3.175781 -8.019531 2.875 -7.4375 C 2.582031 -6.863281 2.410156 -5.898438 2.359375 -4.546875 Z M 2.359375 -4.546875 "/></g></g></g><g fill="#2b2b2b" fill-opacity="1"><g transform="translate(149.475045, 27.493012)"><g><path d="M 0.4375 0 L 0.4375 -0.15625 L 0.5625 -0.15625 C 1.03125 -0.15625 1.359375 -0.257812 1.546875 -0.46875 C 1.734375 -0.675781 1.828125 -1.046875 1.828125 -1.578125 L 1.828125 -6.765625 C 1.828125 -7.296875 1.738281 -7.660156 1.5625 -7.859375 C 1.382812 -8.054688 1.0625 -8.15625 0.59375 -8.15625 L 0.515625 -8.15625 L 0.515625 -8.3125 L 3.28125 -8.3125 L 3.28125 -6.859375 L 3.3125 -6.859375 C 3.4375 -7.335938 3.628906 -7.691406 3.890625 -7.921875 C 4.160156 -8.148438 4.445312 -8.296875 4.75 -8.359375 C 5.0625 -8.429688 5.34375 -8.46875 5.59375 -8.46875 C 6.519531 -8.46875 7.207031 -8.226562 7.65625 -7.75 C 8.101562 -7.269531 8.328125 -6.5 8.328125 -5.4375 L 8.328125 -1.578125 C 8.328125 -1.046875 8.410156 -0.675781 8.578125 -0.46875 C 8.742188 -0.257812 9.050781 -0.15625 9.5 -0.15625 L 9.578125 -0.15625 L 9.578125 0 L 6.875 0 L 6.875 -5.953125 C 6.875 -6.628906 6.742188 -7.175781 6.484375 -7.59375 C 6.234375 -8.019531 5.8125 -8.234375 5.21875 -8.234375 C 4.726562 -8.234375 4.34375 -8.101562 4.0625 -7.84375 C 3.78125 -7.59375 3.582031 -7.257812 3.46875 -6.84375 C 3.351562 -6.4375 3.296875 -6.007812 3.296875 -5.5625 L 3.296875 -1.578125 C 3.296875 -1.046875 3.378906 -0.675781 3.546875 -0.46875 C 3.722656 -0.257812 4.050781 -0.15625 4.53125 -0.15625 L 4.609375 -0.15625 L 4.609375 0 Z M 0.4375 0 "/></g></g></g><g fill="#2b2b2b" fill-opacity="1"><g transform="translate(159.480811, 27.493012)"><g/></g></g><g fill="#2b2b2b" fill-opacity="1"><g transform="translate(162.971195, 27.493012)"><g><path d="M 3.25 0 L 1.109375 -7.34375 C 1.023438 -7.632812 0.90625 -7.84375 0.75 -7.96875 C 0.601562 -8.09375 0.414062 -8.15625 0.1875 -8.15625 L 0.015625 -8.15625 L 0.015625 -8.3125 L 3.84375 -8.3125 L 3.84375 -8.15625 L 3.5 -8.15625 C 3.15625 -8.15625 2.910156 -8.109375 2.765625 -8.015625 C 2.628906 -7.921875 2.5625 -7.78125 2.5625 -7.59375 C 2.5625 -7.40625 2.609375 -7.15625 2.703125 -6.84375 L 3.75 -3 C 3.851562 -2.613281 3.957031 -2.226562 4.0625 -1.84375 C 4.164062 -1.457031 4.273438 -1.070312 4.390625 -0.6875 L 4.421875 -0.6875 C 4.523438 -1.070312 4.625 -1.457031 4.71875 -1.84375 C 4.820312 -2.238281 4.925781 -2.640625 5.03125 -3.046875 L 6.390625 -8.265625 L 7.390625 -8.265625 L 9.140625 -2.96875 C 9.273438 -2.550781 9.410156 -2.144531 9.546875 -1.75 C 9.679688 -1.351562 9.816406 -0.953125 9.953125 -0.546875 L 9.96875 -0.546875 C 10.070312 -0.921875 10.171875 -1.304688 10.265625 -1.703125 C 10.359375 -2.097656 10.457031 -2.488281 10.5625 -2.875 L 11.5625 -6.75 C 11.601562 -6.914062 11.632812 -7.0625 11.65625 -7.1875 C 11.6875 -7.320312 11.703125 -7.441406 11.703125 -7.546875 C 11.703125 -7.765625 11.617188 -7.921875 11.453125 -8.015625 C 11.285156 -8.109375 10.992188 -8.15625 10.578125 -8.15625 L 10.03125 -8.15625 L 10.03125 -8.3125 L 13.359375 -8.3125 L 13.359375 -8.15625 L 12.953125 -8.15625 C 12.648438 -8.15625 12.40625 -8.066406 12.21875 -7.890625 C 12.039062 -7.722656 11.894531 -7.410156 11.78125 -6.953125 L 9.984375 0 L 8.765625 0 L 6.328125 -7.375 L 4.40625 0 Z M 3.25 0 "/></g></g></g><g fill="#2b2b2b" fill-opacity="1"><g transform="translate(176.343237, 27.493012)"><g><path d="M 2.484375 -9.8125 C 2.285156 -9.8125 2.117188 -9.875 1.984375 -10 C 1.859375 -10.125 1.796875 -10.347656 1.796875 -10.671875 C 1.796875 -11.003906 1.859375 -11.234375 1.984375 -11.359375 C 2.117188 -11.484375 2.285156 -11.546875 2.484375 -11.546875 C 2.671875 -11.546875 2.832031 -11.484375 2.96875 -11.359375 C 3.101562 -11.234375 3.171875 -11.003906 3.171875 -10.671875 C 3.171875 -10.347656 3.101562 -10.125 2.96875 -10 C 2.832031 -9.875 2.671875 -9.8125 2.484375 -9.8125 Z M 0.359375 0 L 0.359375 -0.15625 L 0.5625 -0.15625 C 1.007812 -0.15625 1.332031 -0.25 1.53125 -0.4375 C 1.726562 -0.625 1.828125 -0.925781 1.828125 -1.34375 L 1.828125 -6.953125 C 1.828125 -7.390625 1.726562 -7.695312 1.53125 -7.875 C 1.332031 -8.0625 1.007812 -8.15625 0.5625 -8.15625 L 0.515625 -8.15625 L 0.515625 -8.3125 L 3.296875 -8.3125 L 3.296875 -1.421875 C 3.296875 -0.972656 3.390625 -0.648438 3.578125 -0.453125 C 3.773438 -0.253906 4.101562 -0.15625 4.5625 -0.15625 L 4.765625 -0.15625 L 4.765625 0 Z M 0.359375 0 "/></g></g></g><g fill="#2b2b2b" fill-opacity="1"><g transform="translate(181.307336, 27.493012)"><g><path d="M 0.359375 0 L 0.359375 -0.15625 L 0.5625 -0.15625 C 1.007812 -0.15625 1.332031 -0.25 1.53125 -0.4375 C 1.726562 -0.625 1.828125 -0.925781 1.828125 -1.34375 L 1.828125 -6.953125 C 1.828125 -7.390625 1.726562 -7.695312 1.53125 -7.875 C 1.332031 -8.0625 1.007812 -8.15625 0.5625 -8.15625 L 0.515625 -8.15625 L 0.515625 -8.3125 L 3.28125 -8.3125 L 3.28125 -6.765625 L 3.3125 -6.765625 C 3.375 -7.035156 3.476562 -7.296875 3.625 -7.546875 C 3.769531 -7.804688 3.988281 -8.023438 4.28125 -8.203125 C 4.570312 -8.378906 4.972656 -8.46875 5.484375 -8.46875 C 5.984375 -8.46875 6.375 -8.363281 6.65625 -8.15625 C 6.9375 -7.957031 7.078125 -7.679688 7.078125 -7.328125 C 7.078125 -7.015625 6.960938 -6.753906 6.734375 -6.546875 C 6.515625 -6.335938 6.144531 -6.234375 5.625 -6.234375 C 5.625 -6.878906 5.515625 -7.320312 5.296875 -7.5625 C 5.085938 -7.800781 4.847656 -7.921875 4.578125 -7.921875 C 4.273438 -7.921875 4.035156 -7.816406 3.859375 -7.609375 C 3.679688 -7.398438 3.550781 -7.125 3.46875 -6.78125 C 3.382812 -6.445312 3.332031 -6.101562 3.3125 -5.75 C 3.300781 -5.394531 3.296875 -5.066406 3.296875 -4.765625 L 3.296875 -1.421875 C 3.296875 -0.972656 3.390625 -0.648438 3.578125 -0.453125 C 3.773438 -0.253906 4.101562 -0.15625 4.5625 -0.15625 L 4.765625 -0.15625 L 4.765625 0 Z M 0.359375 0 "/></g></g></g><g fill="#2b2b2b" fill-opacity="1"><g transform="translate(188.613875, 27.493012)"><g/></g></g><g fill="#2b2b2b" fill-opacity="1"><g transform="translate(192.104259, 27.493012)"><g><path d="M 3.328125 0.15625 C 2.546875 0.15625 1.910156 0.015625 1.421875 -0.265625 C 0.941406 -0.546875 0.703125 -0.953125 0.703125 -1.484375 C 0.703125 -1.765625 0.753906 -1.984375 0.859375 -2.140625 C 0.972656 -2.296875 1.101562 -2.40625 1.25 -2.46875 C 1.40625 -2.53125 1.546875 -2.5625 1.671875 -2.5625 C 1.671875 -1.71875 1.789062 -1.078125 2.03125 -0.640625 C 2.28125 -0.210938 2.71875 0 3.34375 0 C 3.894531 0 4.332031 -0.140625 4.65625 -0.421875 C 4.976562 -0.710938 5.140625 -1.132812 5.140625 -1.6875 C 5.140625 -2.050781 5.078125 -2.335938 4.953125 -2.546875 C 4.828125 -2.765625 4.617188 -2.953125 4.328125 -3.109375 C 4.046875 -3.273438 3.65625 -3.46875 3.15625 -3.6875 C 2.5625 -3.945312 2.09375 -4.195312 1.75 -4.4375 C 1.40625 -4.6875 1.160156 -4.953125 1.015625 -5.234375 C 0.878906 -5.523438 0.8125 -5.867188 0.8125 -6.265625 C 0.8125 -6.972656 1.054688 -7.515625 1.546875 -7.890625 C 2.046875 -8.265625 2.734375 -8.453125 3.609375 -8.453125 C 4.359375 -8.453125 4.941406 -8.3125 5.359375 -8.03125 C 5.773438 -7.75 5.984375 -7.414062 5.984375 -7.03125 C 5.984375 -6.75 5.882812 -6.519531 5.6875 -6.34375 C 5.5 -6.175781 5.226562 -6.09375 4.875 -6.09375 C 4.875 -6.894531 4.765625 -7.460938 4.546875 -7.796875 C 4.328125 -8.128906 3.988281 -8.296875 3.53125 -8.296875 C 2.476562 -8.296875 1.953125 -7.800781 1.953125 -6.8125 C 1.953125 -6.445312 2.023438 -6.15625 2.171875 -5.9375 C 2.316406 -5.71875 2.539062 -5.53125 2.84375 -5.375 C 3.144531 -5.226562 3.523438 -5.054688 3.984375 -4.859375 C 4.578125 -4.617188 5.039062 -4.375 5.375 -4.125 C 5.71875 -3.882812 5.957031 -3.617188 6.09375 -3.328125 C 6.238281 -3.035156 6.3125 -2.6875 6.3125 -2.28125 C 6.3125 -1.476562 6.039062 -0.867188 5.5 -0.453125 C 4.957031 -0.046875 4.234375 0.15625 3.328125 0.15625 Z M 3.328125 0.15625 "/></g></g></g><g fill="#2b2b2b" fill-opacity="1"><g transform="translate(199.100539, 27.493012)"><g><path d="M 4.421875 0.15625 C 3.710938 0.15625 3.085938 0.015625 2.546875 -0.265625 C 2.015625 -0.554688 1.597656 -1.019531 1.296875 -1.65625 C 1.003906 -2.289062 0.859375 -3.132812 0.859375 -4.1875 C 0.859375 -5.25 1.007812 -6.09375 1.3125 -6.71875 C 1.613281 -7.351562 2.023438 -7.800781 2.546875 -8.0625 C 3.066406 -8.332031 3.648438 -8.46875 4.296875 -8.46875 C 4.734375 -8.46875 5.160156 -8.410156 5.578125 -8.296875 C 5.992188 -8.179688 6.335938 -8.003906 6.609375 -7.765625 C 6.878906 -7.535156 7.015625 -7.234375 7.015625 -6.859375 C 7.015625 -6.515625 6.894531 -6.269531 6.65625 -6.125 C 6.414062 -5.976562 6.070312 -5.90625 5.625 -5.90625 C 5.625 -6.726562 5.535156 -7.332031 5.359375 -7.71875 C 5.179688 -8.113281 4.816406 -8.3125 4.265625 -8.3125 C 3.878906 -8.3125 3.546875 -8.195312 3.265625 -7.96875 C 2.984375 -7.738281 2.757812 -7.320312 2.59375 -6.71875 C 2.4375 -6.125 2.359375 -5.273438 2.359375 -4.171875 C 2.359375 -3.148438 2.4375 -2.332031 2.59375 -1.71875 C 2.75 -1.113281 2.992188 -0.675781 3.328125 -0.40625 C 3.671875 -0.132812 4.113281 0 4.65625 0 C 5.175781 0 5.613281 -0.132812 5.96875 -0.40625 C 6.320312 -0.6875 6.585938 -1.195312 6.765625 -1.9375 C 6.984375 -1.882812 7.09375 -1.71875 7.09375 -1.4375 C 7.09375 -1.195312 6.992188 -0.953125 6.796875 -0.703125 C 6.597656 -0.460938 6.300781 -0.257812 5.90625 -0.09375 C 5.507812 0.0703125 5.015625 0.15625 4.421875 0.15625 Z M 4.421875 0.15625 "/></g></g></g><g fill="#2b2b2b" fill-opacity="1"><g transform="translate(206.732839, 27.493012)"><g><path d="M 0.28125 0 L 0.28125 -0.15625 L 0.40625 -0.15625 C 0.875 -0.15625 1.203125 -0.257812 1.390625 -0.46875 C 1.578125 -0.675781 1.671875 -1.046875 1.671875 -1.578125 L 1.671875 -10.234375 C 1.671875 -10.765625 1.582031 -11.128906 1.40625 -11.328125 C 1.226562 -11.535156 0.90625 -11.640625 0.4375 -11.640625 L 0.359375 -11.640625 L 0.359375 -11.796875 L 3.140625 -11.796875 L 3.140625 -8.65625 C 3.140625 -8.351562 3.140625 -8.050781 3.140625 -7.75 C 3.140625 -7.457031 3.132812 -7.160156 3.125 -6.859375 L 3.15625 -6.859375 C 3.28125 -7.335938 3.472656 -7.691406 3.734375 -7.921875 C 4.003906 -8.148438 4.289062 -8.296875 4.59375 -8.359375 C 4.90625 -8.429688 5.191406 -8.46875 5.453125 -8.46875 C 6.367188 -8.46875 7.050781 -8.226562 7.5 -7.75 C 7.945312 -7.269531 8.171875 -6.5 8.171875 -5.4375 L 8.171875 -1.578125 C 8.171875 -1.046875 8.253906 -0.675781 8.421875 -0.46875 C 8.585938 -0.257812 8.894531 -0.15625 9.34375 -0.15625 L 9.421875 -0.15625 L 9.421875 0 L 6.71875 0 L 6.71875 -5.953125 C 6.71875 -6.628906 6.585938 -7.175781 6.328125 -7.59375 C 6.078125 -8.019531 5.65625 -8.234375 5.0625 -8.234375 C 4.570312 -8.234375 4.1875 -8.101562 3.90625 -7.84375 C 3.625 -7.59375 3.425781 -7.257812 3.3125 -6.84375 C 3.195312 -6.4375 3.140625 -6.007812 3.140625 -5.5625 L 3.140625 -1.578125 C 3.140625 -1.046875 3.222656 -0.675781 3.390625 -0.46875 C 3.566406 -0.257812 3.894531 -0.15625 4.375 -0.15625 L 4.453125 -0.15625 L 4.453125 0 Z M 0.28125 0 "/></g></g></g><g fill="#2b2b2b" fill-opacity="1"><g transform="translate(216.58347, 27.493012)"><g><path d="M 4.53125 0.15625 C 3.375 0.15625 2.472656 -0.210938 1.828125 -0.953125 C 1.179688 -1.703125 0.859375 -2.75 0.859375 -4.09375 C 0.859375 -5.539062 1.15625 -6.628906 1.75 -7.359375 C 2.34375 -8.097656 3.191406 -8.46875 4.296875 -8.46875 C 5.296875 -8.46875 6.082031 -8.15625 6.65625 -7.53125 C 7.238281 -6.914062 7.53125 -5.992188 7.53125 -4.765625 L 7.53125 -4.390625 L 2.359375 -4.390625 C 2.367188 -2.804688 2.539062 -1.675781 2.875 -1 C 3.207031 -0.332031 3.773438 0 4.578125 0 C 5.160156 0 5.648438 -0.160156 6.046875 -0.484375 C 6.441406 -0.804688 6.695312 -1.28125 6.8125 -1.90625 C 6.9375 -1.882812 7.03125 -1.820312 7.09375 -1.71875 C 7.15625 -1.613281 7.1875 -1.503906 7.1875 -1.390625 C 7.1875 -1.191406 7.085938 -0.96875 6.890625 -0.71875 C 6.691406 -0.476562 6.398438 -0.269531 6.015625 -0.09375 C 5.628906 0.0703125 5.132812 0.15625 4.53125 0.15625 Z M 2.359375 -4.546875 L 5.953125 -4.546875 C 5.953125 -5.898438 5.820312 -6.863281 5.5625 -7.4375 C 5.3125 -8.019531 4.878906 -8.3125 4.265625 -8.3125 C 3.640625 -8.3125 3.175781 -8.019531 2.875 -7.4375 C 2.582031 -6.863281 2.410156 -5.898438 2.359375 -4.546875 Z M 2.359375 -4.546875 "/></g></g></g><g fill="#2b2b2b" fill-opacity="1"><g transform="translate(224.882829, 27.493012)"><g><path d="M 0.4375 0 L 0.4375 -0.15625 L 0.5625 -0.15625 C 1.03125 -0.15625 1.359375 -0.257812 1.546875 -0.46875 C 1.734375 -0.675781 1.828125 -1.046875 1.828125 -1.578125 L 1.828125 -6.765625 C 1.828125 -7.296875 1.738281 -7.660156 1.5625 -7.859375 C 1.382812 -8.054688 1.0625 -8.15625 0.59375 -8.15625 L 0.515625 -8.15625 L 0.515625 -8.3125 L 3.28125 -8.3125 L 3.28125 -6.859375 L 3.3125 -6.859375 C 3.4375 -7.335938 3.628906 -7.691406 3.890625 -7.921875 C 4.160156 -8.148438 4.445312 -8.296875 4.75 -8.359375 C 5.0625 -8.429688 5.34375 -8.46875 5.59375 -8.46875 C 6.519531 -8.46875 7.207031 -8.226562 7.65625 -7.75 C 8.101562 -7.269531 8.328125 -6.5 8.328125 -5.4375 L 8.328125 -1.578125 C 8.328125 -1.046875 8.410156 -0.675781 8.578125 -0.46875 C 8.742188 -0.257812 9.050781 -0.15625 9.5 -0.15625 L 9.578125 -0.15625 L 9.578125 0 L 6.875 0 L 6.875 -5.953125 C 6.875 -6.628906 6.742188 -7.175781 6.484375 -7.59375 C 6.234375 -8.019531 5.8125 -8.234375 5.21875 -8.234375 C 4.726562 -8.234375 4.34375 -8.101562 4.0625 -7.84375 C 3.78125 -7.59375 3.582031 -7.257812 3.46875 -6.84375 C 3.351562 -6.4375 3.296875 -6.007812 3.296875 -5.5625 L 3.296875 -1.578125 C 3.296875 -1.046875 3.378906 -0.675781 3.546875 -0.46875 C 3.722656 -0.257812 4.050781 -0.15625 4.53125 -0.15625 L 4.609375 -0.15625 L 4.609375 0 Z M 0.4375 0 "/></g></g></g><g fill="#2b2b2b" fill-opacity="1"><g transform="translate(234.888596, 27.493012)"><g><path d="M 0.28125 0 L 0.28125 -0.15625 L 0.40625 -0.15625 C 0.863281 -0.15625 1.1875 -0.25 1.375 -0.4375 C 1.570312 -0.625 1.671875 -0.925781 1.671875 -1.34375 L 1.671875 -10.421875 C 1.671875 -10.859375 1.570312 -11.171875 1.375 -11.359375 C 1.1875 -11.546875 0.863281 -11.640625 0.40625 -11.640625 L 0.359375 -11.640625 L 0.359375 -11.796875 L 3.140625 -11.796875 L 3.140625 -5.375 C 3.140625 -5.0625 3.140625 -4.75 3.140625 -4.4375 C 3.140625 -4.132812 3.128906 -3.828125 3.109375 -3.515625 L 5.734375 -6.46875 C 6.242188 -7.039062 6.5 -7.445312 6.5 -7.6875 C 6.5 -7.851562 6.382812 -7.972656 6.15625 -8.046875 C 5.925781 -8.117188 5.578125 -8.15625 5.109375 -8.15625 L 5.109375 -8.3125 L 8.53125 -8.3125 L 8.53125 -8.15625 C 8.257812 -8.15625 8.023438 -8.128906 7.828125 -8.078125 C 7.640625 -8.023438 7.421875 -7.898438 7.171875 -7.703125 C 6.921875 -7.515625 6.597656 -7.195312 6.203125 -6.75 L 5 -5.390625 L 7.390625 -1.703125 C 7.691406 -1.222656 7.941406 -0.875 8.140625 -0.65625 C 8.335938 -0.4375 8.503906 -0.296875 8.640625 -0.234375 C 8.773438 -0.179688 8.910156 -0.15625 9.046875 -0.15625 L 9.09375 -0.15625 L 9.09375 0 L 8.40625 0 C 7.800781 0 7.328125 -0.0820312 6.984375 -0.25 C 6.640625 -0.414062 6.320312 -0.722656 6.03125 -1.171875 L 4.046875 -4.3125 L 3.140625 -3.296875 L 3.140625 -1.421875 C 3.140625 -0.972656 3.234375 -0.648438 3.421875 -0.453125 C 3.617188 -0.253906 3.945312 -0.15625 4.40625 -0.15625 L 4.453125 -0.15625 L 4.453125 0 Z M 0.28125 0 "/></g></g></g><g fill="#2b2b2b" fill-opacity="1"><g transform="translate(243.963586, 27.493012)"><g><path d="M 4.53125 0.15625 C 3.375 0.15625 2.472656 -0.210938 1.828125 -0.953125 C 1.179688 -1.703125 0.859375 -2.75 0.859375 -4.09375 C 0.859375 -5.539062 1.15625 -6.628906 1.75 -7.359375 C 2.34375 -8.097656 3.191406 -8.46875 4.296875 -8.46875 C 5.296875 -8.46875 6.082031 -8.15625 6.65625 -7.53125 C 7.238281 -6.914062 7.53125 -5.992188 7.53125 -4.765625 L 7.53125 -4.390625 L 2.359375 -4.390625 C 2.367188 -2.804688 2.539062 -1.675781 2.875 -1 C 3.207031 -0.332031 3.773438 0 4.578125 0 C 5.160156 0 5.648438 -0.160156 6.046875 -0.484375 C 6.441406 -0.804688 6.695312 -1.28125 6.8125 -1.90625 C 6.9375 -1.882812 7.03125 -1.820312 7.09375 -1.71875 C 7.15625 -1.613281 7.1875 -1.503906 7.1875 -1.390625 C 7.1875 -1.191406 7.085938 -0.96875 6.890625 -0.71875 C 6.691406 -0.476562 6.398438 -0.269531 6.015625 -0.09375 C 5.628906 0.0703125 5.132812 0.15625 4.53125 0.15625 Z M 2.359375 -4.546875 L 5.953125 -4.546875 C 5.953125 -5.898438 5.820312 -6.863281 5.5625 -7.4375 C 5.3125 -8.019531 4.878906 -8.3125 4.265625 -8.3125 C 3.640625 -8.3125 3.175781 -8.019531 2.875 -7.4375 C 2.582031 -6.863281 2.410156 -5.898438 2.359375 -4.546875 Z M 2.359375 -4.546875 "/></g></g></g><g fill="#2b2b2b" fill-opacity="1"><g transform="translate(252.262945, 27.493012)"><g><path d="M 0.4375 0 L 0.4375 -0.15625 L 0.5625 -0.15625 C 1.03125 -0.15625 1.359375 -0.257812 1.546875 -0.46875 C 1.734375 -0.675781 1.828125 -1.046875 1.828125 -1.578125 L 1.828125 -6.765625 C 1.828125 -7.296875 1.738281 -7.660156 1.5625 -7.859375 C 1.382812 -8.054688 1.0625 -8.15625 0.59375 -8.15625 L 0.515625 -8.15625 L 0.515625 -8.3125 L 3.28125 -8.3125 L 3.28125 -6.859375 L 3.3125 -6.859375 C 3.4375 -7.335938 3.628906 -7.691406 3.890625 -7.921875 C 4.160156 -8.148438 4.445312 -8.296875 4.75 -8.359375 C 5.0625 -8.429688 5.34375 -8.46875 5.59375 -8.46875 C 6.519531 -8.46875 7.207031 -8.226562 7.65625 -7.75 C 8.101562 -7.269531 8.328125 -6.5 8.328125 -5.4375 L 8.328125 -1.578125 C 8.328125 -1.046875 8.410156 -0.675781 8.578125 -0.46875 C 8.742188 -0.257812 9.050781 -0.15625 9.5 -0.15625 L 9.578125 -0.15625 L 9.578125 0 L 6.875 0 L 6.875 -5.953125 C 6.875 -6.628906 6.742188 -7.175781 6.484375 -7.59375 C 6.234375 -8.019531 5.8125 -8.234375 5.21875 -8.234375 C 4.726562 -8.234375 4.34375 -8.101562 4.0625 -7.84375 C 3.78125 -7.59375 3.582031 -7.257812 3.46875 -6.84375 C 3.351562 -6.4375 3.296875 -6.007812 3.296875 -5.5625 L 3.296875 -1.578125 C 3.296875 -1.046875 3.378906 -0.675781 3.546875 -0.46875 C 3.722656 -0.257812 4.050781 -0.15625 4.53125 -0.15625 L 4.609375 -0.15625 L 4.609375 0 Z M 0.4375 0 "/></g></g></g><g fill="#2b2b2b" fill-opacity="1"><g transform="translate(262.268723, 27.493012)"><g><path d="M 3.359375 -3.125 L 3.140625 -5.21875 C 3.921875 -5.289062 4.488281 -5.554688 4.84375 -6.015625 C 5.207031 -6.472656 5.390625 -7.222656 5.390625 -8.265625 C 5.390625 -9.210938 5.253906 -9.914062 4.984375 -10.375 C 4.710938 -10.84375 4.265625 -11.078125 3.640625 -11.078125 C 3.078125 -11.078125 2.65625 -10.875 2.375 -10.46875 C 2.09375 -10.0625 1.953125 -9.398438 1.953125 -8.484375 C 1.578125 -8.484375 1.269531 -8.570312 1.03125 -8.75 C 0.789062 -8.9375 0.671875 -9.207031 0.671875 -9.5625 C 0.671875 -10.03125 0.921875 -10.425781 1.421875 -10.75 C 1.929688 -11.070312 2.640625 -11.234375 3.546875 -11.234375 C 4.617188 -11.234375 5.457031 -10.988281 6.0625 -10.5 C 6.664062 -10.019531 6.96875 -9.316406 6.96875 -8.390625 C 6.96875 -7.585938 6.710938 -6.914062 6.203125 -6.375 C 5.691406 -5.84375 4.898438 -5.445312 3.828125 -5.1875 L 3.59375 -3.125 Z M 3.453125 0.109375 C 2.898438 0.109375 2.625 -0.242188 2.625 -0.953125 C 2.625 -1.648438 2.898438 -2 3.453125 -2 C 4.015625 -2 4.296875 -1.648438 4.296875 -0.953125 C 4.296875 -0.242188 4.015625 0.109375 3.453125 0.109375 Z M 3.453125 0.109375 "/></g></g></g></svg>