<svg xmlns="http://www.w3.org/2000/svg" viewBox="0 0 496 512">
  <path fill="currentColor" d="M248 8C111.03 8 0 119.03 0 256c0 110.28 69.8 204.06 167.12 237.95-2.32-20.21-4.45-51.22.92-73.35 4.85-20.46 31.22-130.27 31.22-130.27s-7.78-15.57-7.78-38.6c0-36.19 20.99-63.18 47.14-63.18 22.22 0 32.94 16.67 32.94 36.66 0 22.35-14.25 55.73-21.63 86.75-6.14 26.05 13.04 47.31 38.65 47.31 46.41 0 82.01-48.91 82.01-119.43 0-62.37-44.83-105.97-108.87-105.97-74.21 0-117.9 55.61-117.9 113.09 0 22.47 8.66 46.59 19.46 59.69 2.14 2.58 2.45 4.83 1.82 7.46-1.99 8.15-6.52 26.05-7.42 29.65-1.17 4.86-3.83 5.89-8.84 3.56-33.02-15.39-53.64-63.7-53.64-102.41 0-83.48 60.64-160.15 175.08-160.15 92.02 0 163.57 65.55 163.57 153.18 0 91.32-57.61 164.97-137.56 164.97-26.86 0-52.13-13.97-60.74-30.45l-16.53 63.13c-6.01 22.88-22.32 51.56-33.27 69.04C198.77 502.03 222.98 504 248 504c136.97 0 248-111.03 248-248S384.97 8 248 8z"></path>
</svg>
