<svg xmlns="http://www.w3.org/2000/svg" xmlns:xlink="http://www.w3.org/1999/xlink" width="1123" zoomAndPan="magnify" viewBox="0 0 842.25 595.499986" height="794" preserveAspectRatio="xMidYMid meet" version="1.0"><defs><g/><clipPath id="0589c3e609"><path d="M 0.945312 0.714844 L 320.820312 0.714844 L 320.820312 68.574219 L 0.945312 68.574219 Z M 0.945312 0.714844 " clip-rule="nonzero"/></clipPath><clipPath id="9730428d91"><rect x="0" width="321" y="0" height="69"/></clipPath><clipPath id="ccf8affaf4"><rect x="0" width="321" y="0" height="69"/></clipPath></defs><g transform="matrix(1, 0, 0, 1, 241, 247)"><g clip-path="url(#ccf8affaf4)"><g clip-path="url(#0589c3e609)"><g><g clip-path="url(#9730428d91)"><g fill="#2b2b2b" fill-opacity="1"><g transform="translate(1.027542, 49.243926)"><g><path d="M 11.640625 1.53125 C 10.992188 1.53125 10.347656 1.488281 9.703125 1.40625 C 9.066406 1.320312 8.429688 1.191406 7.796875 1.015625 C 6.398438 0.609375 5.222656 0.0664062 4.265625 -0.609375 C 3.304688 -1.296875 2.535156 -2.078125 1.953125 -2.953125 C 1.378906 -3.835938 0.96875 -4.773438 0.71875 -5.765625 C 0.46875 -6.753906 0.34375 -7.75 0.34375 -8.75 C 0.34375 -9.4375 0.390625 -10.109375 0.484375 -10.765625 C 0.660156 -11.984375 0.960938 -13.113281 1.390625 -14.15625 C 1.828125 -15.207031 2.359375 -16.148438 2.984375 -16.984375 C 3.609375 -17.828125 4.296875 -18.546875 5.046875 -19.140625 C 5.796875 -19.734375 6.582031 -20.1875 7.40625 -20.5 C 8.238281 -20.820312 9.066406 -20.984375 9.890625 -20.984375 C 10.160156 -20.984375 10.367188 -20.960938 10.515625 -20.921875 C 10.660156 -20.878906 10.734375 -20.835938 10.734375 -20.796875 C 10.734375 -20.703125 10.5 -20.65625 10.03125 -20.65625 L 9.8125 -20.65625 C 9.082031 -20.65625 8.347656 -20.507812 7.609375 -20.21875 C 6.867188 -19.9375 6.148438 -19.523438 5.453125 -18.984375 C 4.753906 -18.441406 4.109375 -17.789062 3.515625 -17.03125 C 2.929688 -16.269531 2.421875 -15.414062 1.984375 -14.46875 C 1.546875 -13.519531 1.222656 -12.5 1.015625 -11.40625 C 0.867188 -10.71875 0.796875 -9.972656 0.796875 -9.171875 C 0.796875 -8.460938 0.863281 -7.738281 1 -7 C 1.144531 -6.257812 1.378906 -5.535156 1.703125 -4.828125 C 2.023438 -4.117188 2.453125 -3.457031 2.984375 -2.84375 C 3.523438 -2.238281 4.191406 -1.710938 4.984375 -1.265625 C 5.671875 -0.890625 6.394531 -0.609375 7.15625 -0.421875 C 7.925781 -0.242188 8.722656 -0.15625 9.546875 -0.15625 C 10.535156 -0.15625 11.546875 -0.269531 12.578125 -0.5 C 13.617188 -0.726562 14.660156 -1.050781 15.703125 -1.46875 C 16.742188 -1.894531 17.765625 -2.390625 18.765625 -2.953125 C 19.773438 -3.515625 20.742188 -4.132812 21.671875 -4.8125 C 22.609375 -5.5 23.476562 -6.21875 24.28125 -6.96875 C 25.875 -8.425781 27.273438 -9.882812 28.484375 -11.34375 C 29.691406 -12.8125 30.75 -14.257812 31.65625 -15.6875 C 32.570312 -17.113281 33.363281 -18.503906 34.03125 -19.859375 C 34.695312 -21.210938 35.28125 -22.515625 35.78125 -23.765625 C 36.28125 -25.023438 36.722656 -26.21875 37.109375 -27.34375 C 37.503906 -28.46875 37.878906 -29.507812 38.234375 -30.46875 C 38.585938 -31.4375 38.957031 -32.304688 39.34375 -33.078125 C 38.550781 -33.453125 37.734375 -33.832031 36.890625 -34.21875 C 36.054688 -34.613281 35.179688 -34.992188 34.265625 -35.359375 C 33.359375 -35.734375 32.394531 -36.066406 31.375 -36.359375 C 30.09375 -36.734375 28.898438 -37.003906 27.796875 -37.171875 C 26.691406 -37.347656 25.671875 -37.4375 24.734375 -37.4375 C 23.453125 -37.4375 22.3125 -37.296875 21.3125 -37.015625 C 20.320312 -36.734375 19.453125 -36.34375 18.703125 -35.84375 C 17.960938 -35.351562 17.328125 -34.78125 16.796875 -34.125 C 16.273438 -33.476562 15.847656 -32.78125 15.515625 -32.03125 C 15.179688 -31.289062 14.921875 -30.53125 14.734375 -29.75 C 14.554688 -28.96875 14.429688 -28.203125 14.359375 -27.453125 C 14.359375 -27.453125 14.335938 -27.425781 14.296875 -27.375 C 14.253906 -27.332031 14.210938 -27.3125 14.171875 -27.3125 C 14.109375 -27.3125 14.078125 -27.394531 14.078125 -27.5625 C 14.085938 -28.8125 14.273438 -30 14.640625 -31.125 C 15.015625 -32.25 15.539062 -33.273438 16.21875 -34.203125 C 16.894531 -35.140625 17.703125 -35.945312 18.640625 -36.625 C 19.578125 -37.3125 20.625 -37.84375 21.78125 -38.21875 C 22.945312 -38.601562 24.203125 -38.796875 25.546875 -38.796875 C 26.503906 -38.796875 27.503906 -38.6875 28.546875 -38.46875 C 29.597656 -38.257812 30.675781 -37.925781 31.78125 -37.46875 C 32.550781 -37.144531 33.367188 -36.769531 34.234375 -36.34375 C 35.109375 -35.925781 36.003906 -35.488281 36.921875 -35.03125 C 37.835938 -34.582031 38.757812 -34.148438 39.6875 -33.734375 C 40.050781 -34.390625 40.460938 -34.945312 40.921875 -35.40625 C 41.390625 -35.863281 41.925781 -36.210938 42.53125 -36.453125 C 43.132812 -36.703125 43.832031 -36.828125 44.625 -36.828125 C 44.914062 -36.828125 45.222656 -36.804688 45.546875 -36.765625 C 45.867188 -36.734375 46.210938 -36.6875 46.578125 -36.625 C 47.285156 -36.488281 47.914062 -36.25 48.46875 -35.90625 C 49.03125 -35.5625 49.46875 -35.171875 49.78125 -34.734375 C 50.09375 -34.296875 50.25 -33.847656 50.25 -33.390625 C 50.25 -32.941406 50.0625 -32.523438 49.6875 -32.140625 C 49.3125 -31.753906 48.691406 -31.46875 47.828125 -31.28125 C 47.253906 -31.15625 46.675781 -31.09375 46.09375 -31.09375 C 45.144531 -31.09375 44.1875 -31.238281 43.21875 -31.53125 C 42.257812 -31.832031 41.265625 -32.210938 40.234375 -32.671875 C 39.847656 -31.835938 39.484375 -30.882812 39.140625 -29.8125 C 38.804688 -28.738281 38.457031 -27.578125 38.09375 -26.328125 C 37.738281 -25.078125 37.328125 -23.753906 36.859375 -22.359375 C 36.398438 -20.972656 35.847656 -19.539062 35.203125 -18.0625 C 34.566406 -16.582031 33.800781 -15.078125 32.90625 -13.546875 C 32.019531 -12.023438 30.96875 -10.5 29.75 -8.96875 C 28.539062 -7.4375 27.128906 -5.925781 25.515625 -4.4375 C 24.554688 -3.550781 23.523438 -2.738281 22.421875 -2 C 21.316406 -1.269531 20.171875 -0.640625 18.984375 -0.109375 C 17.796875 0.410156 16.582031 0.8125 15.34375 1.09375 C 14.113281 1.382812 12.878906 1.53125 11.640625 1.53125 Z M 46.546875 -31.75 C 46.867188 -31.75 47.179688 -31.773438 47.484375 -31.828125 C 48.273438 -31.960938 48.84375 -32.191406 49.1875 -32.515625 C 49.539062 -32.835938 49.71875 -33.191406 49.71875 -33.578125 C 49.71875 -33.953125 49.570312 -34.328125 49.28125 -34.703125 C 49 -35.078125 48.601562 -35.410156 48.09375 -35.703125 C 47.59375 -35.992188 47.015625 -36.191406 46.359375 -36.296875 C 46.140625 -36.328125 45.925781 -36.347656 45.71875 -36.359375 C 45.519531 -36.378906 45.328125 -36.390625 45.140625 -36.390625 C 44.035156 -36.390625 43.125 -36.125 42.40625 -35.59375 C 41.695312 -35.0625 41.082031 -34.3125 40.5625 -33.34375 C 41.65625 -32.882812 42.710938 -32.503906 43.734375 -32.203125 C 44.753906 -31.898438 45.691406 -31.75 46.546875 -31.75 Z M 46.546875 -31.75 "/></g></g></g><g fill="#2b2b2b" fill-opacity="1"><g transform="translate(38.282478, 49.243926)"><g><path d="M 1.578125 -1.5625 C 0.671875 -1.5625 -0.0390625 -1.804688 -0.5625 -2.296875 C -1.082031 -2.785156 -1.34375 -3.515625 -1.34375 -4.484375 C -1.34375 -5.328125 -1.125 -6.34375 -0.6875 -7.53125 C -0.25 -8.726562 0.445312 -10.09375 1.40625 -11.625 C 2.957031 -14.09375 4.660156 -16.425781 6.515625 -18.625 C 8.378906 -20.820312 10.304688 -22.84375 12.296875 -24.6875 C 11.867188 -24.726562 11.441406 -24.757812 11.015625 -24.78125 C 10.597656 -24.800781 10.1875 -24.8125 9.78125 -24.8125 C 9.519531 -24.8125 9.257812 -24.800781 9 -24.78125 C 8.738281 -24.769531 8.472656 -24.757812 8.203125 -24.75 C 7.890625 -24.71875 7.578125 -24.675781 7.265625 -24.625 C 6.960938 -24.582031 6.660156 -24.515625 6.359375 -24.421875 C 5.753906 -24.273438 5.1875 -24.046875 4.65625 -23.734375 C 4.394531 -23.578125 4.15625 -23.394531 3.9375 -23.1875 C 3.71875 -22.976562 3.566406 -22.742188 3.484375 -22.484375 C 3.453125 -22.378906 3.4375 -22.269531 3.4375 -22.15625 C 3.4375 -21.945312 3.488281 -21.738281 3.59375 -21.53125 C 3.707031 -21.332031 3.847656 -21.15625 4.015625 -21 C 4.066406 -20.9375 4.09375 -20.875 4.09375 -20.8125 C 4.09375 -20.75 4.070312 -20.695312 4.03125 -20.65625 C 3.96875 -20.59375 3.90625 -20.5625 3.84375 -20.5625 C 3.800781 -20.5625 3.75 -20.582031 3.6875 -20.625 C 3.5625 -20.75 3.445312 -20.878906 3.34375 -21.015625 C 3.238281 -21.148438 3.148438 -21.316406 3.078125 -21.515625 C 3.003906 -21.710938 2.96875 -21.914062 2.96875 -22.125 C 2.96875 -22.289062 2.992188 -22.453125 3.046875 -22.609375 C 3.148438 -22.972656 3.332031 -23.273438 3.59375 -23.515625 C 3.851562 -23.765625 4.125 -23.972656 4.40625 -24.140625 C 4.695312 -24.316406 4.992188 -24.460938 5.296875 -24.578125 C 5.609375 -24.703125 5.921875 -24.804688 6.234375 -24.890625 C 6.546875 -24.984375 6.863281 -25.054688 7.1875 -25.109375 C 7.507812 -25.171875 7.832031 -25.222656 8.15625 -25.265625 C 8.488281 -25.296875 8.820312 -25.320312 9.15625 -25.34375 C 9.488281 -25.363281 9.816406 -25.375 10.140625 -25.375 C 10.597656 -25.375 11.054688 -25.359375 11.515625 -25.328125 C 11.972656 -25.304688 12.429688 -25.273438 12.890625 -25.234375 C 14.410156 -26.609375 15.941406 -27.867188 17.484375 -29.015625 C 19.023438 -30.171875 20.539062 -31.191406 22.03125 -32.078125 C 23.519531 -32.972656 24.953125 -33.722656 26.328125 -34.328125 C 27.710938 -34.941406 29.003906 -35.390625 30.203125 -35.671875 C 30.390625 -35.671875 30.519531 -35.628906 30.59375 -35.546875 C 30.664062 -35.472656 30.703125 -35.378906 30.703125 -35.265625 C 30.703125 -35.097656 30.640625 -34.914062 30.515625 -34.71875 C 30.398438 -34.53125 30.269531 -34.398438 30.125 -34.328125 C 29.53125 -34.171875 28.738281 -33.851562 27.75 -33.375 C 26.769531 -32.90625 25.640625 -32.273438 24.359375 -31.484375 C 23.078125 -30.703125 21.695312 -29.765625 20.21875 -28.671875 C 18.738281 -27.585938 17.210938 -26.347656 15.640625 -24.953125 L 15.875 -24.953125 C 16.84375 -24.835938 17.816406 -24.734375 18.796875 -24.640625 C 19.773438 -24.554688 20.742188 -24.515625 21.703125 -24.515625 C 21.992188 -24.515625 22.285156 -24.519531 22.578125 -24.53125 C 22.878906 -24.539062 23.175781 -24.554688 23.46875 -24.578125 C 24.082031 -24.617188 24.695312 -24.691406 25.3125 -24.796875 C 25.9375 -24.910156 26.539062 -25.070312 27.125 -25.28125 C 27.269531 -25.332031 27.414062 -25.382812 27.5625 -25.4375 C 27.707031 -25.488281 27.851562 -25.546875 28 -25.609375 C 28.144531 -25.671875 28.285156 -25.734375 28.421875 -25.796875 C 28.566406 -25.867188 28.703125 -25.9375 28.828125 -26 C 29.109375 -26.144531 29.375 -26.300781 29.625 -26.46875 C 29.882812 -26.632812 30.171875 -26.769531 30.484375 -26.875 C 30.515625 -26.894531 30.53125 -26.898438 30.53125 -26.890625 C 30.53125 -26.890625 30.546875 -26.894531 30.578125 -26.90625 C 30.628906 -26.90625 30.675781 -26.890625 30.71875 -26.859375 C 30.769531 -26.828125 30.800781 -26.785156 30.8125 -26.734375 C 30.820312 -26.710938 30.828125 -26.679688 30.828125 -26.640625 C 30.828125 -26.578125 30.8125 -26.523438 30.78125 -26.484375 C 30.675781 -26.359375 30.5625 -26.234375 30.4375 -26.109375 C 30.320312 -25.992188 30.195312 -25.894531 30.0625 -25.8125 C 29.925781 -25.726562 29.785156 -25.640625 29.640625 -25.546875 C 29.492188 -25.453125 29.347656 -25.375 29.203125 -25.3125 C 29.054688 -25.226562 28.90625 -25.148438 28.75 -25.078125 C 28.601562 -25.015625 28.453125 -24.953125 28.296875 -24.890625 C 28.148438 -24.828125 28 -24.765625 27.84375 -24.703125 C 27.6875 -24.648438 27.53125 -24.597656 27.375 -24.546875 C 26.738281 -24.335938 26.097656 -24.175781 25.453125 -24.0625 C 24.804688 -23.957031 24.160156 -23.882812 23.515625 -23.84375 C 23.253906 -23.832031 22.992188 -23.820312 22.734375 -23.8125 C 22.484375 -23.800781 22.222656 -23.796875 21.953125 -23.796875 C 20.921875 -23.796875 19.890625 -23.847656 18.859375 -23.953125 C 17.828125 -24.054688 16.804688 -24.171875 15.796875 -24.296875 L 15.015625 -24.390625 C 13.660156 -23.160156 12.296875 -21.828125 10.921875 -20.390625 C 9.554688 -18.953125 8.210938 -17.410156 6.890625 -15.765625 C 5.578125 -14.117188 4.316406 -12.363281 3.109375 -10.5 C 2.054688 -8.863281 1.296875 -7.488281 0.828125 -6.375 C 0.359375 -5.257812 0.125 -4.363281 0.125 -3.6875 C 0.125 -3.101562 0.28125 -2.671875 0.59375 -2.390625 C 0.914062 -2.117188 1.351562 -1.984375 1.90625 -1.984375 C 2.5 -1.984375 3.195312 -2.125 4 -2.40625 C 4.8125 -2.6875 5.675781 -3.082031 6.59375 -3.59375 C 7.519531 -4.113281 8.46875 -4.71875 9.4375 -5.40625 C 10.40625 -6.101562 11.351562 -6.867188 12.28125 -7.703125 C 12.332031 -7.753906 12.378906 -7.78125 12.421875 -7.78125 C 12.460938 -7.78125 12.484375 -7.765625 12.484375 -7.734375 L 12.484375 -7.6875 C 11.046875 -6.3125 9.65625 -5.171875 8.3125 -4.265625 C 6.976562 -3.359375 5.738281 -2.679688 4.59375 -2.234375 C 3.445312 -1.785156 2.441406 -1.5625 1.578125 -1.5625 Z M 1.578125 -1.5625 "/></g></g></g><g fill="#2b2b2b" fill-opacity="1"><g transform="translate(50.177127, 49.243926)"><g><path d="M 2.59375 -1.65625 C 2.4375 -1.65625 2.28125 -1.660156 2.125 -1.671875 C 1.96875 -1.679688 1.816406 -1.691406 1.671875 -1.703125 C 0.890625 -1.796875 0.257812 -1.984375 -0.21875 -2.265625 C -0.707031 -2.546875 -1.0625 -2.890625 -1.28125 -3.296875 C -1.5 -3.710938 -1.609375 -4.175781 -1.609375 -4.6875 C -1.609375 -5.28125 -1.472656 -5.914062 -1.203125 -6.59375 C -0.941406 -7.269531 -0.578125 -7.945312 -0.109375 -8.625 C 0.347656 -9.3125 0.878906 -9.960938 1.484375 -10.578125 C 2.097656 -11.191406 2.75 -11.738281 3.4375 -12.21875 C 4.125 -12.707031 4.816406 -13.085938 5.515625 -13.359375 C 6.222656 -13.640625 6.910156 -13.78125 7.578125 -13.78125 C 8.003906 -13.78125 8.40625 -13.71875 8.78125 -13.59375 C 9.28125 -13.425781 9.632812 -13.203125 9.84375 -12.921875 C 10.0625 -12.648438 10.171875 -12.34375 10.171875 -12 C 10.171875 -11.625 10.066406 -11.226562 9.859375 -10.8125 C 9.660156 -10.40625 9.40625 -10 9.09375 -9.59375 C 8.789062 -9.195312 8.46875 -8.835938 8.125 -8.515625 C 7.78125 -8.191406 7.472656 -7.929688 7.203125 -7.734375 C 6.742188 -7.398438 6.222656 -7.085938 5.640625 -6.796875 C 5.066406 -6.503906 4.488281 -6.269531 3.90625 -6.09375 C 3.332031 -5.914062 2.804688 -5.828125 2.328125 -5.828125 C 1.984375 -5.828125 1.679688 -5.878906 1.421875 -5.984375 C 1.171875 -6.097656 0.988281 -6.28125 0.875 -6.53125 C 0.625 -6.125 0.425781 -5.71875 0.28125 -5.3125 C 0.132812 -4.90625 0.0625 -4.503906 0.0625 -4.109375 C 0.0625 -3.398438 0.289062 -2.898438 0.75 -2.609375 C 1.21875 -2.328125 1.820312 -2.1875 2.5625 -2.1875 C 3 -2.1875 3.441406 -2.21875 3.890625 -2.28125 C 4.335938 -2.351562 4.757812 -2.441406 5.15625 -2.546875 C 5.550781 -2.660156 5.882812 -2.765625 6.15625 -2.859375 C 7.300781 -3.253906 8.382812 -3.722656 9.40625 -4.265625 C 10.4375 -4.804688 11.445312 -5.375 12.4375 -5.96875 C 13.4375 -6.570312 14.460938 -7.160156 15.515625 -7.734375 C 15.597656 -7.773438 15.671875 -7.796875 15.734375 -7.796875 C 15.734375 -7.785156 15.710938 -7.765625 15.671875 -7.734375 C 13.910156 -6.460938 12.257812 -5.375 10.71875 -4.46875 C 9.1875 -3.5625 7.742188 -2.863281 6.390625 -2.375 C 5.046875 -1.894531 3.78125 -1.65625 2.59375 -1.65625 Z M 2.34375 -6.125 C 2.695312 -6.125 3.101562 -6.195312 3.5625 -6.34375 C 4.03125 -6.488281 4.515625 -6.691406 5.015625 -6.953125 C 5.523438 -7.222656 6.023438 -7.523438 6.515625 -7.859375 C 7.234375 -8.359375 7.789062 -8.851562 8.1875 -9.34375 C 8.582031 -9.832031 8.863281 -10.28125 9.03125 -10.6875 C 9.195312 -11.09375 9.28125 -11.425781 9.28125 -11.6875 C 9.28125 -11.9375 9.21875 -12.097656 9.09375 -12.171875 C 8.976562 -12.253906 8.828125 -12.296875 8.640625 -12.296875 C 8.328125 -12.296875 7.929688 -12.203125 7.453125 -12.015625 C 6.984375 -11.828125 6.460938 -11.5625 5.890625 -11.21875 C 5.328125 -10.875 4.753906 -10.476562 4.171875 -10.03125 C 3.585938 -9.582031 3.035156 -9.097656 2.515625 -8.578125 C 2.003906 -8.054688 1.550781 -7.515625 1.15625 -6.953125 C 1.207031 -6.660156 1.335938 -6.445312 1.546875 -6.3125 C 1.765625 -6.1875 2.03125 -6.125 2.34375 -6.125 Z M 2.34375 -6.125 "/></g></g></g><g fill="#2b2b2b" fill-opacity="1"><g transform="translate(65.06414, 49.243926)"><g><path d="M -5.28125 8.3125 C -6.09375 8.3125 -6.671875 8.125 -7.015625 7.75 C -7.367188 7.375 -7.546875 6.859375 -7.546875 6.203125 C -7.546875 5.585938 -7.410156 4.867188 -7.140625 4.046875 C -6.878906 3.222656 -6.515625 2.328125 -6.046875 1.359375 C -5.585938 0.398438 -5.066406 -0.59375 -4.484375 -1.625 C -4.003906 -2.46875 -3.519531 -3.28125 -3.03125 -4.0625 C -2.550781 -4.84375 -2.066406 -5.609375 -1.578125 -6.359375 C -0.640625 -7.878906 0.351562 -9.394531 1.40625 -10.90625 C 2.457031 -12.425781 3.539062 -13.90625 4.65625 -15.34375 C 5.78125 -16.789062 6.898438 -18.160156 8.015625 -19.453125 C 8.722656 -20.265625 9.445312 -21.066406 10.1875 -21.859375 C 10.925781 -22.648438 11.671875 -23.429688 12.421875 -24.203125 C 10.773438 -24.148438 9.128906 -23.984375 7.484375 -23.703125 C 5.847656 -23.421875 4.226562 -22.929688 2.625 -22.234375 C 1.65625 -21.804688 0.726562 -21.285156 -0.15625 -20.671875 C -1.039062 -20.066406 -1.820312 -19.351562 -2.5 -18.53125 C -2.539062 -18.46875 -2.601562 -18.4375 -2.6875 -18.4375 C -2.738281 -18.4375 -2.789062 -18.460938 -2.84375 -18.515625 C -2.894531 -18.566406 -2.921875 -18.625 -2.921875 -18.6875 C -2.921875 -18.75 -2.90625 -18.800781 -2.875 -18.84375 C -2.164062 -19.675781 -1.363281 -20.40625 -0.46875 -21.03125 C 0.414062 -21.664062 1.367188 -22.195312 2.390625 -22.625 C 3.410156 -23.0625 4.457031 -23.421875 5.53125 -23.703125 C 6.613281 -23.992188 7.6875 -24.21875 8.75 -24.375 C 9.445312 -24.46875 10.144531 -24.539062 10.84375 -24.59375 C 11.539062 -24.65625 12.238281 -24.691406 12.9375 -24.703125 C 14.4375 -26.160156 16 -27.550781 17.625 -28.875 C 19.25 -30.195312 20.957031 -31.40625 22.75 -32.5 C 23.65625 -33.050781 24.601562 -33.570312 25.59375 -34.0625 C 26.582031 -34.5625 27.613281 -34.992188 28.6875 -35.359375 C 29.757812 -35.722656 30.863281 -35.988281 32 -36.15625 C 32.289062 -36.195312 32.582031 -36.226562 32.875 -36.25 C 33.175781 -36.28125 33.472656 -36.296875 33.765625 -36.296875 C 34.304688 -36.296875 34.867188 -36.242188 35.453125 -36.140625 C 36.046875 -36.035156 36.609375 -35.851562 37.140625 -35.59375 C 37.679688 -35.332031 38.148438 -34.976562 38.546875 -34.53125 C 38.835938 -34.207031 39.0625 -33.84375 39.21875 -33.4375 C 39.375 -33.03125 39.453125 -32.617188 39.453125 -32.203125 C 39.453125 -31.648438 39.359375 -31.128906 39.171875 -30.640625 C 38.984375 -30.160156 38.734375 -29.710938 38.421875 -29.296875 C 38.109375 -28.890625 37.769531 -28.523438 37.40625 -28.203125 C 36.976562 -27.828125 36.523438 -27.492188 36.046875 -27.203125 C 35.566406 -26.910156 35.078125 -26.644531 34.578125 -26.40625 C 33.578125 -25.9375 32.539062 -25.554688 31.46875 -25.265625 C 30.40625 -24.984375 29.34375 -24.753906 28.28125 -24.578125 C 27.03125 -24.367188 25.753906 -24.21875 24.453125 -24.125 C 23.160156 -24.039062 21.867188 -24 20.578125 -24 C 19.703125 -24 18.832031 -24.019531 17.96875 -24.0625 C 17.113281 -24.101562 16.253906 -24.144531 15.390625 -24.1875 L 13.984375 -22.78125 C 12.960938 -21.71875 11.992188 -20.660156 11.078125 -19.609375 C 10.171875 -18.554688 9.273438 -17.488281 8.390625 -16.40625 C 7.503906 -15.320312 6.59375 -14.1875 5.65625 -13 L 3.765625 -10.53125 C 3.578125 -10.269531 3.394531 -10.007812 3.21875 -9.75 C 3.039062 -9.5 2.863281 -9.238281 2.6875 -8.96875 C 2.8125 -9 2.929688 -9.015625 3.046875 -9.015625 C 3.484375 -9.015625 3.867188 -8.875 4.203125 -8.59375 C 4.546875 -8.3125 4.8125 -7.941406 5 -7.484375 C 5.195312 -7.023438 5.296875 -6.523438 5.296875 -5.984375 C 5.296875 -5.421875 5.203125 -4.800781 5.015625 -4.125 C 4.835938 -3.457031 4.585938 -2.769531 4.265625 -2.0625 C 4.453125 -2.019531 4.59375 -1.988281 4.6875 -1.96875 C 4.789062 -1.957031 4.945312 -1.953125 5.15625 -1.953125 C 5.832031 -1.953125 6.566406 -2.09375 7.359375 -2.375 C 8.148438 -2.65625 8.945312 -3.046875 9.75 -3.546875 C 10.5625 -4.046875 11.34375 -4.632812 12.09375 -5.3125 C 12.84375 -6 13.507812 -6.742188 14.09375 -7.546875 C 14.164062 -7.640625 14.238281 -7.6875 14.3125 -7.6875 C 14.375 -7.6875 14.40625 -7.660156 14.40625 -7.609375 C 14.40625 -7.554688 14.382812 -7.503906 14.34375 -7.453125 C 13.757812 -6.734375 13.101562 -6.023438 12.375 -5.328125 C 11.65625 -4.628906 10.882812 -3.992188 10.0625 -3.421875 C 9.25 -2.859375 8.410156 -2.410156 7.546875 -2.078125 C 6.679688 -1.742188 5.804688 -1.578125 4.921875 -1.578125 C 4.785156 -1.578125 4.644531 -1.582031 4.5 -1.59375 C 4.351562 -1.601562 4.210938 -1.617188 4.078125 -1.640625 C 3.703125 -0.859375 3.269531 -0.0703125 2.78125 0.71875 C 2.289062 1.519531 1.757812 2.289062 1.1875 3.03125 C 0.625 3.78125 0.046875 4.472656 -0.546875 5.109375 C -1.140625 5.742188 -1.722656 6.300781 -2.296875 6.78125 C -2.867188 7.257812 -3.410156 7.632812 -3.921875 7.90625 C -4.429688 8.175781 -4.882812 8.3125 -5.28125 8.3125 Z M -5.453125 7.859375 C -5.210938 7.859375 -4.894531 7.78125 -4.5 7.625 C -4.113281 7.476562 -3.644531 7.210938 -3.09375 6.828125 C -2.550781 6.441406 -1.929688 5.898438 -1.234375 5.203125 C -0.546875 4.503906 0.207031 3.601562 1.03125 2.5 C 1.425781 1.96875 1.863281 1.335938 2.34375 0.609375 C 2.832031 -0.117188 3.273438 -0.890625 3.671875 -1.703125 C 3.335938 -1.773438 3.019531 -1.867188 2.71875 -1.984375 C 2.175781 -2.203125 1.742188 -2.492188 1.421875 -2.859375 C 1.097656 -3.234375 0.859375 -3.625 0.703125 -4.03125 C 0.554688 -4.445312 0.46875 -4.816406 0.4375 -5.140625 L 0.40625 -5.390625 L 0.421875 -5.609375 C -0.273438 -4.523438 -0.945312 -3.457031 -1.59375 -2.40625 C -2.238281 -1.351562 -2.828125 -0.34375 -3.359375 0.625 C -3.898438 1.601562 -4.375 2.507812 -4.78125 3.34375 C -5.1875 4.1875 -5.5 4.929688 -5.71875 5.578125 C -5.9375 6.222656 -6.046875 6.742188 -6.046875 7.140625 C -6.046875 7.390625 -6 7.578125 -5.90625 7.703125 C -5.832031 7.804688 -5.679688 7.859375 -5.453125 7.859375 Z M 3.890625 -2.15625 C 4.148438 -2.75 4.363281 -3.347656 4.53125 -3.953125 C 4.707031 -4.566406 4.796875 -5.148438 4.796875 -5.703125 L 4.78125 -6.171875 C 4.707031 -6.785156 4.535156 -7.238281 4.265625 -7.53125 C 4.003906 -7.820312 3.710938 -7.96875 3.390625 -7.96875 C 3.109375 -7.96875 2.828125 -7.863281 2.546875 -7.65625 C 2.265625 -7.445312 2.03125 -7.148438 1.84375 -6.765625 C 1.664062 -6.378906 1.578125 -5.914062 1.578125 -5.375 C 1.578125 -4.726562 1.6875 -4.1875 1.90625 -3.75 C 2.132812 -3.320312 2.421875 -2.976562 2.765625 -2.71875 C 3.117188 -2.46875 3.492188 -2.28125 3.890625 -2.15625 Z M 20.1875 -24.546875 C 21.519531 -24.546875 22.859375 -24.597656 24.203125 -24.703125 C 25.554688 -24.816406 26.875 -24.988281 28.15625 -25.21875 C 29.207031 -25.40625 30.25 -25.648438 31.28125 -25.953125 C 32.3125 -26.253906 33.300781 -26.640625 34.25 -27.109375 C 34.882812 -27.421875 35.492188 -27.78125 36.078125 -28.1875 C 36.671875 -28.601562 37.179688 -29.066406 37.609375 -29.578125 C 38.035156 -30.097656 38.316406 -30.671875 38.453125 -31.296875 C 38.523438 -31.554688 38.5625 -31.804688 38.5625 -32.046875 C 38.5625 -32.765625 38.316406 -33.378906 37.828125 -33.890625 C 37.390625 -34.347656 36.828125 -34.675781 36.140625 -34.875 C 35.460938 -35.082031 34.769531 -35.1875 34.0625 -35.1875 C 33.238281 -35.1875 32.414062 -35.082031 31.59375 -34.875 C 30.769531 -34.675781 29.96875 -34.429688 29.1875 -34.140625 C 28.207031 -33.753906 27.253906 -33.304688 26.328125 -32.796875 C 25.410156 -32.285156 24.507812 -31.734375 23.625 -31.140625 C 22.238281 -30.203125 20.898438 -29.1875 19.609375 -28.09375 C 18.328125 -27 17.082031 -25.859375 15.875 -24.671875 C 16.59375 -24.640625 17.3125 -24.609375 18.03125 -24.578125 C 18.75 -24.554688 19.46875 -24.546875 20.1875 -24.546875 Z M 20.1875 -24.546875 "/></g></g></g><g fill="#2b2b2b" fill-opacity="1"><g transform="translate(78.991112, 49.243926)"><g><path d="M 9.578125 -1.546875 C 8.847656 -1.546875 8.300781 -1.707031 7.9375 -2.03125 C 7.570312 -2.363281 7.390625 -2.828125 7.390625 -3.421875 C 7.390625 -3.835938 7.460938 -4.285156 7.609375 -4.765625 C 7.753906 -5.253906 7.945312 -5.765625 8.1875 -6.296875 C 8.4375 -6.835938 8.710938 -7.382812 9.015625 -7.9375 C 9.328125 -8.488281 9.644531 -9.023438 9.96875 -9.546875 C 9.445312 -8.972656 8.890625 -8.382812 8.296875 -7.78125 C 7.703125 -7.175781 7.085938 -6.59375 6.453125 -6.03125 C 5.828125 -5.476562 5.195312 -4.976562 4.5625 -4.53125 C 3.925781 -4.082031 3.304688 -3.726562 2.703125 -3.46875 C 2.109375 -3.207031 1.535156 -3.078125 0.984375 -3.078125 C 0.597656 -3.078125 0.234375 -3.15625 -0.109375 -3.3125 C -0.554688 -3.519531 -0.878906 -3.78125 -1.078125 -4.09375 C -1.285156 -4.414062 -1.390625 -4.78125 -1.390625 -5.1875 C -1.390625 -5.6875 -1.257812 -6.234375 -1 -6.828125 C -0.75 -7.429688 -0.414062 -8.0625 0 -8.71875 C 0.320312 -9.238281 0.722656 -9.769531 1.203125 -10.3125 C 1.679688 -10.863281 2.242188 -11.394531 2.890625 -11.90625 C 3.535156 -12.414062 4.265625 -12.859375 5.078125 -13.234375 C 5.535156 -13.441406 5.992188 -13.59375 6.453125 -13.6875 C 6.921875 -13.789062 7.367188 -13.84375 7.796875 -13.84375 C 8.347656 -13.84375 8.851562 -13.757812 9.3125 -13.59375 C 9.769531 -13.425781 10.144531 -13.1875 10.4375 -12.875 C 10.726562 -12.570312 10.90625 -12.203125 10.96875 -11.765625 C 11.21875 -12.054688 11.445312 -12.316406 11.65625 -12.546875 C 11.863281 -12.773438 12.039062 -12.96875 12.1875 -13.125 C 12.25 -13.1875 12.328125 -13.21875 12.421875 -13.21875 C 12.566406 -13.21875 12.726562 -13.140625 12.90625 -12.984375 C 13.082031 -12.828125 13.234375 -12.632812 13.359375 -12.40625 C 13.484375 -12.175781 13.546875 -11.9375 13.546875 -11.6875 C 13.546875 -11.476562 13.5 -11.289062 13.40625 -11.125 C 13.175781 -10.757812 12.882812 -10.328125 12.53125 -9.828125 C 12.175781 -9.335938 11.800781 -8.804688 11.40625 -8.234375 C 11.019531 -7.671875 10.65625 -7.097656 10.3125 -6.515625 C 9.96875 -5.929688 9.6875 -5.375 9.46875 -4.84375 C 9.25 -4.3125 9.140625 -3.820312 9.140625 -3.375 C 9.140625 -3.0625 9.234375 -2.78125 9.421875 -2.53125 C 9.617188 -2.28125 9.945312 -2.15625 10.40625 -2.15625 C 10.800781 -2.15625 11.269531 -2.234375 11.8125 -2.390625 C 12.351562 -2.554688 12.9375 -2.78125 13.5625 -3.0625 C 14.195312 -3.351562 14.84375 -3.679688 15.5 -4.046875 C 16.15625 -4.421875 16.789062 -4.8125 17.40625 -5.21875 C 18.019531 -5.632812 18.582031 -6.050781 19.09375 -6.46875 C 19.613281 -6.882812 20.046875 -7.285156 20.390625 -7.671875 C 20.472656 -7.753906 20.554688 -7.796875 20.640625 -7.796875 C 20.710938 -7.796875 20.75 -7.765625 20.75 -7.703125 C 20.75 -7.671875 20.734375 -7.640625 20.703125 -7.609375 C 20.421875 -7.285156 20.03125 -6.914062 19.53125 -6.5 C 19.03125 -6.082031 18.457031 -5.644531 17.8125 -5.1875 C 17.175781 -4.738281 16.5 -4.296875 15.78125 -3.859375 C 15.0625 -3.429688 14.332031 -3.039062 13.59375 -2.6875 C 12.863281 -2.34375 12.15625 -2.066406 11.46875 -1.859375 C 10.78125 -1.648438 10.148438 -1.546875 9.578125 -1.546875 Z M 1.328125 -3.859375 C 1.585938 -3.859375 1.898438 -3.929688 2.265625 -4.078125 C 2.628906 -4.222656 3.019531 -4.414062 3.4375 -4.65625 C 3.863281 -4.90625 4.285156 -5.175781 4.703125 -5.46875 C 5.117188 -5.757812 5.507812 -6.050781 5.875 -6.34375 C 6.332031 -6.71875 6.816406 -7.164062 7.328125 -7.6875 C 7.847656 -8.21875 8.363281 -8.773438 8.875 -9.359375 C 9.394531 -9.941406 9.878906 -10.5 10.328125 -11.03125 C 10.328125 -11.65625 10.175781 -12.097656 9.875 -12.359375 C 9.570312 -12.617188 9.191406 -12.75 8.734375 -12.75 C 8.285156 -12.75 7.800781 -12.644531 7.28125 -12.4375 C 6.757812 -12.238281 6.269531 -11.984375 5.8125 -11.671875 C 5.488281 -11.441406 5.113281 -11.132812 4.6875 -10.75 C 4.257812 -10.375 3.820312 -9.929688 3.375 -9.421875 C 2.925781 -8.921875 2.5 -8.378906 2.09375 -7.796875 C 1.695312 -7.222656 1.359375 -6.628906 1.078125 -6.015625 C 0.796875 -5.367188 0.65625 -4.875 0.65625 -4.53125 C 0.65625 -4.300781 0.710938 -4.128906 0.828125 -4.015625 C 0.953125 -3.910156 1.117188 -3.859375 1.328125 -3.859375 Z M 1.328125 -3.859375 "/></g></g></g><g fill="#2b2b2b" fill-opacity="1"><g transform="translate(99.139699, 49.243926)"><g><path d="M -1.875 -2.296875 C -2.03125 -2.296875 -2.195312 -2.347656 -2.375 -2.453125 C -2.5625 -2.566406 -2.722656 -2.695312 -2.859375 -2.84375 C -2.992188 -3 -3.0625 -3.132812 -3.0625 -3.25 L -3.046875 -3.328125 C -2.722656 -4.128906 -2.332031 -4.90625 -1.875 -5.65625 C -1.425781 -6.40625 -0.953125 -7.144531 -0.453125 -7.875 C 0.0351562 -8.601562 0.523438 -9.335938 1.015625 -10.078125 C 1.503906 -10.816406 1.953125 -11.566406 2.359375 -12.328125 C 2.773438 -13.085938 3.113281 -13.878906 3.375 -14.703125 C 3.40625 -14.828125 3.492188 -14.890625 3.640625 -14.890625 C 3.765625 -14.890625 3.910156 -14.832031 4.078125 -14.71875 C 4.253906 -14.613281 4.425781 -14.46875 4.59375 -14.28125 C 4.757812 -14.101562 4.894531 -13.90625 5 -13.6875 C 5.101562 -13.46875 5.15625 -13.253906 5.15625 -13.046875 C 5.15625 -12.921875 5.140625 -12.8125 5.109375 -12.71875 C 4.890625 -12.09375 4.625 -11.484375 4.3125 -10.890625 C 4 -10.304688 3.648438 -9.722656 3.265625 -9.140625 C 4.109375 -9.847656 4.988281 -10.539062 5.90625 -11.21875 C 6.820312 -11.90625 7.851562 -12.585938 9 -13.265625 C 9.539062 -13.578125 10.113281 -13.875 10.71875 -14.15625 C 11.320312 -14.4375 11.910156 -14.660156 12.484375 -14.828125 C 13.054688 -14.992188 13.582031 -15.078125 14.0625 -15.078125 C 14.289062 -15.078125 14.503906 -15.054688 14.703125 -15.015625 C 14.992188 -14.929688 15.21875 -14.738281 15.375 -14.4375 C 15.53125 -14.132812 15.609375 -13.828125 15.609375 -13.515625 C 15.609375 -13.328125 15.582031 -13.160156 15.53125 -13.015625 C 15.457031 -12.785156 15.34375 -12.535156 15.1875 -12.265625 C 15.03125 -12.003906 14.8125 -11.6875 14.53125 -11.3125 C 14.257812 -10.945312 13.898438 -10.492188 13.453125 -9.953125 C 13.015625 -9.421875 12.46875 -8.765625 11.8125 -7.984375 C 11.382812 -7.492188 11 -7 10.65625 -6.5 C 10.320312 -6.007812 10.054688 -5.535156 9.859375 -5.078125 C 9.671875 -4.628906 9.578125 -4.222656 9.578125 -3.859375 C 9.578125 -3.484375 9.695312 -3.210938 9.9375 -3.046875 C 10.1875 -2.890625 10.53125 -2.8125 10.96875 -2.8125 C 11.414062 -2.8125 11.929688 -2.882812 12.515625 -3.03125 C 13.109375 -3.1875 13.726562 -3.390625 14.375 -3.640625 C 15.03125 -3.898438 15.679688 -4.1875 16.328125 -4.5 C 16.984375 -4.8125 17.601562 -5.140625 18.1875 -5.484375 C 18.769531 -5.835938 19.28125 -6.179688 19.71875 -6.515625 C 20.164062 -6.859375 20.503906 -7.171875 20.734375 -7.453125 C 20.785156 -7.515625 20.859375 -7.566406 20.953125 -7.609375 C 21.046875 -7.660156 21.113281 -7.6875 21.15625 -7.6875 C 21.175781 -7.6875 21.1875 -7.679688 21.1875 -7.671875 C 21.1875 -7.648438 21.171875 -7.625 21.140625 -7.59375 C 20.347656 -6.75 19.476562 -6 18.53125 -5.34375 C 17.582031 -4.6875 16.617188 -4.132812 15.640625 -3.6875 C 14.671875 -3.238281 13.726562 -2.898438 12.8125 -2.671875 C 11.90625 -2.441406 11.085938 -2.328125 10.359375 -2.328125 C 9.796875 -2.328125 9.3125 -2.394531 8.90625 -2.53125 C 8.5 -2.675781 8.191406 -2.910156 7.984375 -3.234375 C 7.773438 -3.566406 7.671875 -3.972656 7.671875 -4.453125 C 7.671875 -5.054688 7.84375 -5.742188 8.1875 -6.515625 C 8.539062 -7.285156 9.070312 -8.066406 9.78125 -8.859375 C 10.40625 -9.566406 10.972656 -10.207031 11.484375 -10.78125 C 11.992188 -11.363281 12.398438 -11.875 12.703125 -12.3125 C 13.015625 -12.757812 13.171875 -13.125 13.171875 -13.40625 L 13.140625 -13.5625 C 13.128906 -13.664062 13.09375 -13.757812 13.03125 -13.84375 C 12.96875 -13.925781 12.867188 -13.988281 12.734375 -14.03125 L 12.484375 -14.046875 C 12.203125 -14.046875 11.851562 -13.984375 11.4375 -13.859375 C 11.03125 -13.734375 10.625 -13.5625 10.21875 -13.34375 C 9.144531 -12.769531 8.164062 -12.175781 7.28125 -11.5625 C 6.40625 -10.957031 5.59375 -10.320312 4.84375 -9.65625 C 4.101562 -8.988281 3.390625 -8.28125 2.703125 -7.53125 C 2.015625 -6.78125 1.316406 -5.976562 0.609375 -5.125 C -0.0976562 -4.28125 -0.847656 -3.367188 -1.640625 -2.390625 C -1.710938 -2.328125 -1.789062 -2.296875 -1.875 -2.296875 Z M -1.875 -2.296875 "/></g></g></g><g fill="#2b2b2b" fill-opacity="1"><g transform="translate(119.8743, 49.243926)"><g><path d="M 0.109375 -1.59375 C -0.609375 -1.59375 -1.144531 -1.753906 -1.5 -2.078125 C -1.863281 -2.410156 -2.046875 -2.878906 -2.046875 -3.484375 C -2.046875 -3.890625 -1.96875 -4.335938 -1.8125 -4.828125 C -1.664062 -5.328125 -1.46875 -5.847656 -1.21875 -6.390625 C -0.976562 -6.929688 -0.707031 -7.472656 -0.40625 -8.015625 C -0.101562 -8.566406 0.203125 -9.097656 0.515625 -9.609375 C 0.847656 -10.160156 1.160156 -10.6875 1.453125 -11.1875 C 1.753906 -11.695312 2.015625 -12.128906 2.234375 -12.484375 C 2.460938 -12.847656 2.628906 -13.078125 2.734375 -13.171875 C 2.785156 -13.234375 2.859375 -13.265625 2.953125 -13.265625 C 3.097656 -13.265625 3.257812 -13.1875 3.4375 -13.03125 C 3.625 -12.882812 3.78125 -12.695312 3.90625 -12.46875 C 4.03125 -12.238281 4.09375 -12 4.09375 -11.75 C 4.09375 -11.539062 4.035156 -11.351562 3.921875 -11.1875 C 3.742188 -10.882812 3.515625 -10.53125 3.234375 -10.125 C 2.960938 -9.726562 2.664062 -9.300781 2.34375 -8.84375 C 2.03125 -8.394531 1.710938 -7.925781 1.390625 -7.4375 C 1.078125 -6.957031 0.789062 -6.476562 0.53125 -6 C 0.28125 -5.519531 0.078125 -5.0625 -0.078125 -4.625 C -0.242188 -4.195312 -0.328125 -3.796875 -0.328125 -3.421875 C -0.328125 -3.109375 -0.226562 -2.828125 -0.03125 -2.578125 C 0.15625 -2.335938 0.484375 -2.21875 0.953125 -2.21875 C 1.335938 -2.21875 1.800781 -2.300781 2.34375 -2.46875 C 2.894531 -2.632812 3.484375 -2.859375 4.109375 -3.140625 C 4.734375 -3.421875 5.375 -3.742188 6.03125 -4.109375 C 6.6875 -4.484375 7.320312 -4.875 7.9375 -5.28125 C 8.550781 -5.695312 9.113281 -6.113281 9.625 -6.53125 C 10.144531 -6.957031 10.582031 -7.359375 10.9375 -7.734375 C 11.007812 -7.816406 11.09375 -7.859375 11.1875 -7.859375 C 11.257812 -7.859375 11.296875 -7.828125 11.296875 -7.765625 C 11.296875 -7.734375 11.28125 -7.703125 11.25 -7.671875 C 10.96875 -7.347656 10.578125 -6.976562 10.078125 -6.5625 C 9.578125 -6.144531 9.003906 -5.707031 8.359375 -5.25 C 7.722656 -4.800781 7.046875 -4.359375 6.328125 -3.921875 C 5.609375 -3.484375 4.878906 -3.085938 4.140625 -2.734375 C 3.410156 -2.390625 2.695312 -2.113281 2 -1.90625 C 1.3125 -1.695312 0.679688 -1.59375 0.109375 -1.59375 Z M 6.171875 -14.109375 C 6.140625 -14.109375 6.097656 -14.109375 6.046875 -14.109375 C 5.992188 -14.109375 5.941406 -14.113281 5.890625 -14.125 C 5.515625 -14.164062 5.191406 -14.265625 4.921875 -14.421875 C 4.648438 -14.578125 4.4375 -14.753906 4.28125 -14.953125 C 4.132812 -15.160156 4.0625 -15.347656 4.0625 -15.515625 C 4.0625 -15.710938 4.164062 -15.847656 4.375 -15.921875 C 4.4375 -15.929688 4.503906 -15.941406 4.578125 -15.953125 C 4.648438 -15.972656 4.722656 -15.984375 4.796875 -15.984375 C 5.003906 -15.984375 5.21875 -15.941406 5.4375 -15.859375 C 5.65625 -15.785156 5.890625 -15.679688 6.140625 -15.546875 C 6.328125 -15.441406 6.492188 -15.289062 6.640625 -15.09375 C 6.785156 -14.894531 6.859375 -14.710938 6.859375 -14.546875 C 6.859375 -14.421875 6.804688 -14.316406 6.703125 -14.234375 C 6.597656 -14.148438 6.421875 -14.109375 6.171875 -14.109375 Z M 6.171875 -14.109375 "/></g></g></g><g fill="#2b2b2b" fill-opacity="1"><g transform="translate(130.759035, 49.243926)"><g><path d="M 2.59375 -1.65625 C 2.4375 -1.65625 2.28125 -1.660156 2.125 -1.671875 C 1.96875 -1.679688 1.816406 -1.691406 1.671875 -1.703125 C 0.890625 -1.796875 0.257812 -1.984375 -0.21875 -2.265625 C -0.707031 -2.546875 -1.0625 -2.890625 -1.28125 -3.296875 C -1.5 -3.710938 -1.609375 -4.175781 -1.609375 -4.6875 C -1.609375 -5.28125 -1.472656 -5.914062 -1.203125 -6.59375 C -0.941406 -7.269531 -0.578125 -7.945312 -0.109375 -8.625 C 0.347656 -9.3125 0.878906 -9.960938 1.484375 -10.578125 C 2.097656 -11.191406 2.75 -11.738281 3.4375 -12.21875 C 4.125 -12.707031 4.816406 -13.085938 5.515625 -13.359375 C 6.222656 -13.640625 6.910156 -13.78125 7.578125 -13.78125 C 8.003906 -13.78125 8.40625 -13.71875 8.78125 -13.59375 C 9.28125 -13.425781 9.632812 -13.203125 9.84375 -12.921875 C 10.0625 -12.648438 10.171875 -12.34375 10.171875 -12 C 10.171875 -11.625 10.066406 -11.226562 9.859375 -10.8125 C 9.660156 -10.40625 9.40625 -10 9.09375 -9.59375 C 8.789062 -9.195312 8.46875 -8.835938 8.125 -8.515625 C 7.78125 -8.191406 7.472656 -7.929688 7.203125 -7.734375 C 6.742188 -7.398438 6.222656 -7.085938 5.640625 -6.796875 C 5.066406 -6.503906 4.488281 -6.269531 3.90625 -6.09375 C 3.332031 -5.914062 2.804688 -5.828125 2.328125 -5.828125 C 1.984375 -5.828125 1.679688 -5.878906 1.421875 -5.984375 C 1.171875 -6.097656 0.988281 -6.28125 0.875 -6.53125 C 0.625 -6.125 0.425781 -5.71875 0.28125 -5.3125 C 0.132812 -4.90625 0.0625 -4.503906 0.0625 -4.109375 C 0.0625 -3.398438 0.289062 -2.898438 0.75 -2.609375 C 1.21875 -2.328125 1.820312 -2.1875 2.5625 -2.1875 C 3 -2.1875 3.441406 -2.21875 3.890625 -2.28125 C 4.335938 -2.351562 4.757812 -2.441406 5.15625 -2.546875 C 5.550781 -2.660156 5.882812 -2.765625 6.15625 -2.859375 C 7.300781 -3.253906 8.382812 -3.722656 9.40625 -4.265625 C 10.4375 -4.804688 11.445312 -5.375 12.4375 -5.96875 C 13.4375 -6.570312 14.460938 -7.160156 15.515625 -7.734375 C 15.597656 -7.773438 15.671875 -7.796875 15.734375 -7.796875 C 15.734375 -7.785156 15.710938 -7.765625 15.671875 -7.734375 C 13.910156 -6.460938 12.257812 -5.375 10.71875 -4.46875 C 9.1875 -3.5625 7.742188 -2.863281 6.390625 -2.375 C 5.046875 -1.894531 3.78125 -1.65625 2.59375 -1.65625 Z M 2.34375 -6.125 C 2.695312 -6.125 3.101562 -6.195312 3.5625 -6.34375 C 4.03125 -6.488281 4.515625 -6.691406 5.015625 -6.953125 C 5.523438 -7.222656 6.023438 -7.523438 6.515625 -7.859375 C 7.234375 -8.359375 7.789062 -8.851562 8.1875 -9.34375 C 8.582031 -9.832031 8.863281 -10.28125 9.03125 -10.6875 C 9.195312 -11.09375 9.28125 -11.425781 9.28125 -11.6875 C 9.28125 -11.9375 9.21875 -12.097656 9.09375 -12.171875 C 8.976562 -12.253906 8.828125 -12.296875 8.640625 -12.296875 C 8.328125 -12.296875 7.929688 -12.203125 7.453125 -12.015625 C 6.984375 -11.828125 6.460938 -11.5625 5.890625 -11.21875 C 5.328125 -10.875 4.753906 -10.476562 4.171875 -10.03125 C 3.585938 -9.582031 3.035156 -9.097656 2.515625 -8.578125 C 2.003906 -8.054688 1.550781 -7.515625 1.15625 -6.953125 C 1.207031 -6.660156 1.335938 -6.445312 1.546875 -6.3125 C 1.765625 -6.1875 2.03125 -6.125 2.34375 -6.125 Z M 2.34375 -6.125 "/></g></g></g><g fill="#2b2b2b" fill-opacity="1"><g transform="translate(145.646048, 49.243926)"><g/></g></g><g fill="#2b2b2b" fill-opacity="1"><g transform="translate(154.311446, 49.243926)"><g><path d="M 13.296875 2.90625 C 13.066406 2.90625 12.832031 2.898438 12.59375 2.890625 C 12.351562 2.878906 12.113281 2.867188 11.875 2.859375 C 10.59375 2.765625 9.453125 2.515625 8.453125 2.109375 C 7.453125 1.710938 6.601562 1.195312 5.90625 0.5625 C 5.21875 -0.0703125 4.691406 -0.773438 4.328125 -1.546875 C 3.972656 -2.316406 3.796875 -3.113281 3.796875 -3.9375 C 3.796875 -4.332031 3.835938 -4.738281 3.921875 -5.15625 C 4.109375 -5.976562 4.441406 -6.773438 4.921875 -7.546875 C 5.398438 -8.316406 5.988281 -9.050781 6.6875 -9.75 C 7.394531 -10.457031 8.1875 -11.109375 9.0625 -11.703125 C 9.945312 -12.304688 10.882812 -12.851562 11.875 -13.34375 C 12.875 -13.832031 13.898438 -14.25 14.953125 -14.59375 C 16.003906 -14.9375 17.050781 -15.203125 18.09375 -15.390625 C 19.144531 -15.578125 20.160156 -15.671875 21.140625 -15.671875 C 21.609375 -15.671875 22.066406 -15.644531 22.515625 -15.59375 C 22.960938 -15.550781 23.394531 -15.484375 23.8125 -15.390625 C 23.476562 -15.710938 23.234375 -16.046875 23.078125 -16.390625 C 22.921875 -16.734375 22.84375 -17.078125 22.84375 -17.421875 C 22.84375 -17.867188 22.96875 -18.304688 23.21875 -18.734375 C 23.46875 -19.171875 23.8125 -19.578125 24.25 -19.953125 C 24.695312 -20.328125 25.210938 -20.65625 25.796875 -20.9375 C 26.390625 -21.226562 27.03125 -21.453125 27.71875 -21.609375 C 28.40625 -21.773438 29.113281 -21.859375 29.84375 -21.859375 C 30.675781 -21.859375 31.507812 -21.738281 32.34375 -21.5 C 33.175781 -21.257812 33.972656 -20.867188 34.734375 -20.328125 C 35.078125 -20.078125 35.351562 -19.769531 35.5625 -19.40625 C 35.769531 -19.039062 35.875 -18.671875 35.875 -18.296875 C 35.875 -17.921875 35.765625 -17.578125 35.546875 -17.265625 C 35.328125 -16.953125 35.03125 -16.679688 34.65625 -16.453125 C 34.28125 -16.222656 33.863281 -16.046875 33.40625 -15.921875 C 32.945312 -15.796875 32.472656 -15.734375 31.984375 -15.734375 C 31.441406 -15.734375 30.9375 -15.828125 30.46875 -16.015625 C 30.007812 -16.203125 29.675781 -16.5 29.46875 -16.90625 C 29.445312 -16.945312 29.4375 -16.992188 29.4375 -17.046875 C 29.4375 -17.085938 29.441406 -17.128906 29.453125 -17.171875 C 29.472656 -17.210938 29.515625 -17.25 29.578125 -17.28125 C 29.609375 -17.300781 29.640625 -17.316406 29.671875 -17.328125 C 29.703125 -17.335938 29.726562 -17.34375 29.75 -17.34375 C 29.832031 -17.34375 29.894531 -17.320312 29.9375 -17.28125 C 29.988281 -17.25 30.015625 -17.234375 30.015625 -17.234375 C 30.347656 -16.847656 30.726562 -16.570312 31.15625 -16.40625 C 31.582031 -16.238281 32.015625 -16.15625 32.453125 -16.15625 C 32.847656 -16.15625 33.234375 -16.210938 33.609375 -16.328125 C 33.984375 -16.453125 34.316406 -16.617188 34.609375 -16.828125 C 34.910156 -17.046875 35.148438 -17.289062 35.328125 -17.5625 C 35.503906 -17.84375 35.59375 -18.144531 35.59375 -18.46875 C 35.59375 -18.832031 35.457031 -19.195312 35.1875 -19.5625 C 34.988281 -19.832031 34.722656 -20.066406 34.390625 -20.265625 C 34.054688 -20.472656 33.6875 -20.644531 33.28125 -20.78125 C 32.882812 -20.925781 32.476562 -21.03125 32.0625 -21.09375 C 31.644531 -21.164062 31.25 -21.203125 30.875 -21.203125 L 30.609375 -21.1875 C 29.753906 -21.144531 28.953125 -20.988281 28.203125 -20.71875 C 27.453125 -20.445312 26.789062 -20.101562 26.21875 -19.6875 C 25.65625 -19.28125 25.210938 -18.820312 24.890625 -18.3125 C 24.566406 -17.8125 24.40625 -17.3125 24.40625 -16.8125 C 24.40625 -16.46875 24.488281 -16.128906 24.65625 -15.796875 C 24.820312 -15.472656 25.082031 -15.164062 25.4375 -14.875 C 26.082031 -14.601562 26.53125 -14.367188 26.78125 -14.171875 C 27.03125 -13.972656 27.15625 -13.828125 27.15625 -13.734375 C 27.15625 -13.648438 27.09375 -13.609375 26.96875 -13.609375 C 26.882812 -13.609375 26.78125 -13.632812 26.65625 -13.6875 C 26.300781 -13.820312 25.945312 -13.972656 25.59375 -14.140625 C 25.238281 -14.304688 24.90625 -14.492188 24.59375 -14.703125 C 24.164062 -14.847656 23.71875 -14.957031 23.25 -15.03125 C 22.789062 -15.101562 22.316406 -15.140625 21.828125 -15.140625 C 20.867188 -15.140625 19.875 -15.019531 18.84375 -14.78125 C 17.820312 -14.550781 16.796875 -14.222656 15.765625 -13.796875 C 14.742188 -13.367188 13.753906 -12.859375 12.796875 -12.265625 C 11.847656 -11.679688 10.960938 -11.035156 10.140625 -10.328125 C 9.316406 -9.617188 8.597656 -8.867188 7.984375 -8.078125 C 7.367188 -7.285156 6.882812 -6.46875 6.53125 -5.625 C 6.1875 -4.78125 6.015625 -3.9375 6.015625 -3.09375 C 6.015625 -2.457031 6.117188 -1.84375 6.328125 -1.25 C 6.609375 -0.46875 7.046875 0.15625 7.640625 0.625 C 8.242188 1.09375 8.960938 1.429688 9.796875 1.640625 C 10.640625 1.859375 11.535156 1.96875 12.484375 1.96875 C 13.328125 1.96875 14.191406 1.894531 15.078125 1.75 C 15.972656 1.613281 16.84375 1.414062 17.6875 1.15625 C 18.539062 0.90625 19.335938 0.617188 20.078125 0.296875 C 21.492188 -0.328125 22.628906 -0.992188 23.484375 -1.703125 C 24.347656 -2.410156 24.972656 -3.117188 25.359375 -3.828125 C 25.753906 -4.535156 25.953125 -5.1875 25.953125 -5.78125 C 25.953125 -6.300781 25.828125 -6.757812 25.578125 -7.15625 C 25.328125 -7.550781 24.976562 -7.863281 24.53125 -8.09375 C 24.09375 -8.320312 23.578125 -8.4375 22.984375 -8.4375 C 22.472656 -8.4375 21.988281 -8.359375 21.53125 -8.203125 C 21.082031 -8.054688 20.671875 -7.878906 20.296875 -7.671875 C 19.921875 -7.460938 19.59375 -7.253906 19.3125 -7.046875 C 19.039062 -6.847656 18.820312 -6.6875 18.65625 -6.5625 C 18.613281 -6.519531 18.554688 -6.5 18.484375 -6.5 C 18.410156 -6.5 18.347656 -6.53125 18.296875 -6.59375 C 18.242188 -6.65625 18.21875 -6.71875 18.21875 -6.78125 C 18.21875 -6.863281 18.253906 -6.9375 18.328125 -7 C 18.328125 -7 18.425781 -7.082031 18.625 -7.25 C 18.832031 -7.425781 19.117188 -7.632812 19.484375 -7.875 C 19.847656 -8.113281 20.273438 -8.335938 20.765625 -8.546875 C 21.253906 -8.753906 21.789062 -8.90625 22.375 -9 C 22.539062 -9.03125 22.710938 -9.050781 22.890625 -9.0625 C 23.066406 -9.082031 23.238281 -9.09375 23.40625 -9.09375 C 23.945312 -9.09375 24.492188 -9.039062 25.046875 -8.9375 C 25.597656 -8.832031 26.144531 -8.71875 26.6875 -8.59375 C 27.238281 -8.476562 27.78125 -8.367188 28.3125 -8.265625 C 28.84375 -8.160156 29.363281 -8.109375 29.875 -8.109375 C 30.507812 -8.109375 31.117188 -8.226562 31.703125 -8.46875 C 32.285156 -8.71875 32.816406 -9.15625 33.296875 -9.78125 C 33.398438 -9.925781 33.535156 -10 33.703125 -10 C 33.878906 -10 34.023438 -9.941406 34.140625 -9.828125 C 34.253906 -9.722656 34.3125 -9.613281 34.3125 -9.5 C 34.28125 -9.394531 34.160156 -9.234375 33.953125 -9.015625 C 33.753906 -8.804688 33.484375 -8.585938 33.140625 -8.359375 C 32.796875 -8.128906 32.394531 -7.929688 31.9375 -7.765625 C 31.488281 -7.597656 31.003906 -7.507812 30.484375 -7.5 L 30.25 -7.5 C 29.664062 -7.5 29.09375 -7.550781 28.53125 -7.65625 C 27.96875 -7.769531 27.398438 -7.894531 26.828125 -8.03125 C 26.265625 -8.175781 25.675781 -8.296875 25.0625 -8.390625 C 25.582031 -8.097656 25.96875 -7.722656 26.21875 -7.265625 C 26.46875 -6.816406 26.59375 -6.320312 26.59375 -5.78125 C 26.59375 -5.195312 26.453125 -4.578125 26.171875 -3.921875 C 25.890625 -3.265625 25.476562 -2.609375 24.9375 -1.953125 C 24.40625 -1.304688 23.753906 -0.691406 22.984375 -0.109375 C 22.222656 0.472656 21.347656 0.988281 20.359375 1.4375 C 19.367188 1.894531 18.28125 2.253906 17.09375 2.515625 C 15.914062 2.773438 14.648438 2.90625 13.296875 2.90625 Z M 13.296875 2.90625 "/></g></g></g><g fill="#2b2b2b" fill-opacity="1"><g transform="translate(189.808379, 49.243926)"><g/></g></g><g fill="#2b2b2b" fill-opacity="1"><g transform="translate(198.473777, 49.243926)"><g><path d="M 10.984375 7.265625 L 10.4375 7.265625 L 10.15625 7.25 C 8.53125 7.207031 7.101562 7.03125 5.875 6.71875 C 4.65625 6.40625 3.632812 5.992188 2.8125 5.484375 C 1.988281 4.984375 1.359375 4.429688 0.921875 3.828125 C 0.492188 3.222656 0.242188 2.617188 0.171875 2.015625 L 0.15625 1.65625 C 0.15625 0.832031 0.457031 0.0625 1.0625 -0.65625 C 1.675781 -1.382812 2.546875 -2.019531 3.671875 -2.5625 C 4.804688 -3.113281 6.140625 -3.535156 7.671875 -3.828125 C 8.691406 -4.015625 9.6875 -4.148438 10.65625 -4.234375 C 11.632812 -4.316406 12.601562 -4.359375 13.5625 -4.359375 C 14.78125 -4.359375 16 -4.304688 17.21875 -4.203125 C 18.445312 -4.097656 19.660156 -3.96875 20.859375 -3.8125 C 22.054688 -3.65625 23.234375 -3.503906 24.390625 -3.359375 C 25.546875 -3.210938 26.675781 -3.097656 27.78125 -3.015625 C 28.976562 -4.484375 30.117188 -6.035156 31.203125 -7.671875 C 32.296875 -9.316406 33.347656 -11 34.359375 -12.71875 C 35.367188 -14.4375 36.351562 -16.148438 37.3125 -17.859375 C 38.28125 -19.578125 39.238281 -21.242188 40.1875 -22.859375 C 41.144531 -24.472656 42.109375 -25.992188 43.078125 -27.421875 C 44.054688 -28.859375 45.0625 -30.15625 46.09375 -31.3125 C 47.125 -32.46875 48.195312 -33.441406 49.3125 -34.234375 L 46.546875 -34.515625 C 45.921875 -34.585938 45.25 -34.644531 44.53125 -34.6875 C 43.8125 -34.726562 43.066406 -34.75 42.296875 -34.75 C 41.398438 -34.75 40.488281 -34.707031 39.5625 -34.625 C 38.644531 -34.539062 37.75 -34.40625 36.875 -34.21875 C 36 -34.039062 35.175781 -33.785156 34.40625 -33.453125 C 33.644531 -33.117188 32.96875 -32.703125 32.375 -32.203125 C 31.789062 -31.710938 31.316406 -31.117188 30.953125 -30.421875 C 30.597656 -29.734375 30.390625 -28.925781 30.328125 -28 C 30.359375 -27.863281 30.382812 -27.726562 30.40625 -27.59375 C 30.4375 -27.457031 30.453125 -27.351562 30.453125 -27.28125 C 30.453125 -27.238281 30.445312 -27.21875 30.4375 -27.21875 C 30.414062 -27.21875 30.375 -27.28125 30.3125 -27.40625 C 30.132812 -27.863281 30.046875 -28.335938 30.046875 -28.828125 C 30.046875 -29.441406 30.179688 -30.039062 30.453125 -30.625 C 30.722656 -31.21875 31.101562 -31.765625 31.59375 -32.265625 C 32.082031 -32.773438 32.648438 -33.207031 33.296875 -33.5625 C 34.015625 -33.945312 34.820312 -34.269531 35.71875 -34.53125 C 36.613281 -34.789062 37.554688 -34.992188 38.546875 -35.140625 C 39.546875 -35.285156 40.554688 -35.382812 41.578125 -35.4375 C 42.609375 -35.5 43.613281 -35.53125 44.59375 -35.53125 C 45.582031 -35.53125 46.519531 -35.507812 47.40625 -35.46875 C 48.289062 -35.425781 49.09375 -35.378906 49.8125 -35.328125 C 50.539062 -35.273438 51.140625 -35.226562 51.609375 -35.1875 C 52.117188 -35.144531 52.597656 -35.109375 53.046875 -35.078125 C 53.492188 -35.054688 53.921875 -35.046875 54.328125 -35.046875 C 55.078125 -35.046875 55.78125 -35.082031 56.4375 -35.15625 C 57.09375 -35.238281 57.734375 -35.363281 58.359375 -35.53125 C 58.984375 -35.707031 59.632812 -35.921875 60.3125 -36.171875 C 60.382812 -36.210938 60.457031 -36.234375 60.53125 -36.234375 C 60.625 -36.234375 60.671875 -36.195312 60.671875 -36.125 C 60.671875 -36.050781 60.609375 -35.960938 60.484375 -35.859375 C 59.898438 -35.367188 59.238281 -34.988281 58.5 -34.71875 C 57.769531 -34.445312 56.988281 -34.253906 56.15625 -34.140625 C 55.320312 -34.023438 54.457031 -33.96875 53.5625 -33.96875 C 53.28125 -33.96875 53 -33.972656 52.71875 -33.984375 C 52.445312 -34.003906 52.171875 -34.015625 51.890625 -34.015625 C 50.828125 -33.273438 49.851562 -32.421875 48.96875 -31.453125 C 48.082031 -30.492188 47.25 -29.476562 46.46875 -28.40625 C 45.695312 -27.34375 44.957031 -26.28125 44.25 -25.21875 C 42.925781 -23.226562 41.65625 -21.195312 40.4375 -19.125 C 39.21875 -17.050781 38 -14.984375 36.78125 -12.921875 C 36.082031 -11.722656 35.398438 -10.546875 34.734375 -9.390625 C 34.078125 -8.242188 33.398438 -7.125 32.703125 -6.03125 C 32.015625 -4.945312 31.28125 -3.90625 30.5 -2.90625 C 31.59375 -2.90625 32.664062 -2.976562 33.71875 -3.125 C 34.78125 -3.269531 35.828125 -3.519531 36.859375 -3.875 C 37.890625 -4.226562 38.914062 -4.703125 39.9375 -5.296875 C 40.957031 -5.898438 41.976562 -6.664062 43 -7.59375 C 43.050781 -7.632812 43.101562 -7.65625 43.15625 -7.65625 C 43.226562 -7.65625 43.285156 -7.628906 43.328125 -7.578125 C 43.378906 -7.535156 43.40625 -7.484375 43.40625 -7.421875 C 43.40625 -7.390625 43.398438 -7.359375 43.390625 -7.328125 C 43.390625 -7.296875 43.367188 -7.265625 43.328125 -7.234375 C 42.285156 -6.296875 41.234375 -5.515625 40.171875 -4.890625 C 39.117188 -4.265625 38.054688 -3.769531 36.984375 -3.40625 C 35.910156 -3.050781 34.828125 -2.800781 33.734375 -2.65625 C 32.640625 -2.507812 31.539062 -2.4375 30.4375 -2.4375 L 30.125 -2.4375 C 29.226562 -1.320312 28.242188 -0.285156 27.171875 0.671875 C 26.097656 1.640625 24.867188 2.53125 23.484375 3.34375 C 22.546875 3.882812 21.578125 4.378906 20.578125 4.828125 C 19.585938 5.273438 18.585938 5.664062 17.578125 6 C 16.578125 6.332031 15.597656 6.601562 14.640625 6.8125 C 13.691406 7.019531 12.789062 7.15625 11.9375 7.21875 C 11.894531 7.21875 11.863281 7.222656 11.84375 7.234375 C 11.695312 7.242188 11.550781 7.25 11.40625 7.25 C 11.257812 7.257812 11.117188 7.265625 10.984375 7.265625 Z M 10.171875 6.53125 C 10.859375 6.53125 11.597656 6.492188 12.390625 6.421875 C 13.191406 6.359375 14.007812 6.238281 14.84375 6.0625 C 15.675781 5.882812 16.5 5.628906 17.3125 5.296875 C 19.257812 4.492188 21.0625 3.414062 22.71875 2.0625 C 24.375 0.707031 25.929688 -0.832031 27.390625 -2.5625 C 26.304688 -2.644531 25.203125 -2.753906 24.078125 -2.890625 C 22.960938 -3.035156 21.828125 -3.179688 20.671875 -3.328125 C 19.515625 -3.484375 18.34375 -3.613281 17.15625 -3.71875 C 15.976562 -3.820312 14.789062 -3.875 13.59375 -3.875 C 12.644531 -3.875 11.6875 -3.832031 10.71875 -3.75 C 9.75 -3.664062 8.765625 -3.53125 7.765625 -3.34375 C 6.304688 -3.0625 5.039062 -2.671875 3.96875 -2.171875 C 2.90625 -1.671875 2.082031 -1.09375 1.5 -0.4375 C 0.925781 0.21875 0.640625 0.921875 0.640625 1.671875 C 0.640625 2.242188 0.820312 2.816406 1.1875 3.390625 C 1.5625 3.960938 2.140625 4.484375 2.921875 4.953125 C 3.703125 5.429688 4.691406 5.8125 5.890625 6.09375 C 7.085938 6.382812 8.515625 6.53125 10.171875 6.53125 Z M 10.171875 6.53125 "/></g></g></g><g fill="#2b2b2b" fill-opacity="1"><g transform="translate(241.239651, 49.243926)"><g><path d="M 8.40625 -0.890625 C 7.78125 -0.890625 7.304688 -1.03125 6.984375 -1.3125 C 6.660156 -1.601562 6.5 -1.992188 6.5 -2.484375 C 6.5 -2.878906 6.585938 -3.328125 6.765625 -3.828125 C 6.953125 -4.335938 7.195312 -4.875 7.5 -5.4375 C 7.8125 -6.007812 8.15625 -6.585938 8.53125 -7.171875 C 8.914062 -7.753906 9.3125 -8.328125 9.71875 -8.890625 C 9.132812 -8.316406 8.515625 -7.722656 7.859375 -7.109375 C 7.203125 -6.503906 6.53125 -5.921875 5.84375 -5.359375 C 5.164062 -4.804688 4.488281 -4.304688 3.8125 -3.859375 C 3.132812 -3.421875 2.476562 -3.070312 1.84375 -2.8125 C 1.207031 -2.550781 0.617188 -2.421875 0.078125 -2.421875 C -0.117188 -2.421875 -0.304688 -2.4375 -0.484375 -2.46875 C -0.660156 -2.5 -0.832031 -2.554688 -1 -2.640625 C -1.351562 -2.804688 -1.609375 -3.023438 -1.765625 -3.296875 C -1.921875 -3.566406 -2 -3.875 -2 -4.21875 C -2 -4.59375 -1.910156 -5.003906 -1.734375 -5.453125 C -1.566406 -5.910156 -1.335938 -6.390625 -1.046875 -6.890625 C -0.765625 -7.390625 -0.445312 -7.894531 -0.09375 -8.40625 C 0.113281 -8.6875 0.359375 -9.007812 0.640625 -9.375 C 0.921875 -9.738281 1.207031 -10.101562 1.5 -10.46875 C 1.789062 -10.84375 2.050781 -11.171875 2.28125 -11.453125 C 2.476562 -11.703125 2.632812 -11.914062 2.75 -12.09375 C 2.863281 -12.28125 2.953125 -12.453125 3.015625 -12.609375 C 3.085938 -12.773438 3.15625 -12.953125 3.21875 -13.140625 C 3.289062 -13.191406 3.363281 -13.21875 3.4375 -13.21875 C 3.59375 -13.21875 3.742188 -13.132812 3.890625 -12.96875 C 4.046875 -12.800781 4.171875 -12.597656 4.265625 -12.359375 C 4.367188 -12.117188 4.421875 -11.882812 4.421875 -11.65625 C 4.421875 -11.488281 4.390625 -11.335938 4.328125 -11.203125 C 4.171875 -10.816406 3.925781 -10.398438 3.59375 -9.953125 C 3.269531 -9.503906 2.894531 -9.035156 2.46875 -8.546875 C 2.050781 -8.054688 1.640625 -7.546875 1.234375 -7.015625 C 0.828125 -6.492188 0.476562 -5.957031 0.1875 -5.40625 C 0 -5.0625 -0.132812 -4.757812 -0.21875 -4.5 C -0.300781 -4.238281 -0.34375 -4.023438 -0.34375 -3.859375 C -0.34375 -3.640625 -0.28125 -3.476562 -0.15625 -3.375 C -0.03125 -3.28125 0.132812 -3.234375 0.34375 -3.234375 C 0.625 -3.234375 0.960938 -3.304688 1.359375 -3.453125 C 1.765625 -3.597656 2.195312 -3.789062 2.65625 -4.03125 C 3.125 -4.269531 3.582031 -4.53125 4.03125 -4.8125 C 4.488281 -5.101562 4.910156 -5.394531 5.296875 -5.6875 C 5.785156 -6.0625 6.3125 -6.507812 6.875 -7.03125 C 7.445312 -7.5625 8.019531 -8.117188 8.59375 -8.703125 C 9.175781 -9.285156 9.722656 -9.84375 10.234375 -10.375 C 10.296875 -10.445312 10.421875 -10.578125 10.609375 -10.765625 C 10.804688 -10.960938 11.019531 -11.175781 11.25 -11.40625 C 11.476562 -11.644531 11.691406 -11.863281 11.890625 -12.0625 C 12.085938 -12.257812 12.222656 -12.394531 12.296875 -12.46875 C 12.359375 -12.519531 12.4375 -12.546875 12.53125 -12.546875 C 12.664062 -12.546875 12.804688 -12.476562 12.953125 -12.34375 C 13.109375 -12.207031 13.238281 -12.03125 13.34375 -11.8125 C 13.457031 -11.601562 13.515625 -11.378906 13.515625 -11.140625 C 13.515625 -10.890625 13.441406 -10.660156 13.296875 -10.453125 C 13.128906 -10.203125 12.898438 -9.898438 12.609375 -9.546875 C 12.328125 -9.191406 12.019531 -8.804688 11.6875 -8.390625 C 11.351562 -7.972656 11.019531 -7.550781 10.6875 -7.125 C 10.351562 -6.707031 10.046875 -6.296875 9.765625 -5.890625 C 9.484375 -5.492188 9.257812 -5.132812 9.09375 -4.8125 C 8.894531 -4.445312 8.703125 -4.0625 8.515625 -3.65625 C 8.335938 -3.25 8.25 -2.875 8.25 -2.53125 C 8.25 -2.28125 8.328125 -2.046875 8.484375 -1.828125 C 8.640625 -1.617188 8.910156 -1.515625 9.296875 -1.515625 C 9.660156 -1.515625 10.101562 -1.609375 10.625 -1.796875 C 11.144531 -1.984375 11.710938 -2.238281 12.328125 -2.5625 C 12.953125 -2.894531 13.585938 -3.269531 14.234375 -3.6875 C 14.890625 -4.113281 15.53125 -4.554688 16.15625 -5.015625 C 16.789062 -5.472656 17.378906 -5.925781 17.921875 -6.375 C 18.460938 -6.820312 18.929688 -7.234375 19.328125 -7.609375 C 19.410156 -7.691406 19.492188 -7.734375 19.578125 -7.734375 C 19.660156 -7.734375 19.703125 -7.707031 19.703125 -7.65625 C 19.703125 -7.625 19.679688 -7.585938 19.640625 -7.546875 C 19.316406 -7.234375 18.894531 -6.851562 18.375 -6.40625 C 17.851562 -5.957031 17.265625 -5.476562 16.609375 -4.96875 C 15.960938 -4.46875 15.273438 -3.976562 14.546875 -3.5 C 13.828125 -3.019531 13.097656 -2.582031 12.359375 -2.1875 C 11.628906 -1.789062 10.925781 -1.472656 10.25 -1.234375 C 9.570312 -1.003906 8.957031 -0.890625 8.40625 -0.890625 Z M 8.40625 -0.890625 "/></g></g></g><g fill="#2b2b2b" fill-opacity="1"><g transform="translate(260.415719, 49.243926)"><g><path d="M 1.046875 -1.65625 C 0.453125 -1.65625 -0.113281 -1.726562 -0.65625 -1.875 C -1.195312 -2.03125 -1.664062 -2.257812 -2.0625 -2.5625 C -2.289062 -2.738281 -2.484375 -2.957031 -2.640625 -3.21875 C -2.804688 -3.476562 -2.890625 -3.75 -2.890625 -4.03125 C -2.890625 -4.1875 -2.863281 -4.335938 -2.8125 -4.484375 C -2.757812 -4.640625 -2.664062 -4.796875 -2.53125 -4.953125 C -2.238281 -5.285156 -1.898438 -5.535156 -1.515625 -5.703125 C -1.140625 -5.878906 -0.738281 -6 -0.3125 -6.0625 C 0.101562 -6.132812 0.503906 -6.171875 0.890625 -6.171875 C 1.015625 -6.171875 1.140625 -6.164062 1.265625 -6.15625 C 1.390625 -6.15625 1.503906 -6.148438 1.609375 -6.140625 C 1.953125 -6.117188 2.351562 -6.054688 2.8125 -5.953125 C 3.28125 -5.847656 3.773438 -5.722656 4.296875 -5.578125 C 4.359375 -5.828125 4.390625 -6.097656 4.390625 -6.390625 C 4.390625 -6.804688 4.347656 -7.226562 4.265625 -7.65625 C 4.179688 -8.09375 4.09375 -8.53125 4 -8.96875 C 3.914062 -9.414062 3.875 -9.847656 3.875 -10.265625 C 3.875 -10.460938 3.890625 -10.648438 3.921875 -10.828125 C 3.953125 -11.003906 3.988281 -11.175781 4.03125 -11.34375 C 3.476562 -10.914062 2.957031 -10.445312 2.46875 -9.9375 C 1.976562 -9.4375 1.488281 -8.929688 1 -8.421875 C 0.519531 -7.921875 0.015625 -7.453125 -0.515625 -7.015625 C -0.515625 -7.015625 -0.546875 -7.023438 -0.609375 -7.046875 C -0.679688 -7.066406 -0.71875 -7.101562 -0.71875 -7.15625 C -0.71875 -7.195312 -0.675781 -7.25 -0.59375 -7.3125 C 0.0078125 -7.882812 0.585938 -8.476562 1.140625 -9.09375 C 1.703125 -9.707031 2.257812 -10.300781 2.8125 -10.875 C 3.375 -11.457031 3.953125 -11.957031 4.546875 -12.375 C 4.992188 -13.03125 5.597656 -13.546875 6.359375 -13.921875 C 7.117188 -14.296875 7.957031 -14.484375 8.875 -14.484375 L 9.390625 -14.46875 C 9.722656 -14.4375 10.0625 -14.359375 10.40625 -14.234375 C 10.757812 -14.109375 11.082031 -13.941406 11.375 -13.734375 C 11.664062 -13.523438 11.898438 -13.28125 12.078125 -13 C 12.265625 -12.71875 12.359375 -12.40625 12.359375 -12.0625 C 12.359375 -11.851562 12.320312 -11.640625 12.25 -11.421875 C 12.101562 -10.972656 11.882812 -10.566406 11.59375 -10.203125 C 11.3125 -9.847656 11.003906 -9.546875 10.671875 -9.296875 C 10.347656 -9.046875 10.050781 -8.851562 9.78125 -8.71875 C 9.519531 -8.59375 9.332031 -8.53125 9.21875 -8.53125 C 9.175781 -8.53125 9.15625 -8.539062 9.15625 -8.5625 C 9.15625 -8.601562 9.238281 -8.671875 9.40625 -8.765625 C 9.570312 -8.867188 9.773438 -9.007812 10.015625 -9.1875 C 10.265625 -9.363281 10.515625 -9.578125 10.765625 -9.828125 C 11.015625 -10.078125 11.226562 -10.367188 11.40625 -10.703125 C 11.582031 -11.046875 11.675781 -11.4375 11.6875 -11.875 C 11.6875 -12.332031 11.492188 -12.691406 11.109375 -12.953125 C 10.734375 -13.210938 10.253906 -13.34375 9.671875 -13.34375 C 9.390625 -13.34375 9.09375 -13.300781 8.78125 -13.21875 C 8.476562 -13.144531 8.179688 -13.023438 7.890625 -12.859375 C 7.554688 -12.671875 7.242188 -12.445312 6.953125 -12.1875 C 6.671875 -11.9375 6.441406 -11.660156 6.265625 -11.359375 C 6.078125 -11.046875 5.945312 -10.734375 5.875 -10.421875 C 5.800781 -10.117188 5.765625 -9.820312 5.765625 -9.53125 C 5.765625 -9.144531 5.804688 -8.753906 5.890625 -8.359375 C 5.972656 -7.960938 6.054688 -7.5625 6.140625 -7.15625 C 6.222656 -6.75 6.265625 -6.316406 6.265625 -5.859375 C 6.265625 -5.734375 6.257812 -5.601562 6.25 -5.46875 C 6.238281 -5.332031 6.222656 -5.195312 6.203125 -5.0625 C 6.703125 -4.925781 7.1875 -4.804688 7.65625 -4.703125 C 8.132812 -4.597656 8.566406 -4.523438 8.953125 -4.484375 C 9.148438 -4.472656 9.335938 -4.457031 9.515625 -4.4375 C 9.703125 -4.425781 9.882812 -4.421875 10.0625 -4.421875 C 10.894531 -4.421875 11.59375 -4.515625 12.15625 -4.703125 C 12.726562 -4.898438 13.195312 -5.15625 13.5625 -5.46875 C 13.925781 -5.78125 14.226562 -6.117188 14.46875 -6.484375 C 14.707031 -6.859375 14.914062 -7.21875 15.09375 -7.5625 C 15.175781 -7.632812 15.253906 -7.671875 15.328125 -7.671875 C 15.367188 -7.671875 15.390625 -7.65625 15.390625 -7.625 C 15.390625 -7.59375 15.363281 -7.550781 15.3125 -7.5 C 15.0625 -6.976562 14.785156 -6.507812 14.484375 -6.09375 C 14.191406 -5.6875 13.835938 -5.335938 13.421875 -5.046875 C 13.015625 -4.753906 12.507812 -4.53125 11.90625 -4.375 C 11.3125 -4.226562 10.585938 -4.15625 9.734375 -4.15625 L 8.953125 -4.171875 C 8.554688 -4.203125 8.113281 -4.269531 7.625 -4.375 C 7.144531 -4.488281 6.648438 -4.613281 6.140625 -4.75 C 6.015625 -4.238281 5.78125 -3.785156 5.4375 -3.390625 C 5.101562 -3.003906 4.695312 -2.679688 4.21875 -2.421875 C 3.75 -2.171875 3.238281 -1.976562 2.6875 -1.84375 C 2.144531 -1.71875 1.597656 -1.65625 1.046875 -1.65625 Z M 0 -2.265625 C 0.445312 -2.265625 0.890625 -2.347656 1.328125 -2.515625 C 1.773438 -2.691406 2.191406 -2.921875 2.578125 -3.203125 C 2.960938 -3.492188 3.296875 -3.816406 3.578125 -4.171875 C 3.859375 -4.523438 4.066406 -4.878906 4.203125 -5.234375 L 4.21875 -5.28125 C 3.5625 -5.445312 2.945312 -5.570312 2.375 -5.65625 C 1.8125 -5.75 1.273438 -5.796875 0.765625 -5.796875 C 0.203125 -5.796875 -0.304688 -5.71875 -0.765625 -5.5625 C -1.222656 -5.414062 -1.632812 -5.144531 -2 -4.75 C -2.195312 -4.53125 -2.296875 -4.257812 -2.296875 -3.9375 C -2.296875 -3.738281 -2.25 -3.535156 -2.15625 -3.328125 C -2.0625 -3.128906 -1.910156 -2.957031 -1.703125 -2.8125 C -1.441406 -2.625 -1.164062 -2.484375 -0.875 -2.390625 C -0.59375 -2.304688 -0.300781 -2.265625 0 -2.265625 Z M 0 -2.265625 "/></g></g></g><g fill="#2b2b2b" fill-opacity="1"><g transform="translate(275.277795, 49.243926)"><g><path d="M 1.578125 -1.5625 C 0.671875 -1.5625 -0.0390625 -1.804688 -0.5625 -2.296875 C -1.082031 -2.785156 -1.34375 -3.515625 -1.34375 -4.484375 C -1.34375 -5.328125 -1.125 -6.34375 -0.6875 -7.53125 C -0.25 -8.726562 0.445312 -10.09375 1.40625 -11.625 C 2.957031 -14.09375 4.660156 -16.425781 6.515625 -18.625 C 8.378906 -20.820312 10.304688 -22.84375 12.296875 -24.6875 C 11.867188 -24.726562 11.441406 -24.757812 11.015625 -24.78125 C 10.597656 -24.800781 10.1875 -24.8125 9.78125 -24.8125 C 9.519531 -24.8125 9.257812 -24.800781 9 -24.78125 C 8.738281 -24.769531 8.472656 -24.757812 8.203125 -24.75 C 7.890625 -24.71875 7.578125 -24.675781 7.265625 -24.625 C 6.960938 -24.582031 6.660156 -24.515625 6.359375 -24.421875 C 5.753906 -24.273438 5.1875 -24.046875 4.65625 -23.734375 C 4.394531 -23.578125 4.15625 -23.394531 3.9375 -23.1875 C 3.71875 -22.976562 3.566406 -22.742188 3.484375 -22.484375 C 3.453125 -22.378906 3.4375 -22.269531 3.4375 -22.15625 C 3.4375 -21.945312 3.488281 -21.738281 3.59375 -21.53125 C 3.707031 -21.332031 3.847656 -21.15625 4.015625 -21 C 4.066406 -20.9375 4.09375 -20.875 4.09375 -20.8125 C 4.09375 -20.75 4.070312 -20.695312 4.03125 -20.65625 C 3.96875 -20.59375 3.90625 -20.5625 3.84375 -20.5625 C 3.800781 -20.5625 3.75 -20.582031 3.6875 -20.625 C 3.5625 -20.75 3.445312 -20.878906 3.34375 -21.015625 C 3.238281 -21.148438 3.148438 -21.316406 3.078125 -21.515625 C 3.003906 -21.710938 2.96875 -21.914062 2.96875 -22.125 C 2.96875 -22.289062 2.992188 -22.453125 3.046875 -22.609375 C 3.148438 -22.972656 3.332031 -23.273438 3.59375 -23.515625 C 3.851562 -23.765625 4.125 -23.972656 4.40625 -24.140625 C 4.695312 -24.316406 4.992188 -24.460938 5.296875 -24.578125 C 5.609375 -24.703125 5.921875 -24.804688 6.234375 -24.890625 C 6.546875 -24.984375 6.863281 -25.054688 7.1875 -25.109375 C 7.507812 -25.171875 7.832031 -25.222656 8.15625 -25.265625 C 8.488281 -25.296875 8.820312 -25.320312 9.15625 -25.34375 C 9.488281 -25.363281 9.816406 -25.375 10.140625 -25.375 C 10.597656 -25.375 11.054688 -25.359375 11.515625 -25.328125 C 11.972656 -25.304688 12.429688 -25.273438 12.890625 -25.234375 C 14.410156 -26.609375 15.941406 -27.867188 17.484375 -29.015625 C 19.023438 -30.171875 20.539062 -31.191406 22.03125 -32.078125 C 23.519531 -32.972656 24.953125 -33.722656 26.328125 -34.328125 C 27.710938 -34.941406 29.003906 -35.390625 30.203125 -35.671875 C 30.390625 -35.671875 30.519531 -35.628906 30.59375 -35.546875 C 30.664062 -35.472656 30.703125 -35.378906 30.703125 -35.265625 C 30.703125 -35.097656 30.640625 -34.914062 30.515625 -34.71875 C 30.398438 -34.53125 30.269531 -34.398438 30.125 -34.328125 C 29.53125 -34.171875 28.738281 -33.851562 27.75 -33.375 C 26.769531 -32.90625 25.640625 -32.273438 24.359375 -31.484375 C 23.078125 -30.703125 21.695312 -29.765625 20.21875 -28.671875 C 18.738281 -27.585938 17.210938 -26.347656 15.640625 -24.953125 L 15.875 -24.953125 C 16.84375 -24.835938 17.816406 -24.734375 18.796875 -24.640625 C 19.773438 -24.554688 20.742188 -24.515625 21.703125 -24.515625 C 21.992188 -24.515625 22.285156 -24.519531 22.578125 -24.53125 C 22.878906 -24.539062 23.175781 -24.554688 23.46875 -24.578125 C 24.082031 -24.617188 24.695312 -24.691406 25.3125 -24.796875 C 25.9375 -24.910156 26.539062 -25.070312 27.125 -25.28125 C 27.269531 -25.332031 27.414062 -25.382812 27.5625 -25.4375 C 27.707031 -25.488281 27.851562 -25.546875 28 -25.609375 C 28.144531 -25.671875 28.285156 -25.734375 28.421875 -25.796875 C 28.566406 -25.867188 28.703125 -25.9375 28.828125 -26 C 29.109375 -26.144531 29.375 -26.300781 29.625 -26.46875 C 29.882812 -26.632812 30.171875 -26.769531 30.484375 -26.875 C 30.515625 -26.894531 30.53125 -26.898438 30.53125 -26.890625 C 30.53125 -26.890625 30.546875 -26.894531 30.578125 -26.90625 C 30.628906 -26.90625 30.675781 -26.890625 30.71875 -26.859375 C 30.769531 -26.828125 30.800781 -26.785156 30.8125 -26.734375 C 30.820312 -26.710938 30.828125 -26.679688 30.828125 -26.640625 C 30.828125 -26.578125 30.8125 -26.523438 30.78125 -26.484375 C 30.675781 -26.359375 30.5625 -26.234375 30.4375 -26.109375 C 30.320312 -25.992188 30.195312 -25.894531 30.0625 -25.8125 C 29.925781 -25.726562 29.785156 -25.640625 29.640625 -25.546875 C 29.492188 -25.453125 29.347656 -25.375 29.203125 -25.3125 C 29.054688 -25.226562 28.90625 -25.148438 28.75 -25.078125 C 28.601562 -25.015625 28.453125 -24.953125 28.296875 -24.890625 C 28.148438 -24.828125 28 -24.765625 27.84375 -24.703125 C 27.6875 -24.648438 27.53125 -24.597656 27.375 -24.546875 C 26.738281 -24.335938 26.097656 -24.175781 25.453125 -24.0625 C 24.804688 -23.957031 24.160156 -23.882812 23.515625 -23.84375 C 23.253906 -23.832031 22.992188 -23.820312 22.734375 -23.8125 C 22.484375 -23.800781 22.222656 -23.796875 21.953125 -23.796875 C 20.921875 -23.796875 19.890625 -23.847656 18.859375 -23.953125 C 17.828125 -24.054688 16.804688 -24.171875 15.796875 -24.296875 L 15.015625 -24.390625 C 13.660156 -23.160156 12.296875 -21.828125 10.921875 -20.390625 C 9.554688 -18.953125 8.210938 -17.410156 6.890625 -15.765625 C 5.578125 -14.117188 4.316406 -12.363281 3.109375 -10.5 C 2.054688 -8.863281 1.296875 -7.488281 0.828125 -6.375 C 0.359375 -5.257812 0.125 -4.363281 0.125 -3.6875 C 0.125 -3.101562 0.28125 -2.671875 0.59375 -2.390625 C 0.914062 -2.117188 1.351562 -1.984375 1.90625 -1.984375 C 2.5 -1.984375 3.195312 -2.125 4 -2.40625 C 4.8125 -2.6875 5.675781 -3.082031 6.59375 -3.59375 C 7.519531 -4.113281 8.46875 -4.71875 9.4375 -5.40625 C 10.40625 -6.101562 11.351562 -6.867188 12.28125 -7.703125 C 12.332031 -7.753906 12.378906 -7.78125 12.421875 -7.78125 C 12.460938 -7.78125 12.484375 -7.765625 12.484375 -7.734375 L 12.484375 -7.6875 C 11.046875 -6.3125 9.65625 -5.171875 8.3125 -4.265625 C 6.976562 -3.359375 5.738281 -2.679688 4.59375 -2.234375 C 3.445312 -1.785156 2.441406 -1.5625 1.578125 -1.5625 Z M 1.578125 -1.5625 "/></g></g></g><g fill="#2b2b2b" fill-opacity="1"><g transform="translate(287.172444, 49.243926)"><g><path d="M 0.109375 -1.59375 C -0.609375 -1.59375 -1.144531 -1.753906 -1.5 -2.078125 C -1.863281 -2.410156 -2.046875 -2.878906 -2.046875 -3.484375 C -2.046875 -3.890625 -1.96875 -4.335938 -1.8125 -4.828125 C -1.664062 -5.328125 -1.46875 -5.847656 -1.21875 -6.390625 C -0.976562 -6.929688 -0.707031 -7.472656 -0.40625 -8.015625 C -0.101562 -8.566406 0.203125 -9.097656 0.515625 -9.609375 C 0.847656 -10.160156 1.160156 -10.6875 1.453125 -11.1875 C 1.753906 -11.695312 2.015625 -12.128906 2.234375 -12.484375 C 2.460938 -12.847656 2.628906 -13.078125 2.734375 -13.171875 C 2.785156 -13.234375 2.859375 -13.265625 2.953125 -13.265625 C 3.097656 -13.265625 3.257812 -13.1875 3.4375 -13.03125 C 3.625 -12.882812 3.78125 -12.695312 3.90625 -12.46875 C 4.03125 -12.238281 4.09375 -12 4.09375 -11.75 C 4.09375 -11.539062 4.035156 -11.351562 3.921875 -11.1875 C 3.742188 -10.882812 3.515625 -10.53125 3.234375 -10.125 C 2.960938 -9.726562 2.664062 -9.300781 2.34375 -8.84375 C 2.03125 -8.394531 1.710938 -7.925781 1.390625 -7.4375 C 1.078125 -6.957031 0.789062 -6.476562 0.53125 -6 C 0.28125 -5.519531 0.078125 -5.0625 -0.078125 -4.625 C -0.242188 -4.195312 -0.328125 -3.796875 -0.328125 -3.421875 C -0.328125 -3.109375 -0.226562 -2.828125 -0.03125 -2.578125 C 0.15625 -2.335938 0.484375 -2.21875 0.953125 -2.21875 C 1.335938 -2.21875 1.800781 -2.300781 2.34375 -2.46875 C 2.894531 -2.632812 3.484375 -2.859375 4.109375 -3.140625 C 4.734375 -3.421875 5.375 -3.742188 6.03125 -4.109375 C 6.6875 -4.484375 7.320312 -4.875 7.9375 -5.28125 C 8.550781 -5.695312 9.113281 -6.113281 9.625 -6.53125 C 10.144531 -6.957031 10.582031 -7.359375 10.9375 -7.734375 C 11.007812 -7.816406 11.09375 -7.859375 11.1875 -7.859375 C 11.257812 -7.859375 11.296875 -7.828125 11.296875 -7.765625 C 11.296875 -7.734375 11.28125 -7.703125 11.25 -7.671875 C 10.96875 -7.347656 10.578125 -6.976562 10.078125 -6.5625 C 9.578125 -6.144531 9.003906 -5.707031 8.359375 -5.25 C 7.722656 -4.800781 7.046875 -4.359375 6.328125 -3.921875 C 5.609375 -3.484375 4.878906 -3.085938 4.140625 -2.734375 C 3.410156 -2.390625 2.695312 -2.113281 2 -1.90625 C 1.3125 -1.695312 0.679688 -1.59375 0.109375 -1.59375 Z M 6.171875 -14.109375 C 6.140625 -14.109375 6.097656 -14.109375 6.046875 -14.109375 C 5.992188 -14.109375 5.941406 -14.113281 5.890625 -14.125 C 5.515625 -14.164062 5.191406 -14.265625 4.921875 -14.421875 C 4.648438 -14.578125 4.4375 -14.753906 4.28125 -14.953125 C 4.132812 -15.160156 4.0625 -15.347656 4.0625 -15.515625 C 4.0625 -15.710938 4.164062 -15.847656 4.375 -15.921875 C 4.4375 -15.929688 4.503906 -15.941406 4.578125 -15.953125 C 4.648438 -15.972656 4.722656 -15.984375 4.796875 -15.984375 C 5.003906 -15.984375 5.21875 -15.941406 5.4375 -15.859375 C 5.65625 -15.785156 5.890625 -15.679688 6.140625 -15.546875 C 6.328125 -15.441406 6.492188 -15.289062 6.640625 -15.09375 C 6.785156 -14.894531 6.859375 -14.710938 6.859375 -14.546875 C 6.859375 -14.421875 6.804688 -14.316406 6.703125 -14.234375 C 6.597656 -14.148438 6.421875 -14.109375 6.171875 -14.109375 Z M 6.171875 -14.109375 "/></g></g></g><g fill="#2b2b2b" fill-opacity="1"><g transform="translate(298.057179, 49.243926)"><g><path d="M -1.875 -2.296875 C -2.03125 -2.296875 -2.195312 -2.347656 -2.375 -2.453125 C -2.5625 -2.566406 -2.722656 -2.695312 -2.859375 -2.84375 C -2.992188 -3 -3.0625 -3.132812 -3.0625 -3.25 L -3.046875 -3.328125 C -2.722656 -4.128906 -2.332031 -4.90625 -1.875 -5.65625 C -1.425781 -6.40625 -0.953125 -7.144531 -0.453125 -7.875 C 0.0351562 -8.601562 0.523438 -9.335938 1.015625 -10.078125 C 1.503906 -10.816406 1.953125 -11.566406 2.359375 -12.328125 C 2.773438 -13.085938 3.113281 -13.878906 3.375 -14.703125 C 3.40625 -14.828125 3.492188 -14.890625 3.640625 -14.890625 C 3.765625 -14.890625 3.910156 -14.832031 4.078125 -14.71875 C 4.253906 -14.613281 4.425781 -14.46875 4.59375 -14.28125 C 4.757812 -14.101562 4.894531 -13.90625 5 -13.6875 C 5.101562 -13.46875 5.15625 -13.253906 5.15625 -13.046875 C 5.15625 -12.921875 5.140625 -12.8125 5.109375 -12.71875 C 4.890625 -12.09375 4.625 -11.484375 4.3125 -10.890625 C 4 -10.304688 3.648438 -9.722656 3.265625 -9.140625 C 4.109375 -9.847656 4.988281 -10.539062 5.90625 -11.21875 C 6.820312 -11.90625 7.851562 -12.585938 9 -13.265625 C 9.539062 -13.578125 10.113281 -13.875 10.71875 -14.15625 C 11.320312 -14.4375 11.910156 -14.660156 12.484375 -14.828125 C 13.054688 -14.992188 13.582031 -15.078125 14.0625 -15.078125 C 14.289062 -15.078125 14.503906 -15.054688 14.703125 -15.015625 C 14.992188 -14.929688 15.21875 -14.738281 15.375 -14.4375 C 15.53125 -14.132812 15.609375 -13.828125 15.609375 -13.515625 C 15.609375 -13.328125 15.582031 -13.160156 15.53125 -13.015625 C 15.457031 -12.785156 15.34375 -12.535156 15.1875 -12.265625 C 15.03125 -12.003906 14.8125 -11.6875 14.53125 -11.3125 C 14.257812 -10.945312 13.898438 -10.492188 13.453125 -9.953125 C 13.015625 -9.421875 12.46875 -8.765625 11.8125 -7.984375 C 11.382812 -7.492188 11 -7 10.65625 -6.5 C 10.320312 -6.007812 10.054688 -5.535156 9.859375 -5.078125 C 9.671875 -4.628906 9.578125 -4.222656 9.578125 -3.859375 C 9.578125 -3.484375 9.695312 -3.210938 9.9375 -3.046875 C 10.1875 -2.890625 10.53125 -2.8125 10.96875 -2.8125 C 11.414062 -2.8125 11.929688 -2.882812 12.515625 -3.03125 C 13.109375 -3.1875 13.726562 -3.390625 14.375 -3.640625 C 15.03125 -3.898438 15.679688 -4.1875 16.328125 -4.5 C 16.984375 -4.8125 17.601562 -5.140625 18.1875 -5.484375 C 18.769531 -5.835938 19.28125 -6.179688 19.71875 -6.515625 C 20.164062 -6.859375 20.503906 -7.171875 20.734375 -7.453125 C 20.785156 -7.515625 20.859375 -7.566406 20.953125 -7.609375 C 21.046875 -7.660156 21.113281 -7.6875 21.15625 -7.6875 C 21.175781 -7.6875 21.1875 -7.679688 21.1875 -7.671875 C 21.1875 -7.648438 21.171875 -7.625 21.140625 -7.59375 C 20.347656 -6.75 19.476562 -6 18.53125 -5.34375 C 17.582031 -4.6875 16.617188 -4.132812 15.640625 -3.6875 C 14.671875 -3.238281 13.726562 -2.898438 12.8125 -2.671875 C 11.90625 -2.441406 11.085938 -2.328125 10.359375 -2.328125 C 9.796875 -2.328125 9.3125 -2.394531 8.90625 -2.53125 C 8.5 -2.675781 8.191406 -2.910156 7.984375 -3.234375 C 7.773438 -3.566406 7.671875 -3.972656 7.671875 -4.453125 C 7.671875 -5.054688 7.84375 -5.742188 8.1875 -6.515625 C 8.539062 -7.285156 9.070312 -8.066406 9.78125 -8.859375 C 10.40625 -9.566406 10.972656 -10.207031 11.484375 -10.78125 C 11.992188 -11.363281 12.398438 -11.875 12.703125 -12.3125 C 13.015625 -12.757812 13.171875 -13.125 13.171875 -13.40625 L 13.140625 -13.5625 C 13.128906 -13.664062 13.09375 -13.757812 13.03125 -13.84375 C 12.96875 -13.925781 12.867188 -13.988281 12.734375 -14.03125 L 12.484375 -14.046875 C 12.203125 -14.046875 11.851562 -13.984375 11.4375 -13.859375 C 11.03125 -13.734375 10.625 -13.5625 10.21875 -13.34375 C 9.144531 -12.769531 8.164062 -12.175781 7.28125 -11.5625 C 6.40625 -10.957031 5.59375 -10.320312 4.84375 -9.65625 C 4.101562 -8.988281 3.390625 -8.28125 2.703125 -7.53125 C 2.015625 -6.78125 1.316406 -5.976562 0.609375 -5.125 C -0.0976562 -4.28125 -0.847656 -3.367188 -1.640625 -2.390625 C -1.710938 -2.328125 -1.789062 -2.296875 -1.875 -2.296875 Z M -1.875 -2.296875 "/></g></g></g></g></g></g></g></g></svg>