<svg xmlns="http://www.w3.org/2000/svg" xmlns:xlink="http://www.w3.org/1999/xlink" width="456" zoomAndPan="magnify" viewBox="0 0 342 38.999999" height="52" preserveAspectRatio="xMidYMid meet" version="1.0"><defs><g/><clipPath id="c3942b7ab2"><path d="M 0 0 L 40.5 0 L 40.5 38.25 L 0 38.25 Z M 0 0 " clip-rule="nonzero"/></clipPath></defs><g clip-path="url(#c3942b7ab2)"><path fill="#100f0d" d="M 34.132812 22.050781 C 34.132812 22.765625 33.671875 23.398438 32.988281 23.625 C 29.730469 24.699219 25.222656 25.363281 20.246094 25.363281 C 15.273438 25.363281 10.765625 24.699219 7.503906 23.625 C 6.824219 23.398438 6.359375 22.765625 6.359375 22.050781 L 6.359375 8.257812 C 6.359375 7.421875 7.042969 6.746094 7.886719 6.746094 L 32.609375 6.746094 C 33.453125 6.746094 34.132812 7.421875 34.132812 8.257812 Z M 34.132812 28.695312 C 34.132812 30.382812 32.527344 31.75 30.542969 31.75 L 26.0625 31.75 C 25.015625 31.75 24.679688 30.550781 25.617188 30.148438 L 32.746094 27.109375 C 33.382812 26.835938 34.132812 27.230469 34.132812 27.839844 Z M 14.429688 31.75 L 9.949219 31.75 C 7.96875 31.75 6.359375 30.382812 6.359375 28.695312 L 6.359375 27.839844 C 6.359375 27.230469 7.113281 26.835938 7.75 27.109375 L 14.878906 30.148438 C 15.8125 30.550781 15.480469 31.75 14.429688 31.75 Z M 12.894531 2.582031 C 12.894531 2.332031 13.101562 2.128906 13.351562 2.128906 L 27.144531 2.128906 C 27.394531 2.128906 27.597656 2.332031 27.597656 2.582031 L 27.597656 4.757812 C 27.597656 5.007812 27.394531 5.207031 27.144531 5.207031 L 13.351562 5.207031 C 13.101562 5.207031 12.894531 5.007812 12.894531 4.757812 Z M 39.777344 9.824219 L 39.347656 9.824219 L 39.347656 9.441406 C 39.347656 8.730469 38.765625 8.152344 38.046875 8.152344 L 36.433594 8.152344 L 36.433594 4.453125 C 36.433594 3.96875 36.324219 3.503906 36.136719 3.089844 C 35.695312 2.117188 34.765625 1.457031 33.710938 1.25 C 33.515625 1.210938 33.320312 1.171875 33.125 1.136719 C 26.90625 0 20.246094 0.246094 20.246094 0.246094 C 20.246094 0.246094 13.589844 0 7.371094 1.136719 C 7.175781 1.171875 6.980469 1.210938 6.785156 1.25 C 5.730469 1.457031 4.800781 2.117188 4.359375 3.089844 C 4.171875 3.503906 4.0625 3.96875 4.0625 4.453125 L 4.0625 8.152344 L 2.453125 8.152344 C 1.734375 8.152344 1.148438 8.730469 1.148438 9.441406 L 1.148438 9.824219 L 0.71875 9.824219 C 0.324219 9.824219 0.00390625 10.140625 0.00390625 10.53125 L 0.00390625 16.078125 C 0.00390625 16.472656 0.324219 16.789062 0.71875 16.789062 L 2.554688 16.789062 C 2.949219 16.789062 3.273438 16.472656 3.273438 16.078125 L 3.273438 10.53125 C 3.273438 10.140625 2.949219 9.824219 2.554688 9.824219 L 2.128906 9.824219 L 2.128906 9.441406 C 2.128906 9.265625 2.273438 9.121094 2.453125 9.121094 L 4.0625 9.121094 L 4.0625 30.617188 C 4.0625 32.355469 5.105469 33.847656 6.601562 34.523438 L 6.601562 37.402344 C 6.601562 37.871094 6.984375 38.25 7.457031 38.25 L 11.910156 38.25 C 12.382812 38.25 12.765625 37.871094 12.765625 37.402344 L 12.765625 34.910156 L 27.730469 34.910156 L 27.730469 37.402344 C 27.730469 37.871094 28.113281 38.25 28.585938 38.25 L 33.039062 38.25 C 33.511719 38.25 33.894531 37.871094 33.894531 37.402344 L 33.894531 34.523438 C 35.390625 33.847656 36.433594 32.355469 36.433594 30.617188 L 36.433594 9.121094 L 38.046875 9.121094 C 38.222656 9.121094 38.367188 9.265625 38.367188 9.441406 L 38.367188 9.824219 L 37.941406 9.824219 C 37.546875 9.824219 37.226562 10.140625 37.226562 10.53125 L 37.226562 16.078125 C 37.226562 16.472656 37.546875 16.789062 37.941406 16.789062 L 39.777344 16.789062 C 40.171875 16.789062 40.492188 16.472656 40.492188 16.078125 L 40.492188 10.53125 C 40.492188 10.140625 40.171875 9.824219 39.777344 9.824219 " fill-opacity="1" fill-rule="nonzero"/></g><g fill="#2b2b2b" fill-opacity="1"><g transform="translate(67.201524, 22.858857)"><g><path d="M 6.265625 0.15625 C 5.054688 0.15625 4.050781 -0.0820312 3.25 -0.5625 C 2.457031 -1.039062 1.863281 -1.707031 1.46875 -2.5625 C 1.082031 -3.425781 0.890625 -4.4375 0.890625 -5.59375 C 0.890625 -6.71875 1.082031 -7.707031 1.46875 -8.5625 C 1.851562 -9.414062 2.4375 -10.082031 3.21875 -10.5625 C 4.007812 -11.050781 5.003906 -11.296875 6.203125 -11.296875 C 7.347656 -11.296875 8.234375 -11.132812 8.859375 -10.8125 C 9.484375 -10.5 9.796875 -10.09375 9.796875 -9.59375 C 9.796875 -9.238281 9.679688 -8.96875 9.453125 -8.78125 C 9.234375 -8.601562 8.863281 -8.492188 8.34375 -8.453125 C 8.34375 -9.421875 8.175781 -10.109375 7.84375 -10.515625 C 7.507812 -10.929688 6.941406 -11.140625 6.140625 -11.140625 C 5.296875 -11.140625 4.613281 -10.953125 4.09375 -10.578125 C 3.582031 -10.210938 3.207031 -9.625 2.96875 -8.8125 C 2.738281 -8 2.625 -6.925781 2.625 -5.59375 C 2.625 -4.25 2.753906 -3.164062 3.015625 -2.34375 C 3.273438 -1.53125 3.691406 -0.9375 4.265625 -0.5625 C 4.835938 -0.1875 5.585938 0 6.515625 0 C 6.816406 0 7.101562 -0.0195312 7.375 -0.0625 C 7.65625 -0.113281 7.90625 -0.171875 8.125 -0.234375 L 8.125 -3.9375 C 8.125 -4.644531 7.703125 -5 6.859375 -5 L 6.796875 -5 L 6.796875 -5.15625 L 10.84375 -5.15625 L 10.84375 -5 L 10.78125 -5 C 10.375 -5 10.09375 -4.90625 9.9375 -4.71875 C 9.78125 -4.53125 9.703125 -4.25 9.703125 -3.875 L 9.703125 -0.5625 C 9.179688 -0.320312 8.644531 -0.140625 8.09375 -0.015625 C 7.550781 0.0976562 6.941406 0.15625 6.265625 0.15625 Z M 6.265625 0.15625 "/></g></g></g><g fill="#2b2b2b" fill-opacity="1"><g transform="translate(78.338192, 22.858857)"><g><path d="M 2.5 -9.859375 C 2.300781 -9.859375 2.132812 -9.921875 2 -10.046875 C 1.875 -10.179688 1.8125 -10.410156 1.8125 -10.734375 C 1.8125 -11.066406 1.875 -11.296875 2 -11.421875 C 2.132812 -11.546875 2.300781 -11.609375 2.5 -11.609375 C 2.6875 -11.609375 2.847656 -11.546875 2.984375 -11.421875 C 3.117188 -11.296875 3.1875 -11.066406 3.1875 -10.734375 C 3.1875 -10.410156 3.117188 -10.179688 2.984375 -10.046875 C 2.847656 -9.921875 2.6875 -9.859375 2.5 -9.859375 Z M 0.359375 0 L 0.359375 -0.15625 L 0.5625 -0.15625 C 1.019531 -0.15625 1.347656 -0.25 1.546875 -0.4375 C 1.742188 -0.625 1.84375 -0.929688 1.84375 -1.359375 L 1.84375 -7 C 1.84375 -7.4375 1.742188 -7.742188 1.546875 -7.921875 C 1.347656 -8.109375 1.019531 -8.203125 0.5625 -8.203125 L 0.515625 -8.203125 L 0.515625 -8.359375 L 3.3125 -8.359375 L 3.3125 -1.4375 C 3.3125 -0.976562 3.410156 -0.648438 3.609375 -0.453125 C 3.804688 -0.253906 4.132812 -0.15625 4.59375 -0.15625 L 4.796875 -0.15625 L 4.796875 0 Z M 0.359375 0 "/></g></g></g><g fill="#2b2b2b" fill-opacity="1"><g transform="translate(83.329418, 22.858857)"><g><path d="M 5.59375 0.15625 C 4.914062 0.15625 4.375 -0.0351562 3.96875 -0.421875 C 3.570312 -0.804688 3.304688 -1.398438 3.171875 -2.203125 L 3.140625 -2.203125 L 3.140625 0 L 0.28125 0 L 0.28125 -0.15625 L 0.40625 -0.15625 C 0.863281 -0.15625 1.191406 -0.25 1.390625 -0.4375 C 1.585938 -0.625 1.6875 -0.929688 1.6875 -1.359375 L 1.6875 -10.484375 C 1.6875 -10.921875 1.585938 -11.234375 1.390625 -11.421875 C 1.191406 -11.609375 0.863281 -11.703125 0.40625 -11.703125 L 0.359375 -11.703125 L 0.359375 -11.859375 L 3.15625 -11.859375 L 3.15625 -8.984375 C 3.15625 -8.710938 3.15625 -8.320312 3.15625 -7.8125 C 3.15625 -7.300781 3.144531 -6.765625 3.125 -6.203125 L 3.15625 -6.203125 C 3.300781 -6.992188 3.570312 -7.578125 3.96875 -7.953125 C 4.363281 -8.328125 4.914062 -8.515625 5.625 -8.515625 C 7.6875 -8.515625 8.71875 -7.078125 8.71875 -4.203125 C 8.71875 -2.773438 8.453125 -1.691406 7.921875 -0.953125 C 7.390625 -0.210938 6.613281 0.15625 5.59375 0.15625 Z M 5.328125 -0.078125 C 6.003906 -0.078125 6.488281 -0.394531 6.78125 -1.03125 C 7.070312 -1.664062 7.21875 -2.726562 7.21875 -4.21875 C 7.21875 -5.6875 7.070312 -6.726562 6.78125 -7.34375 C 6.488281 -7.96875 6 -8.28125 5.3125 -8.28125 C 4.550781 -8.28125 4 -7.9375 3.65625 -7.25 C 3.320312 -6.570312 3.15625 -5.554688 3.15625 -4.203125 C 3.15625 -2.804688 3.332031 -1.769531 3.6875 -1.09375 C 4.039062 -0.414062 4.585938 -0.078125 5.328125 -0.078125 Z M 5.328125 -0.078125 "/></g></g></g><g fill="#2b2b2b" fill-opacity="1"><g transform="translate(92.906337, 22.858857)"><g><path d="M 3.75 0.15625 C 2.957031 0.15625 2.378906 -0.0195312 2.015625 -0.375 C 1.660156 -0.738281 1.484375 -1.367188 1.484375 -2.265625 L 1.484375 -8.203125 L 0.296875 -8.203125 L 0.296875 -8.359375 C 1.035156 -8.359375 1.597656 -8.5 1.984375 -8.78125 C 2.390625 -9.0625 2.660156 -9.5625 2.796875 -10.28125 L 2.953125 -10.28125 L 2.953125 -8.359375 L 5.140625 -8.359375 L 5.140625 -8.203125 L 2.953125 -8.203125 L 2.953125 -1.6875 C 2.953125 -0.601562 3.363281 -0.0625 4.1875 -0.0625 C 4.457031 -0.0625 4.773438 -0.125 5.140625 -0.25 L 5.140625 -0.09375 C 5.003906 -0.03125 4.800781 0.0234375 4.53125 0.078125 C 4.257812 0.128906 4 0.15625 3.75 0.15625 Z M 3.75 0.15625 "/></g></g></g><g fill="#2b2b2b" fill-opacity="1"><g transform="translate(98.396686, 22.858857)"><g/></g></g><g fill="#2b2b2b" fill-opacity="1"><g transform="translate(101.906142, 22.858857)"><g><path d="M 4.5625 0.15625 C 3.394531 0.15625 2.484375 -0.21875 1.828125 -0.96875 C 1.179688 -1.71875 0.859375 -2.769531 0.859375 -4.125 C 0.859375 -5.582031 1.15625 -6.675781 1.75 -7.40625 C 2.351562 -8.144531 3.210938 -8.515625 4.328125 -8.515625 C 5.335938 -8.515625 6.128906 -8.203125 6.703125 -7.578125 C 7.285156 -6.960938 7.578125 -6.035156 7.578125 -4.796875 L 7.578125 -4.421875 L 2.375 -4.421875 C 2.382812 -2.828125 2.554688 -1.691406 2.890625 -1.015625 C 3.234375 -0.335938 3.804688 0 4.609375 0 C 5.191406 0 5.679688 -0.160156 6.078125 -0.484375 C 6.484375 -0.804688 6.742188 -1.285156 6.859375 -1.921875 C 6.984375 -1.898438 7.078125 -1.835938 7.140625 -1.734375 C 7.203125 -1.628906 7.234375 -1.519531 7.234375 -1.40625 C 7.234375 -1.195312 7.132812 -0.96875 6.9375 -0.71875 C 6.738281 -0.476562 6.441406 -0.269531 6.046875 -0.09375 C 5.660156 0.0703125 5.164062 0.15625 4.5625 0.15625 Z M 2.375 -4.578125 L 6 -4.578125 C 6 -5.941406 5.867188 -6.910156 5.609375 -7.484375 C 5.347656 -8.066406 4.910156 -8.359375 4.296875 -8.359375 C 3.660156 -8.359375 3.191406 -8.066406 2.890625 -7.484375 C 2.597656 -6.910156 2.425781 -5.941406 2.375 -4.578125 Z M 2.375 -4.578125 "/></g></g></g><g fill="#2b2b2b" fill-opacity="1"><g transform="translate(110.250853, 22.858857)"><g><path d="M 3.34375 0.15625 C 2.5625 0.15625 1.925781 0.015625 1.4375 -0.265625 C 0.945312 -0.546875 0.703125 -0.957031 0.703125 -1.5 C 0.703125 -1.78125 0.753906 -2 0.859375 -2.15625 C 0.972656 -2.3125 1.109375 -2.421875 1.265625 -2.484375 C 1.421875 -2.546875 1.5625 -2.578125 1.6875 -2.578125 C 1.6875 -1.734375 1.804688 -1.09375 2.046875 -0.65625 C 2.296875 -0.21875 2.738281 0 3.375 0 C 3.925781 0 4.363281 -0.140625 4.6875 -0.421875 C 5.007812 -0.710938 5.171875 -1.140625 5.171875 -1.703125 C 5.171875 -2.066406 5.109375 -2.351562 4.984375 -2.5625 C 4.859375 -2.78125 4.648438 -2.972656 4.359375 -3.140625 C 4.078125 -3.304688 3.679688 -3.5 3.171875 -3.71875 C 2.578125 -3.976562 2.109375 -4.226562 1.765625 -4.46875 C 1.421875 -4.71875 1.175781 -4.988281 1.03125 -5.28125 C 0.882812 -5.570312 0.8125 -5.914062 0.8125 -6.3125 C 0.8125 -7.019531 1.0625 -7.5625 1.5625 -7.9375 C 2.0625 -8.3125 2.753906 -8.5 3.640625 -8.5 C 4.390625 -8.5 4.972656 -8.359375 5.390625 -8.078125 C 5.816406 -7.796875 6.03125 -7.460938 6.03125 -7.078125 C 6.03125 -6.796875 5.929688 -6.566406 5.734375 -6.390625 C 5.535156 -6.222656 5.257812 -6.140625 4.90625 -6.140625 C 4.90625 -6.941406 4.796875 -7.507812 4.578125 -7.84375 C 4.359375 -8.175781 4.019531 -8.34375 3.5625 -8.34375 C 2.5 -8.34375 1.96875 -7.847656 1.96875 -6.859375 C 1.96875 -6.492188 2.039062 -6.203125 2.1875 -5.984375 C 2.332031 -5.765625 2.554688 -5.578125 2.859375 -5.421875 C 3.160156 -5.265625 3.546875 -5.085938 4.015625 -4.890625 C 4.609375 -4.648438 5.078125 -4.40625 5.421875 -4.15625 C 5.765625 -3.914062 6.003906 -3.644531 6.140625 -3.34375 C 6.285156 -3.050781 6.359375 -2.703125 6.359375 -2.296875 C 6.359375 -1.484375 6.082031 -0.867188 5.53125 -0.453125 C 4.988281 -0.046875 4.257812 0.15625 3.34375 0.15625 Z M 3.34375 0.15625 "/></g></g></g><g fill="#2b2b2b" fill-opacity="1"><g transform="translate(117.285364, 22.858857)"><g/></g></g><g fill="#2b2b2b" fill-opacity="1"><g transform="translate(120.79482, 22.858857)"><g><path d="M 4.5625 0.15625 C 3.394531 0.15625 2.484375 -0.21875 1.828125 -0.96875 C 1.179688 -1.71875 0.859375 -2.769531 0.859375 -4.125 C 0.859375 -5.582031 1.15625 -6.675781 1.75 -7.40625 C 2.351562 -8.144531 3.210938 -8.515625 4.328125 -8.515625 C 5.335938 -8.515625 6.128906 -8.203125 6.703125 -7.578125 C 7.285156 -6.960938 7.578125 -6.035156 7.578125 -4.796875 L 7.578125 -4.421875 L 2.375 -4.421875 C 2.382812 -2.828125 2.554688 -1.691406 2.890625 -1.015625 C 3.234375 -0.335938 3.804688 0 4.609375 0 C 5.191406 0 5.679688 -0.160156 6.078125 -0.484375 C 6.484375 -0.804688 6.742188 -1.285156 6.859375 -1.921875 C 6.984375 -1.898438 7.078125 -1.835938 7.140625 -1.734375 C 7.203125 -1.628906 7.234375 -1.519531 7.234375 -1.40625 C 7.234375 -1.195312 7.132812 -0.96875 6.9375 -0.71875 C 6.738281 -0.476562 6.441406 -0.269531 6.046875 -0.09375 C 5.660156 0.0703125 5.164062 0.15625 4.5625 0.15625 Z M 2.375 -4.578125 L 6 -4.578125 C 6 -5.941406 5.867188 -6.910156 5.609375 -7.484375 C 5.347656 -8.066406 4.910156 -8.359375 4.296875 -8.359375 C 3.660156 -8.359375 3.191406 -8.066406 2.890625 -7.484375 C 2.597656 -6.910156 2.425781 -5.941406 2.375 -4.578125 Z M 2.375 -4.578125 "/></g></g></g><g fill="#2b2b2b" fill-opacity="1"><g transform="translate(129.139531, 22.858857)"><g><path d="M 2.5 -9.859375 C 2.300781 -9.859375 2.132812 -9.921875 2 -10.046875 C 1.875 -10.179688 1.8125 -10.410156 1.8125 -10.734375 C 1.8125 -11.066406 1.875 -11.296875 2 -11.421875 C 2.132812 -11.546875 2.300781 -11.609375 2.5 -11.609375 C 2.6875 -11.609375 2.847656 -11.546875 2.984375 -11.421875 C 3.117188 -11.296875 3.1875 -11.066406 3.1875 -10.734375 C 3.1875 -10.410156 3.117188 -10.179688 2.984375 -10.046875 C 2.847656 -9.921875 2.6875 -9.859375 2.5 -9.859375 Z M 0.359375 0 L 0.359375 -0.15625 L 0.5625 -0.15625 C 1.019531 -0.15625 1.347656 -0.25 1.546875 -0.4375 C 1.742188 -0.625 1.84375 -0.929688 1.84375 -1.359375 L 1.84375 -7 C 1.84375 -7.4375 1.742188 -7.742188 1.546875 -7.921875 C 1.347656 -8.109375 1.019531 -8.203125 0.5625 -8.203125 L 0.515625 -8.203125 L 0.515625 -8.359375 L 3.3125 -8.359375 L 3.3125 -1.4375 C 3.3125 -0.976562 3.410156 -0.648438 3.609375 -0.453125 C 3.804688 -0.253906 4.132812 -0.15625 4.59375 -0.15625 L 4.796875 -0.15625 L 4.796875 0 Z M 0.359375 0 "/></g></g></g><g fill="#2b2b2b" fill-opacity="1"><g transform="translate(134.130757, 22.858857)"><g><path d="M 0.4375 0 L 0.4375 -0.15625 L 0.5625 -0.15625 C 1.039062 -0.15625 1.375 -0.257812 1.5625 -0.46875 C 1.75 -0.675781 1.84375 -1.050781 1.84375 -1.59375 L 1.84375 -6.8125 C 1.84375 -7.34375 1.753906 -7.707031 1.578125 -7.90625 C 1.398438 -8.101562 1.070312 -8.203125 0.59375 -8.203125 L 0.515625 -8.203125 L 0.515625 -8.359375 L 3.296875 -8.359375 L 3.296875 -6.90625 L 3.328125 -6.90625 C 3.460938 -7.382812 3.660156 -7.738281 3.921875 -7.96875 C 4.191406 -8.195312 4.476562 -8.34375 4.78125 -8.40625 C 5.09375 -8.476562 5.378906 -8.515625 5.640625 -8.515625 C 6.566406 -8.515625 7.253906 -8.273438 7.703125 -7.796875 C 8.148438 -7.316406 8.375 -6.539062 8.375 -5.46875 L 8.375 -1.59375 C 8.375 -1.050781 8.457031 -0.675781 8.625 -0.46875 C 8.789062 -0.257812 9.097656 -0.15625 9.546875 -0.15625 L 9.625 -0.15625 L 9.625 0 L 6.921875 0 L 6.921875 -6 C 6.921875 -6.675781 6.789062 -7.222656 6.53125 -7.640625 C 6.28125 -8.066406 5.851562 -8.28125 5.25 -8.28125 C 4.757812 -8.28125 4.375 -8.148438 4.09375 -7.890625 C 3.8125 -7.640625 3.609375 -7.304688 3.484375 -6.890625 C 3.367188 -6.484375 3.3125 -6.054688 3.3125 -5.609375 L 3.3125 -1.59375 C 3.3125 -1.050781 3.398438 -0.675781 3.578125 -0.46875 C 3.753906 -0.257812 4.082031 -0.15625 4.5625 -0.15625 L 4.640625 -0.15625 L 4.640625 0 Z M 0.4375 0 "/></g></g></g><g fill="#2b2b2b" fill-opacity="1"><g transform="translate(144.1912, 22.858857)"><g><path d="M 4.5625 0.15625 C 3.394531 0.15625 2.484375 -0.21875 1.828125 -0.96875 C 1.179688 -1.71875 0.859375 -2.769531 0.859375 -4.125 C 0.859375 -5.582031 1.15625 -6.675781 1.75 -7.40625 C 2.351562 -8.144531 3.210938 -8.515625 4.328125 -8.515625 C 5.335938 -8.515625 6.128906 -8.203125 6.703125 -7.578125 C 7.285156 -6.960938 7.578125 -6.035156 7.578125 -4.796875 L 7.578125 -4.421875 L 2.375 -4.421875 C 2.382812 -2.828125 2.554688 -1.691406 2.890625 -1.015625 C 3.234375 -0.335938 3.804688 0 4.609375 0 C 5.191406 0 5.679688 -0.160156 6.078125 -0.484375 C 6.484375 -0.804688 6.742188 -1.285156 6.859375 -1.921875 C 6.984375 -1.898438 7.078125 -1.835938 7.140625 -1.734375 C 7.203125 -1.628906 7.234375 -1.519531 7.234375 -1.40625 C 7.234375 -1.195312 7.132812 -0.96875 6.9375 -0.71875 C 6.738281 -0.476562 6.441406 -0.269531 6.046875 -0.09375 C 5.660156 0.0703125 5.164062 0.15625 4.5625 0.15625 Z M 2.375 -4.578125 L 6 -4.578125 C 6 -5.941406 5.867188 -6.910156 5.609375 -7.484375 C 5.347656 -8.066406 4.910156 -8.359375 4.296875 -8.359375 C 3.660156 -8.359375 3.191406 -8.066406 2.890625 -7.484375 C 2.597656 -6.910156 2.425781 -5.941406 2.375 -4.578125 Z M 2.375 -4.578125 "/></g></g></g><g fill="#2b2b2b" fill-opacity="1"><g transform="translate(152.535911, 22.858857)"><g><path d="M 0.4375 0 L 0.4375 -0.15625 L 0.5625 -0.15625 C 1.039062 -0.15625 1.375 -0.257812 1.5625 -0.46875 C 1.75 -0.675781 1.84375 -1.050781 1.84375 -1.59375 L 1.84375 -6.8125 C 1.84375 -7.34375 1.753906 -7.707031 1.578125 -7.90625 C 1.398438 -8.101562 1.070312 -8.203125 0.59375 -8.203125 L 0.515625 -8.203125 L 0.515625 -8.359375 L 3.296875 -8.359375 L 3.296875 -6.90625 L 3.328125 -6.90625 C 3.460938 -7.382812 3.660156 -7.738281 3.921875 -7.96875 C 4.191406 -8.195312 4.476562 -8.34375 4.78125 -8.40625 C 5.09375 -8.476562 5.378906 -8.515625 5.640625 -8.515625 C 6.566406 -8.515625 7.253906 -8.273438 7.703125 -7.796875 C 8.148438 -7.316406 8.375 -6.539062 8.375 -5.46875 L 8.375 -1.59375 C 8.375 -1.050781 8.457031 -0.675781 8.625 -0.46875 C 8.789062 -0.257812 9.097656 -0.15625 9.546875 -0.15625 L 9.625 -0.15625 L 9.625 0 L 6.921875 0 L 6.921875 -6 C 6.921875 -6.675781 6.789062 -7.222656 6.53125 -7.640625 C 6.28125 -8.066406 5.851562 -8.28125 5.25 -8.28125 C 4.757812 -8.28125 4.375 -8.148438 4.09375 -7.890625 C 3.8125 -7.640625 3.609375 -7.304688 3.484375 -6.890625 C 3.367188 -6.484375 3.3125 -6.054688 3.3125 -5.609375 L 3.3125 -1.59375 C 3.3125 -1.050781 3.398438 -0.675781 3.578125 -0.46875 C 3.753906 -0.257812 4.082031 -0.15625 4.5625 -0.15625 L 4.640625 -0.15625 L 4.640625 0 Z M 0.4375 0 "/></g></g></g><g fill="#2b2b2b" fill-opacity="1"><g transform="translate(162.596354, 22.858857)"><g/></g></g><g fill="#2b2b2b" fill-opacity="1"><g transform="translate(166.10581, 22.858857)"><g><path d="M 2.5 0 L 2.5 -0.15625 L 2.703125 -0.15625 C 3.554688 -0.15625 3.984375 -0.53125 3.984375 -1.28125 L 3.984375 -10.984375 L 2.703125 -10.984375 C 1.910156 -10.984375 1.351562 -10.832031 1.03125 -10.53125 C 0.71875 -10.238281 0.539062 -9.703125 0.5 -8.921875 L 0.46875 -8.40625 L 0.3125 -8.40625 L 0.40625 -11.140625 L 9.15625 -11.140625 L 9.25 -8.40625 L 9.09375 -8.40625 L 9.0625 -8.921875 C 9.007812 -9.703125 8.828125 -10.238281 8.515625 -10.53125 C 8.203125 -10.832031 7.65625 -10.984375 6.875 -10.984375 L 5.5625 -10.984375 L 5.5625 -1.28125 C 5.5625 -0.53125 5.988281 -0.15625 6.84375 -0.15625 L 7.046875 -0.15625 L 7.046875 0 Z M 2.5 0 "/></g></g></g><g fill="#2b2b2b" fill-opacity="1"><g transform="translate(175.667131, 22.858857)"><g><path d="M 0.359375 0 L 0.359375 -0.15625 L 0.5625 -0.15625 C 1.019531 -0.15625 1.347656 -0.25 1.546875 -0.4375 C 1.742188 -0.625 1.84375 -0.929688 1.84375 -1.359375 L 1.84375 -7 C 1.84375 -7.4375 1.742188 -7.742188 1.546875 -7.921875 C 1.347656 -8.109375 1.019531 -8.203125 0.5625 -8.203125 L 0.515625 -8.203125 L 0.515625 -8.359375 L 3.296875 -8.359375 L 3.296875 -6.8125 L 3.328125 -6.8125 C 3.398438 -7.082031 3.507812 -7.34375 3.65625 -7.59375 C 3.800781 -7.851562 4.019531 -8.070312 4.3125 -8.25 C 4.601562 -8.425781 5.003906 -8.515625 5.515625 -8.515625 C 6.023438 -8.515625 6.421875 -8.410156 6.703125 -8.203125 C 6.984375 -8.003906 7.125 -7.726562 7.125 -7.375 C 7.125 -7.0625 7.007812 -6.800781 6.78125 -6.59375 C 6.5625 -6.382812 6.191406 -6.28125 5.671875 -6.28125 C 5.671875 -6.925781 5.5625 -7.367188 5.34375 -7.609375 C 5.125 -7.847656 4.878906 -7.96875 4.609375 -7.96875 C 4.304688 -7.96875 4.066406 -7.863281 3.890625 -7.65625 C 3.710938 -7.445312 3.582031 -7.171875 3.5 -6.828125 C 3.414062 -6.492188 3.363281 -6.144531 3.34375 -5.78125 C 3.320312 -5.425781 3.3125 -5.097656 3.3125 -4.796875 L 3.3125 -1.4375 C 3.3125 -0.976562 3.410156 -0.648438 3.609375 -0.453125 C 3.804688 -0.253906 4.132812 -0.15625 4.59375 -0.15625 L 4.796875 -0.15625 L 4.796875 0 Z M 0.359375 0 "/></g></g></g><g fill="#2b2b2b" fill-opacity="1"><g transform="translate(183.013596, 22.858857)"><g><path d="M 3.359375 0.15625 C 2.554688 0.15625 1.925781 -0.046875 1.46875 -0.453125 C 1.007812 -0.867188 0.78125 -1.4375 0.78125 -2.15625 C 0.78125 -2.957031 1.070312 -3.554688 1.65625 -3.953125 C 2.25 -4.347656 3.144531 -4.566406 4.34375 -4.609375 L 5.640625 -4.65625 L 5.640625 -5.828125 C 5.640625 -6.410156 5.609375 -6.882812 5.546875 -7.25 C 5.484375 -7.625 5.347656 -7.898438 5.140625 -8.078125 C 4.929688 -8.265625 4.613281 -8.359375 4.1875 -8.359375 C 3.582031 -8.359375 3.191406 -8.171875 3.015625 -7.796875 C 2.847656 -7.429688 2.765625 -6.847656 2.765625 -6.046875 C 2.328125 -6.046875 1.992188 -6.117188 1.765625 -6.265625 C 1.546875 -6.410156 1.4375 -6.648438 1.4375 -6.984375 C 1.4375 -7.359375 1.5625 -7.65625 1.8125 -7.875 C 2.070312 -8.09375 2.410156 -8.253906 2.828125 -8.359375 C 3.253906 -8.460938 3.726562 -8.515625 4.25 -8.515625 C 5.207031 -8.515625 5.921875 -8.3125 6.390625 -7.90625 C 6.867188 -7.507812 7.109375 -6.816406 7.109375 -5.828125 L 7.109375 -1.15625 C 7.109375 -0.78125 7.179688 -0.519531 7.328125 -0.375 C 7.472656 -0.226562 7.71875 -0.15625 8.0625 -0.15625 L 8.109375 -0.15625 L 8.109375 0 L 5.765625 0 L 5.765625 -1.640625 L 5.734375 -1.640625 C 5.566406 -1.015625 5.269531 -0.554688 4.84375 -0.265625 C 4.425781 0.015625 3.929688 0.15625 3.359375 0.15625 Z M 3.671875 -0.0625 C 4.054688 -0.0625 4.394531 -0.160156 4.6875 -0.359375 C 4.988281 -0.554688 5.222656 -0.820312 5.390625 -1.15625 C 5.554688 -1.488281 5.640625 -1.847656 5.640625 -2.234375 L 5.640625 -4.484375 L 4.640625 -4.4375 C 3.753906 -4.394531 3.140625 -4.191406 2.796875 -3.828125 C 2.460938 -3.460938 2.296875 -2.847656 2.296875 -1.984375 C 2.296875 -0.703125 2.753906 -0.0625 3.671875 -0.0625 Z M 3.671875 -0.0625 "/></g></g></g><g fill="#2b2b2b" fill-opacity="1"><g transform="translate(191.795037, 22.858857)"><g><path d="M 0.4375 0 L 0.4375 -0.15625 L 0.5625 -0.15625 C 1.039062 -0.15625 1.375 -0.257812 1.5625 -0.46875 C 1.75 -0.675781 1.84375 -1.050781 1.84375 -1.59375 L 1.84375 -6.8125 C 1.84375 -7.34375 1.753906 -7.707031 1.578125 -7.90625 C 1.398438 -8.101562 1.070312 -8.203125 0.59375 -8.203125 L 0.515625 -8.203125 L 0.515625 -8.359375 L 3.296875 -8.359375 L 3.296875 -6.90625 L 3.328125 -6.90625 C 3.460938 -7.382812 3.660156 -7.738281 3.921875 -7.96875 C 4.191406 -8.195312 4.476562 -8.34375 4.78125 -8.40625 C 5.09375 -8.476562 5.378906 -8.515625 5.640625 -8.515625 C 6.566406 -8.515625 7.253906 -8.273438 7.703125 -7.796875 C 8.148438 -7.316406 8.375 -6.539062 8.375 -5.46875 L 8.375 -1.59375 C 8.375 -1.050781 8.457031 -0.675781 8.625 -0.46875 C 8.789062 -0.257812 9.097656 -0.15625 9.546875 -0.15625 L 9.625 -0.15625 L 9.625 0 L 6.921875 0 L 6.921875 -6 C 6.921875 -6.675781 6.789062 -7.222656 6.53125 -7.640625 C 6.28125 -8.066406 5.851562 -8.28125 5.25 -8.28125 C 4.757812 -8.28125 4.375 -8.148438 4.09375 -7.890625 C 3.8125 -7.640625 3.609375 -7.304688 3.484375 -6.890625 C 3.367188 -6.484375 3.3125 -6.054688 3.3125 -5.609375 L 3.3125 -1.59375 C 3.3125 -1.050781 3.398438 -0.675781 3.578125 -0.46875 C 3.753906 -0.257812 4.082031 -0.15625 4.5625 -0.15625 L 4.640625 -0.15625 L 4.640625 0 Z M 0.4375 0 "/></g></g></g><g fill="#2b2b2b" fill-opacity="1"><g transform="translate(201.85548, 22.858857)"><g><path d="M 3.34375 0.15625 C 2.5625 0.15625 1.925781 0.015625 1.4375 -0.265625 C 0.945312 -0.546875 0.703125 -0.957031 0.703125 -1.5 C 0.703125 -1.78125 0.753906 -2 0.859375 -2.15625 C 0.972656 -2.3125 1.109375 -2.421875 1.265625 -2.484375 C 1.421875 -2.546875 1.5625 -2.578125 1.6875 -2.578125 C 1.6875 -1.734375 1.804688 -1.09375 2.046875 -0.65625 C 2.296875 -0.21875 2.738281 0 3.375 0 C 3.925781 0 4.363281 -0.140625 4.6875 -0.421875 C 5.007812 -0.710938 5.171875 -1.140625 5.171875 -1.703125 C 5.171875 -2.066406 5.109375 -2.351562 4.984375 -2.5625 C 4.859375 -2.78125 4.648438 -2.972656 4.359375 -3.140625 C 4.078125 -3.304688 3.679688 -3.5 3.171875 -3.71875 C 2.578125 -3.976562 2.109375 -4.226562 1.765625 -4.46875 C 1.421875 -4.71875 1.175781 -4.988281 1.03125 -5.28125 C 0.882812 -5.570312 0.8125 -5.914062 0.8125 -6.3125 C 0.8125 -7.019531 1.0625 -7.5625 1.5625 -7.9375 C 2.0625 -8.3125 2.753906 -8.5 3.640625 -8.5 C 4.390625 -8.5 4.972656 -8.359375 5.390625 -8.078125 C 5.816406 -7.796875 6.03125 -7.460938 6.03125 -7.078125 C 6.03125 -6.796875 5.929688 -6.566406 5.734375 -6.390625 C 5.535156 -6.222656 5.257812 -6.140625 4.90625 -6.140625 C 4.90625 -6.941406 4.796875 -7.507812 4.578125 -7.84375 C 4.359375 -8.175781 4.019531 -8.34375 3.5625 -8.34375 C 2.5 -8.34375 1.96875 -7.847656 1.96875 -6.859375 C 1.96875 -6.492188 2.039062 -6.203125 2.1875 -5.984375 C 2.332031 -5.765625 2.554688 -5.578125 2.859375 -5.421875 C 3.160156 -5.265625 3.546875 -5.085938 4.015625 -4.890625 C 4.609375 -4.648438 5.078125 -4.40625 5.421875 -4.15625 C 5.765625 -3.914062 6.003906 -3.644531 6.140625 -3.34375 C 6.285156 -3.050781 6.359375 -2.703125 6.359375 -2.296875 C 6.359375 -1.484375 6.082031 -0.867188 5.53125 -0.453125 C 4.988281 -0.046875 4.257812 0.15625 3.34375 0.15625 Z M 3.34375 0.15625 "/></g></g></g><g fill="#2b2b2b" fill-opacity="1"><g transform="translate(208.889991, 22.858857)"><g><path d="M 0.28125 3.75 L 0.28125 3.59375 L 0.40625 3.59375 C 0.863281 3.59375 1.191406 3.5 1.390625 3.3125 C 1.585938 3.125 1.6875 2.816406 1.6875 2.390625 L 1.6875 -7 C 1.6875 -7.4375 1.585938 -7.742188 1.390625 -7.921875 C 1.191406 -8.109375 0.863281 -8.203125 0.40625 -8.203125 L 0.203125 -8.203125 L 0.203125 -8.359375 L 3.125 -8.359375 L 3.125 -6.203125 L 3.15625 -6.203125 C 3.300781 -6.992188 3.570312 -7.578125 3.96875 -7.953125 C 4.363281 -8.328125 4.914062 -8.515625 5.625 -8.515625 C 7.6875 -8.515625 8.71875 -7.078125 8.71875 -4.203125 C 8.71875 -2.773438 8.453125 -1.691406 7.921875 -0.953125 C 7.390625 -0.210938 6.613281 0.15625 5.59375 0.15625 C 4.914062 0.15625 4.375 -0.0351562 3.96875 -0.421875 C 3.570312 -0.804688 3.304688 -1.398438 3.171875 -2.203125 L 3.140625 -2.203125 C 3.148438 -1.941406 3.15625 -1.679688 3.15625 -1.421875 C 3.15625 -1.160156 3.15625 -0.898438 3.15625 -0.640625 L 3.15625 2.3125 C 3.15625 2.769531 3.253906 3.097656 3.453125 3.296875 C 3.648438 3.492188 3.976562 3.59375 4.4375 3.59375 L 4.484375 3.59375 L 4.484375 3.75 Z M 5.328125 -0.078125 C 6.003906 -0.078125 6.488281 -0.394531 6.78125 -1.03125 C 7.070312 -1.664062 7.21875 -2.726562 7.21875 -4.21875 C 7.21875 -5.6875 7.070312 -6.726562 6.78125 -7.34375 C 6.488281 -7.96875 6 -8.28125 5.3125 -8.28125 C 4.550781 -8.28125 4 -7.9375 3.65625 -7.25 C 3.320312 -6.570312 3.15625 -5.554688 3.15625 -4.203125 C 3.15625 -2.804688 3.332031 -1.769531 3.6875 -1.09375 C 4.039062 -0.414062 4.585938 -0.078125 5.328125 -0.078125 Z M 5.328125 -0.078125 "/></g></g></g><g fill="#2b2b2b" fill-opacity="1"><g transform="translate(218.46691, 22.858857)"><g><path d="M 4.484375 0.15625 C 3.359375 0.15625 2.472656 -0.203125 1.828125 -0.921875 C 1.179688 -1.640625 0.859375 -2.734375 0.859375 -4.203125 C 0.859375 -5.660156 1.164062 -6.742188 1.78125 -7.453125 C 2.40625 -8.160156 3.320312 -8.515625 4.53125 -8.515625 C 5.65625 -8.515625 6.535156 -8.160156 7.171875 -7.453125 C 7.816406 -6.742188 8.140625 -5.660156 8.140625 -4.203125 C 8.140625 -2.734375 7.828125 -1.640625 7.203125 -0.921875 C 6.585938 -0.203125 5.679688 0.15625 4.484375 0.15625 Z M 4.515625 0 C 5.273438 0 5.816406 -0.320312 6.140625 -0.96875 C 6.472656 -1.613281 6.640625 -2.691406 6.640625 -4.203125 C 6.640625 -5.703125 6.472656 -6.769531 6.140625 -7.40625 C 5.816406 -8.039062 5.269531 -8.359375 4.5 -8.359375 C 3.726562 -8.359375 3.179688 -8.039062 2.859375 -7.40625 C 2.535156 -6.769531 2.375 -5.703125 2.375 -4.203125 C 2.375 -2.691406 2.535156 -1.613281 2.859375 -0.96875 C 3.191406 -0.320312 3.742188 0 4.515625 0 Z M 4.515625 0 "/></g></g></g><g fill="#2b2b2b" fill-opacity="1"><g transform="translate(227.466715, 22.858857)"><g><path d="M 0.359375 0 L 0.359375 -0.15625 L 0.5625 -0.15625 C 1.019531 -0.15625 1.347656 -0.25 1.546875 -0.4375 C 1.742188 -0.625 1.84375 -0.929688 1.84375 -1.359375 L 1.84375 -7 C 1.84375 -7.4375 1.742188 -7.742188 1.546875 -7.921875 C 1.347656 -8.109375 1.019531 -8.203125 0.5625 -8.203125 L 0.515625 -8.203125 L 0.515625 -8.359375 L 3.296875 -8.359375 L 3.296875 -6.8125 L 3.328125 -6.8125 C 3.398438 -7.082031 3.507812 -7.34375 3.65625 -7.59375 C 3.800781 -7.851562 4.019531 -8.070312 4.3125 -8.25 C 4.601562 -8.425781 5.003906 -8.515625 5.515625 -8.515625 C 6.023438 -8.515625 6.421875 -8.410156 6.703125 -8.203125 C 6.984375 -8.003906 7.125 -7.726562 7.125 -7.375 C 7.125 -7.0625 7.007812 -6.800781 6.78125 -6.59375 C 6.5625 -6.382812 6.191406 -6.28125 5.671875 -6.28125 C 5.671875 -6.925781 5.5625 -7.367188 5.34375 -7.609375 C 5.125 -7.847656 4.878906 -7.96875 4.609375 -7.96875 C 4.304688 -7.96875 4.066406 -7.863281 3.890625 -7.65625 C 3.710938 -7.445312 3.582031 -7.171875 3.5 -6.828125 C 3.414062 -6.492188 3.363281 -6.144531 3.34375 -5.78125 C 3.320312 -5.425781 3.3125 -5.097656 3.3125 -4.796875 L 3.3125 -1.4375 C 3.3125 -0.976562 3.410156 -0.648438 3.609375 -0.453125 C 3.804688 -0.253906 4.132812 -0.15625 4.59375 -0.15625 L 4.796875 -0.15625 L 4.796875 0 Z M 0.359375 0 "/></g></g></g><g fill="#2b2b2b" fill-opacity="1"><g transform="translate(234.81318, 22.858857)"><g><path d="M 3.75 0.15625 C 2.957031 0.15625 2.378906 -0.0195312 2.015625 -0.375 C 1.660156 -0.738281 1.484375 -1.367188 1.484375 -2.265625 L 1.484375 -8.203125 L 0.296875 -8.203125 L 0.296875 -8.359375 C 1.035156 -8.359375 1.597656 -8.5 1.984375 -8.78125 C 2.390625 -9.0625 2.660156 -9.5625 2.796875 -10.28125 L 2.953125 -10.28125 L 2.953125 -8.359375 L 5.140625 -8.359375 L 5.140625 -8.203125 L 2.953125 -8.203125 L 2.953125 -1.6875 C 2.953125 -0.601562 3.363281 -0.0625 4.1875 -0.0625 C 4.457031 -0.0625 4.773438 -0.125 5.140625 -0.25 L 5.140625 -0.09375 C 5.003906 -0.03125 4.800781 0.0234375 4.53125 0.078125 C 4.257812 0.128906 4 0.15625 3.75 0.15625 Z M 3.75 0.15625 "/></g></g></g><g fill="#2b2b2b" fill-opacity="1"><g transform="translate(240.303529, 22.858857)"><g><path d="M 3.390625 -3.140625 L 3.15625 -5.25 C 3.945312 -5.320312 4.519531 -5.585938 4.875 -6.046875 C 5.238281 -6.515625 5.421875 -7.269531 5.421875 -8.3125 C 5.421875 -9.257812 5.285156 -9.96875 5.015625 -10.4375 C 4.742188 -10.90625 4.296875 -11.140625 3.671875 -11.140625 C 3.097656 -11.140625 2.671875 -10.929688 2.390625 -10.515625 C 2.109375 -10.109375 1.96875 -9.445312 1.96875 -8.53125 C 1.59375 -8.53125 1.28125 -8.617188 1.03125 -8.796875 C 0.789062 -8.984375 0.671875 -9.253906 0.671875 -9.609375 C 0.671875 -10.085938 0.925781 -10.488281 1.4375 -10.8125 C 1.945312 -11.132812 2.660156 -11.296875 3.578125 -11.296875 C 4.648438 -11.296875 5.488281 -11.050781 6.09375 -10.5625 C 6.707031 -10.070312 7.015625 -9.363281 7.015625 -8.4375 C 7.015625 -7.632812 6.753906 -6.960938 6.234375 -6.421875 C 5.722656 -5.890625 4.929688 -5.488281 3.859375 -5.21875 L 3.625 -3.140625 Z M 3.484375 0.109375 C 2.921875 0.109375 2.640625 -0.242188 2.640625 -0.953125 C 2.640625 -1.660156 2.921875 -2.015625 3.484375 -2.015625 C 4.046875 -2.015625 4.328125 -1.660156 4.328125 -0.953125 C 4.328125 -0.242188 4.046875 0.109375 3.484375 0.109375 Z M 3.484375 0.109375 "/></g></g></g></svg>