<svg xmlns="http://www.w3.org/2000/svg" xmlns:xlink="http://www.w3.org/1999/xlink" width="473" zoomAndPan="magnify" viewBox="0 0 354.75 38.999999" height="52" preserveAspectRatio="xMidYMid meet" version="1.0"><defs><g/><clipPath id="35fbdba024"><path d="M 0 0.015625 L 40.472656 0.015625 L 40.472656 38.238281 L 0 38.238281 Z M 0 0.015625 " clip-rule="nonzero"/></clipPath></defs><g clip-path="url(#35fbdba024)"><path fill="#100f0d" d="M 34.109375 22.050781 C 34.109375 22.761719 33.648438 23.394531 32.964844 23.621094 C 29.710938 24.695312 25.207031 25.359375 20.234375 25.359375 C 15.261719 25.359375 10.757812 24.695312 7.5 23.621094 C 6.820312 23.394531 6.355469 22.761719 6.355469 22.050781 L 6.355469 8.265625 C 6.355469 7.429688 7.039062 6.753906 7.882812 6.753906 L 32.585938 6.753906 C 33.429688 6.753906 34.109375 7.429688 34.109375 8.265625 Z M 34.109375 28.691406 C 34.109375 30.375 32.503906 31.738281 30.523438 31.738281 L 26.042969 31.738281 C 25 31.738281 24.664062 30.542969 25.597656 30.140625 L 32.722656 27.105469 C 33.359375 26.832031 34.109375 27.226562 34.109375 27.832031 Z M 14.421875 31.738281 L 9.941406 31.738281 C 7.964844 31.738281 6.355469 30.375 6.355469 28.691406 L 6.355469 27.832031 C 6.355469 27.226562 7.109375 26.832031 7.746094 27.105469 L 14.867188 30.140625 C 15.800781 30.542969 15.46875 31.738281 14.421875 31.738281 Z M 12.886719 2.59375 C 12.886719 2.34375 13.089844 2.140625 13.339844 2.140625 L 27.128906 2.140625 C 27.378906 2.140625 27.578125 2.34375 27.578125 2.59375 L 27.578125 4.769531 C 27.578125 5.015625 27.378906 5.21875 27.128906 5.21875 L 13.339844 5.21875 C 13.089844 5.21875 12.886719 5.015625 12.886719 4.769531 Z M 39.75 9.828125 L 39.320312 9.828125 L 39.320312 9.449219 C 39.320312 8.738281 38.738281 8.160156 38.019531 8.160156 L 36.410156 8.160156 L 36.410156 4.464844 C 36.410156 3.976562 36.300781 3.515625 36.109375 3.101562 C 35.671875 2.128906 34.742188 1.46875 33.6875 1.261719 C 33.492188 1.222656 33.296875 1.1875 33.101562 1.148438 C 26.886719 0.015625 20.234375 0.257812 20.234375 0.257812 C 20.234375 0.257812 13.582031 0.015625 7.367188 1.148438 C 7.167969 1.1875 6.976562 1.222656 6.78125 1.261719 C 5.726562 1.46875 4.796875 2.128906 4.355469 3.101562 C 4.167969 3.515625 4.058594 3.976562 4.058594 4.464844 L 4.058594 8.160156 L 2.449219 8.160156 C 1.730469 8.160156 1.148438 8.738281 1.148438 9.449219 L 1.148438 9.828125 L 0.71875 9.828125 C 0.324219 9.828125 0.00390625 10.148438 0.00390625 10.539062 L 0.00390625 16.082031 C 0.00390625 16.472656 0.324219 16.792969 0.71875 16.792969 L 2.554688 16.792969 C 2.949219 16.792969 3.269531 16.472656 3.269531 16.082031 L 3.269531 10.539062 C 3.269531 10.148438 2.949219 9.828125 2.554688 9.828125 L 2.125 9.828125 L 2.125 9.449219 C 2.125 9.273438 2.269531 9.128906 2.449219 9.128906 L 4.058594 9.128906 L 4.058594 30.609375 C 4.058594 32.34375 5.101562 33.839844 6.597656 34.511719 L 6.597656 37.390625 C 6.597656 37.859375 6.980469 38.238281 7.453125 38.238281 L 11.902344 38.238281 C 12.375 38.238281 12.757812 37.859375 12.757812 37.390625 L 12.757812 34.898438 L 27.710938 34.898438 L 27.710938 37.390625 C 27.710938 37.859375 28.09375 38.238281 28.566406 38.238281 L 33.015625 38.238281 C 33.488281 38.238281 33.871094 37.859375 33.871094 37.390625 L 33.871094 34.511719 C 35.367188 33.839844 36.410156 32.34375 36.410156 30.609375 L 36.410156 9.128906 L 38.019531 9.128906 C 38.195312 9.128906 38.339844 9.273438 38.339844 9.449219 L 38.339844 9.828125 L 37.914062 9.828125 C 37.519531 9.828125 37.199219 10.148438 37.199219 10.539062 L 37.199219 16.082031 C 37.199219 16.472656 37.519531 16.792969 37.914062 16.792969 L 39.75 16.792969 C 40.144531 16.792969 40.464844 16.472656 40.464844 16.082031 L 40.464844 10.539062 C 40.464844 10.148438 40.144531 9.828125 39.75 9.828125 " fill-opacity="1" fill-rule="nonzero"/></g><g fill="#2b2b2b" fill-opacity="1"><g transform="translate(67.154196, 22.856491)"><g><path d="M 6.25 0.15625 C 5.039062 0.15625 4.039062 -0.0820312 3.25 -0.5625 C 2.457031 -1.039062 1.863281 -1.707031 1.46875 -2.5625 C 1.082031 -3.425781 0.890625 -4.429688 0.890625 -5.578125 C 0.890625 -6.703125 1.082031 -7.691406 1.46875 -8.546875 C 1.851562 -9.410156 2.4375 -10.082031 3.21875 -10.5625 C 4 -11.050781 4.988281 -11.296875 6.1875 -11.296875 C 7.34375 -11.296875 8.234375 -11.132812 8.859375 -10.8125 C 9.484375 -10.5 9.796875 -10.09375 9.796875 -9.59375 C 9.796875 -9.238281 9.679688 -8.96875 9.453125 -8.78125 C 9.234375 -8.601562 8.863281 -8.492188 8.34375 -8.453125 C 8.34375 -9.421875 8.171875 -10.109375 7.828125 -10.515625 C 7.492188 -10.929688 6.925781 -11.140625 6.125 -11.140625 C 5.28125 -11.140625 4.601562 -10.953125 4.09375 -10.578125 C 3.582031 -10.210938 3.207031 -9.617188 2.96875 -8.796875 C 2.738281 -7.984375 2.625 -6.910156 2.625 -5.578125 C 2.625 -4.242188 2.753906 -3.164062 3.015625 -2.34375 C 3.273438 -1.53125 3.6875 -0.9375 4.25 -0.5625 C 4.820312 -0.1875 5.570312 0 6.5 0 C 6.800781 0 7.09375 -0.0195312 7.375 -0.0625 C 7.65625 -0.113281 7.90625 -0.171875 8.125 -0.234375 L 8.125 -3.921875 C 8.125 -4.628906 7.695312 -4.984375 6.84375 -4.984375 L 6.78125 -4.984375 L 6.78125 -5.140625 L 10.84375 -5.140625 L 10.84375 -4.984375 L 10.78125 -4.984375 C 10.375 -4.984375 10.09375 -4.890625 9.9375 -4.703125 C 9.78125 -4.515625 9.703125 -4.238281 9.703125 -3.875 L 9.703125 -0.5625 C 9.179688 -0.320312 8.644531 -0.140625 8.09375 -0.015625 C 7.539062 0.0976562 6.925781 0.15625 6.25 0.15625 Z M 6.25 0.15625 "/></g></g></g><g fill="#2b2b2b" fill-opacity="1"><g transform="translate(78.283022, 22.856491)"><g><path d="M 2.5 -9.859375 C 2.300781 -9.859375 2.132812 -9.921875 2 -10.046875 C 1.875 -10.179688 1.8125 -10.410156 1.8125 -10.734375 C 1.8125 -11.066406 1.875 -11.296875 2 -11.421875 C 2.132812 -11.546875 2.300781 -11.609375 2.5 -11.609375 C 2.6875 -11.609375 2.847656 -11.546875 2.984375 -11.421875 C 3.117188 -11.296875 3.1875 -11.066406 3.1875 -10.734375 C 3.1875 -10.410156 3.117188 -10.179688 2.984375 -10.046875 C 2.847656 -9.921875 2.6875 -9.859375 2.5 -9.859375 Z M 0.359375 0 L 0.359375 -0.15625 L 0.5625 -0.15625 C 1.019531 -0.15625 1.347656 -0.25 1.546875 -0.4375 C 1.742188 -0.625 1.84375 -0.929688 1.84375 -1.359375 L 1.84375 -6.984375 C 1.84375 -7.421875 1.742188 -7.734375 1.546875 -7.921875 C 1.347656 -8.109375 1.019531 -8.203125 0.5625 -8.203125 L 0.515625 -8.203125 L 0.515625 -8.359375 L 3.3125 -8.359375 L 3.3125 -1.4375 C 3.3125 -0.976562 3.410156 -0.648438 3.609375 -0.453125 C 3.804688 -0.253906 4.128906 -0.15625 4.578125 -0.15625 L 4.78125 -0.15625 L 4.78125 0 Z M 0.359375 0 "/></g></g></g><g fill="#2b2b2b" fill-opacity="1"><g transform="translate(83.270733, 22.856491)"><g><path d="M 5.578125 0.15625 C 4.898438 0.15625 4.363281 -0.0351562 3.96875 -0.421875 C 3.570312 -0.804688 3.304688 -1.398438 3.171875 -2.203125 L 3.140625 -2.203125 L 3.140625 0 L 0.28125 0 L 0.28125 -0.15625 L 0.40625 -0.15625 C 0.863281 -0.15625 1.191406 -0.25 1.390625 -0.4375 C 1.585938 -0.625 1.6875 -0.929688 1.6875 -1.359375 L 1.6875 -10.484375 C 1.6875 -10.921875 1.585938 -11.234375 1.390625 -11.421875 C 1.191406 -11.609375 0.863281 -11.703125 0.40625 -11.703125 L 0.359375 -11.703125 L 0.359375 -11.84375 L 3.15625 -11.84375 L 3.15625 -8.984375 C 3.15625 -8.710938 3.15625 -8.316406 3.15625 -7.796875 C 3.15625 -7.285156 3.144531 -6.75 3.125 -6.1875 L 3.15625 -6.1875 C 3.300781 -6.976562 3.566406 -7.5625 3.953125 -7.9375 C 4.347656 -8.320312 4.898438 -8.515625 5.609375 -8.515625 C 7.679688 -8.515625 8.71875 -7.070312 8.71875 -4.1875 C 8.71875 -2.769531 8.445312 -1.691406 7.90625 -0.953125 C 7.375 -0.210938 6.597656 0.15625 5.578125 0.15625 Z M 5.3125 -0.078125 C 5.988281 -0.078125 6.472656 -0.394531 6.765625 -1.03125 C 7.054688 -1.664062 7.203125 -2.722656 7.203125 -4.203125 C 7.203125 -5.671875 7.054688 -6.71875 6.765625 -7.34375 C 6.472656 -7.96875 5.984375 -8.28125 5.296875 -8.28125 C 4.535156 -8.28125 3.988281 -7.9375 3.65625 -7.25 C 3.320312 -6.5625 3.15625 -5.539062 3.15625 -4.1875 C 3.15625 -2.800781 3.328125 -1.769531 3.671875 -1.09375 C 4.023438 -0.414062 4.570312 -0.078125 5.3125 -0.078125 Z M 5.3125 -0.078125 "/></g></g></g><g fill="#2b2b2b" fill-opacity="1"><g transform="translate(92.840908, 22.856491)"><g><path d="M 3.75 0.15625 C 2.957031 0.15625 2.378906 -0.0195312 2.015625 -0.375 C 1.660156 -0.738281 1.484375 -1.367188 1.484375 -2.265625 L 1.484375 -8.203125 L 0.296875 -8.203125 L 0.296875 -8.359375 C 1.035156 -8.359375 1.597656 -8.5 1.984375 -8.78125 C 2.390625 -9.0625 2.660156 -9.5625 2.796875 -10.28125 L 2.953125 -10.28125 L 2.953125 -8.359375 L 5.125 -8.359375 L 5.125 -8.203125 L 2.953125 -8.203125 L 2.953125 -1.6875 C 2.953125 -0.601562 3.359375 -0.0625 4.171875 -0.0625 C 4.441406 -0.0625 4.757812 -0.125 5.125 -0.25 L 5.125 -0.09375 C 4.988281 -0.03125 4.785156 0.0234375 4.515625 0.078125 C 4.242188 0.128906 3.988281 0.15625 3.75 0.15625 Z M 3.75 0.15625 "/></g></g></g><g fill="#2b2b2b" fill-opacity="1"><g transform="translate(98.32739, 22.856491)"><g/></g></g><g fill="#2b2b2b" fill-opacity="1"><g transform="translate(101.834375, 22.856491)"><g><path d="M 4.546875 0.15625 C 3.390625 0.15625 2.484375 -0.21875 1.828125 -0.96875 C 1.179688 -1.71875 0.859375 -2.765625 0.859375 -4.109375 C 0.859375 -5.566406 1.15625 -6.664062 1.75 -7.40625 C 2.351562 -8.144531 3.207031 -8.515625 4.3125 -8.515625 C 5.320312 -8.515625 6.113281 -8.203125 6.6875 -7.578125 C 7.269531 -6.953125 7.5625 -6.019531 7.5625 -4.78125 L 7.5625 -4.40625 L 2.375 -4.40625 C 2.382812 -2.820312 2.554688 -1.691406 2.890625 -1.015625 C 3.234375 -0.335938 3.800781 0 4.59375 0 C 5.175781 0 5.664062 -0.160156 6.0625 -0.484375 C 6.46875 -0.804688 6.726562 -1.285156 6.84375 -1.921875 C 6.96875 -1.898438 7.0625 -1.835938 7.125 -1.734375 C 7.1875 -1.628906 7.21875 -1.519531 7.21875 -1.40625 C 7.21875 -1.195312 7.117188 -0.96875 6.921875 -0.71875 C 6.722656 -0.476562 6.425781 -0.269531 6.03125 -0.09375 C 5.644531 0.0703125 5.148438 0.15625 4.546875 0.15625 Z M 2.375 -4.5625 L 5.984375 -4.5625 C 5.984375 -5.925781 5.851562 -6.898438 5.59375 -7.484375 C 5.332031 -8.066406 4.894531 -8.359375 4.28125 -8.359375 C 3.65625 -8.359375 3.191406 -8.066406 2.890625 -7.484375 C 2.597656 -6.898438 2.425781 -5.925781 2.375 -4.5625 Z M 2.375 -4.5625 "/></g></g></g><g fill="#2b2b2b" fill-opacity="1"><g transform="translate(110.17321, 22.856491)"><g><path d="M 3.34375 0.15625 C 2.5625 0.15625 1.925781 0.015625 1.4375 -0.265625 C 0.945312 -0.546875 0.703125 -0.957031 0.703125 -1.5 C 0.703125 -1.78125 0.753906 -2 0.859375 -2.15625 C 0.972656 -2.3125 1.109375 -2.421875 1.265625 -2.484375 C 1.421875 -2.546875 1.5625 -2.578125 1.6875 -2.578125 C 1.6875 -1.734375 1.804688 -1.09375 2.046875 -0.65625 C 2.296875 -0.21875 2.738281 0 3.375 0 C 3.914062 0 4.347656 -0.140625 4.671875 -0.421875 C 4.992188 -0.710938 5.15625 -1.140625 5.15625 -1.703125 C 5.15625 -2.066406 5.09375 -2.351562 4.96875 -2.5625 C 4.84375 -2.78125 4.632812 -2.972656 4.34375 -3.140625 C 4.0625 -3.304688 3.671875 -3.5 3.171875 -3.71875 C 2.578125 -3.96875 2.109375 -4.210938 1.765625 -4.453125 C 1.421875 -4.703125 1.175781 -4.972656 1.03125 -5.265625 C 0.882812 -5.554688 0.8125 -5.898438 0.8125 -6.296875 C 0.8125 -7.003906 1.0625 -7.546875 1.5625 -7.921875 C 2.0625 -8.304688 2.753906 -8.5 3.640625 -8.5 C 4.378906 -8.5 4.957031 -8.351562 5.375 -8.0625 C 5.800781 -7.78125 6.015625 -7.445312 6.015625 -7.0625 C 6.015625 -6.78125 5.914062 -6.550781 5.71875 -6.375 C 5.519531 -6.207031 5.242188 -6.125 4.890625 -6.125 C 4.890625 -6.925781 4.78125 -7.492188 4.5625 -7.828125 C 4.34375 -8.171875 4.007812 -8.34375 3.5625 -8.34375 C 2.5 -8.34375 1.96875 -7.84375 1.96875 -6.84375 C 1.96875 -6.476562 2.039062 -6.1875 2.1875 -5.96875 C 2.332031 -5.75 2.554688 -5.5625 2.859375 -5.40625 C 3.160156 -5.25 3.539062 -5.070312 4 -4.875 C 4.59375 -4.632812 5.0625 -4.394531 5.40625 -4.15625 C 5.75 -3.914062 5.988281 -3.644531 6.125 -3.34375 C 6.269531 -3.050781 6.34375 -2.703125 6.34375 -2.296875 C 6.34375 -1.484375 6.066406 -0.867188 5.515625 -0.453125 C 4.972656 -0.046875 4.25 0.15625 3.34375 0.15625 Z M 3.34375 0.15625 "/></g></g></g><g fill="#2b2b2b" fill-opacity="1"><g transform="translate(117.202767, 22.856491)"><g/></g></g><g fill="#2b2b2b" fill-opacity="1"><g transform="translate(120.709752, 22.856491)"><g><path d="M 4.546875 0.15625 C 3.390625 0.15625 2.484375 -0.21875 1.828125 -0.96875 C 1.179688 -1.71875 0.859375 -2.765625 0.859375 -4.109375 C 0.859375 -5.566406 1.15625 -6.664062 1.75 -7.40625 C 2.351562 -8.144531 3.207031 -8.515625 4.3125 -8.515625 C 5.320312 -8.515625 6.113281 -8.203125 6.6875 -7.578125 C 7.269531 -6.953125 7.5625 -6.019531 7.5625 -4.78125 L 7.5625 -4.40625 L 2.375 -4.40625 C 2.382812 -2.820312 2.554688 -1.691406 2.890625 -1.015625 C 3.234375 -0.335938 3.800781 0 4.59375 0 C 5.175781 0 5.664062 -0.160156 6.0625 -0.484375 C 6.46875 -0.804688 6.726562 -1.285156 6.84375 -1.921875 C 6.96875 -1.898438 7.0625 -1.835938 7.125 -1.734375 C 7.1875 -1.628906 7.21875 -1.519531 7.21875 -1.40625 C 7.21875 -1.195312 7.117188 -0.96875 6.921875 -0.71875 C 6.722656 -0.476562 6.425781 -0.269531 6.03125 -0.09375 C 5.644531 0.0703125 5.148438 0.15625 4.546875 0.15625 Z M 2.375 -4.5625 L 5.984375 -4.5625 C 5.984375 -5.925781 5.851562 -6.898438 5.59375 -7.484375 C 5.332031 -8.066406 4.894531 -8.359375 4.28125 -8.359375 C 3.65625 -8.359375 3.191406 -8.066406 2.890625 -7.484375 C 2.597656 -6.898438 2.425781 -5.925781 2.375 -4.5625 Z M 2.375 -4.5625 "/></g></g></g><g fill="#2b2b2b" fill-opacity="1"><g transform="translate(129.048586, 22.856491)"><g><path d="M 2.5 -9.859375 C 2.300781 -9.859375 2.132812 -9.921875 2 -10.046875 C 1.875 -10.179688 1.8125 -10.410156 1.8125 -10.734375 C 1.8125 -11.066406 1.875 -11.296875 2 -11.421875 C 2.132812 -11.546875 2.300781 -11.609375 2.5 -11.609375 C 2.6875 -11.609375 2.847656 -11.546875 2.984375 -11.421875 C 3.117188 -11.296875 3.1875 -11.066406 3.1875 -10.734375 C 3.1875 -10.410156 3.117188 -10.179688 2.984375 -10.046875 C 2.847656 -9.921875 2.6875 -9.859375 2.5 -9.859375 Z M 0.359375 0 L 0.359375 -0.15625 L 0.5625 -0.15625 C 1.019531 -0.15625 1.347656 -0.25 1.546875 -0.4375 C 1.742188 -0.625 1.84375 -0.929688 1.84375 -1.359375 L 1.84375 -6.984375 C 1.84375 -7.421875 1.742188 -7.734375 1.546875 -7.921875 C 1.347656 -8.109375 1.019531 -8.203125 0.5625 -8.203125 L 0.515625 -8.203125 L 0.515625 -8.359375 L 3.3125 -8.359375 L 3.3125 -1.4375 C 3.3125 -0.976562 3.410156 -0.648438 3.609375 -0.453125 C 3.804688 -0.253906 4.128906 -0.15625 4.578125 -0.15625 L 4.78125 -0.15625 L 4.78125 0 Z M 0.359375 0 "/></g></g></g><g fill="#2b2b2b" fill-opacity="1"><g transform="translate(134.036298, 22.856491)"><g><path d="M 0.4375 0 L 0.4375 -0.15625 L 0.5625 -0.15625 C 1.039062 -0.15625 1.375 -0.257812 1.5625 -0.46875 C 1.75 -0.675781 1.84375 -1.050781 1.84375 -1.59375 L 1.84375 -6.796875 C 1.84375 -7.328125 1.753906 -7.691406 1.578125 -7.890625 C 1.398438 -8.097656 1.070312 -8.203125 0.59375 -8.203125 L 0.515625 -8.203125 L 0.515625 -8.359375 L 3.296875 -8.359375 L 3.296875 -6.890625 L 3.328125 -6.890625 C 3.460938 -7.367188 3.660156 -7.722656 3.921875 -7.953125 C 4.179688 -8.191406 4.460938 -8.34375 4.765625 -8.40625 C 5.078125 -8.476562 5.363281 -8.515625 5.625 -8.515625 C 6.550781 -8.515625 7.238281 -8.269531 7.6875 -7.78125 C 8.144531 -7.300781 8.375 -6.523438 8.375 -5.453125 L 8.375 -1.59375 C 8.375 -1.050781 8.457031 -0.675781 8.625 -0.46875 C 8.789062 -0.257812 9.097656 -0.15625 9.546875 -0.15625 L 9.625 -0.15625 L 9.625 0 L 6.90625 0 L 6.90625 -5.984375 C 6.90625 -6.660156 6.773438 -7.210938 6.515625 -7.640625 C 6.265625 -8.066406 5.835938 -8.28125 5.234375 -8.28125 C 4.742188 -8.28125 4.359375 -8.148438 4.078125 -7.890625 C 3.804688 -7.628906 3.609375 -7.289062 3.484375 -6.875 C 3.367188 -6.46875 3.3125 -6.039062 3.3125 -5.59375 L 3.3125 -1.59375 C 3.3125 -1.050781 3.398438 -0.675781 3.578125 -0.46875 C 3.753906 -0.257812 4.078125 -0.15625 4.546875 -0.15625 L 4.625 -0.15625 L 4.625 0 Z M 0.4375 0 "/></g></g></g><g fill="#2b2b2b" fill-opacity="1"><g transform="translate(144.089656, 22.856491)"><g><path d="M 4.546875 0.15625 C 3.390625 0.15625 2.484375 -0.21875 1.828125 -0.96875 C 1.179688 -1.71875 0.859375 -2.765625 0.859375 -4.109375 C 0.859375 -5.566406 1.15625 -6.664062 1.75 -7.40625 C 2.351562 -8.144531 3.207031 -8.515625 4.3125 -8.515625 C 5.320312 -8.515625 6.113281 -8.203125 6.6875 -7.578125 C 7.269531 -6.953125 7.5625 -6.019531 7.5625 -4.78125 L 7.5625 -4.40625 L 2.375 -4.40625 C 2.382812 -2.820312 2.554688 -1.691406 2.890625 -1.015625 C 3.234375 -0.335938 3.800781 0 4.59375 0 C 5.175781 0 5.664062 -0.160156 6.0625 -0.484375 C 6.46875 -0.804688 6.726562 -1.285156 6.84375 -1.921875 C 6.96875 -1.898438 7.0625 -1.835938 7.125 -1.734375 C 7.1875 -1.628906 7.21875 -1.519531 7.21875 -1.40625 C 7.21875 -1.195312 7.117188 -0.96875 6.921875 -0.71875 C 6.722656 -0.476562 6.425781 -0.269531 6.03125 -0.09375 C 5.644531 0.0703125 5.148438 0.15625 4.546875 0.15625 Z M 2.375 -4.5625 L 5.984375 -4.5625 C 5.984375 -5.925781 5.851562 -6.898438 5.59375 -7.484375 C 5.332031 -8.066406 4.894531 -8.359375 4.28125 -8.359375 C 3.65625 -8.359375 3.191406 -8.066406 2.890625 -7.484375 C 2.597656 -6.898438 2.425781 -5.925781 2.375 -4.5625 Z M 2.375 -4.5625 "/></g></g></g><g fill="#2b2b2b" fill-opacity="1"><g transform="translate(152.428491, 22.856491)"><g><path d="M 0.4375 0 L 0.4375 -0.15625 L 0.5625 -0.15625 C 1.039062 -0.15625 1.375 -0.257812 1.5625 -0.46875 C 1.75 -0.675781 1.84375 -1.050781 1.84375 -1.59375 L 1.84375 -6.796875 C 1.84375 -7.328125 1.753906 -7.691406 1.578125 -7.890625 C 1.398438 -8.097656 1.070312 -8.203125 0.59375 -8.203125 L 0.515625 -8.203125 L 0.515625 -8.359375 L 3.296875 -8.359375 L 3.296875 -6.890625 L 3.328125 -6.890625 C 3.460938 -7.367188 3.660156 -7.722656 3.921875 -7.953125 C 4.179688 -8.191406 4.460938 -8.34375 4.765625 -8.40625 C 5.078125 -8.476562 5.363281 -8.515625 5.625 -8.515625 C 6.550781 -8.515625 7.238281 -8.269531 7.6875 -7.78125 C 8.144531 -7.300781 8.375 -6.523438 8.375 -5.453125 L 8.375 -1.59375 C 8.375 -1.050781 8.457031 -0.675781 8.625 -0.46875 C 8.789062 -0.257812 9.097656 -0.15625 9.546875 -0.15625 L 9.625 -0.15625 L 9.625 0 L 6.90625 0 L 6.90625 -5.984375 C 6.90625 -6.660156 6.773438 -7.210938 6.515625 -7.640625 C 6.265625 -8.066406 5.835938 -8.28125 5.234375 -8.28125 C 4.742188 -8.28125 4.359375 -8.148438 4.078125 -7.890625 C 3.804688 -7.628906 3.609375 -7.289062 3.484375 -6.875 C 3.367188 -6.46875 3.3125 -6.039062 3.3125 -5.59375 L 3.3125 -1.59375 C 3.3125 -1.050781 3.398438 -0.675781 3.578125 -0.46875 C 3.753906 -0.257812 4.078125 -0.15625 4.546875 -0.15625 L 4.625 -0.15625 L 4.625 0 Z M 0.4375 0 "/></g></g></g><g fill="#2b2b2b" fill-opacity="1"><g transform="translate(162.481849, 22.856491)"><g/></g></g><g fill="#2b2b2b" fill-opacity="1"><g transform="translate(165.988834, 22.856491)"><g><path d="M 2.5 0 L 2.5 -0.15625 L 2.703125 -0.15625 C 3.546875 -0.15625 3.96875 -0.53125 3.96875 -1.28125 L 3.96875 -10.984375 L 2.703125 -10.984375 C 1.910156 -10.984375 1.351562 -10.832031 1.03125 -10.53125 C 0.71875 -10.238281 0.539062 -9.703125 0.5 -8.921875 L 0.46875 -8.40625 L 0.3125 -8.40625 L 0.40625 -11.140625 L 9.15625 -11.140625 L 9.25 -8.40625 L 9.09375 -8.40625 L 9.0625 -8.921875 C 9.007812 -9.703125 8.828125 -10.238281 8.515625 -10.53125 C 8.203125 -10.832031 7.648438 -10.984375 6.859375 -10.984375 L 5.546875 -10.984375 L 5.546875 -1.28125 C 5.546875 -0.53125 5.972656 -0.15625 6.828125 -0.15625 L 7.03125 -0.15625 L 7.03125 0 Z M 2.5 0 "/></g></g></g><g fill="#2b2b2b" fill-opacity="1"><g transform="translate(175.543422, 22.856491)"><g><path d="M 0.359375 0 L 0.359375 -0.15625 L 0.5625 -0.15625 C 1.019531 -0.15625 1.347656 -0.25 1.546875 -0.4375 C 1.742188 -0.625 1.84375 -0.929688 1.84375 -1.359375 L 1.84375 -6.984375 C 1.84375 -7.421875 1.742188 -7.734375 1.546875 -7.921875 C 1.347656 -8.109375 1.019531 -8.203125 0.5625 -8.203125 L 0.515625 -8.203125 L 0.515625 -8.359375 L 3.296875 -8.359375 L 3.296875 -6.796875 L 3.328125 -6.796875 C 3.398438 -7.066406 3.507812 -7.332031 3.65625 -7.59375 C 3.800781 -7.851562 4.015625 -8.070312 4.296875 -8.25 C 4.585938 -8.425781 4.988281 -8.515625 5.5 -8.515625 C 6.007812 -8.515625 6.40625 -8.410156 6.6875 -8.203125 C 6.96875 -8.003906 7.109375 -7.722656 7.109375 -7.359375 C 7.109375 -7.046875 6.992188 -6.785156 6.765625 -6.578125 C 6.546875 -6.367188 6.175781 -6.265625 5.65625 -6.265625 C 5.65625 -6.910156 5.546875 -7.351562 5.328125 -7.59375 C 5.109375 -7.84375 4.863281 -7.96875 4.59375 -7.96875 C 4.289062 -7.96875 4.050781 -7.859375 3.875 -7.640625 C 3.707031 -7.429688 3.582031 -7.15625 3.5 -6.8125 C 3.414062 -6.476562 3.363281 -6.128906 3.34375 -5.765625 C 3.320312 -5.410156 3.3125 -5.082031 3.3125 -4.78125 L 3.3125 -1.4375 C 3.3125 -0.976562 3.410156 -0.648438 3.609375 -0.453125 C 3.804688 -0.253906 4.128906 -0.15625 4.578125 -0.15625 L 4.78125 -0.15625 L 4.78125 0 Z M 0.359375 0 "/></g></g></g><g fill="#2b2b2b" fill-opacity="1"><g transform="translate(182.884714, 22.856491)"><g><path d="M 3.359375 0.15625 C 2.554688 0.15625 1.925781 -0.046875 1.46875 -0.453125 C 1.007812 -0.867188 0.78125 -1.4375 0.78125 -2.15625 C 0.78125 -2.957031 1.070312 -3.550781 1.65625 -3.9375 C 2.25 -4.332031 3.140625 -4.550781 4.328125 -4.59375 L 5.625 -4.640625 L 5.625 -5.8125 C 5.625 -6.394531 5.59375 -6.875 5.53125 -7.25 C 5.46875 -7.625 5.332031 -7.898438 5.125 -8.078125 C 4.914062 -8.265625 4.597656 -8.359375 4.171875 -8.359375 C 3.578125 -8.359375 3.191406 -8.171875 3.015625 -7.796875 C 2.847656 -7.421875 2.765625 -6.832031 2.765625 -6.03125 C 2.328125 -6.03125 1.992188 -6.101562 1.765625 -6.25 C 1.546875 -6.394531 1.4375 -6.632812 1.4375 -6.96875 C 1.4375 -7.34375 1.5625 -7.640625 1.8125 -7.859375 C 2.070312 -8.085938 2.410156 -8.253906 2.828125 -8.359375 C 3.253906 -8.460938 3.722656 -8.515625 4.234375 -8.515625 C 5.191406 -8.515625 5.90625 -8.3125 6.375 -7.90625 C 6.851562 -7.5 7.09375 -6.800781 7.09375 -5.8125 L 7.09375 -1.15625 C 7.09375 -0.78125 7.164062 -0.519531 7.3125 -0.375 C 7.457031 -0.226562 7.707031 -0.15625 8.0625 -0.15625 L 8.109375 -0.15625 L 8.109375 0 L 5.75 0 L 5.75 -1.640625 L 5.71875 -1.640625 C 5.550781 -1.015625 5.253906 -0.554688 4.828125 -0.265625 C 4.410156 0.015625 3.921875 0.15625 3.359375 0.15625 Z M 3.671875 -0.0625 C 4.046875 -0.0625 4.378906 -0.160156 4.671875 -0.359375 C 4.972656 -0.554688 5.207031 -0.820312 5.375 -1.15625 C 5.539062 -1.488281 5.625 -1.847656 5.625 -2.234375 L 5.625 -4.46875 L 4.625 -4.421875 C 3.75 -4.378906 3.140625 -4.175781 2.796875 -3.8125 C 2.460938 -3.457031 2.296875 -2.847656 2.296875 -1.984375 C 2.296875 -0.703125 2.753906 -0.0625 3.671875 -0.0625 Z M 3.671875 -0.0625 "/></g></g></g><g fill="#2b2b2b" fill-opacity="1"><g transform="translate(191.65997, 22.856491)"><g><path d="M 0.4375 0 L 0.4375 -0.15625 L 0.5625 -0.15625 C 1.039062 -0.15625 1.375 -0.257812 1.5625 -0.46875 C 1.75 -0.675781 1.84375 -1.050781 1.84375 -1.59375 L 1.84375 -6.796875 C 1.84375 -7.328125 1.753906 -7.691406 1.578125 -7.890625 C 1.398438 -8.097656 1.070312 -8.203125 0.59375 -8.203125 L 0.515625 -8.203125 L 0.515625 -8.359375 L 3.296875 -8.359375 L 3.296875 -6.890625 L 3.328125 -6.890625 C 3.460938 -7.367188 3.660156 -7.722656 3.921875 -7.953125 C 4.179688 -8.191406 4.460938 -8.34375 4.765625 -8.40625 C 5.078125 -8.476562 5.363281 -8.515625 5.625 -8.515625 C 6.550781 -8.515625 7.238281 -8.269531 7.6875 -7.78125 C 8.144531 -7.300781 8.375 -6.523438 8.375 -5.453125 L 8.375 -1.59375 C 8.375 -1.050781 8.457031 -0.675781 8.625 -0.46875 C 8.789062 -0.257812 9.097656 -0.15625 9.546875 -0.15625 L 9.625 -0.15625 L 9.625 0 L 6.90625 0 L 6.90625 -5.984375 C 6.90625 -6.660156 6.773438 -7.210938 6.515625 -7.640625 C 6.265625 -8.066406 5.835938 -8.28125 5.234375 -8.28125 C 4.742188 -8.28125 4.359375 -8.148438 4.078125 -7.890625 C 3.804688 -7.628906 3.609375 -7.289062 3.484375 -6.875 C 3.367188 -6.46875 3.3125 -6.039062 3.3125 -5.59375 L 3.3125 -1.59375 C 3.3125 -1.050781 3.398438 -0.675781 3.578125 -0.46875 C 3.753906 -0.257812 4.078125 -0.15625 4.546875 -0.15625 L 4.625 -0.15625 L 4.625 0 Z M 0.4375 0 "/></g></g></g><g fill="#2b2b2b" fill-opacity="1"><g transform="translate(201.713329, 22.856491)"><g><path d="M 3.34375 0.15625 C 2.5625 0.15625 1.925781 0.015625 1.4375 -0.265625 C 0.945312 -0.546875 0.703125 -0.957031 0.703125 -1.5 C 0.703125 -1.78125 0.753906 -2 0.859375 -2.15625 C 0.972656 -2.3125 1.109375 -2.421875 1.265625 -2.484375 C 1.421875 -2.546875 1.5625 -2.578125 1.6875 -2.578125 C 1.6875 -1.734375 1.804688 -1.09375 2.046875 -0.65625 C 2.296875 -0.21875 2.738281 0 3.375 0 C 3.914062 0 4.347656 -0.140625 4.671875 -0.421875 C 4.992188 -0.710938 5.15625 -1.140625 5.15625 -1.703125 C 5.15625 -2.066406 5.09375 -2.351562 4.96875 -2.5625 C 4.84375 -2.78125 4.632812 -2.972656 4.34375 -3.140625 C 4.0625 -3.304688 3.671875 -3.5 3.171875 -3.71875 C 2.578125 -3.96875 2.109375 -4.210938 1.765625 -4.453125 C 1.421875 -4.703125 1.175781 -4.972656 1.03125 -5.265625 C 0.882812 -5.554688 0.8125 -5.898438 0.8125 -6.296875 C 0.8125 -7.003906 1.0625 -7.546875 1.5625 -7.921875 C 2.0625 -8.304688 2.753906 -8.5 3.640625 -8.5 C 4.378906 -8.5 4.957031 -8.351562 5.375 -8.0625 C 5.800781 -7.78125 6.015625 -7.445312 6.015625 -7.0625 C 6.015625 -6.78125 5.914062 -6.550781 5.71875 -6.375 C 5.519531 -6.207031 5.242188 -6.125 4.890625 -6.125 C 4.890625 -6.925781 4.78125 -7.492188 4.5625 -7.828125 C 4.34375 -8.171875 4.007812 -8.34375 3.5625 -8.34375 C 2.5 -8.34375 1.96875 -7.84375 1.96875 -6.84375 C 1.96875 -6.476562 2.039062 -6.1875 2.1875 -5.96875 C 2.332031 -5.75 2.554688 -5.5625 2.859375 -5.40625 C 3.160156 -5.25 3.539062 -5.070312 4 -4.875 C 4.59375 -4.632812 5.0625 -4.394531 5.40625 -4.15625 C 5.75 -3.914062 5.988281 -3.644531 6.125 -3.34375 C 6.269531 -3.050781 6.34375 -2.703125 6.34375 -2.296875 C 6.34375 -1.484375 6.066406 -0.867188 5.515625 -0.453125 C 4.972656 -0.046875 4.25 0.15625 3.34375 0.15625 Z M 3.34375 0.15625 "/></g></g></g><g fill="#2b2b2b" fill-opacity="1"><g transform="translate(208.742886, 22.856491)"><g><path d="M 0.28125 3.75 L 0.28125 3.59375 L 0.40625 3.59375 C 0.863281 3.59375 1.191406 3.5 1.390625 3.3125 C 1.585938 3.125 1.6875 2.816406 1.6875 2.390625 L 1.6875 -6.984375 C 1.6875 -7.421875 1.585938 -7.734375 1.390625 -7.921875 C 1.191406 -8.109375 0.863281 -8.203125 0.40625 -8.203125 L 0.203125 -8.203125 L 0.203125 -8.359375 L 3.125 -8.359375 L 3.125 -6.1875 L 3.15625 -6.1875 C 3.300781 -6.976562 3.566406 -7.5625 3.953125 -7.9375 C 4.347656 -8.320312 4.898438 -8.515625 5.609375 -8.515625 C 7.679688 -8.515625 8.71875 -7.070312 8.71875 -4.1875 C 8.71875 -2.769531 8.445312 -1.691406 7.90625 -0.953125 C 7.375 -0.210938 6.597656 0.15625 5.578125 0.15625 C 4.898438 0.15625 4.363281 -0.0351562 3.96875 -0.421875 C 3.570312 -0.804688 3.304688 -1.398438 3.171875 -2.203125 L 3.140625 -2.203125 C 3.148438 -1.941406 3.15625 -1.679688 3.15625 -1.421875 C 3.15625 -1.160156 3.15625 -0.898438 3.15625 -0.640625 L 3.15625 2.3125 C 3.15625 2.769531 3.253906 3.097656 3.453125 3.296875 C 3.648438 3.492188 3.972656 3.59375 4.421875 3.59375 L 4.46875 3.59375 L 4.46875 3.75 Z M 5.3125 -0.078125 C 5.988281 -0.078125 6.472656 -0.394531 6.765625 -1.03125 C 7.054688 -1.664062 7.203125 -2.722656 7.203125 -4.203125 C 7.203125 -5.671875 7.054688 -6.71875 6.765625 -7.34375 C 6.472656 -7.96875 5.984375 -8.28125 5.296875 -8.28125 C 4.535156 -8.28125 3.988281 -7.9375 3.65625 -7.25 C 3.320312 -6.5625 3.15625 -5.539062 3.15625 -4.1875 C 3.15625 -2.800781 3.328125 -1.769531 3.671875 -1.09375 C 4.023438 -0.414062 4.570312 -0.078125 5.3125 -0.078125 Z M 5.3125 -0.078125 "/></g></g></g><g fill="#2b2b2b" fill-opacity="1"><g transform="translate(218.313061, 22.856491)"><g><path d="M 4.46875 0.15625 C 3.351562 0.15625 2.472656 -0.203125 1.828125 -0.921875 C 1.179688 -1.640625 0.859375 -2.726562 0.859375 -4.1875 C 0.859375 -5.644531 1.164062 -6.726562 1.78125 -7.4375 C 2.40625 -8.15625 3.316406 -8.515625 4.515625 -8.515625 C 5.640625 -8.515625 6.523438 -8.15625 7.171875 -7.4375 C 7.816406 -6.726562 8.140625 -5.644531 8.140625 -4.1875 C 8.140625 -2.726562 7.828125 -1.640625 7.203125 -0.921875 C 6.578125 -0.203125 5.664062 0.15625 4.46875 0.15625 Z M 4.5 0 C 5.257812 0 5.800781 -0.320312 6.125 -0.96875 C 6.457031 -1.613281 6.625 -2.6875 6.625 -4.1875 C 6.625 -5.6875 6.457031 -6.753906 6.125 -7.390625 C 5.800781 -8.035156 5.253906 -8.359375 4.484375 -8.359375 C 3.722656 -8.359375 3.179688 -8.035156 2.859375 -7.390625 C 2.535156 -6.753906 2.375 -5.6875 2.375 -4.1875 C 2.375 -2.6875 2.535156 -1.613281 2.859375 -0.96875 C 3.191406 -0.320312 3.738281 0 4.5 0 Z M 4.5 0 "/></g></g></g><g fill="#2b2b2b" fill-opacity="1"><g transform="translate(227.306528, 22.856491)"><g><path d="M 0.359375 0 L 0.359375 -0.15625 L 0.5625 -0.15625 C 1.019531 -0.15625 1.347656 -0.25 1.546875 -0.4375 C 1.742188 -0.625 1.84375 -0.929688 1.84375 -1.359375 L 1.84375 -6.984375 C 1.84375 -7.421875 1.742188 -7.734375 1.546875 -7.921875 C 1.347656 -8.109375 1.019531 -8.203125 0.5625 -8.203125 L 0.515625 -8.203125 L 0.515625 -8.359375 L 3.296875 -8.359375 L 3.296875 -6.796875 L 3.328125 -6.796875 C 3.398438 -7.066406 3.507812 -7.332031 3.65625 -7.59375 C 3.800781 -7.851562 4.015625 -8.070312 4.296875 -8.25 C 4.585938 -8.425781 4.988281 -8.515625 5.5 -8.515625 C 6.007812 -8.515625 6.40625 -8.410156 6.6875 -8.203125 C 6.96875 -8.003906 7.109375 -7.722656 7.109375 -7.359375 C 7.109375 -7.046875 6.992188 -6.785156 6.765625 -6.578125 C 6.546875 -6.367188 6.175781 -6.265625 5.65625 -6.265625 C 5.65625 -6.910156 5.546875 -7.351562 5.328125 -7.59375 C 5.109375 -7.84375 4.863281 -7.96875 4.59375 -7.96875 C 4.289062 -7.96875 4.050781 -7.859375 3.875 -7.640625 C 3.707031 -7.429688 3.582031 -7.15625 3.5 -6.8125 C 3.414062 -6.476562 3.363281 -6.128906 3.34375 -5.765625 C 3.320312 -5.410156 3.3125 -5.082031 3.3125 -4.78125 L 3.3125 -1.4375 C 3.3125 -0.976562 3.410156 -0.648438 3.609375 -0.453125 C 3.804688 -0.253906 4.128906 -0.15625 4.578125 -0.15625 L 4.78125 -0.15625 L 4.78125 0 Z M 0.359375 0 "/></g></g></g><g fill="#2b2b2b" fill-opacity="1"><g transform="translate(234.647821, 22.856491)"><g><path d="M 3.75 0.15625 C 2.957031 0.15625 2.378906 -0.0195312 2.015625 -0.375 C 1.660156 -0.738281 1.484375 -1.367188 1.484375 -2.265625 L 1.484375 -8.203125 L 0.296875 -8.203125 L 0.296875 -8.359375 C 1.035156 -8.359375 1.597656 -8.5 1.984375 -8.78125 C 2.390625 -9.0625 2.660156 -9.5625 2.796875 -10.28125 L 2.953125 -10.28125 L 2.953125 -8.359375 L 5.125 -8.359375 L 5.125 -8.203125 L 2.953125 -8.203125 L 2.953125 -1.6875 C 2.953125 -0.601562 3.359375 -0.0625 4.171875 -0.0625 C 4.441406 -0.0625 4.757812 -0.125 5.125 -0.25 L 5.125 -0.09375 C 4.988281 -0.03125 4.785156 0.0234375 4.515625 0.078125 C 4.242188 0.128906 3.988281 0.15625 3.75 0.15625 Z M 3.75 0.15625 "/></g></g></g><g fill="#2b2b2b" fill-opacity="1"><g transform="translate(240.134303, 22.856491)"><g><path d="M 3.390625 -3.140625 L 3.15625 -5.234375 C 3.9375 -5.304688 4.503906 -5.570312 4.859375 -6.03125 C 5.222656 -6.5 5.40625 -7.257812 5.40625 -8.3125 C 5.40625 -9.257812 5.269531 -9.96875 5 -10.4375 C 4.726562 -10.90625 4.285156 -11.140625 3.671875 -11.140625 C 3.097656 -11.140625 2.671875 -10.929688 2.390625 -10.515625 C 2.109375 -10.109375 1.96875 -9.445312 1.96875 -8.53125 C 1.59375 -8.53125 1.28125 -8.617188 1.03125 -8.796875 C 0.789062 -8.984375 0.671875 -9.253906 0.671875 -9.609375 C 0.671875 -10.085938 0.925781 -10.488281 1.4375 -10.8125 C 1.945312 -11.132812 2.660156 -11.296875 3.578125 -11.296875 C 4.640625 -11.296875 5.472656 -11.050781 6.078125 -10.5625 C 6.691406 -10.070312 7 -9.363281 7 -8.4375 C 7 -7.625 6.738281 -6.945312 6.21875 -6.40625 C 5.707031 -5.875 4.921875 -5.472656 3.859375 -5.203125 L 3.625 -3.140625 Z M 3.484375 0.109375 C 2.921875 0.109375 2.640625 -0.242188 2.640625 -0.953125 C 2.640625 -1.660156 2.921875 -2.015625 3.484375 -2.015625 C 4.035156 -2.015625 4.3125 -1.660156 4.3125 -0.953125 C 4.3125 -0.242188 4.035156 0.109375 3.484375 0.109375 Z M 3.484375 0.109375 "/></g></g></g></svg>