<svg xmlns="http://www.w3.org/2000/svg" xmlns:xlink="http://www.w3.org/1999/xlink" width="396" zoomAndPan="magnify" viewBox="0 0 297 70.499998" height="94" preserveAspectRatio="xMidYMid meet" version="1.0"><defs><g/><clipPath id="1438353221"><rect x="0" width="61" y="0" height="25"/></clipPath><clipPath id="633574dda0"><rect x="0" width="207" y="0" height="60"/></clipPath></defs><g transform="matrix(1, 0, 0, 1, 7, 14)"><g clip-path="url(#1438353221)"><g fill="#2b2b2b" fill-opacity="1"><g transform="translate(1.153914, 19.09324)"><g><path d="M 6.328125 0.171875 C 4.953125 0.171875 3.875 -0.128906 3.09375 -0.734375 C 2.3125 -1.335938 1.921875 -2.351562 1.921875 -3.78125 L 1.921875 -11.125 C 1.921875 -11.914062 1.441406 -12.3125 0.484375 -12.3125 L 0.265625 -12.3125 L 0.265625 -12.484375 L 5.34375 -12.484375 L 5.34375 -12.3125 L 5.125 -12.3125 C 4.164062 -12.3125 3.6875 -11.894531 3.6875 -11.0625 L 3.6875 -3.671875 C 3.6875 -2.734375 3.8125 -2.003906 4.0625 -1.484375 C 4.3125 -0.960938 4.65625 -0.597656 5.09375 -0.390625 C 5.539062 -0.191406 6.046875 -0.09375 6.609375 -0.09375 C 7.796875 -0.09375 8.726562 -0.398438 9.40625 -1.015625 C 10.09375 -1.640625 10.4375 -2.503906 10.4375 -3.609375 L 10.4375 -11.125 C 10.4375 -11.914062 9.957031 -12.3125 9 -12.3125 L 8.78125 -12.3125 L 8.78125 -12.484375 L 12.28125 -12.484375 L 12.28125 -12.3125 L 12.046875 -12.3125 C 11.085938 -12.3125 10.609375 -11.890625 10.609375 -11.046875 L 10.609375 -3.5625 C 10.609375 -2.394531 10.238281 -1.476562 9.5 -0.8125 C 8.769531 -0.15625 7.710938 0.171875 6.328125 0.171875 Z M 6.328125 0.171875 "/></g></g></g><g fill="#2b2b2b" fill-opacity="1"><g transform="translate(13.686472, 19.09324)"><g><path d="M 0.484375 0 L 0.484375 -0.171875 L 0.625 -0.171875 C 1.164062 -0.171875 1.539062 -0.285156 1.75 -0.515625 C 1.957031 -0.753906 2.0625 -1.175781 2.0625 -1.78125 L 2.0625 -7.625 C 2.0625 -8.21875 1.960938 -8.628906 1.765625 -8.859375 C 1.566406 -9.085938 1.203125 -9.203125 0.671875 -9.203125 L 0.578125 -9.203125 L 0.578125 -9.375 L 3.6875 -9.375 L 3.6875 -7.734375 L 3.71875 -7.734375 C 3.875 -8.265625 4.097656 -8.660156 4.390625 -8.921875 C 4.691406 -9.179688 5.015625 -9.347656 5.359375 -9.421875 C 5.703125 -9.503906 6.019531 -9.546875 6.3125 -9.546875 C 7.351562 -9.546875 8.125 -9.273438 8.625 -8.734375 C 9.132812 -8.191406 9.390625 -7.320312 9.390625 -6.125 L 9.390625 -1.78125 C 9.390625 -1.175781 9.484375 -0.753906 9.671875 -0.515625 C 9.859375 -0.285156 10.203125 -0.171875 10.703125 -0.171875 L 10.78125 -0.171875 L 10.78125 0 L 7.75 0 L 7.75 -6.71875 C 7.75 -7.46875 7.601562 -8.082031 7.3125 -8.5625 C 7.03125 -9.039062 6.550781 -9.28125 5.875 -9.28125 C 5.320312 -9.28125 4.890625 -9.132812 4.578125 -8.84375 C 4.265625 -8.550781 4.039062 -8.175781 3.90625 -7.71875 C 3.769531 -7.257812 3.703125 -6.78125 3.703125 -6.28125 L 3.703125 -1.78125 C 3.703125 -1.175781 3.800781 -0.753906 4 -0.515625 C 4.195312 -0.285156 4.566406 -0.171875 5.109375 -0.171875 L 5.1875 -0.171875 L 5.1875 0 Z M 0.484375 0 "/></g></g></g><g fill="#2b2b2b" fill-opacity="1"><g transform="translate(24.960536, 19.09324)"><g><path d="M 3.734375 0.171875 C 2.867188 0.171875 2.160156 0.015625 1.609375 -0.296875 C 1.054688 -0.609375 0.78125 -1.066406 0.78125 -1.671875 C 0.78125 -1.992188 0.84375 -2.238281 0.96875 -2.40625 C 1.09375 -2.582031 1.238281 -2.707031 1.40625 -2.78125 C 1.582031 -2.851562 1.742188 -2.890625 1.890625 -2.890625 C 1.890625 -1.941406 2.023438 -1.222656 2.296875 -0.734375 C 2.566406 -0.242188 3.0625 0 3.78125 0 C 4.394531 0 4.878906 -0.160156 5.234375 -0.484375 C 5.597656 -0.804688 5.78125 -1.28125 5.78125 -1.90625 C 5.78125 -2.3125 5.710938 -2.632812 5.578125 -2.875 C 5.441406 -3.113281 5.210938 -3.328125 4.890625 -3.515625 C 4.566406 -3.703125 4.117188 -3.914062 3.546875 -4.15625 C 2.878906 -4.445312 2.351562 -4.726562 1.96875 -5 C 1.59375 -5.28125 1.320312 -5.582031 1.15625 -5.90625 C 0.988281 -6.238281 0.90625 -6.625 0.90625 -7.0625 C 0.90625 -7.851562 1.1875 -8.460938 1.75 -8.890625 C 2.3125 -9.316406 3.085938 -9.53125 4.078125 -9.53125 C 4.910156 -9.53125 5.5625 -9.367188 6.03125 -9.046875 C 6.507812 -8.722656 6.75 -8.347656 6.75 -7.921875 C 6.75 -7.609375 6.632812 -7.351562 6.40625 -7.15625 C 6.1875 -6.96875 5.878906 -6.875 5.484375 -6.875 C 5.484375 -7.769531 5.359375 -8.40625 5.109375 -8.78125 C 4.867188 -9.164062 4.492188 -9.359375 3.984375 -9.359375 C 2.796875 -9.359375 2.203125 -8.796875 2.203125 -7.671875 C 2.203125 -7.265625 2.28125 -6.9375 2.4375 -6.6875 C 2.601562 -6.445312 2.851562 -6.238281 3.1875 -6.0625 C 3.53125 -5.894531 3.96875 -5.695312 4.5 -5.46875 C 5.15625 -5.207031 5.675781 -4.9375 6.0625 -4.65625 C 6.445312 -4.382812 6.71875 -4.082031 6.875 -3.75 C 7.03125 -3.414062 7.109375 -3.019531 7.109375 -2.5625 C 7.109375 -1.65625 6.800781 -0.972656 6.1875 -0.515625 C 5.582031 -0.0546875 4.765625 0.171875 3.734375 0.171875 Z M 3.734375 0.171875 "/></g></g></g><g fill="#2b2b2b" fill-opacity="1"><g transform="translate(32.843635, 19.09324)"><g><path d="M 5.109375 0.171875 C 3.796875 0.171875 2.773438 -0.242188 2.046875 -1.078125 C 1.328125 -1.921875 0.96875 -3.097656 0.96875 -4.609375 C 0.96875 -6.242188 1.300781 -7.472656 1.96875 -8.296875 C 2.632812 -9.128906 3.59375 -9.546875 4.84375 -9.546875 C 5.976562 -9.546875 6.867188 -9.195312 7.515625 -8.5 C 8.160156 -7.800781 8.484375 -6.757812 8.484375 -5.375 L 8.484375 -4.953125 L 2.65625 -4.953125 C 2.664062 -3.160156 2.859375 -1.882812 3.234375 -1.125 C 3.617188 -0.375 4.257812 0 5.15625 0 C 5.8125 0 6.363281 -0.175781 6.8125 -0.53125 C 7.257812 -0.894531 7.546875 -1.4375 7.671875 -2.15625 C 7.816406 -2.125 7.921875 -2.050781 7.984375 -1.9375 C 8.054688 -1.820312 8.09375 -1.703125 8.09375 -1.578125 C 8.09375 -1.335938 7.984375 -1.082031 7.765625 -0.8125 C 7.546875 -0.539062 7.21875 -0.304688 6.78125 -0.109375 C 6.34375 0.078125 5.785156 0.171875 5.109375 0.171875 Z M 2.65625 -5.125 L 6.71875 -5.125 C 6.71875 -6.644531 6.570312 -7.734375 6.28125 -8.390625 C 5.988281 -9.046875 5.5 -9.375 4.8125 -9.375 C 4.09375 -9.375 3.566406 -9.046875 3.234375 -8.390625 C 2.910156 -7.734375 2.71875 -6.644531 2.65625 -5.125 Z M 2.65625 -5.125 "/></g></g></g><g fill="#2b2b2b" fill-opacity="1"><g transform="translate(42.194986, 19.09324)"><g><path d="M 0.40625 0 L 0.40625 -0.171875 L 0.625 -0.171875 C 1.144531 -0.171875 1.515625 -0.273438 1.734375 -0.484375 C 1.953125 -0.691406 2.0625 -1.035156 2.0625 -1.515625 L 2.0625 -7.828125 C 2.0625 -8.316406 1.953125 -8.664062 1.734375 -8.875 C 1.515625 -9.09375 1.144531 -9.203125 0.625 -9.203125 L 0.578125 -9.203125 L 0.578125 -9.375 L 3.6875 -9.375 L 3.6875 -7.625 L 3.71875 -7.625 C 3.800781 -7.925781 3.925781 -8.222656 4.09375 -8.515625 C 4.257812 -8.804688 4.503906 -9.050781 4.828125 -9.25 C 5.148438 -9.445312 5.597656 -9.546875 6.171875 -9.546875 C 6.742188 -9.546875 7.1875 -9.429688 7.5 -9.203125 C 7.8125 -8.972656 7.96875 -8.65625 7.96875 -8.25 C 7.96875 -7.90625 7.84375 -7.613281 7.59375 -7.375 C 7.34375 -7.144531 6.925781 -7.03125 6.34375 -7.03125 C 6.34375 -7.75 6.21875 -8.242188 5.96875 -8.515625 C 5.726562 -8.796875 5.457031 -8.9375 5.15625 -8.9375 C 4.820312 -8.9375 4.554688 -8.816406 4.359375 -8.578125 C 4.160156 -8.335938 4.015625 -8.023438 3.921875 -7.640625 C 3.828125 -7.265625 3.765625 -6.875 3.734375 -6.46875 C 3.710938 -6.070312 3.703125 -5.707031 3.703125 -5.375 L 3.703125 -1.609375 C 3.703125 -1.097656 3.8125 -0.726562 4.03125 -0.5 C 4.257812 -0.28125 4.628906 -0.171875 5.140625 -0.171875 L 5.375 -0.171875 L 5.375 0 Z M 0.40625 0 "/></g></g></g><g fill="#2b2b2b" fill-opacity="1"><g transform="translate(50.427669, 19.09324)"><g><path d="M 5.109375 0.171875 C 3.796875 0.171875 2.773438 -0.242188 2.046875 -1.078125 C 1.328125 -1.921875 0.96875 -3.097656 0.96875 -4.609375 C 0.96875 -6.242188 1.300781 -7.472656 1.96875 -8.296875 C 2.632812 -9.128906 3.59375 -9.546875 4.84375 -9.546875 C 5.976562 -9.546875 6.867188 -9.195312 7.515625 -8.5 C 8.160156 -7.800781 8.484375 -6.757812 8.484375 -5.375 L 8.484375 -4.953125 L 2.65625 -4.953125 C 2.664062 -3.160156 2.859375 -1.882812 3.234375 -1.125 C 3.617188 -0.375 4.257812 0 5.15625 0 C 5.8125 0 6.363281 -0.175781 6.8125 -0.53125 C 7.257812 -0.894531 7.546875 -1.4375 7.671875 -2.15625 C 7.816406 -2.125 7.921875 -2.050781 7.984375 -1.9375 C 8.054688 -1.820312 8.09375 -1.703125 8.09375 -1.578125 C 8.09375 -1.335938 7.984375 -1.082031 7.765625 -0.8125 C 7.546875 -0.539062 7.21875 -0.304688 6.78125 -0.109375 C 6.34375 0.078125 5.785156 0.171875 5.109375 0.171875 Z M 2.65625 -5.125 L 6.71875 -5.125 C 6.71875 -6.644531 6.570312 -7.734375 6.28125 -8.390625 C 5.988281 -9.046875 5.5 -9.375 4.8125 -9.375 C 4.09375 -9.375 3.566406 -9.046875 3.234375 -8.390625 C 2.910156 -7.734375 2.71875 -6.644531 2.65625 -5.125 Z M 2.65625 -5.125 "/></g></g></g></g></g><g transform="matrix(1, 0, 0, 1, 70, 5)"><g clip-path="url(#633574dda0)"><g fill="#2b2b2b" fill-opacity="1"><g transform="translate(1.503766, 42.322709)"><g><path d="M 0.78125 1.140625 L 0.75 1.125 L 0.765625 1.109375 C 2.304688 0.0546875 3.78125 -1.109375 5.1875 -2.390625 C 6.601562 -3.671875 7.941406 -5.03125 9.203125 -6.46875 C 10.472656 -7.90625 11.675781 -9.382812 12.8125 -10.90625 C 13.945312 -12.425781 15.019531 -13.957031 16.03125 -15.5 C 17.039062 -17.039062 17.984375 -18.554688 18.859375 -20.046875 C 19.734375 -21.535156 20.546875 -22.960938 21.296875 -24.328125 C 22.046875 -25.703125 22.734375 -26.976562 23.359375 -28.15625 C 23.992188 -29.332031 24.566406 -30.375 25.078125 -31.28125 C 24.242188 -31.425781 23.398438 -31.566406 22.546875 -31.703125 C 21.703125 -31.847656 20.851562 -31.96875 20 -32.0625 C 19.15625 -32.15625 18.320312 -32.203125 17.5 -32.203125 C 17.28125 -32.203125 17.0625 -32.195312 16.84375 -32.1875 C 16.632812 -32.175781 16.421875 -32.160156 16.203125 -32.140625 C 14.941406 -32.046875 13.851562 -31.867188 12.9375 -31.609375 C 12.03125 -31.359375 11.257812 -31.066406 10.625 -30.734375 C 10 -30.398438 9.484375 -30.054688 9.078125 -29.703125 C 8.671875 -29.347656 8.335938 -29.007812 8.078125 -28.6875 C 7.828125 -28.363281 7.617188 -28.085938 7.453125 -27.859375 C 7.453125 -27.859375 7.40625 -27.832031 7.3125 -27.78125 C 7.226562 -27.726562 7.160156 -27.703125 7.109375 -27.703125 C 7.085938 -27.703125 7.078125 -27.710938 7.078125 -27.734375 C 7.078125 -27.742188 7.085938 -27.769531 7.109375 -27.8125 C 7.546875 -28.53125 8.03125 -29.148438 8.5625 -29.671875 C 9.101562 -30.203125 9.671875 -30.648438 10.265625 -31.015625 C 10.859375 -31.378906 11.472656 -31.679688 12.109375 -31.921875 C 12.742188 -32.171875 13.378906 -32.375 14.015625 -32.53125 C 14.671875 -32.695312 15.332031 -32.8125 16 -32.875 C 16.675781 -32.945312 17.363281 -32.984375 18.0625 -32.984375 C 19.15625 -32.984375 20.257812 -32.921875 21.375 -32.796875 C 22.5 -32.679688 23.628906 -32.539062 24.765625 -32.375 C 25.910156 -32.21875 27.054688 -32.078125 28.203125 -31.953125 C 29.347656 -31.828125 30.488281 -31.765625 31.625 -31.765625 C 32.570312 -31.765625 33.507812 -31.828125 34.4375 -31.953125 C 35.375 -32.078125 36.296875 -32.289062 37.203125 -32.59375 C 38.117188 -32.894531 39.015625 -33.300781 39.890625 -33.8125 C 40.765625 -34.332031 41.613281 -34.988281 42.4375 -35.78125 C 42.5 -35.832031 42.5625 -35.859375 42.625 -35.859375 C 42.726562 -35.859375 42.820312 -35.789062 42.90625 -35.65625 C 42.988281 -35.519531 43.03125 -35.378906 43.03125 -35.234375 C 43.03125 -35.128906 43.003906 -35.03125 42.953125 -34.9375 C 42.304688 -34.070312 41.582031 -33.351562 40.78125 -32.78125 C 39.988281 -32.21875 39.132812 -31.765625 38.21875 -31.421875 C 37.3125 -31.085938 36.363281 -30.847656 35.375 -30.703125 C 34.394531 -30.554688 33.398438 -30.484375 32.390625 -30.484375 C 31.503906 -30.484375 30.570312 -30.53125 29.59375 -30.625 C 28.625 -30.726562 27.691406 -30.851562 26.796875 -31 C 25.929688 -29.144531 25.050781 -27.359375 24.15625 -25.640625 C 23.257812 -23.929688 22.316406 -22.25 21.328125 -20.59375 C 20.335938 -18.945312 19.285156 -17.296875 18.171875 -15.640625 C 17.054688 -13.984375 15.847656 -12.296875 14.546875 -10.578125 C 13.296875 -8.910156 12.097656 -7.460938 10.953125 -6.234375 C 9.816406 -5.003906 8.753906 -3.957031 7.765625 -3.09375 C 6.773438 -2.238281 5.867188 -1.53125 5.046875 -0.96875 C 4.222656 -0.414062 3.507812 0.0078125 2.90625 0.3125 C 2.300781 0.625 1.816406 0.835938 1.453125 0.953125 C 1.097656 1.078125 0.875 1.140625 0.78125 1.140625 Z M 0.78125 1.140625 "/></g></g></g><g fill="#2b2b2b" fill-opacity="1"><g transform="translate(21.042829, 42.322709)"><g><path d="M 2.359375 -1.328125 C 1.867188 -1.328125 1.488281 -1.421875 1.21875 -1.609375 C 0.945312 -1.796875 0.8125 -2.078125 0.8125 -2.453125 C 0.8125 -2.796875 0.914062 -3.195312 1.125 -3.65625 C 1.34375 -4.113281 1.625 -4.597656 1.96875 -5.109375 C 2.320312 -5.628906 2.707031 -6.15625 3.125 -6.6875 C 3.550781 -7.226562 3.972656 -7.742188 4.390625 -8.234375 C 4.859375 -8.773438 5.296875 -9.289062 5.703125 -9.78125 C 6.117188 -10.269531 6.457031 -10.65625 6.71875 -10.9375 C 6.488281 -10.851562 6.207031 -10.710938 5.875 -10.515625 C 5.550781 -10.328125 5.195312 -10.125 4.8125 -9.90625 C 4.4375 -9.6875 4.050781 -9.484375 3.65625 -9.296875 C 3.269531 -9.109375 2.894531 -8.972656 2.53125 -8.890625 C 2.289062 -8.628906 2.0625 -8.378906 1.84375 -8.140625 C 1.625 -7.898438 1.375 -7.644531 1.09375 -7.375 C 0.820312 -7.113281 0.488281 -6.804688 0.09375 -6.453125 C 0.0703125 -6.429688 0.046875 -6.421875 0.015625 -6.421875 C -0.00390625 -6.421875 -0.0234375 -6.429688 -0.046875 -6.453125 C -0.078125 -6.484375 -0.09375 -6.515625 -0.09375 -6.546875 C -0.09375 -6.578125 -0.078125 -6.601562 -0.046875 -6.625 C 0.179688 -6.832031 0.378906 -7.015625 0.546875 -7.171875 C 0.722656 -7.335938 0.890625 -7.492188 1.046875 -7.640625 C 1.203125 -7.796875 1.367188 -7.96875 1.546875 -8.15625 C 1.722656 -8.34375 1.925781 -8.5625 2.15625 -8.8125 L 1.859375 -8.8125 L 1.859375 -8.828125 C 1.492188 -8.859375 1.226562 -8.957031 1.0625 -9.125 C 0.90625 -9.300781 0.828125 -9.519531 0.828125 -9.78125 C 0.828125 -10.039062 0.894531 -10.328125 1.03125 -10.640625 C 1.175781 -10.953125 1.375 -11.265625 1.625 -11.578125 C 1.875 -11.890625 2.160156 -12.171875 2.484375 -12.421875 C 2.804688 -12.679688 3.144531 -12.878906 3.5 -13.015625 C 3.726562 -13.097656 3.957031 -13.140625 4.1875 -13.140625 C 4.4375 -13.140625 4.644531 -13.078125 4.8125 -12.953125 C 4.976562 -12.835938 5.0625 -12.648438 5.0625 -12.390625 C 5.0625 -12.097656 4.914062 -11.710938 4.625 -11.234375 C 4.34375 -10.765625 3.835938 -10.191406 3.109375 -9.515625 C 3.484375 -9.648438 3.875 -9.820312 4.28125 -10.03125 C 4.6875 -10.238281 5.082031 -10.445312 5.46875 -10.65625 C 5.851562 -10.863281 6.207031 -11.039062 6.53125 -11.1875 C 6.851562 -11.332031 7.125 -11.40625 7.34375 -11.40625 C 7.425781 -11.40625 7.5 -11.390625 7.5625 -11.359375 C 7.632812 -11.328125 7.6875 -11.273438 7.71875 -11.203125 C 7.78125 -11.109375 7.832031 -10.984375 7.875 -10.828125 C 7.925781 -10.679688 7.953125 -10.519531 7.953125 -10.34375 C 7.953125 -10.21875 7.929688 -10.085938 7.890625 -9.953125 C 7.859375 -9.828125 7.789062 -9.703125 7.6875 -9.578125 C 7.5 -9.359375 7.238281 -9.070312 6.90625 -8.71875 C 6.570312 -8.375 6.203125 -7.988281 5.796875 -7.5625 C 5.390625 -7.132812 4.984375 -6.691406 4.578125 -6.234375 C 4.171875 -5.773438 3.796875 -5.316406 3.453125 -4.859375 C 3.109375 -4.410156 2.832031 -3.988281 2.625 -3.59375 C 2.414062 -3.207031 2.3125 -2.875 2.3125 -2.59375 C 2.3125 -2.375 2.378906 -2.195312 2.515625 -2.0625 C 2.660156 -1.925781 2.890625 -1.859375 3.203125 -1.859375 C 3.535156 -1.859375 3.953125 -1.925781 4.453125 -2.0625 C 4.960938 -2.207031 5.519531 -2.398438 6.125 -2.640625 C 6.738281 -2.890625 7.363281 -3.171875 8 -3.484375 C 8.632812 -3.804688 9.265625 -4.144531 9.890625 -4.5 C 10.515625 -4.851562 11.09375 -5.207031 11.625 -5.5625 C 12.15625 -5.925781 12.609375 -6.273438 12.984375 -6.609375 C 13.066406 -6.679688 13.148438 -6.71875 13.234375 -6.71875 C 13.285156 -6.71875 13.3125 -6.695312 13.3125 -6.65625 C 13.3125 -6.632812 13.289062 -6.597656 13.25 -6.546875 C 12.976562 -6.316406 12.632812 -6.050781 12.21875 -5.75 C 11.800781 -5.445312 11.328125 -5.128906 10.796875 -4.796875 C 10.265625 -4.460938 9.703125 -4.128906 9.109375 -3.796875 C 8.515625 -3.472656 7.910156 -3.160156 7.296875 -2.859375 C 6.679688 -2.566406 6.078125 -2.300781 5.484375 -2.0625 C 4.890625 -1.832031 4.328125 -1.648438 3.796875 -1.515625 C 3.265625 -1.390625 2.785156 -1.328125 2.359375 -1.328125 Z M 2.203125 -9.296875 C 2.335938 -9.296875 2.472656 -9.3125 2.609375 -9.34375 C 3.410156 -10.09375 3.972656 -10.703125 4.296875 -11.171875 C 4.628906 -11.640625 4.796875 -11.984375 4.796875 -12.203125 C 4.796875 -12.328125 4.757812 -12.414062 4.6875 -12.46875 C 4.613281 -12.519531 4.515625 -12.546875 4.390625 -12.546875 C 4.171875 -12.546875 3.894531 -12.460938 3.5625 -12.296875 C 3.238281 -12.140625 2.90625 -11.910156 2.5625 -11.609375 C 2.226562 -11.316406 1.9375 -10.960938 1.6875 -10.546875 C 1.53125 -10.296875 1.453125 -10.078125 1.453125 -9.890625 C 1.453125 -9.703125 1.519531 -9.554688 1.65625 -9.453125 C 1.789062 -9.347656 1.972656 -9.296875 2.203125 -9.296875 Z M 2.203125 -9.296875 "/></g></g></g><g fill="#2b2b2b" fill-opacity="1"><g transform="translate(33.863998, 42.322709)"><g><path d="M 8.28125 -1.34375 C 7.65625 -1.34375 7.179688 -1.484375 6.859375 -1.765625 C 6.546875 -2.046875 6.390625 -2.445312 6.390625 -2.96875 C 6.390625 -3.320312 6.453125 -3.707031 6.578125 -4.125 C 6.703125 -4.539062 6.867188 -4.976562 7.078125 -5.4375 C 7.296875 -5.90625 7.535156 -6.378906 7.796875 -6.859375 C 8.066406 -7.335938 8.34375 -7.800781 8.625 -8.25 C 8.164062 -7.757812 7.679688 -7.25 7.171875 -6.71875 C 6.660156 -6.195312 6.132812 -5.695312 5.59375 -5.21875 C 5.050781 -4.738281 4.503906 -4.304688 3.953125 -3.921875 C 3.398438 -3.535156 2.863281 -3.226562 2.34375 -3 C 1.820312 -2.769531 1.328125 -2.65625 0.859375 -2.65625 C 0.515625 -2.65625 0.195312 -2.726562 -0.09375 -2.875 C -0.476562 -3.050781 -0.757812 -3.273438 -0.9375 -3.546875 C -1.113281 -3.816406 -1.203125 -4.128906 -1.203125 -4.484375 C -1.203125 -4.910156 -1.085938 -5.382812 -0.859375 -5.90625 C -0.640625 -6.425781 -0.351562 -6.972656 0 -7.546875 C 0.28125 -7.992188 0.625 -8.453125 1.03125 -8.921875 C 1.445312 -9.398438 1.929688 -9.859375 2.484375 -10.296875 C 3.046875 -10.734375 3.679688 -11.113281 4.390625 -11.4375 C 4.785156 -11.625 5.179688 -11.757812 5.578125 -11.84375 C 5.984375 -11.9375 6.367188 -11.984375 6.734375 -11.984375 C 7.210938 -11.984375 7.648438 -11.910156 8.046875 -11.765625 C 8.441406 -11.617188 8.765625 -11.410156 9.015625 -11.140625 C 9.273438 -10.867188 9.429688 -10.546875 9.484375 -10.171875 C 9.703125 -10.421875 9.898438 -10.644531 10.078125 -10.84375 C 10.253906 -11.039062 10.410156 -11.210938 10.546875 -11.359375 C 10.597656 -11.398438 10.660156 -11.421875 10.734375 -11.421875 C 10.867188 -11.421875 11.007812 -11.351562 11.15625 -11.21875 C 11.3125 -11.09375 11.441406 -10.925781 11.546875 -10.71875 C 11.660156 -10.519531 11.71875 -10.3125 11.71875 -10.09375 C 11.71875 -9.925781 11.675781 -9.765625 11.59375 -9.609375 C 11.394531 -9.304688 11.140625 -8.9375 10.828125 -8.5 C 10.523438 -8.070312 10.207031 -7.613281 9.875 -7.125 C 9.539062 -6.632812 9.222656 -6.140625 8.921875 -5.640625 C 8.617188 -5.140625 8.375 -4.65625 8.1875 -4.1875 C 8 -3.726562 7.90625 -3.304688 7.90625 -2.921875 C 7.90625 -2.648438 7.984375 -2.40625 8.140625 -2.1875 C 8.304688 -1.96875 8.59375 -1.859375 9 -1.859375 C 9.34375 -1.859375 9.75 -1.925781 10.21875 -2.0625 C 10.6875 -2.207031 11.191406 -2.40625 11.734375 -2.65625 C 12.273438 -2.90625 12.828125 -3.1875 13.390625 -3.5 C 13.960938 -3.820312 14.515625 -4.160156 15.046875 -4.515625 C 15.578125 -4.878906 16.066406 -5.238281 16.515625 -5.59375 C 16.960938 -5.957031 17.335938 -6.300781 17.640625 -6.625 C 17.710938 -6.695312 17.785156 -6.734375 17.859375 -6.734375 C 17.921875 -6.734375 17.953125 -6.707031 17.953125 -6.65625 C 17.953125 -6.632812 17.9375 -6.609375 17.90625 -6.578125 C 17.664062 -6.304688 17.328125 -5.988281 16.890625 -5.625 C 16.460938 -5.257812 15.96875 -4.878906 15.40625 -4.484375 C 14.851562 -4.097656 14.265625 -3.71875 13.640625 -3.34375 C 13.023438 -2.96875 12.398438 -2.628906 11.765625 -2.328125 C 11.128906 -2.023438 10.507812 -1.785156 9.90625 -1.609375 C 9.3125 -1.429688 8.769531 -1.34375 8.28125 -1.34375 Z M 1.140625 -3.34375 C 1.367188 -3.34375 1.640625 -3.40625 1.953125 -3.53125 C 2.273438 -3.65625 2.617188 -3.820312 2.984375 -4.03125 C 3.347656 -4.238281 3.707031 -4.46875 4.0625 -4.71875 C 4.425781 -4.976562 4.765625 -5.234375 5.078125 -5.484375 C 5.472656 -5.804688 5.890625 -6.195312 6.328125 -6.65625 C 6.773438 -7.113281 7.222656 -7.59375 7.671875 -8.09375 C 8.117188 -8.59375 8.539062 -9.078125 8.9375 -9.546875 C 8.9375 -10.078125 8.804688 -10.457031 8.546875 -10.6875 C 8.285156 -10.914062 7.957031 -11.03125 7.5625 -11.03125 C 7.164062 -11.03125 6.742188 -10.941406 6.296875 -10.765625 C 5.847656 -10.585938 5.425781 -10.363281 5.03125 -10.09375 C 4.75 -9.894531 4.421875 -9.628906 4.046875 -9.296875 C 3.679688 -8.972656 3.304688 -8.59375 2.921875 -8.15625 C 2.535156 -7.71875 2.164062 -7.25 1.8125 -6.75 C 1.46875 -6.25 1.175781 -5.734375 0.9375 -5.203125 C 0.695312 -4.640625 0.578125 -4.210938 0.578125 -3.921875 C 0.578125 -3.722656 0.625 -3.578125 0.71875 -3.484375 C 0.820312 -3.390625 0.960938 -3.34375 1.140625 -3.34375 Z M 1.140625 -3.34375 "/></g></g></g><g fill="#2b2b2b" fill-opacity="1"><g transform="translate(51.289565, 42.322709)"><g><path d="M 7.265625 -0.765625 C 6.722656 -0.765625 6.3125 -0.890625 6.03125 -1.140625 C 5.75 -1.390625 5.609375 -1.722656 5.609375 -2.140625 C 5.609375 -2.484375 5.6875 -2.875 5.84375 -3.3125 C 6.007812 -3.757812 6.222656 -4.222656 6.484375 -4.703125 C 6.753906 -5.191406 7.050781 -5.691406 7.375 -6.203125 C 7.707031 -6.710938 8.046875 -7.207031 8.390625 -7.6875 C 7.890625 -7.1875 7.351562 -6.675781 6.78125 -6.15625 C 6.21875 -5.632812 5.640625 -5.128906 5.046875 -4.640625 C 4.460938 -4.148438 3.878906 -3.710938 3.296875 -3.328125 C 2.710938 -2.953125 2.144531 -2.648438 1.59375 -2.421875 C 1.050781 -2.203125 0.539062 -2.09375 0.0625 -2.09375 C -0.101562 -2.09375 -0.257812 -2.101562 -0.40625 -2.125 C -0.5625 -2.15625 -0.710938 -2.207031 -0.859375 -2.28125 C -1.171875 -2.425781 -1.390625 -2.613281 -1.515625 -2.84375 C -1.648438 -3.082031 -1.71875 -3.347656 -1.71875 -3.640625 C -1.71875 -3.972656 -1.644531 -4.332031 -1.5 -4.71875 C -1.351562 -5.113281 -1.15625 -5.523438 -0.90625 -5.953125 C -0.65625 -6.390625 -0.378906 -6.828125 -0.078125 -7.265625 C 0.0976562 -7.503906 0.304688 -7.78125 0.546875 -8.09375 C 0.796875 -8.414062 1.046875 -8.738281 1.296875 -9.0625 C 1.554688 -9.382812 1.78125 -9.664062 1.96875 -9.90625 C 2.144531 -10.125 2.28125 -10.3125 2.375 -10.46875 C 2.46875 -10.625 2.546875 -10.769531 2.609375 -10.90625 C 2.671875 -11.050781 2.726562 -11.203125 2.78125 -11.359375 C 2.84375 -11.398438 2.90625 -11.421875 2.96875 -11.421875 C 3.113281 -11.421875 3.25 -11.347656 3.375 -11.203125 C 3.5 -11.066406 3.601562 -10.894531 3.6875 -10.6875 C 3.78125 -10.476562 3.828125 -10.273438 3.828125 -10.078125 C 3.828125 -9.929688 3.796875 -9.800781 3.734375 -9.6875 C 3.609375 -9.351562 3.398438 -8.992188 3.109375 -8.609375 C 2.828125 -8.222656 2.503906 -7.816406 2.140625 -7.390625 C 1.773438 -6.972656 1.414062 -6.535156 1.0625 -6.078125 C 0.707031 -5.617188 0.40625 -5.148438 0.15625 -4.671875 C 0 -4.367188 -0.113281 -4.109375 -0.1875 -3.890625 C -0.257812 -3.671875 -0.296875 -3.488281 -0.296875 -3.34375 C -0.296875 -3.144531 -0.242188 -3.003906 -0.140625 -2.921875 C -0.0351562 -2.835938 0.109375 -2.796875 0.296875 -2.796875 C 0.535156 -2.796875 0.828125 -2.859375 1.171875 -2.984375 C 1.523438 -3.117188 1.898438 -3.285156 2.296875 -3.484375 C 2.703125 -3.691406 3.097656 -3.914062 3.484375 -4.15625 C 3.878906 -4.40625 4.242188 -4.660156 4.578125 -4.921875 C 5.003906 -5.242188 5.460938 -5.628906 5.953125 -6.078125 C 6.441406 -6.535156 6.9375 -7.015625 7.4375 -7.515625 C 7.9375 -8.023438 8.40625 -8.507812 8.84375 -8.96875 C 8.90625 -9.03125 9.019531 -9.144531 9.1875 -9.3125 C 9.351562 -9.488281 9.535156 -9.675781 9.734375 -9.875 C 9.929688 -10.070312 10.113281 -10.253906 10.28125 -10.421875 C 10.445312 -10.597656 10.566406 -10.71875 10.640625 -10.78125 C 10.691406 -10.832031 10.753906 -10.859375 10.828125 -10.859375 C 10.953125 -10.859375 11.078125 -10.796875 11.203125 -10.671875 C 11.335938 -10.554688 11.453125 -10.40625 11.546875 -10.21875 C 11.640625 -10.039062 11.6875 -9.847656 11.6875 -9.640625 C 11.6875 -9.410156 11.625 -9.210938 11.5 -9.046875 C 11.351562 -8.828125 11.15625 -8.5625 10.90625 -8.25 C 10.65625 -7.945312 10.382812 -7.613281 10.09375 -7.25 C 9.8125 -6.894531 9.523438 -6.53125 9.234375 -6.15625 C 8.953125 -5.789062 8.6875 -5.4375 8.4375 -5.09375 C 8.195312 -4.75 8.003906 -4.4375 7.859375 -4.15625 C 7.691406 -3.84375 7.53125 -3.507812 7.375 -3.15625 C 7.21875 -2.800781 7.140625 -2.476562 7.140625 -2.1875 C 7.140625 -1.96875 7.203125 -1.765625 7.328125 -1.578125 C 7.460938 -1.390625 7.703125 -1.296875 8.046875 -1.296875 C 8.359375 -1.296875 8.738281 -1.378906 9.1875 -1.546875 C 9.632812 -1.710938 10.125 -1.9375 10.65625 -2.21875 C 11.195312 -2.507812 11.75 -2.832031 12.3125 -3.1875 C 12.875 -3.550781 13.425781 -3.929688 13.96875 -4.328125 C 14.519531 -4.722656 15.03125 -5.113281 15.5 -5.5 C 15.96875 -5.894531 16.367188 -6.257812 16.703125 -6.59375 C 16.773438 -6.65625 16.851562 -6.6875 16.9375 -6.6875 C 17 -6.6875 17.03125 -6.664062 17.03125 -6.625 C 17.03125 -6.601562 17.015625 -6.570312 16.984375 -6.53125 C 16.703125 -6.257812 16.335938 -5.925781 15.890625 -5.53125 C 15.441406 -5.144531 14.929688 -4.734375 14.359375 -4.296875 C 13.796875 -3.867188 13.203125 -3.445312 12.578125 -3.03125 C 11.953125 -2.613281 11.320312 -2.234375 10.6875 -1.890625 C 10.0625 -1.546875 9.453125 -1.269531 8.859375 -1.0625 C 8.273438 -0.863281 7.742188 -0.765625 7.265625 -0.765625 Z M 7.265625 -0.765625 "/></g></g></g><g fill="#2b2b2b" fill-opacity="1"><g transform="translate(67.874045, 42.322709)"><g><path d="M -22.8125 15.1875 C -23.957031 15.1875 -25.007812 15.078125 -25.96875 14.859375 C -26.9375 14.648438 -27.734375 14.316406 -28.359375 13.859375 C -28.898438 13.460938 -29.304688 13.003906 -29.578125 12.484375 C -29.859375 11.972656 -30 11.429688 -30 10.859375 C -30 10.492188 -29.9375 10.113281 -29.8125 9.71875 C -29.695312 9.320312 -29.515625 8.929688 -29.265625 8.546875 C -28.773438 7.796875 -28.171875 7.140625 -27.453125 6.578125 C -26.734375 6.015625 -25.925781 5.53125 -25.03125 5.125 C -24.144531 4.726562 -23.203125 4.382812 -22.203125 4.09375 C -21.210938 3.8125 -20.195312 3.570312 -19.15625 3.375 C -18.125 3.1875 -17.097656 3.023438 -16.078125 2.890625 C -15.054688 2.753906 -14.070312 2.628906 -13.125 2.515625 C -12.1875 2.398438 -11.316406 2.285156 -10.515625 2.171875 C -8.503906 1.847656 -6.640625 1.523438 -4.921875 1.203125 C -3.210938 0.878906 -1.628906 0.53125 -0.171875 0.15625 C 1.285156 -0.21875 2.648438 -0.613281 3.921875 -1.03125 C 5.191406 -1.457031 6.394531 -1.921875 7.53125 -2.421875 C 7.78125 -2.804688 7.96875 -3.164062 8.09375 -3.5 C 8.21875 -3.832031 8.28125 -4.132812 8.28125 -4.40625 C 8.28125 -4.75 8.175781 -4.992188 7.96875 -5.140625 C 7.769531 -5.296875 7.488281 -5.375 7.125 -5.375 C 6.832031 -5.375 6.503906 -5.332031 6.140625 -5.25 C 5.785156 -5.164062 5.425781 -5.0625 5.0625 -4.9375 C 4.695312 -4.8125 4.347656 -4.679688 4.015625 -4.546875 C 3.691406 -4.410156 3.398438 -4.28125 3.140625 -4.15625 C 2.890625 -4.039062 2.707031 -3.957031 2.59375 -3.90625 C 2.539062 -3.875 2.484375 -3.859375 2.421875 -3.859375 C 2.296875 -3.859375 2.179688 -3.914062 2.078125 -4.03125 C 1.972656 -4.15625 1.921875 -4.273438 1.921875 -4.390625 C 1.921875 -4.492188 1.96875 -4.570312 2.0625 -4.625 C 2.488281 -4.863281 2.96875 -5.144531 3.5 -5.46875 C 4.03125 -5.789062 4.570312 -6.140625 5.125 -6.515625 C 5.6875 -6.890625 6.238281 -7.269531 6.78125 -7.65625 C 7.320312 -8.050781 7.828125 -8.4375 8.296875 -8.8125 C 8.765625 -9.1875 9.171875 -9.539062 9.515625 -9.875 C 9.867188 -10.207031 10.125 -10.492188 10.28125 -10.734375 C 10.445312 -10.984375 10.53125 -11.203125 10.53125 -11.390625 C 10.53125 -11.773438 10.210938 -11.96875 9.578125 -11.96875 C 9.179688 -11.96875 8.664062 -11.867188 8.03125 -11.671875 C 7.394531 -11.472656 6.660156 -11.15625 5.828125 -10.71875 C 4.992188 -10.28125 4.070312 -9.707031 3.0625 -9 C 2.0625 -8.289062 0.984375 -7.425781 -0.171875 -6.40625 C -0.171875 -6.40625 -0.203125 -6.410156 -0.265625 -6.421875 C -0.335938 -6.441406 -0.375 -6.472656 -0.375 -6.515625 C -0.375 -6.535156 -0.363281 -6.5625 -0.34375 -6.59375 C 0.21875 -7.207031 0.789062 -7.8125 1.375 -8.40625 C 1.96875 -9.007812 2.585938 -9.578125 3.234375 -10.109375 C 3.890625 -10.648438 4.582031 -11.125 5.3125 -11.53125 C 6.050781 -11.945312 6.835938 -12.273438 7.671875 -12.515625 C 8.003906 -12.617188 8.316406 -12.691406 8.609375 -12.734375 C 8.898438 -12.773438 9.164062 -12.796875 9.40625 -12.796875 C 9.851562 -12.796875 10.234375 -12.726562 10.546875 -12.59375 C 10.867188 -12.457031 11.144531 -12.265625 11.375 -12.015625 C 11.570312 -11.796875 11.671875 -11.550781 11.671875 -11.28125 C 11.671875 -10.957031 11.539062 -10.601562 11.28125 -10.21875 C 11.03125 -9.832031 10.691406 -9.4375 10.265625 -9.03125 C 9.835938 -8.632812 9.359375 -8.234375 8.828125 -7.828125 C 8.296875 -7.421875 7.742188 -7.023438 7.171875 -6.640625 C 6.597656 -6.265625 6.046875 -5.910156 5.515625 -5.578125 C 5.847656 -5.671875 6.148438 -5.734375 6.421875 -5.765625 C 6.691406 -5.804688 6.941406 -5.828125 7.171875 -5.828125 C 7.585938 -5.828125 7.914062 -5.769531 8.15625 -5.65625 C 8.40625 -5.539062 8.601562 -5.394531 8.75 -5.21875 C 8.894531 -5.039062 9.007812 -4.851562 9.09375 -4.65625 C 9.1875 -4.445312 9.234375 -4.203125 9.234375 -3.921875 C 9.234375 -3.691406 9.203125 -3.441406 9.140625 -3.171875 C 10.148438 -3.671875 11.128906 -4.210938 12.078125 -4.796875 C 13.035156 -5.390625 14 -6.03125 14.96875 -6.71875 C 15.101562 -6.8125 15.222656 -6.859375 15.328125 -6.859375 C 15.390625 -6.859375 15.421875 -6.84375 15.421875 -6.8125 C 15.421875 -6.769531 15.382812 -6.71875 15.3125 -6.65625 C 14.414062 -5.820312 13.425781 -5.0625 12.34375 -4.375 C 11.269531 -3.695312 10.128906 -3.082031 8.921875 -2.53125 C 8.640625 -1.851562 8.1875 -1.101562 7.5625 -0.28125 C 6.9375 0.53125 6.164062 1.378906 5.25 2.265625 C 4.332031 3.160156 3.296875 4.0625 2.140625 4.96875 C 0.984375 5.882812 -0.269531 6.78125 -1.625 7.65625 C -2.976562 8.539062 -4.40625 9.382812 -5.90625 10.1875 C -7.40625 10.988281 -8.953125 11.71875 -10.546875 12.375 C -12.148438 13.039062 -13.769531 13.609375 -15.40625 14.078125 C -16.625 14.429688 -17.867188 14.703125 -19.140625 14.890625 C -20.410156 15.085938 -21.632812 15.1875 -22.8125 15.1875 Z M -23.234375 14.609375 C -22.703125 14.609375 -22.132812 14.578125 -21.53125 14.515625 C -20.9375 14.453125 -20.300781 14.359375 -19.625 14.234375 C -18.351562 13.984375 -17.050781 13.632812 -15.71875 13.1875 C -14.394531 12.75 -13.0625 12.234375 -11.71875 11.640625 C -10.375 11.046875 -9.046875 10.394531 -7.734375 9.6875 C -6.429688 8.988281 -5.160156 8.25 -3.921875 7.46875 C -2.691406 6.695312 -1.519531 5.910156 -0.40625 5.109375 C 0.707031 4.304688 1.738281 3.503906 2.6875 2.703125 C 3.632812 1.910156 4.476562 1.132812 5.21875 0.375 C 5.96875 -0.375 6.585938 -1.078125 7.078125 -1.734375 C 5.660156 -1.179688 4.191406 -0.691406 2.671875 -0.265625 C 1.160156 0.160156 -0.375 0.539062 -1.9375 0.875 C -3.5 1.207031 -5.054688 1.507812 -6.609375 1.78125 C -8.171875 2.050781 -9.695312 2.300781 -11.1875 2.53125 C -12.6875 2.769531 -14.128906 3 -15.515625 3.21875 C -16.898438 3.445312 -18.203125 3.679688 -19.421875 3.921875 C -20.640625 4.171875 -21.75 4.441406 -22.75 4.734375 C -23.75 5.035156 -24.609375 5.375 -25.328125 5.75 C -26.253906 6.238281 -27.023438 6.765625 -27.640625 7.328125 C -28.253906 7.890625 -28.710938 8.460938 -29.015625 9.046875 C -29.316406 9.628906 -29.46875 10.203125 -29.46875 10.765625 C -29.46875 11.296875 -29.332031 11.789062 -29.0625 12.25 C -28.800781 12.71875 -28.40625 13.125 -27.875 13.46875 C -27.351562 13.820312 -26.703125 14.097656 -25.921875 14.296875 C -25.148438 14.503906 -24.253906 14.609375 -23.234375 14.609375 Z M -23.234375 14.609375 "/></g></g></g><g fill="#2b2b2b" fill-opacity="1"><g transform="translate(82.808712, 42.322709)"><g><path d="M 2.25 -1.4375 C 2.101562 -1.4375 1.960938 -1.4375 1.828125 -1.4375 C 1.703125 -1.445312 1.570312 -1.460938 1.4375 -1.484375 C 0.769531 -1.554688 0.226562 -1.710938 -0.1875 -1.953125 C -0.601562 -2.191406 -0.90625 -2.488281 -1.09375 -2.84375 C -1.289062 -3.207031 -1.390625 -3.609375 -1.390625 -4.046875 C -1.390625 -4.566406 -1.273438 -5.117188 -1.046875 -5.703125 C -0.816406 -6.296875 -0.5 -6.882812 -0.09375 -7.46875 C 0.300781 -8.0625 0.757812 -8.625 1.28125 -9.15625 C 1.8125 -9.6875 2.375 -10.160156 2.96875 -10.578125 C 3.5625 -10.992188 4.160156 -11.320312 4.765625 -11.5625 C 5.378906 -11.800781 5.972656 -11.921875 6.546875 -11.921875 C 6.921875 -11.921875 7.269531 -11.867188 7.59375 -11.765625 C 8.03125 -11.617188 8.335938 -11.425781 8.515625 -11.1875 C 8.703125 -10.945312 8.796875 -10.675781 8.796875 -10.375 C 8.796875 -10.050781 8.707031 -9.707031 8.53125 -9.34375 C 8.351562 -8.988281 8.128906 -8.640625 7.859375 -8.296875 C 7.597656 -7.953125 7.320312 -7.640625 7.03125 -7.359375 C 6.738281 -7.078125 6.472656 -6.851562 6.234375 -6.6875 C 5.835938 -6.394531 5.390625 -6.125 4.890625 -5.875 C 4.390625 -5.625 3.882812 -5.421875 3.375 -5.265625 C 2.875 -5.117188 2.421875 -5.046875 2.015625 -5.046875 C 1.722656 -5.046875 1.460938 -5.09375 1.234375 -5.1875 C 1.015625 -5.28125 0.851562 -5.4375 0.75 -5.65625 C 0.539062 -5.300781 0.367188 -4.945312 0.234375 -4.59375 C 0.109375 -4.238281 0.046875 -3.894531 0.046875 -3.5625 C 0.046875 -2.945312 0.242188 -2.515625 0.640625 -2.265625 C 1.046875 -2.015625 1.570312 -1.890625 2.21875 -1.890625 C 2.59375 -1.890625 2.972656 -1.914062 3.359375 -1.96875 C 3.753906 -2.03125 4.117188 -2.109375 4.453125 -2.203125 C 4.796875 -2.296875 5.085938 -2.382812 5.328125 -2.46875 C 6.316406 -2.8125 7.253906 -3.21875 8.140625 -3.6875 C 9.023438 -4.15625 9.894531 -4.648438 10.75 -5.171875 C 11.613281 -5.691406 12.5 -6.195312 13.40625 -6.6875 C 13.488281 -6.726562 13.554688 -6.75 13.609375 -6.75 C 13.609375 -6.738281 13.585938 -6.71875 13.546875 -6.6875 C 12.023438 -5.59375 10.597656 -4.648438 9.265625 -3.859375 C 7.941406 -3.078125 6.695312 -2.476562 5.53125 -2.0625 C 4.363281 -1.644531 3.269531 -1.4375 2.25 -1.4375 Z M 2.03125 -5.296875 C 2.332031 -5.296875 2.679688 -5.359375 3.078125 -5.484375 C 3.484375 -5.617188 3.90625 -5.796875 4.34375 -6.015625 C 4.78125 -6.242188 5.210938 -6.503906 5.640625 -6.796875 C 6.253906 -7.234375 6.734375 -7.660156 7.078125 -8.078125 C 7.421875 -8.492188 7.664062 -8.878906 7.8125 -9.234375 C 7.957031 -9.585938 8.03125 -9.875 8.03125 -10.09375 C 8.03125 -10.3125 7.976562 -10.453125 7.875 -10.515625 C 7.769531 -10.585938 7.632812 -10.625 7.46875 -10.625 C 7.207031 -10.625 6.867188 -10.539062 6.453125 -10.375 C 6.035156 -10.21875 5.582031 -9.992188 5.09375 -9.703125 C 4.601562 -9.410156 4.109375 -9.066406 3.609375 -8.671875 C 3.109375 -8.285156 2.632812 -7.863281 2.1875 -7.40625 C 1.738281 -6.957031 1.34375 -6.492188 1 -6.015625 C 1.039062 -5.765625 1.148438 -5.582031 1.328125 -5.46875 C 1.515625 -5.351562 1.75 -5.296875 2.03125 -5.296875 Z M 2.03125 -5.296875 "/></g></g></g><g fill="#2b2b2b" fill-opacity="1"><g transform="translate(95.68379, 42.322709)"><g><path d="M 7.265625 -0.765625 C 6.722656 -0.765625 6.3125 -0.890625 6.03125 -1.140625 C 5.75 -1.390625 5.609375 -1.722656 5.609375 -2.140625 C 5.609375 -2.484375 5.6875 -2.875 5.84375 -3.3125 C 6.007812 -3.757812 6.222656 -4.222656 6.484375 -4.703125 C 6.753906 -5.191406 7.050781 -5.691406 7.375 -6.203125 C 7.707031 -6.710938 8.046875 -7.207031 8.390625 -7.6875 C 7.890625 -7.1875 7.351562 -6.675781 6.78125 -6.15625 C 6.21875 -5.632812 5.640625 -5.128906 5.046875 -4.640625 C 4.460938 -4.148438 3.878906 -3.710938 3.296875 -3.328125 C 2.710938 -2.953125 2.144531 -2.648438 1.59375 -2.421875 C 1.050781 -2.203125 0.539062 -2.09375 0.0625 -2.09375 C -0.101562 -2.09375 -0.257812 -2.101562 -0.40625 -2.125 C -0.5625 -2.15625 -0.710938 -2.207031 -0.859375 -2.28125 C -1.171875 -2.425781 -1.390625 -2.613281 -1.515625 -2.84375 C -1.648438 -3.082031 -1.71875 -3.347656 -1.71875 -3.640625 C -1.71875 -3.972656 -1.644531 -4.332031 -1.5 -4.71875 C -1.351562 -5.113281 -1.15625 -5.523438 -0.90625 -5.953125 C -0.65625 -6.390625 -0.378906 -6.828125 -0.078125 -7.265625 C 0.0976562 -7.503906 0.304688 -7.78125 0.546875 -8.09375 C 0.796875 -8.414062 1.046875 -8.738281 1.296875 -9.0625 C 1.554688 -9.382812 1.78125 -9.664062 1.96875 -9.90625 C 2.144531 -10.125 2.28125 -10.3125 2.375 -10.46875 C 2.46875 -10.625 2.546875 -10.769531 2.609375 -10.90625 C 2.671875 -11.050781 2.726562 -11.203125 2.78125 -11.359375 C 2.84375 -11.398438 2.90625 -11.421875 2.96875 -11.421875 C 3.113281 -11.421875 3.25 -11.347656 3.375 -11.203125 C 3.5 -11.066406 3.601562 -10.894531 3.6875 -10.6875 C 3.78125 -10.476562 3.828125 -10.273438 3.828125 -10.078125 C 3.828125 -9.929688 3.796875 -9.800781 3.734375 -9.6875 C 3.609375 -9.351562 3.398438 -8.992188 3.109375 -8.609375 C 2.828125 -8.222656 2.503906 -7.816406 2.140625 -7.390625 C 1.773438 -6.972656 1.414062 -6.535156 1.0625 -6.078125 C 0.707031 -5.617188 0.40625 -5.148438 0.15625 -4.671875 C 0 -4.367188 -0.113281 -4.109375 -0.1875 -3.890625 C -0.257812 -3.671875 -0.296875 -3.488281 -0.296875 -3.34375 C -0.296875 -3.144531 -0.242188 -3.003906 -0.140625 -2.921875 C -0.0351562 -2.835938 0.109375 -2.796875 0.296875 -2.796875 C 0.535156 -2.796875 0.828125 -2.859375 1.171875 -2.984375 C 1.523438 -3.117188 1.898438 -3.285156 2.296875 -3.484375 C 2.703125 -3.691406 3.097656 -3.914062 3.484375 -4.15625 C 3.878906 -4.40625 4.242188 -4.660156 4.578125 -4.921875 C 5.003906 -5.242188 5.460938 -5.628906 5.953125 -6.078125 C 6.441406 -6.535156 6.9375 -7.015625 7.4375 -7.515625 C 7.9375 -8.023438 8.40625 -8.507812 8.84375 -8.96875 C 8.90625 -9.03125 9.019531 -9.144531 9.1875 -9.3125 C 9.351562 -9.488281 9.535156 -9.675781 9.734375 -9.875 C 9.929688 -10.070312 10.113281 -10.253906 10.28125 -10.421875 C 10.445312 -10.597656 10.566406 -10.71875 10.640625 -10.78125 C 10.691406 -10.832031 10.753906 -10.859375 10.828125 -10.859375 C 10.953125 -10.859375 11.078125 -10.796875 11.203125 -10.671875 C 11.335938 -10.554688 11.453125 -10.40625 11.546875 -10.21875 C 11.640625 -10.039062 11.6875 -9.847656 11.6875 -9.640625 C 11.6875 -9.410156 11.625 -9.210938 11.5 -9.046875 C 11.351562 -8.828125 11.15625 -8.5625 10.90625 -8.25 C 10.65625 -7.945312 10.382812 -7.613281 10.09375 -7.25 C 9.8125 -6.894531 9.523438 -6.53125 9.234375 -6.15625 C 8.953125 -5.789062 8.6875 -5.4375 8.4375 -5.09375 C 8.195312 -4.75 8.003906 -4.4375 7.859375 -4.15625 C 7.691406 -3.84375 7.53125 -3.507812 7.375 -3.15625 C 7.21875 -2.800781 7.140625 -2.476562 7.140625 -2.1875 C 7.140625 -1.96875 7.203125 -1.765625 7.328125 -1.578125 C 7.460938 -1.390625 7.703125 -1.296875 8.046875 -1.296875 C 8.359375 -1.296875 8.738281 -1.378906 9.1875 -1.546875 C 9.632812 -1.710938 10.125 -1.9375 10.65625 -2.21875 C 11.195312 -2.507812 11.75 -2.832031 12.3125 -3.1875 C 12.875 -3.550781 13.425781 -3.929688 13.96875 -4.328125 C 14.519531 -4.722656 15.03125 -5.113281 15.5 -5.5 C 15.96875 -5.894531 16.367188 -6.257812 16.703125 -6.59375 C 16.773438 -6.65625 16.851562 -6.6875 16.9375 -6.6875 C 17 -6.6875 17.03125 -6.664062 17.03125 -6.625 C 17.03125 -6.601562 17.015625 -6.570312 16.984375 -6.53125 C 16.703125 -6.257812 16.335938 -5.925781 15.890625 -5.53125 C 15.441406 -5.144531 14.929688 -4.734375 14.359375 -4.296875 C 13.796875 -3.867188 13.203125 -3.445312 12.578125 -3.03125 C 11.953125 -2.613281 11.320312 -2.234375 10.6875 -1.890625 C 10.0625 -1.546875 9.453125 -1.269531 8.859375 -1.0625 C 8.273438 -0.863281 7.742188 -0.765625 7.265625 -0.765625 Z M 7.265625 -0.765625 "/></g></g></g><g fill="#2b2b2b" fill-opacity="1"><g transform="translate(112.268271, 42.322709)"><g><path d="M -22.296875 15.8125 C -23.253906 15.8125 -24.140625 15.703125 -24.953125 15.484375 C -25.773438 15.273438 -26.503906 14.941406 -27.140625 14.484375 C -27.273438 14.390625 -27.429688 14.242188 -27.609375 14.046875 C -27.785156 13.859375 -27.957031 13.625 -28.125 13.34375 C -28.300781 13.070312 -28.445312 12.757812 -28.5625 12.40625 C -28.675781 12.0625 -28.734375 11.691406 -28.734375 11.296875 C -28.734375 10.910156 -28.660156 10.503906 -28.515625 10.078125 C -28.378906 9.648438 -28.140625 9.207031 -27.796875 8.75 C -27.453125 8.300781 -26.984375 7.84375 -26.390625 7.375 C -25.804688 6.90625 -25.078125 6.4375 -24.203125 5.96875 C -23.328125 5.507812 -22.28125 5.054688 -21.0625 4.609375 C -20.09375 4.242188 -19.019531 3.921875 -17.84375 3.640625 C -16.664062 3.359375 -15.410156 3.097656 -14.078125 2.859375 C -12.753906 2.617188 -11.378906 2.382812 -9.953125 2.15625 C -8.523438 1.9375 -7.070312 1.710938 -5.59375 1.484375 C -4.125 1.253906 -2.648438 1.003906 -1.171875 0.734375 C 0.296875 0.472656 1.734375 0.175781 3.140625 -0.15625 C 4.128906 -1.289062 5.015625 -2.378906 5.796875 -3.421875 C 6.585938 -4.460938 7.273438 -5.425781 7.859375 -6.3125 C 8.453125 -7.195312 8.941406 -7.960938 9.328125 -8.609375 C 8.941406 -8.234375 8.515625 -7.828125 8.046875 -7.390625 C 7.585938 -6.953125 7.101562 -6.5 6.59375 -6.03125 C 6.082031 -5.570312 5.5625 -5.132812 5.03125 -4.71875 C 4.5 -4.300781 3.972656 -3.925781 3.453125 -3.59375 C 2.929688 -3.257812 2.429688 -2.992188 1.953125 -2.796875 C 1.472656 -2.609375 1.023438 -2.515625 0.609375 -2.515625 C 0.515625 -2.515625 0.421875 -2.519531 0.328125 -2.53125 C 0.234375 -2.539062 0.140625 -2.5625 0.046875 -2.59375 C -0.835938 -2.84375 -1.28125 -3.445312 -1.28125 -4.40625 C -1.28125 -4.84375 -1.179688 -5.304688 -0.984375 -5.796875 C -0.796875 -6.285156 -0.535156 -6.78125 -0.203125 -7.28125 C 0.117188 -7.78125 0.476562 -8.257812 0.875 -8.71875 C 1.28125 -9.175781 1.695312 -9.585938 2.125 -9.953125 C 2.550781 -10.328125 2.960938 -10.628906 3.359375 -10.859375 C 3.890625 -11.160156 4.453125 -11.398438 5.046875 -11.578125 C 5.648438 -11.753906 6.21875 -11.84375 6.75 -11.84375 C 7.195312 -11.84375 7.601562 -11.773438 7.96875 -11.640625 C 8.34375 -11.503906 8.648438 -11.289062 8.890625 -11 C 9.140625 -10.71875 9.285156 -10.347656 9.328125 -9.890625 L 9.359375 -9.703125 C 9.554688 -9.910156 9.742188 -10.113281 9.921875 -10.3125 C 10.109375 -10.519531 10.269531 -10.695312 10.40625 -10.84375 C 10.476562 -10.925781 10.570312 -10.96875 10.6875 -10.96875 C 10.757812 -10.96875 10.832031 -10.945312 10.90625 -10.90625 C 11.0625 -10.78125 11.203125 -10.617188 11.328125 -10.421875 C 11.460938 -10.234375 11.539062 -10.066406 11.5625 -9.921875 C 11.5625 -9.742188 11.492188 -9.535156 11.359375 -9.296875 C 11.234375 -9.066406 11.101562 -8.828125 10.96875 -8.578125 C 10.894531 -8.453125 10.710938 -8.160156 10.421875 -7.703125 C 10.128906 -7.242188 9.738281 -6.660156 9.25 -5.953125 C 8.757812 -5.242188 8.171875 -4.4375 7.484375 -3.53125 C 6.804688 -2.632812 6.039062 -1.679688 5.1875 -0.671875 C 6.726562 -1.085938 8.179688 -1.566406 9.546875 -2.109375 C 10.910156 -2.660156 12.148438 -3.296875 13.265625 -4.015625 C 14.378906 -4.742188 15.320312 -5.578125 16.09375 -6.515625 C 16.132812 -6.566406 16.179688 -6.601562 16.234375 -6.625 C 16.285156 -6.644531 16.328125 -6.65625 16.359375 -6.65625 C 16.429688 -6.65625 16.46875 -6.632812 16.46875 -6.59375 C 16.46875 -6.5625 16.457031 -6.535156 16.4375 -6.515625 C 15.5 -5.421875 14.421875 -4.472656 13.203125 -3.671875 C 11.992188 -2.878906 10.675781 -2.195312 9.25 -1.625 C 7.820312 -1.0625 6.320312 -0.570312 4.75 -0.15625 C 3.90625 0.820312 2.984375 1.828125 1.984375 2.859375 C 0.992188 3.890625 -0.0664062 4.910156 -1.203125 5.921875 C -2.335938 6.941406 -3.53125 7.921875 -4.78125 8.859375 C -6.039062 9.804688 -7.359375 10.6875 -8.734375 11.5 C -10.117188 12.320312 -11.554688 13.046875 -13.046875 13.671875 C -14.535156 14.304688 -16.066406 14.8125 -17.640625 15.1875 C -18.472656 15.382812 -19.273438 15.535156 -20.046875 15.640625 C -20.828125 15.753906 -21.578125 15.8125 -22.296875 15.8125 Z M 1.1875 -3.125 C 1.3125 -3.125 1.453125 -3.144531 1.609375 -3.1875 C 1.773438 -3.238281 1.953125 -3.320312 2.140625 -3.4375 C 2.847656 -3.851562 3.46875 -4.273438 4 -4.703125 C 4.539062 -5.128906 5.03125 -5.554688 5.46875 -5.984375 C 5.914062 -6.410156 6.351562 -6.835938 6.78125 -7.265625 C 7.207031 -7.691406 7.660156 -8.101562 8.140625 -8.5 C 8.222656 -8.582031 8.320312 -8.675781 8.4375 -8.78125 C 8.550781 -8.882812 8.664062 -8.992188 8.78125 -9.109375 C 8.71875 -9.609375 8.550781 -10.015625 8.28125 -10.328125 C 8.007812 -10.640625 7.644531 -10.84375 7.1875 -10.9375 C 7.101562 -10.957031 7.007812 -10.96875 6.90625 -10.96875 C 6.550781 -10.96875 6.148438 -10.851562 5.703125 -10.625 C 5.253906 -10.394531 4.789062 -10.078125 4.3125 -9.671875 C 3.84375 -9.273438 3.382812 -8.828125 2.9375 -8.328125 C 2.5 -7.828125 2.097656 -7.304688 1.734375 -6.765625 C 1.378906 -6.234375 1.085938 -5.710938 0.859375 -5.203125 C 0.640625 -4.691406 0.515625 -4.226562 0.484375 -3.8125 C 0.484375 -3.625 0.535156 -3.460938 0.640625 -3.328125 C 0.753906 -3.191406 0.9375 -3.125 1.1875 -3.125 Z M -22.890625 15.21875 C -21.921875 15.21875 -20.957031 15.128906 -20 14.953125 C -19.050781 14.773438 -18.109375 14.523438 -17.171875 14.203125 C -16.242188 13.890625 -15.332031 13.53125 -14.4375 13.125 C -13.539062 12.726562 -12.660156 12.304688 -11.796875 11.859375 C -10.285156 11.078125 -8.847656 10.226562 -7.484375 9.3125 C -6.128906 8.394531 -4.847656 7.4375 -3.640625 6.4375 C -2.429688 5.445312 -1.296875 4.4375 -0.234375 3.40625 C 0.816406 2.375 1.796875 1.347656 2.703125 0.328125 C 1.171875 0.671875 -0.394531 0.96875 -2 1.21875 C -3.601562 1.476562 -5.21875 1.726562 -6.84375 1.96875 C -8.476562 2.21875 -10.097656 2.476562 -11.703125 2.75 C -13.304688 3.019531 -14.875 3.332031 -16.40625 3.6875 C -17.945312 4.050781 -19.425781 4.484375 -20.84375 4.984375 C -22.207031 5.460938 -23.367188 5.96875 -24.328125 6.5 C -25.285156 7.039062 -26.054688 7.582031 -26.640625 8.125 C -27.222656 8.675781 -27.644531 9.222656 -27.90625 9.765625 C -28.175781 10.316406 -28.3125 10.835938 -28.3125 11.328125 C -28.3125 11.859375 -28.179688 12.351562 -27.921875 12.8125 C -27.671875 13.28125 -27.316406 13.6875 -26.859375 14.03125 C -26.398438 14.382812 -25.875 14.660156 -25.28125 14.859375 C -24.695312 15.066406 -24.070312 15.1875 -23.40625 15.21875 Z M -22.890625 15.21875 "/></g></g></g><g fill="#2b2b2b" fill-opacity="1"><g transform="translate(128.238119, 42.322709)"><g><path d="M 0.09375 -1.375 C -0.53125 -1.375 -0.992188 -1.515625 -1.296875 -1.796875 C -1.609375 -2.085938 -1.765625 -2.488281 -1.765625 -3 C -1.765625 -3.363281 -1.695312 -3.757812 -1.5625 -4.1875 C -1.4375 -4.613281 -1.269531 -5.0625 -1.0625 -5.53125 C -0.851562 -6 -0.613281 -6.46875 -0.34375 -6.9375 C -0.0820312 -7.414062 0.175781 -7.875 0.4375 -8.3125 C 0.726562 -8.78125 1.003906 -9.234375 1.265625 -9.671875 C 1.523438 -10.117188 1.75 -10.492188 1.9375 -10.796875 C 2.132812 -11.109375 2.273438 -11.304688 2.359375 -11.390625 C 2.410156 -11.441406 2.476562 -11.46875 2.5625 -11.46875 C 2.6875 -11.46875 2.828125 -11.398438 2.984375 -11.265625 C 3.140625 -11.140625 3.269531 -10.976562 3.375 -10.78125 C 3.476562 -10.582031 3.53125 -10.378906 3.53125 -10.171875 C 3.53125 -9.984375 3.484375 -9.816406 3.390625 -9.671875 C 3.234375 -9.410156 3.035156 -9.109375 2.796875 -8.765625 C 2.566406 -8.421875 2.3125 -8.050781 2.03125 -7.65625 C 1.75 -7.257812 1.472656 -6.851562 1.203125 -6.4375 C 0.929688 -6.019531 0.679688 -5.601562 0.453125 -5.1875 C 0.234375 -4.78125 0.0546875 -4.382812 -0.078125 -4 C -0.210938 -3.625 -0.28125 -3.28125 -0.28125 -2.96875 C -0.28125 -2.695312 -0.195312 -2.453125 -0.03125 -2.234375 C 0.132812 -2.023438 0.414062 -1.921875 0.8125 -1.921875 C 1.15625 -1.921875 1.5625 -1.988281 2.03125 -2.125 C 2.5 -2.269531 3.003906 -2.460938 3.546875 -2.703125 C 4.085938 -2.953125 4.640625 -3.238281 5.203125 -3.5625 C 5.773438 -3.882812 6.328125 -4.222656 6.859375 -4.578125 C 7.398438 -4.929688 7.890625 -5.289062 8.328125 -5.65625 C 8.773438 -6.019531 9.148438 -6.363281 9.453125 -6.6875 C 9.515625 -6.757812 9.585938 -6.796875 9.671875 -6.796875 C 9.734375 -6.796875 9.765625 -6.769531 9.765625 -6.71875 C 9.765625 -6.6875 9.75 -6.65625 9.71875 -6.625 C 9.476562 -6.351562 9.140625 -6.035156 8.703125 -5.671875 C 8.273438 -5.304688 7.785156 -4.925781 7.234375 -4.53125 C 6.679688 -4.144531 6.09375 -3.765625 5.46875 -3.390625 C 4.84375 -3.015625 4.210938 -2.675781 3.578125 -2.375 C 2.941406 -2.070312 2.328125 -1.828125 1.734375 -1.640625 C 1.140625 -1.460938 0.59375 -1.375 0.09375 -1.375 Z M 5.34375 -12.203125 C 5.3125 -12.203125 5.269531 -12.203125 5.21875 -12.203125 C 5.175781 -12.203125 5.132812 -12.207031 5.09375 -12.21875 C 4.769531 -12.25 4.488281 -12.332031 4.25 -12.46875 C 4.019531 -12.601562 3.835938 -12.753906 3.703125 -12.921875 C 3.578125 -13.097656 3.515625 -13.257812 3.515625 -13.40625 C 3.515625 -13.582031 3.601562 -13.703125 3.78125 -13.765625 C 3.84375 -13.773438 3.898438 -13.785156 3.953125 -13.796875 C 4.015625 -13.816406 4.082031 -13.828125 4.15625 -13.828125 C 4.332031 -13.828125 4.515625 -13.789062 4.703125 -13.71875 C 4.890625 -13.65625 5.09375 -13.5625 5.3125 -13.4375 C 5.46875 -13.34375 5.609375 -13.210938 5.734375 -13.046875 C 5.859375 -12.878906 5.921875 -12.722656 5.921875 -12.578125 C 5.921875 -12.472656 5.875 -12.382812 5.78125 -12.3125 C 5.695312 -12.238281 5.550781 -12.203125 5.34375 -12.203125 Z M 5.34375 -12.203125 "/></g></g></g><g fill="#2b2b2b" fill-opacity="1"><g transform="translate(137.651813, 42.322709)"><g><path d="M -1.625 -1.984375 C -1.757812 -1.984375 -1.90625 -2.03125 -2.0625 -2.125 C -2.21875 -2.21875 -2.351562 -2.328125 -2.46875 -2.453125 C -2.59375 -2.585938 -2.65625 -2.707031 -2.65625 -2.8125 L -2.640625 -2.875 C -2.347656 -3.5625 -2.007812 -4.226562 -1.625 -4.875 C -1.238281 -5.53125 -0.828125 -6.175781 -0.390625 -6.8125 C 0.0351562 -7.445312 0.457031 -8.082031 0.875 -8.71875 C 1.300781 -9.351562 1.691406 -10 2.046875 -10.65625 C 2.398438 -11.320312 2.691406 -12.003906 2.921875 -12.703125 C 2.953125 -12.816406 3.023438 -12.875 3.140625 -12.875 C 3.253906 -12.875 3.382812 -12.828125 3.53125 -12.734375 C 3.6875 -12.640625 3.832031 -12.507812 3.96875 -12.34375 C 4.113281 -12.1875 4.234375 -12.015625 4.328125 -11.828125 C 4.421875 -11.648438 4.46875 -11.46875 4.46875 -11.28125 C 4.46875 -11.164062 4.453125 -11.070312 4.421875 -11 C 4.234375 -10.457031 4.003906 -9.929688 3.734375 -9.421875 C 3.460938 -8.910156 3.160156 -8.40625 2.828125 -7.90625 C 3.546875 -8.519531 4.300781 -9.117188 5.09375 -9.703125 C 5.894531 -10.296875 6.789062 -10.882812 7.78125 -11.46875 C 8.25 -11.738281 8.742188 -11.992188 9.265625 -12.234375 C 9.785156 -12.484375 10.296875 -12.679688 10.796875 -12.828125 C 11.296875 -12.972656 11.75 -13.046875 12.15625 -13.046875 C 12.363281 -13.046875 12.550781 -13.023438 12.71875 -12.984375 C 12.96875 -12.910156 13.160156 -12.742188 13.296875 -12.484375 C 13.429688 -12.222656 13.5 -11.957031 13.5 -11.6875 C 13.5 -11.53125 13.476562 -11.382812 13.4375 -11.25 C 13.363281 -11.050781 13.257812 -10.835938 13.125 -10.609375 C 13 -10.378906 12.816406 -10.101562 12.578125 -9.78125 C 12.335938 -9.46875 12.023438 -9.078125 11.640625 -8.609375 C 11.253906 -8.148438 10.773438 -7.582031 10.203125 -6.90625 C 9.835938 -6.476562 9.507812 -6.050781 9.21875 -5.625 C 8.925781 -5.195312 8.695312 -4.785156 8.53125 -4.390625 C 8.363281 -4.003906 8.28125 -3.65625 8.28125 -3.34375 C 8.28125 -3.019531 8.382812 -2.785156 8.59375 -2.640625 C 8.8125 -2.503906 9.109375 -2.4375 9.484375 -2.4375 C 9.867188 -2.4375 10.316406 -2.5 10.828125 -2.625 C 11.335938 -2.757812 11.875 -2.9375 12.4375 -3.15625 C 13 -3.375 13.5625 -3.617188 14.125 -3.890625 C 14.6875 -4.160156 15.21875 -4.445312 15.71875 -4.75 C 16.226562 -5.050781 16.675781 -5.347656 17.0625 -5.640625 C 17.445312 -5.929688 17.734375 -6.203125 17.921875 -6.453125 C 17.972656 -6.503906 18.035156 -6.550781 18.109375 -6.59375 C 18.191406 -6.632812 18.253906 -6.65625 18.296875 -6.65625 C 18.316406 -6.65625 18.328125 -6.644531 18.328125 -6.625 C 18.328125 -6.613281 18.3125 -6.59375 18.28125 -6.5625 C 17.59375 -5.832031 16.835938 -5.179688 16.015625 -4.609375 C 15.203125 -4.046875 14.375 -3.570312 13.53125 -3.1875 C 12.6875 -2.800781 11.867188 -2.507812 11.078125 -2.3125 C 10.296875 -2.113281 9.585938 -2.015625 8.953125 -2.015625 C 8.460938 -2.015625 8.046875 -2.070312 7.703125 -2.1875 C 7.347656 -2.3125 7.078125 -2.515625 6.890625 -2.796875 C 6.710938 -3.085938 6.625 -3.4375 6.625 -3.84375 C 6.625 -4.375 6.773438 -4.96875 7.078125 -5.625 C 7.378906 -6.289062 7.835938 -6.972656 8.453125 -7.671875 C 8.992188 -8.273438 9.484375 -8.828125 9.921875 -9.328125 C 10.367188 -9.828125 10.722656 -10.265625 10.984375 -10.640625 C 11.253906 -11.023438 11.390625 -11.34375 11.390625 -11.59375 L 11.359375 -11.734375 C 11.359375 -11.828125 11.328125 -11.90625 11.265625 -11.96875 C 11.210938 -12.039062 11.125 -12.09375 11 -12.125 L 10.796875 -12.15625 C 10.554688 -12.15625 10.253906 -12.097656 9.890625 -11.984375 C 9.535156 -11.878906 9.1875 -11.734375 8.84375 -11.546875 C 7.90625 -11.046875 7.054688 -10.53125 6.296875 -10 C 5.535156 -9.476562 4.832031 -8.925781 4.1875 -8.34375 C 3.550781 -7.769531 2.929688 -7.160156 2.328125 -6.515625 C 1.734375 -5.867188 1.128906 -5.175781 0.515625 -4.4375 C -0.0859375 -3.707031 -0.734375 -2.914062 -1.421875 -2.0625 C -1.484375 -2.007812 -1.550781 -1.984375 -1.625 -1.984375 Z M -1.625 -1.984375 "/></g></g></g><g fill="#2b2b2b" fill-opacity="1"><g transform="translate(155.584195, 42.322709)"><g><path d="M -1.625 -1.984375 C -1.757812 -1.984375 -1.90625 -2.03125 -2.0625 -2.125 C -2.21875 -2.21875 -2.351562 -2.328125 -2.46875 -2.453125 C -2.59375 -2.585938 -2.65625 -2.707031 -2.65625 -2.8125 L -2.640625 -2.875 C -2.347656 -3.5625 -2.007812 -4.226562 -1.625 -4.875 C -1.238281 -5.53125 -0.828125 -6.175781 -0.390625 -6.8125 C 0.0351562 -7.445312 0.457031 -8.082031 0.875 -8.71875 C 1.300781 -9.351562 1.691406 -10 2.046875 -10.65625 C 2.398438 -11.320312 2.691406 -12.003906 2.921875 -12.703125 C 2.953125 -12.816406 3.023438 -12.875 3.140625 -12.875 C 3.253906 -12.875 3.382812 -12.828125 3.53125 -12.734375 C 3.6875 -12.640625 3.832031 -12.507812 3.96875 -12.34375 C 4.113281 -12.1875 4.234375 -12.015625 4.328125 -11.828125 C 4.421875 -11.648438 4.46875 -11.46875 4.46875 -11.28125 C 4.46875 -11.164062 4.453125 -11.070312 4.421875 -11 C 4.234375 -10.457031 4.003906 -9.929688 3.734375 -9.421875 C 3.460938 -8.910156 3.160156 -8.40625 2.828125 -7.90625 C 3.546875 -8.519531 4.300781 -9.117188 5.09375 -9.703125 C 5.894531 -10.296875 6.789062 -10.882812 7.78125 -11.46875 C 8.25 -11.738281 8.742188 -11.992188 9.265625 -12.234375 C 9.785156 -12.484375 10.296875 -12.679688 10.796875 -12.828125 C 11.296875 -12.972656 11.75 -13.046875 12.15625 -13.046875 C 12.363281 -13.046875 12.550781 -13.023438 12.71875 -12.984375 C 12.96875 -12.910156 13.160156 -12.742188 13.296875 -12.484375 C 13.429688 -12.222656 13.5 -11.957031 13.5 -11.6875 C 13.5 -11.53125 13.476562 -11.382812 13.4375 -11.25 C 13.363281 -11.050781 13.257812 -10.835938 13.125 -10.609375 C 13 -10.378906 12.816406 -10.101562 12.578125 -9.78125 C 12.335938 -9.46875 12.023438 -9.078125 11.640625 -8.609375 C 11.253906 -8.148438 10.773438 -7.582031 10.203125 -6.90625 C 9.835938 -6.476562 9.507812 -6.050781 9.21875 -5.625 C 8.925781 -5.195312 8.695312 -4.785156 8.53125 -4.390625 C 8.363281 -4.003906 8.28125 -3.65625 8.28125 -3.34375 C 8.28125 -3.019531 8.382812 -2.785156 8.59375 -2.640625 C 8.8125 -2.503906 9.109375 -2.4375 9.484375 -2.4375 C 9.867188 -2.4375 10.316406 -2.5 10.828125 -2.625 C 11.335938 -2.757812 11.875 -2.9375 12.4375 -3.15625 C 13 -3.375 13.5625 -3.617188 14.125 -3.890625 C 14.6875 -4.160156 15.21875 -4.445312 15.71875 -4.75 C 16.226562 -5.050781 16.675781 -5.347656 17.0625 -5.640625 C 17.445312 -5.929688 17.734375 -6.203125 17.921875 -6.453125 C 17.972656 -6.503906 18.035156 -6.550781 18.109375 -6.59375 C 18.191406 -6.632812 18.253906 -6.65625 18.296875 -6.65625 C 18.316406 -6.65625 18.328125 -6.644531 18.328125 -6.625 C 18.328125 -6.613281 18.3125 -6.59375 18.28125 -6.5625 C 17.59375 -5.832031 16.835938 -5.179688 16.015625 -4.609375 C 15.203125 -4.046875 14.375 -3.570312 13.53125 -3.1875 C 12.6875 -2.800781 11.867188 -2.507812 11.078125 -2.3125 C 10.296875 -2.113281 9.585938 -2.015625 8.953125 -2.015625 C 8.460938 -2.015625 8.046875 -2.070312 7.703125 -2.1875 C 7.347656 -2.3125 7.078125 -2.515625 6.890625 -2.796875 C 6.710938 -3.085938 6.625 -3.4375 6.625 -3.84375 C 6.625 -4.375 6.773438 -4.96875 7.078125 -5.625 C 7.378906 -6.289062 7.835938 -6.972656 8.453125 -7.671875 C 8.992188 -8.273438 9.484375 -8.828125 9.921875 -9.328125 C 10.367188 -9.828125 10.722656 -10.265625 10.984375 -10.640625 C 11.253906 -11.023438 11.390625 -11.34375 11.390625 -11.59375 L 11.359375 -11.734375 C 11.359375 -11.828125 11.328125 -11.90625 11.265625 -11.96875 C 11.210938 -12.039062 11.125 -12.09375 11 -12.125 L 10.796875 -12.15625 C 10.554688 -12.15625 10.253906 -12.097656 9.890625 -11.984375 C 9.535156 -11.878906 9.1875 -11.734375 8.84375 -11.546875 C 7.90625 -11.046875 7.054688 -10.53125 6.296875 -10 C 5.535156 -9.476562 4.832031 -8.925781 4.1875 -8.34375 C 3.550781 -7.769531 2.929688 -7.160156 2.328125 -6.515625 C 1.734375 -5.867188 1.128906 -5.175781 0.515625 -4.4375 C -0.0859375 -3.707031 -0.734375 -2.914062 -1.421875 -2.0625 C -1.484375 -2.007812 -1.550781 -1.984375 -1.625 -1.984375 Z M -1.625 -1.984375 "/></g></g></g><g fill="#2b2b2b" fill-opacity="1"><g transform="translate(173.516576, 42.322709)"><g><path d="M 2.25 -1.4375 C 2.101562 -1.4375 1.960938 -1.4375 1.828125 -1.4375 C 1.703125 -1.445312 1.570312 -1.460938 1.4375 -1.484375 C 0.769531 -1.554688 0.226562 -1.710938 -0.1875 -1.953125 C -0.601562 -2.191406 -0.90625 -2.488281 -1.09375 -2.84375 C -1.289062 -3.207031 -1.390625 -3.609375 -1.390625 -4.046875 C -1.390625 -4.566406 -1.273438 -5.117188 -1.046875 -5.703125 C -0.816406 -6.296875 -0.5 -6.882812 -0.09375 -7.46875 C 0.300781 -8.0625 0.757812 -8.625 1.28125 -9.15625 C 1.8125 -9.6875 2.375 -10.160156 2.96875 -10.578125 C 3.5625 -10.992188 4.160156 -11.320312 4.765625 -11.5625 C 5.378906 -11.800781 5.972656 -11.921875 6.546875 -11.921875 C 6.921875 -11.921875 7.269531 -11.867188 7.59375 -11.765625 C 8.03125 -11.617188 8.335938 -11.425781 8.515625 -11.1875 C 8.703125 -10.945312 8.796875 -10.675781 8.796875 -10.375 C 8.796875 -10.050781 8.707031 -9.707031 8.53125 -9.34375 C 8.351562 -8.988281 8.128906 -8.640625 7.859375 -8.296875 C 7.597656 -7.953125 7.320312 -7.640625 7.03125 -7.359375 C 6.738281 -7.078125 6.472656 -6.851562 6.234375 -6.6875 C 5.835938 -6.394531 5.390625 -6.125 4.890625 -5.875 C 4.390625 -5.625 3.882812 -5.421875 3.375 -5.265625 C 2.875 -5.117188 2.421875 -5.046875 2.015625 -5.046875 C 1.722656 -5.046875 1.460938 -5.09375 1.234375 -5.1875 C 1.015625 -5.28125 0.851562 -5.4375 0.75 -5.65625 C 0.539062 -5.300781 0.367188 -4.945312 0.234375 -4.59375 C 0.109375 -4.238281 0.046875 -3.894531 0.046875 -3.5625 C 0.046875 -2.945312 0.242188 -2.515625 0.640625 -2.265625 C 1.046875 -2.015625 1.570312 -1.890625 2.21875 -1.890625 C 2.59375 -1.890625 2.972656 -1.914062 3.359375 -1.96875 C 3.753906 -2.03125 4.117188 -2.109375 4.453125 -2.203125 C 4.796875 -2.296875 5.085938 -2.382812 5.328125 -2.46875 C 6.316406 -2.8125 7.253906 -3.21875 8.140625 -3.6875 C 9.023438 -4.15625 9.894531 -4.648438 10.75 -5.171875 C 11.613281 -5.691406 12.5 -6.195312 13.40625 -6.6875 C 13.488281 -6.726562 13.554688 -6.75 13.609375 -6.75 C 13.609375 -6.738281 13.585938 -6.71875 13.546875 -6.6875 C 12.023438 -5.59375 10.597656 -4.648438 9.265625 -3.859375 C 7.941406 -3.078125 6.695312 -2.476562 5.53125 -2.0625 C 4.363281 -1.644531 3.269531 -1.4375 2.25 -1.4375 Z M 2.03125 -5.296875 C 2.332031 -5.296875 2.679688 -5.359375 3.078125 -5.484375 C 3.484375 -5.617188 3.90625 -5.796875 4.34375 -6.015625 C 4.78125 -6.242188 5.210938 -6.503906 5.640625 -6.796875 C 6.253906 -7.234375 6.734375 -7.660156 7.078125 -8.078125 C 7.421875 -8.492188 7.664062 -8.878906 7.8125 -9.234375 C 7.957031 -9.585938 8.03125 -9.875 8.03125 -10.09375 C 8.03125 -10.3125 7.976562 -10.453125 7.875 -10.515625 C 7.769531 -10.585938 7.632812 -10.625 7.46875 -10.625 C 7.207031 -10.625 6.867188 -10.539062 6.453125 -10.375 C 6.035156 -10.21875 5.582031 -9.992188 5.09375 -9.703125 C 4.601562 -9.410156 4.109375 -9.066406 3.609375 -8.671875 C 3.109375 -8.285156 2.632812 -7.863281 2.1875 -7.40625 C 1.738281 -6.957031 1.34375 -6.492188 1 -6.015625 C 1.039062 -5.765625 1.148438 -5.582031 1.328125 -5.46875 C 1.515625 -5.351562 1.75 -5.296875 2.03125 -5.296875 Z M 2.03125 -5.296875 "/></g></g></g><g fill="#2b2b2b" fill-opacity="1"><g transform="translate(186.391654, 42.322709)"><g><path d="M -1.625 -1.984375 C -1.757812 -1.984375 -1.90625 -2.03125 -2.0625 -2.125 C -2.21875 -2.21875 -2.351562 -2.328125 -2.46875 -2.453125 C -2.59375 -2.585938 -2.65625 -2.707031 -2.65625 -2.8125 L -2.640625 -2.875 C -2.347656 -3.5625 -2.007812 -4.226562 -1.625 -4.875 C -1.238281 -5.53125 -0.828125 -6.175781 -0.390625 -6.8125 C 0.0351562 -7.445312 0.457031 -8.082031 0.875 -8.71875 C 1.300781 -9.351562 1.691406 -10 2.046875 -10.65625 C 2.398438 -11.320312 2.691406 -12.003906 2.921875 -12.703125 C 2.953125 -12.816406 3.023438 -12.875 3.140625 -12.875 C 3.253906 -12.875 3.382812 -12.828125 3.53125 -12.734375 C 3.6875 -12.640625 3.832031 -12.507812 3.96875 -12.34375 C 4.113281 -12.1875 4.234375 -12.015625 4.328125 -11.828125 C 4.421875 -11.648438 4.46875 -11.46875 4.46875 -11.28125 C 4.46875 -11.164062 4.453125 -11.070312 4.421875 -11 C 4.234375 -10.457031 4.003906 -9.929688 3.734375 -9.421875 C 3.460938 -8.910156 3.160156 -8.40625 2.828125 -7.90625 C 3.546875 -8.519531 4.300781 -9.117188 5.09375 -9.703125 C 5.894531 -10.296875 6.789062 -10.882812 7.78125 -11.46875 C 8.25 -11.738281 8.742188 -11.992188 9.265625 -12.234375 C 9.785156 -12.484375 10.296875 -12.679688 10.796875 -12.828125 C 11.296875 -12.972656 11.75 -13.046875 12.15625 -13.046875 C 12.363281 -13.046875 12.550781 -13.023438 12.71875 -12.984375 C 12.96875 -12.910156 13.160156 -12.742188 13.296875 -12.484375 C 13.429688 -12.222656 13.5 -11.957031 13.5 -11.6875 C 13.5 -11.53125 13.476562 -11.382812 13.4375 -11.25 C 13.363281 -11.050781 13.257812 -10.835938 13.125 -10.609375 C 13 -10.378906 12.816406 -10.101562 12.578125 -9.78125 C 12.335938 -9.46875 12.023438 -9.078125 11.640625 -8.609375 C 11.253906 -8.148438 10.773438 -7.582031 10.203125 -6.90625 C 9.835938 -6.476562 9.507812 -6.050781 9.21875 -5.625 C 8.925781 -5.195312 8.695312 -4.785156 8.53125 -4.390625 C 8.363281 -4.003906 8.28125 -3.65625 8.28125 -3.34375 C 8.28125 -3.019531 8.382812 -2.785156 8.59375 -2.640625 C 8.8125 -2.503906 9.109375 -2.4375 9.484375 -2.4375 C 9.867188 -2.4375 10.316406 -2.5 10.828125 -2.625 C 11.335938 -2.757812 11.875 -2.9375 12.4375 -3.15625 C 13 -3.375 13.5625 -3.617188 14.125 -3.890625 C 14.6875 -4.160156 15.21875 -4.445312 15.71875 -4.75 C 16.226562 -5.050781 16.675781 -5.347656 17.0625 -5.640625 C 17.445312 -5.929688 17.734375 -6.203125 17.921875 -6.453125 C 17.972656 -6.503906 18.035156 -6.550781 18.109375 -6.59375 C 18.191406 -6.632812 18.253906 -6.65625 18.296875 -6.65625 C 18.316406 -6.65625 18.328125 -6.644531 18.328125 -6.625 C 18.328125 -6.613281 18.3125 -6.59375 18.28125 -6.5625 C 17.59375 -5.832031 16.835938 -5.179688 16.015625 -4.609375 C 15.203125 -4.046875 14.375 -3.570312 13.53125 -3.1875 C 12.6875 -2.800781 11.867188 -2.507812 11.078125 -2.3125 C 10.296875 -2.113281 9.585938 -2.015625 8.953125 -2.015625 C 8.460938 -2.015625 8.046875 -2.070312 7.703125 -2.1875 C 7.347656 -2.3125 7.078125 -2.515625 6.890625 -2.796875 C 6.710938 -3.085938 6.625 -3.4375 6.625 -3.84375 C 6.625 -4.375 6.773438 -4.96875 7.078125 -5.625 C 7.378906 -6.289062 7.835938 -6.972656 8.453125 -7.671875 C 8.992188 -8.273438 9.484375 -8.828125 9.921875 -9.328125 C 10.367188 -9.828125 10.722656 -10.265625 10.984375 -10.640625 C 11.253906 -11.023438 11.390625 -11.34375 11.390625 -11.59375 L 11.359375 -11.734375 C 11.359375 -11.828125 11.328125 -11.90625 11.265625 -11.96875 C 11.210938 -12.039062 11.125 -12.09375 11 -12.125 L 10.796875 -12.15625 C 10.554688 -12.15625 10.253906 -12.097656 9.890625 -11.984375 C 9.535156 -11.878906 9.1875 -11.734375 8.84375 -11.546875 C 7.90625 -11.046875 7.054688 -10.53125 6.296875 -10 C 5.535156 -9.476562 4.832031 -8.925781 4.1875 -8.34375 C 3.550781 -7.769531 2.929688 -7.160156 2.328125 -6.515625 C 1.734375 -5.867188 1.128906 -5.175781 0.515625 -4.4375 C -0.0859375 -3.707031 -0.734375 -2.914062 -1.421875 -2.0625 C -1.484375 -2.007812 -1.550781 -1.984375 -1.625 -1.984375 Z M -1.625 -1.984375 "/></g></g></g></g></g></svg>