<svg xmlns="http://www.w3.org/2000/svg" xmlns:xlink="http://www.w3.org/1999/xlink" width="650" zoomAndPan="magnify" viewBox="0 0 487.5 43.499998" height="58" preserveAspectRatio="xMidYMid meet" version="1.0"><defs><g/><clipPath id="c57423e90a"><path d="M 2.523438 19 L 44.785156 19 L 44.785156 42.265625 L 2.523438 42.265625 Z M 2.523438 19 " clip-rule="nonzero"/></clipPath></defs><g clip-path="url(#c57423e90a)"><path fill="#000000" d="M 35.542969 23.113281 L 18.195312 23.113281 C 17.359375 21.917969 15.976562 21.132812 14.410156 21.132812 C 11.859375 21.132812 9.785156 23.207031 9.785156 25.753906 C 9.785156 28.304688 11.859375 30.378906 14.410156 30.378906 C 15.703125 30.378906 16.871094 29.84375 17.710938 28.984375 L 17.710938 31.699219 L 8.464844 31.699219 L 8.464844 23.773438 C 8.464844 21.589844 6.6875 19.8125 4.503906 19.8125 L 3.183594 19.8125 C 2.820312 19.8125 2.523438 20.105469 2.523438 20.472656 L 2.523438 41.605469 C 2.523438 41.96875 2.820312 42.265625 3.183594 42.265625 L 44.125 42.265625 C 44.492188 42.265625 44.785156 41.96875 44.785156 41.605469 L 44.785156 32.359375 C 44.785156 27.261719 40.640625 23.113281 35.542969 23.113281 Z M 19.03125 24.433594 L 35.542969 24.433594 C 39.6875 24.433594 43.09375 27.636719 43.433594 31.699219 L 19.03125 31.699219 Z M 14.410156 29.054688 C 12.589844 29.054688 11.109375 27.574219 11.109375 25.753906 C 11.109375 23.933594 12.589844 22.453125 14.410156 22.453125 C 16.230469 22.453125 17.710938 23.933594 17.710938 25.753906 C 17.710938 27.574219 16.230469 29.054688 14.410156 29.054688 Z M 43.464844 35.660156 L 17.050781 35.660156 C 16.6875 35.660156 16.390625 35.957031 16.390625 36.320312 C 16.390625 36.6875 16.6875 36.980469 17.050781 36.980469 L 43.464844 36.980469 L 43.464844 40.945312 L 3.84375 40.945312 L 3.84375 36.980469 L 11.769531 36.980469 C 12.132812 36.980469 12.429688 36.6875 12.429688 36.320312 C 12.429688 35.957031 12.132812 35.660156 11.769531 35.660156 L 3.84375 35.660156 L 3.84375 21.132812 L 4.503906 21.132812 C 5.960938 21.132812 7.144531 22.316406 7.144531 23.773438 L 7.144531 32.359375 C 7.144531 32.722656 7.441406 33.019531 7.804688 33.019531 L 43.464844 33.019531 Z M 43.464844 35.660156 " fill-opacity="1" fill-rule="nonzero"/></g><path fill="#000000" d="M 24.914062 13.753906 C 24.382812 13.441406 23.90625 13.039062 23.5 12.554688 C 23.308594 12.320312 22.980469 12.25 22.707031 12.382812 C 22.433594 12.515625 22.285156 12.816406 22.347656 13.113281 C 22.878906 15.65625 24.460938 17.871094 26.695312 19.1875 C 28.160156 20.046875 29.773438 20.457031 31.363281 20.457031 C 34.535156 20.457031 37.628906 18.828125 39.351562 15.90625 C 40.605469 13.78125 40.953125 11.292969 40.335938 8.902344 C 39.714844 6.511719 38.203125 4.503906 36.074219 3.253906 C 33.839844 1.941406 31.132812 1.628906 28.65625 2.398438 C 28.367188 2.492188 28.175781 2.765625 28.191406 3.070312 C 28.210938 3.371094 28.429688 3.625 28.730469 3.679688 C 29.347656 3.796875 29.929688 4.015625 30.464844 4.328125 C 31.722656 5.066406 32.621094 6.253906 32.984375 7.667969 C 33.351562 9.082031 33.144531 10.554688 32.402344 11.816406 C 30.871094 14.414062 27.507812 15.285156 24.914062 13.753906 Z M 31.324219 3.304688 C 32.722656 3.304688 34.183594 3.671875 35.40625 4.394531 C 37.230469 5.464844 38.527344 7.183594 39.058594 9.234375 C 39.585938 11.28125 39.289062 13.414062 38.214844 15.238281 C 35.996094 19 31.128906 20.257812 27.363281 18.046875 C 26.117188 17.3125 25.109375 16.253906 24.429688 15 C 27.625 16.75 31.671875 15.648438 33.542969 12.484375 C 34.460938 10.921875 34.71875 9.09375 34.265625 7.339844 C 33.828125 5.65625 32.789062 4.230469 31.324219 3.304688 Z M 31.324219 3.304688 " fill-opacity="1" fill-rule="nonzero"/><path fill="#000000" d="M 14.75 6.519531 L 17.53125 8.066406 L 19.089844 11.5 C 19.199219 11.734375 19.433594 11.886719 19.691406 11.886719 C 19.953125 11.886719 20.1875 11.734375 20.292969 11.5 L 21.855469 8.066406 L 24.636719 6.519531 C 24.84375 6.40625 24.976562 6.183594 24.976562 5.945312 C 24.976562 5.703125 24.84375 5.480469 24.636719 5.367188 L 21.855469 3.820312 L 20.292969 0.386719 C 20.1875 0.152344 19.953125 0 19.691406 0 C 19.433594 0 19.199219 0.152344 19.089844 0.386719 L 17.53125 3.820312 L 14.75 5.367188 C 14.539062 5.480469 14.410156 5.703125 14.410156 5.945312 C 14.410156 6.183594 14.539062 6.40625 14.75 6.519531 Z M 18.363281 4.871094 C 18.484375 4.800781 18.585938 4.695312 18.644531 4.566406 L 19.691406 2.257812 L 20.742188 4.566406 C 20.800781 4.695312 20.898438 4.800781 21.023438 4.871094 L 22.957031 5.945312 L 21.023438 7.015625 C 20.898438 7.085938 20.800781 7.191406 20.742188 7.320312 L 19.691406 9.628906 L 18.644531 7.320312 C 18.585938 7.191406 18.484375 7.085938 18.363281 7.015625 L 16.429688 5.945312 Z M 18.363281 4.871094 " fill-opacity="1" fill-rule="nonzero"/><path fill="#000000" d="M 8.171875 14.457031 L 10.585938 15.667969 L 11.816406 18.734375 C 11.914062 18.988281 12.160156 19.152344 12.429688 19.152344 C 12.699219 19.152344 12.941406 18.988281 13.042969 18.734375 L 14.269531 15.667969 L 16.6875 14.457031 C 16.910156 14.347656 17.050781 14.117188 17.050781 13.867188 C 17.050781 13.617188 16.910156 13.390625 16.6875 13.277344 L 14.269531 12.070312 L 13.042969 9 C 12.941406 8.75 12.699219 8.585938 12.429688 8.585938 C 12.160156 8.585938 11.914062 8.75 11.816406 9 L 10.585938 12.070312 L 8.171875 13.277344 C 7.945312 13.390625 7.804688 13.617188 7.804688 13.867188 C 7.804688 14.117188 7.945312 14.347656 8.171875 14.457031 Z M 11.402344 13.136719 C 11.546875 13.066406 11.660156 12.941406 11.722656 12.792969 L 12.429688 11.023438 L 13.136719 12.792969 C 13.195312 12.941406 13.308594 13.066406 13.453125 13.136719 L 14.914062 13.867188 L 13.453125 14.597656 C 13.308594 14.671875 13.195312 14.792969 13.136719 14.945312 L 12.429688 16.710938 L 11.722656 14.945312 C 11.660156 14.792969 11.546875 14.671875 11.402344 14.597656 L 9.941406 13.867188 Z M 11.402344 13.136719 " fill-opacity="1" fill-rule="nonzero"/><path fill="#000000" d="M 15.070312 36.320312 C 15.070312 36.503906 15.003906 36.660156 14.875 36.789062 C 14.746094 36.917969 14.59375 36.980469 14.410156 36.980469 C 14.226562 36.980469 14.070312 36.917969 13.941406 36.789062 C 13.8125 36.660156 13.75 36.503906 13.75 36.320312 C 13.75 36.136719 13.8125 35.984375 13.941406 35.855469 C 14.070312 35.726562 14.226562 35.660156 14.410156 35.660156 C 14.59375 35.660156 14.746094 35.726562 14.875 35.855469 C 15.003906 35.984375 15.070312 36.136719 15.070312 36.320312 Z M 15.070312 36.320312 " fill-opacity="1" fill-rule="nonzero"/><g fill="#2b2b2b" fill-opacity="1"><g transform="translate(68.960602, 26.111523)"><g><path d="M 4.5 0 L 1.4375 -10.046875 C 1.34375 -10.359375 1.21875 -10.570312 1.0625 -10.6875 C 0.90625 -10.8125 0.664062 -10.875 0.34375 -10.875 L 0.140625 -10.875 L 0.140625 -11.015625 L 4.390625 -11.015625 L 4.390625 -10.875 L 4.03125 -10.875 C 3.707031 -10.875 3.472656 -10.828125 3.328125 -10.734375 C 3.179688 -10.640625 3.109375 -10.476562 3.109375 -10.25 C 3.109375 -10.082031 3.144531 -9.851562 3.21875 -9.5625 L 4.875 -4.125 C 5.019531 -3.65625 5.144531 -3.179688 5.25 -2.703125 C 5.363281 -2.222656 5.472656 -1.734375 5.578125 -1.234375 C 5.640625 -1.535156 5.722656 -1.898438 5.828125 -2.328125 C 5.929688 -2.753906 6.046875 -3.210938 6.171875 -3.703125 L 8.015625 -10.921875 L 8.65625 -10.921875 L 10.921875 -4.234375 C 11.128906 -3.585938 11.3125 -2.984375 11.46875 -2.421875 C 11.632812 -1.859375 11.757812 -1.398438 11.84375 -1.046875 C 11.894531 -1.273438 11.941406 -1.460938 11.984375 -1.609375 C 12.023438 -1.753906 12.066406 -1.910156 12.109375 -2.078125 C 12.148438 -2.253906 12.210938 -2.503906 12.296875 -2.828125 L 14.015625 -9.3125 C 14.109375 -9.644531 14.15625 -9.914062 14.15625 -10.125 C 14.15625 -10.40625 14.066406 -10.597656 13.890625 -10.703125 C 13.722656 -10.816406 13.460938 -10.875 13.109375 -10.875 L 12.75 -10.875 L 12.75 -11.015625 L 15.75 -11.015625 L 15.75 -10.875 L 15.453125 -10.875 C 15.128906 -10.875 14.882812 -10.785156 14.71875 -10.609375 C 14.550781 -10.429688 14.40625 -10.113281 14.28125 -9.65625 L 11.71875 0 L 10.796875 0 L 7.734375 -9.21875 L 5.453125 0 Z M 4.5 0 "/></g></g></g><g fill="#2b2b2b" fill-opacity="1"><g transform="translate(85.105698, 26.111523)"><g><path d="M 4.5 0.15625 C 3.351562 0.15625 2.457031 -0.210938 1.8125 -0.953125 C 1.164062 -1.691406 0.84375 -2.734375 0.84375 -4.078125 C 0.84375 -5.515625 1.140625 -6.597656 1.734375 -7.328125 C 2.328125 -8.054688 3.175781 -8.421875 4.28125 -8.421875 C 5.28125 -8.421875 6.0625 -8.113281 6.625 -7.5 C 7.195312 -6.882812 7.484375 -5.960938 7.484375 -4.734375 L 7.484375 -4.375 L 2.34375 -4.375 C 2.351562 -2.789062 2.523438 -1.664062 2.859375 -1 C 3.191406 -0.332031 3.753906 0 4.546875 0 C 5.128906 0 5.617188 -0.15625 6.015625 -0.46875 C 6.410156 -0.789062 6.664062 -1.269531 6.78125 -1.90625 C 6.90625 -1.882812 6.992188 -1.820312 7.046875 -1.71875 C 7.109375 -1.613281 7.140625 -1.503906 7.140625 -1.390625 C 7.140625 -1.179688 7.039062 -0.957031 6.84375 -0.71875 C 6.65625 -0.476562 6.367188 -0.269531 5.984375 -0.09375 C 5.597656 0.0703125 5.101562 0.15625 4.5 0.15625 Z M 2.34375 -4.515625 L 5.921875 -4.515625 C 5.921875 -5.867188 5.789062 -6.832031 5.53125 -7.40625 C 5.28125 -7.988281 4.851562 -8.28125 4.25 -8.28125 C 3.613281 -8.28125 3.148438 -7.988281 2.859375 -7.40625 C 2.566406 -6.832031 2.394531 -5.867188 2.34375 -4.515625 Z M 2.34375 -4.515625 "/></g></g></g><g fill="#2b2b2b" fill-opacity="1"><g transform="translate(93.355582, 26.111523)"><g><path d="M 0.203125 0 L 0.203125 -0.15625 L 0.40625 -0.15625 C 0.851562 -0.15625 1.175781 -0.242188 1.375 -0.421875 C 1.570312 -0.609375 1.671875 -0.914062 1.671875 -1.34375 L 1.671875 -10.375 C 1.671875 -10.800781 1.570312 -11.109375 1.375 -11.296875 C 1.175781 -11.484375 0.851562 -11.578125 0.40625 -11.578125 L 0.203125 -11.578125 L 0.203125 -11.734375 L 3.125 -11.734375 L 3.125 -1.421875 C 3.125 -0.960938 3.21875 -0.632812 3.40625 -0.4375 C 3.601562 -0.25 3.929688 -0.15625 4.390625 -0.15625 L 4.578125 -0.15625 L 4.578125 0 Z M 0.203125 0 "/></g></g></g><g fill="#2b2b2b" fill-opacity="1"><g transform="translate(98.13589, 26.111523)"><g><path d="M 4.40625 0.15625 C 3.695312 0.15625 3.078125 0.015625 2.546875 -0.265625 C 2.015625 -0.546875 1.597656 -1.003906 1.296875 -1.640625 C 0.992188 -2.273438 0.84375 -3.117188 0.84375 -4.171875 C 0.84375 -5.234375 0.992188 -6.070312 1.296875 -6.6875 C 1.609375 -7.3125 2.019531 -7.753906 2.53125 -8.015625 C 3.039062 -8.285156 3.625 -8.421875 4.28125 -8.421875 C 4.707031 -8.421875 5.128906 -8.363281 5.546875 -8.25 C 5.960938 -8.144531 6.304688 -7.972656 6.578125 -7.734375 C 6.847656 -7.492188 6.984375 -7.191406 6.984375 -6.828125 C 6.984375 -6.484375 6.863281 -6.238281 6.625 -6.09375 C 6.382812 -5.945312 6.046875 -5.875 5.609375 -5.875 C 5.609375 -6.6875 5.515625 -7.289062 5.328125 -7.6875 C 5.148438 -8.082031 4.789062 -8.28125 4.25 -8.28125 C 3.863281 -8.28125 3.53125 -8.160156 3.25 -7.921875 C 2.96875 -7.691406 2.742188 -7.28125 2.578125 -6.6875 C 2.421875 -6.09375 2.34375 -5.25 2.34375 -4.15625 C 2.34375 -3.132812 2.421875 -2.316406 2.578125 -1.703125 C 2.734375 -1.097656 2.976562 -0.660156 3.3125 -0.390625 C 3.65625 -0.128906 4.09375 0 4.625 0 C 5.144531 0 5.582031 -0.132812 5.9375 -0.40625 C 6.289062 -0.675781 6.554688 -1.1875 6.734375 -1.9375 C 6.953125 -1.882812 7.0625 -1.71875 7.0625 -1.4375 C 7.0625 -1.1875 6.960938 -0.941406 6.765625 -0.703125 C 6.566406 -0.460938 6.269531 -0.257812 5.875 -0.09375 C 5.476562 0.0703125 4.988281 0.15625 4.40625 0.15625 Z M 4.40625 0.15625 "/></g></g></g><g fill="#2b2b2b" fill-opacity="1"><g transform="translate(105.722692, 26.111523)"><g><path d="M 0.28125 0 L 0.28125 -0.15625 L 0.40625 -0.15625 C 0.875 -0.15625 1.203125 -0.253906 1.390625 -0.453125 C 1.578125 -0.660156 1.671875 -1.035156 1.671875 -1.578125 L 1.671875 -10.1875 C 1.671875 -10.707031 1.582031 -11.066406 1.40625 -11.265625 C 1.226562 -11.472656 0.90625 -11.578125 0.4375 -11.578125 L 0.359375 -11.578125 L 0.359375 -11.734375 L 3.125 -11.734375 L 3.125 -8.609375 C 3.125 -8.316406 3.125 -8.019531 3.125 -7.71875 C 3.125 -7.414062 3.117188 -7.117188 3.109375 -6.828125 L 3.140625 -6.828125 C 3.265625 -7.296875 3.457031 -7.644531 3.71875 -7.875 C 3.988281 -8.113281 4.273438 -8.265625 4.578125 -8.328125 C 4.878906 -8.390625 5.160156 -8.421875 5.421875 -8.421875 C 6.335938 -8.421875 7.019531 -8.179688 7.46875 -7.703125 C 7.914062 -7.234375 8.140625 -6.46875 8.140625 -5.40625 L 8.140625 -1.578125 C 8.140625 -1.035156 8.21875 -0.660156 8.375 -0.453125 C 8.539062 -0.253906 8.847656 -0.15625 9.296875 -0.15625 L 9.375 -0.15625 L 9.375 0 L 6.6875 0 L 6.6875 -5.921875 C 6.6875 -6.597656 6.554688 -7.144531 6.296875 -7.5625 C 6.046875 -7.988281 5.625 -8.203125 5.03125 -8.203125 C 4.550781 -8.203125 4.171875 -8.070312 3.890625 -7.8125 C 3.609375 -7.550781 3.410156 -7.21875 3.296875 -6.8125 C 3.179688 -6.40625 3.125 -5.984375 3.125 -5.546875 L 3.125 -1.578125 C 3.125 -1.035156 3.207031 -0.660156 3.375 -0.453125 C 3.550781 -0.253906 3.878906 -0.15625 4.359375 -0.15625 L 4.4375 -0.15625 L 4.4375 0 Z M 0.28125 0 "/></g></g></g><g fill="#2b2b2b" fill-opacity="1"><g transform="translate(115.514602, 26.111523)"><g><path d="M 4.5 0.15625 C 3.351562 0.15625 2.457031 -0.210938 1.8125 -0.953125 C 1.164062 -1.691406 0.84375 -2.734375 0.84375 -4.078125 C 0.84375 -5.515625 1.140625 -6.597656 1.734375 -7.328125 C 2.328125 -8.054688 3.175781 -8.421875 4.28125 -8.421875 C 5.28125 -8.421875 6.0625 -8.113281 6.625 -7.5 C 7.195312 -6.882812 7.484375 -5.960938 7.484375 -4.734375 L 7.484375 -4.375 L 2.34375 -4.375 C 2.351562 -2.789062 2.523438 -1.664062 2.859375 -1 C 3.191406 -0.332031 3.753906 0 4.546875 0 C 5.128906 0 5.617188 -0.15625 6.015625 -0.46875 C 6.410156 -0.789062 6.664062 -1.269531 6.78125 -1.90625 C 6.90625 -1.882812 6.992188 -1.820312 7.046875 -1.71875 C 7.109375 -1.613281 7.140625 -1.503906 7.140625 -1.390625 C 7.140625 -1.179688 7.039062 -0.957031 6.84375 -0.71875 C 6.65625 -0.476562 6.367188 -0.269531 5.984375 -0.09375 C 5.597656 0.0703125 5.101562 0.15625 4.5 0.15625 Z M 2.34375 -4.515625 L 5.921875 -4.515625 C 5.921875 -5.867188 5.789062 -6.832031 5.53125 -7.40625 C 5.28125 -7.988281 4.851562 -8.28125 4.25 -8.28125 C 3.613281 -8.28125 3.148438 -7.988281 2.859375 -7.40625 C 2.566406 -6.832031 2.394531 -5.867188 2.34375 -4.515625 Z M 2.34375 -4.515625 "/></g></g></g><g fill="#2b2b2b" fill-opacity="1"><g transform="translate(123.764486, 26.111523)"><g/></g></g><g fill="#2b2b2b" fill-opacity="1"><g transform="translate(127.234062, 26.111523)"><g><path d="M 5.59375 0.15625 C 4.375 0.15625 3.421875 -0.109375 2.734375 -0.640625 C 2.046875 -1.179688 1.703125 -2.078125 1.703125 -3.328125 L 1.703125 -9.8125 C 1.703125 -10.519531 1.28125 -10.875 0.4375 -10.875 L 0.234375 -10.875 L 0.234375 -11.015625 L 4.71875 -11.015625 L 4.71875 -10.875 L 4.515625 -10.875 C 3.671875 -10.875 3.25 -10.503906 3.25 -9.765625 L 3.25 -3.234375 C 3.25 -2.410156 3.359375 -1.769531 3.578125 -1.3125 C 3.804688 -0.851562 4.113281 -0.53125 4.5 -0.34375 C 4.894531 -0.164062 5.335938 -0.078125 5.828125 -0.078125 C 6.878906 -0.078125 7.707031 -0.351562 8.3125 -0.90625 C 8.914062 -1.457031 9.21875 -2.21875 9.21875 -3.1875 L 9.21875 -9.8125 C 9.21875 -10.519531 8.796875 -10.875 7.953125 -10.875 L 7.75 -10.875 L 7.75 -11.015625 L 10.84375 -11.015625 L 10.84375 -10.875 L 10.640625 -10.875 C 9.796875 -10.875 9.375 -10.5 9.375 -9.75 L 9.375 -3.15625 C 9.375 -2.125 9.046875 -1.3125 8.390625 -0.71875 C 7.742188 -0.132812 6.8125 0.15625 5.59375 0.15625 Z M 7.3125 -12.296875 C 7.125 -12.296875 6.960938 -12.359375 6.828125 -12.484375 C 6.703125 -12.617188 6.640625 -12.847656 6.640625 -13.171875 C 6.640625 -13.492188 6.703125 -13.71875 6.828125 -13.84375 C 6.960938 -13.96875 7.125 -14.03125 7.3125 -14.03125 C 7.5 -14.03125 7.660156 -13.96875 7.796875 -13.84375 C 7.929688 -13.71875 8 -13.492188 8 -13.171875 C 8 -12.847656 7.929688 -12.617188 7.796875 -12.484375 C 7.660156 -12.359375 7.5 -12.296875 7.3125 -12.296875 Z M 4.390625 -12.296875 C 4.191406 -12.296875 4.023438 -12.359375 3.890625 -12.484375 C 3.765625 -12.617188 3.703125 -12.847656 3.703125 -13.171875 C 3.703125 -13.492188 3.765625 -13.71875 3.890625 -13.84375 C 4.023438 -13.96875 4.191406 -14.03125 4.390625 -14.03125 C 4.566406 -14.03125 4.722656 -13.96875 4.859375 -13.84375 C 4.992188 -13.71875 5.0625 -13.492188 5.0625 -13.171875 C 5.0625 -12.847656 4.992188 -12.617188 4.859375 -12.484375 C 4.722656 -12.359375 4.566406 -12.296875 4.390625 -12.296875 Z M 4.390625 -12.296875 "/></g></g></g><g fill="#2b2b2b" fill-opacity="1"><g transform="translate(138.290441, 26.111523)"><g><path d="M 5.53125 0.15625 C 4.851562 0.15625 4.316406 -0.03125 3.921875 -0.40625 C 3.523438 -0.789062 3.265625 -1.378906 3.140625 -2.171875 L 3.109375 -2.171875 L 3.109375 0 L 0.28125 0 L 0.28125 -0.15625 L 0.40625 -0.15625 C 0.851562 -0.15625 1.175781 -0.242188 1.375 -0.421875 C 1.570312 -0.609375 1.671875 -0.914062 1.671875 -1.34375 L 1.671875 -10.375 C 1.671875 -10.800781 1.570312 -11.109375 1.375 -11.296875 C 1.175781 -11.484375 0.851562 -11.578125 0.40625 -11.578125 L 0.359375 -11.578125 L 0.359375 -11.734375 L 3.125 -11.734375 L 3.125 -8.890625 C 3.125 -8.617188 3.125 -8.226562 3.125 -7.71875 C 3.125 -7.21875 3.113281 -6.6875 3.09375 -6.125 L 3.125 -6.125 C 3.257812 -6.90625 3.519531 -7.484375 3.90625 -7.859375 C 4.300781 -8.234375 4.851562 -8.421875 5.5625 -8.421875 C 7.601562 -8.421875 8.625 -7 8.625 -4.15625 C 8.625 -2.738281 8.359375 -1.664062 7.828125 -0.9375 C 7.304688 -0.207031 6.539062 0.15625 5.53125 0.15625 Z M 5.265625 -0.078125 C 5.929688 -0.078125 6.40625 -0.390625 6.6875 -1.015625 C 6.976562 -1.640625 7.125 -2.691406 7.125 -4.171875 C 7.125 -5.617188 6.976562 -6.648438 6.6875 -7.265625 C 6.40625 -7.890625 5.925781 -8.203125 5.25 -8.203125 C 4.5 -8.203125 3.957031 -7.859375 3.625 -7.171875 C 3.289062 -6.492188 3.125 -5.488281 3.125 -4.15625 C 3.125 -2.769531 3.296875 -1.742188 3.640625 -1.078125 C 3.992188 -0.410156 4.535156 -0.078125 5.265625 -0.078125 Z M 5.265625 -0.078125 "/></g></g></g><g fill="#2b2b2b" fill-opacity="1"><g transform="translate(147.758531, 26.111523)"><g><path d="M 4.5 0.15625 C 3.351562 0.15625 2.457031 -0.210938 1.8125 -0.953125 C 1.164062 -1.691406 0.84375 -2.734375 0.84375 -4.078125 C 0.84375 -5.515625 1.140625 -6.597656 1.734375 -7.328125 C 2.328125 -8.054688 3.175781 -8.421875 4.28125 -8.421875 C 5.28125 -8.421875 6.0625 -8.113281 6.625 -7.5 C 7.195312 -6.882812 7.484375 -5.960938 7.484375 -4.734375 L 7.484375 -4.375 L 2.34375 -4.375 C 2.351562 -2.789062 2.523438 -1.664062 2.859375 -1 C 3.191406 -0.332031 3.753906 0 4.546875 0 C 5.128906 0 5.617188 -0.15625 6.015625 -0.46875 C 6.410156 -0.789062 6.664062 -1.269531 6.78125 -1.90625 C 6.90625 -1.882812 6.992188 -1.820312 7.046875 -1.71875 C 7.109375 -1.613281 7.140625 -1.503906 7.140625 -1.390625 C 7.140625 -1.179688 7.039062 -0.957031 6.84375 -0.71875 C 6.65625 -0.476562 6.367188 -0.269531 5.984375 -0.09375 C 5.597656 0.0703125 5.101562 0.15625 4.5 0.15625 Z M 2.34375 -4.515625 L 5.921875 -4.515625 C 5.921875 -5.867188 5.789062 -6.832031 5.53125 -7.40625 C 5.28125 -7.988281 4.851562 -8.28125 4.25 -8.28125 C 3.613281 -8.28125 3.148438 -7.988281 2.859375 -7.40625 C 2.566406 -6.832031 2.394531 -5.867188 2.34375 -4.515625 Z M 2.34375 -4.515625 "/></g></g></g><g fill="#2b2b2b" fill-opacity="1"><g transform="translate(156.008415, 26.111523)"><g><path d="M 0.359375 0 L 0.359375 -0.15625 L 0.5625 -0.15625 C 1.007812 -0.15625 1.332031 -0.242188 1.53125 -0.421875 C 1.726562 -0.609375 1.828125 -0.914062 1.828125 -1.34375 L 1.828125 -6.921875 C 1.828125 -7.347656 1.726562 -7.65625 1.53125 -7.84375 C 1.332031 -8.03125 1.007812 -8.125 0.5625 -8.125 L 0.515625 -8.125 L 0.515625 -8.28125 L 3.25 -8.28125 L 3.25 -6.734375 L 3.28125 -6.734375 C 3.351562 -6.992188 3.460938 -7.253906 3.609375 -7.515625 C 3.753906 -7.773438 3.96875 -7.988281 4.25 -8.15625 C 4.539062 -8.332031 4.941406 -8.421875 5.453125 -8.421875 C 5.953125 -8.421875 6.34375 -8.320312 6.625 -8.125 C 6.90625 -7.925781 7.046875 -7.644531 7.046875 -7.28125 C 7.046875 -6.976562 6.929688 -6.722656 6.703125 -6.515625 C 6.484375 -6.304688 6.117188 -6.203125 5.609375 -6.203125 C 5.609375 -6.835938 5.5 -7.273438 5.28125 -7.515625 C 5.0625 -7.765625 4.816406 -7.890625 4.546875 -7.890625 C 4.253906 -7.890625 4.019531 -7.78125 3.84375 -7.5625 C 3.664062 -7.351562 3.535156 -7.082031 3.453125 -6.75 C 3.367188 -6.414062 3.316406 -6.070312 3.296875 -5.71875 C 3.273438 -5.363281 3.265625 -5.035156 3.265625 -4.734375 L 3.265625 -1.421875 C 3.265625 -0.960938 3.363281 -0.632812 3.5625 -0.4375 C 3.757812 -0.25 4.082031 -0.15625 4.53125 -0.15625 L 4.734375 -0.15625 L 4.734375 0 Z M 0.359375 0 "/></g></g></g><g fill="#2b2b2b" fill-opacity="1"><g transform="translate(163.271398, 26.111523)"><g><path d="M 0.4375 0 L 0.4375 -0.15625 L 0.5625 -0.15625 C 1.03125 -0.15625 1.359375 -0.253906 1.546875 -0.453125 C 1.734375 -0.660156 1.828125 -1.035156 1.828125 -1.578125 L 1.828125 -6.734375 C 1.828125 -7.253906 1.738281 -7.613281 1.5625 -7.8125 C 1.382812 -8.019531 1.0625 -8.125 0.59375 -8.125 L 0.515625 -8.125 L 0.515625 -8.28125 L 3.25 -8.28125 L 3.25 -6.828125 L 3.28125 -6.828125 C 3.414062 -7.296875 3.613281 -7.644531 3.875 -7.875 C 4.144531 -8.113281 4.429688 -8.265625 4.734375 -8.328125 C 5.035156 -8.390625 5.316406 -8.421875 5.578125 -8.421875 C 6.492188 -8.421875 7.175781 -8.179688 7.625 -7.703125 C 8.070312 -7.234375 8.296875 -6.46875 8.296875 -5.40625 L 8.296875 -1.578125 C 8.296875 -1.035156 8.375 -0.660156 8.53125 -0.453125 C 8.695312 -0.253906 9.003906 -0.15625 9.453125 -0.15625 L 9.53125 -0.15625 L 9.53125 0 L 6.84375 0 L 6.84375 -5.921875 C 6.84375 -6.597656 6.710938 -7.144531 6.453125 -7.5625 C 6.203125 -7.988281 5.78125 -8.203125 5.1875 -8.203125 C 4.707031 -8.203125 4.328125 -8.070312 4.046875 -7.8125 C 3.765625 -7.550781 3.5625 -7.21875 3.4375 -6.8125 C 3.320312 -6.40625 3.265625 -5.984375 3.265625 -5.546875 L 3.265625 -1.578125 C 3.265625 -1.035156 3.351562 -0.660156 3.53125 -0.453125 C 3.707031 -0.253906 4.03125 -0.15625 4.5 -0.15625 L 4.578125 -0.15625 L 4.578125 0 Z M 0.4375 0 "/></g></g></g><g fill="#2b2b2b" fill-opacity="1"><g transform="translate(173.217518, 26.111523)"><g><path d="M 3.3125 0.15625 C 2.519531 0.15625 1.894531 -0.046875 1.4375 -0.453125 C 0.988281 -0.859375 0.765625 -1.414062 0.765625 -2.125 C 0.765625 -2.914062 1.054688 -3.507812 1.640625 -3.90625 C 2.222656 -4.300781 3.109375 -4.515625 4.296875 -4.546875 L 5.578125 -4.59375 L 5.578125 -5.765625 C 5.578125 -6.335938 5.546875 -6.804688 5.484375 -7.171875 C 5.421875 -7.546875 5.285156 -7.820312 5.078125 -8 C 4.867188 -8.1875 4.554688 -8.28125 4.140625 -8.28125 C 3.535156 -8.28125 3.148438 -8.09375 2.984375 -7.71875 C 2.816406 -7.34375 2.734375 -6.757812 2.734375 -5.96875 C 2.296875 -5.96875 1.96875 -6.039062 1.75 -6.1875 C 1.53125 -6.332031 1.421875 -6.570312 1.421875 -6.90625 C 1.421875 -7.269531 1.546875 -7.5625 1.796875 -7.78125 C 2.046875 -8.007812 2.378906 -8.171875 2.796875 -8.265625 C 3.210938 -8.367188 3.679688 -8.421875 4.203125 -8.421875 C 5.148438 -8.421875 5.859375 -8.21875 6.328125 -7.8125 C 6.796875 -7.414062 7.03125 -6.734375 7.03125 -5.765625 L 7.03125 -1.140625 C 7.03125 -0.773438 7.097656 -0.519531 7.234375 -0.375 C 7.378906 -0.226562 7.628906 -0.15625 7.984375 -0.15625 L 8.03125 -0.15625 L 8.03125 0 L 5.703125 0 L 5.703125 -1.625 L 5.671875 -1.625 C 5.503906 -1 5.210938 -0.546875 4.796875 -0.265625 C 4.378906 0.015625 3.882812 0.15625 3.3125 0.15625 Z M 3.625 -0.0625 C 4.007812 -0.0625 4.347656 -0.15625 4.640625 -0.34375 C 4.929688 -0.539062 5.160156 -0.804688 5.328125 -1.140625 C 5.492188 -1.472656 5.578125 -1.828125 5.578125 -2.203125 L 5.578125 -4.4375 L 4.578125 -4.390625 C 3.703125 -4.347656 3.097656 -4.144531 2.765625 -3.78125 C 2.429688 -3.414062 2.265625 -2.804688 2.265625 -1.953125 C 2.265625 -0.691406 2.71875 -0.0625 3.625 -0.0625 Z M 3.625 -0.0625 "/></g></g></g><g fill="#2b2b2b" fill-opacity="1"><g transform="translate(181.899169, 26.111523)"><g><path d="M 4.40625 0.15625 C 3.695312 0.15625 3.078125 0.015625 2.546875 -0.265625 C 2.015625 -0.546875 1.597656 -1.003906 1.296875 -1.640625 C 0.992188 -2.273438 0.84375 -3.117188 0.84375 -4.171875 C 0.84375 -5.234375 0.992188 -6.070312 1.296875 -6.6875 C 1.609375 -7.3125 2.019531 -7.753906 2.53125 -8.015625 C 3.039062 -8.285156 3.625 -8.421875 4.28125 -8.421875 C 4.707031 -8.421875 5.128906 -8.363281 5.546875 -8.25 C 5.960938 -8.144531 6.304688 -7.972656 6.578125 -7.734375 C 6.847656 -7.492188 6.984375 -7.191406 6.984375 -6.828125 C 6.984375 -6.484375 6.863281 -6.238281 6.625 -6.09375 C 6.382812 -5.945312 6.046875 -5.875 5.609375 -5.875 C 5.609375 -6.6875 5.515625 -7.289062 5.328125 -7.6875 C 5.148438 -8.082031 4.789062 -8.28125 4.25 -8.28125 C 3.863281 -8.28125 3.53125 -8.160156 3.25 -7.921875 C 2.96875 -7.691406 2.742188 -7.28125 2.578125 -6.6875 C 2.421875 -6.09375 2.34375 -5.25 2.34375 -4.15625 C 2.34375 -3.132812 2.421875 -2.316406 2.578125 -1.703125 C 2.734375 -1.097656 2.976562 -0.660156 3.3125 -0.390625 C 3.65625 -0.128906 4.09375 0 4.625 0 C 5.144531 0 5.582031 -0.132812 5.9375 -0.40625 C 6.289062 -0.675781 6.554688 -1.1875 6.734375 -1.9375 C 6.953125 -1.882812 7.0625 -1.71875 7.0625 -1.4375 C 7.0625 -1.1875 6.960938 -0.941406 6.765625 -0.703125 C 6.566406 -0.460938 6.269531 -0.257812 5.875 -0.09375 C 5.476562 0.0703125 4.988281 0.15625 4.40625 0.15625 Z M 4.40625 0.15625 "/></g></g></g><g fill="#2b2b2b" fill-opacity="1"><g transform="translate(189.485971, 26.111523)"><g><path d="M 0.28125 0 L 0.28125 -0.15625 L 0.40625 -0.15625 C 0.875 -0.15625 1.203125 -0.253906 1.390625 -0.453125 C 1.578125 -0.660156 1.671875 -1.035156 1.671875 -1.578125 L 1.671875 -10.1875 C 1.671875 -10.707031 1.582031 -11.066406 1.40625 -11.265625 C 1.226562 -11.472656 0.90625 -11.578125 0.4375 -11.578125 L 0.359375 -11.578125 L 0.359375 -11.734375 L 3.125 -11.734375 L 3.125 -8.609375 C 3.125 -8.316406 3.125 -8.019531 3.125 -7.71875 C 3.125 -7.414062 3.117188 -7.117188 3.109375 -6.828125 L 3.140625 -6.828125 C 3.265625 -7.296875 3.457031 -7.644531 3.71875 -7.875 C 3.988281 -8.113281 4.273438 -8.265625 4.578125 -8.328125 C 4.878906 -8.390625 5.160156 -8.421875 5.421875 -8.421875 C 6.335938 -8.421875 7.019531 -8.179688 7.46875 -7.703125 C 7.914062 -7.234375 8.140625 -6.46875 8.140625 -5.40625 L 8.140625 -1.578125 C 8.140625 -1.035156 8.21875 -0.660156 8.375 -0.453125 C 8.539062 -0.253906 8.847656 -0.15625 9.296875 -0.15625 L 9.375 -0.15625 L 9.375 0 L 6.6875 0 L 6.6875 -5.921875 C 6.6875 -6.597656 6.554688 -7.144531 6.296875 -7.5625 C 6.046875 -7.988281 5.625 -8.203125 5.03125 -8.203125 C 4.550781 -8.203125 4.171875 -8.070312 3.890625 -7.8125 C 3.609375 -7.550781 3.410156 -7.21875 3.296875 -6.8125 C 3.179688 -6.40625 3.125 -5.984375 3.125 -5.546875 L 3.125 -1.578125 C 3.125 -1.035156 3.207031 -0.660156 3.375 -0.453125 C 3.550781 -0.253906 3.878906 -0.15625 4.359375 -0.15625 L 4.4375 -0.15625 L 4.4375 0 Z M 0.28125 0 "/></g></g></g><g fill="#2b2b2b" fill-opacity="1"><g transform="translate(199.277881, 26.111523)"><g><path d="M 3.703125 0.15625 C 2.921875 0.15625 2.351562 -0.0195312 2 -0.375 C 1.644531 -0.726562 1.46875 -1.347656 1.46875 -2.234375 L 1.46875 -8.125 L 0.296875 -8.125 L 0.296875 -8.28125 C 1.023438 -8.28125 1.578125 -8.414062 1.953125 -8.6875 C 2.359375 -8.96875 2.628906 -9.460938 2.765625 -10.171875 L 2.921875 -10.171875 L 2.921875 -8.28125 L 5.078125 -8.28125 L 5.078125 -8.125 L 2.921875 -8.125 L 2.921875 -1.671875 C 2.921875 -0.597656 3.328125 -0.0625 4.140625 -0.0625 C 4.398438 -0.0625 4.710938 -0.125 5.078125 -0.25 L 5.078125 -0.09375 C 4.941406 -0.03125 4.738281 0.0234375 4.46875 0.078125 C 4.207031 0.128906 3.953125 0.15625 3.703125 0.15625 Z M 3.703125 0.15625 "/></g></g></g><g fill="#2b2b2b" fill-opacity="1"><g transform="translate(204.705839, 26.111523)"><g><path d="M 4.375 0.15625 C 3.457031 0.15625 2.773438 -0.0820312 2.328125 -0.5625 C 1.890625 -1.039062 1.671875 -1.8125 1.671875 -2.875 L 1.671875 -6.734375 C 1.671875 -7.253906 1.578125 -7.613281 1.390625 -7.8125 C 1.203125 -8.019531 0.875 -8.125 0.40625 -8.125 L 0.359375 -8.125 L 0.359375 -8.28125 L 3.125 -8.28125 L 3.125 -2.796875 C 3.125 -1.816406 3.226562 -1.113281 3.4375 -0.6875 C 3.65625 -0.269531 4.046875 -0.0625 4.609375 -0.0625 C 5.304688 -0.0625 5.828125 -0.332031 6.171875 -0.875 C 6.515625 -1.414062 6.6875 -2.1875 6.6875 -3.1875 L 6.6875 -6.734375 C 6.6875 -7.253906 6.59375 -7.613281 6.40625 -7.8125 C 6.226562 -8.019531 5.898438 -8.125 5.421875 -8.125 L 5.375 -8.125 L 5.375 -8.28125 L 8.140625 -8.28125 L 8.140625 -1.53125 C 8.140625 -1 8.226562 -0.632812 8.40625 -0.4375 C 8.582031 -0.25 8.914062 -0.15625 9.40625 -0.15625 L 9.453125 -0.15625 L 9.453125 0 L 6.796875 0 L 6.796875 -2.109375 L 6.765625 -2.109375 C 6.679688 -1.585938 6.546875 -1.175781 6.359375 -0.875 C 6.179688 -0.570312 5.976562 -0.347656 5.75 -0.203125 C 5.519531 -0.0546875 5.28125 0.0351562 5.03125 0.078125 C 4.789062 0.128906 4.570312 0.15625 4.375 0.15625 Z M 4.375 0.15625 "/></g></g></g><g fill="#2b2b2b" fill-opacity="1"><g transform="translate(214.497748, 26.111523)"><g><path d="M 0.4375 0 L 0.4375 -0.15625 L 0.5625 -0.15625 C 1.03125 -0.15625 1.359375 -0.253906 1.546875 -0.453125 C 1.734375 -0.660156 1.828125 -1.035156 1.828125 -1.578125 L 1.828125 -6.734375 C 1.828125 -7.253906 1.738281 -7.613281 1.5625 -7.8125 C 1.382812 -8.019531 1.0625 -8.125 0.59375 -8.125 L 0.515625 -8.125 L 0.515625 -8.28125 L 3.25 -8.28125 L 3.25 -6.828125 L 3.28125 -6.828125 C 3.414062 -7.296875 3.613281 -7.644531 3.875 -7.875 C 4.144531 -8.113281 4.429688 -8.265625 4.734375 -8.328125 C 5.035156 -8.390625 5.316406 -8.421875 5.578125 -8.421875 C 6.492188 -8.421875 7.175781 -8.179688 7.625 -7.703125 C 8.070312 -7.234375 8.296875 -6.46875 8.296875 -5.40625 L 8.296875 -1.578125 C 8.296875 -1.035156 8.375 -0.660156 8.53125 -0.453125 C 8.695312 -0.253906 9.003906 -0.15625 9.453125 -0.15625 L 9.53125 -0.15625 L 9.53125 0 L 6.84375 0 L 6.84375 -5.921875 C 6.84375 -6.597656 6.710938 -7.144531 6.453125 -7.5625 C 6.203125 -7.988281 5.78125 -8.203125 5.1875 -8.203125 C 4.707031 -8.203125 4.328125 -8.070312 4.046875 -7.8125 C 3.765625 -7.550781 3.5625 -7.21875 3.4375 -6.8125 C 3.320312 -6.40625 3.265625 -5.984375 3.265625 -5.546875 L 3.265625 -1.578125 C 3.265625 -1.035156 3.351562 -0.660156 3.53125 -0.453125 C 3.707031 -0.253906 4.03125 -0.15625 4.5 -0.15625 L 4.578125 -0.15625 L 4.578125 0 Z M 0.4375 0 "/></g></g></g><g fill="#2b2b2b" fill-opacity="1"><g transform="translate(224.443868, 26.111523)"><g><path d="M 3.5625 3.703125 C 2.488281 3.703125 1.6875 3.507812 1.15625 3.125 C 0.625 2.738281 0.359375 2.226562 0.359375 1.59375 C 0.359375 1.050781 0.546875 0.617188 0.921875 0.296875 C 1.296875 -0.0234375 1.867188 -0.191406 2.640625 -0.203125 C 2.234375 -0.328125 1.929688 -0.523438 1.734375 -0.796875 C 1.535156 -1.078125 1.4375 -1.375 1.4375 -1.6875 C 1.4375 -1.976562 1.535156 -2.257812 1.734375 -2.53125 C 1.929688 -2.8125 2.242188 -3.023438 2.671875 -3.171875 C 2.179688 -3.335938 1.785156 -3.625 1.484375 -4.03125 C 1.191406 -4.4375 1.046875 -4.953125 1.046875 -5.578125 C 1.046875 -6.460938 1.285156 -7.15625 1.765625 -7.65625 C 2.253906 -8.164062 2.984375 -8.421875 3.953125 -8.421875 C 4.304688 -8.421875 4.628906 -8.378906 4.921875 -8.296875 C 5.210938 -8.210938 5.472656 -8.085938 5.703125 -7.921875 C 5.847656 -8.085938 6.050781 -8.265625 6.3125 -8.453125 C 6.570312 -8.648438 6.875 -8.75 7.21875 -8.75 C 7.519531 -8.75 7.742188 -8.671875 7.890625 -8.515625 C 8.046875 -8.359375 8.125 -8.164062 8.125 -7.9375 C 8.125 -7.726562 8.054688 -7.554688 7.921875 -7.421875 C 7.796875 -7.285156 7.585938 -7.21875 7.296875 -7.21875 C 7.296875 -7.863281 7.070312 -8.1875 6.625 -8.1875 C 6.488281 -8.1875 6.363281 -8.160156 6.25 -8.109375 C 6.132812 -8.054688 5.988281 -7.960938 5.8125 -7.828125 C 6.113281 -7.578125 6.34375 -7.257812 6.5 -6.875 C 6.65625 -6.5 6.734375 -6.082031 6.734375 -5.625 C 6.734375 -4.863281 6.503906 -4.226562 6.046875 -3.71875 C 5.585938 -3.21875 4.890625 -2.96875 3.953125 -2.96875 C 3.554688 -2.96875 3.195312 -3.015625 2.875 -3.109375 C 2.625 -3.003906 2.453125 -2.878906 2.359375 -2.734375 C 2.265625 -2.585938 2.21875 -2.425781 2.21875 -2.25 C 2.21875 -1.738281 2.597656 -1.484375 3.359375 -1.484375 L 5.109375 -1.484375 C 6.023438 -1.484375 6.675781 -1.265625 7.0625 -0.828125 C 7.457031 -0.398438 7.65625 0.144531 7.65625 0.8125 C 7.65625 1.695312 7.320312 2.398438 6.65625 2.921875 C 6 3.441406 4.96875 3.703125 3.5625 3.703125 Z M 3.90625 -3.125 C 4.40625 -3.125 4.757812 -3.320312 4.96875 -3.71875 C 5.175781 -4.113281 5.28125 -4.75 5.28125 -5.625 C 5.28125 -6.53125 5.171875 -7.195312 4.953125 -7.625 C 4.742188 -8.0625 4.390625 -8.28125 3.890625 -8.28125 C 3.398438 -8.28125 3.046875 -8.054688 2.828125 -7.609375 C 2.609375 -7.160156 2.5 -6.492188 2.5 -5.609375 C 2.5 -4.753906 2.609375 -4.125 2.828125 -3.71875 C 3.054688 -3.320312 3.414062 -3.125 3.90625 -3.125 Z M 3.6875 3.546875 C 4.664062 3.546875 5.382812 3.367188 5.84375 3.015625 C 6.3125 2.671875 6.546875 2.148438 6.546875 1.453125 C 6.546875 0.410156 5.96875 -0.109375 4.8125 -0.109375 L 3.15625 -0.109375 C 2.863281 -0.109375 2.59375 -0.0546875 2.34375 0.046875 C 2.09375 0.148438 1.890625 0.328125 1.734375 0.578125 C 1.578125 0.835938 1.5 1.195312 1.5 1.65625 C 1.5 2.28125 1.691406 2.75 2.078125 3.0625 C 2.460938 3.382812 3 3.546875 3.6875 3.546875 Z M 3.6875 3.546875 "/></g></g></g><g fill="#2b2b2b" fill-opacity="1"><g transform="translate(232.740004, 26.111523)"><g><path d="M 3.296875 0.15625 C 2.523438 0.15625 1.894531 0.0195312 1.40625 -0.25 C 0.925781 -0.53125 0.6875 -0.941406 0.6875 -1.484375 C 0.6875 -1.765625 0.738281 -1.976562 0.84375 -2.125 C 0.957031 -2.28125 1.09375 -2.390625 1.25 -2.453125 C 1.40625 -2.515625 1.546875 -2.546875 1.671875 -2.546875 C 1.671875 -1.710938 1.789062 -1.078125 2.03125 -0.640625 C 2.269531 -0.210938 2.703125 0 3.328125 0 C 3.878906 0 4.3125 -0.140625 4.625 -0.421875 C 4.945312 -0.703125 5.109375 -1.125 5.109375 -1.6875 C 5.109375 -2.039062 5.046875 -2.320312 4.921875 -2.53125 C 4.796875 -2.75 4.59375 -2.9375 4.3125 -3.09375 C 4.03125 -3.257812 3.640625 -3.453125 3.140625 -3.671875 C 2.546875 -3.929688 2.078125 -4.179688 1.734375 -4.421875 C 1.398438 -4.660156 1.160156 -4.925781 1.015625 -5.21875 C 0.867188 -5.507812 0.796875 -5.847656 0.796875 -6.234375 C 0.796875 -6.929688 1.039062 -7.46875 1.53125 -7.84375 C 2.03125 -8.21875 2.71875 -8.40625 3.59375 -8.40625 C 4.332031 -8.40625 4.910156 -8.265625 5.328125 -7.984375 C 5.742188 -7.703125 5.953125 -7.375 5.953125 -7 C 5.953125 -6.71875 5.851562 -6.488281 5.65625 -6.3125 C 5.46875 -6.144531 5.195312 -6.0625 4.84375 -6.0625 C 4.84375 -6.851562 4.734375 -7.414062 4.515625 -7.75 C 4.304688 -8.09375 3.972656 -8.265625 3.515625 -8.265625 C 2.460938 -8.265625 1.9375 -7.769531 1.9375 -6.78125 C 1.9375 -6.414062 2.007812 -6.125 2.15625 -5.90625 C 2.300781 -5.695312 2.519531 -5.515625 2.8125 -5.359375 C 3.113281 -5.203125 3.5 -5.023438 3.96875 -4.828125 C 4.550781 -4.597656 5.007812 -4.359375 5.34375 -4.109375 C 5.6875 -3.867188 5.925781 -3.601562 6.0625 -3.3125 C 6.207031 -3.019531 6.28125 -2.671875 6.28125 -2.265625 C 6.28125 -1.460938 6.007812 -0.859375 5.46875 -0.453125 C 4.925781 -0.046875 4.203125 0.15625 3.296875 0.15625 Z M 3.296875 0.15625 "/></g></g></g><g fill="#2b2b2b" fill-opacity="1"><g transform="translate(239.694578, 26.111523)"><g><path d="M 0.4375 0 L 0.4375 -0.15625 L 0.5625 -0.15625 C 1.007812 -0.15625 1.332031 -0.242188 1.53125 -0.421875 C 1.726562 -0.609375 1.828125 -0.914062 1.828125 -1.34375 L 1.828125 -6.921875 C 1.828125 -7.347656 1.726562 -7.65625 1.53125 -7.84375 C 1.332031 -8.03125 1.007812 -8.125 0.5625 -8.125 L 0.515625 -8.125 L 0.515625 -8.28125 L 3.25 -8.28125 L 3.25 -6.8125 L 3.28125 -6.8125 C 3.425781 -7.257812 3.617188 -7.597656 3.859375 -7.828125 C 4.109375 -8.066406 4.378906 -8.222656 4.671875 -8.296875 C 4.972656 -8.378906 5.28125 -8.421875 5.59375 -8.421875 C 6.132812 -8.421875 6.625 -8.285156 7.0625 -8.015625 C 7.5 -7.753906 7.820312 -7.265625 8.03125 -6.546875 L 8.0625 -6.546875 C 8.1875 -7.097656 8.367188 -7.507812 8.609375 -7.78125 C 8.859375 -8.050781 9.128906 -8.222656 9.421875 -8.296875 C 9.722656 -8.378906 10.019531 -8.421875 10.3125 -8.421875 C 12.050781 -8.421875 12.921875 -7.398438 12.921875 -5.359375 L 12.921875 -1.421875 C 12.921875 -0.960938 13.019531 -0.632812 13.21875 -0.4375 C 13.414062 -0.25 13.738281 -0.15625 14.1875 -0.15625 L 14.234375 -0.15625 L 14.234375 0 L 11.46875 0 L 11.46875 -5.671875 C 11.46875 -6.523438 11.347656 -7.144531 11.109375 -7.53125 C 10.878906 -7.925781 10.5 -8.125 9.96875 -8.125 C 9.375 -8.125 8.921875 -7.898438 8.609375 -7.453125 C 8.296875 -7.015625 8.140625 -6.382812 8.140625 -5.5625 L 8.140625 -1.421875 C 8.140625 -0.960938 8.234375 -0.632812 8.421875 -0.4375 C 8.617188 -0.25 8.945312 -0.15625 9.40625 -0.15625 L 9.453125 -0.15625 L 9.453125 0 L 6.6875 0 L 6.6875 -5.671875 C 6.6875 -6.523438 6.5625 -7.144531 6.3125 -7.53125 C 6.070312 -7.925781 5.679688 -8.125 5.140625 -8.125 C 3.890625 -8.125 3.265625 -7.195312 3.265625 -5.34375 L 3.265625 -1.421875 C 3.265625 -0.960938 3.363281 -0.632812 3.5625 -0.4375 C 3.757812 -0.25 4.082031 -0.15625 4.53125 -0.15625 L 4.578125 -0.15625 L 4.578125 0 Z M 0.4375 0 "/></g></g></g><g fill="#2b2b2b" fill-opacity="1"><g transform="translate(254.266795, 26.111523)"><g><path d="M 4.4375 0.15625 C 3.320312 0.15625 2.441406 -0.195312 1.796875 -0.90625 C 1.160156 -1.613281 0.84375 -2.695312 0.84375 -4.15625 C 0.84375 -5.59375 1.148438 -6.660156 1.765625 -7.359375 C 2.378906 -8.066406 3.285156 -8.421875 4.484375 -8.421875 C 5.585938 -8.421875 6.457031 -8.066406 7.09375 -7.359375 C 7.738281 -6.660156 8.0625 -5.59375 8.0625 -4.15625 C 8.0625 -2.695312 7.75 -1.613281 7.125 -0.90625 C 6.507812 -0.195312 5.613281 0.15625 4.4375 0.15625 Z M 4.46875 0 C 5.21875 0 5.753906 -0.316406 6.078125 -0.953125 C 6.398438 -1.597656 6.5625 -2.664062 6.5625 -4.15625 C 6.5625 -5.632812 6.398438 -6.691406 6.078125 -7.328125 C 5.753906 -7.960938 5.210938 -8.28125 4.453125 -8.28125 C 3.679688 -8.28125 3.132812 -7.960938 2.8125 -7.328125 C 2.5 -6.691406 2.34375 -5.632812 2.34375 -4.15625 C 2.34375 -2.664062 2.503906 -1.597656 2.828125 -0.953125 C 3.148438 -0.316406 3.695312 0 4.46875 0 Z M 5.84375 -9.75 C 5.65625 -9.75 5.492188 -9.8125 5.359375 -9.9375 C 5.234375 -10.070312 5.171875 -10.300781 5.171875 -10.625 C 5.171875 -10.945312 5.234375 -11.171875 5.359375 -11.296875 C 5.492188 -11.421875 5.65625 -11.484375 5.84375 -11.484375 C 6.03125 -11.484375 6.191406 -11.421875 6.328125 -11.296875 C 6.460938 -11.171875 6.53125 -10.945312 6.53125 -10.625 C 6.53125 -10.300781 6.460938 -10.070312 6.328125 -9.9375 C 6.191406 -9.8125 6.03125 -9.75 5.84375 -9.75 Z M 2.921875 -9.75 C 2.722656 -9.75 2.554688 -9.8125 2.421875 -9.9375 C 2.296875 -10.070312 2.234375 -10.300781 2.234375 -10.625 C 2.234375 -10.945312 2.296875 -11.171875 2.421875 -11.296875 C 2.554688 -11.421875 2.722656 -11.484375 2.921875 -11.484375 C 3.097656 -11.484375 3.253906 -11.421875 3.390625 -11.296875 C 3.523438 -11.171875 3.59375 -10.945312 3.59375 -10.625 C 3.59375 -10.300781 3.523438 -10.070312 3.390625 -9.9375 C 3.253906 -9.8125 3.097656 -9.75 2.921875 -9.75 Z M 2.921875 -9.75 "/></g></g></g><g fill="#2b2b2b" fill-opacity="1"><g transform="translate(263.164318, 26.111523)"><g><path d="M 3.5625 3.703125 C 2.488281 3.703125 1.6875 3.507812 1.15625 3.125 C 0.625 2.738281 0.359375 2.226562 0.359375 1.59375 C 0.359375 1.050781 0.546875 0.617188 0.921875 0.296875 C 1.296875 -0.0234375 1.867188 -0.191406 2.640625 -0.203125 C 2.234375 -0.328125 1.929688 -0.523438 1.734375 -0.796875 C 1.535156 -1.078125 1.4375 -1.375 1.4375 -1.6875 C 1.4375 -1.976562 1.535156 -2.257812 1.734375 -2.53125 C 1.929688 -2.8125 2.242188 -3.023438 2.671875 -3.171875 C 2.179688 -3.335938 1.785156 -3.625 1.484375 -4.03125 C 1.191406 -4.4375 1.046875 -4.953125 1.046875 -5.578125 C 1.046875 -6.460938 1.285156 -7.15625 1.765625 -7.65625 C 2.253906 -8.164062 2.984375 -8.421875 3.953125 -8.421875 C 4.304688 -8.421875 4.628906 -8.378906 4.921875 -8.296875 C 5.210938 -8.210938 5.472656 -8.085938 5.703125 -7.921875 C 5.847656 -8.085938 6.050781 -8.265625 6.3125 -8.453125 C 6.570312 -8.648438 6.875 -8.75 7.21875 -8.75 C 7.519531 -8.75 7.742188 -8.671875 7.890625 -8.515625 C 8.046875 -8.359375 8.125 -8.164062 8.125 -7.9375 C 8.125 -7.726562 8.054688 -7.554688 7.921875 -7.421875 C 7.796875 -7.285156 7.585938 -7.21875 7.296875 -7.21875 C 7.296875 -7.863281 7.070312 -8.1875 6.625 -8.1875 C 6.488281 -8.1875 6.363281 -8.160156 6.25 -8.109375 C 6.132812 -8.054688 5.988281 -7.960938 5.8125 -7.828125 C 6.113281 -7.578125 6.34375 -7.257812 6.5 -6.875 C 6.65625 -6.5 6.734375 -6.082031 6.734375 -5.625 C 6.734375 -4.863281 6.503906 -4.226562 6.046875 -3.71875 C 5.585938 -3.21875 4.890625 -2.96875 3.953125 -2.96875 C 3.554688 -2.96875 3.195312 -3.015625 2.875 -3.109375 C 2.625 -3.003906 2.453125 -2.878906 2.359375 -2.734375 C 2.265625 -2.585938 2.21875 -2.425781 2.21875 -2.25 C 2.21875 -1.738281 2.597656 -1.484375 3.359375 -1.484375 L 5.109375 -1.484375 C 6.023438 -1.484375 6.675781 -1.265625 7.0625 -0.828125 C 7.457031 -0.398438 7.65625 0.144531 7.65625 0.8125 C 7.65625 1.695312 7.320312 2.398438 6.65625 2.921875 C 6 3.441406 4.96875 3.703125 3.5625 3.703125 Z M 3.90625 -3.125 C 4.40625 -3.125 4.757812 -3.320312 4.96875 -3.71875 C 5.175781 -4.113281 5.28125 -4.75 5.28125 -5.625 C 5.28125 -6.53125 5.171875 -7.195312 4.953125 -7.625 C 4.742188 -8.0625 4.390625 -8.28125 3.890625 -8.28125 C 3.398438 -8.28125 3.046875 -8.054688 2.828125 -7.609375 C 2.609375 -7.160156 2.5 -6.492188 2.5 -5.609375 C 2.5 -4.753906 2.609375 -4.125 2.828125 -3.71875 C 3.054688 -3.320312 3.414062 -3.125 3.90625 -3.125 Z M 3.6875 3.546875 C 4.664062 3.546875 5.382812 3.367188 5.84375 3.015625 C 6.3125 2.671875 6.546875 2.148438 6.546875 1.453125 C 6.546875 0.410156 5.96875 -0.109375 4.8125 -0.109375 L 3.15625 -0.109375 C 2.863281 -0.109375 2.59375 -0.0546875 2.34375 0.046875 C 2.09375 0.148438 1.890625 0.328125 1.734375 0.578125 C 1.578125 0.835938 1.5 1.195312 1.5 1.65625 C 1.5 2.28125 1.691406 2.75 2.078125 3.0625 C 2.460938 3.382812 3 3.546875 3.6875 3.546875 Z M 3.6875 3.546875 "/></g></g></g><g fill="#2b2b2b" fill-opacity="1"><g transform="translate(271.460454, 26.111523)"><g><path d="M 0.203125 0 L 0.203125 -0.15625 L 0.40625 -0.15625 C 0.851562 -0.15625 1.175781 -0.242188 1.375 -0.421875 C 1.570312 -0.609375 1.671875 -0.914062 1.671875 -1.34375 L 1.671875 -10.375 C 1.671875 -10.800781 1.570312 -11.109375 1.375 -11.296875 C 1.175781 -11.484375 0.851562 -11.578125 0.40625 -11.578125 L 0.203125 -11.578125 L 0.203125 -11.734375 L 3.125 -11.734375 L 3.125 -1.421875 C 3.125 -0.960938 3.21875 -0.632812 3.40625 -0.4375 C 3.601562 -0.25 3.929688 -0.15625 4.390625 -0.15625 L 4.578125 -0.15625 L 4.578125 0 Z M 0.203125 0 "/></g></g></g><g fill="#2b2b2b" fill-opacity="1"><g transform="translate(276.240774, 26.111523)"><g><path d="M 2.46875 -9.75 C 2.269531 -9.75 2.109375 -9.8125 1.984375 -9.9375 C 1.859375 -10.070312 1.796875 -10.300781 1.796875 -10.625 C 1.796875 -10.945312 1.859375 -11.171875 1.984375 -11.296875 C 2.109375 -11.421875 2.269531 -11.484375 2.46875 -11.484375 C 2.65625 -11.484375 2.816406 -11.421875 2.953125 -11.296875 C 3.085938 -11.171875 3.15625 -10.945312 3.15625 -10.625 C 3.15625 -10.300781 3.085938 -10.070312 2.953125 -9.9375 C 2.816406 -9.8125 2.65625 -9.75 2.46875 -9.75 Z M 0.359375 0 L 0.359375 -0.15625 L 0.5625 -0.15625 C 1.007812 -0.15625 1.332031 -0.242188 1.53125 -0.421875 C 1.726562 -0.609375 1.828125 -0.914062 1.828125 -1.34375 L 1.828125 -6.921875 C 1.828125 -7.347656 1.726562 -7.65625 1.53125 -7.84375 C 1.332031 -8.03125 1.007812 -8.125 0.5625 -8.125 L 0.515625 -8.125 L 0.515625 -8.28125 L 3.265625 -8.28125 L 3.265625 -1.421875 C 3.265625 -0.960938 3.363281 -0.632812 3.5625 -0.4375 C 3.757812 -0.25 4.082031 -0.15625 4.53125 -0.15625 L 4.734375 -0.15625 L 4.734375 0 Z M 0.359375 0 "/></g></g></g><g fill="#2b2b2b" fill-opacity="1"><g transform="translate(281.175281, 26.111523)"><g><path d="M 4.40625 0.15625 C 3.695312 0.15625 3.078125 0.015625 2.546875 -0.265625 C 2.015625 -0.546875 1.597656 -1.003906 1.296875 -1.640625 C 0.992188 -2.273438 0.84375 -3.117188 0.84375 -4.171875 C 0.84375 -5.234375 0.992188 -6.070312 1.296875 -6.6875 C 1.609375 -7.3125 2.019531 -7.753906 2.53125 -8.015625 C 3.039062 -8.285156 3.625 -8.421875 4.28125 -8.421875 C 4.707031 -8.421875 5.128906 -8.363281 5.546875 -8.25 C 5.960938 -8.144531 6.304688 -7.972656 6.578125 -7.734375 C 6.847656 -7.492188 6.984375 -7.191406 6.984375 -6.828125 C 6.984375 -6.484375 6.863281 -6.238281 6.625 -6.09375 C 6.382812 -5.945312 6.046875 -5.875 5.609375 -5.875 C 5.609375 -6.6875 5.515625 -7.289062 5.328125 -7.6875 C 5.148438 -8.082031 4.789062 -8.28125 4.25 -8.28125 C 3.863281 -8.28125 3.53125 -8.160156 3.25 -7.921875 C 2.96875 -7.691406 2.742188 -7.28125 2.578125 -6.6875 C 2.421875 -6.09375 2.34375 -5.25 2.34375 -4.15625 C 2.34375 -3.132812 2.421875 -2.316406 2.578125 -1.703125 C 2.734375 -1.097656 2.976562 -0.660156 3.3125 -0.390625 C 3.65625 -0.128906 4.09375 0 4.625 0 C 5.144531 0 5.582031 -0.132812 5.9375 -0.40625 C 6.289062 -0.675781 6.554688 -1.1875 6.734375 -1.9375 C 6.953125 -1.882812 7.0625 -1.71875 7.0625 -1.4375 C 7.0625 -1.1875 6.960938 -0.941406 6.765625 -0.703125 C 6.566406 -0.460938 6.269531 -0.257812 5.875 -0.09375 C 5.476562 0.0703125 4.988281 0.15625 4.40625 0.15625 Z M 4.40625 0.15625 "/></g></g></g><g fill="#2b2b2b" fill-opacity="1"><g transform="translate(288.762072, 26.111523)"><g><path d="M 0.28125 0 L 0.28125 -0.15625 L 0.40625 -0.15625 C 0.875 -0.15625 1.203125 -0.253906 1.390625 -0.453125 C 1.578125 -0.660156 1.671875 -1.035156 1.671875 -1.578125 L 1.671875 -10.1875 C 1.671875 -10.707031 1.582031 -11.066406 1.40625 -11.265625 C 1.226562 -11.472656 0.90625 -11.578125 0.4375 -11.578125 L 0.359375 -11.578125 L 0.359375 -11.734375 L 3.125 -11.734375 L 3.125 -8.609375 C 3.125 -8.316406 3.125 -8.019531 3.125 -7.71875 C 3.125 -7.414062 3.117188 -7.117188 3.109375 -6.828125 L 3.140625 -6.828125 C 3.265625 -7.296875 3.457031 -7.644531 3.71875 -7.875 C 3.988281 -8.113281 4.273438 -8.265625 4.578125 -8.328125 C 4.878906 -8.390625 5.160156 -8.421875 5.421875 -8.421875 C 6.335938 -8.421875 7.019531 -8.179688 7.46875 -7.703125 C 7.914062 -7.234375 8.140625 -6.46875 8.140625 -5.40625 L 8.140625 -1.578125 C 8.140625 -1.035156 8.21875 -0.660156 8.375 -0.453125 C 8.539062 -0.253906 8.847656 -0.15625 9.296875 -0.15625 L 9.375 -0.15625 L 9.375 0 L 6.6875 0 L 6.6875 -5.921875 C 6.6875 -6.597656 6.554688 -7.144531 6.296875 -7.5625 C 6.046875 -7.988281 5.625 -8.203125 5.03125 -8.203125 C 4.550781 -8.203125 4.171875 -8.070312 3.890625 -7.8125 C 3.609375 -7.550781 3.410156 -7.21875 3.296875 -6.8125 C 3.179688 -6.40625 3.125 -5.984375 3.125 -5.546875 L 3.125 -1.578125 C 3.125 -1.035156 3.207031 -0.660156 3.375 -0.453125 C 3.550781 -0.253906 3.878906 -0.15625 4.359375 -0.15625 L 4.4375 -0.15625 L 4.4375 0 Z M 0.28125 0 "/></g></g></g><g fill="#2b2b2b" fill-opacity="1"><g transform="translate(298.553993, 26.111523)"><g><path d="M 0.28125 0 L 0.28125 -0.15625 L 0.40625 -0.15625 C 0.851562 -0.15625 1.175781 -0.242188 1.375 -0.421875 C 1.570312 -0.609375 1.671875 -0.914062 1.671875 -1.34375 L 1.671875 -10.375 C 1.671875 -10.800781 1.570312 -11.109375 1.375 -11.296875 C 1.175781 -11.484375 0.851562 -11.578125 0.40625 -11.578125 L 0.359375 -11.578125 L 0.359375 -11.734375 L 3.125 -11.734375 L 3.125 -5.34375 C 3.125 -5.03125 3.125 -4.722656 3.125 -4.421875 C 3.125 -4.117188 3.113281 -3.8125 3.09375 -3.5 L 5.71875 -6.4375 C 6.21875 -7 6.46875 -7.398438 6.46875 -7.640625 C 6.46875 -7.816406 6.351562 -7.941406 6.125 -8.015625 C 5.90625 -8.085938 5.554688 -8.125 5.078125 -8.125 L 5.078125 -8.28125 L 8.484375 -8.28125 L 8.484375 -8.125 C 8.222656 -8.125 7.992188 -8.097656 7.796875 -8.046875 C 7.597656 -7.992188 7.375 -7.867188 7.125 -7.671875 C 6.882812 -7.472656 6.566406 -7.15625 6.171875 -6.71875 L 4.96875 -5.359375 L 7.34375 -1.703125 C 7.65625 -1.210938 7.90625 -0.859375 8.09375 -0.640625 C 8.289062 -0.429688 8.457031 -0.296875 8.59375 -0.234375 C 8.726562 -0.179688 8.863281 -0.15625 9 -0.15625 L 9.046875 -0.15625 L 9.046875 0 L 8.359375 0 C 7.753906 0 7.28125 -0.0820312 6.9375 -0.25 C 6.601562 -0.414062 6.289062 -0.722656 6 -1.171875 L 4.03125 -4.296875 L 3.125 -3.265625 L 3.125 -1.421875 C 3.125 -0.960938 3.21875 -0.632812 3.40625 -0.4375 C 3.601562 -0.25 3.929688 -0.15625 4.390625 -0.15625 L 4.4375 -0.15625 L 4.4375 0 Z M 0.28125 0 "/></g></g></g><g fill="#2b2b2b" fill-opacity="1"><g transform="translate(307.574884, 26.111523)"><g><path d="M 4.5 0.15625 C 3.351562 0.15625 2.457031 -0.210938 1.8125 -0.953125 C 1.164062 -1.691406 0.84375 -2.734375 0.84375 -4.078125 C 0.84375 -5.515625 1.140625 -6.597656 1.734375 -7.328125 C 2.328125 -8.054688 3.175781 -8.421875 4.28125 -8.421875 C 5.28125 -8.421875 6.0625 -8.113281 6.625 -7.5 C 7.195312 -6.882812 7.484375 -5.960938 7.484375 -4.734375 L 7.484375 -4.375 L 2.34375 -4.375 C 2.351562 -2.789062 2.523438 -1.664062 2.859375 -1 C 3.191406 -0.332031 3.753906 0 4.546875 0 C 5.128906 0 5.617188 -0.15625 6.015625 -0.46875 C 6.410156 -0.789062 6.664062 -1.269531 6.78125 -1.90625 C 6.90625 -1.882812 6.992188 -1.820312 7.046875 -1.71875 C 7.109375 -1.613281 7.140625 -1.503906 7.140625 -1.390625 C 7.140625 -1.179688 7.039062 -0.957031 6.84375 -0.71875 C 6.65625 -0.476562 6.367188 -0.269531 5.984375 -0.09375 C 5.597656 0.0703125 5.101562 0.15625 4.5 0.15625 Z M 2.34375 -4.515625 L 5.921875 -4.515625 C 5.921875 -5.867188 5.789062 -6.832031 5.53125 -7.40625 C 5.28125 -7.988281 4.851562 -8.28125 4.25 -8.28125 C 3.613281 -8.28125 3.148438 -7.988281 2.859375 -7.40625 C 2.566406 -6.832031 2.394531 -5.867188 2.34375 -4.515625 Z M 2.34375 -4.515625 "/></g></g></g><g fill="#2b2b2b" fill-opacity="1"><g transform="translate(315.824768, 26.111523)"><g><path d="M 2.46875 -9.75 C 2.269531 -9.75 2.109375 -9.8125 1.984375 -9.9375 C 1.859375 -10.070312 1.796875 -10.300781 1.796875 -10.625 C 1.796875 -10.945312 1.859375 -11.171875 1.984375 -11.296875 C 2.109375 -11.421875 2.269531 -11.484375 2.46875 -11.484375 C 2.65625 -11.484375 2.816406 -11.421875 2.953125 -11.296875 C 3.085938 -11.171875 3.15625 -10.945312 3.15625 -10.625 C 3.15625 -10.300781 3.085938 -10.070312 2.953125 -9.9375 C 2.816406 -9.8125 2.65625 -9.75 2.46875 -9.75 Z M 0.359375 0 L 0.359375 -0.15625 L 0.5625 -0.15625 C 1.007812 -0.15625 1.332031 -0.242188 1.53125 -0.421875 C 1.726562 -0.609375 1.828125 -0.914062 1.828125 -1.34375 L 1.828125 -6.921875 C 1.828125 -7.347656 1.726562 -7.65625 1.53125 -7.84375 C 1.332031 -8.03125 1.007812 -8.125 0.5625 -8.125 L 0.515625 -8.125 L 0.515625 -8.28125 L 3.265625 -8.28125 L 3.265625 -1.421875 C 3.265625 -0.960938 3.363281 -0.632812 3.5625 -0.4375 C 3.757812 -0.25 4.082031 -0.15625 4.53125 -0.15625 L 4.734375 -0.15625 L 4.734375 0 Z M 0.359375 0 "/></g></g></g><g fill="#2b2b2b" fill-opacity="1"><g transform="translate(320.759276, 26.111523)"><g><path d="M 3.703125 0.15625 C 2.921875 0.15625 2.351562 -0.0195312 2 -0.375 C 1.644531 -0.726562 1.46875 -1.347656 1.46875 -2.234375 L 1.46875 -8.125 L 0.296875 -8.125 L 0.296875 -8.28125 C 1.023438 -8.28125 1.578125 -8.414062 1.953125 -8.6875 C 2.359375 -8.96875 2.628906 -9.460938 2.765625 -10.171875 L 2.921875 -10.171875 L 2.921875 -8.28125 L 5.078125 -8.28125 L 5.078125 -8.125 L 2.921875 -8.125 L 2.921875 -1.671875 C 2.921875 -0.597656 3.328125 -0.0625 4.140625 -0.0625 C 4.398438 -0.0625 4.710938 -0.125 5.078125 -0.25 L 5.078125 -0.09375 C 4.941406 -0.03125 4.738281 0.0234375 4.46875 0.078125 C 4.207031 0.128906 3.953125 0.15625 3.703125 0.15625 Z M 3.703125 0.15625 "/></g></g></g><g fill="#2b2b2b" fill-opacity="1"><g transform="translate(326.187234, 26.111523)"><g><path d="M 4.5 0.15625 C 3.351562 0.15625 2.457031 -0.210938 1.8125 -0.953125 C 1.164062 -1.691406 0.84375 -2.734375 0.84375 -4.078125 C 0.84375 -5.515625 1.140625 -6.597656 1.734375 -7.328125 C 2.328125 -8.054688 3.175781 -8.421875 4.28125 -8.421875 C 5.28125 -8.421875 6.0625 -8.113281 6.625 -7.5 C 7.195312 -6.882812 7.484375 -5.960938 7.484375 -4.734375 L 7.484375 -4.375 L 2.34375 -4.375 C 2.351562 -2.789062 2.523438 -1.664062 2.859375 -1 C 3.191406 -0.332031 3.753906 0 4.546875 0 C 5.128906 0 5.617188 -0.15625 6.015625 -0.46875 C 6.410156 -0.789062 6.664062 -1.269531 6.78125 -1.90625 C 6.90625 -1.882812 6.992188 -1.820312 7.046875 -1.71875 C 7.109375 -1.613281 7.140625 -1.503906 7.140625 -1.390625 C 7.140625 -1.179688 7.039062 -0.957031 6.84375 -0.71875 C 6.65625 -0.476562 6.367188 -0.269531 5.984375 -0.09375 C 5.597656 0.0703125 5.101562 0.15625 4.5 0.15625 Z M 2.34375 -4.515625 L 5.921875 -4.515625 C 5.921875 -5.867188 5.789062 -6.832031 5.53125 -7.40625 C 5.28125 -7.988281 4.851562 -8.28125 4.25 -8.28125 C 3.613281 -8.28125 3.148438 -7.988281 2.859375 -7.40625 C 2.566406 -6.832031 2.394531 -5.867188 2.34375 -4.515625 Z M 2.34375 -4.515625 "/></g></g></g><g fill="#2b2b2b" fill-opacity="1"><g transform="translate(334.437118, 26.111523)"><g><path d="M 0.4375 0 L 0.4375 -0.15625 L 0.5625 -0.15625 C 1.03125 -0.15625 1.359375 -0.253906 1.546875 -0.453125 C 1.734375 -0.660156 1.828125 -1.035156 1.828125 -1.578125 L 1.828125 -6.734375 C 1.828125 -7.253906 1.738281 -7.613281 1.5625 -7.8125 C 1.382812 -8.019531 1.0625 -8.125 0.59375 -8.125 L 0.515625 -8.125 L 0.515625 -8.28125 L 3.25 -8.28125 L 3.25 -6.828125 L 3.28125 -6.828125 C 3.414062 -7.296875 3.613281 -7.644531 3.875 -7.875 C 4.144531 -8.113281 4.429688 -8.265625 4.734375 -8.328125 C 5.035156 -8.390625 5.316406 -8.421875 5.578125 -8.421875 C 6.492188 -8.421875 7.175781 -8.179688 7.625 -7.703125 C 8.070312 -7.234375 8.296875 -6.46875 8.296875 -5.40625 L 8.296875 -1.578125 C 8.296875 -1.035156 8.375 -0.660156 8.53125 -0.453125 C 8.695312 -0.253906 9.003906 -0.15625 9.453125 -0.15625 L 9.53125 -0.15625 L 9.53125 0 L 6.84375 0 L 6.84375 -5.921875 C 6.84375 -6.597656 6.710938 -7.144531 6.453125 -7.5625 C 6.203125 -7.988281 5.78125 -8.203125 5.1875 -8.203125 C 4.707031 -8.203125 4.328125 -8.070312 4.046875 -7.8125 C 3.765625 -7.550781 3.5625 -7.21875 3.4375 -6.8125 C 3.320312 -6.40625 3.265625 -5.984375 3.265625 -5.546875 L 3.265625 -1.578125 C 3.265625 -1.035156 3.351562 -0.660156 3.53125 -0.453125 C 3.707031 -0.253906 4.03125 -0.15625 4.5 -0.15625 L 4.578125 -0.15625 L 4.578125 0 Z M 0.4375 0 "/></g></g></g><g fill="#2b2b2b" fill-opacity="1"><g transform="translate(344.383227, 26.111523)"><g/></g></g><g fill="#2b2b2b" fill-opacity="1"><g transform="translate(347.852814, 26.111523)"><g><path d="M 3.296875 0.15625 C 2.523438 0.15625 1.894531 0.0195312 1.40625 -0.25 C 0.925781 -0.53125 0.6875 -0.941406 0.6875 -1.484375 C 0.6875 -1.765625 0.738281 -1.976562 0.84375 -2.125 C 0.957031 -2.28125 1.09375 -2.390625 1.25 -2.453125 C 1.40625 -2.515625 1.546875 -2.546875 1.671875 -2.546875 C 1.671875 -1.710938 1.789062 -1.078125 2.03125 -0.640625 C 2.269531 -0.210938 2.703125 0 3.328125 0 C 3.878906 0 4.3125 -0.140625 4.625 -0.421875 C 4.945312 -0.703125 5.109375 -1.125 5.109375 -1.6875 C 5.109375 -2.039062 5.046875 -2.320312 4.921875 -2.53125 C 4.796875 -2.75 4.59375 -2.9375 4.3125 -3.09375 C 4.03125 -3.257812 3.640625 -3.453125 3.140625 -3.671875 C 2.546875 -3.929688 2.078125 -4.179688 1.734375 -4.421875 C 1.398438 -4.660156 1.160156 -4.925781 1.015625 -5.21875 C 0.867188 -5.507812 0.796875 -5.847656 0.796875 -6.234375 C 0.796875 -6.929688 1.039062 -7.46875 1.53125 -7.84375 C 2.03125 -8.21875 2.71875 -8.40625 3.59375 -8.40625 C 4.332031 -8.40625 4.910156 -8.265625 5.328125 -7.984375 C 5.742188 -7.703125 5.953125 -7.375 5.953125 -7 C 5.953125 -6.71875 5.851562 -6.488281 5.65625 -6.3125 C 5.46875 -6.144531 5.195312 -6.0625 4.84375 -6.0625 C 4.84375 -6.851562 4.734375 -7.414062 4.515625 -7.75 C 4.304688 -8.09375 3.972656 -8.265625 3.515625 -8.265625 C 2.460938 -8.265625 1.9375 -7.769531 1.9375 -6.78125 C 1.9375 -6.414062 2.007812 -6.125 2.15625 -5.90625 C 2.300781 -5.695312 2.519531 -5.515625 2.8125 -5.359375 C 3.113281 -5.203125 3.5 -5.023438 3.96875 -4.828125 C 4.550781 -4.597656 5.007812 -4.359375 5.34375 -4.109375 C 5.6875 -3.867188 5.925781 -3.601562 6.0625 -3.3125 C 6.207031 -3.019531 6.28125 -2.671875 6.28125 -2.265625 C 6.28125 -1.460938 6.007812 -0.859375 5.46875 -0.453125 C 4.925781 -0.046875 4.203125 0.15625 3.296875 0.15625 Z M 3.296875 0.15625 "/></g></g></g><g fill="#2b2b2b" fill-opacity="1"><g transform="translate(354.807399, 26.111523)"><g><path d="M 2.46875 -9.75 C 2.269531 -9.75 2.109375 -9.8125 1.984375 -9.9375 C 1.859375 -10.070312 1.796875 -10.300781 1.796875 -10.625 C 1.796875 -10.945312 1.859375 -11.171875 1.984375 -11.296875 C 2.109375 -11.421875 2.269531 -11.484375 2.46875 -11.484375 C 2.65625 -11.484375 2.816406 -11.421875 2.953125 -11.296875 C 3.085938 -11.171875 3.15625 -10.945312 3.15625 -10.625 C 3.15625 -10.300781 3.085938 -10.070312 2.953125 -9.9375 C 2.816406 -9.8125 2.65625 -9.75 2.46875 -9.75 Z M 0.359375 0 L 0.359375 -0.15625 L 0.5625 -0.15625 C 1.007812 -0.15625 1.332031 -0.242188 1.53125 -0.421875 C 1.726562 -0.609375 1.828125 -0.914062 1.828125 -1.34375 L 1.828125 -6.921875 C 1.828125 -7.347656 1.726562 -7.65625 1.53125 -7.84375 C 1.332031 -8.03125 1.007812 -8.125 0.5625 -8.125 L 0.515625 -8.125 L 0.515625 -8.28125 L 3.265625 -8.28125 L 3.265625 -1.421875 C 3.265625 -0.960938 3.363281 -0.632812 3.5625 -0.4375 C 3.757812 -0.25 4.082031 -0.15625 4.53125 -0.15625 L 4.734375 -0.15625 L 4.734375 0 Z M 0.359375 0 "/></g></g></g><g fill="#2b2b2b" fill-opacity="1"><g transform="translate(359.741906, 26.111523)"><g><path d="M 0.4375 0 L 0.4375 -0.15625 L 0.5625 -0.15625 C 1.03125 -0.15625 1.359375 -0.253906 1.546875 -0.453125 C 1.734375 -0.660156 1.828125 -1.035156 1.828125 -1.578125 L 1.828125 -6.734375 C 1.828125 -7.253906 1.738281 -7.613281 1.5625 -7.8125 C 1.382812 -8.019531 1.0625 -8.125 0.59375 -8.125 L 0.515625 -8.125 L 0.515625 -8.28125 L 3.25 -8.28125 L 3.25 -6.828125 L 3.28125 -6.828125 C 3.414062 -7.296875 3.613281 -7.644531 3.875 -7.875 C 4.144531 -8.113281 4.429688 -8.265625 4.734375 -8.328125 C 5.035156 -8.390625 5.316406 -8.421875 5.578125 -8.421875 C 6.492188 -8.421875 7.175781 -8.179688 7.625 -7.703125 C 8.070312 -7.234375 8.296875 -6.46875 8.296875 -5.40625 L 8.296875 -1.578125 C 8.296875 -1.035156 8.375 -0.660156 8.53125 -0.453125 C 8.695312 -0.253906 9.003906 -0.15625 9.453125 -0.15625 L 9.53125 -0.15625 L 9.53125 0 L 6.84375 0 L 6.84375 -5.921875 C 6.84375 -6.597656 6.710938 -7.144531 6.453125 -7.5625 C 6.203125 -7.988281 5.78125 -8.203125 5.1875 -8.203125 C 4.707031 -8.203125 4.328125 -8.070312 4.046875 -7.8125 C 3.765625 -7.550781 3.5625 -7.21875 3.4375 -6.8125 C 3.320312 -6.40625 3.265625 -5.984375 3.265625 -5.546875 L 3.265625 -1.578125 C 3.265625 -1.035156 3.351562 -0.660156 3.53125 -0.453125 C 3.707031 -0.253906 4.03125 -0.15625 4.5 -0.15625 L 4.578125 -0.15625 L 4.578125 0 Z M 0.4375 0 "/></g></g></g><g fill="#2b2b2b" fill-opacity="1"><g transform="translate(369.688015, 26.111523)"><g><path d="M 3.953125 0.15625 C 2.941406 0.15625 2.171875 -0.207031 1.640625 -0.9375 C 1.109375 -1.664062 0.84375 -2.738281 0.84375 -4.15625 C 0.84375 -7 1.867188 -8.421875 3.921875 -8.421875 C 4.617188 -8.421875 5.160156 -8.234375 5.546875 -7.859375 C 5.941406 -7.484375 6.210938 -6.90625 6.359375 -6.125 L 6.390625 -6.125 C 6.367188 -6.6875 6.359375 -7.21875 6.359375 -7.71875 C 6.359375 -8.226562 6.359375 -8.617188 6.359375 -8.890625 L 6.359375 -10.375 C 6.359375 -10.800781 6.257812 -11.109375 6.0625 -11.296875 C 5.875 -11.484375 5.550781 -11.578125 5.09375 -11.578125 L 5.046875 -11.578125 L 5.046875 -11.734375 L 7.8125 -11.734375 L 7.8125 -1.34375 C 7.8125 -0.914062 7.90625 -0.609375 8.09375 -0.421875 C 8.289062 -0.242188 8.617188 -0.15625 9.078125 -0.15625 L 9.203125 -0.15625 L 9.203125 0 L 6.375 0 L 6.375 -2.171875 L 6.34375 -2.171875 C 6.207031 -1.378906 5.941406 -0.789062 5.546875 -0.40625 C 5.148438 -0.03125 4.617188 0.15625 3.953125 0.15625 Z M 4.21875 -0.078125 C 4.945312 -0.078125 5.484375 -0.410156 5.828125 -1.078125 C 6.179688 -1.742188 6.359375 -2.769531 6.359375 -4.15625 C 6.359375 -5.488281 6.191406 -6.492188 5.859375 -7.171875 C 5.523438 -7.859375 4.984375 -8.203125 4.234375 -8.203125 C 3.554688 -8.203125 3.070312 -7.890625 2.78125 -7.265625 C 2.488281 -6.648438 2.34375 -5.617188 2.34375 -4.171875 C 2.34375 -2.691406 2.488281 -1.640625 2.78125 -1.015625 C 3.070312 -0.390625 3.550781 -0.078125 4.21875 -0.078125 Z M 4.21875 -0.078125 "/></g></g></g><g fill="#2b2b2b" fill-opacity="1"><g transform="translate(379.156105, 26.111523)"><g/></g></g><g fill="#2b2b2b" fill-opacity="1"><g transform="translate(382.625692, 26.111523)"><g><path d="M 3.6875 0 L 1.03125 -7.296875 C 0.914062 -7.609375 0.789062 -7.820312 0.65625 -7.9375 C 0.519531 -8.0625 0.320312 -8.125 0.0625 -8.125 L 0.0625 -8.28125 L 3.921875 -8.28125 L 3.921875 -8.125 L 3.546875 -8.125 C 3.222656 -8.125 2.976562 -8.078125 2.8125 -7.984375 C 2.65625 -7.898438 2.578125 -7.75 2.578125 -7.53125 C 2.578125 -7.363281 2.632812 -7.125 2.75 -6.8125 L 3.96875 -3.390625 C 4.101562 -3.023438 4.21875 -2.695312 4.3125 -2.40625 C 4.414062 -2.125 4.515625 -1.84375 4.609375 -1.5625 C 4.703125 -1.28125 4.8125 -0.945312 4.9375 -0.5625 C 5.03125 -0.84375 5.113281 -1.097656 5.1875 -1.328125 C 5.269531 -1.566406 5.375 -1.859375 5.5 -2.203125 L 7.0625 -6.71875 C 7.101562 -6.882812 7.140625 -7.023438 7.171875 -7.140625 C 7.203125 -7.265625 7.21875 -7.378906 7.21875 -7.484375 C 7.21875 -7.722656 7.128906 -7.890625 6.953125 -7.984375 C 6.773438 -8.078125 6.488281 -8.125 6.09375 -8.125 L 5.59375 -8.125 L 5.59375 -8.28125 L 8.890625 -8.28125 L 8.890625 -8.125 L 8.453125 -8.125 C 8.171875 -8.125 7.941406 -8.035156 7.765625 -7.859375 C 7.597656 -7.679688 7.4375 -7.367188 7.28125 -6.921875 L 4.90625 0 Z M 3.6875 0 "/></g></g></g><g fill="#2b2b2b" fill-opacity="1"><g transform="translate(391.554057, 26.111523)"><g><path d="M 4.4375 0.15625 C 3.320312 0.15625 2.441406 -0.195312 1.796875 -0.90625 C 1.160156 -1.613281 0.84375 -2.695312 0.84375 -4.15625 C 0.84375 -5.59375 1.148438 -6.660156 1.765625 -7.359375 C 2.378906 -8.066406 3.285156 -8.421875 4.484375 -8.421875 C 5.585938 -8.421875 6.457031 -8.066406 7.09375 -7.359375 C 7.738281 -6.660156 8.0625 -5.59375 8.0625 -4.15625 C 8.0625 -2.695312 7.75 -1.613281 7.125 -0.90625 C 6.507812 -0.195312 5.613281 0.15625 4.4375 0.15625 Z M 4.46875 0 C 5.21875 0 5.753906 -0.316406 6.078125 -0.953125 C 6.398438 -1.597656 6.5625 -2.664062 6.5625 -4.15625 C 6.5625 -5.632812 6.398438 -6.691406 6.078125 -7.328125 C 5.753906 -7.960938 5.210938 -8.28125 4.453125 -8.28125 C 3.679688 -8.28125 3.132812 -7.960938 2.8125 -7.328125 C 2.5 -6.691406 2.34375 -5.632812 2.34375 -4.15625 C 2.34375 -2.664062 2.503906 -1.597656 2.828125 -0.953125 C 3.148438 -0.316406 3.695312 0 4.46875 0 Z M 4.46875 0 "/></g></g></g><g fill="#2b2b2b" fill-opacity="1"><g transform="translate(400.451603, 26.111523)"><g><path d="M 0.359375 0 L 0.359375 -0.15625 L 0.5625 -0.15625 C 1.007812 -0.15625 1.332031 -0.242188 1.53125 -0.421875 C 1.726562 -0.609375 1.828125 -0.914062 1.828125 -1.34375 L 1.828125 -6.921875 C 1.828125 -7.347656 1.726562 -7.65625 1.53125 -7.84375 C 1.332031 -8.03125 1.007812 -8.125 0.5625 -8.125 L 0.515625 -8.125 L 0.515625 -8.28125 L 3.25 -8.28125 L 3.25 -6.734375 L 3.28125 -6.734375 C 3.351562 -6.992188 3.460938 -7.253906 3.609375 -7.515625 C 3.753906 -7.773438 3.96875 -7.988281 4.25 -8.15625 C 4.539062 -8.332031 4.941406 -8.421875 5.453125 -8.421875 C 5.953125 -8.421875 6.34375 -8.320312 6.625 -8.125 C 6.90625 -7.925781 7.046875 -7.644531 7.046875 -7.28125 C 7.046875 -6.976562 6.929688 -6.722656 6.703125 -6.515625 C 6.484375 -6.304688 6.117188 -6.203125 5.609375 -6.203125 C 5.609375 -6.835938 5.5 -7.273438 5.28125 -7.515625 C 5.0625 -7.765625 4.816406 -7.890625 4.546875 -7.890625 C 4.253906 -7.890625 4.019531 -7.78125 3.84375 -7.5625 C 3.664062 -7.351562 3.535156 -7.082031 3.453125 -6.75 C 3.367188 -6.414062 3.316406 -6.070312 3.296875 -5.71875 C 3.273438 -5.363281 3.265625 -5.035156 3.265625 -4.734375 L 3.265625 -1.421875 C 3.265625 -0.960938 3.363281 -0.632812 3.5625 -0.4375 C 3.757812 -0.25 4.082031 -0.15625 4.53125 -0.15625 L 4.734375 -0.15625 L 4.734375 0 Z M 0.359375 0 "/></g></g></g><g fill="#2b2b2b" fill-opacity="1"><g transform="translate(407.714586, 26.111523)"><g><path d="M 0.28125 0 L 0.28125 -0.15625 L 0.40625 -0.15625 C 0.875 -0.15625 1.203125 -0.253906 1.390625 -0.453125 C 1.578125 -0.660156 1.671875 -1.035156 1.671875 -1.578125 L 1.671875 -10.1875 C 1.671875 -10.707031 1.582031 -11.066406 1.40625 -11.265625 C 1.226562 -11.472656 0.90625 -11.578125 0.4375 -11.578125 L 0.359375 -11.578125 L 0.359375 -11.734375 L 3.125 -11.734375 L 3.125 -8.609375 C 3.125 -8.316406 3.125 -8.019531 3.125 -7.71875 C 3.125 -7.414062 3.117188 -7.117188 3.109375 -6.828125 L 3.140625 -6.828125 C 3.265625 -7.296875 3.457031 -7.644531 3.71875 -7.875 C 3.988281 -8.113281 4.273438 -8.265625 4.578125 -8.328125 C 4.878906 -8.390625 5.160156 -8.421875 5.421875 -8.421875 C 6.335938 -8.421875 7.019531 -8.179688 7.46875 -7.703125 C 7.914062 -7.234375 8.140625 -6.46875 8.140625 -5.40625 L 8.140625 -1.578125 C 8.140625 -1.035156 8.21875 -0.660156 8.375 -0.453125 C 8.539062 -0.253906 8.847656 -0.15625 9.296875 -0.15625 L 9.375 -0.15625 L 9.375 0 L 6.6875 0 L 6.6875 -5.921875 C 6.6875 -6.597656 6.554688 -7.144531 6.296875 -7.5625 C 6.046875 -7.988281 5.625 -8.203125 5.03125 -8.203125 C 4.550781 -8.203125 4.171875 -8.070312 3.890625 -7.8125 C 3.609375 -7.550781 3.410156 -7.21875 3.296875 -6.8125 C 3.179688 -6.40625 3.125 -5.984375 3.125 -5.546875 L 3.125 -1.578125 C 3.125 -1.035156 3.207031 -0.660156 3.375 -0.453125 C 3.550781 -0.253906 3.878906 -0.15625 4.359375 -0.15625 L 4.4375 -0.15625 L 4.4375 0 Z M 0.28125 0 "/></g></g></g><g fill="#2b2b2b" fill-opacity="1"><g transform="translate(417.506484, 26.111523)"><g><path d="M 3.3125 0.15625 C 2.519531 0.15625 1.894531 -0.046875 1.4375 -0.453125 C 0.988281 -0.859375 0.765625 -1.414062 0.765625 -2.125 C 0.765625 -2.914062 1.054688 -3.507812 1.640625 -3.90625 C 2.222656 -4.300781 3.109375 -4.515625 4.296875 -4.546875 L 5.578125 -4.59375 L 5.578125 -5.765625 C 5.578125 -6.335938 5.546875 -6.804688 5.484375 -7.171875 C 5.421875 -7.546875 5.285156 -7.820312 5.078125 -8 C 4.867188 -8.1875 4.554688 -8.28125 4.140625 -8.28125 C 3.535156 -8.28125 3.148438 -8.09375 2.984375 -7.71875 C 2.816406 -7.34375 2.734375 -6.757812 2.734375 -5.96875 C 2.296875 -5.96875 1.96875 -6.039062 1.75 -6.1875 C 1.53125 -6.332031 1.421875 -6.570312 1.421875 -6.90625 C 1.421875 -7.269531 1.546875 -7.5625 1.796875 -7.78125 C 2.046875 -8.007812 2.378906 -8.171875 2.796875 -8.265625 C 3.210938 -8.367188 3.679688 -8.421875 4.203125 -8.421875 C 5.148438 -8.421875 5.859375 -8.21875 6.328125 -7.8125 C 6.796875 -7.414062 7.03125 -6.734375 7.03125 -5.765625 L 7.03125 -1.140625 C 7.03125 -0.773438 7.097656 -0.519531 7.234375 -0.375 C 7.378906 -0.226562 7.628906 -0.15625 7.984375 -0.15625 L 8.03125 -0.15625 L 8.03125 0 L 5.703125 0 L 5.703125 -1.625 L 5.671875 -1.625 C 5.503906 -1 5.210938 -0.546875 4.796875 -0.265625 C 4.378906 0.015625 3.882812 0.15625 3.3125 0.15625 Z M 3.625 -0.0625 C 4.007812 -0.0625 4.347656 -0.15625 4.640625 -0.34375 C 4.929688 -0.539062 5.160156 -0.804688 5.328125 -1.140625 C 5.492188 -1.472656 5.578125 -1.828125 5.578125 -2.203125 L 5.578125 -4.4375 L 4.578125 -4.390625 C 3.703125 -4.347656 3.097656 -4.144531 2.765625 -3.78125 C 2.429688 -3.414062 2.265625 -2.804688 2.265625 -1.953125 C 2.265625 -0.691406 2.71875 -0.0625 3.625 -0.0625 Z M 3.625 -0.0625 "/></g></g></g><g fill="#2b2b2b" fill-opacity="1"><g transform="translate(426.188135, 26.111523)"><g><path d="M 0.4375 0 L 0.4375 -0.15625 L 0.5625 -0.15625 C 1.03125 -0.15625 1.359375 -0.253906 1.546875 -0.453125 C 1.734375 -0.660156 1.828125 -1.035156 1.828125 -1.578125 L 1.828125 -6.734375 C 1.828125 -7.253906 1.738281 -7.613281 1.5625 -7.8125 C 1.382812 -8.019531 1.0625 -8.125 0.59375 -8.125 L 0.515625 -8.125 L 0.515625 -8.28125 L 3.25 -8.28125 L 3.25 -6.828125 L 3.28125 -6.828125 C 3.414062 -7.296875 3.613281 -7.644531 3.875 -7.875 C 4.144531 -8.113281 4.429688 -8.265625 4.734375 -8.328125 C 5.035156 -8.390625 5.316406 -8.421875 5.578125 -8.421875 C 6.492188 -8.421875 7.175781 -8.179688 7.625 -7.703125 C 8.070312 -7.234375 8.296875 -6.46875 8.296875 -5.40625 L 8.296875 -1.578125 C 8.296875 -1.035156 8.375 -0.660156 8.53125 -0.453125 C 8.695312 -0.253906 9.003906 -0.15625 9.453125 -0.15625 L 9.53125 -0.15625 L 9.53125 0 L 6.84375 0 L 6.84375 -5.921875 C 6.84375 -6.597656 6.710938 -7.144531 6.453125 -7.5625 C 6.203125 -7.988281 5.78125 -8.203125 5.1875 -8.203125 C 4.707031 -8.203125 4.328125 -8.070312 4.046875 -7.8125 C 3.765625 -7.550781 3.5625 -7.21875 3.4375 -6.8125 C 3.320312 -6.40625 3.265625 -5.984375 3.265625 -5.546875 L 3.265625 -1.578125 C 3.265625 -1.035156 3.351562 -0.660156 3.53125 -0.453125 C 3.707031 -0.253906 4.03125 -0.15625 4.5 -0.15625 L 4.578125 -0.15625 L 4.578125 0 Z M 0.4375 0 "/></g></g></g><g fill="#2b2b2b" fill-opacity="1"><g transform="translate(436.134243, 26.111523)"><g><path d="M 3.953125 0.15625 C 2.941406 0.15625 2.171875 -0.207031 1.640625 -0.9375 C 1.109375 -1.664062 0.84375 -2.738281 0.84375 -4.15625 C 0.84375 -7 1.867188 -8.421875 3.921875 -8.421875 C 4.617188 -8.421875 5.160156 -8.234375 5.546875 -7.859375 C 5.941406 -7.484375 6.210938 -6.90625 6.359375 -6.125 L 6.390625 -6.125 C 6.367188 -6.6875 6.359375 -7.21875 6.359375 -7.71875 C 6.359375 -8.226562 6.359375 -8.617188 6.359375 -8.890625 L 6.359375 -10.375 C 6.359375 -10.800781 6.257812 -11.109375 6.0625 -11.296875 C 5.875 -11.484375 5.550781 -11.578125 5.09375 -11.578125 L 5.046875 -11.578125 L 5.046875 -11.734375 L 7.8125 -11.734375 L 7.8125 -1.34375 C 7.8125 -0.914062 7.90625 -0.609375 8.09375 -0.421875 C 8.289062 -0.242188 8.617188 -0.15625 9.078125 -0.15625 L 9.203125 -0.15625 L 9.203125 0 L 6.375 0 L 6.375 -2.171875 L 6.34375 -2.171875 C 6.207031 -1.378906 5.941406 -0.789062 5.546875 -0.40625 C 5.148438 -0.03125 4.617188 0.15625 3.953125 0.15625 Z M 4.21875 -0.078125 C 4.945312 -0.078125 5.484375 -0.410156 5.828125 -1.078125 C 6.179688 -1.742188 6.359375 -2.769531 6.359375 -4.15625 C 6.359375 -5.488281 6.191406 -6.492188 5.859375 -7.171875 C 5.523438 -7.859375 4.984375 -8.203125 4.234375 -8.203125 C 3.554688 -8.203125 3.070312 -7.890625 2.78125 -7.265625 C 2.488281 -6.648438 2.34375 -5.617188 2.34375 -4.171875 C 2.34375 -2.691406 2.488281 -1.640625 2.78125 -1.015625 C 3.070312 -0.390625 3.550781 -0.078125 4.21875 -0.078125 Z M 4.21875 -0.078125 "/></g></g></g><g fill="#2b2b2b" fill-opacity="1"><g transform="translate(445.602333, 26.111523)"><g><path d="M 4.5 0.15625 C 3.351562 0.15625 2.457031 -0.210938 1.8125 -0.953125 C 1.164062 -1.691406 0.84375 -2.734375 0.84375 -4.078125 C 0.84375 -5.515625 1.140625 -6.597656 1.734375 -7.328125 C 2.328125 -8.054688 3.175781 -8.421875 4.28125 -8.421875 C 5.28125 -8.421875 6.0625 -8.113281 6.625 -7.5 C 7.195312 -6.882812 7.484375 -5.960938 7.484375 -4.734375 L 7.484375 -4.375 L 2.34375 -4.375 C 2.351562 -2.789062 2.523438 -1.664062 2.859375 -1 C 3.191406 -0.332031 3.753906 0 4.546875 0 C 5.128906 0 5.617188 -0.15625 6.015625 -0.46875 C 6.410156 -0.789062 6.664062 -1.269531 6.78125 -1.90625 C 6.90625 -1.882812 6.992188 -1.820312 7.046875 -1.71875 C 7.109375 -1.613281 7.140625 -1.503906 7.140625 -1.390625 C 7.140625 -1.179688 7.039062 -0.957031 6.84375 -0.71875 C 6.65625 -0.476562 6.367188 -0.269531 5.984375 -0.09375 C 5.597656 0.0703125 5.101562 0.15625 4.5 0.15625 Z M 2.34375 -4.515625 L 5.921875 -4.515625 C 5.921875 -5.867188 5.789062 -6.832031 5.53125 -7.40625 C 5.28125 -7.988281 4.851562 -8.28125 4.25 -8.28125 C 3.613281 -8.28125 3.148438 -7.988281 2.859375 -7.40625 C 2.566406 -6.832031 2.394531 -5.867188 2.34375 -4.515625 Z M 2.34375 -4.515625 "/></g></g></g><g fill="#2b2b2b" fill-opacity="1"><g transform="translate(453.852218, 26.111523)"><g><path d="M 0.4375 0 L 0.4375 -0.15625 L 0.5625 -0.15625 C 1.03125 -0.15625 1.359375 -0.253906 1.546875 -0.453125 C 1.734375 -0.660156 1.828125 -1.035156 1.828125 -1.578125 L 1.828125 -6.734375 C 1.828125 -7.253906 1.738281 -7.613281 1.5625 -7.8125 C 1.382812 -8.019531 1.0625 -8.125 0.59375 -8.125 L 0.515625 -8.125 L 0.515625 -8.28125 L 3.25 -8.28125 L 3.25 -6.828125 L 3.28125 -6.828125 C 3.414062 -7.296875 3.613281 -7.644531 3.875 -7.875 C 4.144531 -8.113281 4.429688 -8.265625 4.734375 -8.328125 C 5.035156 -8.390625 5.316406 -8.421875 5.578125 -8.421875 C 6.492188 -8.421875 7.175781 -8.179688 7.625 -7.703125 C 8.070312 -7.234375 8.296875 -6.46875 8.296875 -5.40625 L 8.296875 -1.578125 C 8.296875 -1.035156 8.375 -0.660156 8.53125 -0.453125 C 8.695312 -0.253906 9.003906 -0.15625 9.453125 -0.15625 L 9.53125 -0.15625 L 9.53125 0 L 6.84375 0 L 6.84375 -5.921875 C 6.84375 -6.597656 6.710938 -7.144531 6.453125 -7.5625 C 6.203125 -7.988281 5.78125 -8.203125 5.1875 -8.203125 C 4.707031 -8.203125 4.328125 -8.070312 4.046875 -7.8125 C 3.765625 -7.550781 3.5625 -7.21875 3.4375 -6.8125 C 3.320312 -6.40625 3.265625 -5.984375 3.265625 -5.546875 L 3.265625 -1.578125 C 3.265625 -1.035156 3.351562 -0.660156 3.53125 -0.453125 C 3.707031 -0.253906 4.03125 -0.15625 4.5 -0.15625 L 4.578125 -0.15625 L 4.578125 0 Z M 0.4375 0 "/></g></g></g><g fill="#2b2b2b" fill-opacity="1"><g transform="translate(463.798349, 26.111523)"><g><path d="M 3.34375 -3.109375 L 3.125 -5.1875 C 3.90625 -5.257812 4.472656 -5.523438 4.828125 -5.984375 C 5.179688 -6.441406 5.359375 -7.191406 5.359375 -8.234375 C 5.359375 -9.171875 5.222656 -9.867188 4.953125 -10.328125 C 4.679688 -10.785156 4.238281 -11.015625 3.625 -11.015625 C 3.0625 -11.015625 2.640625 -10.8125 2.359375 -10.40625 C 2.078125 -10 1.9375 -9.34375 1.9375 -8.4375 C 1.570312 -8.4375 1.265625 -8.523438 1.015625 -8.703125 C 0.773438 -8.890625 0.65625 -9.160156 0.65625 -9.515625 C 0.65625 -9.984375 0.90625 -10.375 1.40625 -10.6875 C 1.914062 -11.007812 2.625 -11.171875 3.53125 -11.171875 C 4.59375 -11.171875 5.425781 -10.925781 6.03125 -10.4375 C 6.632812 -9.957031 6.9375 -9.265625 6.9375 -8.359375 C 6.9375 -7.546875 6.679688 -6.875 6.171875 -6.34375 C 5.660156 -5.820312 4.875 -5.425781 3.8125 -5.15625 L 3.578125 -3.109375 Z M 3.4375 0.109375 C 2.882812 0.109375 2.609375 -0.238281 2.609375 -0.9375 C 2.609375 -1.632812 2.882812 -1.984375 3.4375 -1.984375 C 4 -1.984375 4.28125 -1.632812 4.28125 -0.9375 C 4.28125 -0.238281 4 0.109375 3.4375 0.109375 Z M 3.4375 0.109375 "/></g></g></g></svg>