<svg xmlns="http://www.w3.org/2000/svg" xmlns:xlink="http://www.w3.org/1999/xlink" width="473" zoomAndPan="magnify" viewBox="0 0 354.75 57.749997" height="77" preserveAspectRatio="xMidYMid meet" version="1.0"><defs><g/><clipPath id="fdaecfa822"><path d="M 0.640625 27 L 43.207031 27 L 43.207031 49.691406 L 0.640625 49.691406 Z M 0.640625 27 " clip-rule="nonzero"/></clipPath><clipPath id="8ee02f5727"><path d="M 12 7.125 L 24 7.125 L 24 20 L 12 20 Z M 12 7.125 " clip-rule="nonzero"/></clipPath></defs><g clip-path="url(#fdaecfa822)"><path fill="#000000" d="M 33.894531 30.402344 L 16.425781 30.402344 C 15.582031 29.199219 14.191406 28.410156 12.613281 28.410156 C 10.042969 28.410156 7.957031 30.496094 7.957031 33.0625 C 7.957031 35.628906 10.042969 37.71875 12.613281 37.71875 C 13.914062 37.71875 15.089844 37.179688 15.9375 36.316406 L 15.9375 39.050781 L 6.625 39.050781 L 6.625 31.070312 C 6.625 28.867188 4.835938 27.078125 2.636719 27.078125 L 1.304688 27.078125 C 0.9375 27.078125 0.640625 27.375 0.640625 27.742188 L 0.640625 49.027344 C 0.640625 49.394531 0.9375 49.691406 1.304688 49.691406 L 42.539062 49.691406 C 42.90625 49.691406 43.207031 49.394531 43.207031 49.027344 L 43.207031 39.714844 C 43.207031 34.582031 39.027344 30.402344 33.894531 30.402344 Z M 17.265625 31.734375 L 33.894531 31.734375 C 38.070312 31.734375 41.503906 34.960938 41.84375 39.050781 L 17.265625 39.050781 Z M 12.613281 36.390625 C 10.777344 36.390625 9.285156 34.898438 9.285156 33.0625 C 9.285156 31.230469 10.777344 29.738281 12.613281 29.738281 C 14.445312 29.738281 15.9375 31.230469 15.9375 33.0625 C 15.9375 34.898438 14.445312 36.390625 12.613281 36.390625 Z M 41.875 43.039062 L 15.273438 43.039062 C 14.90625 43.039062 14.605469 43.335938 14.605469 43.707031 C 14.605469 44.074219 14.90625 44.371094 15.273438 44.371094 L 41.875 44.371094 L 41.875 48.359375 L 1.96875 48.359375 L 1.96875 44.371094 L 9.953125 44.371094 C 10.320312 44.371094 10.617188 44.074219 10.617188 43.707031 C 10.617188 43.335938 10.320312 43.039062 9.953125 43.039062 L 1.96875 43.039062 L 1.96875 28.410156 L 2.636719 28.410156 C 4.101562 28.410156 5.296875 29.601562 5.296875 31.070312 L 5.296875 39.714844 C 5.296875 40.082031 5.59375 40.378906 5.960938 40.378906 L 41.875 40.378906 Z M 41.875 43.039062 " fill-opacity="1" fill-rule="nonzero"/></g><path fill="#000000" d="M 23.191406 20.976562 C 22.65625 20.664062 22.175781 20.257812 21.769531 19.769531 C 21.574219 19.535156 21.242188 19.460938 20.96875 19.597656 C 20.695312 19.730469 20.542969 20.03125 20.605469 20.332031 C 21.140625 22.894531 22.734375 25.125 24.984375 26.449219 C 26.460938 27.316406 28.085938 27.730469 29.6875 27.730469 C 32.882812 27.730469 35.996094 26.089844 37.734375 23.144531 C 38.996094 21.003906 39.347656 18.5 38.722656 16.09375 C 38.097656 13.683594 36.574219 11.664062 34.429688 10.402344 C 32.179688 9.078125 29.457031 8.765625 26.960938 9.542969 C 26.667969 9.632812 26.476562 9.910156 26.492188 10.214844 C 26.511719 10.523438 26.734375 10.773438 27.035156 10.832031 C 27.65625 10.949219 28.246094 11.167969 28.78125 11.484375 C 30.050781 12.230469 30.953125 13.425781 31.320312 14.847656 C 31.6875 16.273438 31.480469 17.757812 30.734375 19.023438 C 29.1875 21.644531 25.804688 22.519531 23.191406 20.976562 Z M 29.648438 10.453125 C 31.054688 10.453125 32.523438 10.824219 33.757812 11.550781 C 35.59375 12.628906 36.902344 14.363281 37.433594 16.425781 C 37.96875 18.488281 37.667969 20.636719 36.585938 22.46875 C 34.351562 26.261719 29.449219 27.53125 25.660156 25.300781 C 24.402344 24.5625 23.386719 23.496094 22.703125 22.230469 C 25.921875 23.992188 30 22.886719 31.878906 19.699219 C 32.808594 18.125 33.066406 16.285156 32.609375 14.515625 C 32.167969 12.820312 31.121094 11.386719 29.648438 10.453125 Z M 29.648438 10.453125 " fill-opacity="1" fill-rule="nonzero"/><g clip-path="url(#8ee02f5727)"><path fill="#000000" d="M 12.953125 13.691406 L 15.753906 15.25 L 17.328125 18.707031 C 17.433594 18.945312 17.671875 19.097656 17.933594 19.097656 C 18.191406 19.097656 18.429688 18.945312 18.539062 18.707031 L 20.109375 15.25 L 22.910156 13.691406 C 23.121094 13.574219 23.253906 13.351562 23.253906 13.109375 C 23.253906 12.871094 23.121094 12.648438 22.910156 12.53125 L 20.109375 10.972656 L 18.539062 7.515625 C 18.429688 7.277344 18.191406 7.125 17.933594 7.125 C 17.671875 7.125 17.433594 7.277344 17.328125 7.515625 L 15.753906 10.972656 L 12.953125 12.53125 C 12.742188 12.648438 12.613281 12.871094 12.613281 13.113281 C 12.613281 13.351562 12.742188 13.574219 12.953125 13.691406 Z M 16.59375 12.03125 C 16.71875 11.960938 16.816406 11.851562 16.875 11.722656 L 17.933594 9.398438 L 18.988281 11.722656 C 19.046875 11.851562 19.148438 11.960938 19.273438 12.03125 L 21.21875 13.109375 L 19.273438 14.191406 C 19.148438 14.261719 19.046875 14.371094 18.988281 14.5 L 17.933594 16.824219 L 16.875 14.5 C 16.816406 14.371094 16.71875 14.261719 16.59375 14.191406 L 14.644531 13.109375 Z M 16.59375 12.03125 " fill-opacity="1" fill-rule="nonzero"/></g><path fill="#000000" d="M 6.328125 21.6875 L 8.761719 22.90625 L 10 25.996094 C 10.101562 26.246094 10.34375 26.414062 10.617188 26.414062 C 10.886719 26.414062 11.132812 26.246094 11.234375 25.996094 L 12.46875 22.90625 L 14.90625 21.6875 C 15.128906 21.574219 15.273438 21.34375 15.273438 21.09375 C 15.273438 20.839844 15.128906 20.609375 14.90625 20.496094 L 12.46875 19.28125 L 11.234375 16.191406 C 11.132812 15.9375 10.886719 15.773438 10.617188 15.773438 C 10.34375 15.773438 10.101562 15.9375 10 16.191406 L 8.761719 19.28125 L 6.328125 20.496094 C 6.101562 20.609375 5.960938 20.839844 5.960938 21.09375 C 5.960938 21.34375 6.101562 21.574219 6.328125 21.6875 Z M 9.582031 20.355469 C 9.730469 20.285156 9.84375 20.160156 9.902344 20.007812 L 10.617188 18.226562 L 11.328125 20.007812 C 11.390625 20.160156 11.503906 20.285156 11.648438 20.355469 L 13.121094 21.09375 L 11.648438 21.828125 C 11.503906 21.898438 11.390625 22.023438 11.328125 22.175781 L 10.617188 23.957031 L 9.902344 22.175781 C 9.84375 22.023438 9.730469 21.902344 9.582031 21.828125 L 8.113281 21.09375 Z M 9.582031 20.355469 " fill-opacity="1" fill-rule="nonzero"/><path fill="#000000" d="M 13.277344 43.707031 C 13.277344 43.890625 13.210938 44.046875 13.082031 44.175781 C 12.953125 44.304688 12.796875 44.371094 12.613281 44.371094 C 12.429688 44.371094 12.269531 44.304688 12.140625 44.175781 C 12.011719 44.046875 11.945312 43.890625 11.945312 43.707031 C 11.945312 43.523438 12.011719 43.363281 12.140625 43.234375 C 12.269531 43.105469 12.429688 43.039062 12.613281 43.039062 C 12.796875 43.039062 12.953125 43.105469 13.082031 43.234375 C 13.210938 43.363281 13.277344 43.523438 13.277344 43.707031 Z M 13.277344 43.707031 " fill-opacity="1" fill-rule="nonzero"/><g fill="#2b2b2b" fill-opacity="1"><g transform="translate(67.551951, 20.354888)"><g><path d="M 4.53125 0 L 1.453125 -10.125 C 1.359375 -10.4375 1.234375 -10.648438 1.078125 -10.765625 C 0.921875 -10.878906 0.675781 -10.9375 0.34375 -10.9375 L 0.140625 -10.9375 L 0.140625 -11.09375 L 4.421875 -11.09375 L 4.421875 -10.9375 L 4.0625 -10.9375 C 3.738281 -10.9375 3.5 -10.890625 3.34375 -10.796875 C 3.195312 -10.710938 3.125 -10.554688 3.125 -10.328125 C 3.125 -10.160156 3.164062 -9.925781 3.25 -9.625 L 4.90625 -4.15625 C 5.050781 -3.6875 5.175781 -3.207031 5.28125 -2.71875 C 5.394531 -2.238281 5.503906 -1.75 5.609375 -1.25 C 5.671875 -1.539062 5.753906 -1.898438 5.859375 -2.328125 C 5.972656 -2.765625 6.09375 -3.234375 6.21875 -3.734375 L 8.0625 -10.984375 L 8.71875 -10.984375 L 10.984375 -4.265625 C 11.203125 -3.617188 11.390625 -3.007812 11.546875 -2.4375 C 11.710938 -1.863281 11.835938 -1.40625 11.921875 -1.0625 C 11.972656 -1.289062 12.019531 -1.472656 12.0625 -1.609375 C 12.101562 -1.753906 12.144531 -1.914062 12.1875 -2.09375 C 12.226562 -2.269531 12.296875 -2.519531 12.390625 -2.84375 L 14.109375 -9.375 C 14.203125 -9.71875 14.25 -9.992188 14.25 -10.203125 C 14.25 -10.484375 14.164062 -10.675781 14 -10.78125 C 13.832031 -10.882812 13.566406 -10.9375 13.203125 -10.9375 L 12.84375 -10.9375 L 12.84375 -11.09375 L 15.859375 -11.09375 L 15.859375 -10.9375 L 15.5625 -10.9375 C 15.238281 -10.9375 14.988281 -10.847656 14.8125 -10.671875 C 14.644531 -10.503906 14.5 -10.191406 14.375 -9.734375 L 11.796875 0 L 10.875 0 L 7.78125 -9.28125 L 5.484375 0 Z M 4.53125 0 "/></g></g></g><g fill="#2b2b2b" fill-opacity="1"><g transform="translate(83.812232, 20.354888)"><g><path d="M 4.546875 0.15625 C 3.378906 0.15625 2.472656 -0.210938 1.828125 -0.953125 C 1.179688 -1.703125 0.859375 -2.753906 0.859375 -4.109375 C 0.859375 -5.554688 1.15625 -6.644531 1.75 -7.375 C 2.34375 -8.113281 3.195312 -8.484375 4.3125 -8.484375 C 5.3125 -8.484375 6.097656 -8.171875 6.671875 -7.546875 C 7.253906 -6.929688 7.546875 -6.003906 7.546875 -4.765625 L 7.546875 -4.40625 L 2.359375 -4.40625 C 2.367188 -2.8125 2.539062 -1.675781 2.875 -1 C 3.21875 -0.332031 3.789062 0 4.59375 0 C 5.164062 0 5.648438 -0.160156 6.046875 -0.484375 C 6.453125 -0.804688 6.710938 -1.28125 6.828125 -1.90625 C 6.953125 -1.882812 7.046875 -1.820312 7.109375 -1.71875 C 7.171875 -1.613281 7.203125 -1.507812 7.203125 -1.40625 C 7.203125 -1.195312 7.101562 -0.96875 6.90625 -0.71875 C 6.707031 -0.476562 6.410156 -0.269531 6.015625 -0.09375 C 5.628906 0.0703125 5.140625 0.15625 4.546875 0.15625 Z M 2.359375 -4.5625 L 5.96875 -4.5625 C 5.96875 -5.914062 5.835938 -6.878906 5.578125 -7.453125 C 5.316406 -8.035156 4.882812 -8.328125 4.28125 -8.328125 C 3.644531 -8.328125 3.175781 -8.035156 2.875 -7.453125 C 2.582031 -6.878906 2.410156 -5.914062 2.359375 -4.5625 Z M 2.359375 -4.5625 "/></g></g></g><g fill="#2b2b2b" fill-opacity="1"><g transform="translate(92.120974, 20.354888)"><g><path d="M 0.203125 0 L 0.203125 -0.15625 L 0.40625 -0.15625 C 0.863281 -0.15625 1.1875 -0.25 1.375 -0.4375 C 1.570312 -0.625 1.671875 -0.929688 1.671875 -1.359375 L 1.671875 -10.453125 C 1.671875 -10.878906 1.570312 -11.1875 1.375 -11.375 C 1.1875 -11.5625 0.863281 -11.65625 0.40625 -11.65625 L 0.203125 -11.65625 L 0.203125 -11.8125 L 3.140625 -11.8125 L 3.140625 -1.4375 C 3.140625 -0.976562 3.238281 -0.648438 3.4375 -0.453125 C 3.632812 -0.253906 3.960938 -0.15625 4.421875 -0.15625 L 4.625 -0.15625 L 4.625 0 Z M 0.203125 0 "/></g></g></g><g fill="#2b2b2b" fill-opacity="1"><g transform="translate(96.935387, 20.354888)"><g><path d="M 4.4375 0.15625 C 3.726562 0.15625 3.101562 0.015625 2.5625 -0.265625 C 2.019531 -0.554688 1.597656 -1.019531 1.296875 -1.65625 C 1.003906 -2.289062 0.859375 -3.140625 0.859375 -4.203125 C 0.859375 -5.265625 1.007812 -6.109375 1.3125 -6.734375 C 1.613281 -7.367188 2.023438 -7.816406 2.546875 -8.078125 C 3.066406 -8.347656 3.65625 -8.484375 4.3125 -8.484375 C 4.738281 -8.484375 5.160156 -8.425781 5.578125 -8.3125 C 6.003906 -8.195312 6.351562 -8.019531 6.625 -7.78125 C 6.894531 -7.550781 7.03125 -7.25 7.03125 -6.875 C 7.03125 -6.53125 6.910156 -6.285156 6.671875 -6.140625 C 6.429688 -5.992188 6.085938 -5.921875 5.640625 -5.921875 C 5.640625 -6.742188 5.546875 -7.347656 5.359375 -7.734375 C 5.179688 -8.128906 4.820312 -8.328125 4.28125 -8.328125 C 3.894531 -8.328125 3.554688 -8.210938 3.265625 -7.984375 C 2.984375 -7.753906 2.757812 -7.335938 2.59375 -6.734375 C 2.4375 -6.140625 2.359375 -5.289062 2.359375 -4.1875 C 2.359375 -3.15625 2.4375 -2.332031 2.59375 -1.71875 C 2.75 -1.113281 3 -0.675781 3.34375 -0.40625 C 3.6875 -0.132812 4.125 0 4.65625 0 C 5.175781 0 5.613281 -0.132812 5.96875 -0.40625 C 6.332031 -0.6875 6.601562 -1.195312 6.78125 -1.9375 C 7 -1.882812 7.109375 -1.722656 7.109375 -1.453125 C 7.109375 -1.203125 7.007812 -0.953125 6.8125 -0.703125 C 6.613281 -0.460938 6.3125 -0.257812 5.90625 -0.09375 C 5.507812 0.0703125 5.019531 0.15625 4.4375 0.15625 Z M 4.4375 0.15625 "/></g></g></g><g fill="#2b2b2b" fill-opacity="1"><g transform="translate(104.576316, 20.354888)"><g><path d="M 0.28125 0 L 0.28125 -0.15625 L 0.40625 -0.15625 C 0.882812 -0.15625 1.210938 -0.257812 1.390625 -0.46875 C 1.578125 -0.675781 1.671875 -1.046875 1.671875 -1.578125 L 1.671875 -10.265625 C 1.671875 -10.785156 1.582031 -11.144531 1.40625 -11.34375 C 1.238281 -11.550781 0.914062 -11.65625 0.4375 -11.65625 L 0.359375 -11.65625 L 0.359375 -11.8125 L 3.140625 -11.8125 L 3.140625 -8.671875 C 3.140625 -8.367188 3.140625 -8.066406 3.140625 -7.765625 C 3.140625 -7.472656 3.132812 -7.175781 3.125 -6.875 L 3.15625 -6.875 C 3.289062 -7.351562 3.488281 -7.707031 3.75 -7.9375 C 4.019531 -8.164062 4.304688 -8.3125 4.609375 -8.375 C 4.910156 -8.445312 5.191406 -8.484375 5.453125 -8.484375 C 6.378906 -8.484375 7.066406 -8.242188 7.515625 -7.765625 C 7.960938 -7.285156 8.1875 -6.507812 8.1875 -5.4375 L 8.1875 -1.578125 C 8.1875 -1.046875 8.269531 -0.675781 8.4375 -0.46875 C 8.601562 -0.257812 8.910156 -0.15625 9.359375 -0.15625 L 9.4375 -0.15625 L 9.4375 0 L 6.734375 0 L 6.734375 -5.96875 C 6.734375 -6.644531 6.601562 -7.191406 6.34375 -7.609375 C 6.09375 -8.035156 5.664062 -8.25 5.0625 -8.25 C 4.582031 -8.25 4.203125 -8.117188 3.921875 -7.859375 C 3.640625 -7.609375 3.4375 -7.273438 3.3125 -6.859375 C 3.195312 -6.453125 3.140625 -6.023438 3.140625 -5.578125 L 3.140625 -1.578125 C 3.140625 -1.046875 3.226562 -0.675781 3.40625 -0.46875 C 3.582031 -0.257812 3.910156 -0.15625 4.390625 -0.15625 L 4.46875 -0.15625 L 4.46875 0 Z M 0.28125 0 "/></g></g></g><g fill="#2b2b2b" fill-opacity="1"><g transform="translate(114.438084, 20.354888)"><g><path d="M 4.546875 0.15625 C 3.378906 0.15625 2.472656 -0.210938 1.828125 -0.953125 C 1.179688 -1.703125 0.859375 -2.753906 0.859375 -4.109375 C 0.859375 -5.554688 1.15625 -6.644531 1.75 -7.375 C 2.34375 -8.113281 3.195312 -8.484375 4.3125 -8.484375 C 5.3125 -8.484375 6.097656 -8.171875 6.671875 -7.546875 C 7.253906 -6.929688 7.546875 -6.003906 7.546875 -4.765625 L 7.546875 -4.40625 L 2.359375 -4.40625 C 2.367188 -2.8125 2.539062 -1.675781 2.875 -1 C 3.21875 -0.332031 3.789062 0 4.59375 0 C 5.164062 0 5.648438 -0.160156 6.046875 -0.484375 C 6.453125 -0.804688 6.710938 -1.28125 6.828125 -1.90625 C 6.953125 -1.882812 7.046875 -1.820312 7.109375 -1.71875 C 7.171875 -1.613281 7.203125 -1.507812 7.203125 -1.40625 C 7.203125 -1.195312 7.101562 -0.96875 6.90625 -0.71875 C 6.707031 -0.476562 6.410156 -0.269531 6.015625 -0.09375 C 5.628906 0.0703125 5.140625 0.15625 4.546875 0.15625 Z M 2.359375 -4.5625 L 5.96875 -4.5625 C 5.96875 -5.914062 5.835938 -6.878906 5.578125 -7.453125 C 5.316406 -8.035156 4.882812 -8.328125 4.28125 -8.328125 C 3.644531 -8.328125 3.175781 -8.035156 2.875 -7.453125 C 2.582031 -6.878906 2.410156 -5.914062 2.359375 -4.5625 Z M 2.359375 -4.5625 "/></g></g></g><g fill="#2b2b2b" fill-opacity="1"><g transform="translate(122.746826, 20.354888)"><g/></g></g><g fill="#2b2b2b" fill-opacity="1"><g transform="translate(128.271429, 20.354888)"><g><path d="M 5.625 0.15625 C 4.40625 0.15625 3.445312 -0.113281 2.75 -0.65625 C 2.050781 -1.195312 1.703125 -2.097656 1.703125 -3.359375 L 1.703125 -9.890625 C 1.703125 -10.585938 1.28125 -10.9375 0.4375 -10.9375 L 0.234375 -10.9375 L 0.234375 -11.09375 L 4.75 -11.09375 L 4.75 -10.9375 L 4.5625 -10.9375 C 3.707031 -10.9375 3.28125 -10.570312 3.28125 -9.84375 L 3.28125 -3.265625 C 3.28125 -2.429688 3.390625 -1.78125 3.609375 -1.3125 C 3.835938 -0.851562 4.144531 -0.53125 4.53125 -0.34375 C 4.925781 -0.164062 5.375 -0.078125 5.875 -0.078125 C 6.9375 -0.078125 7.769531 -0.351562 8.375 -0.90625 C 8.976562 -1.457031 9.28125 -2.222656 9.28125 -3.203125 L 9.28125 -9.890625 C 9.28125 -10.585938 8.851562 -10.9375 8 -10.9375 L 7.796875 -10.9375 L 7.796875 -11.09375 L 10.90625 -11.09375 L 10.90625 -10.9375 L 10.71875 -10.9375 C 9.863281 -10.9375 9.4375 -10.566406 9.4375 -9.828125 L 9.4375 -3.171875 C 9.4375 -2.128906 9.109375 -1.3125 8.453125 -0.71875 C 7.804688 -0.132812 6.863281 0.15625 5.625 0.15625 Z M 7.375 -12.390625 C 7.175781 -12.390625 7.007812 -12.453125 6.875 -12.578125 C 6.75 -12.710938 6.6875 -12.941406 6.6875 -13.265625 C 6.6875 -13.585938 6.75 -13.8125 6.875 -13.9375 C 7.007812 -14.0625 7.175781 -14.125 7.375 -14.125 C 7.5625 -14.125 7.722656 -14.0625 7.859375 -13.9375 C 7.992188 -13.8125 8.0625 -13.585938 8.0625 -13.265625 C 8.0625 -12.941406 7.992188 -12.710938 7.859375 -12.578125 C 7.722656 -12.453125 7.5625 -12.390625 7.375 -12.390625 Z M 4.421875 -12.390625 C 4.222656 -12.390625 4.054688 -12.453125 3.921875 -12.578125 C 3.796875 -12.710938 3.734375 -12.941406 3.734375 -13.265625 C 3.734375 -13.585938 3.796875 -13.8125 3.921875 -13.9375 C 4.054688 -14.0625 4.222656 -14.125 4.421875 -14.125 C 4.609375 -14.125 4.769531 -14.0625 4.90625 -13.9375 C 5.039062 -13.8125 5.109375 -13.585938 5.109375 -13.265625 C 5.109375 -12.941406 5.039062 -12.710938 4.90625 -12.578125 C 4.769531 -12.453125 4.609375 -12.390625 4.421875 -12.390625 Z M 4.421875 -12.390625 "/></g></g></g><g fill="#2b2b2b" fill-opacity="1"><g transform="translate(139.406687, 20.354888)"><g><path d="M 5.5625 0.15625 C 4.894531 0.15625 4.359375 -0.0351562 3.953125 -0.421875 C 3.554688 -0.804688 3.289062 -1.394531 3.15625 -2.1875 L 3.125 -2.1875 L 3.125 0 L 0.28125 0 L 0.28125 -0.15625 L 0.40625 -0.15625 C 0.863281 -0.15625 1.1875 -0.25 1.375 -0.4375 C 1.570312 -0.625 1.671875 -0.929688 1.671875 -1.359375 L 1.671875 -10.453125 C 1.671875 -10.878906 1.570312 -11.1875 1.375 -11.375 C 1.1875 -11.5625 0.863281 -11.65625 0.40625 -11.65625 L 0.359375 -11.65625 L 0.359375 -11.8125 L 3.140625 -11.8125 L 3.140625 -8.953125 C 3.140625 -8.679688 3.140625 -8.289062 3.140625 -7.78125 C 3.140625 -7.269531 3.128906 -6.734375 3.109375 -6.171875 L 3.140625 -6.171875 C 3.285156 -6.960938 3.554688 -7.546875 3.953125 -7.921875 C 4.347656 -8.296875 4.894531 -8.484375 5.59375 -8.484375 C 7.65625 -8.484375 8.6875 -7.050781 8.6875 -4.1875 C 8.6875 -2.757812 8.421875 -1.675781 7.890625 -0.9375 C 7.359375 -0.207031 6.582031 0.15625 5.5625 0.15625 Z M 5.296875 -0.078125 C 5.972656 -0.078125 6.457031 -0.390625 6.75 -1.015625 C 7.039062 -1.648438 7.1875 -2.710938 7.1875 -4.203125 C 7.1875 -5.660156 7.039062 -6.695312 6.75 -7.3125 C 6.457031 -7.9375 5.96875 -8.25 5.28125 -8.25 C 4.53125 -8.25 3.984375 -7.90625 3.640625 -7.21875 C 3.304688 -6.539062 3.140625 -5.53125 3.140625 -4.1875 C 3.140625 -2.789062 3.316406 -1.753906 3.671875 -1.078125 C 4.023438 -0.410156 4.566406 -0.078125 5.296875 -0.078125 Z M 5.296875 -0.078125 "/></g></g></g><g fill="#2b2b2b" fill-opacity="1"><g transform="translate(148.942326, 20.354888)"><g><path d="M 4.546875 0.15625 C 3.378906 0.15625 2.472656 -0.210938 1.828125 -0.953125 C 1.179688 -1.703125 0.859375 -2.753906 0.859375 -4.109375 C 0.859375 -5.554688 1.15625 -6.644531 1.75 -7.375 C 2.34375 -8.113281 3.195312 -8.484375 4.3125 -8.484375 C 5.3125 -8.484375 6.097656 -8.171875 6.671875 -7.546875 C 7.253906 -6.929688 7.546875 -6.003906 7.546875 -4.765625 L 7.546875 -4.40625 L 2.359375 -4.40625 C 2.367188 -2.8125 2.539062 -1.675781 2.875 -1 C 3.21875 -0.332031 3.789062 0 4.59375 0 C 5.164062 0 5.648438 -0.160156 6.046875 -0.484375 C 6.453125 -0.804688 6.710938 -1.28125 6.828125 -1.90625 C 6.953125 -1.882812 7.046875 -1.820312 7.109375 -1.71875 C 7.171875 -1.613281 7.203125 -1.507812 7.203125 -1.40625 C 7.203125 -1.195312 7.101562 -0.96875 6.90625 -0.71875 C 6.707031 -0.476562 6.410156 -0.269531 6.015625 -0.09375 C 5.628906 0.0703125 5.140625 0.15625 4.546875 0.15625 Z M 2.359375 -4.5625 L 5.96875 -4.5625 C 5.96875 -5.914062 5.835938 -6.878906 5.578125 -7.453125 C 5.316406 -8.035156 4.882812 -8.328125 4.28125 -8.328125 C 3.644531 -8.328125 3.175781 -8.035156 2.875 -7.453125 C 2.582031 -6.878906 2.410156 -5.914062 2.359375 -4.5625 Z M 2.359375 -4.5625 "/></g></g></g><g fill="#2b2b2b" fill-opacity="1"><g transform="translate(157.251068, 20.354888)"><g><path d="M 0.359375 0 L 0.359375 -0.15625 L 0.5625 -0.15625 C 1.019531 -0.15625 1.34375 -0.25 1.53125 -0.4375 C 1.726562 -0.625 1.828125 -0.929688 1.828125 -1.359375 L 1.828125 -6.96875 C 1.828125 -7.40625 1.726562 -7.710938 1.53125 -7.890625 C 1.34375 -8.078125 1.019531 -8.171875 0.5625 -8.171875 L 0.515625 -8.171875 L 0.515625 -8.328125 L 3.28125 -8.328125 L 3.28125 -6.78125 L 3.3125 -6.78125 C 3.382812 -7.050781 3.492188 -7.3125 3.640625 -7.5625 C 3.785156 -7.820312 4 -8.039062 4.28125 -8.21875 C 4.570312 -8.394531 4.972656 -8.484375 5.484375 -8.484375 C 5.992188 -8.484375 6.390625 -8.378906 6.671875 -8.171875 C 6.953125 -7.972656 7.09375 -7.695312 7.09375 -7.34375 C 7.09375 -7.03125 6.976562 -6.769531 6.75 -6.5625 C 6.53125 -6.351562 6.160156 -6.25 5.640625 -6.25 C 5.640625 -6.894531 5.53125 -7.335938 5.3125 -7.578125 C 5.09375 -7.816406 4.851562 -7.9375 4.59375 -7.9375 C 4.289062 -7.9375 4.050781 -7.832031 3.875 -7.625 C 3.695312 -7.414062 3.566406 -7.140625 3.484375 -6.796875 C 3.398438 -6.460938 3.347656 -6.113281 3.328125 -5.75 C 3.304688 -5.394531 3.296875 -5.066406 3.296875 -4.765625 L 3.296875 -1.4375 C 3.296875 -0.976562 3.394531 -0.648438 3.59375 -0.453125 C 3.789062 -0.253906 4.117188 -0.15625 4.578125 -0.15625 L 4.765625 -0.15625 L 4.765625 0 Z M 0.359375 0 "/></g></g></g><g fill="#2b2b2b" fill-opacity="1"><g transform="translate(164.565867, 20.354888)"><g><path d="M 0.4375 0 L 0.4375 -0.15625 L 0.5625 -0.15625 C 1.039062 -0.15625 1.367188 -0.257812 1.546875 -0.46875 C 1.734375 -0.675781 1.828125 -1.046875 1.828125 -1.578125 L 1.828125 -6.78125 C 1.828125 -7.3125 1.738281 -7.675781 1.5625 -7.875 C 1.394531 -8.070312 1.070312 -8.171875 0.59375 -8.171875 L 0.515625 -8.171875 L 0.515625 -8.328125 L 3.28125 -8.328125 L 3.28125 -6.875 L 3.3125 -6.875 C 3.445312 -7.351562 3.644531 -7.707031 3.90625 -7.9375 C 4.175781 -8.164062 4.460938 -8.3125 4.765625 -8.375 C 5.066406 -8.445312 5.347656 -8.484375 5.609375 -8.484375 C 6.535156 -8.484375 7.222656 -8.242188 7.671875 -7.765625 C 8.117188 -7.285156 8.34375 -6.507812 8.34375 -5.4375 L 8.34375 -1.578125 C 8.34375 -1.046875 8.425781 -0.675781 8.59375 -0.46875 C 8.757812 -0.257812 9.066406 -0.15625 9.515625 -0.15625 L 9.59375 -0.15625 L 9.59375 0 L 6.890625 0 L 6.890625 -5.96875 C 6.890625 -6.644531 6.757812 -7.191406 6.5 -7.609375 C 6.25 -8.035156 5.820312 -8.25 5.21875 -8.25 C 4.738281 -8.25 4.359375 -8.117188 4.078125 -7.859375 C 3.796875 -7.609375 3.59375 -7.273438 3.46875 -6.859375 C 3.351562 -6.453125 3.296875 -6.023438 3.296875 -5.578125 L 3.296875 -1.578125 C 3.296875 -1.046875 3.382812 -0.675781 3.5625 -0.46875 C 3.738281 -0.257812 4.066406 -0.15625 4.546875 -0.15625 L 4.625 -0.15625 L 4.625 0 Z M 0.4375 0 "/></g></g></g><g fill="#2b2b2b" fill-opacity="1"><g transform="translate(174.582946, 20.354888)"><g><path d="M 3.34375 0.15625 C 2.539062 0.15625 1.910156 -0.046875 1.453125 -0.453125 C 1.003906 -0.867188 0.78125 -1.429688 0.78125 -2.140625 C 0.78125 -2.941406 1.070312 -3.539062 1.65625 -3.9375 C 2.238281 -4.332031 3.128906 -4.550781 4.328125 -4.59375 L 5.609375 -4.640625 L 5.609375 -5.796875 C 5.609375 -6.378906 5.578125 -6.851562 5.515625 -7.21875 C 5.453125 -7.59375 5.316406 -7.867188 5.109375 -8.046875 C 4.898438 -8.234375 4.585938 -8.328125 4.171875 -8.328125 C 3.566406 -8.328125 3.175781 -8.140625 3 -7.765625 C 2.832031 -7.398438 2.75 -6.816406 2.75 -6.015625 C 2.3125 -6.015625 1.984375 -6.085938 1.765625 -6.234375 C 1.546875 -6.378906 1.4375 -6.617188 1.4375 -6.953125 C 1.4375 -7.328125 1.5625 -7.625 1.8125 -7.84375 C 2.0625 -8.0625 2.394531 -8.222656 2.8125 -8.328125 C 3.238281 -8.429688 3.710938 -8.484375 4.234375 -8.484375 C 5.179688 -8.484375 5.890625 -8.28125 6.359375 -7.875 C 6.835938 -7.476562 7.078125 -6.785156 7.078125 -5.796875 L 7.078125 -1.15625 C 7.078125 -0.78125 7.148438 -0.519531 7.296875 -0.375 C 7.441406 -0.226562 7.6875 -0.15625 8.03125 -0.15625 L 8.078125 -0.15625 L 8.078125 0 L 5.734375 0 L 5.734375 -1.625 L 5.703125 -1.625 C 5.535156 -1.007812 5.242188 -0.554688 4.828125 -0.265625 C 4.410156 0.015625 3.914062 0.15625 3.34375 0.15625 Z M 3.65625 -0.0625 C 4.039062 -0.0625 4.378906 -0.160156 4.671875 -0.359375 C 4.960938 -0.554688 5.191406 -0.816406 5.359375 -1.140625 C 5.523438 -1.472656 5.609375 -1.832031 5.609375 -2.21875 L 5.609375 -4.46875 L 4.625 -4.421875 C 3.738281 -4.378906 3.125 -4.175781 2.78125 -3.8125 C 2.445312 -3.445312 2.28125 -2.832031 2.28125 -1.96875 C 2.28125 -0.695312 2.738281 -0.0625 3.65625 -0.0625 Z M 3.65625 -0.0625 "/></g></g></g><g fill="#2b2b2b" fill-opacity="1"><g transform="translate(183.326535, 20.354888)"><g><path d="M 4.4375 0.15625 C 3.726562 0.15625 3.101562 0.015625 2.5625 -0.265625 C 2.019531 -0.554688 1.597656 -1.019531 1.296875 -1.65625 C 1.003906 -2.289062 0.859375 -3.140625 0.859375 -4.203125 C 0.859375 -5.265625 1.007812 -6.109375 1.3125 -6.734375 C 1.613281 -7.367188 2.023438 -7.816406 2.546875 -8.078125 C 3.066406 -8.347656 3.65625 -8.484375 4.3125 -8.484375 C 4.738281 -8.484375 5.160156 -8.425781 5.578125 -8.3125 C 6.003906 -8.195312 6.351562 -8.019531 6.625 -7.78125 C 6.894531 -7.550781 7.03125 -7.25 7.03125 -6.875 C 7.03125 -6.53125 6.910156 -6.285156 6.671875 -6.140625 C 6.429688 -5.992188 6.085938 -5.921875 5.640625 -5.921875 C 5.640625 -6.742188 5.546875 -7.347656 5.359375 -7.734375 C 5.179688 -8.128906 4.820312 -8.328125 4.28125 -8.328125 C 3.894531 -8.328125 3.554688 -8.210938 3.265625 -7.984375 C 2.984375 -7.753906 2.757812 -7.335938 2.59375 -6.734375 C 2.4375 -6.140625 2.359375 -5.289062 2.359375 -4.1875 C 2.359375 -3.15625 2.4375 -2.332031 2.59375 -1.71875 C 2.75 -1.113281 3 -0.675781 3.34375 -0.40625 C 3.6875 -0.132812 4.125 0 4.65625 0 C 5.175781 0 5.613281 -0.132812 5.96875 -0.40625 C 6.332031 -0.6875 6.601562 -1.195312 6.78125 -1.9375 C 7 -1.882812 7.109375 -1.722656 7.109375 -1.453125 C 7.109375 -1.203125 7.007812 -0.953125 6.8125 -0.703125 C 6.613281 -0.460938 6.3125 -0.257812 5.90625 -0.09375 C 5.507812 0.0703125 5.019531 0.15625 4.4375 0.15625 Z M 4.4375 0.15625 "/></g></g></g><g fill="#2b2b2b" fill-opacity="1"><g transform="translate(190.967464, 20.354888)"><g><path d="M 0.28125 0 L 0.28125 -0.15625 L 0.40625 -0.15625 C 0.882812 -0.15625 1.210938 -0.257812 1.390625 -0.46875 C 1.578125 -0.675781 1.671875 -1.046875 1.671875 -1.578125 L 1.671875 -10.265625 C 1.671875 -10.785156 1.582031 -11.144531 1.40625 -11.34375 C 1.238281 -11.550781 0.914062 -11.65625 0.4375 -11.65625 L 0.359375 -11.65625 L 0.359375 -11.8125 L 3.140625 -11.8125 L 3.140625 -8.671875 C 3.140625 -8.367188 3.140625 -8.066406 3.140625 -7.765625 C 3.140625 -7.472656 3.132812 -7.175781 3.125 -6.875 L 3.15625 -6.875 C 3.289062 -7.351562 3.488281 -7.707031 3.75 -7.9375 C 4.019531 -8.164062 4.304688 -8.3125 4.609375 -8.375 C 4.910156 -8.445312 5.191406 -8.484375 5.453125 -8.484375 C 6.378906 -8.484375 7.066406 -8.242188 7.515625 -7.765625 C 7.960938 -7.285156 8.1875 -6.507812 8.1875 -5.4375 L 8.1875 -1.578125 C 8.1875 -1.046875 8.269531 -0.675781 8.4375 -0.46875 C 8.601562 -0.257812 8.910156 -0.15625 9.359375 -0.15625 L 9.4375 -0.15625 L 9.4375 0 L 6.734375 0 L 6.734375 -5.96875 C 6.734375 -6.644531 6.601562 -7.191406 6.34375 -7.609375 C 6.09375 -8.035156 5.664062 -8.25 5.0625 -8.25 C 4.582031 -8.25 4.203125 -8.117188 3.921875 -7.859375 C 3.640625 -7.609375 3.4375 -7.273438 3.3125 -6.859375 C 3.195312 -6.453125 3.140625 -6.023438 3.140625 -5.578125 L 3.140625 -1.578125 C 3.140625 -1.046875 3.226562 -0.675781 3.40625 -0.46875 C 3.582031 -0.257812 3.910156 -0.15625 4.390625 -0.15625 L 4.46875 -0.15625 L 4.46875 0 Z M 0.28125 0 "/></g></g></g><g fill="#2b2b2b" fill-opacity="1"><g transform="translate(200.829233, 20.354888)"><g><path d="M 3.734375 0.15625 C 2.941406 0.15625 2.367188 -0.0195312 2.015625 -0.375 C 1.660156 -0.738281 1.484375 -1.363281 1.484375 -2.25 L 1.484375 -8.171875 L 0.296875 -8.171875 L 0.296875 -8.328125 C 1.035156 -8.328125 1.59375 -8.46875 1.96875 -8.75 C 2.375 -9.03125 2.644531 -9.53125 2.78125 -10.25 L 2.9375 -10.25 L 2.9375 -8.328125 L 5.109375 -8.328125 L 5.109375 -8.171875 L 2.9375 -8.171875 L 2.9375 -1.671875 C 2.9375 -0.597656 3.347656 -0.0625 4.171875 -0.0625 C 4.441406 -0.0625 4.753906 -0.125 5.109375 -0.25 L 5.109375 -0.09375 C 4.972656 -0.03125 4.769531 0.0234375 4.5 0.078125 C 4.238281 0.128906 3.984375 0.15625 3.734375 0.15625 Z M 3.734375 0.15625 "/></g></g></g><g fill="#2b2b2b" fill-opacity="1"><g transform="translate(206.295916, 20.354888)"><g><path d="M 4.40625 0.15625 C 3.476562 0.15625 2.789062 -0.0820312 2.34375 -0.5625 C 1.894531 -1.050781 1.671875 -1.828125 1.671875 -2.890625 L 1.671875 -6.78125 C 1.671875 -7.3125 1.578125 -7.675781 1.390625 -7.875 C 1.210938 -8.070312 0.882812 -8.171875 0.40625 -8.171875 L 0.359375 -8.171875 L 0.359375 -8.328125 L 3.140625 -8.328125 L 3.140625 -2.8125 C 3.140625 -1.832031 3.25 -1.128906 3.46875 -0.703125 C 3.6875 -0.273438 4.082031 -0.0625 4.65625 -0.0625 C 5.34375 -0.0625 5.859375 -0.332031 6.203125 -0.875 C 6.554688 -1.414062 6.734375 -2.191406 6.734375 -3.203125 L 6.734375 -6.78125 C 6.734375 -7.3125 6.640625 -7.675781 6.453125 -7.875 C 6.273438 -8.070312 5.941406 -8.171875 5.453125 -8.171875 L 5.40625 -8.171875 L 5.40625 -8.328125 L 8.1875 -8.328125 L 8.1875 -1.546875 C 8.1875 -1.015625 8.273438 -0.648438 8.453125 -0.453125 C 8.640625 -0.253906 8.976562 -0.15625 9.46875 -0.15625 L 9.515625 -0.15625 L 9.515625 0 L 6.84375 0 L 6.84375 -2.125 L 6.8125 -2.125 C 6.726562 -1.601562 6.59375 -1.1875 6.40625 -0.875 C 6.226562 -0.570312 6.019531 -0.347656 5.78125 -0.203125 C 5.550781 -0.0546875 5.3125 0.0351562 5.0625 0.078125 C 4.820312 0.128906 4.601562 0.15625 4.40625 0.15625 Z M 4.40625 0.15625 "/></g></g></g><g fill="#2b2b2b" fill-opacity="1"><g transform="translate(216.157684, 20.354888)"><g><path d="M 0.4375 0 L 0.4375 -0.15625 L 0.5625 -0.15625 C 1.039062 -0.15625 1.367188 -0.257812 1.546875 -0.46875 C 1.734375 -0.675781 1.828125 -1.046875 1.828125 -1.578125 L 1.828125 -6.78125 C 1.828125 -7.3125 1.738281 -7.675781 1.5625 -7.875 C 1.394531 -8.070312 1.070312 -8.171875 0.59375 -8.171875 L 0.515625 -8.171875 L 0.515625 -8.328125 L 3.28125 -8.328125 L 3.28125 -6.875 L 3.3125 -6.875 C 3.445312 -7.351562 3.644531 -7.707031 3.90625 -7.9375 C 4.175781 -8.164062 4.460938 -8.3125 4.765625 -8.375 C 5.066406 -8.445312 5.347656 -8.484375 5.609375 -8.484375 C 6.535156 -8.484375 7.222656 -8.242188 7.671875 -7.765625 C 8.117188 -7.285156 8.34375 -6.507812 8.34375 -5.4375 L 8.34375 -1.578125 C 8.34375 -1.046875 8.425781 -0.675781 8.59375 -0.46875 C 8.757812 -0.257812 9.066406 -0.15625 9.515625 -0.15625 L 9.59375 -0.15625 L 9.59375 0 L 6.890625 0 L 6.890625 -5.96875 C 6.890625 -6.644531 6.757812 -7.191406 6.5 -7.609375 C 6.25 -8.035156 5.820312 -8.25 5.21875 -8.25 C 4.738281 -8.25 4.359375 -8.117188 4.078125 -7.859375 C 3.796875 -7.609375 3.59375 -7.273438 3.46875 -6.859375 C 3.351562 -6.453125 3.296875 -6.023438 3.296875 -5.578125 L 3.296875 -1.578125 C 3.296875 -1.046875 3.382812 -0.675781 3.5625 -0.46875 C 3.738281 -0.257812 4.066406 -0.15625 4.546875 -0.15625 L 4.625 -0.15625 L 4.625 0 Z M 0.4375 0 "/></g></g></g><g fill="#2b2b2b" fill-opacity="1"><g transform="translate(226.174763, 20.354888)"><g><path d="M 3.59375 3.734375 C 2.507812 3.734375 1.695312 3.535156 1.15625 3.140625 C 0.625 2.753906 0.359375 2.238281 0.359375 1.59375 C 0.359375 1.0625 0.546875 0.628906 0.921875 0.296875 C 1.304688 -0.0234375 1.882812 -0.191406 2.65625 -0.203125 C 2.25 -0.328125 1.945312 -0.53125 1.75 -0.8125 C 1.550781 -1.09375 1.453125 -1.382812 1.453125 -1.6875 C 1.453125 -1.988281 1.550781 -2.273438 1.75 -2.546875 C 1.945312 -2.828125 2.257812 -3.039062 2.6875 -3.1875 C 2.1875 -3.363281 1.789062 -3.65625 1.5 -4.0625 C 1.207031 -4.46875 1.0625 -4.984375 1.0625 -5.609375 C 1.0625 -6.503906 1.300781 -7.207031 1.78125 -7.71875 C 2.269531 -8.226562 3.003906 -8.484375 3.984375 -8.484375 C 4.335938 -8.484375 4.660156 -8.4375 4.953125 -8.34375 C 5.242188 -8.257812 5.503906 -8.132812 5.734375 -7.96875 C 5.890625 -8.132812 6.097656 -8.316406 6.359375 -8.515625 C 6.617188 -8.710938 6.925781 -8.8125 7.28125 -8.8125 C 7.582031 -8.8125 7.804688 -8.726562 7.953125 -8.5625 C 8.097656 -8.40625 8.171875 -8.210938 8.171875 -7.984375 C 8.171875 -7.785156 8.101562 -7.617188 7.96875 -7.484375 C 7.84375 -7.347656 7.640625 -7.28125 7.359375 -7.28125 C 7.359375 -7.914062 7.128906 -8.234375 6.671875 -8.234375 C 6.535156 -8.234375 6.410156 -8.207031 6.296875 -8.15625 C 6.179688 -8.101562 6.035156 -8.007812 5.859375 -7.875 C 6.160156 -7.632812 6.390625 -7.320312 6.546875 -6.9375 C 6.703125 -6.550781 6.78125 -6.125 6.78125 -5.65625 C 6.78125 -4.894531 6.546875 -4.257812 6.078125 -3.75 C 5.617188 -3.238281 4.921875 -2.984375 3.984375 -2.984375 C 3.585938 -2.984375 3.222656 -3.03125 2.890625 -3.125 C 2.640625 -3.019531 2.46875 -2.894531 2.375 -2.75 C 2.28125 -2.601562 2.234375 -2.441406 2.234375 -2.265625 C 2.234375 -1.753906 2.617188 -1.5 3.390625 -1.5 L 5.140625 -1.5 C 6.066406 -1.5 6.726562 -1.28125 7.125 -0.84375 C 7.519531 -0.40625 7.71875 0.148438 7.71875 0.828125 C 7.71875 1.710938 7.378906 2.414062 6.703125 2.9375 C 6.035156 3.46875 5 3.734375 3.59375 3.734375 Z M 3.9375 -3.140625 C 4.4375 -3.140625 4.789062 -3.335938 5 -3.734375 C 5.207031 -4.140625 5.3125 -4.78125 5.3125 -5.65625 C 5.3125 -6.570312 5.203125 -7.242188 4.984375 -7.671875 C 4.773438 -8.109375 4.421875 -8.328125 3.921875 -8.328125 C 3.421875 -8.328125 3.0625 -8.101562 2.84375 -7.65625 C 2.625 -7.207031 2.515625 -6.535156 2.515625 -5.640625 C 2.515625 -4.785156 2.625 -4.15625 2.84375 -3.75 C 3.070312 -3.34375 3.4375 -3.140625 3.9375 -3.140625 Z M 3.71875 3.578125 C 4.695312 3.578125 5.421875 3.398438 5.890625 3.046875 C 6.359375 2.691406 6.59375 2.164062 6.59375 1.46875 C 6.59375 0.414062 6.007812 -0.109375 4.84375 -0.109375 L 3.171875 -0.109375 C 2.878906 -0.109375 2.609375 -0.0546875 2.359375 0.046875 C 2.109375 0.148438 1.90625 0.332031 1.75 0.59375 C 1.59375 0.851562 1.515625 1.207031 1.515625 1.65625 C 1.515625 2.289062 1.707031 2.769531 2.09375 3.09375 C 2.476562 3.414062 3.019531 3.578125 3.71875 3.578125 Z M 3.71875 3.578125 "/></g></g></g><g fill="#2b2b2b" fill-opacity="1"><g transform="translate(234.530087, 20.354888)"><g><path d="M 3.328125 0.15625 C 2.546875 0.15625 1.910156 0.015625 1.421875 -0.265625 C 0.941406 -0.546875 0.703125 -0.957031 0.703125 -1.5 C 0.703125 -1.769531 0.753906 -1.984375 0.859375 -2.140625 C 0.972656 -2.296875 1.109375 -2.40625 1.265625 -2.46875 C 1.421875 -2.53125 1.554688 -2.5625 1.671875 -2.5625 C 1.671875 -1.726562 1.789062 -1.09375 2.03125 -0.65625 C 2.28125 -0.21875 2.722656 0 3.359375 0 C 3.910156 0 4.34375 -0.140625 4.65625 -0.421875 C 4.976562 -0.710938 5.140625 -1.132812 5.140625 -1.6875 C 5.140625 -2.050781 5.078125 -2.335938 4.953125 -2.546875 C 4.828125 -2.765625 4.625 -2.957031 4.34375 -3.125 C 4.0625 -3.289062 3.664062 -3.484375 3.15625 -3.703125 C 2.5625 -3.960938 2.09375 -4.210938 1.75 -4.453125 C 1.414062 -4.691406 1.175781 -4.957031 1.03125 -5.25 C 0.882812 -5.539062 0.8125 -5.882812 0.8125 -6.28125 C 0.8125 -6.988281 1.054688 -7.53125 1.546875 -7.90625 C 2.046875 -8.28125 2.738281 -8.46875 3.625 -8.46875 C 4.363281 -8.46875 4.941406 -8.328125 5.359375 -8.046875 C 5.785156 -7.765625 6 -7.429688 6 -7.046875 C 6 -6.765625 5.898438 -6.535156 5.703125 -6.359375 C 5.503906 -6.191406 5.226562 -6.109375 4.875 -6.109375 C 4.875 -6.910156 4.765625 -7.476562 4.546875 -7.8125 C 4.335938 -8.144531 4.003906 -8.3125 3.546875 -8.3125 C 2.484375 -8.3125 1.953125 -7.816406 1.953125 -6.828125 C 1.953125 -6.460938 2.023438 -6.171875 2.171875 -5.953125 C 2.316406 -5.734375 2.539062 -5.546875 2.84375 -5.390625 C 3.144531 -5.234375 3.53125 -5.054688 4 -4.859375 C 4.582031 -4.628906 5.046875 -4.390625 5.390625 -4.140625 C 5.734375 -3.898438 5.972656 -3.628906 6.109375 -3.328125 C 6.253906 -3.035156 6.328125 -2.6875 6.328125 -2.28125 C 6.328125 -1.476562 6.050781 -0.867188 5.5 -0.453125 C 4.957031 -0.046875 4.234375 0.15625 3.328125 0.15625 Z M 3.328125 0.15625 "/></g></g></g><g fill="#2b2b2b" fill-opacity="1"><g transform="translate(241.534277, 20.354888)"><g><path d="M 0.4375 0 L 0.4375 -0.15625 L 0.5625 -0.15625 C 1.019531 -0.15625 1.34375 -0.25 1.53125 -0.4375 C 1.726562 -0.625 1.828125 -0.929688 1.828125 -1.359375 L 1.828125 -6.96875 C 1.828125 -7.40625 1.726562 -7.710938 1.53125 -7.890625 C 1.34375 -8.078125 1.019531 -8.171875 0.5625 -8.171875 L 0.515625 -8.171875 L 0.515625 -8.328125 L 3.28125 -8.328125 L 3.28125 -6.859375 L 3.3125 -6.859375 C 3.457031 -7.316406 3.648438 -7.660156 3.890625 -7.890625 C 4.140625 -8.117188 4.410156 -8.273438 4.703125 -8.359375 C 5.003906 -8.441406 5.3125 -8.484375 5.625 -8.484375 C 6.175781 -8.484375 6.671875 -8.347656 7.109375 -8.078125 C 7.546875 -7.816406 7.867188 -7.320312 8.078125 -6.59375 L 8.109375 -6.59375 C 8.234375 -7.15625 8.421875 -7.566406 8.671875 -7.828125 C 8.921875 -8.097656 9.195312 -8.273438 9.5 -8.359375 C 9.800781 -8.441406 10.097656 -8.484375 10.390625 -8.484375 C 12.140625 -8.484375 13.015625 -7.453125 13.015625 -5.390625 L 13.015625 -1.4375 C 13.015625 -0.976562 13.113281 -0.648438 13.3125 -0.453125 C 13.507812 -0.253906 13.832031 -0.15625 14.28125 -0.15625 L 14.328125 -0.15625 L 14.328125 0 L 11.546875 0 L 11.546875 -5.703125 C 11.546875 -6.566406 11.425781 -7.191406 11.1875 -7.578125 C 10.957031 -7.972656 10.578125 -8.171875 10.046875 -8.171875 C 9.441406 -8.171875 8.976562 -7.945312 8.65625 -7.5 C 8.34375 -7.0625 8.1875 -6.425781 8.1875 -5.59375 L 8.1875 -1.4375 C 8.1875 -0.976562 8.285156 -0.648438 8.484375 -0.453125 C 8.679688 -0.253906 9.007812 -0.15625 9.46875 -0.15625 L 9.515625 -0.15625 L 9.515625 0 L 6.734375 0 L 6.734375 -5.703125 C 6.734375 -6.566406 6.609375 -7.191406 6.359375 -7.578125 C 6.117188 -7.972656 5.722656 -8.171875 5.171875 -8.171875 C 3.921875 -8.171875 3.296875 -7.238281 3.296875 -5.375 L 3.296875 -1.4375 C 3.296875 -0.976562 3.394531 -0.648438 3.59375 -0.453125 C 3.789062 -0.253906 4.117188 -0.15625 4.578125 -0.15625 L 4.625 -0.15625 L 4.625 0 Z M 0.4375 0 "/></g></g></g><g fill="#2b2b2b" fill-opacity="1"><g transform="translate(256.210458, 20.354888)"><g><path d="M 4.46875 0.15625 C 3.34375 0.15625 2.457031 -0.195312 1.8125 -0.90625 C 1.175781 -1.625 0.859375 -2.71875 0.859375 -4.1875 C 0.859375 -5.632812 1.164062 -6.710938 1.78125 -7.421875 C 2.394531 -8.128906 3.304688 -8.484375 4.515625 -8.484375 C 5.628906 -8.484375 6.503906 -8.128906 7.140625 -7.421875 C 7.785156 -6.710938 8.109375 -5.632812 8.109375 -4.1875 C 8.109375 -2.71875 7.796875 -1.625 7.171875 -0.90625 C 6.554688 -0.195312 5.65625 0.15625 4.46875 0.15625 Z M 4.5 0 C 5.25 0 5.785156 -0.316406 6.109375 -0.953125 C 6.441406 -1.597656 6.609375 -2.675781 6.609375 -4.1875 C 6.609375 -5.675781 6.441406 -6.738281 6.109375 -7.375 C 5.785156 -8.007812 5.242188 -8.328125 4.484375 -8.328125 C 3.710938 -8.328125 3.164062 -8.007812 2.84375 -7.375 C 2.519531 -6.738281 2.359375 -5.675781 2.359375 -4.1875 C 2.359375 -2.675781 2.519531 -1.597656 2.84375 -0.953125 C 3.175781 -0.316406 3.726562 0 4.5 0 Z M 5.890625 -9.828125 C 5.691406 -9.828125 5.523438 -9.890625 5.390625 -10.015625 C 5.265625 -10.148438 5.203125 -10.378906 5.203125 -10.703125 C 5.203125 -11.023438 5.265625 -11.25 5.390625 -11.375 C 5.523438 -11.5 5.691406 -11.5625 5.890625 -11.5625 C 6.078125 -11.5625 6.238281 -11.5 6.375 -11.375 C 6.507812 -11.25 6.578125 -11.023438 6.578125 -10.703125 C 6.578125 -10.378906 6.507812 -10.148438 6.375 -10.015625 C 6.238281 -9.890625 6.078125 -9.828125 5.890625 -9.828125 Z M 2.9375 -9.828125 C 2.738281 -9.828125 2.570312 -9.890625 2.4375 -10.015625 C 2.3125 -10.148438 2.25 -10.378906 2.25 -10.703125 C 2.25 -11.023438 2.3125 -11.25 2.4375 -11.375 C 2.570312 -11.5 2.738281 -11.5625 2.9375 -11.5625 C 3.125 -11.5625 3.285156 -11.5 3.421875 -11.375 C 3.554688 -11.25 3.625 -11.023438 3.625 -10.703125 C 3.625 -10.378906 3.554688 -10.148438 3.421875 -10.015625 C 3.285156 -9.890625 3.125 -9.828125 2.9375 -9.828125 Z M 2.9375 -9.828125 "/></g></g></g><g fill="#2b2b2b" fill-opacity="1"><g transform="translate(265.171458, 20.354888)"><g><path d="M 3.59375 3.734375 C 2.507812 3.734375 1.695312 3.535156 1.15625 3.140625 C 0.625 2.753906 0.359375 2.238281 0.359375 1.59375 C 0.359375 1.0625 0.546875 0.628906 0.921875 0.296875 C 1.304688 -0.0234375 1.882812 -0.191406 2.65625 -0.203125 C 2.25 -0.328125 1.945312 -0.53125 1.75 -0.8125 C 1.550781 -1.09375 1.453125 -1.382812 1.453125 -1.6875 C 1.453125 -1.988281 1.550781 -2.273438 1.75 -2.546875 C 1.945312 -2.828125 2.257812 -3.039062 2.6875 -3.1875 C 2.1875 -3.363281 1.789062 -3.65625 1.5 -4.0625 C 1.207031 -4.46875 1.0625 -4.984375 1.0625 -5.609375 C 1.0625 -6.503906 1.300781 -7.207031 1.78125 -7.71875 C 2.269531 -8.226562 3.003906 -8.484375 3.984375 -8.484375 C 4.335938 -8.484375 4.660156 -8.4375 4.953125 -8.34375 C 5.242188 -8.257812 5.503906 -8.132812 5.734375 -7.96875 C 5.890625 -8.132812 6.097656 -8.316406 6.359375 -8.515625 C 6.617188 -8.710938 6.925781 -8.8125 7.28125 -8.8125 C 7.582031 -8.8125 7.804688 -8.726562 7.953125 -8.5625 C 8.097656 -8.40625 8.171875 -8.210938 8.171875 -7.984375 C 8.171875 -7.785156 8.101562 -7.617188 7.96875 -7.484375 C 7.84375 -7.347656 7.640625 -7.28125 7.359375 -7.28125 C 7.359375 -7.914062 7.128906 -8.234375 6.671875 -8.234375 C 6.535156 -8.234375 6.410156 -8.207031 6.296875 -8.15625 C 6.179688 -8.101562 6.035156 -8.007812 5.859375 -7.875 C 6.160156 -7.632812 6.390625 -7.320312 6.546875 -6.9375 C 6.703125 -6.550781 6.78125 -6.125 6.78125 -5.65625 C 6.78125 -4.894531 6.546875 -4.257812 6.078125 -3.75 C 5.617188 -3.238281 4.921875 -2.984375 3.984375 -2.984375 C 3.585938 -2.984375 3.222656 -3.03125 2.890625 -3.125 C 2.640625 -3.019531 2.46875 -2.894531 2.375 -2.75 C 2.28125 -2.601562 2.234375 -2.441406 2.234375 -2.265625 C 2.234375 -1.753906 2.617188 -1.5 3.390625 -1.5 L 5.140625 -1.5 C 6.066406 -1.5 6.726562 -1.28125 7.125 -0.84375 C 7.519531 -0.40625 7.71875 0.148438 7.71875 0.828125 C 7.71875 1.710938 7.378906 2.414062 6.703125 2.9375 C 6.035156 3.46875 5 3.734375 3.59375 3.734375 Z M 3.9375 -3.140625 C 4.4375 -3.140625 4.789062 -3.335938 5 -3.734375 C 5.207031 -4.140625 5.3125 -4.78125 5.3125 -5.65625 C 5.3125 -6.570312 5.203125 -7.242188 4.984375 -7.671875 C 4.773438 -8.109375 4.421875 -8.328125 3.921875 -8.328125 C 3.421875 -8.328125 3.0625 -8.101562 2.84375 -7.65625 C 2.625 -7.207031 2.515625 -6.535156 2.515625 -5.640625 C 2.515625 -4.785156 2.625 -4.15625 2.84375 -3.75 C 3.070312 -3.34375 3.4375 -3.140625 3.9375 -3.140625 Z M 3.71875 3.578125 C 4.695312 3.578125 5.421875 3.398438 5.890625 3.046875 C 6.359375 2.691406 6.59375 2.164062 6.59375 1.46875 C 6.59375 0.414062 6.007812 -0.109375 4.84375 -0.109375 L 3.171875 -0.109375 C 2.878906 -0.109375 2.609375 -0.0546875 2.359375 0.046875 C 2.109375 0.148438 1.90625 0.332031 1.75 0.59375 C 1.59375 0.851562 1.515625 1.207031 1.515625 1.65625 C 1.515625 2.289062 1.707031 2.769531 2.09375 3.09375 C 2.476562 3.414062 3.019531 3.578125 3.71875 3.578125 Z M 3.71875 3.578125 "/></g></g></g><g fill="#2b2b2b" fill-opacity="1"><g transform="translate(273.526782, 20.354888)"><g><path d="M 0.203125 0 L 0.203125 -0.15625 L 0.40625 -0.15625 C 0.863281 -0.15625 1.1875 -0.25 1.375 -0.4375 C 1.570312 -0.625 1.671875 -0.929688 1.671875 -1.359375 L 1.671875 -10.453125 C 1.671875 -10.878906 1.570312 -11.1875 1.375 -11.375 C 1.1875 -11.5625 0.863281 -11.65625 0.40625 -11.65625 L 0.203125 -11.65625 L 0.203125 -11.8125 L 3.140625 -11.8125 L 3.140625 -1.4375 C 3.140625 -0.976562 3.238281 -0.648438 3.4375 -0.453125 C 3.632812 -0.253906 3.960938 -0.15625 4.421875 -0.15625 L 4.625 -0.15625 L 4.625 0 Z M 0.203125 0 "/></g></g></g><g fill="#2b2b2b" fill-opacity="1"><g transform="translate(278.341206, 20.354888)"><g><path d="M 2.484375 -9.828125 C 2.285156 -9.828125 2.117188 -9.890625 1.984375 -10.015625 C 1.859375 -10.148438 1.796875 -10.378906 1.796875 -10.703125 C 1.796875 -11.023438 1.859375 -11.25 1.984375 -11.375 C 2.117188 -11.5 2.285156 -11.5625 2.484375 -11.5625 C 2.671875 -11.5625 2.832031 -11.5 2.96875 -11.375 C 3.101562 -11.25 3.171875 -11.023438 3.171875 -10.703125 C 3.171875 -10.378906 3.101562 -10.148438 2.96875 -10.015625 C 2.832031 -9.890625 2.671875 -9.828125 2.484375 -9.828125 Z M 0.359375 0 L 0.359375 -0.15625 L 0.5625 -0.15625 C 1.019531 -0.15625 1.34375 -0.25 1.53125 -0.4375 C 1.726562 -0.625 1.828125 -0.929688 1.828125 -1.359375 L 1.828125 -6.96875 C 1.828125 -7.40625 1.726562 -7.710938 1.53125 -7.890625 C 1.34375 -8.078125 1.019531 -8.171875 0.5625 -8.171875 L 0.515625 -8.171875 L 0.515625 -8.328125 L 3.296875 -8.328125 L 3.296875 -1.4375 C 3.296875 -0.976562 3.394531 -0.648438 3.59375 -0.453125 C 3.789062 -0.253906 4.117188 -0.15625 4.578125 -0.15625 L 4.765625 -0.15625 L 4.765625 0 Z M 0.359375 0 "/></g></g></g><g fill="#2b2b2b" fill-opacity="1"><g transform="translate(283.310918, 20.354888)"><g><path d="M 4.4375 0.15625 C 3.726562 0.15625 3.101562 0.015625 2.5625 -0.265625 C 2.019531 -0.554688 1.597656 -1.019531 1.296875 -1.65625 C 1.003906 -2.289062 0.859375 -3.140625 0.859375 -4.203125 C 0.859375 -5.265625 1.007812 -6.109375 1.3125 -6.734375 C 1.613281 -7.367188 2.023438 -7.816406 2.546875 -8.078125 C 3.066406 -8.347656 3.65625 -8.484375 4.3125 -8.484375 C 4.738281 -8.484375 5.160156 -8.425781 5.578125 -8.3125 C 6.003906 -8.195312 6.351562 -8.019531 6.625 -7.78125 C 6.894531 -7.550781 7.03125 -7.25 7.03125 -6.875 C 7.03125 -6.53125 6.910156 -6.285156 6.671875 -6.140625 C 6.429688 -5.992188 6.085938 -5.921875 5.640625 -5.921875 C 5.640625 -6.742188 5.546875 -7.347656 5.359375 -7.734375 C 5.179688 -8.128906 4.820312 -8.328125 4.28125 -8.328125 C 3.894531 -8.328125 3.554688 -8.210938 3.265625 -7.984375 C 2.984375 -7.753906 2.757812 -7.335938 2.59375 -6.734375 C 2.4375 -6.140625 2.359375 -5.289062 2.359375 -4.1875 C 2.359375 -3.15625 2.4375 -2.332031 2.59375 -1.71875 C 2.75 -1.113281 3 -0.675781 3.34375 -0.40625 C 3.6875 -0.132812 4.125 0 4.65625 0 C 5.175781 0 5.613281 -0.132812 5.96875 -0.40625 C 6.332031 -0.6875 6.601562 -1.195312 6.78125 -1.9375 C 7 -1.882812 7.109375 -1.722656 7.109375 -1.453125 C 7.109375 -1.203125 7.007812 -0.953125 6.8125 -0.703125 C 6.613281 -0.460938 6.3125 -0.257812 5.90625 -0.09375 C 5.507812 0.0703125 5.019531 0.15625 4.4375 0.15625 Z M 4.4375 0.15625 "/></g></g></g><g fill="#2b2b2b" fill-opacity="1"><g transform="translate(290.951836, 20.354888)"><g><path d="M 0.28125 0 L 0.28125 -0.15625 L 0.40625 -0.15625 C 0.882812 -0.15625 1.210938 -0.257812 1.390625 -0.46875 C 1.578125 -0.675781 1.671875 -1.046875 1.671875 -1.578125 L 1.671875 -10.265625 C 1.671875 -10.785156 1.582031 -11.144531 1.40625 -11.34375 C 1.238281 -11.550781 0.914062 -11.65625 0.4375 -11.65625 L 0.359375 -11.65625 L 0.359375 -11.8125 L 3.140625 -11.8125 L 3.140625 -8.671875 C 3.140625 -8.367188 3.140625 -8.066406 3.140625 -7.765625 C 3.140625 -7.472656 3.132812 -7.175781 3.125 -6.875 L 3.15625 -6.875 C 3.289062 -7.351562 3.488281 -7.707031 3.75 -7.9375 C 4.019531 -8.164062 4.304688 -8.3125 4.609375 -8.375 C 4.910156 -8.445312 5.191406 -8.484375 5.453125 -8.484375 C 6.378906 -8.484375 7.066406 -8.242188 7.515625 -7.765625 C 7.960938 -7.285156 8.1875 -6.507812 8.1875 -5.4375 L 8.1875 -1.578125 C 8.1875 -1.046875 8.269531 -0.675781 8.4375 -0.46875 C 8.601562 -0.257812 8.910156 -0.15625 9.359375 -0.15625 L 9.4375 -0.15625 L 9.4375 0 L 6.734375 0 L 6.734375 -5.96875 C 6.734375 -6.644531 6.601562 -7.191406 6.34375 -7.609375 C 6.09375 -8.035156 5.664062 -8.25 5.0625 -8.25 C 4.582031 -8.25 4.203125 -8.117188 3.921875 -7.859375 C 3.640625 -7.609375 3.4375 -7.273438 3.3125 -6.859375 C 3.195312 -6.453125 3.140625 -6.023438 3.140625 -5.578125 L 3.140625 -1.578125 C 3.140625 -1.046875 3.226562 -0.675781 3.40625 -0.46875 C 3.582031 -0.257812 3.910156 -0.15625 4.390625 -0.15625 L 4.46875 -0.15625 L 4.46875 0 Z M 0.28125 0 "/></g></g></g><g fill="#2b2b2b" fill-opacity="1"><g transform="translate(300.813615, 20.354888)"><g><path d="M 0.28125 0 L 0.28125 -0.15625 L 0.40625 -0.15625 C 0.863281 -0.15625 1.1875 -0.25 1.375 -0.4375 C 1.570312 -0.625 1.671875 -0.929688 1.671875 -1.359375 L 1.671875 -10.453125 C 1.671875 -10.878906 1.570312 -11.1875 1.375 -11.375 C 1.1875 -11.5625 0.863281 -11.65625 0.40625 -11.65625 L 0.359375 -11.65625 L 0.359375 -11.8125 L 3.140625 -11.8125 L 3.140625 -5.375 C 3.140625 -5.0625 3.140625 -4.753906 3.140625 -4.453125 C 3.140625 -4.148438 3.128906 -3.84375 3.109375 -3.53125 L 5.75 -6.484375 C 6.257812 -7.054688 6.515625 -7.460938 6.515625 -7.703125 C 6.515625 -7.867188 6.398438 -7.988281 6.171875 -8.0625 C 5.941406 -8.132812 5.585938 -8.171875 5.109375 -8.171875 L 5.109375 -8.328125 L 8.546875 -8.328125 L 8.546875 -8.171875 C 8.273438 -8.171875 8.039062 -8.144531 7.84375 -8.09375 C 7.65625 -8.039062 7.4375 -7.914062 7.1875 -7.71875 C 6.9375 -7.53125 6.613281 -7.210938 6.21875 -6.765625 L 5 -5.390625 L 7.40625 -1.703125 C 7.707031 -1.222656 7.957031 -0.875 8.15625 -0.65625 C 8.351562 -0.4375 8.519531 -0.296875 8.65625 -0.234375 C 8.789062 -0.179688 8.925781 -0.15625 9.0625 -0.15625 L 9.109375 -0.15625 L 9.109375 0 L 8.421875 0 C 7.816406 0 7.34375 -0.0820312 7 -0.25 C 6.65625 -0.414062 6.335938 -0.726562 6.046875 -1.1875 L 4.0625 -4.328125 L 3.140625 -3.296875 L 3.140625 -1.4375 C 3.140625 -0.976562 3.238281 -0.648438 3.4375 -0.453125 C 3.632812 -0.253906 3.960938 -0.15625 4.421875 -0.15625 L 4.46875 -0.15625 L 4.46875 0 Z M 0.28125 0 "/></g></g></g><g fill="#2b2b2b" fill-opacity="1"><g transform="translate(309.898865, 20.354888)"><g><path d="M 4.546875 0.15625 C 3.378906 0.15625 2.472656 -0.210938 1.828125 -0.953125 C 1.179688 -1.703125 0.859375 -2.753906 0.859375 -4.109375 C 0.859375 -5.554688 1.15625 -6.644531 1.75 -7.375 C 2.34375 -8.113281 3.195312 -8.484375 4.3125 -8.484375 C 5.3125 -8.484375 6.097656 -8.171875 6.671875 -7.546875 C 7.253906 -6.929688 7.546875 -6.003906 7.546875 -4.765625 L 7.546875 -4.40625 L 2.359375 -4.40625 C 2.367188 -2.8125 2.539062 -1.675781 2.875 -1 C 3.21875 -0.332031 3.789062 0 4.59375 0 C 5.164062 0 5.648438 -0.160156 6.046875 -0.484375 C 6.453125 -0.804688 6.710938 -1.28125 6.828125 -1.90625 C 6.953125 -1.882812 7.046875 -1.820312 7.109375 -1.71875 C 7.171875 -1.613281 7.203125 -1.507812 7.203125 -1.40625 C 7.203125 -1.195312 7.101562 -0.96875 6.90625 -0.71875 C 6.707031 -0.476562 6.410156 -0.269531 6.015625 -0.09375 C 5.628906 0.0703125 5.140625 0.15625 4.546875 0.15625 Z M 2.359375 -4.5625 L 5.96875 -4.5625 C 5.96875 -5.914062 5.835938 -6.878906 5.578125 -7.453125 C 5.316406 -8.035156 4.882812 -8.328125 4.28125 -8.328125 C 3.644531 -8.328125 3.175781 -8.035156 2.875 -7.453125 C 2.582031 -6.878906 2.410156 -5.914062 2.359375 -4.5625 Z M 2.359375 -4.5625 "/></g></g></g><g fill="#2b2b2b" fill-opacity="1"><g transform="translate(318.207607, 20.354888)"><g><path d="M 2.484375 -9.828125 C 2.285156 -9.828125 2.117188 -9.890625 1.984375 -10.015625 C 1.859375 -10.148438 1.796875 -10.378906 1.796875 -10.703125 C 1.796875 -11.023438 1.859375 -11.25 1.984375 -11.375 C 2.117188 -11.5 2.285156 -11.5625 2.484375 -11.5625 C 2.671875 -11.5625 2.832031 -11.5 2.96875 -11.375 C 3.101562 -11.25 3.171875 -11.023438 3.171875 -10.703125 C 3.171875 -10.378906 3.101562 -10.148438 2.96875 -10.015625 C 2.832031 -9.890625 2.671875 -9.828125 2.484375 -9.828125 Z M 0.359375 0 L 0.359375 -0.15625 L 0.5625 -0.15625 C 1.019531 -0.15625 1.34375 -0.25 1.53125 -0.4375 C 1.726562 -0.625 1.828125 -0.929688 1.828125 -1.359375 L 1.828125 -6.96875 C 1.828125 -7.40625 1.726562 -7.710938 1.53125 -7.890625 C 1.34375 -8.078125 1.019531 -8.171875 0.5625 -8.171875 L 0.515625 -8.171875 L 0.515625 -8.328125 L 3.296875 -8.328125 L 3.296875 -1.4375 C 3.296875 -0.976562 3.394531 -0.648438 3.59375 -0.453125 C 3.789062 -0.253906 4.117188 -0.15625 4.578125 -0.15625 L 4.765625 -0.15625 L 4.765625 0 Z M 0.359375 0 "/></g></g></g><g fill="#2b2b2b" fill-opacity="1"><g transform="translate(323.177319, 20.354888)"><g><path d="M 3.734375 0.15625 C 2.941406 0.15625 2.367188 -0.0195312 2.015625 -0.375 C 1.660156 -0.738281 1.484375 -1.363281 1.484375 -2.25 L 1.484375 -8.171875 L 0.296875 -8.171875 L 0.296875 -8.328125 C 1.035156 -8.328125 1.59375 -8.46875 1.96875 -8.75 C 2.375 -9.03125 2.644531 -9.53125 2.78125 -10.25 L 2.9375 -10.25 L 2.9375 -8.328125 L 5.109375 -8.328125 L 5.109375 -8.171875 L 2.9375 -8.171875 L 2.9375 -1.671875 C 2.9375 -0.597656 3.347656 -0.0625 4.171875 -0.0625 C 4.441406 -0.0625 4.753906 -0.125 5.109375 -0.25 L 5.109375 -0.09375 C 4.972656 -0.03125 4.769531 0.0234375 4.5 0.078125 C 4.238281 0.128906 3.984375 0.15625 3.734375 0.15625 Z M 3.734375 0.15625 "/></g></g></g><g fill="#2b2b2b" fill-opacity="1"><g transform="translate(328.644002, 20.354888)"><g><path d="M 4.546875 0.15625 C 3.378906 0.15625 2.472656 -0.210938 1.828125 -0.953125 C 1.179688 -1.703125 0.859375 -2.753906 0.859375 -4.109375 C 0.859375 -5.554688 1.15625 -6.644531 1.75 -7.375 C 2.34375 -8.113281 3.195312 -8.484375 4.3125 -8.484375 C 5.3125 -8.484375 6.097656 -8.171875 6.671875 -7.546875 C 7.253906 -6.929688 7.546875 -6.003906 7.546875 -4.765625 L 7.546875 -4.40625 L 2.359375 -4.40625 C 2.367188 -2.8125 2.539062 -1.675781 2.875 -1 C 3.21875 -0.332031 3.789062 0 4.59375 0 C 5.164062 0 5.648438 -0.160156 6.046875 -0.484375 C 6.453125 -0.804688 6.710938 -1.28125 6.828125 -1.90625 C 6.953125 -1.882812 7.046875 -1.820312 7.109375 -1.71875 C 7.171875 -1.613281 7.203125 -1.507812 7.203125 -1.40625 C 7.203125 -1.195312 7.101562 -0.96875 6.90625 -0.71875 C 6.707031 -0.476562 6.410156 -0.269531 6.015625 -0.09375 C 5.628906 0.0703125 5.140625 0.15625 4.546875 0.15625 Z M 2.359375 -4.5625 L 5.96875 -4.5625 C 5.96875 -5.914062 5.835938 -6.878906 5.578125 -7.453125 C 5.316406 -8.035156 4.882812 -8.328125 4.28125 -8.328125 C 3.644531 -8.328125 3.175781 -8.035156 2.875 -7.453125 C 2.582031 -6.878906 2.410156 -5.914062 2.359375 -4.5625 Z M 2.359375 -4.5625 "/></g></g></g><g fill="#2b2b2b" fill-opacity="1"><g transform="translate(336.952744, 20.354888)"><g><path d="M 0.4375 0 L 0.4375 -0.15625 L 0.5625 -0.15625 C 1.039062 -0.15625 1.367188 -0.257812 1.546875 -0.46875 C 1.734375 -0.675781 1.828125 -1.046875 1.828125 -1.578125 L 1.828125 -6.78125 C 1.828125 -7.3125 1.738281 -7.675781 1.5625 -7.875 C 1.394531 -8.070312 1.070312 -8.171875 0.59375 -8.171875 L 0.515625 -8.171875 L 0.515625 -8.328125 L 3.28125 -8.328125 L 3.28125 -6.875 L 3.3125 -6.875 C 3.445312 -7.351562 3.644531 -7.707031 3.90625 -7.9375 C 4.175781 -8.164062 4.460938 -8.3125 4.765625 -8.375 C 5.066406 -8.445312 5.347656 -8.484375 5.609375 -8.484375 C 6.535156 -8.484375 7.222656 -8.242188 7.671875 -7.765625 C 8.117188 -7.285156 8.34375 -6.507812 8.34375 -5.4375 L 8.34375 -1.578125 C 8.34375 -1.046875 8.425781 -0.675781 8.59375 -0.46875 C 8.757812 -0.257812 9.066406 -0.15625 9.515625 -0.15625 L 9.59375 -0.15625 L 9.59375 0 L 6.890625 0 L 6.890625 -5.96875 C 6.890625 -6.644531 6.757812 -7.191406 6.5 -7.609375 C 6.25 -8.035156 5.820312 -8.25 5.21875 -8.25 C 4.738281 -8.25 4.359375 -8.117188 4.078125 -7.859375 C 3.796875 -7.609375 3.59375 -7.273438 3.46875 -6.859375 C 3.351562 -6.453125 3.296875 -6.023438 3.296875 -5.578125 L 3.296875 -1.578125 C 3.296875 -1.046875 3.382812 -0.675781 3.5625 -0.46875 C 3.738281 -0.257812 4.066406 -0.15625 4.546875 -0.15625 L 4.625 -0.15625 L 4.625 0 Z M 0.4375 0 "/></g></g></g><g fill="#2b2b2b" fill-opacity="1"><g transform="translate(67.551951, 46.491739)"><g><path d="M 3.328125 0.15625 C 2.546875 0.15625 1.910156 0.015625 1.421875 -0.265625 C 0.941406 -0.546875 0.703125 -0.957031 0.703125 -1.5 C 0.703125 -1.769531 0.753906 -1.984375 0.859375 -2.140625 C 0.972656 -2.296875 1.109375 -2.40625 1.265625 -2.46875 C 1.421875 -2.53125 1.554688 -2.5625 1.671875 -2.5625 C 1.671875 -1.726562 1.789062 -1.09375 2.03125 -0.65625 C 2.28125 -0.21875 2.722656 0 3.359375 0 C 3.910156 0 4.34375 -0.140625 4.65625 -0.421875 C 4.976562 -0.710938 5.140625 -1.132812 5.140625 -1.6875 C 5.140625 -2.050781 5.078125 -2.335938 4.953125 -2.546875 C 4.828125 -2.765625 4.625 -2.957031 4.34375 -3.125 C 4.0625 -3.289062 3.664062 -3.484375 3.15625 -3.703125 C 2.5625 -3.960938 2.09375 -4.210938 1.75 -4.453125 C 1.414062 -4.691406 1.175781 -4.957031 1.03125 -5.25 C 0.882812 -5.539062 0.8125 -5.882812 0.8125 -6.28125 C 0.8125 -6.988281 1.054688 -7.53125 1.546875 -7.90625 C 2.046875 -8.28125 2.738281 -8.46875 3.625 -8.46875 C 4.363281 -8.46875 4.941406 -8.328125 5.359375 -8.046875 C 5.785156 -7.765625 6 -7.429688 6 -7.046875 C 6 -6.765625 5.898438 -6.535156 5.703125 -6.359375 C 5.503906 -6.191406 5.226562 -6.109375 4.875 -6.109375 C 4.875 -6.910156 4.765625 -7.476562 4.546875 -7.8125 C 4.335938 -8.144531 4.003906 -8.3125 3.546875 -8.3125 C 2.484375 -8.3125 1.953125 -7.816406 1.953125 -6.828125 C 1.953125 -6.460938 2.023438 -6.171875 2.171875 -5.953125 C 2.316406 -5.734375 2.539062 -5.546875 2.84375 -5.390625 C 3.144531 -5.234375 3.53125 -5.054688 4 -4.859375 C 4.582031 -4.628906 5.046875 -4.390625 5.390625 -4.140625 C 5.734375 -3.898438 5.972656 -3.628906 6.109375 -3.328125 C 6.253906 -3.035156 6.328125 -2.6875 6.328125 -2.28125 C 6.328125 -1.476562 6.050781 -0.867188 5.5 -0.453125 C 4.957031 -0.046875 4.234375 0.15625 3.328125 0.15625 Z M 3.328125 0.15625 "/></g></g></g><g fill="#2b2b2b" fill-opacity="1"><g transform="translate(74.556141, 46.491739)"><g><path d="M 2.484375 -9.828125 C 2.285156 -9.828125 2.117188 -9.890625 1.984375 -10.015625 C 1.859375 -10.148438 1.796875 -10.378906 1.796875 -10.703125 C 1.796875 -11.023438 1.859375 -11.25 1.984375 -11.375 C 2.117188 -11.5 2.285156 -11.5625 2.484375 -11.5625 C 2.671875 -11.5625 2.832031 -11.5 2.96875 -11.375 C 3.101562 -11.25 3.171875 -11.023438 3.171875 -10.703125 C 3.171875 -10.378906 3.101562 -10.148438 2.96875 -10.015625 C 2.832031 -9.890625 2.671875 -9.828125 2.484375 -9.828125 Z M 0.359375 0 L 0.359375 -0.15625 L 0.5625 -0.15625 C 1.019531 -0.15625 1.34375 -0.25 1.53125 -0.4375 C 1.726562 -0.625 1.828125 -0.929688 1.828125 -1.359375 L 1.828125 -6.96875 C 1.828125 -7.40625 1.726562 -7.710938 1.53125 -7.890625 C 1.34375 -8.078125 1.019531 -8.171875 0.5625 -8.171875 L 0.515625 -8.171875 L 0.515625 -8.328125 L 3.296875 -8.328125 L 3.296875 -1.4375 C 3.296875 -0.976562 3.394531 -0.648438 3.59375 -0.453125 C 3.789062 -0.253906 4.117188 -0.15625 4.578125 -0.15625 L 4.765625 -0.15625 L 4.765625 0 Z M 0.359375 0 "/></g></g></g><g fill="#2b2b2b" fill-opacity="1"><g transform="translate(79.525853, 46.491739)"><g><path d="M 0.4375 0 L 0.4375 -0.15625 L 0.5625 -0.15625 C 1.039062 -0.15625 1.367188 -0.257812 1.546875 -0.46875 C 1.734375 -0.675781 1.828125 -1.046875 1.828125 -1.578125 L 1.828125 -6.78125 C 1.828125 -7.3125 1.738281 -7.675781 1.5625 -7.875 C 1.394531 -8.070312 1.070312 -8.171875 0.59375 -8.171875 L 0.515625 -8.171875 L 0.515625 -8.328125 L 3.28125 -8.328125 L 3.28125 -6.875 L 3.3125 -6.875 C 3.445312 -7.351562 3.644531 -7.707031 3.90625 -7.9375 C 4.175781 -8.164062 4.460938 -8.3125 4.765625 -8.375 C 5.066406 -8.445312 5.347656 -8.484375 5.609375 -8.484375 C 6.535156 -8.484375 7.222656 -8.242188 7.671875 -7.765625 C 8.117188 -7.285156 8.34375 -6.507812 8.34375 -5.4375 L 8.34375 -1.578125 C 8.34375 -1.046875 8.425781 -0.675781 8.59375 -0.46875 C 8.757812 -0.257812 9.066406 -0.15625 9.515625 -0.15625 L 9.59375 -0.15625 L 9.59375 0 L 6.890625 0 L 6.890625 -5.96875 C 6.890625 -6.644531 6.757812 -7.191406 6.5 -7.609375 C 6.25 -8.035156 5.820312 -8.25 5.21875 -8.25 C 4.738281 -8.25 4.359375 -8.117188 4.078125 -7.859375 C 3.796875 -7.609375 3.59375 -7.273438 3.46875 -6.859375 C 3.351562 -6.453125 3.296875 -6.023438 3.296875 -5.578125 L 3.296875 -1.578125 C 3.296875 -1.046875 3.382812 -0.675781 3.5625 -0.46875 C 3.738281 -0.257812 4.066406 -0.15625 4.546875 -0.15625 L 4.625 -0.15625 L 4.625 0 Z M 0.4375 0 "/></g></g></g><g fill="#2b2b2b" fill-opacity="1"><g transform="translate(89.542932, 46.491739)"><g><path d="M 3.984375 0.15625 C 2.960938 0.15625 2.1875 -0.207031 1.65625 -0.9375 C 1.125 -1.675781 0.859375 -2.757812 0.859375 -4.1875 C 0.859375 -7.050781 1.890625 -8.484375 3.953125 -8.484375 C 4.648438 -8.484375 5.195312 -8.296875 5.59375 -7.921875 C 5.988281 -7.546875 6.257812 -6.960938 6.40625 -6.171875 L 6.4375 -6.171875 C 6.414062 -6.734375 6.40625 -7.269531 6.40625 -7.78125 C 6.40625 -8.289062 6.40625 -8.679688 6.40625 -8.953125 L 6.40625 -10.453125 C 6.40625 -10.878906 6.304688 -11.1875 6.109375 -11.375 C 5.910156 -11.5625 5.582031 -11.65625 5.125 -11.65625 L 5.078125 -11.65625 L 5.078125 -11.8125 L 7.859375 -11.8125 L 7.859375 -1.359375 C 7.859375 -0.929688 7.957031 -0.625 8.15625 -0.4375 C 8.351562 -0.25 8.679688 -0.15625 9.140625 -0.15625 L 9.265625 -0.15625 L 9.265625 0 L 6.421875 0 L 6.421875 -2.1875 L 6.390625 -2.1875 C 6.253906 -1.394531 5.984375 -0.804688 5.578125 -0.421875 C 5.179688 -0.0351562 4.648438 0.15625 3.984375 0.15625 Z M 4.25 -0.078125 C 4.976562 -0.078125 5.519531 -0.410156 5.875 -1.078125 C 6.226562 -1.753906 6.40625 -2.789062 6.40625 -4.1875 C 6.40625 -5.53125 6.234375 -6.539062 5.890625 -7.21875 C 5.554688 -7.90625 5.015625 -8.25 4.265625 -8.25 C 3.578125 -8.25 3.085938 -7.9375 2.796875 -7.3125 C 2.503906 -6.695312 2.359375 -5.660156 2.359375 -4.203125 C 2.359375 -2.710938 2.503906 -1.648438 2.796875 -1.015625 C 3.085938 -0.390625 3.570312 -0.078125 4.25 -0.078125 Z M 4.25 -0.078125 "/></g></g></g><g fill="#2b2b2b" fill-opacity="1"><g transform="translate(99.078571, 46.491739)"><g/></g></g><g fill="#2b2b2b" fill-opacity="1"><g transform="translate(102.5729, 46.491739)"><g><path d="M 3.71875 0 L 1.046875 -7.359375 C 0.929688 -7.660156 0.800781 -7.867188 0.65625 -7.984375 C 0.519531 -8.109375 0.320312 -8.171875 0.0625 -8.171875 L 0.0625 -8.328125 L 3.953125 -8.328125 L 3.953125 -8.171875 L 3.578125 -8.171875 C 3.242188 -8.171875 2.992188 -8.125 2.828125 -8.03125 C 2.671875 -7.945312 2.59375 -7.800781 2.59375 -7.59375 C 2.59375 -7.425781 2.648438 -7.179688 2.765625 -6.859375 L 4 -3.421875 C 4.132812 -3.046875 4.25 -2.710938 4.34375 -2.421875 C 4.445312 -2.140625 4.546875 -1.859375 4.640625 -1.578125 C 4.734375 -1.296875 4.84375 -0.957031 4.96875 -0.5625 C 5.0625 -0.851562 5.144531 -1.113281 5.21875 -1.34375 C 5.300781 -1.570312 5.40625 -1.863281 5.53125 -2.21875 L 7.109375 -6.765625 C 7.160156 -6.929688 7.203125 -7.078125 7.234375 -7.203125 C 7.265625 -7.328125 7.28125 -7.441406 7.28125 -7.546875 C 7.28125 -7.773438 7.1875 -7.9375 7 -8.03125 C 6.820312 -8.125 6.535156 -8.171875 6.140625 -8.171875 L 5.625 -8.171875 L 5.625 -8.328125 L 8.953125 -8.328125 L 8.953125 -8.171875 L 8.515625 -8.171875 C 8.222656 -8.171875 7.992188 -8.082031 7.828125 -7.90625 C 7.660156 -7.738281 7.5 -7.425781 7.34375 -6.96875 L 4.9375 0 Z M 3.71875 0 "/></g></g></g><g fill="#2b2b2b" fill-opacity="1"><g transform="translate(111.564975, 46.491739)"><g><path d="M 4.46875 0.15625 C 3.34375 0.15625 2.457031 -0.195312 1.8125 -0.90625 C 1.175781 -1.625 0.859375 -2.71875 0.859375 -4.1875 C 0.859375 -5.632812 1.164062 -6.710938 1.78125 -7.421875 C 2.394531 -8.128906 3.304688 -8.484375 4.515625 -8.484375 C 5.628906 -8.484375 6.503906 -8.128906 7.140625 -7.421875 C 7.785156 -6.710938 8.109375 -5.632812 8.109375 -4.1875 C 8.109375 -2.71875 7.796875 -1.625 7.171875 -0.90625 C 6.554688 -0.195312 5.65625 0.15625 4.46875 0.15625 Z M 4.5 0 C 5.25 0 5.785156 -0.316406 6.109375 -0.953125 C 6.441406 -1.597656 6.609375 -2.675781 6.609375 -4.1875 C 6.609375 -5.675781 6.441406 -6.738281 6.109375 -7.375 C 5.785156 -8.007812 5.242188 -8.328125 4.484375 -8.328125 C 3.710938 -8.328125 3.164062 -8.007812 2.84375 -7.375 C 2.519531 -6.738281 2.359375 -5.675781 2.359375 -4.1875 C 2.359375 -2.675781 2.519531 -1.597656 2.84375 -0.953125 C 3.175781 -0.316406 3.726562 0 4.5 0 Z M 4.5 0 "/></g></g></g><g fill="#2b2b2b" fill-opacity="1"><g transform="translate(120.525987, 46.491739)"><g><path d="M 0.359375 0 L 0.359375 -0.15625 L 0.5625 -0.15625 C 1.019531 -0.15625 1.34375 -0.25 1.53125 -0.4375 C 1.726562 -0.625 1.828125 -0.929688 1.828125 -1.359375 L 1.828125 -6.96875 C 1.828125 -7.40625 1.726562 -7.710938 1.53125 -7.890625 C 1.34375 -8.078125 1.019531 -8.171875 0.5625 -8.171875 L 0.515625 -8.171875 L 0.515625 -8.328125 L 3.28125 -8.328125 L 3.28125 -6.78125 L 3.3125 -6.78125 C 3.382812 -7.050781 3.492188 -7.3125 3.640625 -7.5625 C 3.785156 -7.820312 4 -8.039062 4.28125 -8.21875 C 4.570312 -8.394531 4.972656 -8.484375 5.484375 -8.484375 C 5.992188 -8.484375 6.390625 -8.378906 6.671875 -8.171875 C 6.953125 -7.972656 7.09375 -7.695312 7.09375 -7.34375 C 7.09375 -7.03125 6.976562 -6.769531 6.75 -6.5625 C 6.53125 -6.351562 6.160156 -6.25 5.640625 -6.25 C 5.640625 -6.894531 5.53125 -7.335938 5.3125 -7.578125 C 5.09375 -7.816406 4.851562 -7.9375 4.59375 -7.9375 C 4.289062 -7.9375 4.050781 -7.832031 3.875 -7.625 C 3.695312 -7.414062 3.566406 -7.140625 3.484375 -6.796875 C 3.398438 -6.460938 3.347656 -6.113281 3.328125 -5.75 C 3.304688 -5.394531 3.296875 -5.066406 3.296875 -4.765625 L 3.296875 -1.4375 C 3.296875 -0.976562 3.394531 -0.648438 3.59375 -0.453125 C 3.789062 -0.253906 4.117188 -0.15625 4.578125 -0.15625 L 4.765625 -0.15625 L 4.765625 0 Z M 0.359375 0 "/></g></g></g><g fill="#2b2b2b" fill-opacity="1"><g transform="translate(127.840787, 46.491739)"><g><path d="M 0.28125 0 L 0.28125 -0.15625 L 0.40625 -0.15625 C 0.882812 -0.15625 1.210938 -0.257812 1.390625 -0.46875 C 1.578125 -0.675781 1.671875 -1.046875 1.671875 -1.578125 L 1.671875 -10.265625 C 1.671875 -10.785156 1.582031 -11.144531 1.40625 -11.34375 C 1.238281 -11.550781 0.914062 -11.65625 0.4375 -11.65625 L 0.359375 -11.65625 L 0.359375 -11.8125 L 3.140625 -11.8125 L 3.140625 -8.671875 C 3.140625 -8.367188 3.140625 -8.066406 3.140625 -7.765625 C 3.140625 -7.472656 3.132812 -7.175781 3.125 -6.875 L 3.15625 -6.875 C 3.289062 -7.351562 3.488281 -7.707031 3.75 -7.9375 C 4.019531 -8.164062 4.304688 -8.3125 4.609375 -8.375 C 4.910156 -8.445312 5.191406 -8.484375 5.453125 -8.484375 C 6.378906 -8.484375 7.066406 -8.242188 7.515625 -7.765625 C 7.960938 -7.285156 8.1875 -6.507812 8.1875 -5.4375 L 8.1875 -1.578125 C 8.1875 -1.046875 8.269531 -0.675781 8.4375 -0.46875 C 8.601562 -0.257812 8.910156 -0.15625 9.359375 -0.15625 L 9.4375 -0.15625 L 9.4375 0 L 6.734375 0 L 6.734375 -5.96875 C 6.734375 -6.644531 6.601562 -7.191406 6.34375 -7.609375 C 6.09375 -8.035156 5.664062 -8.25 5.0625 -8.25 C 4.582031 -8.25 4.203125 -8.117188 3.921875 -7.859375 C 3.640625 -7.609375 3.4375 -7.273438 3.3125 -6.859375 C 3.195312 -6.453125 3.140625 -6.023438 3.140625 -5.578125 L 3.140625 -1.578125 C 3.140625 -1.046875 3.226562 -0.675781 3.40625 -0.46875 C 3.582031 -0.257812 3.910156 -0.15625 4.390625 -0.15625 L 4.46875 -0.15625 L 4.46875 0 Z M 0.28125 0 "/></g></g></g><g fill="#2b2b2b" fill-opacity="1"><g transform="translate(137.702555, 46.491739)"><g><path d="M 3.34375 0.15625 C 2.539062 0.15625 1.910156 -0.046875 1.453125 -0.453125 C 1.003906 -0.867188 0.78125 -1.429688 0.78125 -2.140625 C 0.78125 -2.941406 1.070312 -3.539062 1.65625 -3.9375 C 2.238281 -4.332031 3.128906 -4.550781 4.328125 -4.59375 L 5.609375 -4.640625 L 5.609375 -5.796875 C 5.609375 -6.378906 5.578125 -6.851562 5.515625 -7.21875 C 5.453125 -7.59375 5.316406 -7.867188 5.109375 -8.046875 C 4.898438 -8.234375 4.585938 -8.328125 4.171875 -8.328125 C 3.566406 -8.328125 3.175781 -8.140625 3 -7.765625 C 2.832031 -7.398438 2.75 -6.816406 2.75 -6.015625 C 2.3125 -6.015625 1.984375 -6.085938 1.765625 -6.234375 C 1.546875 -6.378906 1.4375 -6.617188 1.4375 -6.953125 C 1.4375 -7.328125 1.5625 -7.625 1.8125 -7.84375 C 2.0625 -8.0625 2.394531 -8.222656 2.8125 -8.328125 C 3.238281 -8.429688 3.710938 -8.484375 4.234375 -8.484375 C 5.179688 -8.484375 5.890625 -8.28125 6.359375 -7.875 C 6.835938 -7.476562 7.078125 -6.785156 7.078125 -5.796875 L 7.078125 -1.15625 C 7.078125 -0.78125 7.148438 -0.519531 7.296875 -0.375 C 7.441406 -0.226562 7.6875 -0.15625 8.03125 -0.15625 L 8.078125 -0.15625 L 8.078125 0 L 5.734375 0 L 5.734375 -1.625 L 5.703125 -1.625 C 5.535156 -1.007812 5.242188 -0.554688 4.828125 -0.265625 C 4.410156 0.015625 3.914062 0.15625 3.34375 0.15625 Z M 3.65625 -0.0625 C 4.039062 -0.0625 4.378906 -0.160156 4.671875 -0.359375 C 4.960938 -0.554688 5.191406 -0.816406 5.359375 -1.140625 C 5.523438 -1.472656 5.609375 -1.832031 5.609375 -2.21875 L 5.609375 -4.46875 L 4.625 -4.421875 C 3.738281 -4.378906 3.125 -4.175781 2.78125 -3.8125 C 2.445312 -3.445312 2.28125 -2.832031 2.28125 -1.96875 C 2.28125 -0.695312 2.738281 -0.0625 3.65625 -0.0625 Z M 3.65625 -0.0625 "/></g></g></g><g fill="#2b2b2b" fill-opacity="1"><g transform="translate(146.446144, 46.491739)"><g><path d="M 0.4375 0 L 0.4375 -0.15625 L 0.5625 -0.15625 C 1.039062 -0.15625 1.367188 -0.257812 1.546875 -0.46875 C 1.734375 -0.675781 1.828125 -1.046875 1.828125 -1.578125 L 1.828125 -6.78125 C 1.828125 -7.3125 1.738281 -7.675781 1.5625 -7.875 C 1.394531 -8.070312 1.070312 -8.171875 0.59375 -8.171875 L 0.515625 -8.171875 L 0.515625 -8.328125 L 3.28125 -8.328125 L 3.28125 -6.875 L 3.3125 -6.875 C 3.445312 -7.351562 3.644531 -7.707031 3.90625 -7.9375 C 4.175781 -8.164062 4.460938 -8.3125 4.765625 -8.375 C 5.066406 -8.445312 5.347656 -8.484375 5.609375 -8.484375 C 6.535156 -8.484375 7.222656 -8.242188 7.671875 -7.765625 C 8.117188 -7.285156 8.34375 -6.507812 8.34375 -5.4375 L 8.34375 -1.578125 C 8.34375 -1.046875 8.425781 -0.675781 8.59375 -0.46875 C 8.757812 -0.257812 9.066406 -0.15625 9.515625 -0.15625 L 9.59375 -0.15625 L 9.59375 0 L 6.890625 0 L 6.890625 -5.96875 C 6.890625 -6.644531 6.757812 -7.191406 6.5 -7.609375 C 6.25 -8.035156 5.820312 -8.25 5.21875 -8.25 C 4.738281 -8.25 4.359375 -8.117188 4.078125 -7.859375 C 3.796875 -7.609375 3.59375 -7.273438 3.46875 -6.859375 C 3.351562 -6.453125 3.296875 -6.023438 3.296875 -5.578125 L 3.296875 -1.578125 C 3.296875 -1.046875 3.382812 -0.675781 3.5625 -0.46875 C 3.738281 -0.257812 4.066406 -0.15625 4.546875 -0.15625 L 4.625 -0.15625 L 4.625 0 Z M 0.4375 0 "/></g></g></g><g fill="#2b2b2b" fill-opacity="1"><g transform="translate(156.463223, 46.491739)"><g><path d="M 3.984375 0.15625 C 2.960938 0.15625 2.1875 -0.207031 1.65625 -0.9375 C 1.125 -1.675781 0.859375 -2.757812 0.859375 -4.1875 C 0.859375 -7.050781 1.890625 -8.484375 3.953125 -8.484375 C 4.648438 -8.484375 5.195312 -8.296875 5.59375 -7.921875 C 5.988281 -7.546875 6.257812 -6.960938 6.40625 -6.171875 L 6.4375 -6.171875 C 6.414062 -6.734375 6.40625 -7.269531 6.40625 -7.78125 C 6.40625 -8.289062 6.40625 -8.679688 6.40625 -8.953125 L 6.40625 -10.453125 C 6.40625 -10.878906 6.304688 -11.1875 6.109375 -11.375 C 5.910156 -11.5625 5.582031 -11.65625 5.125 -11.65625 L 5.078125 -11.65625 L 5.078125 -11.8125 L 7.859375 -11.8125 L 7.859375 -1.359375 C 7.859375 -0.929688 7.957031 -0.625 8.15625 -0.4375 C 8.351562 -0.25 8.679688 -0.15625 9.140625 -0.15625 L 9.265625 -0.15625 L 9.265625 0 L 6.421875 0 L 6.421875 -2.1875 L 6.390625 -2.1875 C 6.253906 -1.394531 5.984375 -0.804688 5.578125 -0.421875 C 5.179688 -0.0351562 4.648438 0.15625 3.984375 0.15625 Z M 4.25 -0.078125 C 4.976562 -0.078125 5.519531 -0.410156 5.875 -1.078125 C 6.226562 -1.753906 6.40625 -2.789062 6.40625 -4.1875 C 6.40625 -5.53125 6.234375 -6.539062 5.890625 -7.21875 C 5.554688 -7.90625 5.015625 -8.25 4.265625 -8.25 C 3.578125 -8.25 3.085938 -7.9375 2.796875 -7.3125 C 2.503906 -6.695312 2.359375 -5.660156 2.359375 -4.203125 C 2.359375 -2.710938 2.503906 -1.648438 2.796875 -1.015625 C 3.085938 -0.390625 3.570312 -0.078125 4.25 -0.078125 Z M 4.25 -0.078125 "/></g></g></g><g fill="#2b2b2b" fill-opacity="1"><g transform="translate(165.998862, 46.491739)"><g><path d="M 4.546875 0.15625 C 3.378906 0.15625 2.472656 -0.210938 1.828125 -0.953125 C 1.179688 -1.703125 0.859375 -2.753906 0.859375 -4.109375 C 0.859375 -5.554688 1.15625 -6.644531 1.75 -7.375 C 2.34375 -8.113281 3.195312 -8.484375 4.3125 -8.484375 C 5.3125 -8.484375 6.097656 -8.171875 6.671875 -7.546875 C 7.253906 -6.929688 7.546875 -6.003906 7.546875 -4.765625 L 7.546875 -4.40625 L 2.359375 -4.40625 C 2.367188 -2.8125 2.539062 -1.675781 2.875 -1 C 3.21875 -0.332031 3.789062 0 4.59375 0 C 5.164062 0 5.648438 -0.160156 6.046875 -0.484375 C 6.453125 -0.804688 6.710938 -1.28125 6.828125 -1.90625 C 6.953125 -1.882812 7.046875 -1.820312 7.109375 -1.71875 C 7.171875 -1.613281 7.203125 -1.507812 7.203125 -1.40625 C 7.203125 -1.195312 7.101562 -0.96875 6.90625 -0.71875 C 6.707031 -0.476562 6.410156 -0.269531 6.015625 -0.09375 C 5.628906 0.0703125 5.140625 0.15625 4.546875 0.15625 Z M 2.359375 -4.5625 L 5.96875 -4.5625 C 5.96875 -5.914062 5.835938 -6.878906 5.578125 -7.453125 C 5.316406 -8.035156 4.882812 -8.328125 4.28125 -8.328125 C 3.644531 -8.328125 3.175781 -8.035156 2.875 -7.453125 C 2.582031 -6.878906 2.410156 -5.914062 2.359375 -4.5625 Z M 2.359375 -4.5625 "/></g></g></g><g fill="#2b2b2b" fill-opacity="1"><g transform="translate(174.307604, 46.491739)"><g><path d="M 0.4375 0 L 0.4375 -0.15625 L 0.5625 -0.15625 C 1.039062 -0.15625 1.367188 -0.257812 1.546875 -0.46875 C 1.734375 -0.675781 1.828125 -1.046875 1.828125 -1.578125 L 1.828125 -6.78125 C 1.828125 -7.3125 1.738281 -7.675781 1.5625 -7.875 C 1.394531 -8.070312 1.070312 -8.171875 0.59375 -8.171875 L 0.515625 -8.171875 L 0.515625 -8.328125 L 3.28125 -8.328125 L 3.28125 -6.875 L 3.3125 -6.875 C 3.445312 -7.351562 3.644531 -7.707031 3.90625 -7.9375 C 4.175781 -8.164062 4.460938 -8.3125 4.765625 -8.375 C 5.066406 -8.445312 5.347656 -8.484375 5.609375 -8.484375 C 6.535156 -8.484375 7.222656 -8.242188 7.671875 -7.765625 C 8.117188 -7.285156 8.34375 -6.507812 8.34375 -5.4375 L 8.34375 -1.578125 C 8.34375 -1.046875 8.425781 -0.675781 8.59375 -0.46875 C 8.757812 -0.257812 9.066406 -0.15625 9.515625 -0.15625 L 9.59375 -0.15625 L 9.59375 0 L 6.890625 0 L 6.890625 -5.96875 C 6.890625 -6.644531 6.757812 -7.191406 6.5 -7.609375 C 6.25 -8.035156 5.820312 -8.25 5.21875 -8.25 C 4.738281 -8.25 4.359375 -8.117188 4.078125 -7.859375 C 3.796875 -7.609375 3.59375 -7.273438 3.46875 -6.859375 C 3.351562 -6.453125 3.296875 -6.023438 3.296875 -5.578125 L 3.296875 -1.578125 C 3.296875 -1.046875 3.382812 -0.675781 3.5625 -0.46875 C 3.738281 -0.257812 4.066406 -0.15625 4.546875 -0.15625 L 4.625 -0.15625 L 4.625 0 Z M 0.4375 0 "/></g></g></g><g fill="#2b2b2b" fill-opacity="1"><g transform="translate(184.324683, 46.491739)"><g><path d="M 3.375 -3.125 L 3.140625 -5.21875 C 3.929688 -5.289062 4.503906 -5.554688 4.859375 -6.015625 C 5.210938 -6.484375 5.390625 -7.238281 5.390625 -8.28125 C 5.390625 -9.226562 5.253906 -9.929688 4.984375 -10.390625 C 4.722656 -10.859375 4.28125 -11.09375 3.65625 -11.09375 C 3.082031 -11.09375 2.65625 -10.890625 2.375 -10.484375 C 2.09375 -10.078125 1.953125 -9.414062 1.953125 -8.5 C 1.585938 -8.5 1.28125 -8.585938 1.03125 -8.765625 C 0.789062 -8.953125 0.671875 -9.222656 0.671875 -9.578125 C 0.671875 -10.054688 0.921875 -10.453125 1.421875 -10.765625 C 1.929688 -11.085938 2.644531 -11.25 3.5625 -11.25 C 4.625 -11.25 5.457031 -11.003906 6.0625 -10.515625 C 6.675781 -10.035156 6.984375 -9.332031 6.984375 -8.40625 C 6.984375 -7.601562 6.722656 -6.929688 6.203125 -6.390625 C 5.691406 -5.859375 4.90625 -5.457031 3.84375 -5.1875 L 3.609375 -3.125 Z M 3.46875 0.109375 C 2.90625 0.109375 2.625 -0.242188 2.625 -0.953125 C 2.625 -1.648438 2.90625 -2 3.46875 -2 C 4.03125 -2 4.3125 -1.648438 4.3125 -0.953125 C 4.3125 -0.242188 4.03125 0.109375 3.46875 0.109375 Z M 3.46875 0.109375 "/></g></g></g></svg>