<?xml version="1.0" standalone="no"?>
<!DOCTYPE svg PUBLIC "-//W3C//DTD SVG 20010904//EN"
 "http://www.w3.org/TR/2001/REC-SVG-20010904/DTD/svg10.dtd">
<svg version="1.0" xmlns="http://www.w3.org/2000/svg"
 width="739.000000pt" height="416.000000pt" viewBox="0 0 739.000000 416.000000"
 preserveAspectRatio="xMidYMid meet">
<metadata>
Created by potrace 1.16, written by Peter Selinger 2001-2019
</metadata>
<g transform="translate(0.000000,416.000000) scale(0.100000,-0.100000)"
fill="#000000" stroke="none">
<path d="M2748 3186 c-47 -13 -78 -31 -78 -47 0 -4 19 1 43 11 40 19 128 26
160 14 13 -4 10 -13 -13 -47 -15 -23 -76 -136 -135 -252 -123 -240 -162 -302
-241 -378 -92 -89 -166 -99 -206 -30 -24 40 -37 29 -16 -14 7 -15 30 -36 52
-47 34 -17 44 -17 95 -6 50 11 64 21 126 84 82 83 145 185 274 446 51 102 100
193 110 203 16 16 24 17 57 8 51 -14 83 -14 113 2 37 18 40 40 4 26 -32 -12
-102 -5 -163 16 -62 22 -130 26 -182 11z"/>
<path d="M3705 3082 c-81 -28 -165 -78 -239 -142 -49 -42 -78 -60 -97 -60 -83
0 -203 -45 -248 -94 -33 -35 -8 -33 37 4 42 33 98 55 168 66 56 8 56 9 -30
-91 -34 -39 -86 -107 -116 -153 -45 -67 -64 -86 -105 -107 -124 -61 -143 -39
-60 71 63 84 69 117 23 122 -28 3 -83 -18 -130 -50 -33 -23 -41 -23 -34 0 4
10 -1 27 -9 38 -18 22 -8 33 -91 -100 -64 -103 -68 -113 -45 -125 15 -8 26 0
67 50 71 87 198 178 219 157 2 -2 -14 -26 -36 -53 -72 -88 -82 -137 -33 -155
21 -8 87 4 135 24 11 5 4 -17 -23 -71 -28 -55 -38 -87 -36 -113 3 -33 5 -35
41 -38 33 -3 42 2 86 47 28 28 60 69 72 91 14 24 30 40 41 40 29 0 91 29 118
55 l25 24 0 -37 c0 -33 3 -37 25 -35 122 7 237 53 308 123 20 20 51 42 67 49
l30 13 -26 -29 c-47 -49 -79 -105 -79 -136 0 -29 0 -30 46 -24 25 2 72 18 105
35 l58 30 3 -26 c4 -37 30 -38 50 -4 23 38 114 133 156 161 l32 22 -31 -49
c-33 -53 -37 -104 -9 -110 9 -1 49 23 90 55 65 50 71 52 43 21 -36 -42 -51
-92 -33 -113 20 -24 80 -17 136 14 49 26 52 27 63 9 6 -10 23 -18 40 -18 28 0
94 37 120 68 12 15 13 15 6 -3 -37 -98 13 -122 128 -63 34 18 65 34 70 36 4 2
7 -7 7 -20 0 -56 57 -63 146 -18 69 35 65 34 58 16 -3 -7 3 -21 12 -31 28 -27
86 -13 181 46 l35 22 -7 -21 c-3 -12 -3 -31 0 -43 6 -17 12 -20 38 -15 18 4
55 11 83 15 28 5 72 18 96 29 45 20 46 20 40 0 -3 -11 1 -24 9 -29 10 -6 36
15 93 77 73 80 161 141 188 132 6 -2 -1 -17 -15 -33 -81 -97 -99 -157 -52
-175 31 -12 106 3 152 30 31 18 31 18 37 -5 13 -52 105 -57 199 -10 57 29 61
30 53 10 -3 -8 2 -19 13 -24 15 -8 26 0 67 50 71 87 198 178 219 157 2 -2 -16
-29 -41 -61 -79 -99 -77 -153 7 -150 47 2 154 50 184 83 27 30 1 25 -46 -9
-45 -33 -133 -66 -149 -56 -18 11 -11 27 46 102 62 83 68 116 22 121 -29 3
-87 -19 -127 -50 -30 -23 -44 -23 -37 0 4 10 -1 27 -9 38 -18 22 -15 25 -80
-81 -35 -57 -47 -68 -110 -100 -83 -42 -132 -52 -159 -32 -29 21 -14 55 23 49
35 -5 102 28 130 64 43 55 15 101 -54 88 -41 -7 -117 -71 -134 -112 -22 -52
-191 -115 -191 -72 0 5 22 37 48 72 62 80 74 102 65 123 -11 29 -82 14 -151
-32 -59 -39 -59 -39 -49 -12 8 20 7 31 -2 43 -19 22 -30 20 -41 -8 -5 -14 -26
-50 -46 -81 -30 -44 -49 -61 -98 -84 -34 -16 -72 -33 -86 -36 -22 -6 -19 -2
16 31 103 97 92 181 -21 160 -42 -8 -88 -46 -105 -85 -12 -31 -76 -78 -143
-106 -70 -29 -75 1 -16 91 29 44 39 69 34 83 -11 35 -29 24 -70 -46 -28 -47
-56 -78 -89 -100 -52 -36 -111 -52 -128 -35 -28 28 87 213 206 331 l64 64 95
-2 c107 -2 165 9 192 39 24 26 3 27 -46 3 -39 -20 -185 -31 -201 -15 -12 12
141 121 208 149 28 12 44 24 44 36 0 14 -5 16 -27 11 -51 -12 -177 -83 -247
-139 -67 -53 -71 -55 -131 -55 -48 0 -68 -5 -89 -21 -28 -22 -36 -69 -12 -69
8 0 12 8 9 23 -6 29 29 47 91 47 l43 0 -55 -57 c-58 -62 -172 -226 -172 -249
0 -24 -127 -103 -167 -104 -29 0 -7 70 43 136 28 36 29 47 9 64 -11 9 -18 10
-29 1 -10 -9 -16 -8 -26 4 -39 47 -164 -16 -211 -107 -13 -26 -34 -45 -69 -63
-99 -50 -117 -23 -45 65 25 30 45 65 45 77 0 41 -42 28 -124 -37 -42 -33 -76
-57 -76 -52 0 4 20 37 45 72 53 75 56 90 16 90 -20 0 -52 -17 -98 -51 -37 -28
-62 -45 -55 -38 15 17 16 51 0 67 -19 19 -25 15 -48 -32 -41 -86 -78 -126
-143 -156 -84 -39 -117 -47 -117 -27 0 15 88 128 110 142 12 8 13 42 1 49 -5
4 -21 2 -36 -4 -26 -10 -27 -9 -21 15 6 22 3 25 -22 25 -41 0 -76 -40 -69 -79
5 -25 1 -34 -25 -56 -36 -31 -130 -79 -173 -89 l-30 -8 29 23 c43 34 86 99 86
130 0 85 -153 51 -199 -44 -31 -64 -99 -117 -149 -117 -18 0 -18 4 -9 40 10
35 8 43 -11 69 l-22 30 66 83 c37 46 87 104 111 129 l45 46 126 6 c155 6 227
26 284 77 35 31 42 43 42 74 0 52 -28 76 -95 82 -36 2 -71 -2 -104 -14z m140
-24 c37 -17 43 -53 14 -85 -53 -56 -174 -93 -308 -93 l-75 0 30 31 c42 45 161
121 219 141 60 21 85 22 120 6z"/>
<path d="M840 2990 c0 -5 7 -10 15 -10 9 0 18 -6 20 -12 2 -7 20 -66 40 -131
47 -152 59 -153 95 -8 l25 103 35 -106 c47 -146 58 -144 101 20 25 97 37 128
51 132 34 9 18 22 -27 22 -25 0 -45 -4 -45 -10 0 -5 9 -10 20 -10 11 0 20 -1
20 -2 0 -2 -13 -49 -28 -105 l-27 -101 -35 109 c-30 96 -51 133 -63 111 -3 -4
-15 -51 -28 -105 -12 -53 -26 -94 -29 -90 -4 5 -17 45 -30 91 -22 81 -22 83
-4 97 17 13 13 14 -43 15 -36 0 -63 -4 -63 -10z"/>
<path d="M1281 2904 c-30 -38 -29 -123 2 -159 36 -42 137 -34 137 11 0 20 -13
17 -28 -6 -14 -22 -54 -27 -69 -7 -6 6 -13 29 -17 50 l-7 37 66 0 c62 0 65 1
65 24 0 13 -9 35 -21 50 -16 21 -29 26 -64 26 -35 0 -48 -5 -64 -26z"/>
<path d="M1741 2911 c-51 -51 -30 -173 33 -189 40 -11 86 -1 100 20 16 27 -2
34 -24 10 -39 -41 -76 -23 -87 42 l-6 36 66 0 67 0 -6 33 c-4 17 -15 40 -26
50 -28 24 -92 23 -117 -2z"/>
<path d="M2123 2911 c-42 -40 -37 -141 10 -179 30 -25 110 -15 121 15 10 26
-3 28 -24 5 -39 -41 -76 -23 -87 42 l-6 36 67 0 68 0 -7 33 c-4 17 -14 40 -23
50 -21 24 -92 23 -119 -2z"/>
<path d="M5854 1785 c-17 -13 -17 -14 -1 -15 13 0 17 -8 17 -35 0 -32 -3 -35
-28 -35 -64 0 -98 -73 -54 -113 21 -19 58 -22 68 -6 5 8 9 8 14 -1 4 -7 16 -9
29 -5 24 7 28 25 6 25 -12 0 -15 18 -15 100 0 55 -4 100 -8 100 -5 0 -17 -7
-28 -15z"/>
<path d="M1548 1763 c15 -6 17 -173 2 -173 -5 0 -10 -4 -10 -10 0 -13 89 -13
129 1 64 22 81 110 32 160 -27 27 -35 29 -98 28 -37 0 -62 -3 -55 -6z m119
-27 c56 -48 26 -151 -41 -144 -31 3 -31 3 -34 72 -2 38 -1 75 2 83 8 20 42 16
73 -11z"/>
<path d="M2944 1706 c-18 -8 -21 -16 -17 -50 8 -80 11 -86 41 -86 15 0 34 6
40 12 10 10 14 10 21 0 9 -15 97 -10 114 7 8 8 8 11 -1 11 -7 0 -12 13 -12 31
0 42 -17 69 -43 69 -25 0 -67 -26 -67 -41 0 -15 40 -10 46 6 9 22 24 18 24 -5
0 -13 -9 -22 -25 -26 -13 -3 -29 -12 -36 -20 -6 -8 -22 -14 -35 -14 -21 0 -24
5 -24 41 0 36 2 40 20 34 14 -5 20 -2 20 9 0 9 -8 16 -19 16 -11 0 -21 3 -23
8 -1 4 -13 3 -24 -2z"/>
<path d="M3250 1707 c-18 -13 -16 -102 2 -124 15 -18 53 -16 69 3 11 14 10 16
-11 12 -23 -3 -25 1 -28 41 -3 41 -2 43 20 37 13 -3 26 -6 31 -6 4 0 7 -17 7
-39 0 -21 6 -43 13 -49 14 -12 95 -11 115 2 7 4 12 2 12 -3 0 -6 15 -11 34
-11 l33 0 -5 51 c-4 46 -3 51 14 47 14 -2 20 -13 22 -41 2 -21 -1 -37 -7 -37
-6 0 -11 -4 -11 -10 0 -5 18 -10 40 -10 22 0 40 5 40 10 0 6 -4 10 -10 10 -5
0 -10 19 -10 43 0 23 -4 48 -8 55 -10 16 -117 11 -134 -6 -9 -9 -8 -12 5 -12
13 0 17 -9 17 -41 0 -33 -3 -40 -16 -35 -9 3 -18 6 -20 6 -2 0 -4 23 -4 50 0
35 -4 50 -13 50 -17 0 -56 -29 -39 -30 7 0 12 -14 12 -36 0 -28 -3 -35 -17
-32 -14 2 -19 15 -21 51 -3 49 -10 54 -43 37 -13 -7 -19 -7 -19 0 0 5 -9 10
-20 10 -11 0 -20 5 -20 10 0 13 -11 12 -30 -3z"/>
<path d="M2311 1674 c-12 -15 -21 -35 -21 -45 0 -48 81 -79 111 -42 13 15 12
16 -9 10 -16 -4 -30 1 -43 14 -29 29 -23 39 21 39 22 0 40 5 40 10 0 6 7 10
15 10 11 0 15 -11 15 -40 0 -22 -4 -40 -10 -40 -5 0 -10 -4 -10 -10 0 -5 18
-10 40 -10 40 0 53 13 24 24 -10 4 -14 16 -12 38 2 28 7 33 28 33 16 0 25 6
25 15 0 17 -69 23 -97 9 -10 -6 -19 -5 -23 1 -3 5 -21 10 -40 10 -24 0 -39 -7
-54 -26z"/>
<path d="M2558 1689 c-24 -14 -23 -39 2 -39 11 0 20 7 20 15 0 8 5 15 10 15 6
0 10 -9 10 -19 0 -12 -11 -23 -31 -30 -24 -8 -30 -16 -27 -33 3 -21 8 -22 94
-25 l91 -2 -5 50 c-4 46 -3 51 14 47 14 -2 20 -13 22 -41 2 -21 -1 -37 -7 -37
-6 0 -11 -4 -11 -10 0 -5 15 -10 34 -10 l34 0 -6 48 c-8 76 -14 83 -78 79 -30
-2 -60 -9 -66 -15 -9 -9 -8 -12 5 -12 13 0 17 -9 17 -41 0 -33 -3 -40 -16 -35
-9 3 -18 6 -20 6 -2 0 -4 15 -4 34 0 19 -3 41 -6 50 -7 18 -50 21 -76 5z"/>
<path d="M3656 1684 c-17 -16 -21 -36 -9 -47 3 -4 6 -23 6 -42 0 -19 -3 -38
-6 -42 -13 -12 -7 -51 9 -57 54 -21 119 17 112 65 -2 19 -12 25 -48 32 l-44 9
33 14 c18 8 35 23 38 34 3 11 9 20 14 20 5 0 9 6 9 14 0 20 -94 20 -114 0z"/>
<path d="M4311 1683 c-15 -11 -15 -12 2 -13 13 0 17 -9 17 -40 0 -22 -4 -40
-10 -40 -5 0 -10 -4 -10 -10 0 -5 16 -10 35 -10 19 0 35 5 35 10 0 6 -5 10
-11 10 -6 0 -9 17 -7 43 2 34 7 42 23 42 16 0 21 -8 23 -42 2 -26 -1 -43 -7
-43 -6 0 -11 -4 -11 -10 0 -5 13 -10 29 -10 17 0 33 5 36 10 3 6 1 10 -4 10
-18 0 -13 80 5 87 9 3 20 0 25 -8 12 -19 11 -79 -1 -79 -5 0 -10 -4 -10 -10 0
-5 14 -10 31 -10 26 0 30 3 24 18 -5 9 -11 37 -14 62 -5 37 -10 46 -29 48 -13
2 -30 -2 -38 -8 -10 -9 -14 -9 -14 -1 0 15 -97 10 -119 -6z"/>
<path d="M4811 1682 c-5 -9 -8 -42 -6 -72 2 -30 -1 -60 -7 -67 -17 -22 9 -53
45 -53 49 0 79 25 75 63 -3 30 -6 32 -45 35 -51 4 -55 14 -10 27 25 8 33 16
35 38 2 15 8 27 13 27 5 0 9 4 9 9 0 4 -22 9 -50 10 -38 0 -52 -4 -59 -17z"/>
<path d="M4950 1680 c-53 -53 3 -131 74 -104 27 11 17 24 -13 18 -23 -5 -32
-2 -40 14 -18 34 -13 42 25 42 20 0 43 7 52 17 16 16 17 14 20 -27 2 -26 -1
-46 -7 -48 -6 -2 -9 -8 -5 -13 7 -12 64 -12 64 1 0 6 -4 10 -10 10 -17 0 -12
77 6 84 28 11 36 -5 32 -55 -5 -48 -5 -49 23 -49 16 0 29 5 29 10 0 6 -4 10
-9 10 -6 0 -11 24 -13 53 l-3 52 -50 1 c-27 1 -58 -3 -69 -8 -12 -7 -22 -6
-29 1 -17 17 -55 13 -77 -9z"/>
<path d="M5373 1688 c-13 -22 -13 -182 0 -190 40 -26 107 7 107 51 0 31 -14
41 -61 41 -16 0 -29 5 -29 10 0 6 9 10 20 10 26 0 61 35 54 55 -4 10 0 15 10
15 9 0 16 4 16 9 0 14 -108 12 -117 -1z"/>
<path d="M2535 1335 c-18 -13 -18 -14 -2 -15 15 0 17 -11 17 -90 0 -53 -4 -90
-10 -90 -5 0 -10 -4 -10 -10 0 -5 17 -10 37 -10 29 0 34 3 25 12 -7 7 -12 21
-12 31 0 16 3 17 15 7 8 -7 15 -21 15 -31 0 -15 7 -19 35 -19 19 0 35 5 35 10
0 6 -6 10 -13 10 -12 0 -57 51 -57 64 0 13 42 26 65 20 24 -6 25 -9 25 -83 0
-47 -5 -82 -12 -89 -9 -9 -2 -12 33 -11 24 1 36 3 27 6 -13 3 -18 15 -18 39 0
31 3 34 29 34 20 0 35 8 45 22 19 27 21 79 4 96 -15 15 -61 15 -76 0 -7 -7
-12 -8 -12 -2 0 5 -27 10 -60 12 -52 2 -60 0 -58 -14 2 -9 -2 -19 -9 -21 -8
-3 -13 16 -15 63 -3 72 -12 83 -43 59z"/>
<path d="M4025 1335 c-18 -13 -18 -14 -2 -15 13 0 17 -8 17 -35 0 -32 -2 -35
-30 -35 -45 0 -74 -34 -66 -78 7 -45 19 -52 83 -49 55 4 76 13 56 25 -8 5 -13
43 -15 102 -2 53 -7 95 -13 97 -6 2 -20 -3 -30 -12z"/>
<path d="M4474 1335 c-17 -13 -17 -14 -1 -15 15 0 17 -11 17 -90 0 -53 -4 -90
-10 -90 -5 0 -10 -4 -10 -10 0 -5 14 -10 30 -10 29 0 40 13 20 25 -15 9 -12
61 5 75 26 21 45 4 45 -40 0 -22 -4 -40 -10 -40 -5 0 -10 -4 -10 -9 0 -5 34
-10 75 -10 42 0 75 4 75 9 0 6 -7 10 -16 10 -12 0 -14 9 -12 43 3 37 6 42 26
39 14 -2 22 2 22 12 0 11 -11 15 -39 14 -42 0 -75 -16 -53 -25 12 -5 17 -74 6
-86 -15 -15 -34 8 -34 40 0 19 -5 43 -10 54 -12 22 -50 25 -69 7 -10 -11 -12
-1 -9 50 3 65 -3 73 -38 47z"/>
<path d="M2148 1308 c15 -15 17 -168 2 -168 -5 0 -10 -4 -10 -10 0 -5 20 -10
45 -10 25 0 45 5 45 10 0 6 -9 10 -20 10 -16 0 -20 7 -20 30 0 25 4 30 23 30
39 0 67 27 67 65 0 43 -20 55 -91 55 -41 0 -50 -3 -41 -12z"/>
</g>
</svg>
